<?xml version="1.0" standalone="no"?>
<!DOCTYPE svg PUBLIC "-//W3C//DTD SVG 1.1//EN" "http://www.w3.org/Graphics/SVG/1.1/DTD/svg11.dtd" >
<svg xmlns="http://www.w3.org/2000/svg" xmlns:xlink="http://www.w3.org/1999/xlink" version="1.1">
<metadata>
Created by FontForge 20170731 at Wed Dec  2 19:26:19 2020
 By Aleksey,,,
Copyright (c) 2019 by Rick Banks. All rights reserved.
</metadata>
<defs>
<font id="F37GingerPro-Bold" horiz-adv-x="1228" >
  <font-face 
    font-family="F37 Ginger Pro Bold"
    font-weight="700"
    font-stretch="normal"
    units-per-em="2048"
    panose-1="0 0 8 0 0 0 0 0 0 0"
    ascent="1638"
    descent="-410"
    x-height="973"
    cap-height="1516"
    bbox="-1747 -584 2580 2071"
    underline-thickness="102"
    underline-position="-307"
    unicode-range="U+0020-FB02"
  />
<missing-glyph horiz-adv-x="1492" 
d="M205 1516h1083v-1516h-1083v1516zM463 1245v-975h567v975h-567z" />
    <glyph glyph-name="fi" unicode="fi" 
d="M1110 973v-973h-258v729h-401v-729h-258v729h-142v244h142v223q0 164 77 252t230 88q113 0 190 -25v-227l-8 1q-9 1 -21.5 2.5t-27.5 3t-32 2.5t-30 1q-63 0 -91.5 -28.5t-28.5 -102.5v-190h659zM983 1143q-71 0 -119.5 47.5t-48.5 118.5q0 70 48.5 118t119.5 48
t119.5 -48t48.5 -118q0 -71 -48.5 -118.5t-119.5 -47.5z" />
    <glyph glyph-name="fl" unicode="fl" horiz-adv-x="1280" 
d="M1217 215q24 0 38 2v-227q-87 -17 -122 -17q-139 0 -210 74.5t-71 214.5v467h-401v-729h-258v729h-142v244h142v223q0 164 77 252t230 88q113 0 190 -25v-227l-8 1q-9 1 -21.5 2.5t-27.5 3t-32 2.5t-30 1q-63 0 -91.5 -28.5t-28.5 -102.5v-190h401v543h258v-1194
q0 -54 22.5 -80.5t84.5 -26.5z" />
    <glyph glyph-name="f_f" unicode="ff" horiz-adv-x="1300" 
d="M1200 1294q-62 0 -90.5 -29t-28.5 -102v-190h217v-244h-217v-729h-258v729h-372v-729h-258v729h-142v244h142v223q0 163 76.5 251.5t228.5 88.5q112 0 192 -25v-227l-8 1q-9 1 -21.5 2.5t-27.5 3t-32 2.5t-30 1q-63 0 -91.5 -28.5t-28.5 -102.5v-190h372v223
q0 163 76.5 251.5t228.5 88.5q114 0 191 -25v-227q-72 10 -119 10z" />
    <glyph glyph-name="f_f_i" unicode="ffi" horiz-adv-x="1873" 
d="M1741 973v-973h-258v729h-402v-729h-258v729h-372v-729h-258v729h-142v244h142v223q0 163 76.5 251.5t228.5 88.5q112 0 192 -25v-227l-8 1q-9 1 -21.5 2.5t-27.5 3t-32 2.5t-30 1q-63 0 -91.5 -28.5t-28.5 -102.5v-190h372v223q0 164 76.5 252t230.5 88q114 0 191 -25
v-227l-9 1q-8 1 -21 2.5t-28 3t-31.5 2.5t-29.5 1q-63 0 -92 -28.5t-29 -102.5v-190h660zM1614 1143q-72 0 -120 47t-48 119q0 71 48 118.5t120 47.5q70 0 118 -47.5t48 -118.5q0 -72 -47.5 -119t-118.5 -47z" />
    <glyph glyph-name="f_f_l" unicode="ffl" horiz-adv-x="1912" 
d="M1849 215q25 0 39 2v-227q-87 -17 -125 -17q-139 0 -208.5 74.5t-69.5 214.5v467h-402v-729h-258v729h-374v-729h-258v729h-142v244h142v223q0 163 76.5 251.5t228.5 88.5q112 0 192 -25v-227l-8 1q-9 1 -21.5 2.5t-27.5 3t-32 2.5t-30 1q-63 0 -91.5 -28.5t-28.5 -102.5
v-190h374v223q0 164 77 252t231 88q113 0 190 -25v-227l-9 1q-8 1 -20.5 2.5t-27.5 3t-32 2.5t-30 1q-63 0 -92 -28.5t-29 -102.5v-190h402v543h258v-1194q0 -54 22 -80.5t84 -26.5z" />
    <glyph glyph-name=".notdef" horiz-adv-x="1492" 
d="M205 1516h1083v-1516h-1083v1516zM463 1245v-975h567v975h-567z" />
    <glyph glyph-name=".null" horiz-adv-x="0" 
 />
    <glyph glyph-name="nonmarkingreturn" horiz-adv-x="682" 
 />
    <glyph glyph-name="space" unicode=" " horiz-adv-x="544" 
 />
    <glyph glyph-name="exclam" unicode="!" horiz-adv-x="579" 
d="M154 1020v496h272v-496l-59 -543h-154zM291 -14q-69 0 -115.5 45t-46.5 114t46.5 114.5t115.5 45.5q68 0 114 -45.5t46 -114.5t-46 -114t-114 -45z" />
    <glyph glyph-name="quotedbl" unicode="&#x22;" horiz-adv-x="890" 
d="M94 1516h297l-43 -525h-213zM502 1516h297l-43 -525h-213z" />
    <glyph glyph-name="numbersign" unicode="#" horiz-adv-x="1323" 
d="M1251 895h-237l-35 -242h207v-194h-234l-51 -363h-201l52 363h-267l-51 -363h-198l51 363h-215v194h241l35 242h-211v195h238l47 340h199l-48 -340h267l47 340h200l-47 -340h211v-195zM778 653l35 242h-266l-35 -242h266z" />
    <glyph glyph-name="dollar" unicode="$" horiz-adv-x="1126" 
d="M1090 432q0 -180 -100.5 -299t-289.5 -149v-154h-221v150q-254 30 -422 258l168 180q39 -43 70 -72t76 -60t97.5 -47t111.5 -16q118 0 176.5 58.5t58.5 138.5q0 47 -23 84t-61.5 63.5t-88.5 49.5t-105.5 45.5t-111 47.5t-105.5 60.5t-88.5 79.5t-61.5 109t-23 145
q0 162 89.5 271.5t242.5 148.5v162h221v-146q198 -17 367 -141l-141 -213q-61 54 -141 80t-158 26q-98 0 -153.5 -42t-55.5 -117q0 -48 23 -85.5t62 -63t89.5 -47.5t106 -44t111 -47t106 -61.5t89.5 -82.5t62 -115t23 -155z" />
    <glyph glyph-name="percent" unicode="%" horiz-adv-x="1798" 
d="M829 1174q0 -158 -114 -270.5t-273 -112.5t-273 112.5t-114 270.5t114 270t273 112t273 -112t114 -270zM1208 1516h226l-832 -1516h-225zM442 1016q64 0 109 46.5t45 111.5q0 66 -44.5 110.5t-109.5 44.5q-66 0 -109.5 -44.5t-43.5 -110.5q0 -65 44 -111.5t109 -46.5z
M1743 354q0 -158 -114 -270.5t-273 -112.5t-273 112.5t-114 270.5t114 270.5t273 112.5t273 -112.5t114 -270.5zM1356 197q64 0 108.5 46t44.5 111t-44.5 110.5t-108.5 45.5q-65 0 -109.5 -45.5t-44.5 -110.5t44.5 -111t109.5 -46z" />
    <glyph glyph-name="ampersand" unicode="&#x26;" horiz-adv-x="1302" 
d="M1225 688h-154v-438h154v-250h-652q-209 0 -346 127.5t-137 318.5q0 258 242 367q-205 94 -205 324q0 83 27.5 155t80 128.5t137 89t191.5 32.5q206 0 320 -117l-170 -188q-53 53 -135 53q-84 0 -129.5 -48t-45.5 -120q0 -79 52.5 -131.5t146.5 -52.5h211v197h258v-197
h154v-250zM813 250v438h-217q-103 0 -166 -69.5t-63 -157.5q0 -84 54 -147.5t157 -63.5h235z" />
    <glyph glyph-name="quotesingle" unicode="'" horiz-adv-x="483" 
d="M94 1516h297l-43 -525h-213z" />
    <glyph glyph-name="parenleft" unicode="(" horiz-adv-x="739" 
d="M612 -406q-255 151 -397.5 407t-142.5 566q0 316 141.5 570.5t398.5 402.5l117 -188q-182 -128 -284.5 -337t-102.5 -448q0 -233 103 -443t284 -341z" />
    <glyph glyph-name="parenright" unicode=")" horiz-adv-x="739" 
d="M10 -217q181 131 284 341t103 443q0 238 -102.5 447.5t-284.5 337.5l117 188q257 -148 399 -402.5t142 -570.5q0 -310 -142.5 -566t-398.5 -407z" />
    <glyph glyph-name="asterisk" unicode="*" horiz-adv-x="833" 
d="M752 1268l-185 -86l185 -88l-93 -160l-167 115l16 -203h-184l16 203l-168 -115l-92 160l184 88l-184 86l92 162l168 -117l-16 203h184l-16 -203l167 117z" />
    <glyph glyph-name="plus" unicode="+" horiz-adv-x="1386" 
d="M561 586h-436v245h436v467h256v-467h447v-245h-447v-467h-256v467z" />
    <glyph glyph-name="comma" unicode="," horiz-adv-x="505" 
d="M250 305q81 0 126.5 -61t45.5 -160q0 -154 -96 -273t-220 -124v127q60 0 110.5 47t64.5 135q-24 -4 -41 -4q-66 0 -107 42.5t-41 110.5t45 114t113 46z" />
    <glyph glyph-name="hyphen" unicode="-" horiz-adv-x="845" 
d="M115 698h618v-237h-618v237z" />
    <glyph glyph-name="period" unicode="." horiz-adv-x="499" 
d="M252 -14q-69 0 -115.5 45.5t-46.5 115.5q0 67 46.5 112.5t115.5 45.5q68 0 114 -45.5t46 -112.5q0 -70 -46 -115.5t-114 -45.5z" />
    <glyph glyph-name="slash" unicode="/" horiz-adv-x="1179" 
d="M877 1516h260l-832 -1516h-260z" />
    <glyph glyph-name="zero" unicode="0" horiz-adv-x="1220" 
d="M610 -27q-120 0 -214.5 41.5t-153.5 113.5t-90 166.5t-31 203.5v520q0 109 31 203t90 166.5t153.5 113.5t214.5 41q230 0 359 -145t129 -379v-520q0 -154 -56 -271.5t-167.5 -185.5t-264.5 -68zM610 225q221 0 221 295v475q0 295 -221 295q-223 0 -223 -295v-475
q0 -295 223 -295z" />
    <glyph glyph-name="one" unicode="1" horiz-adv-x="737" 
d="M291 1253h-242v263h516v-1516h-274v1253z" />
    <glyph glyph-name="two" unicode="2" horiz-adv-x="1132" 
d="M766 567l-313 -305h583v-262h-948v264l381 371q158 155 225.5 262t67.5 201q0 87 -50.5 139.5t-142.5 52.5q-87 0 -145.5 -50t-81.5 -144h-260q31 220 163.5 333t329.5 113q129 0 232.5 -49.5t167 -151t63.5 -239.5q0 -126 -68 -264.5t-204 -270.5z" />
    <glyph glyph-name="three" unicode="3" horiz-adv-x="1144" 
d="M807 813q242 -110 242 -379q0 -201 -137 -331t-347 -130q-225 0 -354.5 126t-144.5 339h260q32 -213 237 -213q104 0 156.5 65t52.5 159q0 96 -63.5 167.5t-167.5 71.5h-70v254h66q94 0 147 52.5t53 131.5q0 71 -41 117.5t-123 46.5q-91 0 -137 -53t-51 -137h-262
q6 195 123.5 318.5t331.5 123.5q106 0 190 -32.5t136.5 -89t80 -128.5t27.5 -155q0 -225 -205 -324z" />
    <glyph glyph-name="four" unicode="4" horiz-adv-x="1202" 
d="M1126 481v-241h-155v-240h-264v240h-668v233l682 1043h250v-1035h155zM330 481h377v586z" />
    <glyph glyph-name="five" unicode="5" horiz-adv-x="1183" 
d="M623 1012q135 0 245 -63.5t174 -181t64 -265.5q0 -151 -68 -272.5t-187 -189t-267 -67.5q-210 0 -355.5 132t-167.5 335h263q3 -30 18 -64t42.5 -70t79 -59.5t116.5 -23.5q122 0 191 76.5t69 200.5q0 133 -78 204.5t-189 71.5q-131 0 -229 -88l-192 154l116 674h766
l-20 -250h-529l-55 -293q79 39 193 39z" />
    <glyph glyph-name="six" unicode="6" horiz-adv-x="1153" 
d="M610 946q197 0 337 -139.5t140 -339.5q0 -131 -64.5 -244t-181.5 -181.5t-259 -68.5q-141 0 -257 68.5t-180.5 181.5t-64.5 244q0 135 84 299l393 750h303l-303 -574q32 4 53 4zM582 219q107 0 179.5 75t72.5 173t-72.5 173t-179.5 75q-106 0 -177 -75t-71 -173t71 -173
t177 -75z" />
    <glyph glyph-name="seven" unicode="7" horiz-adv-x="1079" 
d="M41 1516h989v-261l-594 -1255h-299l604 1253h-700v263z" />
    <glyph glyph-name="eight" unicode="8" horiz-adv-x="1236" 
d="M952 911q94 -73 147.5 -180t53.5 -231q0 -143 -71 -264.5t-194.5 -192t-271.5 -70.5q-147 0 -270 70.5t-193.5 192t-70.5 264.5q0 126 54 233.5t149 179.5q-80 92 -80 224q0 170 120 287.5t291 117.5q172 0 293 -117.5t121 -287.5q0 -130 -78 -226zM616 1292
q-63 0 -109 -46.5t-46 -110.5q0 -69 53 -119q55 10 102 10t105 -10q55 52 55 119q0 65 -47 111t-113 46zM616 219q118 0 200.5 83t82.5 198q0 114 -83 197t-200 83q-115 0 -197.5 -83.5t-82.5 -196.5q0 -114 82.5 -197.5t197.5 -83.5z" />
    <glyph glyph-name="nine" unicode="9" horiz-adv-x="1153" 
d="M571 1542q140 0 256 -68t181 -181t65 -244q0 -136 -84 -297l-395 -752h-303l305 573q-36 -4 -53 -4q-129 0 -239 64t-174 174.5t-64 241.5q0 98 38.5 188.5t104.5 157.5t160.5 107t201.5 40zM571 803q105 0 176.5 74t71.5 172t-71.5 172.5t-176.5 74.5
q-107 0 -179.5 -74.5t-72.5 -172.5t72.5 -172t179.5 -74z" />
    <glyph glyph-name="colon" unicode=":" horiz-adv-x="530" 
d="M266 633q-68 0 -115 46t-47 114t47 113.5t115 45.5t114 -45t46 -114t-46 -114.5t-114 -45.5zM266 -14q-68 0 -115 45.5t-47 115.5q0 67 47 112.5t115 45.5t114 -45.5t46 -112.5q0 -70 -46 -115.5t-114 -45.5z" />
    <glyph glyph-name="semicolon" unicode=";" horiz-adv-x="542" 
d="M268 633q-68 0 -115 46t-47 114t47 113.5t115 45.5t114 -45t46 -114t-46 -114.5t-114 -45.5zM264 305q83 0 127.5 -60.5t44.5 -160.5q0 -154 -95 -273t-218 -124v127q59 0 108.5 47t63.5 135q-24 -4 -41 -4q-65 0 -106.5 43t-41.5 110q0 68 45 114t113 46z" />
    <glyph glyph-name="less" unicode="&#x3c;" horiz-adv-x="1327" 
d="M260 709l612 632l175 -172l-465 -460l465 -461l-175 -172z" />
    <glyph glyph-name="equal" unicode="=" horiz-adv-x="1343" 
d="M125 850v246h1094v-246h-1094zM125 322v245h1094v-245h-1094z" />
    <glyph glyph-name="greater" unicode="&#x3e;" horiz-adv-x="1327" 
d="M283 248l462 461l-462 460l172 172l614 -632l-614 -633z" />
    <glyph glyph-name="question" unicode="?" horiz-adv-x="1034" 
d="M289 561q0 69 22.5 124.5t58.5 92t79 67.5t86.5 57.5t79.5 54.5t58.5 66.5t22.5 86.5q0 86 -48.5 134t-139.5 48t-147 -60.5t-56 -158.5h-248q0 205 132 338t333 133q202 0 324.5 -116t122.5 -308q0 -77 -22.5 -140.5t-58 -105.5t-79 -77t-87 -62.5t-79 -55t-58 -62.5
t-22.5 -76v-68h-274v88zM422 -14q-68 0 -114 45t-46 114t46 114.5t114 45.5t114 -45.5t46 -114.5t-46 -114t-114 -45z" />
    <glyph glyph-name="at" unicode="@" horiz-adv-x="1925" 
d="M895 -29q-179 0 -288 123t-109 301q0 116 48 211t143 153t220 58q151 0 250 -92v78h230v-481q0 -119 73 -119q65 0 107.5 91t42.5 220q0 74 -20.5 149.5t-69.5 151.5t-119.5 134.5t-180.5 95t-243 36.5q-91 0 -180 -22t-178.5 -74.5t-157.5 -130.5t-110 -199.5
t-42 -271.5q0 -177 54.5 -313.5t150.5 -219t218.5 -124t266.5 -41.5q227 0 416 114l123 -194q-216 -142 -565 -142q-190 0 -354.5 62.5t-286.5 177.5t-192 290.5t-70 389.5q0 179 52 333t139.5 263t202.5 187t241.5 115.5t255.5 37.5q134 0 261 -31.5t239.5 -97.5
t197.5 -159t134.5 -225t49.5 -286q0 -145 -45.5 -268.5t-137.5 -202.5t-212 -80q-84 0 -146 45.5t-85 114.5q-32 -48 -76 -82t-90.5 -49t-83.5 -21t-74 -6zM934 168q105 0 166 64t61 163q0 97 -61 160t-166 63q-104 0 -164.5 -63t-60.5 -160q0 -98 60.5 -162.5t164.5 -64.5z
" />
    <glyph glyph-name="A" unicode="A" horiz-adv-x="1507" 
d="M1202 0l-123 319h-651l-123 -319h-293l604 1516h279l602 -1516h-295zM754 1165l-228 -585h455z" />
    <glyph glyph-name="B" unicode="B" horiz-adv-x="1261" 
d="M166 0v1516h440q256 0 384 -100.5t128 -287.5q0 -249 -235 -333q149 -32 222 -132t73 -243q0 -212 -152.5 -316t-433.5 -104h-426zM440 920h230q84 0 131 42t47 123q0 85 -48 128.5t-138 43.5h-222v-337zM440 258h211q136 0 196 56t60 145q0 90 -60 147.5t-198 57.5h-209
v-406z" />
    <glyph glyph-name="C" unicode="C" horiz-adv-x="1454" 
d="M868 -27q-162 0 -308 60.5t-252.5 164.5t-169 249.5t-62.5 308.5q0 160 60.5 305t164.5 250.5t251.5 168t313.5 62.5q167 0 312.5 -63t255.5 -176l-170 -191q-155 178 -398 178q-108 0 -204.5 -43t-164.5 -115.5t-107.5 -171t-39.5 -206.5q0 -109 40.5 -207t109.5 -169
t165.5 -113t202.5 -42q105 0 207 46t176 120l160 -190q-110 -106 -248.5 -166t-294.5 -60z" />
    <glyph glyph-name="D" unicode="D" horiz-adv-x="1495" 
d="M166 0v1516h436q241 0 425 -90t287 -262.5t103 -405.5t-103 -405.5t-287 -262.5t-425 -90h-436zM440 262h156q92 0 172 16.5t149.5 54t119 94t78 141t28.5 190.5t-28.5 190.5t-78 140.5t-119 93.5t-149.5 54t-172 16.5h-156v-991z" />
    <glyph glyph-name="E" unicode="E" horiz-adv-x="1214" 
d="M166 0v1516h964v-263h-690v-331h545v-263h-545v-397h690v-262h-964z" />
    <glyph glyph-name="F" unicode="F" horiz-adv-x="1157" 
d="M166 0v1516h946v-263h-672v-333h525v-263h-525v-657h-274z" />
    <glyph glyph-name="G" unicode="G" horiz-adv-x="1636" 
d="M879 -27q-223 0 -407.5 103t-290 282t-105.5 396q0 161 60.5 306t165 251t251.5 168.5t313 62.5q169 0 316.5 -62t257.5 -173l-164 -189q-78 90 -182.5 131t-216.5 41q-151 0 -272.5 -73t-188 -195.5t-66.5 -267.5q0 -146 67.5 -267.5t190.5 -192.5t275 -71
q179 0 296 106t117 285v2h-473v261h744v-175q0 -118 -27.5 -226t-83.5 -200t-137 -159t-193.5 -105.5t-246.5 -38.5z" />
    <glyph glyph-name="H" unicode="H" horiz-adv-x="1601" 
d="M1161 1516h275v-1516h-275v666h-721v-666h-274v1516h274v-586h721v586z" />
    <glyph glyph-name="I" unicode="I" horiz-adv-x="608" 
d="M166 0v1516h274v-1516h-274z" />
    <glyph glyph-name="J" unicode="J" horiz-adv-x="600" 
d="M-80 -459v250q64 8 106 29t73 65.5t45 118t14 184.5v1328h274v-1326q0 -325 -116 -475.5t-396 -173.5z" />
    <glyph glyph-name="K" unicode="K" horiz-adv-x="1368" 
d="M688 748l715 -748h-361l-602 639v-639h-274v1516h274v-666l566 666h344z" />
    <glyph glyph-name="L" unicode="L" horiz-adv-x="1163" 
d="M166 0v1516h274v-1254h699v-262h-973z" />
    <glyph glyph-name="M" unicode="M" horiz-adv-x="1873" 
d="M1352 1516h354v-1516h-272v1141l-369 -580h-264l-361 572v-1133h-274v1516h354l414 -662z" />
    <glyph glyph-name="N" unicode="N" horiz-adv-x="1718" 
d="M1280 1516h272v-1516h-286l-826 1153v-1153h-274v1516h344l770 -1076v1076z" />
    <glyph glyph-name="O" unicode="O" horiz-adv-x="1738" 
d="M868 -27q-162 0 -308 60.5t-252.5 164.5t-169 249.5t-62.5 308.5q0 160 60.5 305t165 250.5t252.5 168t314 62.5t314 -62.5t252.5 -168t165.5 -250.5t61 -305q0 -217 -107 -397.5t-289 -283t-397 -102.5zM868 225q107 0 202.5 41.5t164 112t109 168.5t40.5 207
q0 144 -66.5 267t-185.5 196t-264 73t-264.5 -73t-186.5 -196t-67 -267q0 -109 40.5 -207t109.5 -168.5t165 -112t203 -41.5z" />
    <glyph glyph-name="P" unicode="P" horiz-adv-x="1273" 
d="M166 0v1516h487q145 0 257 -40t180 -110t102.5 -159.5t34.5 -194.5q0 -106 -34.5 -196t-102.5 -161t-180 -111t-257 -40h-213v-504h-274zM440 764h211q154 0 229.5 68.5t75.5 177.5q0 108 -75.5 176.5t-229.5 68.5h-211v-491z" />
    <glyph glyph-name="Q" unicode="Q" horiz-adv-x="1753" 
d="M1403 262h291v-262h-711h-115q-162 0 -308 57t-252.5 155.5t-169 240t-62.5 303.5q0 160 60.5 305t165 250.5t252.5 168t314 62.5t314 -62.5t252.5 -168t165.5 -250t61 -303.5q0 -331 -258 -496zM350 754q0 -144 69 -260t187.5 -180t261.5 -64q229 0 372.5 141.5
t143.5 362.5q0 144 -66.5 267t-185.5 196t-264 73t-264.5 -73t-186.5 -196t-67 -267z" />
    <glyph glyph-name="R" unicode="R" horiz-adv-x="1347" 
d="M1288 0h-313l-359 625h-176v-625h-274v1516h569q139 0 242 -33t164.5 -94t91 -140t29.5 -178q0 -166 -85 -279t-264 -151zM440 1255v-368h316q233 0 233 182q0 89 -58 137.5t-175 48.5h-316z" />
    <glyph glyph-name="S" unicode="S" horiz-adv-x="1173" 
d="M225 418q39 -43 70 -72t76 -60t97.5 -47t111.5 -16q118 0 176.5 58.5t58.5 138.5q0 47 -23 84t-61.5 63.5t-88.5 49.5t-105.5 45.5t-111 47.5t-105.5 60.5t-88.5 79.5t-61.5 109t-23 145q0 203 137 320.5t357 117.5q230 0 426 -143l-141 -213q-61 54 -141 80t-158 26
q-98 0 -153.5 -42t-55.5 -117q0 -48 23 -85.5t62 -63t89.5 -47.5t106 -44t111 -47t106 -61.5t89.5 -82.5t62 -115t23 -155q0 -208 -133 -333.5t-379 -125.5q-152 0 -282 59t-239 206z" />
    <glyph glyph-name="T" unicode="T" horiz-adv-x="1292" 
d="M510 0v1253h-485v263h1243v-263h-484v-1253h-274z" />
    <glyph glyph-name="U" unicode="U" horiz-adv-x="1562" 
d="M782 -27q-295 0 -466 178.5t-171 520.5v844h275v-760q0 -283 80 -408t282 -125t282.5 125t80.5 408v760h274v-844q0 -342 -171 -520.5t-466 -178.5z" />
    <glyph glyph-name="V" unicode="V" horiz-adv-x="1497" 
d="M1188 1516h297l-592 -1516h-287l-594 1516h297l441 -1158z" />
    <glyph glyph-name="W" unicode="W" horiz-adv-x="2109" 
d="M1798 1516h295l-473 -1516h-266l-299 1044l-299 -1044h-269l-471 1516h295l310 -1082l297 1082h274l297 -1080z" />
    <glyph glyph-name="X" unicode="X" horiz-adv-x="1341" 
d="M1350 1516l-514 -768l497 -748h-323l-348 522l-347 -522h-323l510 764l-502 752h324l352 -529l348 529h326z" />
    <glyph glyph-name="Y" unicode="Y" horiz-adv-x="1425" 
d="M1079 1516h318l-547 -850v-666h-275v664l-546 852h317l367 -582z" />
    <glyph glyph-name="Z" unicode="Z" horiz-adv-x="1333" 
d="M414 262h856v-262h-1217v260l856 993h-833v263h1192v-261z" />
    <glyph glyph-name="bracketleft" unicode="[" horiz-adv-x="778" 
d="M160 1516h579v-228h-307v-1474h307v-228h-579v1930z" />
    <glyph glyph-name="backslash" unicode="\" horiz-adv-x="1179" 
d="M43 1516h260l832 -1516h-261z" />
    <glyph glyph-name="bracketright" unicode="]" horiz-adv-x="778" 
d="M39 -186h309v1474h-309v228h579v-1930h-579v228z" />
    <glyph glyph-name="asciicircum" unicode="^" horiz-adv-x="1347" 
d="M672 1300l-273 -612h-272l395 828h303l396 -828h-273z" />
    <glyph glyph-name="underscore" unicode="_" horiz-adv-x="1241" 
d="M86 0h1071v-229h-1071v229z" />
    <glyph glyph-name="grave" unicode="`" horiz-adv-x="833" 
d="M123 1307l96 219l492 -215l-90 -203z" />
    <glyph glyph-name="a" unicode="a" horiz-adv-x="1232" 
d="M848 973h258v-973h-258v78q-120 -96 -281 -96q-133 0 -248 66t-184 183t-69 256t69 255.5t184 182.5t248 66q161 0 281 -96v78zM586 223q109 0 185.5 78t76.5 186q0 107 -76.5 185t-185.5 78q-105 0 -181.5 -78.5t-76.5 -184.5q0 -107 76 -185.5t182 -78.5z" />
    <glyph glyph-name="b" unicode="b" horiz-adv-x="1232" 
d="M668 991q132 0 247 -66t184.5 -182.5t69.5 -255.5t-69.5 -256t-184.5 -183t-247 -66q-159 0 -283 96v-78h-258v1516h258v-621q124 96 283 96zM647 223q106 0 183 78.5t77 185.5q0 106 -77.5 184.5t-182.5 78.5q-109 0 -185.5 -78t-76.5 -185q0 -108 76.5 -186t185.5 -78z
" />
    <glyph glyph-name="c" unicode="c" horiz-adv-x="1056" 
d="M582 -27q-141 0 -260 68.5t-187.5 186t-68.5 255.5q0 212 150.5 360t365.5 148q136 0 250.5 -62t185.5 -167l-215 -131q-37 53 -94 83.5t-125 30.5q-108 0 -182 -77.5t-74 -184.5q0 -108 74 -186t182 -78q71 0 130 33.5t95 91.5l213 -133q-69 -108 -186 -173t-254 -65z
" />
    <glyph glyph-name="d" unicode="d" horiz-adv-x="1232" 
d="M848 1516h258v-1516h-258v78q-120 -96 -281 -96q-133 0 -248 66t-184 183t-69 256t69 255.5t184 182.5t248 66q161 0 281 -96v621zM586 223q109 0 185.5 78t76.5 186q0 107 -76.5 185t-185.5 78q-105 0 -181.5 -78.5t-76.5 -184.5q0 -107 76 -185.5t182 -78.5z" />
    <glyph glyph-name="e" unicode="e" horiz-adv-x="1118" 
d="M561 991q153 0 267 -68t172.5 -182.5t58.5 -257.5q0 -26 -4 -80h-733q22 -92 90 -146t172 -54q75 0 137 28.5t100 79.5l174 -139q-148 -199 -405 -199q-125 0 -226.5 43t-165.5 115.5t-98 163.5t-34 192q0 132 61.5 247t176.5 186t257 71zM326 588h477q-15 82 -74.5 127
t-161.5 45q-87 0 -151 -45.5t-90 -126.5z" />
    <glyph glyph-name="f" unicode="f" horiz-adv-x="671" 
d="M571 1294q-63 0 -91.5 -28.5t-28.5 -102.5v-190h217v-244h-217v-729h-258v729h-142v244h142v223q0 163 76.5 251.5t228.5 88.5q112 0 192 -25v-227l-8 1q-9 1 -21.5 2.5t-27.5 3t-32 2.5t-30 1z" />
    <glyph glyph-name="g" unicode="g" horiz-adv-x="1230" 
d="M848 973h258v-965q0 -97 -19 -178t-50 -136.5t-74.5 -98t-88 -67.5t-96 -40.5t-93 -21t-83.5 -5.5q-152 0 -271.5 64.5t-189.5 175.5l234 104q81 -98 227 -98q49 0 92 14.5t78 43.5t55.5 79t20.5 115v119q-120 -96 -281 -96q-133 0 -248 66t-184 183t-69 256t69 255.5
t184 182.5t248 66q161 0 281 -96v78zM586 223q109 0 185.5 78t76.5 186q0 107 -76.5 185t-185.5 78q-105 0 -181.5 -78.5t-76.5 -184.5q0 -107 76 -185.5t182 -78.5z" />
    <glyph glyph-name="h" unicode="h" horiz-adv-x="1153" 
d="M647 991q81 0 149 -24.5t123.5 -75t87 -138t31.5 -204.5v-549h-258v522q0 223 -192 223q-100 0 -151.5 -53.5t-51.5 -175.5v-516h-258v1516h258v-621q99 96 262 96z" />
    <glyph glyph-name="i" unicode="i" horiz-adv-x="516" 
d="M260 1171q-69 0 -116.5 47t-47.5 117q0 67 47.5 113.5t116.5 46.5q68 0 115 -46.5t47 -113.5q0 -70 -47 -117t-115 -47zM127 973h258v-973h-258v973z" />
    <glyph glyph-name="j" unicode="j" horiz-adv-x="516" 
d="M262 1171q-69 0 -116.5 47t-47.5 117q0 67 47.5 113.5t116.5 46.5q68 0 114 -46.5t46 -113.5q0 -70 -46 -117t-114 -47zM127 973h258v-1491h-258v1491z" />
    <glyph glyph-name="k" unicode="k" horiz-adv-x="1079" 
d="M1102 0h-342l-375 430v-430h-258v1516h258v-916l348 373h338l-428 -457z" />
    <glyph glyph-name="l" unicode="l" horiz-adv-x="552" 
d="M416 -27q-141 0 -217 75.5t-76 213.5v1254h258v-1194q0 -54 22 -80.5t84 -26.5q25 0 39 2v-227q-62 -17 -110 -17z" />
    <glyph glyph-name="m" unicode="m" horiz-adv-x="1763" 
d="M1280 991q58 0 109.5 -13.5t99.5 -45.5t83 -80.5t56 -123.5t21 -169v-559h-258v524q0 113 -41.5 167t-130.5 54q-99 0 -150 -53.5t-51 -175.5v-516h-258v524q0 113 -42 167t-132 54q-98 0 -149.5 -54t-51.5 -175v-516h-258v973h258v-78q99 96 264 96q197 0 295 -145
q124 145 336 145z" />
    <glyph glyph-name="n" unicode="n" horiz-adv-x="1153" 
d="M647 991q81 0 149 -24.5t123.5 -75t87 -138t31.5 -204.5v-549h-258v522q0 223 -192 223q-100 0 -151.5 -53.5t-51.5 -175.5v-516h-258v973h258v-78q99 96 262 96z" />
    <glyph glyph-name="o" unicode="o" horiz-adv-x="1167" 
d="M582 -27q-106 0 -202 40.5t-164.5 109t-109 162.5t-40.5 198q0 139 68 256t187 184.5t261 67.5q144 0 263.5 -67.5t188 -184t68.5 -256.5q0 -139 -68.5 -256t-188 -185.5t-263.5 -68.5zM582 219q109 0 183.5 77.5t74.5 186.5q0 107 -74.5 184.5t-183.5 77.5
q-107 0 -180.5 -77.5t-73.5 -184.5q0 -109 73.5 -186.5t180.5 -77.5z" />
    <glyph glyph-name="p" unicode="p" horiz-adv-x="1234" 
d="M668 991q132 0 247 -66t184.5 -182.5t69.5 -255.5t-69.5 -256t-184.5 -183t-247 -66q-159 0 -283 96v-596h-258v1491h258v-78q124 96 283 96zM647 223q106 0 183 78.5t77 185.5q0 106 -77.5 184.5t-182.5 78.5q-109 0 -185.5 -78t-76.5 -185q0 -108 76.5 -186t185.5 -78z
" />
    <glyph glyph-name="q" unicode="q" horiz-adv-x="1230" 
d="M848 973h258v-1491h-258v596q-120 -96 -281 -96q-133 0 -248 66t-184 183t-69 256t69 255.5t184 182.5t248 66q161 0 281 -96v78zM586 223q109 0 185.5 78t76.5 186q0 107 -76.5 185t-185.5 78q-105 0 -181.5 -78.5t-76.5 -184.5q0 -107 76 -185.5t182 -78.5z" />
    <glyph glyph-name="r" unicode="r" horiz-adv-x="753" 
d="M696 991h41v-246h-18q-170 0 -252 -53t-82 -182v-510h-258v973h258v-86q101 104 311 104z" />
    <glyph glyph-name="s" unicode="s" horiz-adv-x="890" 
d="M182 305q118 -100 271 -100q61 0 88.5 19.5t27.5 49.5q0 29 -26 49t-68 33.5t-92.5 27t-101.5 35t-93 52.5t-68 84.5t-26 124.5q0 138 93.5 224.5t256.5 86.5q117 0 216 -32.5t161 -88.5l-133 -184q-109 74 -242 74q-98 0 -98 -60q0 -27 26 -47t67 -34.5t90.5 -29.5
t99.5 -38.5t91 -55.5t67 -86.5t26 -125.5q0 -138 -99 -224t-278 -86q-123 0 -214.5 37.5t-174.5 100.5z" />
    <glyph glyph-name="t" unicode="t" horiz-adv-x="751" 
d="M709 729h-256v-383q0 -131 108 -131q18 0 36.5 1t33.5 2.5t27 3t19 2.5l7 1v-227l-5 -2q-5 -1 -13.5 -3t-20.5 -4.5t-29 -5.5t-35.5 -5t-42.5 -3.5t-49 -1.5q-144 0 -219 85.5t-75 236.5v434h-152v244h152v319h258v-319h256v-244z" />
    <glyph glyph-name="u" unicode="u" horiz-adv-x="1142" 
d="M569 -27q-133 0 -234 46t-162.5 147t-61.5 248v559h258v-502q0 -126 46.5 -188t153.5 -62q109 0 156 62t47 188v502h258v-559q0 -111 -35.5 -196.5t-98.5 -138t-145.5 -79.5t-181.5 -27z" />
    <glyph glyph-name="v" unicode="v" horiz-adv-x="1091" 
d="M791 973h278l-387 -973h-272l-390 973h281l242 -660z" />
    <glyph glyph-name="w" unicode="w" horiz-adv-x="1675" 
d="M1380 973h281l-348 -973h-273l-200 639l-203 -639h-272l-347 973h279l207 -654l203 654h266l203 -656z" />
    <glyph glyph-name="x" unicode="x" horiz-adv-x="980" 
d="M979 0h-299l-193 291l-192 -291h-297l340 516l-301 457h299l166 -252l168 252h299l-318 -477z" />
    <glyph glyph-name="y" unicode="y" horiz-adv-x="1089" 
d="M788 973h279l-594 -1491h-258l199 500l-396 991h279l246 -660z" />
    <glyph glyph-name="z" unicode="z" horiz-adv-x="915" 
d="M850 973v-234l-440 -495h440v-244h-784v240l442 489h-442v244h784z" />
    <glyph glyph-name="braceleft" unicode="{" horiz-adv-x="800" 
d="M25 662q129 4 186 61t57 180v342q0 121 73 194.5t185 73.5h226v-227h-105q-108 0 -108 -135v-285q0 -121 -65 -205.5t-195 -111.5q130 -27 195 -112t65 -206v-284q0 -135 108 -135h105v-228h-226q-112 0 -185 74t-73 195v342q0 122 -56.5 177.5t-186.5 59.5v230z" />
    <glyph glyph-name="bar" unicode="|" horiz-adv-x="579" 
d="M158 1516h262v-1803h-262v1803z" />
    <glyph glyph-name="braceright" unicode="}" horiz-adv-x="800" 
d="M778 432q-130 -4 -186.5 -59.5t-56.5 -177.5v-342q0 -121 -74.5 -195t-186.5 -74h-225v228h105q108 0 108 135v284q0 121 65 206t195 112q-130 27 -195 111.5t-65 205.5v285q0 135 -108 135h-105v227h225q113 0 187 -73.5t74 -194.5v-342q0 -123 56.5 -180t186.5 -61
v-230z" />
    <glyph glyph-name="asciitilde" unicode="~" horiz-adv-x="1351" 
d="M141 512q0 165 84 260.5t238 95.5q82 0 161.5 -22.5t144 -45t112.5 -22.5q125 0 125 131h213q0 -165 -83.5 -260.5t-234.5 -95.5q-84 0 -164 22.5t-144 45t-110 22.5q-63 0 -95 -34t-32 -97h-215z" />
    <glyph glyph-name="uni00A0" unicode="&#xa0;" horiz-adv-x="544" 
 />
    <glyph glyph-name="exclamdown" unicode="&#xa1;" horiz-adv-x="575" 
d="M287 817q-69 0 -114.5 45t-45.5 113q0 69 45.5 115.5t114.5 46.5t115.5 -46.5t46.5 -115.5q0 -67 -46.5 -112.5t-115.5 -45.5zM152 102l59 543h154l59 -543v-495h-272v495z" />
    <glyph glyph-name="cent" unicode="&#xa2;" horiz-adv-x="1097" 
d="M1032 492q-55 -86 -142.5 -146.5t-191.5 -81.5v-264h-221v266q-174 38 -287.5 178t-113.5 320q0 181 113 319t288 177v256h221v-254q103 -22 188.5 -79t141.5 -141l-215 -131q-38 54 -94.5 84.5t-124.5 30.5q-108 0 -182 -77.5t-74 -184.5q0 -108 74 -186t182 -78
q71 0 130 33.5t95 91.5z" />
    <glyph glyph-name="sterling" unicode="&#xa3;" horiz-adv-x="1241" 
d="M596 571q0 -170 -139 -309h686v-262h-1061v223q242 131 242 348v9h-236v235h176q-24 61 -35.5 94.5t-23.5 90t-12 108.5q0 193 132.5 313.5t344.5 120.5q206 0 336.5 -116.5t162.5 -329.5h-262q-47 194 -237 194q-95 0 -149 -50.5t-54 -147.5q0 -19 2 -38.5t7 -41.5
t9 -37.5t12.5 -41t13 -37.5t16 -42t14.5 -39h471v-235h-416v-9z" />
    <glyph glyph-name="currency" unicode="&#xa4;" horiz-adv-x="1394" 
d="M1190 748q0 -143 -76 -269l182 -182l-153 -154l-180 183q-131 -88 -291 -88q-142 0 -260 67l-162 -162l-154 154l154 154q-94 134 -94 297q0 161 94 292l-154 154l152 154l160 -162q120 69 264 69q161 0 295 -88l178 181l151 -154l-180 -182q74 -120 74 -264zM672 483
q109 0 183.5 78t74.5 187q0 107 -74.5 184.5t-183.5 77.5q-108 0 -182 -77.5t-74 -184.5q0 -108 74 -186.5t182 -78.5z" />
    <glyph glyph-name="yen" unicode="&#xa5;" horiz-adv-x="1472" 
d="M1423 1516l-430 -666h293v-193h-412v-159h412v-193h-412v-305h-274v305h-446v193h446v159h-446v193h327l-428 666h318l366 -582l367 582h319z" />
    <glyph glyph-name="brokenbar" unicode="&#xa6;" horiz-adv-x="581" 
d="M158 1516h264v-717h-264v717zM158 430h264v-717h-264v717z" />
    <glyph glyph-name="section" unicode="&#xa7;" horiz-adv-x="1191" 
d="M1110 553q0 -185 -172 -293q48 -42 76 -106t28 -138q0 -76 -30.5 -145.5t-85.5 -123t-138.5 -85t-181.5 -31.5q-115 0 -207.5 37t-149.5 99.5t-87.5 140.5t-30.5 164h264q0 -79 53 -133t148 -54q88 0 136 39.5t48 106.5q0 55 -33 97.5t-116 82.5l-307 143
q-127 60 -186.5 142.5t-59.5 199.5q0 194 182 295q-57 71 -57 203q0 66 27.5 127t77.5 109t126.5 77t167.5 29q195 0 314.5 -110.5t119.5 -280.5h-258q0 63 -45.5 100t-120.5 37q-73 0 -112 -30t-39 -83q0 -87 98 -133l303 -141q129 -62 188.5 -145t59.5 -197zM846 541
q0 49 -18.5 80t-59.5 51l-356 166q-70 -47 -70 -131q0 -94 78 -132l356 -165q70 47 70 131z" />
    <glyph glyph-name="dieresis" unicode="&#xa8;" horiz-adv-x="1032" 
d="M289 1161q-69 0 -115.5 46t-46.5 116q0 69 46.5 114.5t115.5 45.5t116.5 -45.5t47.5 -114.5q0 -70 -47 -116t-117 -46zM743 1161q-69 0 -115 46t-46 116q0 69 46 114.5t115 45.5t116.5 -45.5t47.5 -114.5q0 -70 -47 -116t-117 -46z" />
    <glyph glyph-name="copyright" unicode="&#xa9;" horiz-adv-x="1724" 
d="M862 -27q-216 0 -395.5 103t-283 283t-103.5 397q0 160 59 304.5t161.5 250.5t249 168.5t312.5 62.5t312.5 -62.5t249.5 -168.5t162 -250.5t59 -304.5q0 -163 -61.5 -308.5t-166 -249.5t-249.5 -164.5t-306 -60.5zM862 156q124 0 234 45.5t189 124t125 190t46 238.5
q0 125 -44.5 237t-122.5 193t-189 128.5t-238 47.5t-238.5 -47.5t-189.5 -128.5t-123 -193t-45 -237q0 -169 78.5 -306.5t215 -214.5t302.5 -77zM879 303q-130 0 -238.5 61t-170.5 166t-62 230q0 191 137 322.5t334 131.5q124 0 224.5 -53t164.5 -147l-158 -109
q-85 115 -225 115q-106 0 -180 -77t-74 -183q0 -107 74 -184.5t180 -77.5q146 0 231 125l156 -113q-64 -97 -166.5 -152t-226.5 -55z" />
    <glyph glyph-name="ordfeminine" unicode="&#xaa;" horiz-adv-x="905" 
d="M602 893q-65 -78 -192 -78q-155 0 -249.5 101t-94.5 247t95 247t249 101q128 0 192 -79v67h186v-665h-186v59zM422 993q80 0 123 47.5t43 122.5q0 74 -43 121t-123 47q-76 0 -116 -47t-40 -121q0 -76 40 -123t116 -47z" />
    <glyph glyph-name="guillemotleft" unicode="&#xab;" horiz-adv-x="1146" 
d="M66 494l260 387h274l-254 -387l258 -392h-278zM535 494l260 387h272l-254 -387l258 -392h-276z" />
    <glyph glyph-name="logicalnot" unicode="&#xac;" horiz-adv-x="1386" 
d="M1253 831v-610h-256v365h-882v245h1138z" />
    <glyph glyph-name="uni00AD" unicode="&#xad;" horiz-adv-x="845" 
d="M115 698h618v-237h-618v237z" />
    <glyph glyph-name="registered" unicode="&#xae;" horiz-adv-x="1724" 
d="M862 1542q166 0 312.5 -62.5t249.5 -168.5t162 -250.5t59 -304.5q0 -163 -61.5 -308.5t-166 -249.5t-249.5 -164.5t-306 -60.5q-216 0 -395.5 103t-283 283t-103.5 397q0 160 59 304.5t161.5 250.5t249 168.5t312.5 62.5zM862 156q124 0 234 45.5t189 124t125 190
t46 238.5q0 125 -44.5 237t-122.5 193t-189 128.5t-238 47.5t-238.5 -47.5t-189.5 -128.5t-123 -193t-45 -237q0 -169 78.5 -306.5t215 -214.5t302.5 -77zM1204 913q0 -85 -41 -146.5t-119 -92.5l177 -318h-217l-150 293h-78v-293h-209v820h330q146 0 226.5 -71.5
t80.5 -191.5zM776 993v-178h109q104 0 104 88q0 41 -26.5 65.5t-77.5 24.5h-109z" />
    <glyph glyph-name="macron" unicode="&#xaf;" horiz-adv-x="940" 
d="M123 1436h694v-232h-694v232z" />
    <glyph glyph-name="degree" unicode="&#xb0;" horiz-adv-x="741" 
d="M680 1227q0 -128 -90 -217.5t-219 -89.5q-128 0 -218 90t-90 217q0 129 90 219t218 90q129 0 219 -90t90 -219zM508 1227q0 58 -40 98.5t-97 40.5t-96 -40t-39 -99q0 -57 39 -97t96 -40t97 40t40 97z" />
    <glyph glyph-name="plusminus" unicode="&#xb1;" horiz-adv-x="1386" 
d="M561 770h-436v246h436v344h256v-344h447v-246h-447v-344h-256v344zM125 305h1139v-246h-1139v246z" />
    <glyph glyph-name="uni00B2" unicode="&#xb2;" horiz-adv-x="827" 
d="M104 772l304 287q106 95 106 186q0 47 -27.5 78t-80.5 31q-54 0 -82.5 -33t-30.5 -88h-199q0 137 90.5 217t229.5 80q142 0 224.5 -80.5t82.5 -196.5q0 -79 -38.5 -151.5t-125.5 -153.5l-176 -162h334v-180h-611v166z" />
    <glyph glyph-name="uni00B3" unicode="&#xb3;" horiz-adv-x="825" 
d="M401 571q-155 0 -249.5 90.5t-94.5 237.5h193q0 -62 40.5 -101.5t102.5 -39.5q67 0 105.5 34.5t38.5 92.5q0 56 -38.5 90.5t-99.5 34.5h-43v166h41q52 0 86.5 27t34.5 67t-28 66t-72 26q-47 0 -75 -30.5t-28 -78.5h-196q0 123 86 200t221 77q130 0 212.5 -66t82.5 -170
q0 -71 -38.5 -124.5t-109.5 -79.5q83 -28 126.5 -88t43.5 -144q0 -123 -97.5 -205t-244.5 -82z" />
    <glyph glyph-name="acute" unicode="&#xb4;" horiz-adv-x="831" 
d="M121 1311l491 215l97 -219l-498 -199z" />
    <glyph glyph-name="paragraph" unicode="&#xb6;" horiz-adv-x="1542" 
d="M1034 1307h-209v-1702h-223v903q-117 12 -215 48.5t-173.5 97t-118 151t-42.5 201.5q0 79 20.5 151.5t65 138.5t109 114.5t158.5 77t208 28.5h856v-209h-213v-1702h-223v1702zM602 1311q-168 0 -252 -77.5t-84 -209.5q0 -133 85.5 -217t250.5 -96v600z" />
    <glyph glyph-name="periodcentered" unicode="&#xb7;" horiz-adv-x="505" 
d="M254 360q-68 0 -115 46.5t-47 115.5q0 67 47 113.5t115 46.5t114 -46t46 -114q0 -69 -46 -115.5t-114 -46.5z" />
    <glyph glyph-name="cedilla" unicode="&#xb8;" horiz-adv-x="743" 
d="M356 -518q-139 0 -233 84l106 127q19 -23 52.5 -38t66.5 -15q78 0 78 53q0 63 -82 63h-162l94 269h164l-43 -121h21q88 0 145.5 -55t57.5 -148q0 -96 -72.5 -157.5t-192.5 -61.5z" />
    <glyph glyph-name="uni00B9" unicode="&#xb9;" horiz-adv-x="532" 
d="M207 1335h-174v181h375v-910h-201v729z" />
    <glyph glyph-name="ordmasculine" unicode="&#xba;" horiz-adv-x="837" 
d="M776 1167q0 -146 -103 -248t-253 -102q-148 0 -252.5 100t-104.5 246t103 250.5t254 104.5q148 0 252 -102t104 -249zM422 1010q66 0 109.5 45.5t43.5 111.5t-43.5 112t-111.5 46t-112 -46.5t-44 -113.5q0 -65 45 -110t113 -45z" />
    <glyph glyph-name="guillemotright" unicode="&#xbb;" horiz-adv-x="1146" 
d="M334 494l-254 387h274l260 -387l-260 -392h-278zM803 494l-254 387h272l260 -387l-260 -392h-276z" />
    <glyph glyph-name="onequarter" unicode="&#xbc;" horiz-adv-x="1597" 
d="M229 1335h-174v181h373v-910h-199v729zM1081 1516h203l-827 -1516h-205zM1221 133h-416v162l389 594h213v-586h117v-170h-117v-133h-186v133zM1014 303h207v340z" />
    <glyph glyph-name="onehalf" unicode="&#xbd;" horiz-adv-x="1699" 
d="M229 1335h-174v181h373v-910h-199v729zM1081 1516h203l-827 -1516h-205zM1004 166l305 287q58 54 82 97t24 89q0 47 -28.5 78t-81.5 31q-52 0 -80.5 -33t-30.5 -88h-199q0 137 90.5 217t229.5 80q142 0 224.5 -80.5t82.5 -196.5q0 -79 -38.5 -151.5t-125.5 -153.5
l-176 -162h334v-180h-612v166z" />
    <glyph glyph-name="threequarters" unicode="&#xbe;" horiz-adv-x="1804" 
d="M401 571q-155 0 -248.5 90.5t-93.5 237.5h191q0 -62 40.5 -101.5t102.5 -39.5q68 0 106 34.5t38 92.5q0 56 -37.5 90.5t-100.5 34.5h-43v166h41q53 0 87 27t34 67t-27.5 66t-72.5 26t-74 -30.5t-29 -78.5h-194q0 123 85 200t220 77q132 0 214.5 -66t82.5 -170
q0 -71 -39 -124.5t-111 -79.5q83 -28 127.5 -88t44.5 -144q0 -123 -98 -205t-246 -82zM1296 1516h205l-827 -1516h-205zM1436 133h-416v162l389 594h213v-586h119v-170h-119v-133h-186v133zM1229 303h207v340z" />
    <glyph glyph-name="questiondown" unicode="&#xbf;" horiz-adv-x="1034" 
d="M610 813q-66 0 -111.5 45.5t-45.5 112.5q0 70 45 116t112 46q69 0 115.5 -46t46.5 -116q0 -67 -46.5 -112.5t-115.5 -45.5zM510 -422q-201 0 -322.5 116t-121.5 308q0 77 22.5 140.5t58 105.5t78.5 76.5t86.5 62.5t79 55.5t58 62.5t22.5 77v67h272v-90q0 -69 -22.5 -124
t-58 -91.5t-78.5 -67t-86.5 -57.5t-79 -55t-58 -67t-22.5 -87q0 -85 48.5 -133.5t137.5 -48.5q92 0 147.5 61t55.5 160h250q0 -205 -132 -338t-335 -133z" />
    <glyph glyph-name="Agrave" unicode="&#xc0;" horiz-adv-x="1507" 
d="M1034 1853l-88 -202l-497 198l94 219zM1202 0l-123 319h-651l-123 -319h-293l604 1516h279l602 -1516h-295zM754 1165l-228 -585h455z" />
    <glyph glyph-name="Aacute" unicode="&#xc1;" horiz-adv-x="1507" 
d="M1034 1849l-495 -198l-90 202l491 215zM1202 0l-123 319h-651l-123 -319h-293l604 1516h279l602 -1516h-295zM754 1165l-228 -585h455z" />
    <glyph glyph-name="Acircumflex" unicode="&#xc2;" horiz-adv-x="1507" 
d="M743 1827l-268 -176l-121 182l344 235h88l344 -235l-120 -182zM1202 0l-123 319h-651l-123 -319h-293l604 1516h279l602 -1516h-295zM754 1165l-228 -585h455z" />
    <glyph glyph-name="Atilde" unicode="&#xc3;" horiz-adv-x="1507" 
d="M598 1812q-76 0 -76 -96h-192q0 144 65 225.5t189 81.5q61 0 122.5 -24t110 -48t76.5 -24q36 0 53 21.5t17 74.5h192q0 -142 -65 -224.5t-181 -82.5q-50 0 -101 15t-84.5 33t-68.5 33t-57 15zM1202 0l-123 319h-651l-123 -319h-293l604 1516h279l602 -1516h-295z
M754 1165l-228 -585h455z" />
    <glyph glyph-name="Adieresis" unicode="&#xc4;" horiz-adv-x="1507" 
d="M496 1692q-74 0 -124 49.5t-50 122.5q0 72 50.5 122t123.5 50t123.5 -50t50.5 -122q0 -73 -50 -122.5t-124 -49.5zM991 1692q-74 0 -125 49.5t-51 122.5q0 72 51 122t125 50q72 0 123 -50t51 -122q0 -73 -50.5 -122.5t-123.5 -49.5zM1202 0l-123 319h-651l-123 -319h-293
l604 1516h279l602 -1516h-295zM754 1165l-228 -585h455z" />
    <glyph glyph-name="Aring" unicode="&#xc5;" horiz-adv-x="1507" 
d="M743 1569q-114 0 -188 72t-74 178q0 104 74 176.5t188 72.5t188.5 -72.5t74.5 -176.5q0 -106 -74.5 -178t-188.5 -72zM743 1915q-43 0 -70.5 -27.5t-27.5 -68.5t27.5 -69t70.5 -28q42 0 69.5 28.5t27.5 68.5t-27.5 68t-69.5 28zM1202 0l-123 319h-651l-123 -319h-293
l604 1516h279l602 -1516h-295zM754 1165l-228 -585h455z" />
    <glyph glyph-name="AE" unicode="&#xc6;" horiz-adv-x="2129" 
d="M2046 1253h-692v-331h544v-263h-544v-397h692v-262h-965v332h-594l-204 -332h-312l949 1516h1126v-263zM647 592h434v700z" />
    <glyph glyph-name="Ccedilla" unicode="&#xc7;" horiz-adv-x="1454" 
d="M868 -27h-4l-24 -69h20q88 0 145.5 -55t57.5 -148q0 -97 -72.5 -158t-193.5 -61q-140 0 -234 84l109 127q19 -23 52 -38t64 -15q78 0 78 53q0 63 -82 63h-161l82 234q-273 55 -451 268t-178 498q0 160 60.5 305t164.5 250.5t251.5 168t313.5 62.5q167 0 312.5 -63
t255.5 -176l-170 -191q-155 178 -398 178q-108 0 -204.5 -43t-164.5 -115.5t-107.5 -171t-39.5 -206.5q0 -109 40.5 -207t109.5 -169t165.5 -113t202.5 -42q105 0 207 46t176 120l160 -190q-110 -106 -248.5 -166t-294.5 -60z" />
    <glyph glyph-name="Egrave" unicode="&#xc8;" horiz-adv-x="1214" 
d="M365 1849l96 219l491 -215l-90 -202zM166 0v1516h964v-263h-690v-331h545v-263h-545v-397h690v-262h-964z" />
    <glyph glyph-name="Eacute" unicode="&#xc9;" horiz-adv-x="1214" 
d="M455 1651l-90 202l491 215l96 -219zM166 0v1516h964v-263h-690v-331h545v-263h-545v-397h690v-262h-964z" />
    <glyph glyph-name="Ecircumflex" unicode="&#xca;" horiz-adv-x="1214" 
d="M659 1827l-268 -176l-121 182l344 235h91l344 -235l-121 -182zM1130 1253h-690v-331h545v-263h-545v-397h690v-262h-964v1516h964v-263z" />
    <glyph glyph-name="Edieresis" unicode="&#xcb;" horiz-adv-x="1214" 
d="M412 1692q-74 0 -124 49.5t-50 122.5q0 72 50.5 122t123.5 50t123.5 -50t50.5 -122q0 -73 -50 -122.5t-124 -49.5zM907 1692q-74 0 -124 49.5t-50 122.5q0 72 50.5 122t123.5 50t123.5 -50t50.5 -122q0 -73 -50 -122.5t-124 -49.5zM166 0v1516h964v-263h-690v-331h545
v-263h-545v-397h690v-262h-964z" />
    <glyph glyph-name="Igrave" unicode="&#xcc;" horiz-adv-x="612" 
d="M12 1849l94 219l492 -215l-90 -202zM172 0v1516h274v-1516h-274z" />
    <glyph glyph-name="Iacute" unicode="&#xcd;" horiz-adv-x="612" 
d="M100 1651l-88 202l492 215l94 -219zM172 0v1516h274v-1516h-274z" />
    <glyph glyph-name="Icircumflex" unicode="&#xce;" horiz-adv-x="608" 
d="M348 2068l344 -235l-121 -182l-266 176l-268 -176l-121 182l344 235h88zM170 0v1516h274v-1516h-274z" />
    <glyph glyph-name="Idieresis" unicode="&#xcf;" horiz-adv-x="622" 
d="M61 1692q-73 0 -123.5 49.5t-50.5 122.5q0 72 51 122t123 50q74 0 125.5 -50t51.5 -122q0 -73 -51.5 -122.5t-125.5 -49.5zM557 1692q-74 0 -124 49.5t-50 122.5q0 72 50.5 122t123.5 50t123.5 -50t50.5 -122q0 -73 -50 -122.5t-124 -49.5zM176 0v1516h275v-1516h-275z
" />
    <glyph glyph-name="Eth" unicode="&#xd0;" horiz-adv-x="1523" 
d="M631 1516q241 0 425 -90t287 -262.5t103 -405.5t-103 -405.5t-287 -262.5t-425 -90h-436v651h-162v232h162v633h436zM625 262q92 0 172 16.5t150 54t120 94t78.5 141t28.5 190.5q0 131 -43 229t-120 155t-173.5 84t-212.5 27h-156v-370h340v-232h-340v-389h156z" />
    <glyph glyph-name="Ntilde" unicode="&#xd1;" horiz-adv-x="1718" 
d="M752 1812q-76 0 -76 -96h-193q0 144 65 225.5t189 81.5q61 0 123 -24t110.5 -48t76.5 -24q35 0 52 21.5t17 74.5h193q0 -142 -65 -224.5t-181 -82.5q-50 0 -101 15t-84.5 33t-68.5 33t-57 15zM1280 1516h272v-1516h-286l-826 1153v-1153h-274v1516h344l770 -1076v1076z
" />
    <glyph glyph-name="Ograve" unicode="&#xd2;" horiz-adv-x="1738" 
d="M559 1849l96 219l492 -215l-90 -202zM868 -27q-162 0 -308 60.5t-252.5 164.5t-169 249.5t-62.5 308.5q0 160 60.5 305t165 250.5t252.5 168t314 62.5t314 -62.5t252.5 -168t165.5 -250.5t61 -305q0 -217 -107 -397.5t-289 -283t-397 -102.5zM868 225q107 0 202.5 41.5
t164 112t109 168.5t40.5 207q0 144 -66.5 267t-185.5 196t-264 73t-264.5 -73t-186.5 -196t-67 -267q0 -109 40.5 -207t109.5 -168.5t165 -112t203 -41.5z" />
    <glyph glyph-name="Oacute" unicode="&#xd3;" horiz-adv-x="1738" 
d="M649 1651l-90 202l492 215l96 -219zM868 -27q-162 0 -308 60.5t-252.5 164.5t-169 249.5t-62.5 308.5q0 160 60.5 305t165 250.5t252.5 168t314 62.5t314 -62.5t252.5 -168t165.5 -250.5t61 -305q0 -217 -107 -397.5t-289 -283t-397 -102.5zM868 225q107 0 202.5 41.5
t164 112t109 168.5t40.5 207q0 144 -66.5 267t-185.5 196t-264 73t-264.5 -73t-186.5 -196t-67 -267q0 -109 40.5 -207t109.5 -168.5t165 -112t203 -41.5z" />
    <glyph glyph-name="Ocircumflex" unicode="&#xd4;" horiz-adv-x="1738" 
d="M854 1827l-268 -176l-119 182l344 235h88l344 -235l-121 -182zM868 1542q166 0 314 -62.5t252.5 -168t165.5 -250.5t61 -305q0 -217 -107 -397.5t-289 -283t-397 -102.5q-162 0 -308 60.5t-252.5 164.5t-169 249.5t-62.5 308.5q0 160 60.5 305t165 250.5t252.5 168
t314 62.5zM868 225q107 0 202.5 41.5t164 112t109 168.5t40.5 207q0 144 -66.5 267t-185.5 196t-264 73t-264.5 -73t-186.5 -196t-67 -267q0 -109 40.5 -207t109.5 -168.5t165 -112t203 -41.5z" />
    <glyph glyph-name="Otilde" unicode="&#xd5;" horiz-adv-x="1738" 
d="M442 1716q0 144 65 225.5t187 81.5q61 0 123.5 -24t111.5 -48t77 -24q35 0 51 21t16 75h195q0 -142 -65 -224.5t-181 -82.5q-65 0 -128 24t-110 48t-73 24q-76 0 -76 -96h-193zM868 -27q-162 0 -308 60.5t-252.5 164.5t-169 249.5t-62.5 308.5q0 160 60.5 305t165 250.5
t252.5 168t314 62.5t314 -62.5t252.5 -168t165.5 -250.5t61 -305q0 -217 -107 -397.5t-289 -283t-397 -102.5zM868 225q107 0 202.5 41.5t164 112t109 168.5t40.5 207q0 144 -66.5 267t-185.5 196t-264 73t-264.5 -73t-186.5 -196t-67 -267q0 -109 40.5 -207t109.5 -168.5
t165 -112t203 -41.5z" />
    <glyph glyph-name="Odieresis" unicode="&#xd6;" horiz-adv-x="1738" 
d="M606 1692q-74 0 -124 49.5t-50 122.5q0 72 50.5 122t123.5 50t123.5 -50t50.5 -122q0 -73 -50 -122.5t-124 -49.5zM1102 1692q-74 0 -124 49.5t-50 122.5q0 72 50.5 122t123.5 50t123.5 -50t50.5 -122q0 -73 -50 -122.5t-124 -49.5zM868 -27q-162 0 -308 60.5
t-252.5 164.5t-169 249.5t-62.5 308.5q0 160 60.5 305t165 250.5t252.5 168t314 62.5t314 -62.5t252.5 -168t165.5 -250.5t61 -305q0 -217 -107 -397.5t-289 -283t-397 -102.5zM868 225q107 0 202.5 41.5t164 112t109 168.5t40.5 207q0 144 -66.5 267t-185.5 196t-264 73
t-264.5 -73t-186.5 -196t-67 -267q0 -109 40.5 -207t109.5 -168.5t165 -112t203 -41.5z" />
    <glyph glyph-name="multiply" unicode="&#xd7;" horiz-adv-x="1361" 
d="M170 373l336 336l-336 338l172 172l338 -338l336 338l174 -175l-338 -335l338 -338l-174 -172l-336 338l-338 -338z" />
    <glyph glyph-name="Oslash" unicode="&#xd8;" horiz-adv-x="1783" 
d="M1702 1386l-158 -157q156 -212 156 -473q0 -163 -63 -308.5t-170 -249.5t-253.5 -164.5t-308.5 -60.5q-255 0 -469 148l-176 -176l-180 184l176 176q-143 199 -143 451q0 160 60.5 305t165 250.5t252.5 168t314 62.5q249 0 453 -135l164 164zM389 754q0 -133 62 -254
l718 719q-123 71 -264 71q-145 0 -264 -73t-185.5 -196t-66.5 -267zM1423 754q0 150 -73 280l-725 -725q127 -84 280 -84q107 0 203 41.5t165 112t109.5 168.5t40.5 207z" />
    <glyph glyph-name="Ugrave" unicode="&#xd9;" horiz-adv-x="1562" 
d="M506 1849l96 219l492 -215l-90 -202zM782 -27q-295 0 -466 178.5t-171 520.5v844h275v-760q0 -283 80 -408t282 -125t282.5 125t80.5 408v760h274v-844q0 -342 -171 -520.5t-466 -178.5z" />
    <glyph glyph-name="Uacute" unicode="&#xda;" horiz-adv-x="1562" 
d="M596 1651l-90 202l491 215l97 -219zM782 -27q-295 0 -466 178.5t-171 520.5v844h275v-760q0 -283 80 -408t282 -125t282.5 125t80.5 408v760h274v-844q0 -342 -171 -520.5t-466 -178.5z" />
    <glyph glyph-name="Ucircumflex" unicode="&#xdb;" horiz-adv-x="1562" 
d="M801 1827l-269 -176l-120 182l344 235h90l344 -235l-121 -182zM1145 1516h274v-844q0 -342 -171 -520.5t-466 -178.5t-466 178.5t-171 520.5v844h275v-760q0 -283 80 -408t282 -125t282.5 125t80.5 408v760z" />
    <glyph glyph-name="Udieresis" unicode="&#xdc;" horiz-adv-x="1562" 
d="M553 1692q-74 0 -124 49.5t-50 122.5q0 72 50.5 122t123.5 50t123.5 -50t50.5 -122q0 -73 -50 -122.5t-124 -49.5zM1049 1692q-74 0 -124.5 49.5t-50.5 122.5q0 72 51 122t124 50t123.5 -50t50.5 -122q0 -73 -50 -122.5t-124 -49.5zM782 -27q-295 0 -466 178.5
t-171 520.5v844h275v-760q0 -283 80 -408t282 -125t282.5 125t80.5 408v760h274v-844q0 -342 -171 -520.5t-466 -178.5z" />
    <glyph glyph-name="Yacute" unicode="&#xdd;" horiz-adv-x="1425" 
d="M989 1849l-497 -198l-91 202l492 215zM1079 1516h318l-547 -850v-666h-275v664l-546 852h317l367 -582z" />
    <glyph glyph-name="Thorn" unicode="&#xde;" horiz-adv-x="1296" 
d="M653 1266q145 0 257 -39.5t180 -109.5t102.5 -159.5t34.5 -195.5t-34.5 -196t-102.5 -160t-180 -110t-257 -40h-213v-256h-274v1516h274v-250h213zM651 516q154 0 229.5 68t75.5 176q0 109 -75.5 177.5t-229.5 68.5h-211v-490h211z" />
    <glyph glyph-name="germandbls" unicode="&#xdf;" horiz-adv-x="1163" 
d="M823 831q131 -43 204 -146.5t73 -252.5q0 -111 -40 -194.5t-114 -135t-174 -77t-225 -25.5h-41v242h76q129 0 194.5 59t65.5 166t-63 173.5t-181 66.5h-92v233h55q92 0 144.5 52t52.5 132q0 76 -42 123t-128 47q-97 0 -150 -61t-53 -160v-1073h-258v1067q0 99 28.5 182.5
t84.5 148.5t146 101.5t206 36.5q198 0 310 -105t112 -272q0 -119 -53 -202t-138 -126z" />
    <glyph glyph-name="agrave" unicode="&#xe0;" horiz-adv-x="1232" 
d="M911 1311l-90 -203l-497 199l96 219zM848 973h258v-973h-258v78q-120 -96 -281 -96q-133 0 -248 66t-184 183t-69 256t69 255.5t184 182.5t248 66q161 0 281 -96v78zM586 223q109 0 185.5 78t76.5 186q0 107 -76.5 185t-185.5 78q-105 0 -181.5 -78.5t-76.5 -184.5
q0 -107 76 -185.5t182 -78.5z" />
    <glyph glyph-name="aacute" unicode="&#xe1;" horiz-adv-x="1232" 
d="M909 1307l-497 -199l-90 203l491 215zM848 973h258v-973h-258v78q-120 -96 -281 -96q-133 0 -248 66t-184 183t-69 256t69 255.5t184 182.5t248 66q161 0 281 -96v78zM586 223q109 0 185.5 78t76.5 186q0 107 -76.5 185t-185.5 78q-105 0 -181.5 -78.5t-76.5 -184.5
q0 -107 76 -185.5t182 -78.5z" />
    <glyph glyph-name="acircumflex" unicode="&#xe2;" horiz-adv-x="1232" 
d="M618 1284l-268 -176l-121 182l346 236h87l346 -236l-121 -182zM848 973h258v-973h-258v78q-120 -96 -281 -96q-133 0 -248 66t-184 183t-69 256t69 255.5t184 182.5t248 66q161 0 281 -96v78zM586 223q109 0 185.5 78t76.5 186q0 107 -76.5 185t-185.5 78
q-105 0 -181.5 -78.5t-76.5 -184.5q0 -107 76 -185.5t182 -78.5z" />
    <glyph glyph-name="atilde" unicode="&#xe3;" horiz-adv-x="1232" 
d="M475 1255q-76 0 -76 -96h-192q0 144 65 225.5t187 81.5q61 0 122.5 -24t110 -48t76.5 -24q36 0 53 21.5t17 74.5h194q0 -142 -65 -224.5t-181 -82.5q-65 0 -128 24t-110 48t-73 24zM848 973h258v-973h-258v78q-120 -96 -281 -96q-133 0 -248 66t-184 183t-69 256
t69 255.5t184 182.5t248 66q161 0 281 -96v78zM586 223q109 0 185.5 78t76.5 186q0 107 -76.5 185t-185.5 78q-105 0 -181.5 -78.5t-76.5 -184.5q0 -107 76 -185.5t182 -78.5z" />
    <glyph glyph-name="adieresis" unicode="&#xe4;" horiz-adv-x="1232" 
d="M383 1161q-69 0 -115.5 46t-46.5 116q0 69 46.5 114.5t115.5 45.5t116.5 -45.5t47.5 -114.5q0 -70 -47 -116t-117 -46zM838 1161q-69 0 -115.5 46t-46.5 116q0 69 46.5 114.5t115.5 45.5t116 -45.5t47 -114.5q0 -70 -47 -116t-116 -46zM848 973h258v-973h-258v78
q-120 -96 -281 -96q-133 0 -248 66t-184 183t-69 256t69 255.5t184 182.5t248 66q161 0 281 -96v78zM586 223q109 0 185.5 78t76.5 186q0 107 -76.5 185t-185.5 78q-105 0 -181.5 -78.5t-76.5 -184.5q0 -107 76 -185.5t182 -78.5z" />
    <glyph glyph-name="aring" unicode="&#xe5;" horiz-adv-x="1232" 
d="M596 1026q-114 0 -188 72t-74 178q0 105 74 177.5t188 72.5t188 -72.5t74 -177.5q0 -106 -74 -178t-188 -72zM596 1372q-43 0 -70.5 -27.5t-27.5 -68.5t27.5 -68.5t70.5 -27.5q42 0 69 28t27 68t-27 68t-69 28zM848 973h258v-973h-258v78q-120 -96 -281 -96
q-133 0 -248 66t-184 183t-69 256t69 255.5t184 182.5t248 66q161 0 281 -96v78zM586 223q109 0 185.5 78t76.5 186q0 107 -76.5 185t-185.5 78q-105 0 -181.5 -78.5t-76.5 -184.5q0 -107 76 -185.5t182 -78.5z" />
    <glyph glyph-name="ae" unicode="&#xe6;" horiz-adv-x="1912" 
d="M1358 991q217 0 357 -146t140 -362q0 -26 -4 -80h-735q22 -92 90 -146t172 -54q75 0 137.5 28.5t100.5 79.5l174 -139q-148 -199 -404 -199q-179 0 -307 88v-61h-231v78q-120 -96 -281 -96q-133 0 -248 66t-184 183t-69 256t69 255.5t184 182.5t248 66q161 0 281 -96v78
h231v-68q123 86 279 86zM1120 588h477q-19 80 -81 126t-154 46q-87 0 -151.5 -45.5t-90.5 -126.5zM586 223q109 0 185.5 78t76.5 186q0 107 -76.5 185t-185.5 78q-105 0 -181.5 -78.5t-76.5 -184.5q0 -107 76 -185.5t182 -78.5z" />
    <glyph glyph-name="ccedilla" unicode="&#xe7;" horiz-adv-x="1056" 
d="M1022 211q-66 -102 -175 -166.5t-237 -71.5l-24 -69h20q88 0 145.5 -55t57.5 -148q0 -97 -72 -158t-192 -61q-140 0 -234 84l107 127q19 -23 52.5 -38t66.5 -15q77 0 77 53q0 63 -82 63h-161l82 234q-169 42 -278 179t-109 314q0 212 150.5 360t365.5 148
q136 0 250.5 -62t185.5 -167l-215 -131q-37 53 -94 83.5t-125 30.5q-108 0 -182 -77.5t-74 -184.5q0 -108 74 -186t182 -78q71 0 130 33.5t95 91.5z" />
    <glyph glyph-name="egrave" unicode="&#xe8;" horiz-adv-x="1118" 
d="M874 1311l-88 -203l-497 199l94 219zM561 991q153 0 267 -68t172.5 -182.5t58.5 -257.5q0 -26 -4 -80h-733q22 -92 90 -146t172 -54q75 0 137 28.5t100 79.5l174 -139q-148 -199 -405 -199q-125 0 -226.5 43t-165.5 115.5t-98 163.5t-34 192q0 132 61.5 247t176.5 186
t257 71zM326 588h477q-15 82 -74.5 127t-161.5 45q-87 0 -151 -45.5t-90 -126.5z" />
    <glyph glyph-name="eacute" unicode="&#xe9;" horiz-adv-x="1118" 
d="M872 1307l-495 -199l-90 203l491 215zM561 991q153 0 267 -68t172.5 -182.5t58.5 -257.5q0 -26 -4 -80h-733q22 -92 90 -146t172 -54q75 0 137 28.5t100 79.5l174 -139q-148 -199 -405 -199q-125 0 -226.5 43t-165.5 115.5t-98 163.5t-34 192q0 132 61.5 247t176.5 186
t257 71zM326 588h477q-15 82 -74.5 127t-161.5 45q-87 0 -151 -45.5t-90 -126.5z" />
    <glyph glyph-name="ecircumflex" unicode="&#xea;" horiz-adv-x="1118" 
d="M584 1284l-269 -176l-120 182l344 236h88l344 -236l-121 -182zM561 991q153 0 267 -68t172.5 -182.5t58.5 -257.5q0 -26 -4 -80h-733q22 -92 90 -146t172 -54q75 0 137 28.5t100 79.5l174 -139q-148 -199 -405 -199q-125 0 -226.5 43t-165.5 115.5t-98 163.5t-34 192
q0 132 61.5 247t176.5 186t257 71zM326 588h477q-15 82 -74.5 127t-161.5 45q-87 0 -151 -45.5t-90 -126.5z" />
    <glyph glyph-name="edieresis" unicode="&#xeb;" horiz-adv-x="1118" 
d="M348 1161q-70 0 -117 46t-47 116q0 69 47.5 114.5t116.5 45.5t115.5 -45.5t46.5 -114.5q0 -70 -46.5 -116t-115.5 -46zM803 1161q-70 0 -117 46t-47 116q0 69 47.5 114.5t116.5 45.5t115.5 -45.5t46.5 -114.5q0 -70 -46.5 -116t-115.5 -46zM561 991q153 0 267 -68
t172.5 -182.5t58.5 -257.5q0 -26 -4 -80h-733q22 -92 90 -146t172 -54q75 0 137 28.5t100 79.5l174 -139q-148 -199 -405 -199q-125 0 -226.5 43t-165.5 115.5t-98 163.5t-34 192q0 132 61.5 247t176.5 186t257 71zM326 588h477q-15 82 -74.5 127t-161.5 45
q-87 0 -151 -45.5t-90 -126.5z" />
    <glyph glyph-name="igrave" unicode="&#xec;" horiz-adv-x="530" 
d="M-25 1307l97 219l491 -215l-90 -203zM117 973h258v-973h-258v973z" />
    <glyph glyph-name="iacute" unicode="&#xed;" horiz-adv-x="528" 
d="M-29 1311l492 215l96 -219l-498 -199zM115 973h258v-973h-258v973z" />
    <glyph glyph-name="icircumflex" unicode="&#xee;" horiz-adv-x="526" 
d="M311 1526l344 -236l-118 -182l-269 176l-268 -176l-121 182l346 236h86zM115 0v973h258v-973h-258z" />
    <glyph glyph-name="idieresis" unicode="&#xef;" horiz-adv-x="507" 
d="M23 1161q-69 0 -115.5 46t-46.5 116q0 69 46.5 114.5t115.5 45.5t116 -45.5t47 -114.5q0 -70 -47 -116t-116 -46zM477 1161q-69 0 -115.5 46t-46.5 116q0 69 46.5 114.5t115.5 45.5t115.5 -45.5t46.5 -114.5q0 -70 -46.5 -116t-115.5 -46zM104 973h258v-973h-258v973z
" />
    <glyph glyph-name="eth" unicode="&#xf0;" horiz-adv-x="1167" 
d="M997 829q105 -181 105 -346q0 -104 -40.5 -198t-110 -162.5t-166 -109t-203.5 -40.5q-106 0 -202 40.5t-164.5 109t-109 162.5t-40.5 198q0 138 67.5 253.5t179.5 180t242 64.5q38 0 68 -6l-93 149l-229 -61l-55 207l170 45l-121 201h295l78 -134l211 58l55 -207
l-152 -41zM582 219q111 0 184.5 77.5t73.5 186.5q0 108 -73.5 185t-184.5 77q-107 0 -180.5 -77.5t-73.5 -184.5q0 -109 73.5 -186.5t180.5 -77.5z" />
    <glyph glyph-name="ntilde" unicode="&#xf1;" horiz-adv-x="1153" 
d="M473 1255q-76 0 -76 -96h-192q0 144 65 225.5t187 81.5q61 0 123 -24t111 -48t77 -24q36 0 53 21.5t17 74.5h192q0 -142 -65 -224.5t-181 -82.5q-65 0 -128 24t-110 48t-73 24zM647 991q81 0 149 -24.5t123.5 -75t87 -138t31.5 -204.5v-549h-258v522q0 223 -192 223
q-100 0 -151.5 -53.5t-51.5 -175.5v-516h-258v973h258v-78q99 96 262 96z" />
    <glyph glyph-name="ograve" unicode="&#xf2;" horiz-adv-x="1167" 
d="M295 1307l96 219l492 -215l-90 -203zM582 -27q-106 0 -202 40.5t-164.5 109t-109 162.5t-40.5 198q0 139 68 256t187 184.5t261 67.5q144 0 263.5 -67.5t188 -184t68.5 -256.5q0 -139 -68.5 -256t-188 -185.5t-263.5 -68.5zM582 219q109 0 183.5 77.5t74.5 186.5
q0 107 -74.5 184.5t-183.5 77.5q-107 0 -180.5 -77.5t-73.5 -184.5q0 -109 73.5 -186.5t180.5 -77.5z" />
    <glyph glyph-name="oacute" unicode="&#xf3;" horiz-adv-x="1167" 
d="M293 1311l491 215l97 -219l-498 -199zM582 -27q-106 0 -202 40.5t-164.5 109t-109 162.5t-40.5 198q0 139 68 256t187 184.5t261 67.5q144 0 263.5 -67.5t188 -184t68.5 -256.5q0 -139 -68.5 -256t-188 -185.5t-263.5 -68.5zM582 219q109 0 183.5 77.5t74.5 186.5
q0 107 -74.5 184.5t-183.5 77.5q-107 0 -180.5 -77.5t-73.5 -184.5q0 -109 73.5 -186.5t180.5 -77.5z" />
    <glyph glyph-name="ocircumflex" unicode="&#xf4;" horiz-adv-x="1167" 
d="M590 1284l-268 -176l-119 182l344 236h86l346 -236l-121 -182zM582 991q144 0 263.5 -67.5t188 -184t68.5 -256.5q0 -139 -68.5 -256t-188 -185.5t-263.5 -68.5q-106 0 -202 40.5t-164.5 109t-109 162.5t-40.5 198q0 139 68 256t187 184.5t261 67.5zM582 219
q109 0 183.5 77.5t74.5 186.5q0 107 -74.5 184.5t-183.5 77.5q-107 0 -180.5 -77.5t-73.5 -184.5q0 -109 73.5 -186.5t180.5 -77.5z" />
    <glyph glyph-name="otilde" unicode="&#xf5;" horiz-adv-x="1167" 
d="M178 1159q0 144 65 225.5t187 81.5q61 0 123 -24t111 -48t77 -24q36 0 53 21.5t17 74.5h193q0 -142 -65 -224.5t-181 -82.5q-65 0 -128 24t-110.5 48t-73.5 24q-75 0 -75 -96h-193zM582 -27q-106 0 -202 40.5t-164.5 109t-109 162.5t-40.5 198q0 139 68 256t187 184.5
t261 67.5q144 0 263.5 -67.5t188 -184t68.5 -256.5q0 -139 -68.5 -256t-188 -185.5t-263.5 -68.5zM582 219q109 0 183.5 77.5t74.5 186.5q0 107 -74.5 184.5t-183.5 77.5q-107 0 -180.5 -77.5t-73.5 -184.5q0 -109 73.5 -186.5t180.5 -77.5z" />
    <glyph glyph-name="odieresis" unicode="&#xf6;" horiz-adv-x="1167" 
d="M356 1161q-69 0 -116 46t-47 116q0 69 47 114.5t116 45.5t115.5 -45.5t46.5 -114.5q0 -70 -46.5 -116t-115.5 -46zM809 1161q-69 0 -115.5 46t-46.5 116q0 69 46.5 114.5t115.5 45.5t116.5 -45.5t47.5 -114.5q0 -70 -47 -116t-117 -46zM582 -27q-106 0 -202 40.5
t-164.5 109t-109 162.5t-40.5 198q0 139 68 256t187 184.5t261 67.5q144 0 263.5 -67.5t188 -184t68.5 -256.5q0 -139 -68.5 -256t-188 -185.5t-263.5 -68.5zM582 219q109 0 183.5 77.5t74.5 186.5q0 107 -74.5 184.5t-183.5 77.5q-107 0 -180.5 -77.5t-73.5 -184.5
q0 -109 73.5 -186.5t180.5 -77.5z" />
    <glyph glyph-name="divide" unicode="&#xf7;" horiz-adv-x="1386" 
d="M694 999q-68 0 -113.5 45.5t-45.5 114.5t45.5 114.5t113.5 45.5t114 -45.5t46 -114.5t-46 -114.5t-114 -45.5zM125 831h1139v-245h-1139v245zM694 98q-68 0 -113.5 46t-45.5 116q0 67 45.5 112.5t113.5 45.5t114 -45.5t46 -112.5q0 -70 -46 -116t-114 -46z" />
    <glyph glyph-name="oslash" unicode="&#xf8;" horiz-adv-x="1241" 
d="M1188 887l-135 -135q77 -123 77 -269q0 -104 -40.5 -198t-110 -162.5t-166 -109t-203.5 -40.5q-142 0 -264 72l-129 -129l-170 170l125 125q-80 122 -80 272q0 139 68.5 256t188 184.5t261.5 67.5q148 0 271 -71l137 137zM610 219q109 0 183.5 77.5t74.5 186.5
q0 107 -74.5 184.5t-183.5 77.5q-108 0 -182 -77.5t-74 -184.5q0 -108 74 -186t182 -78z" />
    <glyph glyph-name="ugrave" unicode="&#xf9;" horiz-adv-x="1142" 
d="M295 1307l96 219l492 -215l-90 -203zM569 -27q-133 0 -234 46t-162.5 147t-61.5 248v559h258v-502q0 -126 46.5 -188t153.5 -62q109 0 156 62t47 188v502h258v-559q0 -111 -35.5 -196.5t-98.5 -138t-145.5 -79.5t-181.5 -27z" />
    <glyph glyph-name="uacute" unicode="&#xfa;" horiz-adv-x="1142" 
d="M293 1311l491 215l97 -219l-498 -199zM569 -27q-133 0 -234 46t-162.5 147t-61.5 248v559h258v-502q0 -126 46.5 -188t153.5 -62q109 0 156 62t47 188v502h258v-559q0 -111 -35.5 -196.5t-98.5 -138t-145.5 -79.5t-181.5 -27z" />
    <glyph glyph-name="ucircumflex" unicode="&#xfb;" horiz-adv-x="1142" 
d="M590 1284l-268 -176l-121 182l346 236h86l346 -236l-121 -182zM772 973h258v-559q0 -111 -35.5 -196.5t-98.5 -138t-145.5 -79.5t-181.5 -27q-133 0 -234 46t-162.5 147t-61.5 248v559h258v-502q0 -126 46.5 -188t153.5 -62q109 0 156 62t47 188v502z" />
    <glyph glyph-name="udieresis" unicode="&#xfc;" horiz-adv-x="1142" 
d="M354 1161q-69 0 -115 46t-46 116q0 69 46 114.5t115 45.5t116.5 -45.5t47.5 -114.5q0 -70 -47 -116t-117 -46zM809 1161q-69 0 -115.5 46t-46.5 116q0 69 46.5 114.5t115.5 45.5t116.5 -45.5t47.5 -114.5q0 -70 -47 -116t-117 -46zM569 -27q-133 0 -234 46t-162.5 147
t-61.5 248v559h258v-502q0 -126 46.5 -188t153.5 -62q109 0 156 62t47 188v502h258v-559q0 -111 -35.5 -196.5t-98.5 -138t-145.5 -79.5t-181.5 -27z" />
    <glyph glyph-name="yacute" unicode="&#xfd;" horiz-adv-x="1089" 
d="M836 1307l-496 -199l-90 203l491 215zM788 973h279l-594 -1491h-258l199 500l-396 991h279l246 -660z" />
    <glyph glyph-name="thorn" unicode="&#xfe;" horiz-adv-x="1234" 
d="M668 991q132 0 247 -66t184.5 -182.5t69.5 -255.5t-69.5 -256t-184.5 -183t-247 -66q-159 0 -283 96v-596h-258v2034h258v-621q124 96 283 96zM647 223q106 0 183 78.5t77 185.5q0 106 -77.5 184.5t-182.5 78.5q-109 0 -185.5 -78t-76.5 -185q0 -108 76.5 -186t185.5 -78
z" />
    <glyph glyph-name="ydieresis" unicode="&#xff;" horiz-adv-x="1089" 
d="M311 1161q-70 0 -117 46t-47 116q0 69 47.5 114.5t116.5 45.5t115.5 -45.5t46.5 -114.5q0 -70 -46.5 -116t-115.5 -46zM766 1161q-70 0 -117 46t-47 116q0 69 47.5 114.5t116.5 45.5t115.5 -45.5t46.5 -114.5q0 -70 -46.5 -116t-115.5 -46zM788 973h279l-594 -1491h-258
l199 500l-396 991h279l246 -660z" />
    <glyph glyph-name="Amacron" unicode="&#x100;" horiz-adv-x="1507" 
d="M1090 1978v-231h-695v231h695zM1202 0l-123 319h-651l-123 -319h-293l604 1516h279l602 -1516h-295zM754 1165l-228 -585h455z" />
    <glyph glyph-name="amacron" unicode="&#x101;" horiz-adv-x="1232" 
d="M967 1436v-232h-695v232h695zM848 973h258v-973h-258v78q-120 -96 -281 -96q-133 0 -248 66t-184 183t-69 256t69 255.5t184 182.5t248 66q161 0 281 -96v78zM586 223q109 0 185.5 78t76.5 186q0 107 -76.5 185t-185.5 78q-105 0 -181.5 -78.5t-76.5 -184.5
q0 -107 76 -185.5t182 -78.5z" />
    <glyph glyph-name="Abreve" unicode="&#x102;" horiz-adv-x="1507" 
d="M731 1651q-168 0 -273.5 112t-105.5 285h217q0 -82 41 -128t121 -46t120 46t40 128h217q0 -173 -105.5 -285t-271.5 -112zM1202 0l-123 319h-651l-123 -319h-293l604 1516h279l602 -1516h-295zM754 1165l-228 -585h455z" />
    <glyph glyph-name="abreve" unicode="&#x103;" horiz-adv-x="1232" 
d="M618 1108q-166 0 -271 112t-105 285h217q0 -82 39.5 -128t119.5 -46t121 46t41 128h215q0 -172 -106 -284.5t-271 -112.5zM848 973h258v-973h-258v78q-120 -96 -281 -96q-133 0 -248 66t-184 183t-69 256t69 255.5t184 182.5t248 66q161 0 281 -96v78zM586 223
q109 0 185.5 78t76.5 186q0 107 -76.5 185t-185.5 78q-105 0 -181.5 -78.5t-76.5 -184.5q0 -107 76 -185.5t182 -78.5z" />
    <glyph glyph-name="Aogonek" unicode="&#x104;" horiz-adv-x="1533" 
d="M1341 -180q0 -96 99 -96q33 0 57 8v-168q-56 -17 -117 -17q-106 0 -171.5 53.5t-65.5 147.5q0 76 36 145t103 107h-80l-123 319h-651l-123 -319h-293l604 1516h279l602 -1516h-43q-113 -70 -113 -180zM754 1165l-228 -585h455z" />
    <glyph glyph-name="aogonek" unicode="&#x105;" horiz-adv-x="1239" 
d="M1051 -276q33 0 57 8v-168q-56 -17 -117 -17q-106 0 -171.5 53.5t-65.5 147.5q0 76 36 145t103 107h-45v78q-120 -96 -281 -96q-133 0 -248 66t-184 183t-69 256t69 255.5t184 182.5t248 66q161 0 281 -96v78h258v-973h-41q-113 -70 -113 -180q0 -96 99 -96zM586 223
q109 0 185.5 78t76.5 186q0 107 -76.5 185t-185.5 78q-105 0 -181.5 -78.5t-76.5 -184.5q0 -107 76 -185.5t182 -78.5z" />
    <glyph glyph-name="Cacute" unicode="&#x106;" horiz-adv-x="1454" 
d="M662 1651l-91 202l492 215l96 -219zM868 -27q-162 0 -308 60.5t-252.5 164.5t-169 249.5t-62.5 308.5q0 160 60.5 305t164.5 250.5t251.5 168t313.5 62.5q167 0 312.5 -63t255.5 -176l-170 -191q-155 178 -398 178q-108 0 -204.5 -43t-164.5 -115.5t-107.5 -171
t-39.5 -206.5q0 -109 40.5 -207t109.5 -169t165.5 -113t202.5 -42q105 0 207 46t176 120l160 -190q-110 -106 -248.5 -166t-294.5 -60z" />
    <glyph glyph-name="cacute" unicode="&#x107;" horiz-adv-x="1056" 
d="M289 1311l491 215l97 -219l-498 -199zM582 -27q-141 0 -260 68.5t-187.5 186t-68.5 255.5q0 212 150.5 360t365.5 148q136 0 250.5 -62t185.5 -167l-215 -131q-37 53 -94 83.5t-125 30.5q-108 0 -182 -77.5t-74 -184.5q0 -108 74 -186t182 -78q71 0 130 33.5t95 91.5
l213 -133q-69 -108 -186 -173t-254 -65z" />
    <glyph glyph-name="Cdotaccent" unicode="&#x10a;" horiz-adv-x="1454" 
d="M866 1683q-76 0 -129 52t-53 127q0 76 52.5 128t129.5 52t129 -52t52 -128q0 -75 -52.5 -127t-128.5 -52zM868 -27q-162 0 -308 60.5t-252.5 164.5t-169 249.5t-62.5 308.5q0 160 60.5 305t164.5 250.5t251.5 168t313.5 62.5q167 0 312.5 -63t255.5 -176l-170 -191
q-155 178 -398 178q-108 0 -204.5 -43t-164.5 -115.5t-107.5 -171t-39.5 -206.5q0 -109 40.5 -207t109.5 -169t165.5 -113t202.5 -42q105 0 207 46t176 120l160 -190q-110 -106 -248.5 -166t-294.5 -60z" />
    <glyph glyph-name="cdotaccent" unicode="&#x10b;" horiz-adv-x="1056" 
d="M594 1171q-69 0 -116.5 47t-47.5 117q0 67 47.5 113.5t116.5 46.5q68 0 114 -46.5t46 -113.5q0 -70 -46 -117t-114 -47zM582 -27q-141 0 -260 68.5t-187.5 186t-68.5 255.5q0 212 150.5 360t365.5 148q136 0 250.5 -62t185.5 -167l-215 -131q-37 53 -94 83.5t-125 30.5
q-108 0 -182 -77.5t-74 -184.5q0 -108 74 -186t182 -78q71 0 130 33.5t95 91.5l213 -133q-69 -108 -186 -173t-254 -65z" />
    <glyph glyph-name="Ccaron" unicode="&#x10c;" horiz-adv-x="1454" 
d="M909 1651h-86l-346 235l121 182l268 -176l269 176l120 -182zM868 223q105 0 207 46t176 120l160 -190q-110 -106 -248.5 -166t-294.5 -60q-162 0 -308 60.5t-252.5 164.5t-169 249.5t-62.5 308.5q0 160 60.5 305t164.5 250.5t251.5 168t313.5 62.5q167 0 312.5 -63
t255.5 -176l-170 -191q-155 178 -398 178q-108 0 -204.5 -43t-164.5 -115.5t-107.5 -171t-39.5 -206.5q0 -109 40.5 -207t109.5 -169t165.5 -113t202.5 -42z" />
    <glyph glyph-name="ccaron" unicode="&#x10d;" horiz-adv-x="1056" 
d="M629 1108h-86l-346 235l120 183l269 -176l268 176l121 -183zM809 344l213 -133q-69 -108 -186 -173t-254 -65q-141 0 -260 68.5t-187.5 186t-68.5 255.5q0 212 150.5 360t365.5 148q136 0 250.5 -62t185.5 -167l-215 -131q-37 53 -94 83.5t-125 30.5q-108 0 -182 -77.5
t-74 -184.5q0 -108 74 -186t182 -78q71 0 130 33.5t95 91.5z" />
    <glyph glyph-name="Dcaron" unicode="&#x10e;" horiz-adv-x="1495" 
d="M735 1651h-86l-344 235l119 182l268 -176l269 176l120 -182zM602 1516q241 0 425 -90t287 -262.5t103 -405.5t-103 -405.5t-287 -262.5t-425 -90h-436v1516h436zM596 262q92 0 172 16.5t149.5 54t119 94t78 141t28.5 190.5t-28.5 190.5t-78 140.5t-119 93.5t-149.5 54
t-172 16.5h-156v-991h156z" />
    <glyph glyph-name="dcaron" unicode="&#x10f;" horiz-adv-x="1273" 
d="M848 895v621h258v-1516h-258v78q-120 -96 -281 -96q-133 0 -248 66t-184 183t-69 256t69 255.5t184 182.5t248 66q161 0 281 -96zM1264 1516h229l-72 -492h-219zM586 223q109 0 185.5 78t76.5 186q0 107 -76.5 185t-185.5 78q-105 0 -181.5 -78.5t-76.5 -184.5
q0 -107 76 -185.5t182 -78.5z" />
    <glyph glyph-name="Dcroat" unicode="&#x110;" horiz-adv-x="1523" 
d="M631 1516q241 0 425 -90t287 -262.5t103 -405.5t-103 -405.5t-287 -262.5t-425 -90h-436v651h-162v232h162v633h436zM625 262q92 0 172 16.5t150 54t120 94t78.5 141t28.5 190.5q0 131 -43 229t-120 155t-173.5 84t-212.5 27h-156v-370h340v-232h-340v-389h156z" />
    <glyph glyph-name="dcroat" unicode="&#x111;" horiz-adv-x="1269" 
d="M1305 1356v-232h-199v-1124h-258v78q-120 -96 -281 -96q-133 0 -248 66t-184 183t-69 256t69 255.5t184 182.5t248 66q161 0 281 -96v229h-320v232h320v160h258v-160h199zM586 223q109 0 185.5 78t76.5 186q0 107 -76.5 185t-185.5 78q-105 0 -181.5 -78.5t-76.5 -184.5
q0 -107 76 -185.5t182 -78.5z" />
    <glyph glyph-name="Emacron" unicode="&#x112;" horiz-adv-x="1214" 
d="M313 1978h695v-231h-695v231zM166 0v1516h964v-263h-690v-331h545v-263h-545v-397h690v-262h-964z" />
    <glyph glyph-name="emacron" unicode="&#x113;" horiz-adv-x="1118" 
d="M930 1436v-232h-694v232h694zM561 991q153 0 267 -68t172.5 -182.5t58.5 -257.5q0 -26 -4 -80h-733q22 -92 90 -146t172 -54q75 0 137 28.5t100 79.5l174 -139q-148 -199 -405 -199q-125 0 -226.5 43t-165.5 115.5t-98 163.5t-34 192q0 132 61.5 247t176.5 186t257 71z
M326 588h477q-15 82 -74.5 127t-161.5 45q-87 0 -151 -45.5t-90 -126.5z" />
    <glyph glyph-name="Edotaccent" unicode="&#x116;" horiz-adv-x="1214" 
d="M659 1683q-76 0 -128 52t-52 127q0 76 51.5 128t128.5 52t130 -52t53 -128q0 -75 -53 -127t-130 -52zM166 0v1516h964v-263h-690v-331h545v-263h-545v-397h690v-262h-964z" />
    <glyph glyph-name="edotaccent" unicode="&#x117;" horiz-adv-x="1118" 
d="M590 1171q-69 0 -115.5 47t-46.5 117q0 68 46.5 114t115.5 46t115.5 -46t46.5 -114q0 -70 -46.5 -117t-115.5 -47zM561 991q153 0 267 -68t172.5 -182.5t58.5 -257.5q0 -26 -4 -80h-733q22 -92 90 -146t172 -54q75 0 137 28.5t100 79.5l174 -139q-148 -199 -405 -199
q-125 0 -226.5 43t-165.5 115.5t-98 163.5t-34 192q0 132 61.5 247t176.5 186t257 71zM326 588h477q-15 82 -74.5 127t-161.5 45q-87 0 -151 -45.5t-90 -126.5z" />
    <glyph glyph-name="Eogonek" unicode="&#x118;" horiz-adv-x="1214" 
d="M1130 1253h-690v-331h545v-263h-545v-397h690v-262h-49q-112 -69 -112 -180q0 -96 98 -96q33 0 57 8v-168q-56 -17 -116 -17q-106 0 -172 53.5t-66 147.5q0 76 36 145t103 107h-743v1516h964v-263z" />
    <glyph glyph-name="eogonek" unicode="&#x119;" horiz-adv-x="1118" 
d="M561 991q153 0 267 -68t172.5 -182.5t58.5 -257.5q0 -26 -4 -80h-733q22 -92 90 -146t172 -54q75 0 137 28.5t100 79.5l174 -139q-80 -108 -192 -156q-107 -72 -107 -176q0 -96 99 -96q33 0 57 8v-168q-50 -18 -117 -18q-105 0 -171 54t-66 147q0 123 80 206
q-122 2 -221 45.5t-161.5 115.5t-96 162.5t-33.5 190.5q0 132 61.5 247t176.5 186t257 71zM326 588h477q-15 82 -74.5 127t-161.5 45q-87 0 -151 -45.5t-90 -126.5z" />
    <glyph glyph-name="Ecaron" unicode="&#x11a;" horiz-adv-x="1214" 
d="M702 1651h-86l-346 235l121 182l268 -176l269 176l121 -182zM1130 1253h-690v-331h545v-263h-545v-397h690v-262h-964v1516h964v-263z" />
    <glyph glyph-name="ecaron" unicode="&#x11b;" horiz-adv-x="1118" 
d="M627 1108h-88l-344 235l120 183l269 -176l266 176l121 -183zM561 991q153 0 267 -68t172.5 -182.5t58.5 -257.5q0 -26 -4 -80h-733q22 -92 90 -146t172 -54q75 0 137 28.5t100 79.5l174 -139q-148 -199 -405 -199q-125 0 -226.5 43t-165.5 115.5t-98 163.5t-34 192
q0 132 61.5 247t176.5 186t257 71zM326 588h477q-15 82 -74.5 127t-161.5 45q-87 0 -151 -45.5t-90 -126.5z" />
    <glyph glyph-name="Gbreve" unicode="&#x11e;" horiz-adv-x="1636" 
d="M838 1651q-168 0 -273.5 112t-105.5 285h217q0 -82 41 -128t121 -46q78 0 118.5 46.5t40.5 127.5h217q0 -173 -105.5 -285t-270.5 -112zM879 -27q-223 0 -407.5 103t-290 282t-105.5 396q0 161 60.5 306t165 251t251.5 168.5t313 62.5q169 0 316.5 -62t257.5 -173
l-164 -189q-78 90 -182.5 131t-216.5 41q-151 0 -272.5 -73t-188 -195.5t-66.5 -267.5q0 -146 67.5 -267.5t190.5 -192.5t275 -71q179 0 296 106t117 285v2h-473v261h744v-175q0 -118 -27.5 -226t-83.5 -200t-137 -159t-193.5 -105.5t-246.5 -38.5z" />
    <glyph glyph-name="gbreve" unicode="&#x11f;" horiz-adv-x="1230" 
d="M618 1108q-166 0 -271 112t-105 285h217q0 -82 39.5 -128t119.5 -46t121 46t41 128h215q0 -172 -106 -284.5t-271 -112.5zM848 973h258v-965q0 -97 -19 -178t-50 -136.5t-74.5 -98t-88 -67.5t-96 -40.5t-93 -21t-83.5 -5.5q-152 0 -271.5 64.5t-189.5 175.5l234 104
q81 -98 227 -98q49 0 92 14.5t78 43.5t55.5 79t20.5 115v119q-120 -96 -281 -96q-133 0 -248 66t-184 183t-69 256t69 255.5t184 182.5t248 66q161 0 281 -96v78zM586 223q109 0 185.5 78t76.5 186q0 107 -76.5 185t-185.5 78q-105 0 -181.5 -78.5t-76.5 -184.5
q0 -107 76 -185.5t182 -78.5z" />
    <glyph glyph-name="Gdotaccent" unicode="&#x120;" horiz-adv-x="1636" 
d="M850 1683q-76 0 -129 52t-53 127q0 76 52.5 128t129.5 52q76 0 128 -52t52 -128q0 -75 -52 -127t-128 -52zM879 -27q-223 0 -407.5 103t-290 282t-105.5 396q0 161 60.5 306t165 251t251.5 168.5t313 62.5q169 0 316.5 -62t257.5 -173l-164 -189q-78 90 -182.5 131
t-216.5 41q-151 0 -272.5 -73t-188 -195.5t-66.5 -267.5q0 -146 67.5 -267.5t190.5 -192.5t275 -71q179 0 296 106t117 285v2h-473v261h744v-175q0 -118 -27.5 -226t-83.5 -200t-137 -159t-193.5 -105.5t-246.5 -38.5z" />
    <glyph glyph-name="gdotaccent" unicode="&#x121;" horiz-adv-x="1230" 
d="M627 1171q-69 0 -116.5 47t-47.5 117q0 67 47.5 113.5t116.5 46.5q68 0 114.5 -46.5t46.5 -113.5q0 -70 -46.5 -117t-114.5 -47zM848 973h258v-965q0 -97 -19 -178t-50 -136.5t-74.5 -98t-88 -67.5t-96 -40.5t-93 -21t-83.5 -5.5q-152 0 -271.5 64.5t-189.5 175.5
l234 104q81 -98 227 -98q49 0 92 14.5t78 43.5t55.5 79t20.5 115v119q-120 -96 -281 -96q-133 0 -248 66t-184 183t-69 256t69 255.5t184 182.5t248 66q161 0 281 -96v78zM586 223q109 0 185.5 78t76.5 186q0 107 -76.5 185t-185.5 78q-105 0 -181.5 -78.5t-76.5 -184.5
q0 -107 76 -185.5t182 -78.5z" />
    <glyph glyph-name="uni0122" unicode="&#x122;" horiz-adv-x="1636" 
d="M879 -27q-223 0 -407.5 103t-290 282t-105.5 396q0 161 60.5 306t165 251t251.5 168.5t313 62.5q169 0 316.5 -62t257.5 -173l-164 -189q-78 90 -182.5 131t-216.5 41q-151 0 -272.5 -73t-188 -195.5t-66.5 -267.5q0 -146 67.5 -267.5t190.5 -192.5t275 -71
q179 0 296 106t117 285v2h-473v261h744v-175q0 -118 -27.5 -226t-83.5 -200t-137 -159t-193.5 -105.5t-246.5 -38.5zM707 -506q69 34 103 77.5t34 80.5q-12 -4 -35 -4q-43 0 -77 33t-34 81q0 56 40.5 95t101.5 39q63 0 105 -46t42 -124q0 -184 -221 -310z" />
    <glyph glyph-name="uni0123" unicode="&#x123;" horiz-adv-x="1230" 
d="M621 1118q-63 0 -104.5 46.5t-41.5 123.5q0 181 219 311l60 -79q-69 -34 -103.5 -77.5t-34.5 -80.5q12 4 35 4q44 0 78.5 -33.5t34.5 -81.5q0 -55 -41 -94t-102 -39zM848 973h258v-965q0 -97 -19 -178t-50 -136.5t-74.5 -98t-88 -67.5t-96 -40.5t-93 -21t-83.5 -5.5
q-152 0 -271.5 64.5t-189.5 175.5l234 104q81 -98 227 -98q49 0 92 14.5t78 43.5t55.5 79t20.5 115v119q-120 -96 -281 -96q-133 0 -248 66t-184 183t-69 256t69 255.5t184 182.5t248 66q161 0 281 -96v78zM586 223q109 0 185.5 78t76.5 186q0 107 -76.5 185t-185.5 78
q-105 0 -181.5 -78.5t-76.5 -184.5q0 -107 76 -185.5t182 -78.5z" />
    <glyph glyph-name="Hbar" unicode="&#x126;" horiz-adv-x="1648" 
d="M1610 1354v-232h-148v-1122h-274v666h-721v-666h-272v1122h-156v232h156v162h272v-162h721v162h274v-162h148zM1188 930v192h-721v-192h721z" />
    <glyph glyph-name="hbar" unicode="&#x127;" horiz-adv-x="1159" 
d="M653 991q63 0 119.5 -15t106.5 -48.5t86.5 -83.5t57.5 -125.5t21 -169.5v-549h-258v522q0 223 -194 223q-98 0 -149.5 -54t-51.5 -175v-516h-258v1124h-168v232h168v160h258v-160h350v-232h-350v-227q101 94 262 94z" />
    <glyph glyph-name="Itilde" unicode="&#x128;" horiz-adv-x="643" 
d="M-90 1716q0 144 65 225.5t187 81.5q61 0 122.5 -24t110 -48t76.5 -24q36 0 53 21.5t17 74.5h192q0 -143 -64 -225t-180 -82q-65 0 -128 24t-110 48t-73 24q-76 0 -76 -96h-192zM188 0v1516h273v-1516h-273z" />
    <glyph glyph-name="itilde" unicode="&#x129;" horiz-adv-x="563" 
d="M-127 1159q0 144 65 225.5t187 81.5q61 0 123 -24t111 -48t77 -24q36 0 53 21.5t17 74.5h192q0 -142 -64.5 -224.5t-180.5 -82.5q-65 0 -128 24t-110.5 48t-73.5 24q-75 0 -75 -96h-193zM131 973h258v-973h-258v973z" />
    <glyph glyph-name="Imacron" unicode="&#x12a;" horiz-adv-x="604" 
d="M-45 1978h694v-231h-694v231zM168 0v1516h274v-1516h-274z" />
    <glyph glyph-name="imacron" unicode="&#x12b;" horiz-adv-x="522" 
d="M-82 1436h694v-232h-694v232zM113 973h258v-973h-258v973z" />
    <glyph glyph-name="Iogonek" unicode="&#x12e;" horiz-adv-x="612" 
d="M395 0q-112 -69 -112 -180q0 -96 98 -96q33 0 57 8v-168q-56 -17 -116 -17q-106 0 -172 53.5t-66 147.5q0 76 36 145t103 107h-51v1516h274v-1516h-51z" />
    <glyph glyph-name="iogonek" unicode="&#x12f;" horiz-adv-x="520" 
d="M254 1171q-69 0 -116.5 47t-47.5 117q0 67 47.5 113.5t116.5 46.5q68 0 115 -46.5t47 -113.5q0 -70 -47 -117t-115 -47zM238 -180q0 -96 98 -96q33 0 57 8v-168q-56 -17 -117 -17q-106 0 -171.5 53.5t-65.5 147.5q0 77 36.5 145.5t104.5 106.5h-63v973h258v-973h-23
q-114 -69 -114 -180z" />
    <glyph glyph-name="Idotaccent" unicode="&#x130;" horiz-adv-x="610" 
d="M303 1683q-76 0 -128 52t-52 127q0 76 51.5 128t128.5 52t129.5 -52t52.5 -128q0 -75 -53 -127t-129 -52zM170 0v1516h274v-1516h-274z" />
    <glyph glyph-name="dotlessi" unicode="&#x131;" horiz-adv-x="516" 
d="M127 973h258v-973h-258v973z" />
    <glyph glyph-name="IJ" unicode="&#x132;" horiz-adv-x="1191" 
d="M166 0v1516h274v-1516h-274zM518 -459v250q64 8 106 29t73 65.5t45 118t14 184.5v1328h274v-1326q0 -325 -116 -475.5t-396 -173.5z" />
    <glyph glyph-name="ij" unicode="&#x133;" horiz-adv-x="1095" 
d="M260 1171q-69 0 -116.5 47t-47.5 117q0 67 47.5 113.5t116.5 46.5q68 0 115 -46.5t47 -113.5q0 -70 -47 -117t-115 -47zM821 1171q-69 0 -115.5 47t-46.5 117q0 68 46.5 114t115.5 46q68 0 115 -46.5t47 -113.5q0 -70 -47 -117t-115 -47zM127 973h258v-973h-258v973z
M688 973h258v-1491h-258v1491z" />
    <glyph glyph-name="uni0136" unicode="&#x136;" horiz-adv-x="1368" 
d="M688 748l715 -748h-361l-602 639v-639h-274v1516h274v-666l566 666h344zM702 -104q63 0 104.5 -46t41.5 -124q0 -183 -219 -310l-62 78q70 34 105 78t35 80q-16 -4 -35 -4q-44 0 -78.5 33t-34.5 81q0 56 41 95t102 39z" />
    <glyph glyph-name="uni0137" unicode="&#x137;" horiz-adv-x="1079" 
d="M643 516l459 -516h-342l-375 430v-430h-258v1516h258v-916l348 373h338zM575 -104q63 0 104.5 -46t41.5 -124q0 -183 -219 -310l-62 78q69 34 103.5 77.5t34.5 80.5q-12 -4 -35 -4q-43 0 -77 33t-34 81q0 56 41 95t102 39z" />
    <glyph glyph-name="kgreenlandic" unicode="&#x138;" horiz-adv-x="1079" 
d="M1102 0h-342l-375 410v-410h-258v973h258v-395l348 395h338l-428 -473z" />
    <glyph glyph-name="Lacute" unicode="&#x139;" horiz-adv-x="1169" 
d="M100 1651l-88 202l492 215l94 -219zM172 0v1516h274v-1254h699v-262h-973z" />
    <glyph glyph-name="lacute" unicode="&#x13a;" horiz-adv-x="573" 
d="M49 1651l-88 202l492 215l94 -219zM379 -27q-141 0 -216 75.5t-75 213.5v1254h258v-1194q0 -54 22.5 -80.5t84.5 -26.5q25 0 39 2v-227q-62 -17 -113 -17z" />
    <glyph glyph-name="uni013B" unicode="&#x13b;" horiz-adv-x="1163" 
d="M166 0v1516h274v-1254h699v-262h-973zM522 -506q69 34 103 77.5t34 80.5q-12 -4 -34 -4q-43 0 -78 33t-35 81q0 56 41 95t102 39q63 0 105.5 -46.5t42.5 -123.5q0 -184 -221 -310z" />
    <glyph glyph-name="uni013C" unicode="&#x13c;" horiz-adv-x="552" 
d="M416 -27q-141 0 -217 75.5t-76 213.5v1254h258v-1194q0 -54 22 -80.5t84 -26.5q25 0 39 2v-227q-62 -17 -110 -17zM229 -506q69 34 103.5 77.5t34.5 80.5q-12 -4 -35 -4q-43 0 -77 33t-34 81q0 56 40.5 95t100.5 39q65 0 106.5 -46t41.5 -124q0 -184 -221 -310z" />
    <glyph glyph-name="Lcaron" unicode="&#x13d;" horiz-adv-x="1163" 
d="M166 0v1516h274v-1254h699v-262h-973zM735 1024l62 492h227l-72 -492h-217z" />
    <glyph glyph-name="lcaron" unicode="&#x13e;" horiz-adv-x="645" 
d="M416 -27q-141 0 -217 75.5t-76 213.5v1254h258v-1194q0 -54 22 -80.5t84 -26.5q25 0 39 2v-227q-62 -17 -110 -17zM500 1024l61 492h230l-72 -492h-219z" />
    <glyph glyph-name="Ldot" unicode="&#x13f;" horiz-adv-x="1163" 
d="M166 0v1516h274v-1254h699v-262h-973zM782 637q-69 0 -115 45.5t-46 114.5t46 114t115 45q67 0 113.5 -45.5t46.5 -113.5t-46.5 -114t-113.5 -46z" />
    <glyph glyph-name="ldot" unicode="&#x140;" horiz-adv-x="788" 
d="M416 -27q-141 0 -217 75.5t-76 213.5v1254h258v-1194q0 -54 22 -80.5t84 -26.5q25 0 39 2v-227q-62 -17 -110 -17zM571 586q-69 0 -115 46t-46 116q0 67 46 112t115 45q68 0 114 -45t46 -112q0 -70 -46 -116t-114 -46z" />
    <glyph glyph-name="Lslash" unicode="&#x141;" horiz-adv-x="1253" 
d="M528 262h699v-262h-973v553l-117 -55l-100 209l217 102v707h274v-580l170 80l101 -209l-271 -127v-418z" />
    <glyph glyph-name="lslash" unicode="&#x142;" horiz-adv-x="770" 
d="M451 322q0 -54 22 -80.5t84 -26.5q25 0 39 2v-227q-66 -17 -113 -17q-140 0 -215 75t-75 214v359l-111 -31l-55 209l166 45v672h258v-603l208 56l56 -207l-264 -72v-368z" />
    <glyph glyph-name="Nacute" unicode="&#x143;" horiz-adv-x="1718" 
d="M1188 1849l-498 -198l-88 202l492 215zM1280 1516h272v-1516h-286l-826 1153v-1153h-274v1516h344l770 -1076v1076z" />
    <glyph glyph-name="nacute" unicode="&#x144;" horiz-adv-x="1153" 
d="M907 1307l-497 -199l-91 203l492 215zM647 991q81 0 149 -24.5t123.5 -75t87 -138t31.5 -204.5v-549h-258v522q0 223 -192 223q-100 0 -151.5 -53.5t-51.5 -175.5v-516h-258v973h258v-78q99 96 262 96z" />
    <glyph glyph-name="uni0145" unicode="&#x145;" horiz-adv-x="1718" 
d="M1280 1516h272v-1516h-286l-826 1153v-1153h-274v1516h344l770 -1076v1076zM856 -104q65 0 106.5 -46t41.5 -124q0 -183 -220 -310l-61 78q69 34 103 77.5t34 80.5q-12 -4 -35 -4q-43 0 -76.5 33t-33.5 81q0 56 40.5 95t100.5 39z" />
    <glyph glyph-name="uni0146" unicode="&#x146;" horiz-adv-x="1153" 
d="M647 991q81 0 149 -24.5t123.5 -75t87 -138t31.5 -204.5v-549h-258v522q0 223 -192 223q-100 0 -151.5 -53.5t-51.5 -175.5v-516h-258v973h258v-78q99 96 262 96zM610 -104q63 0 105.5 -46.5t42.5 -123.5q0 -184 -221 -310l-60 78q69 34 103 77.5t34 80.5q-12 -4 -34 -4
q-43 0 -77 33t-34 81q0 56 40 95t101 39z" />
    <glyph glyph-name="Ncaron" unicode="&#x147;" horiz-adv-x="1718" 
d="M940 1651h-88l-344 235l121 182l268 -176l266 176l121 -182zM1280 1516h272v-1516h-286l-826 1153v-1153h-274v1516h344l770 -1076v1076z" />
    <glyph glyph-name="ncaron" unicode="&#x148;" horiz-adv-x="1153" 
d="M659 1108h-86l-344 235l119 183l268 -176l269 176l121 -183zM647 991q81 0 149 -24.5t123.5 -75t87 -138t31.5 -204.5v-549h-258v522q0 223 -192 223q-100 0 -151.5 -53.5t-51.5 -175.5v-516h-258v973h258v-78q99 96 262 96z" />
    <glyph glyph-name="Eng" unicode="&#x14a;" horiz-adv-x="1718" 
d="M1280 1516h272v-1346q0 -324 -116.5 -475t-397.5 -174v250q104 13 158 65t72 176l-828 1143v-1155h-274v1516h344l770 -1059v1059z" />
    <glyph glyph-name="eng" unicode="&#x14b;" horiz-adv-x="1153" 
d="M647 991q81 0 149 -24.5t123.5 -75t87 -138t31.5 -204.5v-719q0 -139 -75 -214t-215 -75q-51 0 -113 17v225q14 -2 39 -2q62 0 84 26t22 80v635q0 223 -192 223q-100 0 -151.5 -53.5t-51.5 -175.5v-516h-258v973h258v-78q99 96 262 96z" />
    <glyph glyph-name="Omacron" unicode="&#x14c;" horiz-adv-x="1738" 
d="M508 1978h694v-231h-694v231zM868 -27q-162 0 -308 60.5t-252.5 164.5t-169 249.5t-62.5 308.5q0 160 60.5 305t165 250.5t252.5 168t314 62.5t314 -62.5t252.5 -168t165.5 -250.5t61 -305q0 -217 -107 -397.5t-289 -283t-397 -102.5zM868 225q107 0 202.5 41.5t164 112
t109 168.5t40.5 207q0 144 -66.5 267t-185.5 196t-264 73t-264.5 -73t-186.5 -196t-67 -267q0 -109 40.5 -207t109.5 -168.5t165 -112t203 -41.5z" />
    <glyph glyph-name="omacron" unicode="&#x14d;" horiz-adv-x="1167" 
d="M244 1436h694v-232h-694v232zM582 -27q-106 0 -202 40.5t-164.5 109t-109 162.5t-40.5 198q0 139 68 256t187 184.5t261 67.5q144 0 263.5 -67.5t188 -184t68.5 -256.5q0 -139 -68.5 -256t-188 -185.5t-263.5 -68.5zM582 219q109 0 183.5 77.5t74.5 186.5
q0 107 -74.5 184.5t-183.5 77.5q-107 0 -180.5 -77.5t-73.5 -184.5q0 -109 73.5 -186.5t180.5 -77.5z" />
    <glyph glyph-name="Ohungarumlaut" unicode="&#x150;" horiz-adv-x="1738" 
d="M688 1651l-176 135l225 285l185 -150zM1079 1651l-174 135l225 285l185 -150zM868 -27q-162 0 -308 60.5t-252.5 164.5t-169 249.5t-62.5 308.5q0 160 60.5 305t165 250.5t252.5 168t314 62.5t314 -62.5t252.5 -168t165.5 -250.5t61 -305q0 -217 -107 -397.5t-289 -283
t-397 -102.5zM868 225q107 0 202.5 41.5t164 112t109 168.5t40.5 207q0 144 -66.5 267t-185.5 196t-264 73t-264.5 -73t-186.5 -196t-67 -267q0 -109 40.5 -207t109.5 -168.5t165 -112t203 -41.5z" />
    <glyph glyph-name="ohungarumlaut" unicode="&#x151;" horiz-adv-x="1167" 
d="M250 1245l223 283l186 -148l-235 -272zM641 1245l225 283l185 -148l-236 -272zM582 -27q-106 0 -202 40.5t-164.5 109t-109 162.5t-40.5 198q0 139 68 256t187 184.5t261 67.5q144 0 263.5 -67.5t188 -184t68.5 -256.5q0 -139 -68.5 -256t-188 -185.5t-263.5 -68.5z
M582 219q109 0 183.5 77.5t74.5 186.5q0 107 -74.5 184.5t-183.5 77.5q-107 0 -180.5 -77.5t-73.5 -184.5q0 -109 73.5 -186.5t180.5 -77.5z" />
    <glyph glyph-name="OE" unicode="&#x152;" horiz-adv-x="2433" 
d="M2349 1253h-692v-331h545v-263h-545v-397h692v-262h-965v160q-106 -89 -238.5 -138t-277.5 -49q-162 0 -308 60.5t-252.5 164.5t-169 249.5t-62.5 308.5q0 160 60.5 305t165 250.5t252.5 168t314 62.5q297 0 516 -184v158h965v-263zM868 225q107 0 202.5 41.5t164 112
t109 168.5t40.5 207q0 144 -66.5 267t-185.5 196t-264 73t-264.5 -73t-186.5 -196t-67 -267q0 -109 40.5 -207t109.5 -168.5t165 -112t203 -41.5z" />
    <glyph glyph-name="oe" unicode="&#x153;" horiz-adv-x="1902" 
d="M1343 991q153 0 267 -68t172.5 -182.5t58.5 -257.5q0 -26 -4 -80h-733q22 -92 90 -146t172 -54q74 0 137 28.5t101 79.5l174 -139q-151 -199 -406 -199q-254 0 -401 170q-72 -80 -173 -125t-216 -45q-106 0 -202 40.5t-164.5 109t-109 162.5t-40.5 198q0 139 68 256
t187 184.5t261 67.5q115 0 216 -44.5t173 -123.5q145 168 372 168zM1108 588h475q-14 82 -72.5 127t-160.5 45q-87 0 -151.5 -45.5t-90.5 -126.5zM582 219q109 0 183.5 77.5t74.5 186.5q0 107 -74.5 184.5t-183.5 77.5q-107 0 -180.5 -77.5t-73.5 -184.5q0 -109 73.5 -186.5
t180.5 -77.5z" />
    <glyph glyph-name="Racute" unicode="&#x154;" horiz-adv-x="1347" 
d="M965 1849l-498 -198l-90 202l491 215zM1288 0h-313l-359 625h-176v-625h-274v1516h569q139 0 242 -33t164.5 -94t91 -140t29.5 -178q0 -166 -85 -279t-264 -151zM440 1255v-368h316q233 0 233 182q0 89 -58 137.5t-175 48.5h-316z" />
    <glyph glyph-name="racute" unicode="&#x155;" horiz-adv-x="753" 
d="M743 1307l-497 -199l-90 203l491 215zM385 887q101 104 311 104h41v-246h-18q-170 0 -252 -53t-82 -182v-510h-258v973h258v-86z" />
    <glyph glyph-name="uni0156" unicode="&#x156;" horiz-adv-x="1347" 
d="M913 641l375 -641h-313l-359 625h-176v-625h-274v1516h569q139 0 242 -33t164.5 -94t91 -140t29.5 -178q0 -166 -85 -279t-264 -151zM440 1255v-368h316q233 0 233 182q0 89 -58 137.5t-175 48.5h-316zM674 -104q64 0 105.5 -46t41.5 -124q0 -184 -221 -310l-59 78
q69 34 103 77.5t34 80.5q-12 -4 -35 -4q-43 0 -77 33t-34 81q0 56 41 95t101 39z" />
    <glyph glyph-name="uni0157" unicode="&#x157;" horiz-adv-x="753" 
d="M696 991h41v-246h-18q-170 0 -252 -53t-82 -182v-510h-258v973h258v-86q101 104 311 104zM272 -104q65 0 106.5 -46t41.5 -124q0 -183 -219 -310l-62 78q69 34 103 77.5t34 80.5q-12 -4 -34 -4q-43 0 -77 33t-34 81q0 56 40.5 95t100.5 39z" />
    <glyph glyph-name="Rcaron" unicode="&#x158;" horiz-adv-x="1347" 
d="M715 1651h-86l-344 235l118 182l269 -176l268 176l121 -182zM1288 0h-313l-359 625h-176v-625h-274v1516h569q139 0 242 -33t164.5 -94t91 -140t29.5 -178q0 -166 -85 -279t-264 -151zM440 1255v-368h316q233 0 233 182q0 89 -58 137.5t-175 48.5h-316z" />
    <glyph glyph-name="rcaron" unicode="&#x159;" horiz-adv-x="753" 
d="M487 1108h-86l-346 235l121 183l268 -176l269 176l118 -183zM385 887q101 104 311 104h41v-246h-18q-170 0 -252 -53t-82 -182v-510h-258v973h258v-86z" />
    <glyph glyph-name="Sacute" unicode="&#x15a;" horiz-adv-x="1173" 
d="M387 1651l-90 202l491 215l95 -219zM225 418q39 -43 70 -72t76 -60t97.5 -47t111.5 -16q118 0 176.5 58.5t58.5 138.5q0 47 -23 84t-61.5 63.5t-88.5 49.5t-105.5 45.5t-111 47.5t-105.5 60.5t-88.5 79.5t-61.5 109t-23 145q0 203 137 320.5t357 117.5q230 0 426 -143
l-141 -213q-61 54 -141 80t-158 26q-98 0 -153.5 -42t-55.5 -117q0 -48 23 -85.5t62 -63t89.5 -47.5t106 -44t111 -47t106 -61.5t89.5 -82.5t62 -115t23 -155q0 -208 -133 -333.5t-379 -125.5q-152 0 -282 59t-239 206z" />
    <glyph glyph-name="sacute" unicode="&#x15b;" horiz-adv-x="890" 
d="M162 1311l491 215l95 -219l-498 -199zM182 305q118 -100 271 -100q61 0 88.5 19.5t27.5 49.5q0 29 -26 49t-68 33.5t-92.5 27t-101.5 35t-93 52.5t-68 84.5t-26 124.5q0 138 93.5 224.5t256.5 86.5q117 0 216 -32.5t161 -88.5l-133 -184q-109 74 -242 74q-98 0 -98 -60
q0 -27 26 -47t67 -34.5t90.5 -29.5t99.5 -38.5t91 -55.5t67 -86.5t26 -125.5q0 -138 -99 -224t-278 -86q-123 0 -214.5 37.5t-174.5 100.5z" />
    <glyph glyph-name="Scedilla" unicode="&#x15e;" horiz-adv-x="1173" 
d="M1090 432q0 -198 -122.5 -322.5t-349.5 -136.5l-24 -69h20q88 0 145.5 -55t57.5 -148q0 -97 -72.5 -158t-193.5 -61q-140 0 -234 84l109 127q19 -23 52.5 -38t64.5 -15q78 0 78 53q0 63 -82 63h-162l80 226q-240 39 -400 256l168 180q39 -43 70 -72t76 -60t97.5 -47
t111.5 -16q118 0 176.5 58.5t58.5 138.5q0 47 -23 84t-61.5 63.5t-88.5 49.5t-105.5 45.5t-111 47.5t-105.5 60.5t-88.5 79.5t-61.5 109t-23 145q0 203 137 320.5t357 117.5q230 0 426 -143l-141 -213q-61 54 -141 80t-158 26q-98 0 -153.5 -42t-55.5 -117q0 -48 23 -85.5
t62 -63t89.5 -47.5t106 -44t111 -47t106 -61.5t89.5 -82.5t62 -115t23 -155z" />
    <glyph glyph-name="scedilla" unicode="&#x15f;" horiz-adv-x="890" 
d="M348 700q0 -27 26 -47t67 -34.5t90.5 -29.5t99.5 -38.5t91 -55.5t67 -86.5t26 -125.5q0 -125 -81.5 -208t-231.5 -100l-27 -71h21q88 0 145 -55t57 -148q0 -97 -72 -158t-192 -61q-139 0 -235 84l108 127q19 -23 52.5 -38t66.5 -15q76 0 76 53q0 63 -82 63h-162l80 226
q-141 20 -289 129l133 194q118 -100 271 -100q61 0 88.5 19.5t27.5 49.5q0 29 -26 49t-68 33.5t-92.5 27t-101.5 35t-93 52.5t-68 84.5t-26 124.5q0 138 93.5 224.5t256.5 86.5q117 0 216 -32.5t161 -88.5l-133 -184q-109 74 -242 74q-98 0 -98 -60z" />
    <glyph glyph-name="Scaron" unicode="&#x160;" horiz-adv-x="1173" 
d="M690 1651h-86l-346 235l121 182l268 -176l268 176l119 -182zM418 1133q0 -48 23 -85.5t62 -63t89.5 -47.5t106 -44t111 -47t106 -61.5t89.5 -82.5t62 -115t23 -155q0 -208 -133 -333.5t-379 -125.5q-152 0 -282 59t-239 206l168 180q39 -43 70 -72t76 -60t97.5 -47
t111.5 -16q118 0 176.5 58.5t58.5 138.5q0 47 -23 84t-61.5 63.5t-88.5 49.5t-105.5 45.5t-111 47.5t-105.5 60.5t-88.5 79.5t-61.5 109t-23 145q0 203 137 320.5t357 117.5q230 0 426 -143l-141 -213q-61 54 -141 80t-158 26q-98 0 -153.5 -42t-55.5 -117z" />
    <glyph glyph-name="scaron" unicode="&#x161;" horiz-adv-x="890" 
d="M494 1108h-86l-347 235l121 183l269 -176l268 176l119 -183zM446 760q-98 0 -98 -60q0 -27 26 -47t67 -34.5t90.5 -29.5t99.5 -38.5t91 -55.5t67 -86.5t26 -125.5q0 -138 -99 -224t-278 -86q-123 0 -214.5 37.5t-174.5 100.5l133 194q118 -100 271 -100q61 0 88.5 19.5
t27.5 49.5q0 29 -26 49t-68 33.5t-92.5 27t-101.5 35t-93 52.5t-68 84.5t-26 124.5q0 138 93.5 224.5t256.5 86.5q117 0 216 -32.5t161 -88.5l-133 -184q-109 74 -242 74z" />
    <glyph glyph-name="uni0162" unicode="&#x162;" horiz-adv-x="1292" 
d="M784 0h-47l-35 -96h21q88 0 145.5 -55t57.5 -148q0 -97 -72 -158t-192 -61q-140 0 -234 84l107 127q19 -23 52.5 -38t65.5 -15q78 0 78 53q0 63 -82 63h-162l86 244h-63v1253h-485v263h1243v-263h-484v-1253z" />
    <glyph glyph-name="uni0163" unicode="&#x163;" horiz-adv-x="753" 
d="M711 729h-256v-383q0 -131 108 -131q18 0 36.5 1t33.5 2.5t27 3t19 2.5l7 1v-227l-5 -2q-5 -1 -13.5 -3t-20.5 -4.5t-28.5 -5.5t-35 -5t-42.5 -3.5t-49 -1.5h-5l-24 -69h20q88 0 145.5 -55t57.5 -148q0 -97 -72.5 -158t-193.5 -61q-140 0 -234 84l109 127
q19 -23 52.5 -38t64.5 -15q77 0 77 53q0 63 -81 63h-162l88 254q-67 36 -102 110t-35 175v434h-152v244h152v319h258v-319h256v-244z" />
    <glyph glyph-name="Tcaron" unicode="&#x164;" horiz-adv-x="1292" 
d="M715 1651h-86l-346 235l120 182l269 -176l268 176l119 -182zM25 1516h1243v-263h-484v-1253h-274v1253h-485v263z" />
    <glyph glyph-name="tcaron" unicode="&#x165;" horiz-adv-x="774" 
d="M600 1516h227l-71 -492h-217zM453 1292v-319h256v-244h-256v-383q0 -131 108 -131q18 0 36.5 1t33.5 2.5t27 3t19 2.5l7 1v-227l-5 -2q-5 -1 -13.5 -3t-20.5 -4.5t-29 -5.5t-35.5 -5t-42.5 -3.5t-49 -1.5q-144 0 -219 85.5t-75 236.5v434h-152v244h152v319h258z" />
    <glyph glyph-name="Tbar" unicode="&#x166;" horiz-adv-x="1314" 
d="M1278 1253h-483v-422h274v-231h-274v-600h-275v600h-227v231h227v422h-485v263h1243v-263z" />
    <glyph glyph-name="tbar" unicode="&#x167;" horiz-adv-x="763" 
d="M713 729h-256v-113h243v-231h-243v-39q0 -131 108 -131q18 0 36.5 1t33.5 2.5t27 3t19 2.5l7 1v-227l-5 -2q-5 -1 -13.5 -3t-21 -4.5t-29 -5.5t-35 -5t-42.5 -3.5t-48 -1.5q-144 0 -219.5 85.5t-75.5 236.5v90h-148v231h148v113h-152v244h152v319h258v-319h256v-244z" />
    <glyph glyph-name="Utilde" unicode="&#x168;" horiz-adv-x="1562" 
d="M371 1716q0 144 65 225.5t189 81.5q61 0 122.5 -24t110 -48t76.5 -24q36 0 53 21.5t17 74.5h192q0 -143 -64 -225t-180 -82q-65 0 -128.5 24t-111 48t-73.5 24q-74 0 -74 -96h-194zM782 -27q-295 0 -466 178.5t-171 520.5v844h275v-760q0 -283 80 -408t282 -125
t282.5 125t80.5 408v760h274v-844q0 -342 -171 -520.5t-466 -178.5z" />
    <glyph glyph-name="utilde" unicode="&#x169;" horiz-adv-x="1142" 
d="M178 1159q0 144 65 225.5t187 81.5q61 0 122.5 -24t110 -48t76.5 -24q36 0 53 21.5t17 74.5h192q0 -143 -63.5 -225t-179.5 -82q-65 0 -128 24t-110.5 48t-73.5 24q-75 0 -75 -96h-193zM569 -27q-133 0 -234 46t-162.5 147t-61.5 248v559h258v-502q0 -126 46.5 -188
t153.5 -62q109 0 156 62t47 188v502h258v-559q0 -111 -35.5 -196.5t-98.5 -138t-145.5 -79.5t-181.5 -27z" />
    <glyph glyph-name="Umacron" unicode="&#x16a;" horiz-adv-x="1562" 
d="M434 1978h694v-231h-694v231zM782 -27q-295 0 -466 178.5t-171 520.5v844h275v-760q0 -283 80 -408t282 -125t282.5 125t80.5 408v760h274v-844q0 -342 -171 -520.5t-466 -178.5z" />
    <glyph glyph-name="umacron" unicode="&#x16b;" horiz-adv-x="1142" 
d="M223 1436h695v-232h-695v232zM569 -27q-133 0 -234 46t-162.5 147t-61.5 248v559h258v-502q0 -126 46.5 -188t153.5 -62q109 0 156 62t47 188v502h258v-559q0 -111 -35.5 -196.5t-98.5 -138t-145.5 -79.5t-181.5 -27z" />
    <glyph glyph-name="Uring" unicode="&#x16e;" horiz-adv-x="1562" 
d="M776 1569q-114 0 -188 72t-74 178q0 104 74 176.5t188 72.5t188 -72.5t74 -176.5q0 -106 -74 -178t-188 -72zM776 1722q43 0 70.5 28t27.5 69t-27.5 68.5t-70.5 27.5t-70.5 -27.5t-27.5 -68.5t27.5 -69t70.5 -28zM782 -27q-295 0 -466 178.5t-171 520.5v844h275v-760
q0 -283 80 -408t282 -125t282.5 125t80.5 408v760h274v-844q0 -342 -171 -520.5t-466 -178.5z" />
    <glyph glyph-name="uring" unicode="&#x16f;" horiz-adv-x="1142" 
d="M569 1026q-114 0 -188 72t-74 178q0 105 74 177.5t188 72.5t188 -72.5t74 -177.5q0 -106 -74 -178t-188 -72zM569 1180q43 0 71 28t28 68t-28 68t-71 28q-42 0 -69 -28t-27 -68t27 -68t69 -28zM569 -27q-133 0 -234 46t-162.5 147t-61.5 248v559h258v-502
q0 -126 46.5 -188t153.5 -62q109 0 156 62t47 188v502h258v-559q0 -111 -35.5 -196.5t-98.5 -138t-145.5 -79.5t-181.5 -27z" />
    <glyph glyph-name="Uhungarumlaut" unicode="&#x170;" horiz-adv-x="1562" 
d="M635 1651l-176 135l225 285l184 -150zM1026 1651l-174 135l225 285l185 -150zM782 -27q-295 0 -466 178.5t-171 520.5v844h275v-760q0 -283 80 -408t282 -125t282.5 125t80.5 408v760h274v-844q0 -342 -171 -520.5t-466 -178.5z" />
    <glyph glyph-name="uhungarumlaut" unicode="&#x171;" horiz-adv-x="1142" 
d="M215 1245l225 283l185 -148l-236 -272zM608 1245l223 283l187 -148l-236 -272zM569 -27q-133 0 -234 46t-162.5 147t-61.5 248v559h258v-502q0 -126 46.5 -188t153.5 -62q109 0 156 62t47 188v502h258v-559q0 -111 -35.5 -196.5t-98.5 -138t-145.5 -79.5t-181.5 -27z" />
    <glyph glyph-name="Uogonek" unicode="&#x172;" horiz-adv-x="1562" 
d="M1145 1516h274v-844q0 -271 -109 -440.5t-306 -227.5q-89 -69 -89 -164q0 -96 99 -96q33 0 57 8v-168q-49 -18 -117 -18q-105 0 -171 54t-66 147q0 123 80 206h-15q-295 0 -466 178.5t-171 520.5v844h275v-760q0 -283 80 -408t282 -125t282.5 125t80.5 408v760z" />
    <glyph glyph-name="uogonek" unicode="&#x173;" horiz-adv-x="1142" 
d="M772 973h258v-559q0 -152 -65 -253t-179 -149q-108 -66 -108 -176q0 -96 98 -96q34 0 58 8v-168q-53 -16 -115 -16q-106 0 -173 53t-67 147q0 126 86 209q-203 2 -328.5 113.5t-125.5 327.5v559h258v-502q0 -126 46.5 -188t153.5 -62q109 0 156 62t47 188v502z" />
    <glyph glyph-name="Wcircumflex" unicode="&#x174;" horiz-adv-x="2109" 
d="M1059 1827l-268 -176l-121 182l344 235h88l344 -235l-121 -182zM1798 1516h295l-473 -1516h-266l-299 1044l-299 -1044h-269l-471 1516h295l310 -1082l297 1082h274l297 -1080z" />
    <glyph glyph-name="wcircumflex" unicode="&#x175;" horiz-adv-x="1675" 
d="M842 1284l-269 -176l-120 182l346 236h86l344 -236l-119 -182zM1380 973h281l-348 -973h-273l-200 639l-203 -639h-272l-347 973h279l207 -654l203 654h266l203 -656z" />
    <glyph glyph-name="Ycircumflex" unicode="&#x176;" horiz-adv-x="1425" 
d="M696 1827l-268 -176l-121 182l344 235h90l344 -235l-120 -182zM1079 1516h318l-547 -850v-666h-275v664l-546 852h317l367 -582z" />
    <glyph glyph-name="ycircumflex" unicode="&#x177;" horiz-adv-x="1089" 
d="M547 1284l-268 -176l-121 182l344 236h88l344 -236l-121 -182zM788 973h279l-594 -1491h-258l199 500l-396 991h279l246 -660z" />
    <glyph glyph-name="Ydieresis" unicode="&#x178;" horiz-adv-x="1425" 
d="M449 1692q-74 0 -124.5 49.5t-50.5 122.5q0 72 51 122t124 50t123.5 -50t50.5 -122q0 -73 -50 -122.5t-124 -49.5zM944 1692q-74 0 -124 49.5t-50 122.5q0 72 50.5 122t123.5 50t123.5 -50t50.5 -122q0 -73 -50 -122.5t-124 -49.5zM1079 1516h318l-547 -850v-666h-275
v664l-546 852h317l367 -582z" />
    <glyph glyph-name="Zacute" unicode="&#x179;" horiz-adv-x="1333" 
d="M977 1849l-498 -198l-90 202l492 215zM414 262h856v-262h-1217v260l856 993h-833v263h1192v-261z" />
    <glyph glyph-name="zacute" unicode="&#x17a;" horiz-adv-x="915" 
d="M784 1307l-497 -199l-90 203l491 215zM850 973v-234l-440 -495h440v-244h-784v240l442 489h-442v244h784z" />
    <glyph glyph-name="Zdotaccent" unicode="&#x17b;" horiz-adv-x="1333" 
d="M684 1683q-76 0 -128 52t-52 127q0 76 52 128t128 52t128 -52t52 -128q0 -75 -52 -127t-128 -52zM414 262h856v-262h-1217v260l856 993h-833v263h1192v-261z" />
    <glyph glyph-name="zdotaccent" unicode="&#x17c;" horiz-adv-x="915" 
d="M457 1171q-69 0 -116.5 47t-47.5 117q0 67 47.5 113.5t116.5 46.5q68 0 114.5 -46.5t46.5 -113.5q0 -70 -46.5 -117t-114.5 -47zM850 973v-234l-440 -495h440v-244h-784v240l442 489h-442v244h784z" />
    <glyph glyph-name="Zcaron" unicode="&#x17d;" horiz-adv-x="1333" 
d="M727 1651h-86l-346 235l121 182l268 -176l268 176l121 -182zM414 262h856v-262h-1217v260l856 993h-833v263h1192v-261z" />
    <glyph glyph-name="zcaron" unicode="&#x17e;" horiz-adv-x="915" 
d="M502 1108h-86l-346 235l120 183l269 -176l268 176l121 -183zM850 973v-234l-440 -495h440v-244h-784v240l442 489h-442v244h784z" />
    <glyph glyph-name="florin" unicode="&#x192;" horiz-adv-x="761" 
d="M580 1294q-60 0 -84.5 -31t-24.5 -100v-190h193v-244h-193v-815q0 -167 -85.5 -253.5t-281.5 -86.5v242q61 0 85 30.5t24 100.5v782h-123v244h123v223q0 163 73.5 251.5t217.5 88.5q109 0 182 -25v-227q-2 0 -20 2.5t-43 5t-43 2.5z" />
    <glyph glyph-name="uni01EA" unicode="&#x1ea;" horiz-adv-x="1738" 
d="M1067 -2q-82 -66 -82 -158q0 -96 98 -96q34 0 58 8v-168q-49 -18 -117 -18q-105 0 -171.5 54t-66.5 147q0 123 80 206q-162 1 -308 61.5t-252 164.5t-168 249t-62 308q0 160 60.5 305t165 250.5t252.5 168t314 62.5t314 -62.5t252.5 -168t165.5 -250.5t61 -305
q0 -275 -167.5 -483.5t-426.5 -274.5zM350 754q0 -109 40.5 -207t109.5 -168.5t165 -112t203 -41.5t202.5 41.5t164 112t109 168.5t40.5 207q0 144 -66.5 267t-185.5 196t-264 73t-264.5 -73t-186.5 -196t-67 -267z" />
    <glyph glyph-name="uni01EB" unicode="&#x1eb;" horiz-adv-x="1167" 
d="M791 14q-107 -67 -107 -174q0 -96 100 -96q34 0 58 8v-168q-56 -16 -117 -16q-106 0 -172 53.5t-66 147.5q0 121 80 204q-104 3 -197 44.5t-159.5 109.5t-105.5 161t-39 195q0 139 68 256t187 184.5t261 67.5q144 0 263.5 -67.5t188 -184t68.5 -256.5
q0 -155 -85.5 -281.5t-225.5 -187.5zM328 483q0 -109 73.5 -186.5t180.5 -77.5q109 0 183.5 77.5t74.5 186.5q0 107 -74.5 184.5t-183.5 77.5q-107 0 -180.5 -77.5t-73.5 -184.5z" />
    <glyph glyph-name="Aringacute" unicode="&#x1fa;" horiz-adv-x="1507" 
d="M743 1569q-114 0 -188 72t-74 178q0 104 74 176.5t188 72.5q109 0 183 -67.5t80 -165.5l200 94l78 -180l-416 -152q-58 -28 -125 -28zM743 1915q-43 0 -70.5 -27.5t-27.5 -68.5t27.5 -69t70.5 -28q42 0 69.5 28.5t27.5 68.5t-27.5 68t-69.5 28zM1202 0l-123 319h-651
l-123 -319h-293l604 1516h279l602 -1516h-295zM754 1165l-228 -585h455z" />
    <glyph glyph-name="aringacute" unicode="&#x1fb;" horiz-adv-x="1286" 
d="M578 1026q-114 0 -188.5 72t-74.5 178q0 104 74.5 177t188.5 73q109 0 182.5 -68t79.5 -168l200 96l78 -180l-416 -151q-60 -29 -124 -29zM578 1372q-44 0 -71.5 -28t-27.5 -68t27.5 -68t71.5 -28q43 0 70.5 27.5t27.5 68.5t-27.5 68.5t-70.5 27.5zM848 895v78h258v-973
h-258v78q-120 -96 -281 -96q-133 0 -248 66t-184 183t-69 256t69 255.5t184 182.5t248 66q161 0 281 -96zM586 223q109 0 185.5 78t76.5 186q0 107 -76.5 185t-185.5 78q-105 0 -181.5 -78.5t-76.5 -184.5q0 -107 76 -185.5t182 -78.5z" />
    <glyph glyph-name="AEacute" unicode="&#x1fc;" horiz-adv-x="2129" 
d="M1675 1849l-497 -198l-91 202l492 215zM2046 1253h-692v-331h544v-263h-544v-397h692v-262h-965v332h-594l-204 -332h-312l949 1516h1126v-263zM647 592h434v700z" />
    <glyph glyph-name="aeacute" unicode="&#x1fd;" horiz-adv-x="1912" 
d="M1255 1307l-495 -199l-90 203l491 215zM1358 991q217 0 357 -146t140 -362q0 -26 -4 -80h-735q22 -92 90 -146t172 -54q75 0 137.5 28.5t100.5 79.5l174 -139q-148 -199 -404 -199q-179 0 -307 88v-61h-231v78q-120 -96 -281 -96q-133 0 -248 66t-184 183t-69 256
t69 255.5t184 182.5t248 66q161 0 281 -96v78h231v-68q123 86 279 86zM1120 588h477q-19 80 -81 126t-154 46q-87 0 -151.5 -45.5t-90.5 -126.5zM586 223q109 0 185.5 78t76.5 186q0 107 -76.5 185t-185.5 78q-105 0 -181.5 -78.5t-76.5 -184.5q0 -107 76 -185.5t182 -78.5z
" />
    <glyph glyph-name="Oslashacute" unicode="&#x1fe;" horiz-adv-x="1783" 
d="M1147 1849l-498 -198l-88 202l492 215zM1702 1386l-158 -157q156 -212 156 -473q0 -163 -63 -308.5t-170 -249.5t-253.5 -164.5t-308.5 -60.5q-255 0 -469 148l-176 -176l-180 184l176 176q-143 199 -143 451q0 160 60.5 305t165 250.5t252.5 168t314 62.5
q249 0 453 -135l164 164zM389 754q0 -133 62 -254l718 719q-123 71 -264 71q-145 0 -264 -73t-185.5 -196t-66.5 -267zM1423 754q0 150 -73 280l-725 -725q127 -84 280 -84q107 0 203 41.5t165 112t109.5 168.5t40.5 207z" />
    <glyph glyph-name="oslashacute" unicode="&#x1ff;" horiz-adv-x="1241" 
d="M909 1307l-497 -199l-90 203l491 215zM1188 887l-135 -135q77 -123 77 -269q0 -104 -40.5 -198t-110 -162.5t-166 -109t-203.5 -40.5q-142 0 -264 72l-129 -129l-170 170l125 125q-80 122 -80 272q0 139 68.5 256t188 184.5t261.5 67.5q148 0 271 -71l137 137zM610 219
q109 0 183.5 77.5t74.5 186.5q0 107 -74.5 184.5t-183.5 77.5q-108 0 -182 -77.5t-74 -184.5q0 -108 74 -186t182 -78z" />
    <glyph glyph-name="uni0218" unicode="&#x218;" horiz-adv-x="1173" 
d="M225 418q39 -43 70 -72t76 -60t97.5 -47t111.5 -16q118 0 176.5 58.5t58.5 138.5q0 47 -23 84t-61.5 63.5t-88.5 49.5t-105.5 45.5t-111 47.5t-105.5 60.5t-88.5 79.5t-61.5 109t-23 145q0 203 137 320.5t357 117.5q230 0 426 -143l-141 -213q-61 54 -141 80t-158 26
q-98 0 -153.5 -42t-55.5 -117q0 -48 23 -85.5t62 -63t89.5 -47.5t106 -44t111 -47t106 -61.5t89.5 -82.5t62 -115t23 -155q0 -208 -133 -333.5t-379 -125.5q-152 0 -282 59t-239 206zM455 -506q69 34 103 77.5t34 80.5q-12 -4 -35 -4q-43 0 -77 33t-34 81q0 56 41 95t101 39
q64 0 105.5 -46t41.5 -124q0 -183 -219 -310z" />
    <glyph glyph-name="uni0219" unicode="&#x219;" horiz-adv-x="890" 
d="M182 305q118 -100 271 -100q61 0 88.5 19.5t27.5 49.5q0 29 -26 49t-68 33.5t-92.5 27t-101.5 35t-93 52.5t-68 84.5t-26 124.5q0 138 93.5 224.5t256.5 86.5q117 0 216 -32.5t161 -88.5l-133 -184q-109 74 -242 74q-98 0 -98 -60q0 -27 26 -47t67 -34.5t90.5 -29.5
t99.5 -38.5t91 -55.5t67 -86.5t26 -125.5q0 -138 -99 -224t-278 -86q-123 0 -214.5 37.5t-174.5 100.5zM338 -506q69 34 104 78t35 80q-16 -4 -35 -4q-44 0 -78 33t-34 81q0 56 41 95t102 39q63 0 104 -46t41 -124q0 -183 -219 -310z" />
    <glyph glyph-name="uni021A" unicode="&#x21a;" horiz-adv-x="1292" 
d="M510 0v1253h-485v263h1243v-263h-484v-1253h-274zM543 -506q71 34 105 77.5t34 80.5q-16 -4 -35 -4q-44 0 -78 33t-34 81q0 56 41 95t102 39q63 0 104 -46t41 -124q0 -183 -219 -310z" />
    <glyph glyph-name="uni021B" unicode="&#x21b;" horiz-adv-x="751" 
d="M709 729h-256v-383q0 -131 108 -131q18 0 36.5 1t33.5 2.5t27 3t19 2.5l7 1v-227l-5 -2q-5 -1 -13.5 -3t-20.5 -4.5t-29 -5.5t-35.5 -5t-42.5 -3.5t-49 -1.5q-144 0 -219 85.5t-75 236.5v434h-152v244h152v319h258v-319h256v-244zM459 -104q63 0 104 -46t41 -124
q0 -183 -219 -310l-61 78q69 34 103 77.5t34 80.5q-12 -4 -35 -4q-43 0 -77 33t-34 81q0 56 41.5 95t102.5 39z" />
    <glyph glyph-name="uni0237" unicode="&#x237;" horiz-adv-x="516" 
d="M127 973h258v-1491h-258v1491z" />
    <glyph glyph-name="circumflex" unicode="&#x2c6;" horiz-adv-x="1021" 
d="M899 1290l-121 -182l-266 176l-268 -176l-121 182l344 236h88z" />
    <glyph glyph-name="caron" unicode="&#x2c7;" horiz-adv-x="1021" 
d="M778 1526l121 -183l-344 -235h-88l-344 235l121 183l268 -176z" />
    <glyph glyph-name="breve" unicode="&#x2d8;" horiz-adv-x="999" 
d="M500 1108q-166 0 -271.5 112t-105.5 285h217q0 -82 40 -128t120 -46t119.5 46t39.5 128h218q0 -172 -106 -284.5t-271 -112.5z" />
    <glyph glyph-name="dotaccent" unicode="&#x2d9;" horiz-adv-x="591" 
d="M299 1171q-71 0 -117.5 46.5t-46.5 117.5q0 68 47 114t117 46q67 0 113.5 -46.5t46.5 -113.5q0 -70 -46 -117t-114 -47z" />
    <glyph glyph-name="ring" unicode="&#x2da;" horiz-adv-x="770" 
d="M385 1026q-114 0 -188 72t-74 178q0 105 74 177.5t188 72.5t188 -72.5t74 -177.5q0 -106 -74 -178t-188 -72zM385 1180q43 0 70.5 27.5t27.5 68.5t-27.5 68.5t-70.5 27.5t-70.5 -27.5t-27.5 -68.5t27.5 -68.5t70.5 -27.5z" />
    <glyph glyph-name="ogonek" unicode="&#x2db;" horiz-adv-x="595" 
d="M473 -436q-56 -17 -117 -17q-106 0 -171.5 53.5t-65.5 147.5q0 77 36.5 145.5t104.5 106.5h172q-115 -69 -115 -180q0 -96 99 -96q33 0 57 8v-168z" />
    <glyph glyph-name="tilde" unicode="&#x2dc;" horiz-adv-x="1071" 
d="M123 1159q0 144 65 225.5t187 81.5q61 0 123 -24t111 -48t77 -24q36 0 53 21.5t17 74.5h192q0 -142 -65 -224.5t-181 -82.5q-65 0 -128 24t-110 48t-73 24q-76 0 -76 -96h-192z" />
    <glyph glyph-name="hungarumlaut" unicode="&#x2dd;" horiz-adv-x="1048" 
d="M123 1245l225 283l184 -148l-235 -272zM516 1245l223 283l187 -148l-236 -272z" />
    <glyph glyph-name="gravecomb" unicode="&#x300;" horiz-adv-x="0" 
d="M-711 1307l97 219l491 -215l-90 -203z" />
    <glyph glyph-name="acutecomb" unicode="&#x301;" horiz-adv-x="0" 
d="M-711 1311l492 215l96 -219l-498 -199z" />
    <glyph glyph-name="uni0302" unicode="&#x302;" horiz-adv-x="0" 
d="M-123 1290l-121 -182l-266 176l-268 -176l-121 182l344 236h88z" />
    <glyph glyph-name="tildecomb" unicode="&#x303;" horiz-adv-x="0" 
d="M-948 1159q0 144 65 225.5t187 81.5q61 0 123 -24t111 -48t77 -24q36 0 53 21.5t17 74.5h192q0 -142 -65 -224.5t-181 -82.5q-65 0 -128 24t-110 48t-73 24q-76 0 -76 -96h-192z" />
    <glyph glyph-name="uni0304" unicode="&#x304;" horiz-adv-x="0" 
d="M-817 1436h694v-232h-694v232z" />
    <glyph glyph-name="uni0306" unicode="&#x306;" horiz-adv-x="0" 
d="M-500 1108q-166 0 -271.5 112t-105.5 285h218q0 -82 39.5 -128t119.5 -46t120 46t40 128h217q0 -172 -106 -284.5t-271 -112.5z" />
    <glyph glyph-name="uni0307" unicode="&#x307;" horiz-adv-x="0" 
d="M-293 1171q-71 0 -117.5 46.5t-46.5 117.5q0 68 47 114t117 46q67 0 113.5 -46.5t46.5 -113.5q0 -70 -46 -117t-114 -47z" />
    <glyph glyph-name="uni0308" unicode="&#x308;" horiz-adv-x="0" 
d="M-743 1161q-69 0 -115.5 46t-46.5 116q0 69 46.5 114.5t115.5 45.5t116 -45.5t47 -114.5q0 -70 -47 -116t-116 -46zM-289 1161q-69 0 -115.5 46t-46.5 116q0 69 46.5 114.5t115.5 45.5t116.5 -45.5t47.5 -114.5q0 -70 -47 -116t-117 -46z" />
    <glyph glyph-name="uni030A" unicode="&#x30a;" horiz-adv-x="0" 
d="M-385 1026q-114 0 -188 72t-74 178q0 105 74 177.5t188 72.5t188 -72.5t74 -177.5q0 -106 -74 -178t-188 -72zM-385 1180q43 0 70.5 27.5t27.5 68.5t-27.5 68.5t-70.5 27.5t-70.5 -27.5t-27.5 -68.5t27.5 -68.5t70.5 -27.5z" />
    <glyph glyph-name="uni030B" unicode="&#x30b;" horiz-adv-x="0" 
d="M-926 1245l226 283l184 -148l-236 -272zM-532 1245l223 283l186 -148l-235 -272z" />
    <glyph glyph-name="uni030C" unicode="&#x30c;" horiz-adv-x="0" 
d="M-244 1526l121 -183l-344 -235h-88l-344 235l121 183l268 -176z" />
    <glyph glyph-name="uni0312" unicode="&#x312;" horiz-adv-x="0" 
d="M-158 1520q-69 -34 -103 -77.5t-34 -80.5q12 4 35 4q43 0 76.5 -33.5t33.5 -81.5q0 -55 -40 -94t-101 -39q-63 0 -105 47t-42 123q0 182 221 311z" />
    <glyph glyph-name="uni0326" unicode="&#x326;" horiz-adv-x="0" 
d="M-434 -506q69 34 103 77.5t34 80.5q-12 -4 -35 -4q-43 0 -76.5 33t-33.5 81q0 56 40 95t101 39q63 0 105 -46t42 -124q0 -184 -221 -310z" />
    <glyph glyph-name="uni0327" unicode="&#x327;" horiz-adv-x="0" 
d="M-387 -518q-140 0 -234 84l107 127q19 -23 52.5 -38t66.5 -15q78 0 78 53q0 63 -82 63h-162l94 269h164l-43 -121h20q88 0 145.5 -55t57.5 -148q0 -97 -72 -158t-192 -61z" />
    <glyph glyph-name="uni0328" unicode="&#x328;" horiz-adv-x="0" 
d="M-123 -436q-56 -17 -117 -17q-106 0 -171.5 53.5t-65.5 147.5q0 77 36.5 145.5t104.5 106.5h172q-115 -69 -115 -180q0 -96 99 -96q33 0 57 8v-168z" />
    <glyph glyph-name="uni0335" unicode="&#x335;" horiz-adv-x="0" 
d="M-899 645v232h776v-232h-776z" />
    <glyph glyph-name="uni0336" unicode="&#x336;" horiz-adv-x="0" 
d="M-1694 1100v231h1571v-231h-1571z" />
    <glyph glyph-name="uni0337" unicode="&#x337;" horiz-adv-x="0" 
d="M-799 774l633 170l55 -209l-632 -170z" />
    <glyph glyph-name="uni0338" unicode="&#x338;" horiz-adv-x="0" 
d="M-555 793l262 260l170 -170l-268 -269zM-1264 82l250 250l162 -178l-242 -242z" />
    <glyph glyph-name="uni0374" unicode="&#x374;" horiz-adv-x="587" 
d="M256 1516h295l-248 -607h-211z" />
    <glyph glyph-name="uni0375" unicode="&#x375;" horiz-adv-x="587" 
d="M332 -266h-295l248 606h211z" />
    <glyph glyph-name="uni037E" unicode="&#x37e;" horiz-adv-x="528" 
d="M264 633q-68 0 -115 46t-47 114t47 113.5t115 45.5t114 -45t46 -114t-46 -114.5t-114 -45.5zM260 305q83 0 127.5 -60.5t44.5 -160.5q0 -154 -95 -273t-218 -124v127q59 0 108.5 47t63.5 135q-24 -4 -41 -4q-65 0 -106.5 43t-41.5 110q0 68 45 114t113 46z" />
    <glyph glyph-name="tonos" unicode="&#x384;" horiz-adv-x="589" 
d="M123 1188l100 463h244l-127 -508z" />
    <glyph glyph-name="dieresistonos" unicode="&#x385;" horiz-adv-x="1265" 
d="M489 1188l95 450h241l-120 -493zM289 1161q-69 0 -115.5 46t-46.5 116q0 68 46.5 114t115.5 46t115.5 -46t46.5 -114q0 -70 -46.5 -116t-115.5 -46zM977 1161q-69 0 -115.5 46t-46.5 116q0 68 46.5 114t115.5 46q68 0 115 -46.5t47 -113.5q0 -70 -47 -116t-115 -46z" />
    <glyph glyph-name="Alphatonos" unicode="&#x386;" horiz-adv-x="1566" 
d="M422 1518l-125 -521l-219 43l102 478h242zM1262 0l-123 319h-654l-120 -319h-295l604 1516h278l602 -1516h-292zM811 1165l-227 -585h454z" />
    <glyph glyph-name="anoteleia" unicode="&#x387;" horiz-adv-x="505" 
d="M254 360q-68 0 -115 46.5t-47 115.5q0 67 47 113.5t115 46.5t114 -46t46 -114q0 -69 -46 -115.5t-114 -46.5z" />
    <glyph glyph-name="Epsilontonos" unicode="&#x388;" horiz-adv-x="1513" 
d="M0 1040l100 478h244l-127 -521zM465 0v1516h965v-263h-691v-331h545v-263h-545v-397h691v-262h-965z" />
    <glyph glyph-name="Etatonos" unicode="&#x389;" horiz-adv-x="1900" 
d="M0 1040l100 478h244l-127 -521zM1460 1516h273v-1516h-273v666h-721v-666h-274v1516h274v-586h721v586z" />
    <glyph glyph-name="Iotatonos" unicode="&#x38a;" horiz-adv-x="907" 
d="M0 1040l100 478h244l-127 -521zM465 0v1516h274v-1516h-274z" />
    <glyph glyph-name="Omicrontonos" unicode="&#x38c;" horiz-adv-x="2035" 
d="M1165 -27q-161 0 -307 60.5t-252.5 164.5t-169.5 249.5t-63 308.5q0 160 60.5 305t165 250.5t252.5 168t314 62.5q167 0 315 -62.5t253 -168t166 -250.5t61 -305q0 -163 -63 -308.5t-170 -249.5t-253.5 -164.5t-308.5 -60.5zM29 1040l102 478h242l-125 -521zM1165 225
q107 0 203 41.5t165 112t109.5 168.5t40.5 207q0 144 -67 267t-186.5 196t-264.5 73t-264 -73t-185.5 -196t-66.5 -267q0 -109 40.5 -207t109 -168.5t164 -112t202.5 -41.5z" />
    <glyph glyph-name="Upsilontonos" unicode="&#x38e;" horiz-adv-x="1855" 
d="M51 1040l101 478h243l-127 -521zM1509 1516h320l-549 -850v-666h-274v664l-547 852h317l367 -582z" />
    <glyph glyph-name="Omegatonos" unicode="&#x38f;" horiz-adv-x="1959" 
d="M1866 799q0 -178 -71 -325.5t-196 -248.5h246v-225h-657v225q164 32 283.5 189.5t119.5 367.5q0 152 -63.5 268.5t-171 178t-240.5 61.5q-203 0 -338 -140t-135 -368q0 -210 120 -367.5t284 -189.5v-225h-658v225h246q-125 101 -195.5 248.5t-70.5 325.5q0 158 58 297
t157.5 236.5t237.5 153.5t294 56q125 0 239.5 -35.5t207 -102.5t161 -157.5t105.5 -205.5t37 -242zM129 1518h242l-125 -521l-219 43z" />
    <glyph glyph-name="iotadieresistonos" unicode="&#x390;" horiz-adv-x="669" 
d="M137 1188l94 450h240l-119 -493zM-63 1161q-69 0 -115.5 46t-46.5 116q0 68 46.5 114t115.5 46q68 0 114.5 -46.5t46.5 -113.5q0 -70 -46.5 -116t-114.5 -46zM623 1161q-68 0 -115 46t-47 116q0 67 47 113.5t115 46.5q69 0 115 -46t46 -114q0 -70 -46 -116t-115 -46z
M422 -27q-141 0 -217 75.5t-76 213.5v711h258v-651q0 -54 22.5 -80.5t84.5 -26.5q24 0 38 2v-227q-62 -17 -110 -17z" />
    <glyph glyph-name="Alpha" unicode="&#x391;" horiz-adv-x="1507" 
d="M1202 0l-123 319h-651l-123 -319h-293l604 1516h279l602 -1516h-295zM754 1165l-228 -585h455z" />
    <glyph glyph-name="Beta" unicode="&#x392;" horiz-adv-x="1261" 
d="M166 0v1516h440q256 0 384 -100.5t128 -287.5q0 -249 -235 -333q149 -32 222 -132t73 -243q0 -212 -152.5 -316t-433.5 -104h-426zM440 920h230q84 0 131 42t47 123q0 85 -48 128.5t-138 43.5h-222v-337zM440 258h211q136 0 196 56t60 145q0 90 -60 147.5t-198 57.5h-209
v-406z" />
    <glyph glyph-name="Gamma" unicode="&#x393;" horiz-adv-x="1136" 
d="M166 1516h946v-263h-672v-1253h-274v1516z" />
    <glyph glyph-name="uni0394" unicode="&#x394;" horiz-adv-x="1437" 
d="M862 1516l559 -1516h-1407l561 1516h287zM401 256h633l-315 887z" />
    <glyph glyph-name="Epsilon" unicode="&#x395;" horiz-adv-x="1214" 
d="M166 0v1516h964v-263h-690v-331h545v-263h-545v-397h690v-262h-964z" />
    <glyph glyph-name="Zeta" unicode="&#x396;" horiz-adv-x="1333" 
d="M414 262h856v-262h-1217v260l856 993h-833v263h1192v-261z" />
    <glyph glyph-name="Eta" unicode="&#x397;" horiz-adv-x="1601" 
d="M1161 1516h275v-1516h-275v666h-721v-666h-274v1516h274v-586h721v586z" />
    <glyph glyph-name="Theta" unicode="&#x398;" horiz-adv-x="1738" 
d="M868 -27q-162 0 -308 60.5t-252.5 164.5t-169 249.5t-62.5 308.5q0 160 60.5 305t165 250.5t252.5 168t314 62.5t314 -62.5t252.5 -168t165.5 -250.5t61 -305q0 -217 -107 -397.5t-289 -283t-397 -102.5zM868 225q107 0 202.5 41.5t164 112t109 168.5t40.5 207
q0 144 -66.5 267t-185.5 196t-264 73t-264.5 -73t-186.5 -196t-67 -267q0 -109 40.5 -207t109.5 -168.5t165 -112t203 -41.5zM535 870h667v-231h-667v231z" />
    <glyph glyph-name="Iota" unicode="&#x399;" horiz-adv-x="608" 
d="M166 0v1516h274v-1516h-274z" />
    <glyph glyph-name="Kappa" unicode="&#x39a;" horiz-adv-x="1368" 
d="M688 748l715 -748h-361l-602 639v-639h-274v1516h274v-666l566 666h344z" />
    <glyph glyph-name="Lambda" unicode="&#x39b;" horiz-adv-x="1431" 
d="M1419 0h-295l-407 1143l-410 -1143h-295l561 1516h285z" />
    <glyph glyph-name="Mu" unicode="&#x39c;" horiz-adv-x="1873" 
d="M1352 1516h354v-1516h-272v1141l-369 -580h-264l-361 572v-1133h-274v1516h354l414 -662z" />
    <glyph glyph-name="Nu" unicode="&#x39d;" horiz-adv-x="1718" 
d="M1280 1516h272v-1516h-286l-826 1153v-1153h-274v1516h344l770 -1076v1076z" />
    <glyph glyph-name="Xi" unicode="&#x39e;" horiz-adv-x="1181" 
d="M1100 1516v-263h-1020v263h1020zM977 901v-262h-774v262h774zM1100 262v-262h-1020v262h1020z" />
    <glyph glyph-name="Omicron" unicode="&#x39f;" horiz-adv-x="1738" 
d="M868 -27q-162 0 -308 60.5t-252.5 164.5t-169 249.5t-62.5 308.5q0 160 60.5 305t165 250.5t252.5 168t314 62.5t314 -62.5t252.5 -168t165.5 -250.5t61 -305q0 -217 -107 -397.5t-289 -283t-397 -102.5zM868 225q107 0 202.5 41.5t164 112t109 168.5t40.5 207
q0 144 -66.5 267t-185.5 196t-264 73t-264.5 -73t-186.5 -196t-67 -267q0 -109 40.5 -207t109.5 -168.5t165 -112t203 -41.5z" />
    <glyph glyph-name="Pi" unicode="&#x3a0;" horiz-adv-x="1560" 
d="M1395 1516v-1516h-275v1253h-680v-1253h-274v1516h1229z" />
    <glyph glyph-name="Rho" unicode="&#x3a1;" horiz-adv-x="1273" 
d="M166 0v1516h487q145 0 257 -40t180 -110t102.5 -159.5t34.5 -194.5q0 -106 -34.5 -196t-102.5 -161t-180 -111t-257 -40h-213v-504h-274zM440 764h211q154 0 229.5 68.5t75.5 177.5q0 108 -75.5 176.5t-229.5 68.5h-211v-491z" />
    <glyph glyph-name="Sigma" unicode="&#x3a3;" horiz-adv-x="1107" 
d="M1040 1516v-263h-616l348 -489v-16l-350 -486h618v-262h-964v238l375 518l-375 522v238h964z" />
    <glyph glyph-name="Tau" unicode="&#x3a4;" horiz-adv-x="1292" 
d="M510 0v1253h-485v263h1243v-263h-484v-1253h-274z" />
    <glyph glyph-name="Upsilon" unicode="&#x3a5;" horiz-adv-x="1425" 
d="M1079 1516h318l-547 -850v-666h-275v664l-546 852h317l367 -582z" />
    <glyph glyph-name="Phi" unicode="&#x3a6;" horiz-adv-x="1714" 
d="M1647 756q0 -260 -179.5 -449t-480.5 -227v-141h-274v143q-292 41 -467.5 229.5t-175.5 444.5q0 167 75 310t222.5 242t345.5 126v143h274v-141q203 -25 354.5 -123.5t228.5 -243t77 -313.5zM987 330q182 34 282.5 150.5t100.5 273.5q0 159 -99.5 278t-283.5 152v-854z
M342 754q0 -155 97.5 -270.5t273.5 -149.5v848q-177 -36 -274 -154.5t-97 -273.5z" />
    <glyph glyph-name="Chi" unicode="&#x3a7;" horiz-adv-x="1341" 
d="M1350 1516l-514 -768l497 -748h-323l-348 522l-347 -522h-323l510 764l-502 752h324l352 -529l348 529h326z" />
    <glyph glyph-name="Psi" unicode="&#x3a8;" horiz-adv-x="1626" 
d="M1286 1516h275v-355q0 -294 -162.5 -466.5t-448.5 -205.5v-489h-272v489q-286 33 -448 205.5t-162 466.5v355h272v-271q0 -104 15.5 -183t52 -147t104.5 -111.5t166 -60.5v773h272v-773q98 17 165.5 60.5t104 112t51.5 147t15 182.5v271z" />
    <glyph glyph-name="uni03A9" unicode="&#x3a9;" horiz-adv-x="1687" 
d="M1591 799q0 -178 -70.5 -325.5t-195.5 -248.5h246v-225h-656v225q163 32 282.5 189.5t119.5 367.5q0 229 -134.5 368.5t-338.5 139.5t-338.5 -139.5t-134.5 -368.5q0 -210 119 -367.5t282 -189.5v-225h-655v225h245q-125 101 -195.5 248.5t-70.5 325.5q0 158 58 297
t157.5 236.5t238 153.5t294.5 56q209 0 379.5 -95.5t269 -266t98.5 -381.5z" />
    <glyph glyph-name="Iotadieresis" unicode="&#x3aa;" horiz-adv-x="622" 
d="M61 1692q-73 0 -123.5 49.5t-50.5 122.5q0 72 51 122t123 50q74 0 125.5 -50t51.5 -122q0 -73 -51.5 -122.5t-125.5 -49.5zM557 1692q-74 0 -124 49.5t-50 122.5q0 72 50.5 122t123.5 50t123.5 -50t50.5 -122q0 -73 -50 -122.5t-124 -49.5zM176 0v1516h275v-1516h-275z
" />
    <glyph glyph-name="Upsilondieresis" unicode="&#x3ab;" horiz-adv-x="1425" 
d="M449 1692q-74 0 -124.5 49.5t-50.5 122.5q0 72 51 122t124 50t123.5 -50t50.5 -122q0 -73 -50 -122.5t-124 -49.5zM944 1692q-74 0 -124 49.5t-50 122.5q0 72 50.5 122t123.5 50t123.5 -50t50.5 -122q0 -73 -50 -122.5t-124 -49.5zM1079 1516h318l-547 -850v-666h-275
v664l-546 852h317l367 -582z" />
    <glyph glyph-name="alphatonos" unicode="&#x3ac;" horiz-adv-x="1271" 
d="M844 1651l-125 -508l-217 45l100 463h242zM1188 213q11 0 39 4v-227q-44 -17 -117 -17q-164 0 -229 133q-130 -124 -316 -124q-132 0 -246.5 66t-183.5 183t-69 256t69 255.5t183.5 182.5t246.5 66q159 0 283 -96v78h258v-656q0 -50 21.5 -77t60.5 -27zM586 223
q109 0 185.5 78t76.5 186q0 107 -76.5 185t-185.5 78q-105 0 -181.5 -78.5t-76.5 -184.5q0 -107 76 -185.5t182 -78.5z" />
    <glyph glyph-name="epsilontonos" unicode="&#x3ad;" horiz-adv-x="989" 
d="M715 1651l-125 -508l-217 45l100 463h242zM758 309l211 -131q-116 -217 -459 -217q-194 0 -317 83.5t-123 234.5q0 82 42.5 143.5t118.5 89.5q-62 29 -98.5 89t-36.5 130q0 132 109.5 206.5t294.5 74.5q302 0 420 -187l-209 -125q-30 45 -80.5 71t-112.5 26
q-71 0 -115.5 -26.5t-44.5 -72.5q0 -98 150 -98h143v-207h-153q-90 0 -128 -26.5t-38 -79.5q0 -50 48.5 -79.5t131.5 -29.5q88 0 152 37.5t94 93.5z" />
    <glyph glyph-name="etatonos" unicode="&#x3ae;" horiz-adv-x="1177" 
d="M799 1651l-125 -508l-219 45l102 463h242zM682 991q62 0 116 -15t103 -48.5t84 -83.5t55.5 -125.5t20.5 -169.5v-1067h-258v1040q0 106 -45.5 164.5t-139.5 58.5q-96 0 -145 -53.5t-49 -175.5v-516h-258v629q0 50 -21.5 77t-60.5 27q-25 0 -39 -2v225q41 17 117 17
q159 0 225 -123q99 141 295 141z" />
    <glyph glyph-name="iotatonos" unicode="&#x3af;" horiz-adv-x="561" 
d="M150 1188l100 463h242l-125 -508zM414 -27q-141 0 -217 75.5t-76 213.5v711h258v-651q0 -54 22 -80.5t84 -26.5q25 0 39 2v-227q-62 -17 -110 -17z" />
    <glyph glyph-name="upsilondieresistonos" unicode="&#x3b0;" horiz-adv-x="1226" 
d="M461 1188l96 450h240l-119 -493zM260 1161q-68 0 -115 46t-47 116q0 67 47 113.5t115 46.5q69 0 115.5 -46t46.5 -114q0 -70 -46.5 -116t-115.5 -46zM948 1161q-69 0 -115.5 46t-46.5 116q0 68 46.5 114t115.5 46t115.5 -46t46.5 -114q0 -70 -46.5 -116t-115.5 -46z
M594 -27q-99 0 -181 27t-145 79.5t-98 138t-35 196.5v559h258v-502q0 -126 46 -188t155 -62q107 0 154 62t47 188v502h258v-559q0 -111 -35 -196.5t-98 -138t-145 -79.5t-181 -27z" />
    <glyph glyph-name="alpha" unicode="&#x3b1;" horiz-adv-x="1271" 
d="M1188 213q11 0 39 4v-227q-44 -17 -117 -17q-164 0 -229 133q-130 -124 -316 -124q-132 0 -246.5 66t-183.5 183t-69 256t69 255.5t183.5 182.5t246.5 66q159 0 283 -96v78h258v-656q0 -50 21.5 -77t60.5 -27zM586 223q109 0 185.5 78t76.5 186q0 107 -76.5 185
t-185.5 78q-105 0 -181.5 -78.5t-76.5 -184.5q0 -107 76 -185.5t182 -78.5z" />
    <glyph glyph-name="beta" unicode="&#x3b2;" horiz-adv-x="1196" 
d="M854 823q135 -47 205.5 -150t70.5 -249q0 -108 -37 -193t-102 -139t-149.5 -82t-182.5 -28q-162 0 -274 88v-588h-258v1569q0 216 126 350.5t353 134.5q201 0 322 -107.5t121 -281.5q0 -118 -55 -201t-140 -123zM631 223q116 0 179.5 64t63.5 164q0 110 -80 176.5
t-221 66.5h-57v234h57q104 0 162 53t58 137q0 78 -52 127t-139 49q-98 0 -157.5 -66t-59.5 -179v-562q0 -125 64.5 -194.5t181.5 -69.5z" />
    <glyph glyph-name="gamma" unicode="&#x3b3;" horiz-adv-x="1118" 
d="M821 973h281l-416 -1034v-457h-258v457l-414 1034h279l264 -719z" />
    <glyph glyph-name="delta" unicode="&#x3b4;" horiz-adv-x="1167" 
d="M831 975q148 -135 209.5 -251t61.5 -241q0 -139 -69 -256.5t-188.5 -185.5t-262.5 -68q-215 0 -365.5 149t-150.5 361q0 183 119 325.5t292 164.5l-330 305v238h832v-238h-477zM582 219q110 0 184 78t74 192q0 113 -74 189t-184 76q-107 0 -180.5 -76.5t-73.5 -188.5
q0 -114 73.5 -192t180.5 -78z" />
    <glyph glyph-name="epsilon" unicode="&#x3b5;" horiz-adv-x="989" 
d="M758 309l211 -131q-116 -217 -459 -217q-194 0 -317 83.5t-123 234.5q0 82 42.5 143.5t118.5 89.5q-62 29 -98.5 89t-36.5 130q0 132 109.5 206.5t294.5 74.5q302 0 420 -187l-209 -125q-30 45 -80.5 71t-112.5 26q-71 0 -115.5 -26.5t-44.5 -72.5q0 -98 150 -98h143
v-207h-153q-90 0 -128 -26.5t-38 -79.5q0 -50 48.5 -79.5t131.5 -29.5q88 0 152 37.5t94 93.5z" />
    <glyph glyph-name="zeta" unicode="&#x3b6;" horiz-adv-x="983" 
d="M653 242l289 -2v-625h-258v385h-12q-152 0 -268 37t-187.5 105.5t-107 159t-35.5 202.5q0 84 20.5 163.5t48.5 137.5t76.5 121.5t84 101.5t91.5 92l160 158h-485v238h833v-238l-328 -320q-37 -35 -62.5 -60.5t-61.5 -71.5t-58 -88t-38.5 -100t-16.5 -118
q0 -134 78.5 -205.5t236.5 -72.5z" />
    <glyph glyph-name="eta" unicode="&#x3b7;" horiz-adv-x="1177" 
d="M682 991q62 0 116 -15t103 -48.5t84 -83.5t55.5 -125.5t20.5 -169.5v-1067h-258v1040q0 106 -45.5 164.5t-139.5 58.5q-96 0 -145 -53.5t-49 -175.5v-516h-258v629q0 50 -21.5 77t-60.5 27q-25 0 -39 -2v225q41 17 117 17q159 0 225 -123q99 141 295 141z" />
    <glyph glyph-name="theta" unicode="&#x3b8;" horiz-adv-x="1239" 
d="M618 1542q254 0 398.5 -203.5t144.5 -582.5q0 -382 -145 -582.5t-398 -200.5q-252 0 -396 200t-144 583q0 380 143.5 583t396.5 203zM618 1296q-250 0 -276 -424h557q-26 424 -281 424zM618 219q127 0 197.5 101t83.5 315h-557q13 -215 82.5 -315.5t193.5 -100.5z" />
    <glyph glyph-name="iota" unicode="&#x3b9;" horiz-adv-x="561" 
d="M414 -27q-141 0 -217 75.5t-76 213.5v711h258v-651q0 -54 22 -80.5t84 -26.5q25 0 39 2v-227q-62 -17 -110 -17z" />
    <glyph glyph-name="kappa" unicode="&#x3ba;" horiz-adv-x="1064" 
d="M756 0l-252 383l-121 -113v-270h-256v973h256v-395l270 272q67 70 132 96.5t167 26.5h45v-228h-20q-50 0 -88.5 -16.5t-83.5 -58.5l-117 -111l369 -559h-301z" />
    <glyph glyph-name="lambda" unicode="&#x3bb;" horiz-adv-x="1093" 
d="M1069 0h-278l-246 659l-246 -659h-279l392 979l-95 246q-29 75 -104 75q-29 0 -47 -6v226q50 16 115 16q174 0 241 -162z" />
    <glyph glyph-name="uni03BC" unicode="&#x3bc;" horiz-adv-x="1204" 
d="M1120 213q11 0 39 4v-227q-44 -17 -117 -17q-158 0 -223 121q-86 -121 -235 -121q-118 0 -199 78v-397h-258v1319h258v-516q0 -123 52 -182.5t147 -59.5q196 0 196 242v516h258v-656q0 -50 21.5 -77t60.5 -27z" />
    <glyph glyph-name="nu" unicode="&#x3bd;" horiz-adv-x="1091" 
d="M791 973h278l-387 -973h-272l-390 973h281l242 -660z" />
    <glyph glyph-name="xi" unicode="&#x3be;" horiz-adv-x="978" 
d="M649 242l287 -2v-625h-258v385q-157 1 -276 34t-191 92t-107.5 136.5t-35.5 171.5q0 253 258 357q-92 43 -136.5 105t-44.5 151q0 138 117 231h-199v238h834v-238h-262q-113 0 -169 -51.5t-56 -134.5q0 -86 55 -134.5t166 -48.5h196v-245h-276q-104 0 -161.5 -58
t-57.5 -143q0 -108 74.5 -164t242.5 -57z" />
    <glyph glyph-name="omicron" unicode="&#x3bf;" horiz-adv-x="1167" 
d="M582 -27q-106 0 -202 40.5t-164.5 109t-109 162.5t-40.5 198q0 139 68 256t187 184.5t261 67.5q144 0 263.5 -67.5t188 -184t68.5 -256.5q0 -139 -68.5 -256t-188 -185.5t-263.5 -68.5zM582 219q109 0 183.5 77.5t74.5 186.5q0 107 -74.5 184.5t-183.5 77.5
q-107 0 -180.5 -77.5t-73.5 -184.5q0 -109 73.5 -186.5t180.5 -77.5z" />
    <glyph glyph-name="pi" unicode="&#x3c0;" horiz-adv-x="1243" 
d="M1178 735h-142v-416q0 -51 23.5 -78.5t64.5 -27.5q26 0 54 8v-231q-53 -17 -105 -17q-140 0 -217.5 79t-77.5 231v452h-321v-735h-258v735h-162v238h1141v-238z" />
    <glyph glyph-name="rho" unicode="&#x3c1;" horiz-adv-x="1206" 
d="M616 991q143 0 264 -67.5t191 -185.5t70 -259q0 -139 -69 -256t-185.5 -183.5t-251.5 -66.5q-158 0 -279 97v-588h-258v999q0 105 40.5 199.5t109.5 162.5t165 108t203 40zM616 215q110 0 186.5 78.5t76.5 189.5q0 109 -76.5 188t-186.5 79q-108 0 -184 -79t-76 -188
q0 -111 76 -189.5t184 -78.5z" />
    <glyph glyph-name="uni03C2" unicode="&#x3c2;" horiz-adv-x="1040" 
d="M328 512q0 -58 23 -105.5t70 -84.5t127 -58t187 -22l242 -2v-625h-258v385q-156 2 -281 42.5t-206 109.5t-123.5 161.5t-42.5 200.5q0 205 143.5 341t363.5 136q135 0 249.5 -62t185.5 -167l-215 -131q-37 53 -94.5 83.5t-125.5 30.5q-112 0 -178.5 -65.5t-66.5 -167.5z
" />
    <glyph glyph-name="sigma" unicode="&#x3c3;" horiz-adv-x="1222" 
d="M1169 973v-244h-182q94 -108 94 -258q0 -133 -68.5 -248t-186 -182.5t-255.5 -67.5q-137 0 -253.5 68.5t-184 183.5t-67.5 248q0 135 67.5 250t184 182.5t253.5 67.5h598zM571 219q108 0 178 73t70 181t-70 181t-178 73q-106 0 -174.5 -73t-68.5 -181t68.5 -181
t174.5 -73z" />
    <glyph glyph-name="tau" unicode="&#x3c4;" horiz-adv-x="1064" 
d="M1012 735h-410v-338q0 -96 52 -139t167 -43q65 0 158 10v-227q-91 -25 -193 -25q-197 0 -319.5 103t-122.5 278v381h-319v238h987v-238z" />
    <glyph glyph-name="upsilon" unicode="&#x3c5;" horiz-adv-x="1142" 
d="M569 -27q-133 0 -234 46t-162.5 147t-61.5 248v559h258v-502q0 -126 46.5 -188t153.5 -62q109 0 156 62t47 188v502h258v-559q0 -111 -35.5 -196.5t-98.5 -138t-145.5 -79.5t-181.5 -27z" />
    <glyph glyph-name="phi" unicode="&#x3c6;" horiz-adv-x="1439" 
d="M1374 463q0 -102 -39.5 -194t-107.5 -160.5t-165 -110t-208 -45.5v-471h-268v471q-111 4 -208 45.5t-165 110t-107.5 160.5t-39.5 194q0 137 66.5 251t186 183t267.5 74v360h268v-360q148 -5 267.5 -74t186 -183t66.5 -251zM326 463q0 -105 72.5 -181t187.5 -83v526
q-115 -7 -187.5 -82t-72.5 -180zM854 199q116 7 187 83t71 181t-71 180t-187 82v-526z" />
    <glyph glyph-name="chi" unicode="&#x3c7;" horiz-adv-x="1132" 
d="M1102 -518h-297l-236 481l-229 -481h-299l387 768l-211 432q-41 80 -123 80q-38 0 -61 -10v225q58 16 117 16q110 0 182 -45t123 -147l125 -254l194 426h301l-358 -707z" />
    <glyph glyph-name="psi" unicode="&#x3c8;" horiz-adv-x="1409" 
d="M1051 973h258v-488q0 -200 -128.5 -334.5t-346.5 -166.5v-502h-259v502q-219 32 -348 166.5t-129 334.5v488h258v-430q0 -119 57 -197t162 -108v1093h259v-1093q104 30 160.5 108t56.5 197v430z" />
    <glyph glyph-name="omega" unicode="&#x3c9;" horiz-adv-x="1536" 
d="M1208 991q54 -27 98.5 -70t81.5 -103.5t57.5 -145t20.5 -183.5q0 -235 -109.5 -372t-285.5 -137q-124 0 -202.5 59t-100.5 149q-20 -92 -98 -150t-201 -58q-177 0 -286 136.5t-109 372.5q0 193 71.5 318.5t184.5 183.5l137 -211q-58 -31 -94.5 -107.5t-36.5 -205.5
q0 -125 37 -183.5t112 -58.5q74 0 115 49.5t41 153.5v274h256v-274q0 -104 41 -153.5t115 -49.5q151 0 151 242q0 128 -37 205t-96 108z" />
    <glyph glyph-name="iotadieresis" unicode="&#x3ca;" horiz-adv-x="583" 
d="M10 1161q-69 0 -115.5 46t-46.5 116q0 69 46.5 114.5t115.5 45.5t116.5 -45.5t47.5 -114.5q0 -70 -47 -116t-117 -46zM465 1161q-69 0 -115.5 46t-46.5 116q0 69 46.5 114.5t115.5 45.5t115.5 -45.5t46.5 -114.5q0 -70 -46.5 -116t-115.5 -46zM379 -27q-141 0 -217 75.5
t-76 213.5v711h258v-651q0 -54 22.5 -80.5t84.5 -26.5q24 0 38 2v-227q-62 -17 -110 -17z" />
    <glyph glyph-name="upsilondieresis" unicode="&#x3cb;" horiz-adv-x="1142" 
d="M354 1161q-69 0 -115 46t-46 116q0 69 46 114.5t115 45.5t116.5 -45.5t47.5 -114.5q0 -70 -47 -116t-117 -46zM809 1161q-69 0 -115.5 46t-46.5 116q0 69 46.5 114.5t115.5 45.5t116.5 -45.5t47.5 -114.5q0 -70 -47 -116t-117 -46zM569 -27q-133 0 -234 46t-162.5 147
t-61.5 248v559h258v-502q0 -126 46.5 -188t153.5 -62q109 0 156 62t47 188v502h258v-559q0 -111 -35.5 -196.5t-98.5 -138t-145.5 -79.5t-181.5 -27z" />
    <glyph glyph-name="omicrontonos" unicode="&#x3cc;" horiz-adv-x="1167" 
d="M459 1188l100 463h244l-127 -508zM582 -27q-106 0 -202 40.5t-164.5 109t-109 162.5t-40.5 198q0 139 68 256t187 184.5t261 67.5q144 0 263.5 -67.5t188 -184t68.5 -256.5q0 -139 -68.5 -256t-188 -185.5t-263.5 -68.5zM582 219q109 0 183.5 77.5t74.5 186.5
q0 107 -74.5 184.5t-183.5 77.5q-107 0 -180.5 -77.5t-73.5 -184.5q0 -109 73.5 -186.5t180.5 -77.5z" />
    <glyph glyph-name="upsilontonos" unicode="&#x3cd;" horiz-adv-x="1142" 
d="M459 1188l100 463h242l-125 -508zM569 -27q-133 0 -234 46t-162.5 147t-61.5 248v559h258v-502q0 -126 46.5 -188t153.5 -62q109 0 156 62t47 188v502h258v-559q0 -111 -35.5 -196.5t-98.5 -138t-145.5 -79.5t-181.5 -27z" />
    <glyph glyph-name="omegatonos" unicode="&#x3ce;" horiz-adv-x="1536" 
d="M1006 1651l-125 -508l-219 45l100 463h244zM1208 991q54 -27 98.5 -70t81.5 -103.5t57.5 -145t20.5 -183.5q0 -235 -109.5 -372t-285.5 -137q-124 0 -202.5 59t-100.5 149q-20 -92 -98 -150t-201 -58q-177 0 -286 136.5t-109 372.5q0 193 71.5 318.5t184.5 183.5
l137 -211q-58 -31 -94.5 -107.5t-36.5 -205.5q0 -125 37 -183.5t112 -58.5q74 0 115 49.5t41 153.5v274h256v-274q0 -104 41 -153.5t115 -49.5q151 0 151 242q0 128 -37 205t-96 108z" />
    <glyph glyph-name="uni0401" unicode="&#x401;" horiz-adv-x="1214" 
d="M412 1692q-74 0 -124 49.5t-50 122.5q0 72 50.5 122t123.5 50t123.5 -50t50.5 -122q0 -73 -50 -122.5t-124 -49.5zM907 1692q-74 0 -124 49.5t-50 122.5q0 72 50.5 122t123.5 50t123.5 -50t50.5 -122q0 -73 -50 -122.5t-124 -49.5zM166 0v1516h964v-263h-690v-331h545
v-263h-545v-397h690v-262h-964z" />
    <glyph glyph-name="uni0402" unicode="&#x402;" horiz-adv-x="1517" 
d="M952 891q241 0 374.5 -121.5t133.5 -339.5q0 -211 -127 -330.5t-319 -119.5q-89 0 -150 20v268q56 -22 148 -22q74 0 124 48.5t50 137.5q0 92 -65 144.5t-171 52.5h-286v-629h-275v1253h-362v263h1120v-263h-483v-362h288z" />
    <glyph glyph-name="uni0403" unicode="&#x403;" horiz-adv-x="1136" 
d="M430 1651l-90 202l491 215l97 -219zM166 1516h946v-263h-672v-1253h-274v1516z" />
    <glyph glyph-name="uni0410" unicode="&#x410;" horiz-adv-x="1507" 
d="M1202 0l-123 319h-651l-123 -319h-293l604 1516h279l602 -1516h-295zM754 1165l-228 -585h455z" />
    <glyph glyph-name="uni0411" unicode="&#x411;" horiz-adv-x="1314" 
d="M735 889q259 0 393 -123t134 -324q0 -199 -134 -320.5t-393 -121.5h-569v1516h964v-263h-690v-364h295zM756 260q114 0 173.5 49t59.5 137q0 86 -59.5 134.5t-173.5 48.5h-316v-369h316z" />
    <glyph glyph-name="uni0412" unicode="&#x412;" horiz-adv-x="1261" 
d="M166 0v1516h440q256 0 384 -100.5t128 -287.5q0 -249 -235 -333q149 -32 222 -132t73 -243q0 -212 -152.5 -316t-433.5 -104h-426zM440 920h230q84 0 131 42t47 123q0 85 -48 128.5t-138 43.5h-222v-337zM440 258h211q136 0 196 56t60 145q0 90 -60 147.5t-198 57.5h-209
v-406z" />
    <glyph glyph-name="uni0413" unicode="&#x413;" horiz-adv-x="1136" 
d="M166 1516h946v-263h-672v-1253h-274v1516z" />
    <glyph glyph-name="uni0414" unicode="&#x414;" horiz-adv-x="1660" 
d="M1401 256h186v-635h-262v379h-1036v-379h-264v635h223q112 583 112 1260h1041v-1260zM522 256h606v997h-497q-18 -514 -109 -997z" />
    <glyph glyph-name="uni0415" unicode="&#x415;" horiz-adv-x="1214" 
d="M166 0v1516h964v-263h-690v-331h545v-263h-545v-397h690v-262h-964z" />
    <glyph glyph-name="uni0416" unicode="&#x416;" horiz-adv-x="1871" 
d="M1300 754l603 -754h-330l-504 641v-641h-264v641l-504 -641h-328l600 750l-546 766h311l467 -666v666h264v-666l467 666h311z" />
    <glyph glyph-name="uni0417" unicode="&#x417;" horiz-adv-x="1134" 
d="M793 799q122 -56 185.5 -154t63.5 -233q0 -197 -135.5 -318t-347.5 -121q-227 0 -356 121.5t-144 343.5h263q14 -102 72.5 -157.5t156.5 -55.5q102 0 159.5 61.5t57.5 153.5q0 95 -65 163.5t-175 68.5h-71v248h67q98 0 152.5 56t54.5 136q0 75 -44 126.5t-136 51.5
q-91 0 -138.5 -53.5t-52.5 -136.5h-262q3 88 33.5 166.5t86 140.5t142.5 98.5t195 36.5q111 0 199 -32.5t142 -88t82 -126t28 -150.5q0 -107 -54.5 -200.5t-158.5 -145.5z" />
    <glyph glyph-name="uni0418" unicode="&#x418;" horiz-adv-x="1640" 
d="M1128 1516h345v-1516h-275v1161l-745 -1161h-287v1516h272v-1082z" />
    <glyph glyph-name="uni0419" unicode="&#x419;" horiz-adv-x="1640" 
d="M815 1651q-166 0 -271.5 112t-105.5 285h215q0 -82 41 -128t121 -46t120 46t40 128h217q0 -172 -106 -284.5t-271 -112.5zM1128 1516h345v-1516h-275v1161l-745 -1161h-287v1516h272v-1082z" />
    <glyph glyph-name="uni041A" unicode="&#x41a;" horiz-adv-x="1368" 
d="M688 748l715 -748h-361l-602 639v-639h-274v1516h274v-666l566 666h344z" />
    <glyph glyph-name="uni041B" unicode="&#x41b;" horiz-adv-x="1517" 
d="M1352 1516v-1516h-275v1253h-481q-14 -269 -35.5 -467t-56 -338.5t-76 -229.5t-101.5 -139.5t-125.5 -69.5t-156.5 -19v266q36 0 59 7t51 34t47 78.5t40.5 143t37 225t31 326.5t27.5 446h1014z" />
    <glyph glyph-name="uni041C" unicode="&#x41c;" horiz-adv-x="1873" 
d="M1352 1516h354v-1516h-272v1141l-369 -580h-264l-361 572v-1133h-274v1516h354l414 -662z" />
    <glyph glyph-name="uni041D" unicode="&#x41d;" horiz-adv-x="1601" 
d="M1161 1516h275v-1516h-275v666h-721v-666h-274v1516h274v-586h721v586z" />
    <glyph glyph-name="uni041E" unicode="&#x41e;" horiz-adv-x="1738" 
d="M868 -27q-162 0 -308 60.5t-252.5 164.5t-169 249.5t-62.5 308.5q0 160 60.5 305t165 250.5t252.5 168t314 62.5t314 -62.5t252.5 -168t165.5 -250.5t61 -305q0 -217 -107 -397.5t-289 -283t-397 -102.5zM868 225q107 0 202.5 41.5t164 112t109 168.5t40.5 207
q0 144 -66.5 267t-185.5 196t-264 73t-264.5 -73t-186.5 -196t-67 -267q0 -109 40.5 -207t109.5 -168.5t165 -112t203 -41.5z" />
    <glyph glyph-name="uni041F" unicode="&#x41f;" horiz-adv-x="1574" 
d="M1407 1516v-1516h-274v1253h-693v-1253h-274v1516h1241z" />
    <glyph glyph-name="uni0420" unicode="&#x420;" horiz-adv-x="1273" 
d="M166 0v1516h487q145 0 257 -40t180 -110t102.5 -159.5t34.5 -194.5q0 -106 -34.5 -196t-102.5 -161t-180 -111t-257 -40h-213v-504h-274zM440 764h211q154 0 229.5 68.5t75.5 177.5q0 108 -75.5 176.5t-229.5 68.5h-211v-491z" />
    <glyph glyph-name="uni0421" unicode="&#x421;" horiz-adv-x="1454" 
d="M868 -27q-162 0 -308 60.5t-252.5 164.5t-169 249.5t-62.5 308.5q0 160 60.5 305t164.5 250.5t251.5 168t313.5 62.5q167 0 312.5 -63t255.5 -176l-170 -191q-155 178 -398 178q-108 0 -204.5 -43t-164.5 -115.5t-107.5 -171t-39.5 -206.5q0 -109 40.5 -207t109.5 -169
t165.5 -113t202.5 -42q105 0 207 46t176 120l160 -190q-110 -106 -248.5 -166t-294.5 -60z" />
    <glyph glyph-name="uni0422" unicode="&#x422;" horiz-adv-x="1292" 
d="M510 0v1253h-485v263h1243v-263h-484v-1253h-274z" />
    <glyph glyph-name="uni0423" unicode="&#x423;" horiz-adv-x="1386" 
d="M1063 1516h319l-626 -1137q-128 -232 -250.5 -321t-306.5 -89v250q93 0 160 40t126 142l72 129l-524 986h317l348 -699z" />
    <glyph glyph-name="uni0424" unicode="&#x424;" horiz-adv-x="1783" 
d="M1714 766q0 -122 -39 -223t-119 -181t-214 -127.5t-314 -54.5v-241h-272v241q-180 7 -314 54.5t-214 127.5t-119 181t-39 223q0 97 24 180.5t76.5 156t131.5 125t194.5 84.5t259.5 38v227h272v-227q144 -6 259.5 -38t194.5 -84.5t131.5 -125t76.5 -156t24 -180.5z
M340 764q0 -156 97 -239t319 -93v666q-222 -10 -319 -93.5t-97 -240.5zM1028 432q222 10 319 93t97 239q0 155 -97.5 238.5t-318.5 95.5v-666z" />
    <glyph glyph-name="uni0425" unicode="&#x425;" horiz-adv-x="1341" 
d="M1350 1516l-514 -768l497 -748h-323l-348 522l-347 -522h-323l510 764l-502 752h324l352 -529l348 529h326z" />
    <glyph glyph-name="uni0426" unicode="&#x426;" horiz-adv-x="1665" 
d="M1407 256h184v-635h-262v379h-1163v1516h274v-1260h693v1260h274v-1260z" />
    <glyph glyph-name="uni0427" unicode="&#x427;" horiz-adv-x="1474" 
d="M1049 1516h258v-1516h-275l6 618q-155 -155 -424 -155q-242 0 -382 137.5t-140 398.5v517h275v-512q0 -140 81.5 -214.5t229.5 -74.5q158 0 261 79t103 205v-2z" />
    <glyph glyph-name="uni0428" unicode="&#x428;" horiz-adv-x="2166" 
d="M1726 1516h275v-1516h-1835v1516h274v-1260h506v1260h275v-1260h505v1260z" />
    <glyph glyph-name="uni0429" unicode="&#x429;" horiz-adv-x="2258" 
d="M2001 256h186v-635h-264v379h-1757v1516h274v-1260h506v1260h275v-1260h505v1260h275v-1260z" />
    <glyph glyph-name="uni042A" unicode="&#x42a;" horiz-adv-x="1591" 
d="M1022 891q131 0 232.5 -33.5t165 -94t96 -141.5t32.5 -178q0 -201 -133.5 -322.5t-392.5 -121.5h-569v1253h-428v263h702v-625h295zM1042 260q114 0 174 49t60 137t-60 136.5t-174 48.5h-315v-371h315z" />
    <glyph glyph-name="uni042B" unicode="&#x42b;" horiz-adv-x="1923" 
d="M440 1516v-625h293q260 0 394.5 -123t134.5 -324t-134.5 -322.5t-394.5 -121.5h-567v1516h274zM1483 1516h274v-1516h-274v1516zM440 260h316q113 0 173 49.5t60 136.5t-60 136t-173 49h-316v-371z" />
    <glyph glyph-name="uni042C" unicode="&#x42c;" horiz-adv-x="1302" 
d="M440 1516v-625h293q260 0 394.5 -123t134.5 -324t-134.5 -322.5t-394.5 -121.5h-567v1516h274zM440 260h316q113 0 173 49.5t60 136.5t-60 136t-173 49h-316v-371z" />
    <glyph glyph-name="uni042D" unicode="&#x42d;" horiz-adv-x="1460" 
d="M594 1542q166 0 313.5 -62.5t251.5 -168t164.5 -250.5t60.5 -305q0 -163 -63 -308.5t-169.5 -249.5t-252.5 -164.5t-307 -60.5q-156 0 -295.5 60t-249.5 166l162 190q74 -74 175.5 -120t205.5 -46q190 0 332 120.5t176 305.5h-609v252h598q-45 170 -180.5 279.5
t-314.5 109.5q-240 0 -395 -178l-170 191q110 113 255.5 176t311.5 63z" />
    <glyph glyph-name="uni042E" unicode="&#x42e;" horiz-adv-x="2220" 
d="M1438 1542q204 0 364 -100t249 -279t89 -407q0 -173 -53.5 -320.5t-147 -248.5t-223 -157.5t-278.5 -56.5q-282 0 -476.5 190.5t-220.5 502.5h-301v-666h-274v1516h274v-586h312q47 277 233.5 444.5t452.5 167.5zM1438 225q193 0 310.5 140.5t117.5 388.5
q0 250 -116.5 393t-311.5 143q-194 0 -310 -143t-116 -393q0 -247 117.5 -388t308.5 -141z" />
    <glyph glyph-name="uni042F" unicode="&#x42f;" horiz-adv-x="1347" 
d="M633 1516h549v-1516h-273v625h-180l-360 -625h-308l375 645q-167 41 -257.5 154.5t-90.5 271.5q0 98 32 178t97 140.5t171 93.5t245 33zM909 874v381h-315q-236 0 -236 -192q0 -189 236 -189h315z" />
    <glyph glyph-name="uni0430" unicode="&#x430;" horiz-adv-x="1232" 
d="M848 973h258v-973h-258v78q-120 -96 -281 -96q-133 0 -248 66t-184 183t-69 256t69 255.5t184 182.5t248 66q161 0 281 -96v78zM586 223q109 0 185.5 78t76.5 186q0 107 -76.5 185t-185.5 78q-105 0 -181.5 -78.5t-76.5 -184.5q0 -107 76 -185.5t182 -78.5z" />
    <glyph glyph-name="uni0431" unicode="&#x431;" horiz-adv-x="1185" 
d="M655 971q101 0 189 -40.5t147.5 -107.5t94 -155.5t34.5 -184.5q0 -143 -70 -260.5t-188.5 -183.5t-259.5 -66q-147 0 -267.5 73.5t-191.5 211t-71 313.5q0 471 415 709l406 236l121 -211l-412 -236q-135 -77 -207 -178q104 80 260 80zM604 219q113 0 183.5 75t70.5 179
q0 107 -71 189.5t-183 82.5q-174 0 -291 -176q1 -156 83 -253t208 -97z" />
    <glyph glyph-name="uni0432" unicode="&#x432;" horiz-adv-x="1015" 
d="M127 973h399q183 0 279 -67t96 -177q0 -83 -38 -138t-107 -79q85 -19 136.5 -82.5t51.5 -155.5q0 -131 -105.5 -202.5t-295.5 -71.5h-416v973zM549 590q42 0 66 25t24 65q0 41 -26.5 63.5t-77.5 22.5h-156v-176h170zM539 207q74 0 109.5 22.5t35.5 75.5q0 96 -133 96
h-172v-194h160z" />
    <glyph glyph-name="uni0433" unicode="&#x433;" horiz-adv-x="856" 
d="M831 973v-242h-446v-731h-258v973h704z" />
    <glyph glyph-name="uni0434" unicode="&#x434;" horiz-adv-x="1216" 
d="M1012 221h137v-471h-252v250h-606v-250h-252v471h149q62 339 62 752h762v-752zM444 221h314v531h-256q-12 -301 -58 -531z" />
    <glyph glyph-name="uni0435" unicode="&#x435;" horiz-adv-x="1118" 
d="M561 991q153 0 267 -68t172.5 -182.5t58.5 -257.5q0 -26 -4 -80h-733q22 -92 90 -146t172 -54q75 0 137 28.5t100 79.5l174 -139q-148 -199 -405 -199q-125 0 -226.5 43t-165.5 115.5t-98 163.5t-34 192q0 132 61.5 247t176.5 186t257 71zM326 588h477q-15 82 -74.5 127
t-161.5 45q-87 0 -151 -45.5t-90 -126.5z" />
    <glyph glyph-name="uni0436" unicode="&#x436;" horiz-adv-x="1441" 
d="M1448 0h-303l-299 410v-410h-250v410l-299 -410h-303l387 504l-363 469h293l285 -393v393h250v-393l284 393h293l-362 -469z" />
    <glyph glyph-name="uni0437" unicode="&#x437;" horiz-adv-x="907" 
d="M674 510q77 -26 118.5 -86.5t41.5 -147.5q0 -141 -112 -222t-286 -81q-185 0 -286 77t-113 245h227q9 -44 52 -69t112 -25t107 26t38 68q0 96 -145 96h-86v207h76q129 0 129 86q0 39 -32 61.5t-87 22.5q-53 0 -86.5 -23.5t-38.5 -56.5h-229q9 135 112 219t267 84
q166 0 260 -70.5t94 -197.5q0 -66 -35.5 -125t-97.5 -88z" />
    <glyph glyph-name="uni0438" unicode="&#x438;" horiz-adv-x="1165" 
d="M786 973h252v-973h-252v588l-407 -588h-252v973h252v-588z" />
    <glyph glyph-name="uni0439" unicode="&#x439;" horiz-adv-x="1165" 
d="M606 1108q-166 0 -271.5 112t-105.5 285h217q0 -82 40 -128t120 -46t121 46t41 128h215q0 -172 -106 -284.5t-271 -112.5zM786 973h252v-973h-252v588l-407 -588h-252v973h252v-588z" />
    <glyph glyph-name="uni043A" unicode="&#x43a;" horiz-adv-x="1069" 
d="M1092 0h-332l-375 410v-410h-258v973h258v-395l348 395h318l-422 -469z" />
    <glyph glyph-name="uni043B" unicode="&#x43b;" horiz-adv-x="1167" 
d="M1040 973v-973h-258v731h-284q-9 -159 -26.5 -276t-46 -199t-63 -134t-85.5 -81.5t-105 -40t-129 -10.5v241q27 0 45.5 5t39.5 22t35.5 48.5t29 86t24.5 132.5t18 190t13 258h792z" />
    <glyph glyph-name="uni043C" unicode="&#x43c;" horiz-adv-x="1331" 
d="M893 973h307v-973h-250v647l-200 -332h-172l-199 330v-645h-252v973h309l230 -381z" />
    <glyph glyph-name="uni043D" unicode="&#x43d;" horiz-adv-x="1165" 
d="M780 973h258v-973h-258v385h-395v-385h-258v973h258v-346h395v346z" />
    <glyph glyph-name="uni043E" unicode="&#x43e;" horiz-adv-x="1167" 
d="M582 -27q-106 0 -202 40.5t-164.5 109t-109 162.5t-40.5 198q0 139 68 256t187 184.5t261 67.5q144 0 263.5 -67.5t188 -184t68.5 -256.5q0 -139 -68.5 -256t-188 -185.5t-263.5 -68.5zM582 219q109 0 183.5 77.5t74.5 186.5q0 107 -74.5 184.5t-183.5 77.5
q-107 0 -180.5 -77.5t-73.5 -184.5q0 -109 73.5 -186.5t180.5 -77.5z" />
    <glyph glyph-name="uni043F" unicode="&#x43f;" horiz-adv-x="1146" 
d="M1018 973v-973h-258v731h-375v-731h-258v973h891z" />
    <glyph glyph-name="uni0440" unicode="&#x440;" horiz-adv-x="1234" 
d="M668 991q132 0 247 -66t184.5 -182.5t69.5 -255.5t-69.5 -256t-184.5 -183t-247 -66q-159 0 -283 96v-596h-258v1491h258v-78q124 96 283 96zM647 223q106 0 183 78.5t77 185.5q0 106 -77.5 184.5t-182.5 78.5q-109 0 -185.5 -78t-76.5 -185q0 -108 76.5 -186t185.5 -78z
" />
    <glyph glyph-name="uni0441" unicode="&#x441;" horiz-adv-x="1056" 
d="M582 -27q-141 0 -260 68.5t-187.5 186t-68.5 255.5q0 212 150.5 360t365.5 148q136 0 250.5 -62t185.5 -167l-215 -131q-37 53 -94 83.5t-125 30.5q-108 0 -182 -77.5t-74 -184.5q0 -108 74 -186t182 -78q71 0 130 33.5t95 91.5l213 -133q-69 -108 -186 -173t-254 -65z
" />
    <glyph glyph-name="uni0442" unicode="&#x442;" horiz-adv-x="921" 
d="M897 973v-242h-307v-731h-258v731h-305v242h870z" />
    <glyph glyph-name="uni0443" unicode="&#x443;" horiz-adv-x="1089" 
d="M788 973h279l-594 -1491h-258l199 500l-396 991h279l246 -660z" />
    <glyph glyph-name="uni0444" unicode="&#x444;" horiz-adv-x="1656" 
d="M1161 991q187 0 307.5 -144t120.5 -360t-120.5 -360.5t-307.5 -144.5q-130 0 -207 59v-559h-252v559q-77 -59 -206 -59q-123 0 -220.5 66.5t-151.5 182t-54 256.5q0 216 120 360t306 144q129 0 206 -59v584h252v-584q77 59 207 59zM530 223q67 0 104 19.5t68 58.5v371
q-31 39 -68 58.5t-104 19.5q-95 0 -149.5 -76t-54.5 -187q0 -112 54.5 -188t149.5 -76zM1126 223q95 0 150 76t55 188q0 111 -55 187t-150 76q-66 0 -103.5 -20t-68.5 -58v-371q31 -38 68.5 -58t103.5 -20z" />
    <glyph glyph-name="uni0445" unicode="&#x445;" horiz-adv-x="980" 
d="M979 0h-299l-193 291l-192 -291h-297l340 516l-301 457h299l166 -252l168 252h299l-318 -477z" />
    <glyph glyph-name="uni0446" unicode="&#x446;" horiz-adv-x="1236" 
d="M1008 242h188v-566h-252v324h-817v973h258v-731h365v731h258v-731z" />
    <glyph glyph-name="uni0447" unicode="&#x447;" horiz-adv-x="1105" 
d="M719 973h258v-973h-258v399q-99 -102 -277 -102q-167 0 -270.5 97.5t-103.5 275.5v303h258v-262q0 -90 46 -131t138 -41q97 0 153 52.5t56 141.5v240z" />
    <glyph glyph-name="uni0448" unicode="&#x448;" horiz-adv-x="1574" 
d="M1190 973h258v-973h-1321v973h258v-731h274v731h259v-731h272v731z" />
    <glyph glyph-name="uni0449" unicode="&#x449;" horiz-adv-x="1681" 
d="M1448 242h186v-566h-250v324h-1257v973h258v-731h274v731h259v-731h272v731h258v-731z" />
    <glyph glyph-name="uni044A" unicode="&#x44a;" horiz-adv-x="1171" 
d="M750 627q188 0 285.5 -85.5t97.5 -230.5q0 -142 -98 -226.5t-285 -84.5h-463v750h-260v223h510v-346h213zM774 221q48 0 75.5 26.5t27.5 65.5t-27.5 66t-75.5 27h-237v-185h237z" />
    <glyph glyph-name="uni044B" unicode="&#x44b;" horiz-adv-x="1581" 
d="M377 973v-346h213q188 0 285.5 -85.5t97.5 -230.5q0 -142 -98 -226.5t-285 -84.5h-463v973h250zM1452 973v-973h-258v973h258zM377 221h237q48 0 75.5 26.5t27.5 65.5t-27.5 66t-75.5 27h-237v-185z" />
    <glyph glyph-name="uni044C" unicode="&#x44c;" horiz-adv-x="1013" 
d="M377 973v-346h213q188 0 285.5 -85.5t97.5 -230.5q0 -142 -98 -226.5t-285 -84.5h-463v973h250zM377 221h237q48 0 75.5 26.5t27.5 65.5t-27.5 66t-75.5 27h-237v-185z" />
    <glyph glyph-name="uni044D" unicode="&#x44d;" horiz-adv-x="1060" 
d="M479 991q142 0 261.5 -67.5t188 -184.5t68.5 -256q0 -138 -68.5 -255.5t-188 -186t-261.5 -68.5q-137 0 -253 65t-185 173l211 131q36 -58 96 -91.5t131 -33.5q77 0 140 42.5t94 111.5h-260v229h258q-31 66 -94 107t-138 41q-68 0 -126 -31t-95 -84l-213 129
q71 105 185 167t249 62z" />
    <glyph glyph-name="uni044E" unicode="&#x44e;" horiz-adv-x="1564" 
d="M1024 991q210 0 343.5 -141.5t133.5 -366.5q0 -224 -134 -367t-343 -143q-185 0 -311 113t-154 299h-174v-385h-258v973h258v-346h182q38 167 161.5 265.5t295.5 98.5zM1024 219q98 0 156.5 72t58.5 192t-58.5 191t-156.5 71q-96 0 -153.5 -70.5t-57.5 -191.5
t57.5 -192.5t153.5 -71.5z" />
    <glyph glyph-name="uni044F" unicode="&#x44f;" horiz-adv-x="1050" 
d="M461 973h461v-973h-250v354h-113l-225 -354h-279l248 375q-113 30 -170 106t-57 185q0 140 98.5 223.5t286.5 83.5zM672 555v215h-201q-68 0 -103.5 -29.5t-35.5 -78.5q0 -51 35 -79t104 -28h201z" />
    <glyph glyph-name="uni0451" unicode="&#x451;" horiz-adv-x="1118" 
d="M348 1161q-70 0 -117 46t-47 116q0 69 47.5 114.5t116.5 45.5t115.5 -45.5t46.5 -114.5q0 -70 -46.5 -116t-115.5 -46zM803 1161q-70 0 -117 46t-47 116q0 69 47.5 114.5t116.5 45.5t115.5 -45.5t46.5 -114.5q0 -70 -46.5 -116t-115.5 -46zM561 991q153 0 267 -68
t172.5 -182.5t58.5 -257.5q0 -26 -4 -80h-733q22 -92 90 -146t172 -54q75 0 137 28.5t100 79.5l174 -139q-148 -199 -405 -199q-125 0 -226.5 43t-165.5 115.5t-98 163.5t-34 192q0 132 61.5 247t176.5 186t257 71zM326 588h477q-15 82 -74.5 127t-161.5 45
q-87 0 -151 -45.5t-90 -126.5z" />
    <glyph glyph-name="uni0452" unicode="&#x452;" horiz-adv-x="1183" 
d="M678 991q80 0 148 -24.5t123 -75t86.5 -138t31.5 -204.5v-699q0 -141 -76.5 -225t-214.5 -84q-46 0 -112 17v225q14 -2 38 -2q62 0 84.5 26t22.5 80v635q0 223 -193 223q-99 0 -149.5 -53.5t-50.5 -175.5v-516h-258v1124h-193v232h193v160h258v-160h325v-232h-325v-227
q101 94 262 94z" />
    <glyph glyph-name="uni0453" unicode="&#x453;" horiz-adv-x="856" 
d="M788 1307l-497 -199l-88 203l491 215zM831 973v-242h-446v-731h-258v973h704z" />
    <glyph glyph-name="uni04EE" unicode="&#x4ee;" horiz-adv-x="1386" 
d="M1141 1978v-231h-695v231h695zM1063 1516h319l-626 -1137q-128 -232 -250.5 -321t-306.5 -89v250q93 0 160 40t126 142l72 129l-524 986h317l348 -699z" />
    <glyph glyph-name="uni04EF" unicode="&#x4ef;" horiz-adv-x="1089" 
d="M895 1436v-232h-694v232h694zM788 973h279l-594 -1491h-258l199 500l-396 991h279l246 -660z" />
    <glyph glyph-name="Wgrave" unicode="&#x1e80;" horiz-adv-x="2109" 
d="M1352 1853l-90 -202l-498 198l96 219zM1798 1516h295l-473 -1516h-266l-299 1044l-299 -1044h-269l-471 1516h295l310 -1082l297 1082h274l297 -1080z" />
    <glyph glyph-name="wgrave" unicode="&#x1e81;" horiz-adv-x="1675" 
d="M1135 1311l-91 -203l-497 199l96 219zM1380 973h281l-348 -973h-273l-200 639l-203 -639h-272l-347 973h279l207 -654l203 654h266l203 -656z" />
    <glyph glyph-name="Wacute" unicode="&#x1e82;" horiz-adv-x="2109" 
d="M1352 1849l-498 -198l-90 202l491 215zM1798 1516h295l-473 -1516h-266l-299 1044l-299 -1044h-269l-471 1516h295l310 -1082l297 1082h274l297 -1080z" />
    <glyph glyph-name="wacute" unicode="&#x1e83;" horiz-adv-x="1675" 
d="M1133 1307l-498 -199l-90 203l491 215zM1380 973h281l-348 -973h-273l-200 639l-203 -639h-272l-347 973h279l207 -654l203 654h266l203 -656z" />
    <glyph glyph-name="Wdieresis" unicode="&#x1e84;" horiz-adv-x="2109" 
d="M811 1692q-74 0 -124 49.5t-50 122.5q0 72 50.5 122t123.5 50t123.5 -50t50.5 -122q0 -73 -50 -122.5t-124 -49.5zM1307 1692q-74 0 -125.5 49.5t-51.5 122.5q0 72 51.5 122t125.5 50q72 0 123 -50t51 -122q0 -73 -50.5 -122.5t-123.5 -49.5zM1798 1516h295l-473 -1516
h-266l-299 1044l-299 -1044h-269l-471 1516h295l310 -1082l297 1082h274l297 -1080z" />
    <glyph glyph-name="wdieresis" unicode="&#x1e85;" horiz-adv-x="1675" 
d="M606 1161q-69 0 -115.5 46t-46.5 116q0 69 46.5 114.5t115.5 45.5t116.5 -45.5t47.5 -114.5q0 -70 -47 -116t-117 -46zM1061 1161q-70 0 -117 46t-47 116q0 69 47.5 114.5t116.5 45.5t115.5 -45.5t46.5 -114.5q0 -70 -46.5 -116t-115.5 -46zM1380 973h281l-348 -973h-273
l-200 639l-203 -639h-272l-347 973h279l207 -654l203 654h266l203 -656z" />
    <glyph glyph-name="uni1E9E" unicode="&#x1e9e;" horiz-adv-x="1492" 
d="M1071 897q187 -88 269.5 -199t82.5 -266q0 -214 -131 -336.5t-364 -122.5q-230 0 -383 115l131 211q120 -76 256 -76q97 0 157 53t60 130q0 33 -6 60.5t-22.5 52.5t-33.5 44t-51.5 40t-62.5 36t-81 37t-92.5 37t-111.5 41v26l291 473h-539v-1253h-274v1516h1163v-205z
" />
    <glyph glyph-name="Ygrave" unicode="&#x1ef2;" horiz-adv-x="1425" 
d="M989 1853l-90 -202l-498 198l97 219zM1079 1516h318l-547 -850v-666h-275v664l-546 852h317l367 -582z" />
    <glyph glyph-name="ygrave" unicode="&#x1ef3;" horiz-adv-x="1089" 
d="M838 1311l-88 -203l-498 199l94 219zM788 973h279l-594 -1491h-258l199 500l-396 991h279l246 -660z" />
    <glyph glyph-name="uni1EF8" unicode="&#x1ef8;" horiz-adv-x="1425" 
d="M553 1812q-76 0 -76 -96h-192q0 144 64 225.5t188 81.5q61 0 122.5 -24t110 -48t76.5 -24q35 0 52 21.5t17 74.5h193q0 -143 -64 -225t-180 -82q-65 0 -128 24t-110 48t-73 24zM1079 1516h318l-547 -850v-666h-275v664l-546 852h317l367 -582z" />
    <glyph glyph-name="uni1EF9" unicode="&#x1ef9;" horiz-adv-x="1089" 
d="M401 1255q-75 0 -75 -96h-193q0 144 65 225.5t189 81.5q61 0 122.5 -24t110 -48t76.5 -24q36 0 53 21.5t17 74.5h192q0 -142 -64.5 -224.5t-180.5 -82.5q-63 0 -126.5 24t-111.5 48t-74 24zM788 973h279l-594 -1491h-258l199 500l-396 991h279l246 -660z" />
    <glyph glyph-name="endash" unicode="&#x2013;" horiz-adv-x="1372" 
d="M115 698h1145v-237h-1145v237z" />
    <glyph glyph-name="emdash" unicode="&#x2014;" horiz-adv-x="2283" 
d="M115 698h2056v-237h-2056v237z" />
    <glyph glyph-name="quoteleft" unicode="&#x2018;" horiz-adv-x="468" 
d="M246 1229q63 0 102 -40.5t39 -105.5t-42 -109t-107 -44q-78 0 -121 58t-43 153q0 145 88 259.5t194 119.5v-121q-48 0 -92.5 -46t-58.5 -130q18 6 41 6z" />
    <glyph glyph-name="quoteright" unicode="&#x2019;" horiz-adv-x="471" 
d="M242 1540q79 0 121.5 -58t42.5 -153q0 -146 -88 -260t-195 -119v119q48 0 92.5 46.5t58.5 131.5q-18 -6 -41 -6q-62 0 -101.5 40t-39.5 103q0 66 43 111t107 45z" />
    <glyph glyph-name="quotesinglbase" unicode="&#x201a;" horiz-adv-x="483" 
d="M236 276q79 0 121 -57t42 -153q0 -145 -88 -259.5t-194 -119.5v118q47 0 92 47t59 132q-21 -7 -41 -7q-62 0 -101.5 40.5t-39.5 103.5q0 66 43 110.5t107 44.5z" />
    <glyph glyph-name="quotedblleft" unicode="&#x201c;" horiz-adv-x="897" 
d="M246 1229q63 0 102 -40.5t39 -105.5t-42 -109t-107 -44q-78 0 -121 58t-43 153q0 145 88 259.5t194 119.5v-121q-48 0 -92.5 -46t-58.5 -130q18 6 41 6zM674 1229q63 0 102 -40.5t39 -105.5t-42 -109t-107 -44q-78 0 -121 58t-43 153q0 145 88 259.5t194 119.5v-121
q-48 0 -92.5 -46t-58.5 -130q18 6 41 6z" />
    <glyph glyph-name="quotedblright" unicode="&#x201d;" horiz-adv-x="899" 
d="M242 1540q79 0 121.5 -58t42.5 -153q0 -146 -88 -260t-195 -119v119q48 0 92.5 46.5t58.5 131.5q-18 -6 -41 -6q-62 0 -101.5 40t-39.5 103q0 66 43 111t107 45zM670 1540q79 0 121.5 -58t42.5 -153q0 -146 -88 -260t-195 -119v119q48 0 92.5 46.5t58.5 131.5
q-18 -6 -40 -6q-62 0 -102 40t-40 103q0 66 43 111t107 45z" />
    <glyph glyph-name="quotedblbase" unicode="&#x201e;" horiz-adv-x="913" 
d="M236 276q79 0 121 -57t42 -153q0 -145 -88 -259.5t-194 -119.5v118q47 0 92 47t59 132q-21 -7 -41 -7q-62 0 -101.5 40.5t-39.5 103.5q0 66 43 110.5t107 44.5zM664 276q79 0 121 -57t42 -153q0 -145 -88 -259.5t-194 -119.5v118q47 0 92 47t59 132q-21 -7 -41 -7
q-62 0 -101.5 40.5t-39.5 103.5q0 66 43 110.5t107 44.5z" />
    <glyph glyph-name="dagger" unicode="&#x2020;" horiz-adv-x="1079" 
d="M410 840h-359v231h359v445h262v-445h356v-231h-356v-1358h-262v1358z" />
    <glyph glyph-name="daggerdbl" unicode="&#x2021;" horiz-adv-x="1150" 
d="M444 23h-356v229h356v645h-356v229h356v390h263v-390h356v-229h-356v-645h356v-229h-356v-541h-263v541z" />
    <glyph glyph-name="bullet" unicode="&#x2022;" horiz-adv-x="827" 
d="M414 494q-115 0 -196 81t-81 197t81 197.5t198 81.5q114 0 194 -82.5t80 -196.5q0 -116 -80.5 -197t-195.5 -81z" />
    <glyph glyph-name="ellipsis" unicode="&#x2026;" horiz-adv-x="1568" 
d="M252 -14q-69 0 -115.5 45.5t-46.5 115.5q0 67 46.5 112.5t115.5 45.5q68 0 114 -45.5t46 -112.5q0 -70 -46 -115.5t-114 -45.5zM786 -14q-69 0 -115 45.5t-46 115.5q0 68 46 113t115 45q68 0 114 -45.5t46 -112.5q0 -70 -46 -115.5t-114 -45.5zM1321 -14
q-69 0 -115.5 45.5t-46.5 115.5q0 67 46.5 112.5t115.5 45.5q68 0 114 -45.5t46 -112.5q0 -70 -46 -115.5t-114 -45.5z" />
    <glyph glyph-name="perthousand" unicode="&#x2030;" horiz-adv-x="2635" 
d="M829 1174q0 -158 -114 -270.5t-273 -112.5t-273 112.5t-114 270.5t114 270t273 112t273 -112t114 -270zM1208 1516h226l-832 -1516h-225zM442 1016q64 0 109 46.5t45 111.5q0 66 -44.5 110.5t-109.5 44.5q-66 0 -109.5 -44.5t-43.5 -110.5q0 -65 44 -111.5t109 -46.5z
M1743 354q0 -158 -114 -270.5t-273 -112.5t-273 112.5t-114 270.5t114 270.5t273 112.5t273 -112.5t114 -270.5zM2580 354q0 -158 -114 -270.5t-273 -112.5t-273 112.5t-114 270.5t114 270.5t273 112.5t273 -112.5t114 -270.5zM1356 197q64 0 108.5 46t44.5 111t-44.5 110.5
t-108.5 45.5q-65 0 -109.5 -45.5t-44.5 -110.5t44.5 -111t109.5 -46zM2193 197q65 0 109.5 46t44.5 111t-44.5 110.5t-109.5 45.5q-64 0 -108.5 -45.5t-44.5 -110.5t44.5 -111t108.5 -46z" />
    <glyph glyph-name="guilsinglleft" unicode="&#x2039;" horiz-adv-x="679" 
d="M66 494l260 387h274l-254 -387l258 -392h-278z" />
    <glyph glyph-name="guilsinglright" unicode="&#x203a;" horiz-adv-x="679" 
d="M334 494l-254 387h274l260 -387l-260 -392h-278z" />
    <glyph glyph-name="fraction" unicode="&#x2044;" horiz-adv-x="942" 
d="M786 1516h205l-829 -1516h-203z" />
    <glyph glyph-name="Euro" unicode="&#x20ac;" horiz-adv-x="1294" 
d="M737 225q160 0 207 160h270q-28 -189 -152.5 -300.5t-324.5 -111.5q-118 0 -212 40t-153 111t-90.5 163t-33.5 200h-187l62 193h125v139h-146l62 191h84v8q0 109 31 203t90 166.5t153.5 113.5t214.5 41q200 0 324.5 -111t152.5 -298h-270q-47 157 -207 157
q-217 0 -223 -280h535l-64 -191h-471v-139h442l-61 -193h-381q13 -262 223 -262z" />
    <glyph glyph-name="uni20B4" unicode="&#x20b4;" horiz-adv-x="1351" 
d="M1286 1022l-61 -191h-1162l64 191h635q104 61 104 145q0 140 -209 140q-75 0 -155 -25t-142 -72l-141 207q221 129 447 129q215 0 344 -91.5t129 -248.5q0 -104 -56 -184h203zM63 500l64 190h1159l-61 -190h-637q-103 -62 -103 -146q0 -74 52.5 -106.5t154.5 -32.5
q76 0 156.5 24.5t142.5 71.5l142 -207q-219 -129 -447 -129q-215 0 -344 91.5t-129 248.5q0 105 53 185h-203z" />
    <glyph glyph-name="uni20B9" unicode="&#x20b9;" horiz-adv-x="1484" 
d="M973 1325q63 -63 82 -158h305l-62 -190h-243q-26 -164 -151 -257.5t-361 -94.5l626 -625h-381l-622 625v237h389q176 0 223 115h-612v190h608q-45 111 -219 111h-389v238h1194l-62 -191h-325z" />
    <glyph glyph-name="uni20BA" unicode="&#x20ba;" horiz-adv-x="1290" 
d="M895 758h266v-234q0 -234 -129.5 -379t-359.5 -145h-488v522l-166 -96v223l166 96v84l-166 -96v223l166 97v463h267v-310l325 189v-221l-325 -189v-84l325 189v-224l-325 -188v-426h221q223 0 223 295v211z" />
    <glyph glyph-name="uni20BD" unicode="&#x20bd;" horiz-adv-x="1368" 
d="M733 545h-213v-162h371v-193h-371v-190h-274v190h-158v193h158v162h-158v192h158v779h487q145 0 258 -39.5t181 -108t102.5 -154t34.5 -184.5t-34.5 -184.5t-102.5 -153.5t-181 -107.5t-258 -39.5zM520 1255v-471h213q153 0 228 66.5t75 167.5q0 102 -75 169.5t-228 67.5
h-213z" />
    <glyph glyph-name="trademark" unicode="&#x2122;" horiz-adv-x="1650" 
d="M262 1341h-201v175h596v-175h-198v-569h-197v569zM758 1516h200l172 -256l175 256h202v-744h-198v461l-142 -211h-71l-144 211v-461h-196z" />
    <glyph glyph-name="oneeighth" unicode="&#x215b;" horiz-adv-x="1699" 
d="M428 606h-199v729h-174v181h373v-910zM1081 1516h203l-827 -1516h-205zM1530 528q51 -43 77.5 -104.5t26.5 -126.5q0 -82 -37 -152t-114 -115.5t-180 -45.5q-150 0 -241 93t-91 220q0 66 29 129t83 106q-32 74 -32 138q0 106 71 181t178 75q109 0 182.5 -74.5
t73.5 -181.5q0 -66 -26 -142zM1300 750q-45 0 -74.5 -32.5t-29.5 -76.5q0 -30 8 -51q42 18 96 18q58 0 99 -18q8 18 8 51q0 45 -31 77t-76 32zM1303 137q66 0 106.5 46.5t40.5 113.5q0 68 -41.5 113t-105.5 45t-107 -46.5t-43 -111.5q0 -66 43.5 -113t106.5 -47z" />
    <glyph glyph-name="threeeighths" unicode="&#x215c;" horiz-adv-x="1896" 
d="M745 858q0 -123 -98 -205t-246 -82q-155 0 -248.5 90.5t-93.5 237.5h191q0 -62 40.5 -101.5t102.5 -39.5q68 0 106 34.5t38 92.5q0 56 -37.5 90.5t-100.5 34.5h-43v166h41q53 0 87 27t34 67t-27.5 66t-72.5 26t-74 -30.5t-29 -78.5h-194q0 123 85 200t220 77
q132 0 214.5 -66t82.5 -170q0 -71 -39 -124.5t-111 -79.5q83 -28 127.5 -88t44.5 -144zM1296 1516h205l-827 -1516h-205zM1747 528q51 -43 77.5 -104.5t26.5 -126.5q0 -82 -37 -152t-114 -115.5t-180 -45.5q-150 0 -242 93t-92 220q0 66 30 129t84 106q-32 78 -32 138
q0 106 71.5 181t178.5 75q109 0 182.5 -74.5t73.5 -181.5q0 -63 -27 -142zM1518 750q-45 0 -75 -32.5t-30 -76.5q0 -30 8 -51q42 18 97 18q58 0 98 -18q8 18 8 51q0 45 -30.5 77t-75.5 32zM1520 137q66 0 106.5 46.5t40.5 113.5q0 68 -41.5 113t-105.5 45t-107 -46.5
t-43 -111.5q0 -66 43.5 -113t106.5 -47z" />
    <glyph glyph-name="fiveeighths" unicode="&#x215d;" horiz-adv-x="1896" 
d="M717 895q0 -145 -86.5 -225t-233.5 -80q-277 0 -311 291h176q18 -125 139 -125q55 0 97.5 40t42.5 97q0 55 -36.5 96t-92.5 41q-88 0 -162 -47l-123 66l78 467h438l8 -152h-297l-30 -184q56 16 108 16q124 0 204.5 -85.5t80.5 -215.5zM1296 1516h205l-827 -1516h-205z
M1747 528q51 -43 77.5 -104.5t26.5 -126.5q0 -82 -37 -152t-114 -115.5t-180 -45.5q-150 0 -242 93t-92 220q0 66 30 129t84 106q-32 78 -32 138q0 106 71.5 181t178.5 75q109 0 182.5 -74.5t73.5 -181.5q0 -63 -27 -142zM1518 750q-45 0 -75 -32.5t-30 -76.5q0 -30 8 -51
q42 18 97 18q58 0 98 -18q8 18 8 51q0 45 -30.5 77t-75.5 32zM1520 137q66 0 106.5 46.5t40.5 113.5q0 68 -41.5 113t-105.5 45t-107 -46.5t-43 -111.5q0 -66 43.5 -113t106.5 -47z" />
    <glyph glyph-name="seveneighths" unicode="&#x215e;" horiz-adv-x="1734" 
d="M598 1516v-136l-315 -774h-189l307 762h-376v148h573zM1135 1516h204l-829 -1516h-203zM1587 528q50 -45 77.5 -106t27.5 -125q0 -128 -90 -220.5t-242 -92.5q-151 0 -242.5 93t-91.5 220q0 66 29.5 129.5t83.5 108.5q-33 76 -33 135q0 106 71.5 181t180.5 75
t181.5 -74.5t72.5 -181.5q0 -72 -25 -142zM1358 750q-46 0 -75.5 -32.5t-29.5 -76.5q0 -23 7 -51q42 18 98 18t96 -18q8 18 8 51q0 45 -29.5 77t-74.5 32zM1360 137q65 0 105 46.5t40 113.5q0 68 -40.5 113t-104.5 45t-108 -46.5t-44 -111.5q0 -66 44.5 -113t107.5 -47z" />
    <glyph glyph-name="arrowleft" unicode="&#x2190;" horiz-adv-x="1714" 
d="M1614 879v-242h-1055l371 -371h-336l-492 492l492 491h338l-373 -370h1055z" />
    <glyph glyph-name="arrowup" unicode="&#x2191;" horiz-adv-x="1185" 
d="M1085 1020v-336l-370 371v-1055h-244v1053l-369 -371v338l492 491z" />
    <glyph glyph-name="arrowright" unicode="&#x2192;" horiz-adv-x="1714" 
d="M1122 1249l492 -491l-492 -492h-338l371 371h-1053v242h1053l-373 370h340z" />
    <glyph glyph-name="arrowdown" unicode="&#x2193;" horiz-adv-x="1185" 
d="M715 457l370 370v-335l-491 -492l-492 492v337l369 -370v1052h244v-1054z" />
    <glyph glyph-name="uni2196" unicode="&#x2196;" horiz-adv-x="1357" 
d="M1257 350l-174 -170l-743 746v-527l-238 240v696h697l235 -239h-522z" />
    <glyph glyph-name="uni2197" unicode="&#x2197;" horiz-adv-x="1357" 
d="M561 1335h696v-696l-239 -238v525l-746 -746l-170 172l746 746l-526 -2z" />
    <glyph glyph-name="uni2198" unicode="&#x2198;" horiz-adv-x="1357" 
d="M1018 1114l239 -237v-697h-696l-239 240l526 -2l-746 745l170 172l746 -745v524z" />
    <glyph glyph-name="uni2199" unicode="&#x2199;" horiz-adv-x="1357" 
d="M1257 1163l-745 -745l524 2l-237 -240h-697v697l238 237v-524l745 745z" />
    <glyph glyph-name="minus" unicode="&#x2212;" horiz-adv-x="1386" 
d="M125 831h1139v-245h-1139v245z" />
    <glyph glyph-name="approxequal" unicode="&#x2248;" horiz-adv-x="1351" 
d="M137 780q0 167 84 263t238 96q82 0 161.5 -23t144 -46t112.5 -23q124 0 124 133h213q0 -166 -83 -262.5t-234 -96.5q-84 0 -164 23t-144 46t-110 23q-127 0 -127 -133h-215zM137 238q0 167 83.5 262.5t238.5 95.5q82 0 161.5 -23t144 -46t112.5 -23q124 0 124 133h213
q0 -166 -83 -262t-234 -96q-84 0 -164 23t-144 46t-110 23q-127 0 -127 -133h-215z" />
    <glyph glyph-name="notequal" unicode="&#x2260;" horiz-adv-x="1343" 
d="M1219 850h-369l-113 -283h482v-245h-580l-92 -232h-252l92 232h-262v245h360l113 283h-473v246h571l92 231h252l-92 -231h271v-246z" />
    <glyph glyph-name="uniF8FF" unicode="&#xf8ff;" horiz-adv-x="1830" 
d="M1251 1468v-245h-503v-387q70 -25 156.5 -69.5t160.5 -86.5t154 -81.5t165.5 -64t165.5 -24.5q24 0 48 2t36 4l13 2q-2 -3 -5.5 -7t-19.5 -15.5t-36.5 -20t-57 -15.5t-80.5 -7q-153 0 -327 64t-373 167v-684h-259v791q-49 20 -106 20q-69 0 -114.5 -30t-45.5 -87
q0 -40 21 -72t55 -44q-54 3 -84.5 37.5t-30.5 91.5q0 82 68.5 133t189.5 51q29 0 47 -4v581h762z" />
    <glyph glyph-name="uni00A40301" horiz-adv-x="610" 
d="M84 1651l-88 202l491 215l95 -219zM-80 -459v250q64 8 106 29t73 65.5t45 118t14 184.5v1328h274v-1326q0 -325 -116 -475.5t-396 -173.5z" />
    <glyph glyph-name="W.ss01" horiz-adv-x="2097" 
d="M1790 1516h295l-590 -1516h-266l-182 461l-181 -461h-266l-596 1516h295l442 -1164l154 402l-301 762h293l162 -424l159 424h291l-299 -773l150 -393z" />
    <glyph glyph-name="Wacute.ss01" horiz-adv-x="2097" 
d="M1352 1849l-496 -198l-90 202l491 215zM1790 1516h295l-590 -1516h-266l-182 461l-181 -461h-266l-596 1516h295l442 -1164l154 402l-301 762h293l162 -424l159 424h291l-299 -773l150 -393z" />
    <glyph glyph-name="Wcircumflex.ss01" horiz-adv-x="2097" 
d="M1061 1827l-268 -176l-121 182l344 235h88l344 -235l-121 -182zM1790 1516h295l-590 -1516h-266l-182 461l-181 -461h-266l-596 1516h295l442 -1164l154 402l-301 762h293l162 -424l159 424h291l-299 -773l150 -393z" />
    <glyph glyph-name="Wdieresis.ss01" horiz-adv-x="2097" 
d="M813 1692q-74 0 -124 49.5t-50 122.5q0 72 50.5 122t123.5 50t123.5 -50t50.5 -122q0 -73 -50 -122.5t-124 -49.5zM1307 1692q-73 0 -123.5 49.5t-50.5 122.5q0 72 51 122t123 50q74 0 125 -50t51 -122q0 -73 -51 -122.5t-125 -49.5zM1790 1516h295l-590 -1516h-266
l-182 461l-181 -461h-266l-596 1516h295l442 -1164l154 402l-301 762h293l162 -424l159 424h291l-299 -773l150 -393z" />
    <glyph glyph-name="Wgrave.ss01" horiz-adv-x="2097" 
d="M1352 1853l-88 -202l-498 198l94 219zM1790 1516h295l-590 -1516h-266l-182 461l-181 -461h-266l-596 1516h295l442 -1164l154 402l-301 762h293l162 -424l159 424h291l-299 -773l150 -393z" />
    <glyph glyph-name="i.loclTRK" horiz-adv-x="514" 
d="M270 1171q-69 0 -116.5 47t-47.5 117q0 67 47.5 113.5t116.5 46.5q68 0 114 -46.5t46 -113.5q0 -70 -46 -117t-114 -47zM109 973h258v-973h-258v973z" />
    <glyph glyph-name="uni006A0301" horiz-adv-x="528" 
d="M-33 1311l492 215l96 -219l-498 -199zM111 973h258v-1491h-258v1491z" />
    <glyph glyph-name="g.ss01" horiz-adv-x="1077" 
d="M1018 973v-197h-107q62 -105 62 -225t-58.5 -221t-160.5 -158q99 -47 156 -130.5t57 -191.5q0 -166 -124 -273t-323 -107t-322.5 107t-123.5 273q0 108 57 191.5t156 130.5q-102 57 -160.5 158t-58.5 221q0 119 56.5 219t160.5 160.5t235 60.5q70 0 135 -18h363zM520 748
q-88 0 -144.5 -59t-56.5 -140q0 -82 56.5 -142.5t144.5 -60.5q87 0 143 60.5t56 142.5t-56 140.5t-143 58.5zM520 -285q74 0 121 41t47 105t-48.5 105.5t-119.5 41.5q-73 0 -121.5 -41.5t-48.5 -105.5t47 -105t123 -41z" />
    <glyph glyph-name="gbreve.ss01" horiz-adv-x="1077" 
d="M524 1108q-166 0 -271.5 112t-105.5 285h218q0 -81 40.5 -127.5t118.5 -46.5q80 0 121 46t41 128h215q0 -173 -105.5 -285t-271.5 -112zM1018 973v-197h-107q62 -105 62 -225t-58.5 -221t-160.5 -158q99 -47 156 -130.5t57 -191.5q0 -166 -124 -273t-323 -107t-322.5 107
t-123.5 273q0 108 57 191.5t156 130.5q-102 57 -160.5 158t-58.5 221q0 119 56.5 219t160.5 160.5t235 60.5q70 0 135 -18h363zM520 748q-88 0 -144.5 -59t-56.5 -140q0 -82 56.5 -142.5t144.5 -60.5q87 0 143 60.5t56 142.5t-56 140.5t-143 58.5zM520 -285q74 0 121 41
t47 105t-48.5 105.5t-119.5 41.5q-73 0 -121.5 -41.5t-48.5 -105.5t47 -105t123 -41z" />
    <glyph glyph-name="uni0123.ss01" horiz-adv-x="1077" 
d="M528 1118q-64 0 -105.5 46.5t-41.5 123.5q0 181 219 311l62 -79q-69 -34 -103.5 -77.5t-34.5 -80.5q12 4 35 4q43 0 77 -33.5t34 -81.5q0 -55 -41.5 -94t-100.5 -39zM1018 973v-197h-107q62 -105 62 -225t-58.5 -221t-160.5 -158q99 -47 156 -130.5t57 -191.5
q0 -166 -124 -273t-323 -107t-322.5 107t-123.5 273q0 108 57 191.5t156 130.5q-102 57 -160.5 158t-58.5 221q0 119 56.5 219t160.5 160.5t235 60.5q70 0 135 -18h363zM520 748q-88 0 -144.5 -59t-56.5 -140q0 -82 56.5 -142.5t144.5 -60.5q87 0 143 60.5t56 142.5
t-56 140.5t-143 58.5zM520 -285q74 0 121 41t47 105t-48.5 105.5t-119.5 41.5q-73 0 -121.5 -41.5t-48.5 -105.5t47 -105t123 -41z" />
    <glyph glyph-name="gdotaccent.ss01" horiz-adv-x="1077" 
d="M532 1171q-69 0 -115 47t-46 117q0 68 46 114t115 46q68 0 115 -46.5t47 -113.5q0 -70 -47 -117t-115 -47zM1018 973v-197h-107q62 -105 62 -225t-58.5 -221t-160.5 -158q99 -47 156 -130.5t57 -191.5q0 -166 -124 -273t-323 -107t-322.5 107t-123.5 273q0 108 57 191.5
t156 130.5q-102 57 -160.5 158t-58.5 221q0 119 56.5 219t160.5 160.5t235 60.5q70 0 135 -18h363zM520 748q-88 0 -144.5 -59t-56.5 -140q0 -82 56.5 -142.5t144.5 -60.5q87 0 143 60.5t56 142.5t-56 140.5t-143 58.5zM520 -285q74 0 121 41t47 105t-48.5 105.5
t-119.5 41.5q-73 0 -121.5 -41.5t-48.5 -105.5t47 -105t123 -41z" />
    <glyph glyph-name="g.ss02" horiz-adv-x="1021" 
d="M969 973v-193h-92q53 -92 53 -205q0 -171 -120.5 -292t-305.5 -121q-58 0 -107 12q-26 -5 -37.5 -18t-11.5 -41q0 -27 15.5 -44t42.5 -20q55 10 106 10q177 0 283 -84t106 -208q0 -127 -103.5 -212t-285.5 -85t-285.5 85t-103.5 212q0 107 82 186q-41 33 -59.5 68
t-18.5 86q0 102 80 165q-129 120 -129 301q0 172 120.5 294t305.5 122q70 0 131 -18h334zM504 391q81 0 132.5 55.5t51.5 131.5t-51.5 130t-132.5 54t-133 -54t-52 -130t52 -131.5t133 -55.5zM657 -231q0 84 -145 84t-145 -84q0 -38 34.5 -62t110.5 -24t110.5 24t34.5 62z
" />
    <glyph glyph-name="gbreve.ss.ss02" horiz-adv-x="1021" 
d="M516 1108q-166 0 -271.5 112t-105.5 285h215q0 -82 41 -128t121 -46q78 0 119 46.5t41 127.5h217q0 -172 -106 -284.5t-271 -112.5zM969 973v-193h-92q53 -92 53 -205q0 -171 -120.5 -292t-305.5 -121q-58 0 -107 12q-26 -5 -37.5 -18t-11.5 -41q0 -27 15.5 -44t42.5 -20
q55 10 106 10q177 0 283 -84t106 -208q0 -127 -103.5 -212t-285.5 -85t-285.5 85t-103.5 212q0 107 82 186q-41 33 -59.5 68t-18.5 86q0 102 80 165q-129 120 -129 301q0 172 120.5 294t305.5 122q70 0 131 -18h334zM504 391q81 0 132.5 55.5t51.5 131.5t-51.5 130
t-132.5 54t-133 -54t-52 -130t52 -131.5t133 -55.5zM657 -231q0 84 -145 84t-145 -84q0 -38 34.5 -62t110.5 -24t110.5 24t34.5 62z" />
    <glyph glyph-name="uni0123.ss.ss02" horiz-adv-x="1021" 
d="M518 1118q-63 0 -105 47t-42 123q0 182 221 311l59 -79q-69 -34 -103 -77.5t-34 -80.5q12 4 35 4q43 0 76.5 -33.5t33.5 -81.5q0 -55 -41 -94t-100 -39zM969 973v-193h-92q53 -92 53 -205q0 -171 -120.5 -292t-305.5 -121q-58 0 -107 12q-26 -5 -37.5 -18t-11.5 -41
q0 -27 15.5 -44t42.5 -20q55 10 106 10q177 0 283 -84t106 -208q0 -127 -103.5 -212t-285.5 -85t-285.5 85t-103.5 212q0 107 82 186q-41 33 -59.5 68t-18.5 86q0 102 80 165q-129 120 -129 301q0 172 120.5 294t305.5 122q70 0 131 -18h334zM504 391q81 0 132.5 55.5
t51.5 131.5t-51.5 130t-132.5 54t-133 -54t-52 -130t52 -131.5t133 -55.5zM657 -231q0 84 -145 84t-145 -84q0 -38 34.5 -62t110.5 -24t110.5 24t34.5 62z" />
    <glyph glyph-name="gdotaccent.ss.ss02" horiz-adv-x="1021" 
d="M524 1171q-70 0 -117 46.5t-47 117.5q0 68 47 114t117 46q68 0 114 -46.5t46 -113.5q0 -70 -46 -117t-114 -47zM969 973v-193h-92q53 -92 53 -205q0 -171 -120.5 -292t-305.5 -121q-58 0 -107 12q-26 -5 -37.5 -18t-11.5 -41q0 -27 15.5 -44t42.5 -20q55 10 106 10
q177 0 283 -84t106 -208q0 -127 -103.5 -212t-285.5 -85t-285.5 85t-103.5 212q0 107 82 186q-41 33 -59.5 68t-18.5 86q0 102 80 165q-129 120 -129 301q0 172 120.5 294t305.5 122q70 0 131 -18h334zM504 391q81 0 132.5 55.5t51.5 131.5t-51.5 130t-132.5 54t-133 -54
t-52 -130t52 -131.5t133 -55.5zM657 -231q0 84 -145 84t-145 -84q0 -38 34.5 -62t110.5 -24t110.5 24t34.5 62z" />
    <glyph glyph-name="zero.osf" horiz-adv-x="1189" 
d="M594 -27q-106 0 -202 40.5t-164.5 109t-109 162.5t-40.5 198q0 139 68 256t187 184.5t261 67.5q143 0 262 -67.5t187.5 -184.5t68.5 -256q0 -104 -40.5 -198t-109 -162.5t-165 -109t-203.5 -40.5zM594 219q110 0 188 78t78 186q0 106 -78 184t-188 78q-108 0 -186 -78
t-78 -184q0 -108 78 -186t186 -78z" />
    <glyph glyph-name="one.osf" horiz-adv-x="684" 
d="M283 733h-230v240h488v-973h-258v733z" />
    <glyph glyph-name="two.osf" horiz-adv-x="894" 
d="M369 209l438 10v-219h-717v240q232 104 349.5 216t117.5 201q0 54 -30.5 80.5t-77.5 26.5q-54 0 -93.5 -38.5t-40.5 -119.5h-227q0 167 94 276t271 109q160 0 250 -87.5t90 -225.5q0 -51 -12.5 -99.5t-43 -102t-77.5 -100t-121.5 -90.5t-169.5 -77z" />
    <glyph glyph-name="three.osf" horiz-adv-x="1003" 
d="M719 362q205 -85 205 -307q0 -189 -129.5 -304.5t-323.5 -115.5q-97 0 -176 32t-130.5 87.5t-81.5 127.5t-36 155h252q30 -166 184 -166q89 0 138 52.5t49 125.5q0 76 -52.5 131.5t-144.5 55.5h-53v237h55q79 0 121.5 44t42.5 104q0 58 -37.5 99.5t-103.5 41.5
q-71 0 -109.5 -46t-40.5 -108h-252q6 170 107.5 276.5t285.5 106.5q185 0 293.5 -102.5t108.5 -253.5q0 -191 -172 -273z" />
    <glyph glyph-name="four.osf" horiz-adv-x="1064" 
d="M997 238v-238h-155v-344h-258v344h-535v246l531 727h262v-735h155zM324 238h260v374z" />
    <glyph glyph-name="five.osf" horiz-adv-x="1042" 
d="M571 578q80 0 148 -24.5t116 -67.5t81.5 -100t50 -122t16.5 -135q0 -74 -19 -145t-57.5 -134t-92.5 -111t-129.5 -76t-162.5 -28q-196 0 -331 128t-146 317h225q16 -95 72 -149t154 -54q104 0 168.5 63t64.5 164q0 102 -63 167t-162 65q-54 0 -105.5 -18t-83.5 -52
l-170 103l103 604h602v-240h-369l-35 -180q61 25 125 25z" />
    <glyph glyph-name="six.osf" horiz-adv-x="1060" 
d="M561 872q183 0 313 -129t130 -313q0 -187 -134.5 -322t-332.5 -135q-195 0 -328 135t-133 322q0 137 90 303l340 623h278l-266 -488q28 4 43 4zM539 219q93 0 154 63t61 148t-61 148t-154 63q-89 0 -150 -63.5t-61 -147.5t61 -147.5t150 -63.5z" />
    <glyph glyph-name="seven.osf" horiz-adv-x="931" 
d="M31 973h858v-232l-471 -1085h-266l471 1077h-592v240z" />
    <glyph glyph-name="eight.osf" horiz-adv-x="1116" 
d="M858 815q85 -66 133.5 -162.5t48.5 -208.5q0 -128 -64 -236.5t-175 -171.5t-244 -63q-199 0 -339 138t-140 333q0 112 48.5 209.5t133.5 163.5q-70 85 -70 201q0 152 107 257t260 105q157 0 264 -105t107 -257q0 -118 -70 -203zM557 1145q-51 0 -88 -37.5t-37 -89.5
q0 -65 55 -107q40 7 70 7t74 -7q55 39 55 107q0 53 -37 90t-92 37zM557 219q95 0 164.5 67t69.5 158q0 92 -69 160t-165 68q-92 0 -159.5 -68.5t-67.5 -159.5t67.5 -158t159.5 -67z" />
    <glyph glyph-name="nine.osf" horiz-adv-x="1052" 
d="M524 991q130 0 237 -62.5t166.5 -167t59.5 -226.5q0 -134 -92 -304l-340 -622h-279l269 487q-28 -4 -45 -4q-183 0 -313 129.5t-130 313.5q0 187 134.5 321.5t332.5 134.5zM522 324q89 0 150 63.5t61 147.5t-61 147t-150 63q-92 0 -152.5 -62.5t-60.5 -147.5t60.5 -148
t152.5 -63z" />
    <glyph glyph-name="zero.tf" 
d="M614 -27q-119 0 -213 41.5t-153 113.5t-90 166.5t-31 203.5v520q0 109 31 203t90 166t153 113.5t213 41.5q230 0 359 -145t129 -379v-520q0 -154 -56 -271.5t-167.5 -185.5t-264.5 -68zM614 225q224 0 224 295v475q0 295 -224 295q-223 0 -223 -295v-475q0 -295 223 -295
z" />
    <glyph glyph-name="one.tf" 
d="M537 1253h-242v263h516v-1516h-274v1253z" />
    <glyph glyph-name="two.tf" 
d="M815 567l-313 -305h583v-262h-948v264l381 371q158 155 225.5 262t67.5 201q0 87 -50.5 139.5t-142.5 52.5q-87 0 -145.5 -50t-81.5 -144h-262q33 220 166 333t330 113q199 0 329.5 -117t130.5 -323q0 -126 -67 -265t-203 -270z" />
    <glyph glyph-name="three.tf" 
d="M848 813q242 -110 242 -379q0 -201 -137 -331t-347 -130q-225 0 -354.5 126t-147.5 339h263q32 -213 237 -213q104 0 156.5 65t52.5 159q0 96 -63.5 167.5t-167.5 71.5h-70v254h66q94 0 147 52.5t53 131.5q0 71 -41 117.5t-123 46.5q-91 0 -137 -53t-51 -137h-262
q3 94 33 173.5t85 140t141 94.5t195 34q106 0 190.5 -32.5t137 -89t80 -128.5t27.5 -155q0 -225 -205 -324z" />
    <glyph glyph-name="four.tf" 
d="M1141 481v-241h-156v-240h-266v240h-668v233l682 1043h252v-1035h156zM342 481h377v582z" />
    <glyph glyph-name="five.tf" 
d="M645 1012q206 0 344.5 -143.5t138.5 -366.5q0 -151 -68 -272.5t-187 -189t-267 -67.5q-210 0 -355 132t-167 335h262q3 -30 18 -64t42.5 -70t79 -59.5t116.5 -23.5q122 0 192 76.5t70 200.5q0 133 -78.5 204.5t-189.5 71.5q-131 0 -229 -88l-193 154l117 674h766
l-21 -250h-528l-55 -293q79 39 192 39z" />
    <glyph glyph-name="six.tf" 
d="M647 946q199 0 339 -139.5t140 -339.5q0 -131 -64.5 -244t-181.5 -181.5t-259 -68.5q-141 0 -257.5 68.5t-181.5 181.5t-65 244q0 139 86 299l393 750h301l-303 -574q32 4 53 4zM621 219q107 0 178 74.5t71 173.5t-71 173.5t-178 74.5q-106 0 -177 -75t-71 -173t71 -173
t177 -75z" />
    <glyph glyph-name="seven.tf" 
d="M117 1516h989v-261l-594 -1255h-299l604 1253h-700v263z" />
    <glyph glyph-name="eight.tf" 
d="M948 911q94 -73 147.5 -180t53.5 -231q0 -143 -71 -264.5t-194.5 -192t-271.5 -70.5q-147 0 -270 70.5t-193.5 192t-70.5 264.5q0 126 54 233.5t149 179.5q-80 92 -80 224q0 170 120 287.5t291 117.5q172 0 293 -117.5t121 -287.5q0 -130 -78 -226zM612 1292
q-63 0 -109 -46.5t-46 -110.5q0 -69 53 -119q55 10 102 10t105 -10q55 52 55 119q0 65 -47 111t-113 46zM612 219q118 0 200.5 83t82.5 198q0 114 -83 197t-200 83q-115 0 -197.5 -83.5t-82.5 -196.5q0 -114 82.5 -197.5t197.5 -83.5z" />
    <glyph glyph-name="nine.tf" 
d="M608 1542q141 0 257.5 -68t181.5 -181t65 -244q0 -132 -86 -297l-395 -752h-301l305 573q-36 -4 -53 -4q-198 0 -339 140.5t-141 339.5q0 98 38.5 188.5t105 157.5t161 107t201.5 40zM608 803q106 0 177 74t71 172t-71 172.5t-177 74.5q-107 0 -178.5 -74.5t-71.5 -172.5
t71.5 -172t178.5 -74z" />
    <glyph glyph-name="zero.tosf" 
d="M612 -27q-106 0 -202 40.5t-164.5 109t-109 162.5t-40.5 198q0 139 68 256t187 184.5t261 67.5q143 0 262 -67.5t187.5 -184.5t68.5 -256q0 -104 -40.5 -198t-109 -162.5t-165 -109t-203.5 -40.5zM612 219q110 0 188.5 78t78.5 186q0 106 -78.5 184t-188.5 78
q-108 0 -186 -78t-78 -184q0 -108 78 -186t186 -78z" />
    <glyph glyph-name="one.tosf" 
d="M555 733h-227v240h485v-973h-258v733z" />
    <glyph glyph-name="two.tosf" 
d="M535 209l440 10v-219h-719v240q233 104 351 216t118 201q0 54 -31 80.5t-78 26.5q-56 0 -94 -38t-39 -120h-229q0 108 39 193t123.5 138.5t204.5 53.5q159 0 249.5 -88t90.5 -225q0 -64 -21.5 -126t-68 -125.5t-132.5 -120t-204 -97.5z" />
    <glyph glyph-name="three.tosf" 
d="M831 362q205 -85 205 -307q0 -189 -130 -304.5t-324 -115.5q-96 0 -175 32t-130.5 87.5t-82 127.5t-36.5 155h254q30 -166 182 -166q90 0 138 52.5t48 125.5q0 76 -51.5 131.5t-144.5 55.5h-54v237h58q78 0 120 44t42 104q0 58 -37 99.5t-103 41.5q-71 0 -110 -46
t-41 -108h-250q5 169 106 276t287 107q185 0 293.5 -102.5t108.5 -253.5q0 -190 -173 -273z" />
    <glyph glyph-name="four.tosf" 
d="M1079 238v-238h-155v-344h-258v344h-535v246l531 727h262v-735h155zM406 238h260v374z" />
    <glyph glyph-name="five.tosf" 
d="M664 578q99 0 179 -37.5t129 -101.5t75 -143t26 -167q0 -93 -30.5 -180.5t-86.5 -158t-145 -113t-197 -42.5q-196 0 -331 128t-146 317h225q16 -95 72 -149t154 -54q104 0 168.5 63t64.5 164q0 102 -63 167t-162 65q-53 0 -104.5 -18t-83.5 -52l-172 103l102 604h604
v-240h-369l-36 -180q61 25 127 25z" />
    <glyph glyph-name="six.tosf" 
d="M645 872q183 0 312.5 -129t129.5 -313q0 -187 -134 -322t-332 -135q-130 0 -237 63t-166.5 167.5t-59.5 226.5q0 138 92 303l340 623h276l-266 -488q28 4 45 4zM623 219q92 0 152.5 63t60.5 148t-60.5 148t-152.5 63q-89 0 -151 -63.5t-62 -147.5t62 -147.5t151 -63.5z
" />
    <glyph glyph-name="seven.tosf" 
d="M180 973h856v-232l-471 -1085h-264l471 1077h-592v240z" />
    <glyph glyph-name="eight.tosf" 
d="M915 815q85 -66 134 -162.5t49 -208.5q0 -195 -141.5 -333t-342.5 -138q-199 0 -340 138t-141 333q0 112 48.5 209t133.5 164q-69 87 -69 201q0 152 107.5 257t260.5 105q155 0 263 -105t108 -257q0 -118 -70 -203zM614 1145q-52 0 -88.5 -37t-36.5 -90q0 -63 54 -107
q40 7 71 7q30 0 74 -7q55 42 55 107q0 53 -37 90t-92 37zM614 219q95 0 163.5 67t68.5 158t-68.5 159.5t-163.5 68.5q-92 0 -159.5 -68.5t-67.5 -159.5t67.5 -158t159.5 -67z" />
    <glyph glyph-name="nine.tosf" 
d="M612 991q130 0 237 -62.5t166.5 -167t59.5 -226.5q0 -134 -92 -304l-340 -622h-278l266 487q-28 -4 -43 -4q-183 0 -313 129.5t-130 313.5q0 187 134.5 321.5t332.5 134.5zM610 324q89 0 150 63.5t61 147.5t-61 147t-150 63q-93 0 -154 -63t-61 -147q0 -85 61 -148
t154 -63z" />
    <glyph glyph-name="zero.numr" horiz-adv-x="745" 
d="M371 590q-133 0 -218 80t-85 211v360q0 131 85 211t218 80q137 0 222 -82t85 -209v-360q0 -127 -85 -209t-222 -82zM375 758q48 0 86.5 30t38.5 95v356q0 65 -38.5 95t-86.5 30q-51 0 -89 -31.5t-38 -93.5v-356q0 -63 38.5 -94t88.5 -31z" />
    <glyph glyph-name="one.numr" horiz-adv-x="458" 
d="M184 1358h-151v158h332v-910h-181v752z" />
    <glyph glyph-name="two.numr" horiz-adv-x="722" 
d="M53 772l305 287q59 55 83 98t24 88q0 47 -29 78t-82 31q-54 0 -82 -33t-30 -88h-197q0 138 89 217.5t228 79.5q142 0 225 -80.5t83 -196.5q0 -80 -38 -152.5t-126 -152.5l-176 -162h334v-180h-611v166z" />
    <glyph glyph-name="three.numr" horiz-adv-x="706" 
d="M535 1077q24 -15 40 -28.5t37 -38t32 -60.5t11 -82q0 -133 -83 -205.5t-224 -72.5q-62 0 -114.5 16t-96 50t-70.5 92t-32 135h182q2 -55 38.5 -90t96.5 -35q56 0 92.5 26.5t36.5 83.5q0 60 -36 91.5t-105 31.5h-76v152h58q72 0 109.5 29.5t37.5 82.5q0 54 -31.5 81.5
t-81.5 27.5q-47 0 -79.5 -27.5t-38.5 -83.5l-183 2q12 133 95 205t210 72q121 0 203 -61.5t82 -182.5q0 -143 -110 -211z" />
    <glyph glyph-name="four.numr" horiz-adv-x="743" 
d="M700 909v-149h-100v-154h-170v154h-407v145l368 611h209v-607h100zM190 909h240v377z" />
    <glyph glyph-name="five.numr" horiz-adv-x="710" 
d="M381 1196q124 0 204.5 -85.5t80.5 -215.5q0 -145 -86.5 -225t-233.5 -80q-277 0 -311 291h174q20 -125 141 -125q57 0 98 37t41 100q0 59 -35 98t-94 39q-84 0 -161 -47l-123 66l78 467h458l-12 -152h-297l-31 -184q56 16 109 16z" />
    <glyph glyph-name="six.numr" horiz-adv-x="733" 
d="M393 1196q133 0 217 -83t84 -214q0 -126 -89.5 -214.5t-235.5 -88.5q-147 0 -235.5 83.5t-88.5 205.5q0 94 66 223l221 408h205l-172 -320h28zM369 748q67 0 112 44.5t45 110.5q0 64 -45.5 108t-111.5 44t-112 -44t-46 -108q0 -66 45.5 -110.5t112.5 -44.5z" />
    <glyph glyph-name="seven.numr" horiz-adv-x="626" 
d="M25 1516h573v-136l-315 -774h-189l307 762h-376v148z" />
    <glyph glyph-name="eight.numr" horiz-adv-x="753" 
d="M606 1135q50 -45 77.5 -106.5t27.5 -125.5q0 -129 -89.5 -221t-242.5 -92q-152 0 -243 92.5t-91 220.5q0 66 29.5 129.5t83.5 108.5q-33 76 -33 135q0 106 71.5 181t180.5 75t181.5 -74.5t72.5 -181.5q0 -71 -25 -141zM377 1356q-46 0 -76.5 -32.5t-30.5 -76.5
q0 -27 9 -51q42 18 98 18q55 0 96 -18q8 18 8 51q0 45 -29.5 77t-74.5 32zM379 743q64 0 104.5 47t40.5 113q0 68 -40.5 113t-104.5 45t-108 -46.5t-44 -111.5q0 -66 44.5 -113t107.5 -47z" />
    <glyph glyph-name="nine.numr" horiz-adv-x="731" 
d="M362 1532q147 0 236.5 -83.5t89.5 -205.5q0 -103 -74 -225l-239 -412h-205l195 338h-27q-131 0 -215 81t-84 204q0 125 88.5 214t234.5 89zM362 1071q66 0 112 45t46 109q0 66 -45.5 110.5t-112.5 44.5q-66 0 -110.5 -44.5t-44.5 -110.5q0 -64 45 -109t110 -45z" />
    <glyph glyph-name="period.tf" horiz-adv-x="614" 
d="M309 -14q-69 0 -115.5 45.5t-46.5 115.5q0 67 46.5 112.5t115.5 45.5q68 0 114 -45.5t46 -112.5q0 -70 -46 -115.5t-114 -45.5z" />
    <glyph glyph-name="comma.tf" horiz-adv-x="614" 
d="M303 305q81 0 126.5 -61t45.5 -160q0 -154 -95.5 -273t-219.5 -124v127q60 0 110 47t64 135q-24 -4 -41 -4q-66 0 -107 42.5t-41 110.5t44 114t114 46z" />
    <glyph glyph-name="colon.tf" horiz-adv-x="614" 
d="M309 633q-69 0 -115.5 45.5t-46.5 114.5t46.5 114t115.5 45q68 0 114 -45t46 -114t-46 -114.5t-114 -45.5zM309 -14q-69 0 -115.5 45.5t-46.5 115.5q0 67 46.5 112.5t115.5 45.5q68 0 114 -45.5t46 -112.5q0 -70 -46 -115.5t-114 -45.5z" />
    <glyph glyph-name="semicolon.tf" horiz-adv-x="614" 
d="M305 633q-69 0 -115.5 45.5t-46.5 114.5t46.5 114t115.5 45q68 0 114 -45t46 -114t-46 -114.5t-114 -45.5zM301 305q81 0 126.5 -61t45.5 -160q0 -154 -95.5 -273t-219.5 -124v127q60 0 110 47t64 135q-24 -4 -41 -4q-65 0 -106.5 43t-41.5 110q0 68 45 114t113 46z" />
    <glyph glyph-name="slash.tf" horiz-adv-x="614" 
d="M395 1516h260l-434 -1516h-260z" />
    <glyph glyph-name="backslash.tf" horiz-adv-x="614" 
d="M221 1516l434 -1516h-260l-434 1516h260z" />
    <glyph glyph-name="parenleft.case" horiz-adv-x="739" 
d="M612 -209q-255 151 -397.5 407t-142.5 566q0 316 141.5 570.5t398.5 402.5l117 -189q-182 -128 -284.5 -336.5t-102.5 -447.5q0 -233 103 -443t284 -341z" />
    <glyph glyph-name="parenright.case" horiz-adv-x="739" 
d="M10 -20q181 131 284 341t103 443q0 238 -102.5 447t-284.5 337l117 189q257 -148 399 -402.5t142 -570.5q0 -310 -142.5 -566t-398.5 -407z" />
    <glyph glyph-name="braceleft.case" horiz-adv-x="800" 
d="M25 858q129 4 186 61.5t57 180.5v342q0 121 73 194.5t185 73.5h226v-227h-105q-108 0 -108 -135v-285q0 -121 -65 -206t-195 -112q130 -27 195 -111.5t65 -205.5v-285q0 -135 108 -135h105v-227h-226q-112 0 -185 73.5t-73 194.5v342q0 122 -56.5 178t-186.5 60v229z" />
    <glyph glyph-name="braceright.case" horiz-adv-x="800" 
d="M778 629q-130 -4 -186.5 -60t-56.5 -178v-342q0 -121 -74 -194.5t-187 -73.5h-225v227h105q108 0 108 135v285q0 121 65 205.5t195 111.5q-130 27 -195 112t-65 206v285q0 135 -108 135h-105v227h225q113 0 187 -73.5t74 -194.5v-342q0 -124 56.5 -181t186.5 -61v-229z
" />
    <glyph glyph-name="bracketleft.case" horiz-adv-x="778" 
d="M160 1712h579v-227h-307v-1475h307v-227h-579v1929z" />
    <glyph glyph-name="bracketright.case" horiz-adv-x="778" 
d="M39 10h309v1475h-309v227h579v-1929h-579v227z" />
    <glyph glyph-name="parenleft.tf" 
d="M856 -406q-256 151 -398.5 407t-142.5 566q0 316 142 570.5t399 402.5l117 -188q-181 -129 -284 -338t-103 -447q0 -232 103.5 -442t283.5 -342z" />
    <glyph glyph-name="parenright.tf" 
d="M256 -217q180 132 283.5 342t103.5 442q0 237 -103 446.5t-284 338.5l117 188q257 -148 398.5 -402.5t141.5 -570.5q0 -310 -142.5 -566t-397.5 -407z" />
    <glyph glyph-name="braceleft.tf" 
d="M238 662q130 4 186.5 61t56.5 180v342q0 121 74 194.5t186 73.5h226v-227h-105q-108 0 -108 -135v-285q0 -121 -65.5 -205.5t-196.5 -111.5q131 -27 196.5 -112t65.5 -206v-284q0 -135 108 -135h105v-228h-226q-112 0 -186 74t-74 195v342q0 122 -56.5 177.5t-186.5 59.5
v230z" />
    <glyph glyph-name="braceright.tf" 
d="M991 432q-130 -4 -186.5 -59.5t-56.5 -177.5v-342q0 -121 -74.5 -195t-186.5 -74h-225v228h105q108 0 108 135v284q0 121 66 206t196 112q-130 27 -196 111.5t-66 205.5v285q0 135 -108 135h-105v227h225q113 0 187 -73.5t74 -194.5v-342q0 -123 56.5 -180t186.5 -61
v-230z" />
    <glyph glyph-name="bracketleft.tf" 
d="M385 1516h580v-228h-308v-1474h308v-228h-580v1930z" />
    <glyph glyph-name="bracketright.tf" 
d="M264 -186h309v1474h-309v228h580v-1930h-580v228z" />
    <glyph glyph-name="hyphen.case" horiz-adv-x="845" 
d="M115 895h618v-238h-618v238z" />
    <glyph glyph-name="endash.case" horiz-adv-x="1372" 
d="M115 895h1145v-238h-1145v238z" />
    <glyph glyph-name="emdash.case" horiz-adv-x="2283" 
d="M115 895h2056v-238h-2056v238z" />
    <glyph glyph-name="hyphen.tf" 
d="M305 698h619v-237h-619v237z" />
    <glyph glyph-name="endash.tf" 
d="M43 698h1143v-237h-1143v237z" />
    <glyph glyph-name="emdash.tf" 
d="M0 698h1229v-237h-1229v237z" />
    <glyph glyph-name="guillemotleft.case" horiz-adv-x="1146" 
d="M66 690l260 387h274l-254 -387l258 -391h-278zM535 690l260 387h272l-254 -387l258 -391h-276z" />
    <glyph glyph-name="guillemotright.case" horiz-adv-x="1146" 
d="M334 690l-254 387h274l260 -387l-260 -391h-278zM803 690l-254 387h272l260 -387l-260 -391h-276z" />
    <glyph glyph-name="guilsinglleft.case" horiz-adv-x="679" 
d="M66 690l260 387h274l-254 -387l258 -391h-278z" />
    <glyph glyph-name="guilsinglright.case" horiz-adv-x="679" 
d="M334 690l-254 387h274l260 -387l-260 -391h-278z" />
    <glyph glyph-name="space.tf" horiz-adv-x="614" 
 />
    <glyph glyph-name="plus.tf" 
d="M483 586h-438v245h438v467h254v-467h447v-245h-447v-467h-254v467z" />
    <glyph glyph-name="minus.tf" 
d="M45 831h1139v-245h-1139v245z" />
    <glyph glyph-name="multiply.tf" horiz-adv-x="1204" 
d="M90 373l338 336l-338 338l174 172l336 -338l338 338l172 -175l-336 -335l336 -338l-172 -172l-338 338l-336 -338z" />
    <glyph glyph-name="divide.tf" 
d="M616 999q-69 0 -115 45.5t-46 114.5t46 114.5t115 45.5q68 0 114 -45.5t46 -114.5t-46 -114.5t-114 -45.5zM45 831h1139v-245h-1139v245zM616 98q-69 0 -115 46t-46 116q0 68 46 113t115 45q68 0 114 -45.5t46 -112.5q0 -70 -46 -116t-114 -46z" />
    <glyph glyph-name="equal.tf" 
d="M68 850v246h1093v-246h-1093zM68 322v245h1093v-245h-1093z" />
    <glyph glyph-name="notequal.tf" 
d="M1161 850h-368l-113 -283h481v-245h-579l-93 -232h-251l92 232h-262v245h360l113 283h-473v246h571l92 231h252l-92 -231h270v-246z" />
    <glyph glyph-name="greater.tf" 
d="M231 248l465 461l-465 460l175 172l614 -632l-614 -633z" />
    <glyph glyph-name="less.tf" 
d="M209 709l614 632l174 -172l-465 -460l465 -461l-174 -172z" />
    <glyph glyph-name="plusminus.tf" 
d="M483 770h-438v246h438v344h254v-344h447v-246h-447v-344h-254v344zM45 305h1139v-246h-1139v246z" />
    <glyph glyph-name="approxequal.tf" 
d="M76 780q0 167 83.5 263t237.5 96q82 0 161.5 -23t144 -46t112.5 -23q125 0 125 133h213q0 -166 -83 -262.5t-234 -96.5q-84 0 -164 23t-144 46t-110 23q-127 0 -127 -133h-215zM76 238q0 167 83.5 262.5t237.5 95.5q82 0 161.5 -23t144 -46t112.5 -23q125 0 125 133h213
q0 -166 -83 -262t-234 -96q-84 0 -164 23t-144 46t-110 23q-127 0 -127 -133h-215z" />
    <glyph glyph-name="percent.tf" horiz-adv-x="1843" 
d="M852 1174q0 -158 -114 -270.5t-273 -112.5t-273 112.5t-114 270.5t114 270t273 112t273 -112t114 -270zM1231 1516h223l-831 -1516h-224zM465 1016q64 0 107.5 46.5t43.5 111.5q0 66 -43.5 110.5t-107.5 44.5q-66 0 -110 -44.5t-44 -110.5q0 -65 44.5 -111.5t109.5 -46.5
zM1765 354q0 -158 -114 -270.5t-273 -112.5t-273 112.5t-114 270.5t114 270.5t273 112.5t273 -112.5t114 -270.5zM1378 197q64 0 109 46t45 111t-45 110.5t-109 45.5q-65 0 -109 -45.5t-44 -110.5t44 -111t109 -46z" />
    <glyph glyph-name="perthousand.tf" horiz-adv-x="2457" 
d="M741 1174q0 -158 -114 -270.5t-273 -112.5t-273 112.5t-114 270.5t114 270t273 112t273 -112t114 -270zM1120 1516h226l-832 -1516h-225zM354 1016q64 0 109 46.5t45 111.5q0 66 -44.5 110.5t-109.5 44.5q-66 0 -109.5 -44.5t-43.5 -110.5q0 -65 44 -111.5t109 -46.5z
M1655 354q0 -158 -114 -270.5t-273 -112.5t-273 112.5t-114 270.5t114 270.5t273 112.5t273 -112.5t114 -270.5zM2492 354q0 -158 -114 -270.5t-273 -112.5t-273 112.5t-114 270.5t114 270.5t273 112.5t273 -112.5t114 -270.5zM1268 197q64 0 108.5 46t44.5 111t-44.5 110.5
t-108.5 45.5q-65 0 -109.5 -45.5t-44.5 -110.5t44.5 -111t109.5 -46zM2105 197q65 0 109.5 46t44.5 111t-44.5 110.5t-109.5 45.5q-64 0 -108.5 -45.5t-44.5 -110.5t44.5 -111t108.5 -46z" />
    <glyph glyph-name="ampersand.ss01" horiz-adv-x="1251" 
d="M1223 938v-250h-154v-248q0 -210 -133 -338.5t-361 -128.5q-209 0 -346 127t-137 316q0 283 240 397q-205 94 -205 340q0 77 27.5 146t80 123.5t136.5 87t190 32.5q203 0 320 -117l-170 -188q-53 53 -146 53q-82 0 -122 -47.5t-40 -122.5q0 -76 50.5 -129t146.5 -53h213
v197h256v-197h154zM813 440v248h-215q-105 0 -168 -72t-63 -167q0 -94 53.5 -159t157.5 -65q111 0 173 54t62 161z" />
    <glyph glyph-name="ampersand.ss02" horiz-adv-x="1196" 
d="M1067 772q78 -127 78 -274q0 -143 -71 -263.5t-194.5 -191t-271.5 -70.5q-147 0 -270 70.5t-193.5 192t-70.5 264.5q0 123 51 228.5t143 178.5q-71 104 -71 230q0 170 120 287.5t291 117.5q102 0 190.5 -44.5t145.5 -121.5l-211 -143q-48 61 -125 61q-63 0 -109 -46.5
t-46 -110.5q0 -63 46 -109.5t109 -46.5q76 0 125 59l211 -141q-57 -77 -145.5 -121.5t-190.5 -44.5q-61 0 -123 19q-70 -37 -112.5 -106t-42.5 -146q0 -115 81.5 -198t196.5 -83q118 0 200.5 82.5t82.5 196.5q0 79 -39 141z" />
    <glyph glyph-name="uni030C.alt" horiz-adv-x="0" 
d="M-412 1024l62 492h227l-72 -492h-217z" />
    <glyph glyph-name="caron.alt" horiz-adv-x="534" 
d="M412 1516l-72 -492h-217l61 492h228z" />
    <glyph glyph-name="uni0308.case" horiz-adv-x="0" 
d="M-793 1692q-74 0 -124 49.5t-50 122.5q0 72 50.5 122t123.5 50t124 -50t51 -122q0 -73 -50.5 -122.5t-124.5 -49.5zM-297 1692q-74 0 -124 49.5t-50 122.5q0 72 50.5 122t123.5 50t123.5 -50t50.5 -122q0 -73 -50 -122.5t-124 -49.5z" />
    <glyph glyph-name="uni0307.case" horiz-adv-x="0" 
d="M-305 1683q-76 0 -128 52t-52 127q0 76 51.5 128t128.5 52t129.5 -52t52.5 -128q0 -75 -53 -127t-129 -52z" />
    <glyph glyph-name="gravecomb.case" horiz-adv-x="0" 
d="M-711 1849l97 219l491 -215l-90 -202z" />
    <glyph glyph-name="acutecomb.case" horiz-adv-x="0" 
d="M-621 1651l-90 202l492 215l96 -219z" />
    <glyph glyph-name="uni030B.case" horiz-adv-x="0" 
d="M-752 1651l-174 135l226 285l184 -150zM-358 1651l-174 135l223 285l186 -150z" />
    <glyph glyph-name="uni0302.case" horiz-adv-x="0" 
d="M-123 1833l-121 -182l-266 176l-268 -176l-121 182l344 235h88z" />
    <glyph glyph-name="uni030C.case" horiz-adv-x="0" 
d="M-244 2068l121 -182l-344 -235h-88l-344 235l121 182l268 -176z" />
    <glyph glyph-name="uni0306.case" horiz-adv-x="0" 
d="M-489 1651q-166 0 -271.5 112t-105.5 285h217q0 -81 41 -127.5t119 -46.5q80 0 120.5 46t40.5 128h217q0 -173 -106 -285t-272 -112z" />
    <glyph glyph-name="uni030A.case" horiz-adv-x="0" 
d="M-385 1569q-114 0 -188 72t-74 178q0 104 74 176.5t188 72.5t188 -72.5t74 -176.5q0 -106 -74 -178t-188 -72zM-385 1722q43 0 70.5 28t27.5 69t-27.5 68.5t-70.5 27.5t-70.5 -27.5t-27.5 -68.5t27.5 -69t70.5 -28z" />
    <glyph glyph-name="tildecomb.case" horiz-adv-x="0" 
d="M-948 1716q0 144 65 225.5t187 81.5q61 0 123 -24t111 -48t77 -24q36 0 53 21.5t17 74.5h192q0 -142 -65 -224.5t-181 -82.5q-65 0 -128 24t-110 48t-73 24q-76 0 -76 -96h-192z" />
    <glyph glyph-name="uni0304.case" horiz-adv-x="0" 
d="M-817 1978h694v-231h-694v231z" />
    <glyph glyph-name="uni0337.case" horiz-adv-x="0" 
d="M-784 512l-101 209l662 309l100 -209z" />
    <glyph glyph-name="uni0338.case" horiz-adv-x="0" 
d="M-1747 129l1442 1442l182 -185l-1442 -1441z" />
    <glyph glyph-name="dieresis.case" horiz-adv-x="1253" 
d="M297 1692q-74 0 -124 49.5t-50 122.5q0 72 50.5 122t123.5 50t123.5 -50t50.5 -122q0 -73 -50 -122.5t-124 -49.5zM793 1692q-74 0 -124.5 49.5t-50.5 122.5q0 72 51 122t124 50t123.5 -50t50.5 -122q0 -73 -50 -122.5t-124 -49.5z" />
    <glyph glyph-name="dotaccent.case" horiz-adv-x="1243" 
d="M303 1683q-76 0 -128 52t-52 127q0 76 51.5 128t128.5 52t129.5 -52t52.5 -128q0 -75 -53 -127t-129 -52z" />
    <glyph glyph-name="grave.case" horiz-adv-x="1245" 
d="M123 1849l96 219l492 -215l-90 -202z" />
    <glyph glyph-name="acute.case" horiz-adv-x="1245" 
d="M213 1651l-90 202l491 215l97 -219z" />
    <glyph glyph-name="hungarumlaut.case" horiz-adv-x="1226" 
d="M297 1651l-174 135l225 285l184 -150zM690 1651l-174 135l223 285l187 -150z" />
    <glyph glyph-name="circumflex.case" horiz-adv-x="1241" 
d="M899 1833l-121 -182l-266 176l-268 -176l-121 182l344 235h88z" />
    <glyph glyph-name="caron.case" horiz-adv-x="1241" 
d="M778 2068l121 -182l-344 -235h-88l-344 235l121 182l268 -176z" />
    <glyph glyph-name="breve.case" horiz-adv-x="1267" 
d="M487 1651q-166 0 -271 112t-105 285h217q0 -81 40.5 -127.5t118.5 -46.5q80 0 121 46t41 128h217q0 -173 -106.5 -285t-272.5 -112z" />
    <glyph glyph-name="ring.case" horiz-adv-x="1286" 
d="M385 1569q-114 0 -188 72t-74 178q0 104 74 176.5t188 72.5t188 -72.5t74 -176.5q0 -106 -74 -178t-188 -72zM385 1722q43 0 70.5 28t27.5 69t-27.5 68.5t-70.5 27.5t-70.5 -27.5t-27.5 -68.5t27.5 -69t70.5 -28z" />
    <glyph glyph-name="tilde.case" horiz-adv-x="1275" 
d="M123 1716q0 144 65 225.5t187 81.5q61 0 123 -24t111 -48t77 -24q36 0 53 21.5t17 74.5h192q0 -142 -65 -224.5t-181 -82.5q-65 0 -128 24t-110 48t-73 24q-76 0 -76 -96h-192z" />
    <glyph glyph-name="macron.case" horiz-adv-x="1236" 
d="M123 1978h694v-231h-694v231z" />
    <glyph glyph-name="tonos.case" horiz-adv-x="589" 
d="M123 1038l100 478h244l-127 -521z" />
    <glyph glyph-name="brevecombcy" horiz-adv-x="0" 
d="M-500 1108q-166 0 -271.5 112t-105.5 285h218q0 -82 39.5 -128t119.5 -46t120 46t40 128h217q0 -172 -106 -284.5t-271 -112.5z" />
    <glyph glyph-name="dieresistonoscomb" horiz-adv-x="1257" 
d="M485 1188l95 450h241l-121 -493zM285 1161q-69 0 -115.5 46t-46.5 116q0 68 46.5 114t115.5 46t115 -46t46 -114q0 -70 -46 -116t-115 -46zM973 1161q-69 0 -115.5 46t-46.5 116q0 68 46.5 114t115.5 46t115.5 -46t46.5 -114q0 -70 -46.5 -116t-115.5 -46z" />
    </font>
</defs>
</svg>
