<?xml version="1.0" standalone="no"?>
<!DOCTYPE svg PUBLIC "-//W3C//DTD SVG 1.1//EN" "http://www.w3.org/Graphics/SVG/1.1/DTD/svg11.dtd" >
<svg xmlns="http://www.w3.org/2000/svg" xmlns:xlink="http://www.w3.org/1999/xlink" version="1.1">
<metadata>
Created by FontForge 20170731 at Wed Dec  2 19:26:21 2020
 By Aleksey,,,
Copyright (c) 2019 by Rick Banks. All rights reserved.
</metadata>
<defs>
<font id="F37GingerPro-Black" horiz-adv-x="1228" >
  <font-face 
    font-family="F37 Ginger Pro Black"
    font-weight="900"
    font-stretch="normal"
    units-per-em="2048"
    panose-1="0 0 10 0 0 0 0 0 0 0"
    ascent="1638"
    descent="-410"
    x-height="973"
    cap-height="1516"
    bbox="-1812 -596 2595 2109"
    underline-thickness="102"
    underline-position="-307"
    unicode-range="U+0020-FB02"
  />
<missing-glyph horiz-adv-x="1492" 
d="M205 1516h1083v-1516h-1083v1516zM463 1245v-975h567v975h-567z" />
    <glyph glyph-name="fi" unicode="fi" horiz-adv-x="1394" 
d="M1110 1087q-109 0 -176.5 66.5t-67.5 167.5t67.5 167t176.5 66t176.5 -66t67.5 -167t-67.5 -167.5t-176.5 -66.5zM1296 973v-973h-389v666h-352v-666h-389v666h-117v307h117v117q0 229 109.5 336.5t324.5 107.5q54 0 119 -9t102 -22v-297q-90 11 -129 11
q-137 0 -137 -150v-94h741z" />
    <glyph glyph-name="fl" unicode="fl" horiz-adv-x="1474" 
d="M1386 281q23 0 46 2v-289q-74 -12 -181 -12q-167 0 -260.5 95.5t-93.5 239.5v349h-342v-666h-389v666h-117v307h117v117q0 229 109.5 336.5t324.5 107.5q133 0 221 -31v-297q-90 11 -129 11q-76 0 -106.5 -38t-30.5 -112v-94h342v543h389v-1129q0 -52 22.5 -79t77.5 -27z
" />
    <glyph glyph-name="f_f" unicode="ff" horiz-adv-x="1536" 
d="M1434 1217q-70 0 -99.5 -38.5t-29.5 -111.5v-94h211v-307h-211v-666h-390v666h-360v-666h-389v666h-117v307h117v117q0 220 100 332t293 112q147 0 242 -31v-297q-64 11 -117 11q-70 0 -99.5 -38.5t-29.5 -111.5v-94h360v117q0 220 100.5 332t293.5 112q146 0 241 -31
v-297q-64 11 -116 11z" />
    <glyph glyph-name="f_f_i" unicode="ffi" horiz-adv-x="2154" 
d="M1860 1087q-109 0 -176.5 66.5t-67.5 167.5t67.5 167t176.5 66t176 -66t67 -167t-67 -167.5t-176 -66.5zM2046 973v-973h-389v666h-352v-666h-390v666h-360v-666h-389v666h-117v307h117v117q0 220 100 332t293 112q147 0 242 -31v-297q-64 11 -117 11q-70 0 -99.5 -38.5
t-29.5 -111.5v-94h360v117q0 229 110 336.5t325 107.5q54 0 119 -9t102 -22v-297q-90 11 -129 11q-137 0 -137 -150v-94h741z" />
    <glyph glyph-name="f_f_l" unicode="ffl" horiz-adv-x="2226" 
d="M2138 281q22 0 45 2v-289q-73 -12 -180 -12q-167 0 -260.5 95.5t-93.5 239.5v349h-342v-666h-389v666h-363v-666h-389v666h-117v307h117v117q0 220 100 332t293 112q147 0 242 -31v-297q-64 11 -117 11q-70 0 -99.5 -38.5t-29.5 -111.5v-94h363v117q0 229 109.5 336.5
t324.5 107.5q133 0 221 -31v-297q-90 11 -129 11q-76 0 -106.5 -38t-30.5 -112v-94h342v543h389v-1129q0 -52 22.5 -79t77.5 -27z" />
    <glyph glyph-name=".notdef" horiz-adv-x="1492" 
d="M205 1516h1083v-1516h-1083v1516zM463 1245v-975h567v975h-567z" />
    <glyph glyph-name=".null" horiz-adv-x="0" 
 />
    <glyph glyph-name="nonmarkingreturn" horiz-adv-x="682" 
 />
    <glyph glyph-name="space" unicode=" " horiz-adv-x="368" 
 />
    <glyph glyph-name="exclam" unicode="!" horiz-adv-x="577" 
d="M96 1020v496h385v-496l-92 -543h-201zM289 -27q-89 0 -143 54t-54 137t54 136.5t143 53.5t142.5 -53.5t53.5 -136.5t-53.5 -137t-142.5 -54z" />
    <glyph glyph-name="quotedbl" unicode="&#x22;" horiz-adv-x="890" 
d="M66 1516h354l-43 -525h-271zM473 1516h354l-43 -525h-270z" />
    <glyph glyph-name="numbersign" unicode="#" horiz-adv-x="1345" 
d="M1282 854h-205l-22 -164h162v-272h-201l-45 -324h-297l45 324h-170l-45 -324h-295l45 324h-191v272h230l22 164h-186v272h223l43 301h295l-43 -301h170l43 301h297l-43 -301h168v-272zM758 690l22 164h-170l-22 -164h170z" />
    <glyph glyph-name="dollar" unicode="$" horiz-adv-x="1241" 
d="M1176 442q0 -175 -102.5 -293.5t-287.5 -156.5v-162h-329v152q-245 30 -410 172l189 288q199 -143 391 -143q87 0 122 28.5t35 82.5q0 37 -23.5 67t-63.5 53t-92 44.5t-109 44.5t-114 50t-109 65t-92 84.5t-63.5 113.5t-23.5 147q0 164 97 278t266 159v170h329v-150
q194 -22 379 -137l-190 -287q-142 105 -338 105q-74 0 -114 -27.5t-40 -75.5q0 -32 23.5 -59t64 -47t92.5 -40t109.5 -43t114.5 -50t109 -67t92.5 -89t64 -120t23.5 -157z" />
    <glyph glyph-name="percent" unicode="%" horiz-adv-x="1820" 
d="M817 1180q0 -158 -114 -270.5t-273 -112.5t-273 112.5t-114 270.5q0 157 114.5 270t272.5 113t272.5 -113t114.5 -270zM1157 1516h346l-831 -1516h-346zM430 1063q44 0 75.5 35.5t31.5 81.5t-31.5 78t-75.5 32t-75 -32t-31 -78t31 -81.5t75 -35.5zM1776 354
q0 -158 -114 -270.5t-273 -112.5q-158 0 -273 113t-115 270t115 270t273 113q159 0 273 -112.5t114 -270.5zM1389 240q44 0 76 34t32 80q0 47 -32 80t-76 33t-75.5 -33t-31.5 -80q0 -46 31.5 -80t75.5 -34z" />
    <glyph glyph-name="ampersand" unicode="&#x26;" horiz-adv-x="1361" 
d="M1286 602h-143v-258h143v-344h-704q-222 0 -368 126t-146 341q0 109 57 197.5t141 132.5q-77 48 -124.5 139.5t-47.5 196.5q0 100 39.5 179t108.5 128.5t158 75.5t192 26q173 0 295 -84l-225 -307q-28 31 -80 31q-44 0 -74.5 -32.5t-30.5 -78.5q0 -57 39.5 -90t120.5 -33
h117v168h389v-168h143v-346zM754 344v258h-140q-163 0 -163 -129t163 -129h140z" />
    <glyph glyph-name="quotesingle" unicode="'" horiz-adv-x="483" 
d="M66 1516h354l-43 -525h-271z" />
    <glyph glyph-name="parenleft" unicode="(" horiz-adv-x="774" 
d="M598 -403q-255 151 -398 405t-143 567q0 317 141 569.5t400 401.5l162 -252q-161 -125 -251.5 -312t-90.5 -407q0 -207 90.5 -399.5t251.5 -321.5z" />
    <glyph glyph-name="parenright" unicode=")" horiz-adv-x="774" 
d="M14 -152q161 128 251.5 320.5t90.5 400.5q0 217 -89.5 404t-252.5 315l162 252q259 -149 400 -401.5t141 -569.5q0 -310 -141.5 -564t-399.5 -408z" />
    <glyph glyph-name="asterisk" unicode="*" horiz-adv-x="843" 
d="M795 1223l-201 -62l201 -61l-133 -232l-154 144l47 -205h-266l47 205l-154 -144l-133 232l201 61l-201 62l133 231l156 -145l-49 207h266l-49 -207l156 145z" />
    <glyph glyph-name="plus" unicode="+" horiz-adv-x="1343" 
d="M492 537h-390v344h390v417h352v-417h397v-344h-397v-418h-352v418z" />
    <glyph glyph-name="comma" unicode="," horiz-adv-x="514" 
d="M246 367q99 0 153 -73t54 -192q0 -116 -52 -219.5t-139 -167t-186 -67.5v151q67 0 126.5 53t80.5 144q-21 -6 -50 -6q-77 0 -126.5 53.5t-49.5 132.5q0 82 53 136.5t136 54.5z" />
    <glyph glyph-name="hyphen" unicode="-" horiz-adv-x="811" 
d="M96 698h619v-237h-619v237z" />
    <glyph glyph-name="period" unicode="." horiz-adv-x="507" 
d="M254 -14q-89 0 -143 53.5t-54 136.5t54 137t143 54t143 -54t54 -137t-54 -136.5t-143 -53.5z" />
    <glyph glyph-name="slash" unicode="/" horiz-adv-x="1249" 
d="M862 1516h359l-832 -1516h-358z" />
    <glyph glyph-name="zero" unicode="0" horiz-adv-x="1204" 
d="M600 -27q-126 0 -224.5 40t-159 109.5t-91.5 158t-31 190.5v573q0 102 31 190.5t91.5 158t159 109.5t224.5 40t225 -40t160.5 -109.5t93 -158t31.5 -190.5v-573q0 -102 -31.5 -190.5t-93 -158t-160.5 -109.5t-225 -40zM602 334q119 0 119 158v530q0 160 -119 160
t-119 -160v-530q0 -158 119 -158z" />
    <glyph glyph-name="one" unicode="1" horiz-adv-x="788" 
d="M264 1159h-201v357h594v-1516h-393v1159z" />
    <glyph glyph-name="two" unicode="2" horiz-adv-x="1142" 
d="M778 524l-160 -168h426v-356h-968v324l342 372q145 157 199.5 238.5t54.5 142.5q0 50 -25.5 77.5t-68.5 27.5q-109 0 -127 -123h-390q21 248 154.5 365.5t351.5 117.5q99 0 188.5 -32.5t157.5 -92t108 -149t40 -197.5q0 -106 -34 -197t-89.5 -165.5t-159.5 -184.5z" />
    <glyph glyph-name="three" unicode="3" horiz-adv-x="1161" 
d="M868 791q219 -122 219 -351q0 -215 -146 -341t-368 -126q-113 0 -203.5 27.5t-160 85t-112.5 151t-54 220.5h389q11 -63 46.5 -93t103.5 -30q59 0 91 29t32 88q0 71 -58.5 111t-144.5 40h-90v346h65q201 0 201 119q0 57 -28 86t-77 29q-89 0 -112 -99h-389
q20 214 149.5 336.5t341.5 122.5q103 0 192 -26t158 -75.5t108.5 -128.5t39.5 -179q0 -111 -52 -199.5t-141 -142.5z" />
    <glyph glyph-name="four" unicode="4" horiz-adv-x="1253" 
d="M1186 541v-330h-150v-211h-372v211h-631v321l594 984h409v-975h150zM414 541h250v409z" />
    <glyph glyph-name="five" unicode="5" horiz-adv-x="1177" 
d="M631 989q211 0 345 -135.5t134 -364.5q0 -245 -147 -380.5t-392 -135.5q-219 0 -360 123.5t-162 358.5h381q5 -53 44.5 -88t100.5 -35q66 0 111 41.5t45 111.5q0 67 -45 108.5t-111 41.5q-105 0 -190 -57l-276 176l129 762h784v-340h-467l-33 -199q56 12 109 12z" />
    <glyph glyph-name="six" unicode="6" horiz-adv-x="1191" 
d="M684 967q197 -12 323 -145t126 -341q0 -100 -38.5 -190.5t-106.5 -159t-170 -109t-222 -40.5q-160 0 -283.5 65.5t-188.5 174t-65 239.5q0 168 109 370l367 685h442zM596 317q71 0 121.5 49.5t50.5 120.5q0 70 -50.5 119t-121.5 49t-121.5 -49t-50.5 -119
q0 -71 50.5 -120.5t121.5 -49.5z" />
    <glyph glyph-name="seven" unicode="7" horiz-adv-x="1091" 
d="M35 1516h1009v-320l-489 -1196h-412l486 1176h-594v340z" />
    <glyph glyph-name="eight" unicode="8" horiz-adv-x="1234" 
d="M1008 877q81 -72 123.5 -172t42.5 -209q0 -102 -38.5 -196t-108 -167t-176.5 -116.5t-235 -43.5q-124 0 -230.5 43.5t-177 116.5t-110 167.5t-39.5 195.5q0 110 47 212t132 175q-58 104 -58 223q0 182 127 309t307 127q183 0 312 -126.5t129 -309.5q0 -122 -47 -229z
M614 1167q-41 0 -70.5 -30.5t-29.5 -71.5q0 -35 10 -55q44 6 92 6q50 0 93 -6q10 16 10 55q0 42 -30.5 72t-74.5 30zM616 313q76 0 124 52t48 131q0 77 -48 128.5t-124 51.5q-70 0 -121 -52t-51 -128q0 -77 51 -130t121 -53z" />
    <glyph glyph-name="nine" unicode="9" horiz-adv-x="1189" 
d="M596 1542q160 0 283.5 -65.5t188.5 -174t65 -239.5q0 -171 -115 -371l-402 -692h-442l328 578q-192 14 -317.5 143t-125.5 321q0 100 38.5 190.5t106.5 159.5t170 109.5t222 40.5zM596 868q71 0 121.5 49t50.5 119q0 71 -50.5 120.5t-121.5 49.5t-121.5 -49.5
t-50.5 -120.5q0 -70 50.5 -119t121.5 -49z" />
    <glyph glyph-name="colon" unicode=":" horiz-adv-x="557" 
d="M279 571q-89 0 -143 54t-54 137t54 136.5t143 53.5t142.5 -53.5t53.5 -136.5t-53.5 -137t-142.5 -54zM279 -14q-89 0 -143 53.5t-54 136.5t54 137t143 54t142.5 -54t53.5 -137t-53.5 -136.5t-142.5 -53.5z" />
    <glyph glyph-name="semicolon" unicode=";" horiz-adv-x="559" 
d="M279 571q-89 0 -143 54t-54 137t54 136.5t143 53.5t142.5 -53.5t53.5 -136.5t-53.5 -137t-142.5 -54zM270 367q99 0 153 -73t54 -192q0 -116 -52 -219.5t-139 -167t-186 -67.5v151q67 0 126.5 53t80.5 144q-21 -6 -49 -6q-77 0 -126.5 53.5t-49.5 132.5q0 82 52.5 136.5
t135.5 54.5z" />
    <glyph glyph-name="less" unicode="&#x3c;" horiz-adv-x="1343" 
d="M197 709l692 692l233 -234l-483 -458l483 -457l-235 -234z" />
    <glyph glyph-name="equal" unicode="=" horiz-adv-x="1343" 
d="M102 827v344h1139v-344h-1139zM102 246v344h1139v-344h-1139z" />
    <glyph glyph-name="greater" unicode="&#x3e;" horiz-adv-x="1343" 
d="M221 252l484 457l-484 458l234 234l692 -692l-690 -691z" />
    <glyph glyph-name="question" unicode="?" horiz-adv-x="1069" 
d="M266 571q0 65 21.5 119.5t55.5 92t75.5 69.5t82.5 58.5t75 52.5t55.5 57.5t21.5 66.5q0 127 -131 127q-66 0 -108.5 -43t-42.5 -112h-328q0 207 141.5 346t352.5 139q213 0 345 -120t132 -314q0 -80 -21 -145.5t-55 -108.5t-75 -78.5t-82.5 -62.5t-75.5 -52t-55 -55.5
t-21 -64.5v-68h-363v96zM442 -27q-88 0 -142 53t-54 138t54 137.5t142 52.5t142.5 -52.5t54.5 -137.5t-54.5 -138t-142.5 -53z" />
    <glyph glyph-name="at" unicode="@" horiz-adv-x="1959" 
d="M893 -43q-116 0 -206.5 60t-137.5 155.5t-47 208.5q0 186 118 304t285 118q143 0 232 -82v51h309v-399q0 -94 57 -94q38 0 60 58.5t22 174.5q0 35 -5.5 72t-21.5 85t-41.5 90.5t-70 84.5t-102 72.5t-141.5 49.5t-185 19q-59 0 -117.5 -7.5t-123 -26.5t-121 -48.5
t-108.5 -77.5t-89.5 -108.5t-59.5 -146t-22 -187.5q0 -128 36 -231.5t96.5 -172t144.5 -114.5t176 -66t194 -20q225 0 426 104l143 -286q-226 -129 -585 -129q-437 0 -695 247t-258 668q0 148 39.5 279t109.5 229.5t162.5 176.5t200 127.5t221.5 75t228 25.5
q136 0 262.5 -28t240 -89t197.5 -148.5t133 -215t49 -280.5q0 -68 -15.5 -139.5t-50 -143t-82.5 -129t-119 -95.5t-154 -44q-178 -12 -252 125q-69 -83 -149.5 -117.5t-182.5 -34.5zM975 211q75 0 119.5 48t44.5 122q0 72 -44 120t-120 48q-77 0 -120.5 -47.5t-43.5 -118.5
q0 -73 44 -122.5t120 -49.5z" />
    <glyph glyph-name="A" unicode="A" horiz-adv-x="1540" 
d="M1128 0l-88 242h-540l-88 -242h-412l575 1516h392l573 -1516h-412zM922 578l-152 483l-154 -483h306z" />
    <glyph glyph-name="B" unicode="B" horiz-adv-x="1331" 
d="M127 0v1516h553q264 0 400.5 -103.5t136.5 -275.5q0 -249 -218 -338q142 -46 209.5 -135t67.5 -236q0 -205 -153.5 -316.5t-432.5 -111.5h-563zM516 920h186q60 0 92.5 36.5t32.5 102.5q0 67 -38.5 103t-114.5 36h-158v-278zM516 307h135q123 0 179.5 39.5t56.5 120.5
q0 73 -52.5 114.5t-150.5 41.5h-168v-316z" />
    <glyph glyph-name="C" unicode="C" horiz-adv-x="1435" 
d="M864 -27q-170 0 -320.5 62t-257 167t-168 249.5t-61.5 304.5t61.5 304.5t167.5 250.5t257 168.5t321 62.5q167 0 315 -59.5t257 -165.5l-238 -268q-55 61 -140.5 97t-172.5 36q-194 0 -312 -119t-118 -307t118 -307t312 -119q83 0 162.5 32t142.5 91l229 -271
q-108 -99 -250.5 -154t-304.5 -55z" />
    <glyph glyph-name="D" unicode="D" horiz-adv-x="1572" 
d="M127 0v1516h563q239 0 426.5 -94.5t292 -267.5t104.5 -396t-104.5 -396t-292 -267.5t-426.5 -94.5h-563zM520 356h158q93 0 171 23.5t138.5 70.5t94.5 125.5t34 182.5t-34 182.5t-94.5 125.5t-138.5 70t-171 23h-158v-803z" />
    <glyph glyph-name="E" unicode="E" horiz-adv-x="1269" 
d="M127 0v1516h1065v-349h-672v-221h545v-348h-545v-250h672v-348h-1065z" />
    <glyph glyph-name="F" unicode="F" horiz-adv-x="1224" 
d="M127 0v1516h1055v-349h-662v-241h535v-348h-535v-578h-393z" />
    <glyph glyph-name="G" unicode="G" horiz-adv-x="1673" 
d="M856 -27q-163 0 -310.5 60.5t-254.5 164.5t-170.5 249t-63.5 307q0 161 64 306t173.5 251t264 168.5t328.5 62.5q184 0 338 -62t264 -173l-234 -269q-73 76 -157 110t-201 34q-198 0 -320 -124.5t-122 -303.5q0 -176 118.5 -300t298.5 -124q168 0 263.5 73t95.5 207v6
h-359v299h744v-153q0 -236 -88.5 -413.5t-261.5 -276.5t-410 -99z" />
    <glyph glyph-name="H" unicode="H" horiz-adv-x="1593" 
d="M1073 1516h393v-1516h-393v600h-553v-600h-393v1516h393v-560h553v560z" />
    <glyph glyph-name="I" unicode="I" horiz-adv-x="647" 
d="M127 0v1516h393v-1516h-393z" />
    <glyph glyph-name="J" unicode="J" horiz-adv-x="647" 
d="M-94 -518v348q118 18 169.5 83t51.5 208v1395h393v-1391q0 -320 -140 -466t-474 -177z" />
    <glyph glyph-name="K" unicode="K" horiz-adv-x="1406" 
d="M823 760l631 -760h-493l-441 549v-549h-393v1516h393v-562l404 562h477z" />
    <glyph glyph-name="L" unicode="L" horiz-adv-x="1183" 
d="M127 0v1516h393v-1160h639v-356h-1032z" />
    <glyph glyph-name="M" unicode="M" horiz-adv-x="1921" 
d="M1280 1516h514v-1516h-379v1055l-313 -533h-283l-313 533v-1055h-379v1516h514l320 -547z" />
    <glyph glyph-name="N" unicode="N" horiz-adv-x="1667" 
d="M1147 1516h393v-1516h-395l-625 971v-971h-393v1516h448l572 -895v895z" />
    <glyph glyph-name="O" unicode="O" horiz-adv-x="1728" 
d="M864 -27q-170 0 -320.5 62t-257 167t-168 249.5t-61.5 304.5t61.5 304.5t167.5 250.5t257 168.5t321 62.5t321 -62.5t257 -168.5t167.5 -250.5t61.5 -304.5t-61.5 -304.5t-168 -249.5t-257 -167t-320.5 -62zM864 334q181 0 295.5 118t114.5 304q0 187 -114.5 306.5
t-295.5 119.5t-295 -119.5t-114 -306.5q0 -186 114 -304t295 -118z" />
    <glyph glyph-name="P" unicode="P" horiz-adv-x="1323" 
d="M127 0v1516h561q286 0 444 -142.5t158 -382.5q0 -241 -158 -383.5t-444 -142.5h-172v-465h-389zM516 782h156q120 0 174.5 57t54.5 150t-54.5 151t-174.5 58h-156v-416z" />
    <glyph glyph-name="Q" unicode="Q" horiz-adv-x="1732" 
d="M1493 356h199v-356h-828q-170 0 -321 61.5t-257 165.5t-167.5 245.5t-61.5 297.5q0 155 61.5 296.5t167.5 246.5t257 167t321 62q169 0 320.5 -62t257.5 -165.5t167.5 -241.5t61.5 -287q0 -293 -178 -430zM455 770q0 -179 114.5 -296.5t294.5 -117.5t295 118t115 296
q0 177 -115 294.5t-295 117.5t-294.5 -117.5t-114.5 -294.5z" />
    <glyph glyph-name="R" unicode="R" horiz-adv-x="1361" 
d="M1319 0h-420l-272 559h-111v-559h-389v1516h598q271 0 418 -128.5t147 -349.5q0 -154 -73.5 -266t-212.5 -166zM516 1198v-334h176q105 0 157 44.5t52 121.5t-52 122.5t-157 45.5h-176z" />
    <glyph glyph-name="S" unicode="S" horiz-adv-x="1239" 
d="M231 442q199 -143 392 -143q87 0 122 28.5t35 82.5q0 37 -23.5 67t-63.5 53t-92 44.5t-109 44.5t-114 50t-109 65t-92 84.5t-63.5 113.5t-23.5 147q0 214 159.5 338.5t420.5 124.5q134 0 249.5 -32t241.5 -111l-190 -287q-142 105 -338 105q-74 0 -114 -27.5t-40 -75.5
q0 -32 23.5 -59t63.5 -47t92 -40t109.5 -43t115 -50t109.5 -67t92 -89t63.5 -120t23.5 -157q0 -216 -151.5 -342.5t-417.5 -126.5q-352 0 -559 181z" />
    <glyph glyph-name="T" unicode="T" horiz-adv-x="1331" 
d="M469 0v1159h-444v357h1282v-357h-445v-1159h-393z" />
    <glyph glyph-name="U" unicode="U" horiz-adv-x="1568" 
d="M784 -27q-321 0 -498 189.5t-177 548.5v805h393v-791q0 -205 66 -300t216 -95t216.5 95t66.5 300v791h393v-805q0 -359 -177.5 -548.5t-498.5 -189.5z" />
    <glyph glyph-name="V" unicode="V" horiz-adv-x="1538" 
d="M1116 1516h418l-553 -1516h-424l-555 1516h418l348 -1016z" />
    <glyph glyph-name="W" unicode="W" horiz-adv-x="2174" 
d="M1790 1516h383l-444 -1516h-388l-254 963l-251 -963h-390l-444 1516h383l258 -979l258 979h373l260 -979z" />
    <glyph glyph-name="X" unicode="X" horiz-adv-x="1462" 
d="M1487 0h-469l-297 442l-277 -442h-469l523 772l-500 744h469l283 -420l243 420h469l-489 -750z" />
    <glyph glyph-name="Y" unicode="Y" horiz-adv-x="1476" 
d="M1036 1516h426l-528 -914v-602h-391v600l-529 916h426l297 -547z" />
    <glyph glyph-name="Z" unicode="Z" horiz-adv-x="1382" 
d="M596 356h715v-356h-1250v315l715 844h-692v357h1225v-316z" />
    <glyph glyph-name="bracketleft" unicode="[" horiz-adv-x="753" 
d="M125 1516h580v-287h-238v-1356h238v-287h-580v1930z" />
    <glyph glyph-name="backslash" unicode="\" horiz-adv-x="1249" 
d="M29 1516h358l832 -1516h-359z" />
    <glyph glyph-name="bracketright" unicode="]" horiz-adv-x="753" 
d="M49 -127h238v1356h-238v287h580v-1930h-580v287z" />
    <glyph glyph-name="asciicircum" unicode="^" horiz-adv-x="1343" 
d="M670 1206l-195 -518h-403l377 828h450l373 -828h-402z" />
    <glyph glyph-name="underscore" unicode="_" horiz-adv-x="1206" 
d="M68 0h1071v-229h-1071v229z" />
    <glyph glyph-name="grave" unicode="`" horiz-adv-x="907" 
d="M123 1239l82 287l579 -144l-82 -274z" />
    <glyph glyph-name="a" unicode="a" horiz-adv-x="1249" 
d="M762 973h389v-973h-389v78q-80 -96 -246 -96q-196 0 -331.5 146.5t-135.5 358.5q0 211 135.5 357.5t331.5 146.5q166 0 246 -96v78zM604 322q69 0 113.5 47.5t44.5 117.5q0 69 -44.5 116.5t-113.5 47.5q-70 0 -116 -48t-46 -116q0 -70 46 -117.5t116 -47.5z" />
    <glyph glyph-name="b" unicode="b" horiz-adv-x="1249" 
d="M733 991q196 0 331.5 -146.5t135.5 -357.5q0 -212 -135.5 -358.5t-331.5 -146.5q-166 0 -246 96v-78h-389v1516h389v-621q80 96 246 96zM645 322q70 0 116 47.5t46 117.5q0 68 -46 116t-116 48q-69 0 -113.5 -47.5t-44.5 -116.5q0 -70 44.5 -117.5t113.5 -47.5z" />
    <glyph glyph-name="c" unicode="c" horiz-adv-x="1046" 
d="M604 -18q-119 0 -222.5 38t-177 104.5t-115.5 160.5t-42 202q0 145 71.5 260.5t199 180.5t286.5 65q270 0 426 -198l-229 -242q-35 51 -78.5 75.5t-108.5 24.5q-78 0 -126 -47.5t-48 -118.5t48 -118t126 -47q65 0 108.5 24.5t78.5 75.5l229 -242q-156 -198 -426 -198z
" />
    <glyph glyph-name="d" unicode="d" horiz-adv-x="1249" 
d="M762 1516h389v-1516h-389v78q-80 -96 -246 -96q-196 0 -331.5 146.5t-135.5 358.5q0 211 135.5 357.5t331.5 146.5q166 0 246 -96v621zM604 322q69 0 113.5 47.5t44.5 117.5q0 69 -44.5 116.5t-113.5 47.5q-70 0 -116 -48t-46 -116q0 -70 46 -117.5t116 -47.5z" />
    <glyph glyph-name="e" unicode="e" horiz-adv-x="1126" 
d="M408 393q39 -133 217 -133q133 0 206 86l205 -180q-163 -184 -432 -184q-258 0 -407.5 143t-149.5 362q0 215 143 359.5t373 144.5q234 0 375 -138.5t141 -365.5q0 -40 -4 -94h-667zM573 733q-137 0 -167 -145h335q-30 145 -168 145z" />
    <glyph glyph-name="f" unicode="f" horiz-adv-x="786" 
d="M684 1217q-70 0 -99.5 -38.5t-29.5 -111.5v-94h211v-307h-211v-666h-389v666h-117v307h117v117q0 220 100 332t293 112q147 0 242 -31v-297q-64 11 -117 11z" />
    <glyph glyph-name="g" unicode="g" horiz-adv-x="1247" 
d="M762 973h389v-973q0 -114 -40 -213t-111 -170t-174 -111.5t-224 -40.5q-368 0 -512 254l303 164q75 -90 187 -90q75 0 128.5 44.5t53.5 139.5v101q-80 -96 -246 -96q-196 0 -331.5 146.5t-135.5 358.5q0 211 135.5 357.5t331.5 146.5q166 0 246 -96v78zM604 322
q69 0 113.5 47.5t44.5 117.5q0 69 -44.5 116.5t-113.5 47.5q-70 0 -116 -48t-46 -116q0 -70 46 -117.5t116 -47.5z" />
    <glyph glyph-name="h" unicode="h" horiz-adv-x="1212" 
d="M756 991q161 0 264.5 -109t103.5 -302v-580h-389v479q0 86 -30 125t-93 39q-125 0 -125 -143v-500h-389v1516h389v-621q51 49 111.5 72.5t157.5 23.5z" />
    <glyph glyph-name="i" unicode="i" horiz-adv-x="585" 
d="M301 1096q-104 0 -168.5 64t-64.5 161t64.5 161t168.5 64t169 -64t65 -161t-65 -161t-169 -64zM98 973h389v-973h-389v973z" />
    <glyph glyph-name="j" unicode="j" horiz-adv-x="585" 
d="M293 1096q-104 0 -169 64t-65 161t65 161t169 64t168.5 -64t64.5 -161t-64.5 -161t-168.5 -64zM98 973h389v-1491h-389v1491z" />
    <glyph glyph-name="k" unicode="k" horiz-adv-x="1148" 
d="M1184 0h-420l-277 360v-360h-389v1516h389v-846l240 303h416l-375 -451z" />
    <glyph glyph-name="l" unicode="l" horiz-adv-x="667" 
d="M444 -18q-167 0 -260.5 95.5t-93.5 239.5v1199h389v-1129q0 -52 23 -79t78 -27q22 0 45 2v-289q-73 -12 -181 -12z" />
    <glyph glyph-name="m" unicode="m" horiz-adv-x="1775" 
d="M1354 991q151 0 242.5 -99.5t91.5 -291.5v-600h-390v479q0 87 -24 125.5t-76 38.5q-111 0 -111 -143v-500h-389v479q0 87 -24 125.5t-76 38.5q-111 0 -111 -143v-500h-389v973h389v-88q55 55 121 80.5t164 25.5q93 0 163 -38t109 -107q76 82 146 113.5t164 31.5z" />
    <glyph glyph-name="n" unicode="n" horiz-adv-x="1212" 
d="M756 991q161 0 264.5 -109t103.5 -302v-580h-389v479q0 86 -30 125t-93 39q-125 0 -125 -143v-500h-389v973h389v-78q51 49 111.5 72.5t157.5 23.5z" />
    <glyph glyph-name="o" unicode="o" horiz-adv-x="1208" 
d="M604 -18q-127 0 -233 40.5t-176.5 110t-109 161t-38.5 193.5q0 81 24 156t72 138t114.5 110t155.5 73.5t191 26.5t191 -26.5t155.5 -73.5t114.5 -110t72 -138t24 -156q0 -102 -38.5 -193.5t-109 -161t-176.5 -110t-233 -40.5zM604 322q75 0 119.5 46t44.5 119
q0 72 -44.5 118t-119.5 46t-119.5 -46t-44.5 -118q0 -73 44.5 -119t119.5 -46z" />
    <glyph glyph-name="p" unicode="p" horiz-adv-x="1249" 
d="M733 991q196 0 331.5 -146.5t135.5 -357.5q0 -212 -135.5 -358.5t-331.5 -146.5q-166 0 -246 96v-596h-389v1491h389v-78q80 96 246 96zM645 322q70 0 116 47.5t46 117.5q0 68 -46 116t-116 48q-69 0 -113.5 -47.5t-44.5 -116.5q0 -70 44.5 -117.5t113.5 -47.5z" />
    <glyph glyph-name="q" unicode="q" horiz-adv-x="1247" 
d="M762 973h389v-1491h-389v596q-80 -96 -246 -96q-196 0 -331.5 146.5t-135.5 358.5q0 211 135.5 357.5t331.5 146.5q166 0 246 -96v78zM604 322q69 0 113.5 47.5t44.5 117.5q0 69 -44.5 116.5t-113.5 47.5q-70 0 -116 -48t-46 -116q0 -70 46 -117.5t116 -47.5z" />
    <glyph glyph-name="r" unicode="r" horiz-adv-x="800" 
d="M752 991h20v-348h-33q-128 0 -190 -43.5t-62 -148.5v-451h-389v973h389v-88q55 55 117.5 80.5t147.5 25.5z" />
    <glyph glyph-name="s" unicode="s" horiz-adv-x="1003" 
d="M176 348q92 -54 164 -76t152 -22q61 0 61 35q0 21 -26.5 36t-69 26t-94 24t-103.5 36t-94.5 55t-69 87.5t-26.5 128.5q0 155 116 234t338 79q270 0 432 -98l-122 -254q-159 84 -287 84q-78 0 -78 -33q0 -20 26.5 -34t69 -24.5t94 -23t103.5 -35.5t94.5 -55.5t69 -88.5
t26.5 -130q0 -155 -115.5 -236t-332.5 -81q-281 0 -475 131z" />
    <glyph glyph-name="t" unicode="t" horiz-adv-x="833" 
d="M664 289q55 0 122 20v-301q-74 -26 -200 -26q-210 0 -318 103.5t-108 326.5v254h-117v307h117v319h389v-319h211v-307h-211v-254q0 -123 115 -123z" />
    <glyph glyph-name="u" unicode="u" horiz-adv-x="1183" 
d="M590 -18q-126 0 -224.5 36t-159 101t-91.5 150t-31 186v518h389v-479q0 -88 28 -126t91 -38t91 38t28 126v479h389v-518q0 -101 -31.5 -186t-93 -150t-160.5 -101t-225 -36z" />
    <glyph glyph-name="v" unicode="v" horiz-adv-x="1144" 
d="M735 973h400l-334 -973h-457l-334 973h400l163 -594z" />
    <glyph glyph-name="w" unicode="w" horiz-adv-x="1730" 
d="M1348 973h378l-292 -973h-437l-131 532l-133 -532h-436l-293 973h379l133 -559l131 559h436l134 -559z" />
    <glyph glyph-name="x" unicode="x" horiz-adv-x="1071" 
d="M1085 0h-399l-158 223l-168 -223h-383l357 500l-334 473h399l148 -209l145 209h387l-334 -490z" />
    <glyph glyph-name="y" unicode="y" horiz-adv-x="1140" 
d="M731 973h399l-509 -1491h-383l153 434l-385 1057h400l167 -611z" />
    <glyph glyph-name="z" unicode="z" horiz-adv-x="999" 
d="M549 307h385v-307h-866v295l376 371h-366v307h846v-301z" />
    <glyph glyph-name="braceleft" unicode="{" horiz-adv-x="862" 
d="M6 686q143 4 197.5 63.5t54.5 176.5v305q0 120 85 201t200 81h274v-286h-115q-46 0 -74 -32.5t-28 -88.5v-225q0 -79 -29.5 -146t-94.5 -117.5t-159 -68.5q94 -18 159.5 -70t94.5 -119t29 -143v-227q0 -56 27.5 -87.5t74.5 -31.5h115v-287h-274q-114 0 -199.5 81
t-85.5 202v303q0 40 -4 69t-19.5 61.5t-41.5 53.5t-73.5 35.5t-113.5 16.5v280z" />
    <glyph glyph-name="bar" unicode="|" horiz-adv-x="598" 
d="M123 1516h352v-1803h-352v1803z" />
    <glyph glyph-name="braceright" unicode="}" horiz-adv-x="862" 
d="M856 406q-66 -2 -113.5 -16.5t-73.5 -35.5t-41.5 -53.5t-19.5 -61.5t-4 -69v-303q0 -121 -85.5 -202t-199.5 -81h-274v287h115q47 0 74.5 31.5t27.5 87.5v227q0 76 29 143t94.5 119t159.5 70q-94 18 -159 68.5t-94.5 117.5t-29.5 146v225q0 56 -28 88.5t-74 32.5h-115
v286h274q115 0 200 -81t85 -201v-305q0 -117 54.5 -176.5t197.5 -63.5v-280z" />
    <glyph glyph-name="asciitilde" unicode="~" horiz-adv-x="1343" 
d="M82 492q0 188 93.5 289.5t277.5 101.5q86 0 171.5 -18t151 -36t101.5 -18q43 0 66.5 30t23.5 85h305q0 -187 -93 -290.5t-268 -103.5q-90 0 -177.5 18t-152 36t-98.5 18q-45 0 -70.5 -28.5t-25.5 -83.5h-305z" />
    <glyph glyph-name="uni00A0" unicode="&#xa0;" horiz-adv-x="368" 
 />
    <glyph glyph-name="exclamdown" unicode="&#xa1;" horiz-adv-x="577" 
d="M289 756q-89 0 -143 53.5t-54 136.5t54 137t143 54t142.5 -54t53.5 -137t-53.5 -136.5t-142.5 -53.5zM96 90l92 543h201l92 -543v-496h-385v496z" />
    <glyph glyph-name="cent" unicode="&#xa2;" horiz-adv-x="1091" 
d="M625 602q65 0 108 24t78 76l229 -241q-115 -144 -282 -182v-279h-330v289q-168 48 -269.5 177t-101.5 302t101.5 302t269.5 177v269h330v-259q167 -38 282 -182l-229 -241q-35 52 -78 76t-108 24q-78 0 -126 -47.5t-48 -118.5t48 -118.5t126 -47.5z" />
    <glyph glyph-name="sterling" unicode="&#xa3;" horiz-adv-x="1212" 
d="M662 545q0 -120 -62 -209h543v-336h-1061v283q193 120 215 268h-211v313h98q-47 103 -47 207q0 143 69 251.5t184 164t257 55.5q218 0 351.5 -117.5t154.5 -365.5h-389q-18 123 -127 123q-56 0 -83.5 -30t-27.5 -95q0 -94 45 -193h445v-313h-354v-6z" />
    <glyph glyph-name="currency" unicode="&#xa4;" horiz-adv-x="1355" 
d="M1202 711q0 -131 -55 -238l149 -149l-233 -232l-158 158q-102 -45 -229 -45q-119 0 -227 43l-156 -156l-234 232l146 145q-58 116 -58 242t58 239l-146 146l234 231l156 -156q105 43 227 43q123 0 229 -45l158 158l233 -231l-149 -150q55 -107 55 -235zM676 530
q79 0 129.5 51.5t50.5 129.5q0 77 -50.5 127.5t-129.5 50.5q-81 0 -131.5 -51t-50.5 -127q0 -78 50.5 -129.5t131.5 -51.5z" />
    <glyph glyph-name="yen" unicode="&#xa5;" horiz-adv-x="1529" 
d="M1489 1516l-379 -656h260v-231h-393l-16 -27v-104h409v-232h-409v-266h-392v266h-409v232h409v102l-16 29h-393v231h260l-379 656h426l297 -547l299 547h426z" />
    <glyph glyph-name="brokenbar" unicode="&#xa6;" horiz-adv-x="598" 
d="M123 1516h352v-717h-352v717zM123 430h352v-717h-352v717z" />
    <glyph glyph-name="section" unicode="&#xa7;" 
d="M1176 561q0 -171 -160 -285q32 -38 51.5 -102t19.5 -129q0 -85 -32.5 -162t-91.5 -135t-147 -92.5t-193 -34.5q-125 0 -224 41t-157.5 108.5t-88.5 146.5t-30 163h360q0 -46 30.5 -81.5t94.5 -35.5q56 0 89.5 30t33.5 75q0 43 -23.5 76t-82.5 61l-349 164
q-118 55 -170.5 133t-52.5 186q0 91 54 175t149 130q-22 29 -39.5 81.5t-17.5 105.5q0 58 29 119.5t81.5 114.5t136 87.5t181.5 34.5q206 0 330 -119.5t124 -294.5h-352q0 27 -24.5 49.5t-65.5 22.5q-40 0 -62 -18t-22 -48q0 -26 15.5 -43t54.5 -36l288 -131
q263 -121 263 -357zM819 557q0 23 -11 39.5t-40 30.5l-315 145q-43 -16 -43 -61q0 -46 51 -70l311 -145q19 3 33 20t14 41z" />
    <glyph glyph-name="dieresis" unicode="&#xa8;" 
d="M348 1104q-101 0 -163 60.5t-62 154.5t62 154.5t163 60.5t163 -60.5t62 -154.5t-62 -154.5t-163 -60.5zM881 1104q-101 0 -163.5 60.5t-62.5 154.5t62.5 154.5t163.5 60.5t163 -60.5t62 -154.5t-62 -154.5t-163 -60.5z" />
    <glyph glyph-name="copyright" unicode="&#xa9;" horiz-adv-x="1708" 
d="M854 -27q-167 0 -315.5 62t-253.5 167t-166.5 249.5t-61.5 304.5t61.5 305t166.5 250.5t253.5 168t315.5 62.5t315.5 -62.5t253.5 -168t166.5 -250.5t61.5 -305t-61.5 -304.5t-166.5 -249.5t-253.5 -167t-315.5 -62zM854 225q229 0 379.5 149.5t150.5 381.5t-151 383
t-379 151t-379 -151t-151 -383t150.5 -381.5t379.5 -149.5zM877 344q-195 0 -323 119t-128 295q0 178 128 297t323 119q213 0 340 -156l-162 -174q-64 67 -154 67q-67 0 -108 -45t-41 -108q0 -61 41.5 -106.5t107.5 -45.5q89 0 154 68l162 -174q-127 -156 -340 -156z" />
    <glyph glyph-name="ordfeminine" unicode="&#xaa;" horiz-adv-x="862" 
d="M582 893q-65 -78 -193 -78q-155 0 -249.5 101t-94.5 247t95 247t249 101q129 0 193 -79v67h186v-665h-186v59zM401 993q80 0 123 47.5t43 122.5q0 74 -43 121t-123 47q-76 0 -115.5 -47t-39.5 -121q0 -76 39.5 -123t115.5 -47z" />
    <glyph glyph-name="guillemotleft" unicode="&#xab;" horiz-adv-x="1169" 
d="M41 494l260 387h332l-254 -387l258 -392h-336zM528 494l260 387h332l-254 -387l258 -392h-336z" />
    <glyph glyph-name="logicalnot" unicode="&#xac;" horiz-adv-x="1343" 
d="M1231 881v-688h-352v344h-787v344h1139z" />
    <glyph glyph-name="uni00AD" unicode="&#xad;" horiz-adv-x="811" 
d="M96 698h619v-237h-619v237z" />
    <glyph glyph-name="registered" unicode="&#xae;" horiz-adv-x="1708" 
d="M854 1542q167 0 315.5 -62.5t253.5 -168t166.5 -250.5t61.5 -305t-61.5 -304.5t-166.5 -249.5t-253.5 -167t-315.5 -62t-315.5 62t-253.5 167t-166.5 249.5t-61.5 304.5t61.5 305t166.5 250.5t253.5 168t315.5 62.5zM854 225q229 0 379.5 149.5t150.5 381.5t-151 383
t-379 151t-379 -151t-151 -383t150.5 -381.5t379.5 -149.5zM1161 903q3 -154 -125 -207l156 -309h-242l-125 285h-32v-285h-236v748h342q134 0 197 -63.5t65 -168.5zM793 950v-112h98q55 0 55 53q0 59 -55 59h-98z" />
    <glyph glyph-name="macron" unicode="&#xaf;" horiz-adv-x="983" 
d="M123 1450h737v-276h-737v276z" />
    <glyph glyph-name="degree" unicode="&#xb0;" horiz-adv-x="761" 
d="M721 1196q0 -141 -99.5 -240.5t-240.5 -99.5t-240.5 99.5t-99.5 240.5t99.5 240.5t240.5 99.5t240.5 -99.5t99.5 -240.5zM498 1196q0 49 -34.5 84t-82.5 35q-49 0 -83 -34.5t-34 -84.5t34 -84.5t83 -34.5t83 34.5t34 84.5z" />
    <glyph glyph-name="plusminus" unicode="&#xb1;" horiz-adv-x="1343" 
d="M492 737h-390v344h390v295h352v-295h397v-344h-397v-295h-352v295zM102 365h1139v-345h-1139v345z" />
    <glyph glyph-name="uni00B2" unicode="&#xb2;" horiz-adv-x="804" 
d="M88 829l291 304q33 34 45 56.5t12 49.5q0 22 -12.5 33.5t-32.5 11.5q-21 0 -34 -14.5t-13 -38.5h-276q0 139 96.5 218t238.5 79q152 0 238 -79.5t86 -197.5q0 -72 -28 -128t-97 -130l-127 -135h238v-252h-625v223z" />
    <glyph glyph-name="uni00B3" unicode="&#xb3;" horiz-adv-x="823" 
d="M403 567q-163 0 -265.5 92t-102.5 240h256q5 -40 34.5 -65t73.5 -25t69.5 19t25.5 53q0 35 -27.5 56t-73.5 21h-71v220h55q100 0 100 69q0 66 -65 66q-29 0 -47.5 -18.5t-18.5 -47.5h-254q0 125 94.5 203t245.5 78q137 0 224 -71t87 -183q0 -139 -133 -187
q154 -60 154 -233q0 -123 -103 -205t-258 -82z" />
    <glyph glyph-name="acute" unicode="&#xb4;" horiz-adv-x="907" 
d="M121 1382l579 144l82 -287l-579 -131z" />
    <glyph glyph-name="paragraph" unicode="&#xb6;" horiz-adv-x="1689" 
d="M1106 1208h-131v-1603h-326v841q-95 10 -178 31t-164 62t-138 97.5t-92.5 142.5t-35.5 192q0 83 20.5 160t68 147.5t117 123t174.5 83.5t234 31h965v-308h-188v-1603h-326v1603zM649 1217q-154 0 -225.5 -46t-71.5 -170q0 -131 76 -190.5t221 -69.5v476z" />
    <glyph glyph-name="periodcentered" unicode="&#xb7;" horiz-adv-x="516" 
d="M258 332q-86 0 -141.5 55t-55.5 135t55.5 135.5t141.5 55.5t141.5 -55.5t55.5 -135.5t-55.5 -135t-141.5 -55z" />
    <glyph glyph-name="cedilla" unicode="&#xb8;" horiz-adv-x="759" 
d="M365 -522q-146 0 -242 82l117 141q18 -21 51.5 -35t62.5 -14q68 0 68 39q0 53 -74 53h-170l101 281h180l-43 -119h16q89 0 147 -55t58 -150q0 -98 -74.5 -160.5t-197.5 -62.5z" />
    <glyph glyph-name="uni00B9" unicode="&#xb9;" horiz-adv-x="585" 
d="M201 1264h-166v252h448v-910h-282v658z" />
    <glyph glyph-name="ordmasculine" unicode="&#xba;" horiz-adv-x="794" 
d="M754 1167q0 -145 -103.5 -247.5t-253.5 -102.5q-148 0 -252 100t-104 246t102.5 250.5t253.5 104.5q148 0 252.5 -102t104.5 -249zM399 1010q67 0 110.5 45.5t43.5 111.5t-44 112t-112 46t-111.5 -46.5t-43.5 -113.5q0 -65 44.5 -110t112.5 -45z" />
    <glyph glyph-name="guillemotright" unicode="&#xbb;" horiz-adv-x="1169" 
d="M303 494l-254 387h332l260 -387l-260 -392h-336zM791 494l-254 387h331l260 -387l-260 -392h-336z" />
    <glyph glyph-name="onequarter" unicode="&#xbc;" horiz-adv-x="1724" 
d="M211 1264h-166v252h449v-910h-283v658zM1022 1516h321l-749 -1516h-322zM1339 133h-415v240l317 516h344v-527h82v-229h-82v-133h-246v133zM1180 362h159v261z" />
    <glyph glyph-name="onehalf" unicode="&#xbd;" horiz-adv-x="1765" 
d="M211 1264h-166v252h449v-910h-283v658zM1016 1516h321l-749 -1516h-322zM1065 223l291 303q33 34 45 57t12 50q0 22 -12.5 33.5t-32.5 11.5q-21 0 -34 -14.5t-13 -38.5h-277q0 139 97 218t239 79q152 0 238 -79.5t86 -197.5q0 -72 -28 -128t-97 -130l-127 -135h238v-252
h-625v223z" />
    <glyph glyph-name="threequarters" unicode="&#xbe;" horiz-adv-x="1912" 
d="M414 567q-163 0 -266 92.5t-103 239.5h256q5 -40 35 -65t74 -25t69 19t25 53q0 35 -27.5 56t-73.5 21h-71v220h55q100 0 100 69q0 66 -65 66q-29 0 -47.5 -18.5t-18.5 -47.5h-254q0 125 94.5 203t245.5 78q137 0 224.5 -71t87.5 -183q0 -139 -133 -187q153 -60 153 -233
q0 -123 -102.5 -205t-257.5 -82zM1231 1516h321l-749 -1516h-322zM1528 133h-416v240l318 516h344v-527h81v-229h-81v-133h-246v133zM1368 362h160v261z" />
    <glyph glyph-name="questiondown" unicode="&#xbf;" horiz-adv-x="1069" 
d="M627 752q-88 0 -142.5 52.5t-54.5 137.5t54.5 138t142.5 53t142 -53t54 -138t-54 -137.5t-142 -52.5zM532 -438q-213 0 -345 120t-132 314q0 80 21 145.5t55 108.5t75 78.5t82.5 62.5t75.5 52t55 55.5t21 64.5v68h363v-96q0 -65 -21.5 -119.5t-55.5 -92t-75 -70
t-82.5 -59t-75.5 -52.5t-55.5 -57.5t-21.5 -66.5q0 -127 131 -127q66 0 108.5 43.5t42.5 112.5h328q0 -207 -141.5 -346t-352.5 -139z" />
    <glyph glyph-name="Agrave" unicode="&#xc0;" horiz-adv-x="1540" 
d="M1100 1925l-82 -274l-580 131l82 286zM1128 0l-88 242h-540l-88 -242h-412l575 1516h392l573 -1516h-412zM922 578l-152 483l-154 -483h306z" />
    <glyph glyph-name="Aacute" unicode="&#xc1;" horiz-adv-x="1540" 
d="M1100 1782l-580 -131l-82 274l580 143zM1128 0l-88 242h-540l-88 -242h-412l575 1516h392l573 -1516h-412zM922 578l-152 483l-154 -483h306z" />
    <glyph glyph-name="Acircumflex" unicode="&#xc2;" horiz-adv-x="1540" 
d="M770 1812l-260 -161l-156 213l301 204h230l301 -204l-156 -213zM1128 0l-88 242h-540l-88 -242h-412l575 1516h392l573 -1516h-412zM922 578l-152 483l-154 -483h306z" />
    <glyph glyph-name="Atilde" unicode="&#xc3;" horiz-adv-x="1540" 
d="M651 1782q-67 0 -67 -78h-246q0 164 66 248t208 84q60 0 114.5 -19.5t95.5 -39t67 -19.5q67 0 67 78h246q0 -164 -66 -248t-208 -84q-60 0 -114.5 19.5t-95.5 39t-67 19.5zM1128 0l-88 242h-540l-88 -242h-412l575 1516h392l573 -1516h-412zM922 578l-152 483l-154 -483
h306z" />
    <glyph glyph-name="Adieresis" unicode="&#xc4;" horiz-adv-x="1540" 
d="M483 1638q-101 0 -163 60.5t-62 154.5t62 154.5t163 60.5t163.5 -60.5t62.5 -154.5t-62.5 -154.5t-163.5 -60.5zM1057 1638q-101 0 -163.5 60.5t-62.5 154.5t62.5 154.5t163.5 60.5t163 -60.5t62 -154.5t-62 -154.5t-163 -60.5zM1128 0l-88 242h-540l-88 -242h-412
l575 1516h392l573 -1516h-412zM922 578l-152 483l-154 -483h306z" />
    <glyph glyph-name="Aring" unicode="&#xc5;" horiz-adv-x="1540" 
d="M770 1569q-114 0 -188 72t-74 178q0 104 74 176.5t188 72.5t188 -72.5t74 -176.5q0 -106 -74 -178t-188 -72zM770 1898q-36 0 -59 -23t-23 -56t23 -56.5t59 -23.5t59 23.5t23 56.5t-23 56t-59 23zM1128 0l-88 242h-540l-88 -242h-412l575 1516h392l573 -1516h-412z
M922 578l-152 483l-154 -483h306z" />
    <glyph glyph-name="AE" unicode="&#xc6;" horiz-adv-x="2162" 
d="M2085 1167h-672v-221h545v-348h-545v-250h672v-348h-1065v242h-504l-121 -242h-430l766 1516h1354v-349zM686 578h334v659z" />
    <glyph glyph-name="Ccedilla" unicode="&#xc7;" horiz-adv-x="1435" 
d="M1419 182q-216 -197 -524 -209l-25 -67h17q89 0 147 -55t58 -150q0 -98 -75 -160.5t-198 -62.5q-145 0 -241 82l116 141q18 -21 52 -35t63 -14q68 0 68 39q0 53 -74 53h-170l86 242q-191 31 -342.5 140.5t-235.5 274.5t-84 355q0 160 61.5 304.5t167.5 250.5t257 168.5
t321 62.5q167 0 315 -59.5t257 -165.5l-238 -268q-55 61 -140.5 97t-172.5 36q-194 0 -312 -119t-118 -307t118 -307t312 -119q83 0 162.5 32t142.5 91z" />
    <glyph glyph-name="Egrave" unicode="&#xc8;" horiz-adv-x="1269" 
d="M332 1782l82 286l579 -143l-82 -274zM127 0v1516h1065v-349h-672v-221h545v-348h-545v-250h672v-348h-1065z" />
    <glyph glyph-name="Eacute" unicode="&#xc9;" horiz-adv-x="1269" 
d="M414 1651l-82 274l579 143l82 -286zM127 0v1516h1065v-349h-672v-221h545v-348h-545v-250h672v-348h-1065z" />
    <glyph glyph-name="Ecircumflex" unicode="&#xca;" horiz-adv-x="1269" 
d="M664 1812l-261 -161l-155 213l301 204h229l301 -204l-155 -213zM1192 1167h-672v-221h545v-348h-545v-250h672v-348h-1065v1516h1065v-349z" />
    <glyph glyph-name="Edieresis" unicode="&#xcb;" horiz-adv-x="1269" 
d="M377 1638q-101 0 -163 60.5t-62 154.5t62 154.5t163 60.5t163 -60.5t62 -154.5t-62 -154.5t-163 -60.5zM950 1638q-101 0 -163 60.5t-62 154.5t62 154.5t163 60.5t163.5 -60.5t62.5 -154.5t-62.5 -154.5t-163.5 -60.5zM127 0v1516h1065v-349h-672v-221h545v-348h-545
v-250h672v-348h-1065z" />
    <glyph glyph-name="Igrave" unicode="&#xcc;" horiz-adv-x="647" 
d="M-8 1782l82 286l579 -143l-82 -274zM127 0v1516h393v-1516h-393z" />
    <glyph glyph-name="Iacute" unicode="&#xcd;" horiz-adv-x="647" 
d="M74 1651l-82 274l579 143l82 -286zM127 0v1516h393v-1516h-393z" />
    <glyph glyph-name="Icircumflex" unicode="&#xce;" horiz-adv-x="647" 
d="M438 2068l301 -204l-155 -213l-260 161l-261 -161l-155 213l301 204h229zM127 0v1516h393v-1516h-393z" />
    <glyph glyph-name="Idieresis" unicode="&#xcf;" horiz-adv-x="647" 
d="M37 1638q-101 0 -163 60.5t-62 154.5t62 154.5t163 60.5t163 -60.5t62 -154.5t-62 -154.5t-163 -60.5zM610 1638q-101 0 -163 60.5t-62 154.5t62 154.5t163 60.5t163.5 -60.5t62.5 -154.5t-62.5 -154.5t-163.5 -60.5zM127 0v1516h393v-1516h-393z" />
    <glyph glyph-name="Eth" unicode="&#xd0;" horiz-adv-x="1611" 
d="M729 1516q239 0 426.5 -94.5t292 -267.5t104.5 -396t-104.5 -396t-292 -267.5t-426.5 -94.5h-563v618h-135v277h135v621h563zM717 356q93 0 171 23.5t138.5 70.5t94.5 125.5t34 182.5t-34 182.5t-94.5 125.5t-138.5 70t-171 23h-158v-264h291v-277h-291v-262h158z" />
    <glyph glyph-name="Ntilde" unicode="&#xd1;" horiz-adv-x="1667" 
d="M756 1782q-68 0 -68 -78h-246q0 332 275 332q60 0 114.5 -19.5t95 -39t66.5 -19.5q68 0 68 78h246q0 -332 -275 -332q-60 0 -114.5 19.5t-95 39t-66.5 19.5zM1147 1516h393v-1516h-395l-625 971v-971h-393v1516h448l572 -895v895z" />
    <glyph glyph-name="Ograve" unicode="&#xd2;" horiz-adv-x="1728" 
d="M532 1782l82 286l580 -143l-82 -274zM864 -27q-170 0 -320.5 62t-257 167t-168 249.5t-61.5 304.5t61.5 304.5t167.5 250.5t257 168.5t321 62.5t321 -62.5t257 -168.5t167.5 -250.5t61.5 -304.5t-61.5 -304.5t-168 -249.5t-257 -167t-320.5 -62zM864 334q181 0 295.5 118
t114.5 304q0 187 -114.5 306.5t-295.5 119.5t-295 -119.5t-114 -306.5q0 -186 114 -304t295 -118z" />
    <glyph glyph-name="Oacute" unicode="&#xd3;" horiz-adv-x="1728" 
d="M614 1651l-82 274l580 143l82 -286zM864 -27q-170 0 -320.5 62t-257 167t-168 249.5t-61.5 304.5t61.5 304.5t167.5 250.5t257 168.5t321 62.5t321 -62.5t257 -168.5t167.5 -250.5t61.5 -304.5t-61.5 -304.5t-168 -249.5t-257 -167t-320.5 -62zM864 334q181 0 295.5 118
t114.5 304q0 187 -114.5 306.5t-295.5 119.5t-295 -119.5t-114 -306.5q0 -186 114 -304t295 -118z" />
    <glyph glyph-name="Ocircumflex" unicode="&#xd4;" horiz-adv-x="1728" 
d="M864 1812l-260 -161l-155 213l301 204h229l301 -204l-156 -213zM864 1542q170 0 321 -62.5t257 -168.5t167.5 -250.5t61.5 -304.5t-61.5 -304.5t-168 -249.5t-257 -167t-320.5 -62t-320.5 62t-257 167t-168 249.5t-61.5 304.5t61.5 304.5t167.5 250.5t257 168.5t321 62.5
zM864 334q181 0 295.5 118t114.5 304q0 187 -114.5 306.5t-295.5 119.5t-295 -119.5t-114 -306.5q0 -186 114 -304t295 -118z" />
    <glyph glyph-name="Otilde" unicode="&#xd5;" horiz-adv-x="1728" 
d="M432 1704q0 332 275 332q60 0 114.5 -19.5t95 -39t66.5 -19.5q68 0 68 78h245q0 -164 -66 -248t-208 -84q-60 0 -114.5 19.5t-95.5 39t-67 19.5q-67 0 -67 -78h-246zM864 -27q-170 0 -320.5 62t-257 167t-168 249.5t-61.5 304.5t61.5 304.5t167.5 250.5t257 168.5
t321 62.5t321 -62.5t257 -168.5t167.5 -250.5t61.5 -304.5t-61.5 -304.5t-168 -249.5t-257 -167t-320.5 -62zM864 334q181 0 295.5 118t114.5 304q0 187 -114.5 306.5t-295.5 119.5t-295 -119.5t-114 -306.5q0 -186 114 -304t295 -118z" />
    <glyph glyph-name="Odieresis" unicode="&#xd6;" horiz-adv-x="1728" 
d="M578 1638q-101 0 -163.5 60.5t-62.5 154.5t62.5 154.5t163.5 60.5t163 -60.5t62 -154.5t-62 -154.5t-163 -60.5zM1151 1638q-101 0 -163 60.5t-62 154.5t62 154.5t163 60.5t163 -60.5t62 -154.5t-62 -154.5t-163 -60.5zM864 -27q-170 0 -320.5 62t-257 167t-168 249.5
t-61.5 304.5t61.5 304.5t167.5 250.5t257 168.5t321 62.5t321 -62.5t257 -168.5t167.5 -250.5t61.5 -304.5t-61.5 -304.5t-168 -249.5t-257 -167t-320.5 -62zM864 334q181 0 295.5 118t114.5 304q0 187 -114.5 306.5t-295.5 119.5t-295 -119.5t-114 -306.5q0 -186 114 -304
t295 -118z" />
    <glyph glyph-name="multiply" unicode="&#xd7;" horiz-adv-x="1343" 
d="M123 395l315 314l-315 315l233 233l316 -315l313 313l234 -233l-314 -313l316 -316l-234 -233l-315 315l-314 -313z" />
    <glyph glyph-name="Oslash" unicode="&#xd8;" horiz-adv-x="1740" 
d="M1714 1354l-166 -166q129 -197 129 -432q0 -160 -61.5 -304.5t-168 -249.5t-257 -167t-320.5 -62q-234 0 -424 113l-174 -174l-247 250l165 166q-127 190 -127 428q0 160 61.5 304.5t167.5 250.5t257 168.5t321 62.5q234 0 422 -112l174 174zM461 756q0 -76 18 -140
l541 541q-70 25 -150 25q-181 0 -295 -119.5t-114 -306.5zM1280 756q0 79 -20 143l-541 -541q70 -24 151 -24q181 0 295.5 118t114.5 304z" />
    <glyph glyph-name="Ugrave" unicode="&#xd9;" horiz-adv-x="1568" 
d="M473 1782l82 286l580 -143l-82 -274zM784 -27q-321 0 -498 189.5t-177 548.5v805h393v-791q0 -205 66 -300t216 -95t216.5 95t66.5 300v791h393v-805q0 -359 -177.5 -548.5t-498.5 -189.5z" />
    <glyph glyph-name="Uacute" unicode="&#xda;" horiz-adv-x="1568" 
d="M555 1651l-82 274l580 143l82 -286zM784 -27q-321 0 -498 189.5t-177 548.5v805h393v-791q0 -205 66 -300t216 -95t216.5 95t66.5 300v791h393v-805q0 -359 -177.5 -548.5t-498.5 -189.5z" />
    <glyph glyph-name="Ucircumflex" unicode="&#xdb;" horiz-adv-x="1568" 
d="M805 1812l-260 -161l-156 213l301 204h230l301 -204l-156 -213zM1067 1516h393v-805q0 -359 -177.5 -548.5t-498.5 -189.5t-498 189.5t-177 548.5v805h393v-791q0 -205 66 -300t216 -95t216.5 95t66.5 300v791z" />
    <glyph glyph-name="Udieresis" unicode="&#xdc;" horiz-adv-x="1568" 
d="M518 1638q-101 0 -163 60.5t-62 154.5t62 154.5t163 60.5t163 -60.5t62 -154.5t-62 -154.5t-163 -60.5zM1092 1638q-101 0 -163.5 60.5t-62.5 154.5t62.5 154.5t163.5 60.5t163 -60.5t62 -154.5t-62 -154.5t-163 -60.5zM784 -27q-321 0 -498 189.5t-177 548.5v805h393
v-791q0 -205 66 -300t216 -95t216.5 95t66.5 300v791h393v-805q0 -359 -177.5 -548.5t-498.5 -189.5z" />
    <glyph glyph-name="Yacute" unicode="&#xdd;" horiz-adv-x="1476" 
d="M1069 1782l-580 -131l-81 274l579 143zM1036 1516h426l-528 -914v-602h-391v600l-529 916h426l297 -547z" />
    <glyph glyph-name="Thorn" unicode="&#xde;" horiz-adv-x="1343" 
d="M688 1288q286 0 444 -142t158 -382q0 -241 -158 -383.5t-444 -142.5h-172v-238h-389v1516h389v-228h172zM672 555q120 0 174.5 57t54.5 150t-54.5 151t-174.5 58h-156v-416h156z" />
    <glyph glyph-name="germandbls" unicode="&#xdf;" horiz-adv-x="1271" 
d="M971 817q113 -38 183.5 -133t70.5 -244q0 -201 -152.5 -320.5t-439.5 -119.5h-43v307h37q118 0 166.5 37.5t48.5 116.5q0 168 -217 168h-35v307h53q54 0 90.5 35.5t36.5 93.5q0 61 -35.5 97t-95.5 36q-77 0 -117.5 -51.5t-40.5 -136.5v-1010h-383v997q0 100 36.5 195
t105 172.5t179 124.5t245.5 47q116 0 209.5 -35t150.5 -93.5t87 -130.5t30 -151q0 -69 -17 -125.5t-46 -92.5t-54 -56.5t-53 -34.5z" />
    <glyph glyph-name="agrave" unicode="&#xe0;" horiz-adv-x="1249" 
d="M952 1382l-82 -274l-579 131l82 287zM762 973h389v-973h-389v78q-80 -96 -246 -96q-196 0 -331.5 146.5t-135.5 358.5q0 211 135.5 357.5t331.5 146.5q166 0 246 -96v78zM604 322q69 0 113.5 47.5t44.5 117.5q0 69 -44.5 116.5t-113.5 47.5q-70 0 -116 -48t-46 -116
q0 -70 46 -117.5t116 -47.5z" />
    <glyph glyph-name="aacute" unicode="&#xe1;" horiz-adv-x="1249" 
d="M950 1239l-579 -131l-82 274l579 144zM762 973h389v-973h-389v78q-80 -96 -246 -96q-196 0 -331.5 146.5t-135.5 358.5q0 211 135.5 357.5t331.5 146.5q166 0 246 -96v78zM604 322q69 0 113.5 47.5t44.5 117.5q0 69 -44.5 116.5t-113.5 47.5q-70 0 -116 -48t-46 -116
q0 -70 46 -117.5t116 -47.5z" />
    <glyph glyph-name="acircumflex" unicode="&#xe2;" horiz-adv-x="1249" 
d="M623 1280l-261 -172l-155 213l321 205h189l321 -205l-155 -213zM762 973h389v-973h-389v78q-80 -96 -246 -96q-196 0 -331.5 146.5t-135.5 358.5q0 211 135.5 357.5t331.5 146.5q166 0 246 -96v78zM604 322q69 0 113.5 47.5t44.5 117.5q0 69 -44.5 116.5t-113.5 47.5
q-70 0 -116 -48t-46 -116q0 -70 46 -117.5t116 -47.5z" />
    <glyph glyph-name="atilde" unicode="&#xe3;" horiz-adv-x="1249" 
d="M504 1219q-68 0 -68 -78h-246q0 332 275 332q60 0 114.5 -19.5t95 -39t66.5 -19.5q68 0 68 78h246q0 -332 -275 -332q-60 0 -114.5 19.5t-95 39t-66.5 19.5zM762 973h389v-973h-389v78q-80 -96 -246 -96q-196 0 -331.5 146.5t-135.5 358.5q0 211 135.5 357.5t331.5 146.5
q166 0 246 -96v78zM604 322q69 0 113.5 47.5t44.5 117.5q0 69 -44.5 116.5t-113.5 47.5q-70 0 -116 -48t-46 -116q0 -70 46 -117.5t116 -47.5z" />
    <glyph glyph-name="adieresis" unicode="&#xe4;" horiz-adv-x="1249" 
d="M356 1104q-101 0 -163 60.5t-62 154.5t62 154.5t163 60.5t163.5 -60.5t62.5 -154.5t-62.5 -154.5t-163.5 -60.5zM889 1104q-101 0 -163 60.5t-62 154.5t62 154.5t163 60.5t163 -60.5t62 -154.5t-62 -154.5t-163 -60.5zM762 973h389v-973h-389v78q-80 -96 -246 -96
q-196 0 -331.5 146.5t-135.5 358.5q0 211 135.5 357.5t331.5 146.5q166 0 246 -96v78zM604 322q69 0 113.5 47.5t44.5 117.5q0 69 -44.5 116.5t-113.5 47.5q-70 0 -116 -48t-46 -116q0 -70 46 -117.5t116 -47.5z" />
    <glyph glyph-name="aring" unicode="&#xe5;" horiz-adv-x="1249" 
d="M623 1026q-114 0 -188.5 72t-74.5 178q0 104 74.5 177t188.5 73t188 -72.5t74 -177.5q0 -106 -74 -178t-188 -72zM623 1356q-36 0 -59 -23.5t-23 -56.5t23 -56.5t59 -23.5t59 23.5t23 56.5t-23 56.5t-59 23.5zM762 973h389v-973h-389v78q-80 -96 -246 -96
q-196 0 -331.5 146.5t-135.5 358.5q0 211 135.5 357.5t331.5 146.5q166 0 246 -96v78zM604 322q69 0 113.5 47.5t44.5 117.5q0 69 -44.5 116.5t-113.5 47.5q-70 0 -116 -48t-46 -116q0 -70 46 -117.5t116 -47.5z" />
    <glyph glyph-name="ae" unicode="&#xe6;" horiz-adv-x="1882" 
d="M1163 393q39 -133 217 -133q134 0 207 86l205 -180q-77 -87 -183.5 -135.5t-228.5 -48.5q-139 0 -229 71v-53h-389v78q-80 -96 -246 -96q-196 0 -331.5 146.5t-135.5 358.5q0 211 135.5 357.5t331.5 146.5q166 0 246 -96v78h389v-53q90 71 229 71q204 0 329.5 -139
t125.5 -365q0 -40 -4 -94h-668zM1329 733q-138 0 -168 -145h336q-30 145 -168 145zM604 322q69 0 113.5 47.5t44.5 117.5q0 69 -44.5 116.5t-113.5 47.5q-70 0 -116 -48t-46 -116q0 -70 46 -117.5t116 -47.5z" />
    <glyph glyph-name="ccedilla" unicode="&#xe7;" horiz-adv-x="1046" 
d="M614 322q65 0 108.5 24.5t78.5 75.5l229 -242q-150 -192 -409 -198l-27 -76h16q89 0 147 -55t58 -150q0 -98 -74.5 -160.5t-197.5 -62.5q-146 0 -242 82l117 141q18 -21 51.5 -35t62.5 -14q68 0 68 39q0 53 -74 53h-170l93 256q-182 43 -292 174.5t-110 312.5
q0 145 71.5 260.5t199 180.5t286.5 65q270 0 426 -198l-229 -242q-35 51 -78.5 75.5t-108.5 24.5q-78 0 -126 -47.5t-48 -118.5t48 -118t126 -47z" />
    <glyph glyph-name="egrave" unicode="&#xe8;" horiz-adv-x="1126" 
d="M893 1382l-82 -274l-580 131l82 287zM408 393q39 -133 217 -133q133 0 206 86l205 -180q-163 -184 -432 -184q-258 0 -407.5 143t-149.5 362q0 215 143 359.5t373 144.5q234 0 375 -138.5t141 -365.5q0 -40 -4 -94h-667zM573 733q-137 0 -167 -145h335q-30 145 -168 145z
" />
    <glyph glyph-name="eacute" unicode="&#xe9;" horiz-adv-x="1126" 
d="M891 1239l-580 -131l-82 274l580 144zM408 393q39 -133 217 -133q133 0 206 86l205 -180q-163 -184 -432 -184q-258 0 -407.5 143t-149.5 362q0 215 143 359.5t373 144.5q234 0 375 -138.5t141 -365.5q0 -40 -4 -94h-667zM573 733q-137 0 -167 -145h335q-30 145 -168 145
z" />
    <glyph glyph-name="ecircumflex" unicode="&#xea;" horiz-adv-x="1126" 
d="M563 1280l-260 -172l-156 213l322 205h188l322 -205l-156 -213zM408 393q39 -133 217 -133q133 0 206 86l205 -180q-163 -184 -432 -184q-258 0 -407.5 143t-149.5 362q0 215 143 359.5t373 144.5q234 0 375 -138.5t141 -365.5q0 -40 -4 -94h-667zM573 733
q-137 0 -167 -145h335q-30 145 -168 145z" />
    <glyph glyph-name="edieresis" unicode="&#xeb;" horiz-adv-x="1126" 
d="M297 1104q-101 0 -163 60.5t-62 154.5t62 154.5t163 60.5t163 -60.5t62 -154.5t-62 -154.5t-163 -60.5zM829 1104q-101 0 -163 60.5t-62 154.5t62 154.5t163 60.5t163.5 -60.5t62.5 -154.5t-62.5 -154.5t-163.5 -60.5zM408 393q39 -133 217 -133q133 0 206 86l205 -180
q-163 -184 -432 -184q-258 0 -407.5 143t-149.5 362q0 215 143 359.5t373 144.5q234 0 375 -138.5t141 -365.5q0 -40 -4 -94h-667zM573 733q-137 0 -167 -145h335q-30 145 -168 145z" />
    <glyph glyph-name="igrave" unicode="&#xec;" horiz-adv-x="585" 
d="M-31 1239l82 287l580 -144l-82 -274zM98 973h389v-973h-389v973z" />
    <glyph glyph-name="iacute" unicode="&#xed;" horiz-adv-x="585" 
d="M-33 1382l580 144l82 -287l-580 -131zM98 973h389v-973h-389v973z" />
    <glyph glyph-name="icircumflex" unicode="&#xee;" horiz-adv-x="585" 
d="M395 1526l322 -205l-156 -213l-260 172l-260 -172l-156 213l322 205h188zM98 0v973h389v-973h-389z" />
    <glyph glyph-name="idieresis" unicode="&#xef;" horiz-adv-x="585" 
d="M35 1104q-101 0 -163 60.5t-62 154.5t62 154.5t163 60.5t163 -60.5t62 -154.5t-62 -154.5t-163 -60.5zM567 1104q-101 0 -163 60.5t-62 154.5t62 154.5t163 60.5t163.5 -60.5t62.5 -154.5t-62.5 -154.5t-163.5 -60.5zM98 973h389v-973h-389v973z" />
    <glyph glyph-name="eth" unicode="&#xf0;" horiz-adv-x="1193" 
d="M1020 864q127 -205 127 -377q0 -213 -157.5 -359t-403.5 -146q-233 0 -386 146.5t-153 358.5q0 191 129.5 319t319.5 128q43 0 61 -2l-78 123l-203 -54l-71 267l121 32l-133 216h419l76 -119l186 49l72 -266l-106 -29zM602 317q77 0 122.5 49.5t45.5 120.5
q0 69 -46 118.5t-122 49.5q-75 0 -120.5 -49.5t-45.5 -118.5q0 -71 46 -120.5t120 -49.5z" />
    <glyph glyph-name="ntilde" unicode="&#xf1;" horiz-adv-x="1212" 
d="M512 1219q-68 0 -68 -78h-245q0 164 66 248t208 84q60 0 114.5 -19.5t95.5 -39t67 -19.5q67 0 67 78h246q0 -332 -275 -332q-60 0 -114.5 19.5t-95 39t-66.5 19.5zM756 991q161 0 264.5 -109t103.5 -302v-580h-389v479q0 86 -30 125t-93 39q-125 0 -125 -143v-500h-389
v973h389v-78q51 49 111.5 72.5t157.5 23.5z" />
    <glyph glyph-name="ograve" unicode="&#xf2;" horiz-adv-x="1208" 
d="M272 1239l82 287l580 -144l-82 -274zM604 -18q-127 0 -233 40.5t-176.5 110t-109 161t-38.5 193.5q0 81 24 156t72 138t114.5 110t155.5 73.5t191 26.5t191 -26.5t155.5 -73.5t114.5 -110t72 -138t24 -156q0 -102 -38.5 -193.5t-109 -161t-176.5 -110t-233 -40.5z
M604 322q75 0 119.5 46t44.5 119q0 72 -44.5 118t-119.5 46t-119.5 -46t-44.5 -118q0 -73 44.5 -119t119.5 -46z" />
    <glyph glyph-name="oacute" unicode="&#xf3;" horiz-adv-x="1208" 
d="M270 1382l580 144l82 -287l-580 -131zM604 -18q-127 0 -233 40.5t-176.5 110t-109 161t-38.5 193.5q0 81 24 156t72 138t114.5 110t155.5 73.5t191 26.5t191 -26.5t155.5 -73.5t114.5 -110t72 -138t24 -156q0 -102 -38.5 -193.5t-109 -161t-176.5 -110t-233 -40.5z
M604 322q75 0 119.5 46t44.5 119q0 72 -44.5 118t-119.5 46t-119.5 -46t-44.5 -118q0 -73 44.5 -119t119.5 -46z" />
    <glyph glyph-name="ocircumflex" unicode="&#xf4;" horiz-adv-x="1208" 
d="M604 1280l-260 -172l-156 213l322 205h188l322 -205l-156 -213zM604 991q102 0 191 -26.5t155.5 -73.5t114.5 -110t72 -138t24 -156q0 -102 -38.5 -193.5t-109 -161t-176.5 -110t-233 -40.5t-233 40.5t-176.5 110t-109 161t-38.5 193.5q0 81 24 156t72 138t114.5 110
t155.5 73.5t191 26.5zM604 322q75 0 119.5 46t44.5 119q0 72 -44.5 118t-119.5 46t-119.5 -46t-44.5 -118q0 -73 44.5 -119t119.5 -46z" />
    <glyph glyph-name="otilde" unicode="&#xf5;" horiz-adv-x="1208" 
d="M172 1141q0 164 66 248t208 84q60 0 114.5 -19.5t95.5 -39t67 -19.5q68 0 68 78h245q0 -164 -66 -248t-208 -84q-60 0 -114.5 19.5t-95.5 39t-67 19.5q-67 0 -67 -78h-246zM604 -18q-127 0 -233 40.5t-176.5 110t-109 161t-38.5 193.5q0 81 24 156t72 138t114.5 110
t155.5 73.5t191 26.5t191 -26.5t155.5 -73.5t114.5 -110t72 -138t24 -156q0 -102 -38.5 -193.5t-109 -161t-176.5 -110t-233 -40.5zM604 322q75 0 119.5 46t44.5 119q0 72 -44.5 118t-119.5 46t-119.5 -46t-44.5 -118q0 -73 44.5 -119t119.5 -46z" />
    <glyph glyph-name="odieresis" unicode="&#xf6;" horiz-adv-x="1208" 
d="M338 1104q-101 0 -163 60.5t-62 154.5t62 154.5t163 60.5t163 -60.5t62 -154.5t-62 -154.5t-163 -60.5zM870 1104q-101 0 -163 60.5t-62 154.5t62 154.5t163 60.5t163.5 -60.5t62.5 -154.5t-62.5 -154.5t-163.5 -60.5zM604 -18q-127 0 -233 40.5t-176.5 110t-109 161
t-38.5 193.5q0 81 24 156t72 138t114.5 110t155.5 73.5t191 26.5t191 -26.5t155.5 -73.5t114.5 -110t72 -138t24 -156q0 -102 -38.5 -193.5t-109 -161t-176.5 -110t-233 -40.5zM604 322q75 0 119.5 46t44.5 119q0 72 -44.5 118t-119.5 46t-119.5 -46t-44.5 -118
q0 -73 44.5 -119t119.5 -46z" />
    <glyph glyph-name="divide" unicode="&#xf7;" horiz-adv-x="1343" 
d="M672 938q-89 0 -143 53.5t-54 136.5t54 137t143 54t142.5 -54t53.5 -137t-53.5 -136.5t-142.5 -53.5zM102 881h1139v-344h-1139v344zM672 98q-89 0 -143 54t-54 137t54 136.5t143 53.5t142.5 -53.5t53.5 -136.5t-53.5 -137t-142.5 -54z" />
    <glyph glyph-name="oslash" unicode="&#xf8;" horiz-adv-x="1224" 
d="M1202 868l-110 -110q77 -121 77 -271q0 -102 -38.5 -193.5t-109 -161t-176.5 -110t-233 -40.5q-141 0 -250 47l-131 -131l-208 211l110 110q-78 119 -78 268q0 81 24 156t72 138t114.5 110t155.5 73.5t191 26.5q136 0 248 -45l133 133zM612 322q75 0 119.5 46t44.5 119
q0 72 -44.5 118t-119.5 46t-119 -46t-44 -118q0 -73 44 -119t119 -46z" />
    <glyph glyph-name="ugrave" unicode="&#xf9;" horiz-adv-x="1183" 
d="M260 1239l82 287l580 -144l-82 -274zM590 -18q-126 0 -224.5 36t-159 101t-91.5 150t-31 186v518h389v-479q0 -88 28 -126t91 -38t91 38t28 126v479h389v-518q0 -101 -31.5 -186t-93 -150t-160.5 -101t-225 -36z" />
    <glyph glyph-name="uacute" unicode="&#xfa;" horiz-adv-x="1183" 
d="M258 1382l580 144l82 -287l-580 -131zM590 -18q-126 0 -224.5 36t-159 101t-91.5 150t-31 186v518h389v-479q0 -88 28 -126t91 -38t91 38t28 126v479h389v-518q0 -101 -31.5 -186t-93 -150t-160.5 -101t-225 -36z" />
    <glyph glyph-name="ucircumflex" unicode="&#xfb;" horiz-adv-x="1183" 
d="M592 1280l-260 -172l-156 213l322 205h188l322 -205l-156 -213zM711 973h389v-518q0 -101 -31.5 -186t-93 -150t-160.5 -101t-225 -36t-224.5 36t-159 101t-91.5 150t-31 186v518h389v-479q0 -88 28 -126t91 -38t91 38t28 126v479z" />
    <glyph glyph-name="udieresis" unicode="&#xfc;" horiz-adv-x="1183" 
d="M326 1104q-101 0 -163.5 60.5t-62.5 154.5t62.5 154.5t163.5 60.5t163 -60.5t62 -154.5t-62 -154.5t-163 -60.5zM858 1104q-101 0 -163 60.5t-62 154.5t62 154.5t163 60.5t163 -60.5t62 -154.5t-62 -154.5t-163 -60.5zM590 -18q-126 0 -224.5 36t-159 101t-91.5 150
t-31 186v518h389v-479q0 -88 28 -126t91 -38t91 38t28 126v479h389v-518q0 -101 -31.5 -186t-93 -150t-160.5 -101t-225 -36z" />
    <glyph glyph-name="yacute" unicode="&#xfd;" horiz-adv-x="1140" 
d="M897 1239l-580 -131l-81 274l579 144zM731 973h399l-509 -1491h-383l153 434l-385 1057h400l167 -611z" />
    <glyph glyph-name="thorn" unicode="&#xfe;" horiz-adv-x="1249" 
d="M733 991q196 0 331.5 -146.5t135.5 -357.5q0 -212 -135.5 -358.5t-331.5 -146.5q-166 0 -246 96v-596h-389v2034h389v-621q80 96 246 96zM645 322q70 0 116 47.5t46 117.5q0 68 -46 116t-116 48q-69 0 -113.5 -47.5t-44.5 -116.5q0 -70 44.5 -117.5t113.5 -47.5z" />
    <glyph glyph-name="ydieresis" unicode="&#xff;" horiz-adv-x="1140" 
d="M303 1104q-101 0 -163 60.5t-62 154.5t62 154.5t163 60.5t163 -60.5t62 -154.5t-62 -154.5t-163 -60.5zM836 1104q-101 0 -163.5 60.5t-62.5 154.5t62.5 154.5t163.5 60.5t163 -60.5t62 -154.5t-62 -154.5t-163 -60.5zM731 973h399l-509 -1491h-383l153 434l-385 1057
h400l167 -611z" />
    <glyph glyph-name="Amacron" unicode="&#x100;" horiz-adv-x="1540" 
d="M1139 2001v-277h-738v277h738zM1128 0l-88 242h-540l-88 -242h-412l575 1516h392l573 -1516h-412zM922 578l-152 483l-154 -483h306z" />
    <glyph glyph-name="amacron" unicode="&#x101;" horiz-adv-x="1249" 
d="M991 1450v-276h-737v276h737zM762 973h389v-973h-389v78q-80 -96 -246 -96q-196 0 -331.5 146.5t-135.5 358.5q0 211 135.5 357.5t331.5 146.5q166 0 246 -96v78zM604 322q69 0 113.5 47.5t44.5 117.5q0 69 -44.5 116.5t-113.5 47.5q-70 0 -116 -48t-46 -116
q0 -70 46 -117.5t116 -47.5z" />
    <glyph glyph-name="Abreve" unicode="&#x102;" horiz-adv-x="1540" 
d="M770 1651q-185 0 -291 110.5t-106 286.5h260q0 -64 34.5 -99.5t102.5 -35.5t102.5 35.5t34.5 99.5h260q0 -176 -106.5 -286.5t-290.5 -110.5zM1128 0l-88 242h-540l-88 -242h-412l575 1516h392l573 -1516h-412zM922 578l-152 483l-154 -483h306z" />
    <glyph glyph-name="abreve" unicode="&#x103;" horiz-adv-x="1249" 
d="M623 1108q-171 0 -274 111.5t-103 285.5h239q0 -65 35.5 -105t102.5 -40t102 39.5t35 105.5h239q0 -174 -103 -285.5t-273 -111.5zM762 973h389v-973h-389v78q-80 -96 -246 -96q-196 0 -331.5 146.5t-135.5 358.5q0 211 135.5 357.5t331.5 146.5q166 0 246 -96v78z
M604 322q69 0 113.5 47.5t44.5 117.5q0 69 -44.5 116.5t-113.5 47.5q-70 0 -116 -48t-46 -116q0 -70 46 -117.5t116 -47.5z" />
    <glyph glyph-name="Aogonek" unicode="&#x104;" horiz-adv-x="1540" 
d="M1372 -176q0 -98 107 -98q34 0 61 8v-215q-73 -23 -156 -23q-135 0 -212.5 66.5t-77.5 177.5q0 179 161 260h-127l-88 242h-540l-88 -242h-412l575 1516h392l573 -1516h-65q-54 -44 -78.5 -85t-24.5 -91zM922 578l-152 483l-154 -483h306z" />
    <glyph glyph-name="aogonek" unicode="&#x105;" horiz-adv-x="1249" 
d="M1085 0q-53 -43 -77.5 -84.5t-24.5 -91.5q0 -98 107 -98q34 0 61 8v-215q-73 -23 -156 -23q-135 0 -212.5 66.5t-77.5 177.5q0 179 161 260h-104v78q-80 -96 -246 -96q-196 0 -331.5 146.5t-135.5 358.5q0 211 135.5 357.5t331.5 146.5q166 0 246 -96v78h389v-973h-66z
M604 322q69 0 113.5 47.5t44.5 117.5q0 69 -44.5 116.5t-113.5 47.5q-70 0 -116 -48t-46 -116q0 -70 46 -117.5t116 -47.5z" />
    <glyph glyph-name="Cacute" unicode="&#x106;" horiz-adv-x="1435" 
d="M612 1651l-82 274l580 143l82 -286zM864 -27q-170 0 -320.5 62t-257 167t-168 249.5t-61.5 304.5t61.5 304.5t167.5 250.5t257 168.5t321 62.5q167 0 315 -59.5t257 -165.5l-238 -268q-55 61 -140.5 97t-172.5 36q-194 0 -312 -119t-118 -307t118 -307t312 -119
q83 0 162.5 32t142.5 91l229 -271q-108 -99 -250.5 -154t-304.5 -55z" />
    <glyph glyph-name="cacute" unicode="&#x107;" horiz-adv-x="1046" 
d="M252 1382l579 144l82 -287l-579 -131zM604 -18q-119 0 -222.5 38t-177 104.5t-115.5 160.5t-42 202q0 145 71.5 260.5t199 180.5t286.5 65q270 0 426 -198l-229 -242q-35 51 -78.5 75.5t-108.5 24.5q-78 0 -126 -47.5t-48 -118.5t48 -118t126 -47q65 0 108.5 24.5
t78.5 75.5l229 -242q-156 -198 -426 -198z" />
    <glyph glyph-name="Cdotaccent" unicode="&#x10a;" horiz-adv-x="1435" 
d="M862 1602q-109 0 -176.5 66t-67.5 167t67.5 167t176.5 66t176.5 -66t67.5 -167t-67.5 -167t-176.5 -66zM864 -27q-170 0 -320.5 62t-257 167t-168 249.5t-61.5 304.5t61.5 304.5t167.5 250.5t257 168.5t321 62.5q167 0 315 -59.5t257 -165.5l-238 -268q-55 61 -140.5 97
t-172.5 36q-194 0 -312 -119t-118 -307t118 -307t312 -119q83 0 162.5 32t142.5 91l229 -271q-108 -99 -250.5 -154t-304.5 -55z" />
    <glyph glyph-name="cdotaccent" unicode="&#x10b;" horiz-adv-x="1046" 
d="M586 1096q-104 0 -169 64t-65 161t65 161t169 64t168.5 -64t64.5 -161t-64.5 -161t-168.5 -64zM604 -18q-119 0 -222.5 38t-177 104.5t-115.5 160.5t-42 202q0 145 71.5 260.5t199 180.5t286.5 65q270 0 426 -198l-229 -242q-35 51 -78.5 75.5t-108.5 24.5
q-78 0 -126 -47.5t-48 -118.5t48 -118t126 -47q65 0 108.5 24.5t78.5 75.5l229 -242q-156 -198 -426 -198z" />
    <glyph glyph-name="Ccaron" unicode="&#x10c;" horiz-adv-x="1435" 
d="M768 1651l-322 204l156 213l260 -172l260 172l156 -213l-322 -204h-188zM885 330q83 0 162.5 32t142.5 91l229 -271q-108 -99 -250.5 -154t-304.5 -55q-170 0 -320.5 62t-257 167t-168 249.5t-61.5 304.5t61.5 304.5t167.5 250.5t257 168.5t321 62.5q167 0 315 -59.5
t257 -165.5l-238 -268q-55 61 -140.5 97t-172.5 36q-194 0 -312 -119t-118 -307t118 -307t312 -119z" />
    <glyph glyph-name="ccaron" unicode="&#x10d;" horiz-adv-x="1046" 
d="M492 1108l-322 205l156 213l260 -172l260 172l155 -213l-321 -205h-188zM614 322q65 0 108.5 24.5t78.5 75.5l229 -242q-156 -198 -426 -198q-119 0 -222.5 38t-177 104.5t-115.5 160.5t-42 202q0 145 71.5 260.5t199 180.5t286.5 65q270 0 426 -198l-229 -242
q-35 51 -78.5 75.5t-108.5 24.5q-78 0 -126 -47.5t-48 -118.5t48 -118t126 -47z" />
    <glyph glyph-name="Dcaron" unicode="&#x10e;" horiz-adv-x="1572" 
d="M649 1651l-321 204l155 213l260 -172l261 172l155 -213l-321 -204h-189zM690 1516q239 0 426.5 -94.5t292 -267.5t104.5 -396t-104.5 -396t-292 -267.5t-426.5 -94.5h-563v1516h563zM678 356q93 0 171 23.5t138.5 70.5t94.5 125.5t34 182.5t-34 182.5t-94.5 125.5
t-138.5 70t-171 23h-158v-803h158z" />
    <glyph glyph-name="dcaron" unicode="&#x10f;" horiz-adv-x="1249" 
d="M762 895v621h389v-1516h-389v78q-80 -96 -246 -96q-196 0 -331.5 146.5t-135.5 358.5q0 211 135.5 357.5t331.5 146.5q166 0 246 -96zM1284 1516h287l-72 -512h-276zM604 322q69 0 113.5 47.5t44.5 117.5q0 69 -44.5 116.5t-113.5 47.5q-70 0 -116 -48t-46 -116
q0 -70 46 -117.5t116 -47.5z" />
    <glyph glyph-name="Dcroat" unicode="&#x110;" horiz-adv-x="1611" 
d="M729 1516q239 0 426.5 -94.5t292 -267.5t104.5 -396t-104.5 -396t-292 -267.5t-426.5 -94.5h-563v618h-135v277h135v621h563zM717 356q93 0 171 23.5t138.5 70.5t94.5 125.5t34 182.5t-34 182.5t-94.5 125.5t-138.5 70t-171 23h-158v-264h291v-277h-291v-262h158z" />
    <glyph glyph-name="dcroat" unicode="&#x111;" horiz-adv-x="1249" 
d="M1305 1399v-277h-154v-1122h-389v78q-80 -96 -246 -96q-196 0 -331.5 146.5t-135.5 358.5q0 211 135.5 357.5t331.5 146.5q166 0 246 -96v227h-277v277h277v117h389v-117h154zM604 322q69 0 113.5 47.5t44.5 117.5q0 69 -44.5 116.5t-113.5 47.5q-70 0 -116 -48t-46 -116
q0 -70 46 -117.5t116 -47.5z" />
    <glyph glyph-name="Emacron" unicode="&#x112;" horiz-adv-x="1269" 
d="M295 2001h737v-277h-737v277zM127 0v1516h1065v-349h-672v-221h545v-348h-545v-250h672v-348h-1065z" />
    <glyph glyph-name="emacron" unicode="&#x113;" horiz-adv-x="1126" 
d="M932 1450v-276h-737v276h737zM408 393q39 -133 217 -133q133 0 206 86l205 -180q-163 -184 -432 -184q-258 0 -407.5 143t-149.5 362q0 215 143 359.5t373 144.5q234 0 375 -138.5t141 -365.5q0 -40 -4 -94h-667zM573 733q-137 0 -167 -145h335q-30 145 -168 145z" />
    <glyph glyph-name="Edotaccent" unicode="&#x116;" horiz-adv-x="1269" 
d="M664 1602q-109 0 -176.5 66t-67.5 167t67.5 167t176.5 66t176 -66t67 -167t-67 -167t-176 -66zM127 0v1516h1065v-349h-672v-221h545v-348h-545v-250h672v-348h-1065z" />
    <glyph glyph-name="edotaccent" unicode="&#x117;" horiz-adv-x="1126" 
d="M563 1096q-104 0 -168.5 64t-64.5 161t64.5 161t168.5 64t169 -64t65 -161t-65 -161t-169 -64zM408 393q39 -133 217 -133q133 0 206 86l205 -180q-163 -184 -432 -184q-258 0 -407.5 143t-149.5 362q0 215 143 359.5t373 144.5q234 0 375 -138.5t141 -365.5
q0 -40 -4 -94h-667zM573 733q-137 0 -167 -145h335q-30 145 -168 145z" />
    <glyph glyph-name="Eogonek" unicode="&#x118;" horiz-adv-x="1269" 
d="M1151 -274q34 0 61 8v-215q-73 -23 -155 -23q-135 0 -213 66.5t-78 177.5q0 178 162 260h-801v1516h1065v-349h-672v-221h545v-348h-545v-250h672v-348h-45q-54 -44 -78.5 -85t-24.5 -91q0 -98 107 -98z" />
    <glyph glyph-name="eogonek" unicode="&#x119;" horiz-adv-x="1126" 
d="M408 393q39 -133 217 -133q133 0 206 86l205 -180q-107 -123 -276 -166q-54 -44 -78.5 -85t-24.5 -91q0 -98 107 -98q34 0 61 8v-215q-73 -23 -155 -23q-135 0 -213 66.5t-78 177.5q0 164 137 246q-219 26 -344 164.5t-125 336.5q0 215 143 359.5t373 144.5
q234 0 375 -138.5t141 -365.5q0 -40 -4 -94h-667zM573 733q-137 0 -167 -145h335q-30 145 -168 145z" />
    <glyph glyph-name="Ecaron" unicode="&#x11a;" horiz-adv-x="1269" 
d="M569 1651l-321 204l155 213l261 -172l260 172l155 -213l-321 -204h-189zM1192 1167h-672v-221h545v-348h-545v-250h672v-348h-1065v1516h1065v-349z" />
    <glyph glyph-name="ecaron" unicode="&#x11b;" horiz-adv-x="1126" 
d="M469 1108l-322 205l156 213l260 -172l260 172l156 -213l-322 -205h-188zM408 393q39 -133 217 -133q133 0 206 86l205 -180q-163 -184 -432 -184q-258 0 -407.5 143t-149.5 362q0 215 143 359.5t373 144.5q234 0 375 -138.5t141 -365.5q0 -40 -4 -94h-667zM573 733
q-137 0 -167 -145h335q-30 145 -168 145z" />
    <glyph glyph-name="Gbreve" unicode="&#x11e;" horiz-adv-x="1673" 
d="M872 1651q-185 0 -291 110.5t-106 286.5h260q0 -64 34.5 -99.5t102.5 -35.5t103 35.5t35 99.5h260q0 -175 -107 -286t-291 -111zM856 -27q-163 0 -310.5 60.5t-254.5 164.5t-170.5 249t-63.5 307q0 161 64 306t173.5 251t264 168.5t328.5 62.5q184 0 338 -62t264 -173
l-234 -269q-73 76 -157 110t-201 34q-198 0 -320 -124.5t-122 -303.5q0 -176 118.5 -300t298.5 -124q168 0 263.5 73t95.5 207v6h-359v299h744v-153q0 -236 -88.5 -413.5t-261.5 -276.5t-410 -99z" />
    <glyph glyph-name="gbreve" unicode="&#x11f;" horiz-adv-x="1247" 
d="M625 1108q-171 0 -274 111.5t-103 285.5h239q0 -65 35.5 -105t102.5 -40t102 39.5t35 105.5h239q0 -174 -103 -285.5t-273 -111.5zM762 973h389v-973q0 -114 -40 -213t-111 -170t-174 -111.5t-224 -40.5q-368 0 -512 254l303 164q75 -90 187 -90q75 0 128.5 44.5
t53.5 139.5v101q-80 -96 -246 -96q-196 0 -331.5 146.5t-135.5 358.5q0 211 135.5 357.5t331.5 146.5q166 0 246 -96v78zM604 322q69 0 113.5 47.5t44.5 117.5q0 69 -44.5 116.5t-113.5 47.5q-70 0 -116 -48t-46 -116q0 -70 46 -117.5t116 -47.5z" />
    <glyph glyph-name="Gdotaccent" unicode="&#x120;" horiz-adv-x="1673" 
d="M872 1602q-109 0 -176 66t-67 167t67 167t176 66t176.5 -66t67.5 -167t-67.5 -167t-176.5 -66zM856 -27q-163 0 -310.5 60.5t-254.5 164.5t-170.5 249t-63.5 307q0 161 64 306t173.5 251t264 168.5t328.5 62.5q184 0 338 -62t264 -173l-234 -269q-73 76 -157 110t-201 34
q-198 0 -320 -124.5t-122 -303.5q0 -176 118.5 -300t298.5 -124q168 0 263.5 73t95.5 207v6h-359v299h744v-153q0 -236 -88.5 -413.5t-261.5 -276.5t-410 -99z" />
    <glyph glyph-name="gdotaccent" unicode="&#x121;" horiz-adv-x="1247" 
d="M625 1096q-104 0 -169 64t-65 161t65 161t169 64t168.5 -64t64.5 -161t-64.5 -161t-168.5 -64zM762 973h389v-973q0 -114 -40 -213t-111 -170t-174 -111.5t-224 -40.5q-368 0 -512 254l303 164q75 -90 187 -90q75 0 128.5 44.5t53.5 139.5v101q-80 -96 -246 -96
q-196 0 -331.5 146.5t-135.5 358.5q0 211 135.5 357.5t331.5 146.5q166 0 246 -96v78zM604 322q69 0 113.5 47.5t44.5 117.5q0 69 -44.5 116.5t-113.5 47.5q-70 0 -116 -48t-46 -116q0 -70 46 -117.5t116 -47.5z" />
    <glyph glyph-name="uni0122" unicode="&#x122;" horiz-adv-x="1673" 
d="M856 -27q-163 0 -310.5 60.5t-254.5 164.5t-170.5 249t-63.5 307q0 161 64 306t173.5 251t264 168.5t328.5 62.5q184 0 338 -62t264 -173l-234 -269q-73 76 -157 110t-201 34q-198 0 -320 -124.5t-122 -303.5q0 -176 118.5 -300t298.5 -124q168 0 263.5 73t95.5 207v6
h-359v299h744v-153q0 -236 -88.5 -413.5t-261.5 -276.5t-410 -99zM694 -500q70 37 108 82.5t38 69.5q-24 -4 -35 -4q-52 0 -89.5 36.5t-37.5 92.5q0 66 43.5 109.5t118.5 43.5q74 0 124 -50.5t50 -133.5q0 -111 -56 -188.5t-188 -153.5z" />
    <glyph glyph-name="uni0123" unicode="&#x123;" horiz-adv-x="1247" 
d="M631 1096q-74 0 -124 50.5t-50 133.5q0 112 55.5 189t187.5 153l76 -96q-70 -37 -107.5 -82.5t-37.5 -69.5q24 4 35 4q52 0 89.5 -36.5t37.5 -92.5q0 -66 -43.5 -109.5t-118.5 -43.5zM762 973h389v-973q0 -114 -40 -213t-111 -170t-174 -111.5t-224 -40.5
q-368 0 -512 254l303 164q75 -90 187 -90q75 0 128.5 44.5t53.5 139.5v101q-80 -96 -246 -96q-196 0 -331.5 146.5t-135.5 358.5q0 211 135.5 357.5t331.5 146.5q166 0 246 -96v78zM604 322q69 0 113.5 47.5t44.5 117.5q0 69 -44.5 116.5t-113.5 47.5q-70 0 -116 -48
t-46 -116q0 -70 46 -117.5t116 -47.5z" />
    <glyph glyph-name="Hbar" unicode="&#x126;" horiz-adv-x="1691" 
d="M1651 1378v-276h-135v-1102h-394v600h-553v-600h-393v1102h-135v276h135v138h393v-138h553v138h394v-138h135zM1122 956v146h-553v-146h553z" />
    <glyph glyph-name="hbar" unicode="&#x127;" horiz-adv-x="1212" 
d="M756 991q161 0 264.5 -109t103.5 -302v-580h-389v479q0 86 -30 125t-93 39q-125 0 -125 -143v-500h-389v1122h-153v277h153v117h389v-117h277v-277h-277v-227q51 49 111.5 72.5t157.5 23.5z" />
    <glyph glyph-name="Itilde" unicode="&#x128;" horiz-adv-x="647" 
d="M-109 1704q0 332 275 332q60 0 114.5 -19.5t95 -39t66.5 -19.5q68 0 68 78h246q0 -332 -275 -332q-60 0 -114.5 19.5t-95 39t-66.5 19.5q-68 0 -68 -78h-246zM127 0v1516h393v-1516h-393z" />
    <glyph glyph-name="itilde" unicode="&#x129;" horiz-adv-x="585" 
d="M-131 1141q0 164 66 248t208 84q60 0 114.5 -19.5t95.5 -39t67 -19.5q67 0 67 78h246q0 -164 -66 -248t-208 -84q-60 0 -114.5 19.5t-95.5 39t-67 19.5q-67 0 -67 -78h-246zM98 973h389v-973h-389v973z" />
    <glyph glyph-name="Imacron" unicode="&#x12a;" horiz-adv-x="647" 
d="M-45 2001h737v-277h-737v277zM127 0v1516h393v-1516h-393z" />
    <glyph glyph-name="imacron" unicode="&#x12b;" horiz-adv-x="585" 
d="M-68 1450h738v-276h-738v276zM98 973h389v-973h-389v973z" />
    <glyph glyph-name="Iogonek" unicode="&#x12e;" horiz-adv-x="647" 
d="M463 -274q34 0 61 8v-215q-73 -23 -155 -23q-135 0 -213 66.5t-78 177.5q0 178 162 260h-113v1516h393v-1516h-61q-54 -44 -78.5 -85t-24.5 -91q0 -98 107 -98z" />
    <glyph glyph-name="iogonek" unicode="&#x12f;" horiz-adv-x="585" 
d="M301 1096q-104 0 -168.5 64t-64.5 161t64.5 161t168.5 64t169 -64t65 -161t-65 -161t-169 -64zM98 0v973h389v-973h-65q-54 -44 -78.5 -85t-24.5 -91q0 -98 107 -98q34 0 61 8v-215q-73 -23 -155 -23q-135 0 -213 66.5t-78 177.5q0 178 162 260h-105z" />
    <glyph glyph-name="Idotaccent" unicode="&#x130;" horiz-adv-x="647" 
d="M324 1602q-109 0 -176.5 66t-67.5 167t67.5 167t176.5 66t176 -66t67 -167t-67 -167t-176 -66zM127 0v1516h393v-1516h-393z" />
    <glyph glyph-name="dotlessi" unicode="&#x131;" horiz-adv-x="585" 
d="M98 973h389v-973h-389v973z" />
    <glyph glyph-name="IJ" unicode="&#x132;" horiz-adv-x="1282" 
d="M127 0v1516h393v-1516h-393zM541 -518v348q118 18 169.5 83t51.5 208v1395h393v-1391q0 -320 -140 -466t-474 -177z" />
    <glyph glyph-name="ij" unicode="&#x133;" horiz-adv-x="1167" 
d="M301 1096q-104 0 -168.5 64t-64.5 161t64.5 161t168.5 64t169 -64t65 -161t-65 -161t-169 -64zM874 1096q-104 0 -168.5 64t-64.5 161t64.5 161t168.5 64t169 -64t65 -161t-65 -161t-169 -64zM98 973h389v-973h-389v973zM680 973h389v-1491h-389v1491z" />
    <glyph glyph-name="uni0136" unicode="&#x136;" horiz-adv-x="1406" 
d="M823 760l631 -760h-493l-441 549v-549h-393v1516h393v-562l404 562h477zM729 -70q74 0 124 -50.5t50 -133.5q0 -111 -56 -188.5t-188 -153.5l-75 96q70 37 107.5 82.5t37.5 69.5q-24 -4 -35 -4q-52 0 -89.5 36.5t-37.5 92.5q0 66 43.5 109.5t118.5 43.5z" />
    <glyph glyph-name="uni0137" unicode="&#x137;" horiz-adv-x="1148" 
d="M487 360v-360h-389v1516h389v-846l240 303h416l-375 -451l416 -522h-420zM600 -70q74 0 124 -50.5t50 -133.5q0 -111 -56 -188.5t-188 -153.5l-75 96q70 37 107.5 82.5t37.5 69.5q-24 -4 -35 -4q-52 0 -89.5 36.5t-37.5 92.5q0 66 43.5 109.5t118.5 43.5z" />
    <glyph glyph-name="kgreenlandic" unicode="&#x138;" horiz-adv-x="1148" 
d="M1184 0h-420l-277 334v-334h-389v973h389v-332l246 332h416l-381 -475z" />
    <glyph glyph-name="Lacute" unicode="&#x139;" horiz-adv-x="1183" 
d="M74 1651l-82 274l579 143l82 -286zM127 0v1516h393v-1160h639v-356h-1032z" />
    <glyph glyph-name="lacute" unicode="&#x13a;" horiz-adv-x="667" 
d="M25 1651l-82 274l579 143l82 -286zM444 -18q-167 0 -260.5 95.5t-93.5 239.5v1199h389v-1129q0 -52 23 -79t78 -27q22 0 45 2v-289q-73 -12 -181 -12z" />
    <glyph glyph-name="uni013B" unicode="&#x13b;" horiz-adv-x="1183" 
d="M127 0v1516h393v-1160h639v-356h-1032zM461 -500q70 37 107.5 82.5t37.5 69.5q-24 -4 -35 -4q-52 0 -89.5 36.5t-37.5 92.5q0 66 43.5 109.5t118.5 43.5q74 0 124 -50.5t50 -133.5q0 -112 -55.5 -189t-187.5 -153z" />
    <glyph glyph-name="uni013C" unicode="&#x13c;" horiz-adv-x="667" 
d="M444 -18q-167 0 -260.5 95.5t-93.5 239.5v1199h389v-1129q0 -52 23 -79t78 -27q22 0 45 2v-289q-73 -12 -181 -12zM236 -500q70 37 107.5 82.5t37.5 69.5q-24 -4 -35 -4q-52 0 -89.5 36.5t-37.5 92.5q0 66 43.5 109.5t118.5 43.5q74 0 124 -50.5t50 -133.5
q0 -111 -56 -188.5t-188 -153.5z" />
    <glyph glyph-name="Lcaron" unicode="&#x13d;" horiz-adv-x="1183" 
d="M127 0v1516h393v-1160h639v-356h-1032zM735 1004l62 512h286l-71 -512h-277z" />
    <glyph glyph-name="lcaron" unicode="&#x13e;" horiz-adv-x="667" 
d="M444 -18q-167 0 -260.5 95.5t-93.5 239.5v1199h389v-1129q0 -52 23 -79t78 -27q22 0 45 2v-289q-73 -12 -181 -12zM551 1004l61 512h287l-72 -512h-276z" />
    <glyph glyph-name="Ldot" unicode="&#x13f;" horiz-adv-x="1183" 
d="M127 0v1516h393v-1160h639v-356h-1032zM901 670q-86 0 -141 55t-55 135t55 135.5t141 55.5t141.5 -55.5t55.5 -135.5t-55.5 -135t-141.5 -55z" />
    <glyph glyph-name="ldot" unicode="&#x140;" horiz-adv-x="835" 
d="M444 -18q-167 0 -260.5 95.5t-93.5 239.5v1199h389v-1129q0 -52 23 -79t78 -27q22 0 45 2v-289q-73 -12 -181 -12zM702 631q-86 0 -141 55t-55 135t55 135.5t141 55.5t141.5 -55.5t55.5 -135.5t-55.5 -135t-141.5 -55z" />
    <glyph glyph-name="Lslash" unicode="&#x141;" horiz-adv-x="1304" 
d="M641 356h639v-356h-1032v483l-84 -39l-139 269l223 104v699h393v-517l147 70l140 -268l-287 -133v-312z" />
    <glyph glyph-name="lslash" unicode="&#x142;" horiz-adv-x="804" 
d="M569 387q0 -52 23 -79t78 -27q22 0 45 2v-289q-73 -12 -180 -12q-167 0 -261 95.5t-94 239.5v230l-82 -23l-71 267l153 40v685h389v-580l127 33l72 -267l-199 -53v-262z" />
    <glyph glyph-name="Nacute" unicode="&#x143;" horiz-adv-x="1667" 
d="M1204 1782l-579 -131l-82 274l579 143zM1147 1516h393v-1516h-395l-625 971v-971h-393v1516h448l572 -895v895z" />
    <glyph glyph-name="nacute" unicode="&#x144;" horiz-adv-x="1212" 
d="M958 1239l-579 -131l-82 274l580 144zM756 991q161 0 264.5 -109t103.5 -302v-580h-389v479q0 86 -30 125t-93 39q-125 0 -125 -143v-500h-389v973h389v-78q51 49 111.5 72.5t157.5 23.5z" />
    <glyph glyph-name="uni0145" unicode="&#x145;" horiz-adv-x="1667" 
d="M1147 1516h393v-1516h-395l-625 971v-971h-393v1516h448l572 -895v895zM831 -70q74 0 124.5 -50.5t50.5 -133.5q0 -111 -56 -188.5t-188 -153.5l-76 96q70 37 107.5 82.5t37.5 69.5q-24 -4 -34 -4q-52 0 -89.5 36.5t-37.5 92.5q0 66 43 109.5t118 43.5z" />
    <glyph glyph-name="uni0146" unicode="&#x146;" horiz-adv-x="1212" 
d="M756 991q161 0 264.5 -109t103.5 -302v-580h-389v479q0 86 -30 125t-93 39q-125 0 -125 -143v-500h-389v973h389v-78q51 49 111.5 72.5t157.5 23.5zM608 -70q74 0 124 -50.5t50 -133.5q0 -112 -55.5 -189t-187.5 -153l-76 96q70 37 107.5 82.5t37.5 69.5q-24 -4 -35 -4
q-52 0 -89.5 36.5t-37.5 92.5q0 66 43.5 109.5t118.5 43.5z" />
    <glyph glyph-name="Ncaron" unicode="&#x147;" horiz-adv-x="1667" 
d="M780 1651l-321 204l155 213l260 -172l261 172l155 -213l-321 -204h-189zM1147 1516h393v-1516h-395l-625 971v-971h-393v1516h448l572 -895v895z" />
    <glyph glyph-name="ncaron" unicode="&#x148;" horiz-adv-x="1212" 
d="M537 1108l-322 205l156 213l260 -172l260 172l156 -213l-322 -205h-188zM756 991q161 0 264.5 -109t103.5 -302v-580h-389v479q0 86 -30 125t-93 39q-125 0 -125 -143v-500h-389v973h389v-78q51 49 111.5 72.5t157.5 23.5z" />
    <glyph glyph-name="Eng" unicode="&#x14a;" horiz-adv-x="1667" 
d="M1147 1516h393v-1391q0 -320 -140 -466t-474 -177v348q93 14 143.5 56t67.5 126l-617 959v-971h-393v1516h448l572 -895v895z" />
    <glyph glyph-name="eng" unicode="&#x14b;" horiz-adv-x="1212" 
d="M756 991q161 0 264.5 -109t103.5 -302v-742q0 -145 -93.5 -240.5t-260.5 -95.5q-100 0 -180 13v288q23 -2 45 -2q54 0 77 27t23 80v571q0 86 -30 125t-93 39q-125 0 -125 -143v-500h-389v973h389v-78q51 49 111.5 72.5t157.5 23.5z" />
    <glyph glyph-name="Omacron" unicode="&#x14c;" horiz-adv-x="1728" 
d="M496 2001h737v-277h-737v277zM864 -27q-170 0 -320.5 62t-257 167t-168 249.5t-61.5 304.5t61.5 304.5t167.5 250.5t257 168.5t321 62.5t321 -62.5t257 -168.5t167.5 -250.5t61.5 -304.5t-61.5 -304.5t-168 -249.5t-257 -167t-320.5 -62zM864 334q181 0 295.5 118
t114.5 304q0 187 -114.5 306.5t-295.5 119.5t-295 -119.5t-114 -306.5q0 -186 114 -304t295 -118z" />
    <glyph glyph-name="omacron" unicode="&#x14d;" horiz-adv-x="1208" 
d="M236 1450h737v-276h-737v276zM604 -18q-127 0 -233 40.5t-176.5 110t-109 161t-38.5 193.5q0 81 24 156t72 138t114.5 110t155.5 73.5t191 26.5t191 -26.5t155.5 -73.5t114.5 -110t72 -138t24 -156q0 -102 -38.5 -193.5t-109 -161t-176.5 -110t-233 -40.5zM604 322
q75 0 119.5 46t44.5 119q0 72 -44.5 118t-119.5 46t-119.5 -46t-44.5 -118q0 -73 44.5 -119t119.5 -46z" />
    <glyph glyph-name="Ohungarumlaut" unicode="&#x150;" horiz-adv-x="1728" 
d="M676 1630l-232 170l261 309l237 -180zM1141 1630l-232 170l260 309l238 -180zM864 -27q-170 0 -320.5 62t-257 167t-168 249.5t-61.5 304.5t61.5 304.5t167.5 250.5t257 168.5t321 62.5t321 -62.5t257 -168.5t167.5 -250.5t61.5 -304.5t-61.5 -304.5t-168 -249.5
t-257 -167t-320.5 -62zM864 334q181 0 295.5 118t114.5 304q0 187 -114.5 306.5t-295.5 119.5t-295 -119.5t-114 -306.5q0 -186 114 -304t295 -118z" />
    <glyph glyph-name="ohungarumlaut" unicode="&#x151;" horiz-adv-x="1208" 
d="M184 1278l260 309l238 -180l-266 -299zM649 1278l260 309l238 -180l-266 -299zM604 -18q-127 0 -233 40.5t-176.5 110t-109 161t-38.5 193.5q0 81 24 156t72 138t114.5 110t155.5 73.5t191 26.5t191 -26.5t155.5 -73.5t114.5 -110t72 -138t24 -156q0 -102 -38.5 -193.5
t-109 -161t-176.5 -110t-233 -40.5zM604 322q75 0 119.5 46t44.5 119q0 72 -44.5 118t-119.5 46t-119.5 -46t-44.5 -118q0 -73 44.5 -119t119.5 -46z" />
    <glyph glyph-name="OE" unicode="&#x152;" horiz-adv-x="2418" 
d="M2341 1167h-672v-221h545v-348h-545v-250h672v-348h-1065v78q-189 -105 -412 -105q-170 0 -320.5 62t-257 167t-168 249.5t-61.5 304.5t61.5 304.5t167.5 250.5t257 168.5t321 62.5q226 0 412 -106v80h1065v-349zM864 334q181 0 295.5 118t114.5 304q0 187 -114.5 306.5
t-295.5 119.5t-295 -119.5t-114 -306.5q0 -186 114 -304t295 -118z" />
    <glyph glyph-name="oe" unicode="&#x153;" horiz-adv-x="1892" 
d="M1174 393q39 -133 217 -133q133 0 206 86l205 -180q-163 -184 -432 -184q-238 0 -387 124q-149 -124 -379 -124q-127 0 -233 40.5t-176.5 110t-109 161t-38.5 193.5q0 81 24 156t72 138t114.5 110t155.5 73.5t191 26.5q223 0 377 -121q140 121 348 121q234 0 375 -138.5
t141 -365.5q0 -40 -4 -94h-667zM1339 733q-138 0 -168 -145h336q-30 145 -168 145zM604 322q75 0 119.5 46t44.5 119q0 72 -44.5 118t-119.5 46t-119.5 -46t-44.5 -118q0 -73 44.5 -119t119.5 -46z" />
    <glyph glyph-name="Racute" unicode="&#x154;" horiz-adv-x="1361" 
d="M1016 1782l-580 -131l-82 274l580 143zM1319 0h-420l-272 559h-111v-559h-389v1516h598q271 0 418 -128.5t147 -349.5q0 -154 -73.5 -266t-212.5 -166zM516 1198v-334h176q105 0 157 44.5t52 121.5t-52 122.5t-157 45.5h-176z" />
    <glyph glyph-name="racute" unicode="&#x155;" horiz-adv-x="800" 
d="M766 1239l-580 -131l-82 274l580 144zM752 991h20v-348h-33q-128 0 -190 -43.5t-62 -148.5v-451h-389v973h389v-88q55 55 117.5 80.5t147.5 25.5z" />
    <glyph glyph-name="uni0156" unicode="&#x156;" horiz-adv-x="1361" 
d="M1004 606l315 -606h-420l-272 559h-111v-559h-389v1516h598q271 0 418 -128.5t147 -349.5q0 -154 -73.5 -266t-212.5 -166zM516 1198v-334h176q105 0 157 44.5t52 121.5t-52 122.5t-157 45.5h-176zM684 -70q74 0 124 -50.5t50 -133.5q0 -111 -56 -188.5t-188 -153.5
l-75 96q70 37 107.5 82.5t37.5 69.5q-24 -4 -35 -4q-52 0 -89.5 36.5t-37.5 92.5q0 66 43.5 109.5t118.5 43.5z" />
    <glyph glyph-name="uni0157" unicode="&#x157;" horiz-adv-x="800" 
d="M752 991h20v-348h-33q-128 0 -190 -43.5t-62 -148.5v-451h-389v973h389v-88q55 55 117.5 80.5t147.5 25.5zM293 -70q74 0 124 -50.5t50 -133.5q0 -111 -56 -188.5t-188 -153.5l-76 96q70 37 108 82.5t38 69.5q-24 -4 -35 -4q-52 0 -89.5 36.5t-37.5 92.5q0 66 43.5 109.5
t118.5 43.5z" />
    <glyph glyph-name="Rcaron" unicode="&#x158;" horiz-adv-x="1361" 
d="M592 1651l-322 204l156 213l260 -172l260 172l156 -213l-322 -204h-188zM1319 0h-420l-272 559h-111v-559h-389v1516h598q271 0 418 -128.5t147 -349.5q0 -154 -73.5 -266t-212.5 -166zM516 1198v-334h176q105 0 157 44.5t52 121.5t-52 122.5t-157 45.5h-176z" />
    <glyph glyph-name="rcaron" unicode="&#x159;" horiz-adv-x="800" 
d="M344 1108l-321 205l155 213l260 -172l260 172l156 -213l-322 -205h-188zM487 885q55 55 117.5 80.5t147.5 25.5h20v-348h-33q-128 0 -190 -43.5t-62 -148.5v-451h-389v973h389v-88z" />
    <glyph glyph-name="Sacute" unicode="&#x15a;" horiz-adv-x="1239" 
d="M410 1651l-82 274l579 143l82 -286zM231 442q199 -143 392 -143q87 0 122 28.5t35 82.5q0 37 -23.5 67t-63.5 53t-92 44.5t-109 44.5t-114 50t-109 65t-92 84.5t-63.5 113.5t-23.5 147q0 214 159.5 338.5t420.5 124.5q134 0 249.5 -32t241.5 -111l-190 -287
q-142 105 -338 105q-74 0 -114 -27.5t-40 -75.5q0 -32 23.5 -59t63.5 -47t92 -40t109.5 -43t115 -50t109.5 -67t92 -89t63.5 -120t23.5 -157q0 -216 -151.5 -342.5t-417.5 -126.5q-352 0 -559 181z" />
    <glyph glyph-name="sacute" unicode="&#x15b;" horiz-adv-x="1003" 
d="M190 1382l580 144l82 -287l-580 -131zM176 348q92 -54 164 -76t152 -22q61 0 61 35q0 21 -26.5 36t-69 26t-94 24t-103.5 36t-94.5 55t-69 87.5t-26.5 128.5q0 155 116 234t338 79q270 0 432 -98l-122 -254q-159 84 -287 84q-78 0 -78 -33q0 -20 26.5 -34t69 -24.5
t94 -23t103.5 -35.5t94.5 -55.5t69 -88.5t26.5 -130q0 -155 -115.5 -236t-332.5 -81q-281 0 -475 131z" />
    <glyph glyph-name="Scedilla" unicode="&#x15e;" horiz-adv-x="1239" 
d="M1171 442q0 -197 -126 -320t-351 -145l-26 -71h16q89 0 147 -55t58 -150q0 -98 -75 -160.5t-198 -62.5q-145 0 -241 82l117 141q18 -21 51.5 -35t62.5 -14q68 0 68 39q0 53 -74 53h-170l84 231q-287 20 -471 179l188 288q199 -143 392 -143q87 0 122 28.5t35 82.5
q0 37 -23.5 67t-63.5 53t-92 44.5t-109 44.5t-114 50t-109 65t-92 84.5t-63.5 113.5t-23.5 147q0 214 159.5 338.5t420.5 124.5q134 0 249.5 -32t241.5 -111l-190 -287q-142 105 -338 105q-74 0 -114 -27.5t-40 -75.5q0 -32 23.5 -59t63.5 -47t92 -40t109.5 -43t115 -50
t109.5 -67t92 -89t63.5 -120t23.5 -157z" />
    <glyph glyph-name="scedilla" unicode="&#x15f;" horiz-adv-x="1003" 
d="M469 690q0 -20 26.5 -34t69 -24.5t94 -23t103.5 -35.5t94.5 -55.5t69 -88.5t26.5 -130q0 -149 -106.5 -230t-308.5 -87l-27 -76h16q89 0 147 -55t58 -150q0 -98 -74.5 -160.5t-197.5 -62.5q-146 0 -242 82l117 141q18 -21 52 -35t63 -14q67 0 67 39q0 53 -74 53h-170
l88 246q-183 23 -331 123l147 235q92 -54 164 -76t152 -22q61 0 61 35q0 21 -26.5 36t-69 26t-94 24t-103.5 36t-94.5 55t-69 87.5t-26.5 128.5q0 155 116 234t338 79q270 0 432 -98l-122 -254q-159 84 -287 84q-78 0 -78 -33z" />
    <glyph glyph-name="Scaron" unicode="&#x160;" horiz-adv-x="1239" 
d="M584 1651l-322 204l156 213l260 -172l260 172l156 -213l-322 -204h-188zM479 1114q0 -32 23.5 -59t63.5 -47t92 -40t109.5 -43t115 -50t109.5 -67t92 -89t63.5 -120t23.5 -157q0 -216 -151.5 -342.5t-417.5 -126.5q-352 0 -559 181l188 288q199 -143 392 -143
q87 0 122 28.5t35 82.5q0 37 -23.5 67t-63.5 53t-92 44.5t-109 44.5t-114 50t-109 65t-92 84.5t-63.5 113.5t-23.5 147q0 214 159.5 338.5t420.5 124.5q134 0 249.5 -32t241.5 -111l-190 -287q-142 105 -338 105q-74 0 -114 -27.5t-40 -75.5z" />
    <glyph glyph-name="scaron" unicode="&#x161;" horiz-adv-x="1003" 
d="M430 1108l-321 205l155 213l260 -172l260 172l156 -213l-322 -205h-188zM469 690q0 -20 26.5 -34t69 -24.5t94 -23t103.5 -35.5t94.5 -55.5t69 -88.5t26.5 -130q0 -155 -115.5 -236t-332.5 -81q-281 0 -475 131l147 235q92 -54 164 -76t152 -22q61 0 61 35q0 21 -26.5 36
t-69 26t-94 24t-103.5 36t-94.5 55t-69 87.5t-26.5 128.5q0 155 116 234t338 79q270 0 432 -98l-122 -254q-159 84 -287 84q-78 0 -78 -33z" />
    <glyph glyph-name="uni0162" unicode="&#x162;" horiz-adv-x="1331" 
d="M862 0h-117l-34 -94h16q89 0 147 -55t58 -150q0 -98 -75 -160.5t-198 -62.5q-145 0 -241 82l117 141q18 -21 51.5 -35t62.5 -14q68 0 68 39q0 53 -74 53h-170l92 256h-96v1159h-444v357h1282v-357h-445v-1159z" />
    <glyph glyph-name="uni0163" unicode="&#x163;" horiz-adv-x="835" 
d="M588 -18h-25l-26 -76h16q89 0 147 -55t58 -150q0 -98 -75 -160.5t-198 -62.5q-145 0 -241 82l116 141q18 -21 52 -35t63 -14q68 0 68 39q0 53 -74 53h-170l94 266q-231 79 -231 402v254h-117v307h117v319h389v-319h211v-307h-211v-254q0 -123 115 -123q55 0 122 20v-301
q-74 -26 -200 -26z" />
    <glyph glyph-name="Tcaron" unicode="&#x164;" horiz-adv-x="1331" 
d="M571 1651l-321 204l156 213l260 -172l260 172l155 -213l-321 -204h-189zM25 1516h1282v-357h-445v-1159h-393v1159h-444v357z" />
    <glyph glyph-name="tcaron" unicode="&#x165;" horiz-adv-x="833" 
d="M682 1516h287l-72 -512h-276zM549 412q0 -123 115 -123q55 0 122 20v-301q-74 -26 -200 -26q-210 0 -318 103.5t-108 326.5v254h-117v307h117v319h389v-319h211v-307h-211v-254z" />
    <glyph glyph-name="Tbar" unicode="&#x166;" horiz-adv-x="1343" 
d="M1313 1159h-445v-321h213v-277h-213v-561h-393v561h-213v277h213v321h-444v357h1282v-357z" />
    <glyph glyph-name="tbar" unicode="&#x167;" horiz-adv-x="835" 
d="M666 289q55 0 122 20v-301q-74 -26 -200 -26q-196 0 -303.5 89t-120.5 281h-107v266h105v48h-117v307h117v319h389v-319h211v-307h-211v-48h178v-266h-170q23 -63 107 -63z" />
    <glyph glyph-name="Utilde" unicode="&#x168;" horiz-adv-x="1568" 
d="M348 1704q0 332 275 332q60 0 114.5 -19.5t95 -39t66.5 -19.5q68 0 68 78h245q0 -164 -66 -248t-208 -84q-60 0 -114.5 19.5t-95 39t-66.5 19.5q-68 0 -68 -78h-246zM784 -27q-321 0 -498 189.5t-177 548.5v805h393v-791q0 -205 66 -300t216 -95t216.5 95t66.5 300v791
h393v-805q0 -359 -177.5 -548.5t-498.5 -189.5z" />
    <glyph glyph-name="utilde" unicode="&#x169;" horiz-adv-x="1183" 
d="M160 1141q0 164 66 248t208 84q60 0 114.5 -19.5t95.5 -39t67 -19.5q67 0 67 78h246q0 -164 -66 -248t-208 -84q-60 0 -114.5 19.5t-95.5 39t-67 19.5q-67 0 -67 -78h-246zM590 -18q-126 0 -224.5 36t-159 101t-91.5 150t-31 186v518h389v-479q0 -88 28 -126t91 -38
t91 38t28 126v479h389v-518q0 -101 -31.5 -186t-93 -150t-160.5 -101t-225 -36z" />
    <glyph glyph-name="Umacron" unicode="&#x16a;" horiz-adv-x="1568" 
d="M416 2001h737v-277h-737v277zM784 -27q-321 0 -498 189.5t-177 548.5v805h393v-791q0 -205 66 -300t216 -95t216.5 95t66.5 300v791h393v-805q0 -359 -177.5 -548.5t-498.5 -189.5z" />
    <glyph glyph-name="umacron" unicode="&#x16b;" horiz-adv-x="1183" 
d="M223 1450h738v-276h-738v276zM590 -18q-126 0 -224.5 36t-159 101t-91.5 150t-31 186v518h389v-479q0 -88 28 -126t91 -38t91 38t28 126v479h389v-518q0 -101 -31.5 -186t-93 -150t-160.5 -101t-225 -36z" />
    <glyph glyph-name="Uring" unicode="&#x16e;" horiz-adv-x="1568" 
d="M782 1569q-114 0 -188 72t-74 178q0 104 74 176.5t188 72.5t188 -72.5t74 -176.5q0 -106 -74 -178t-188 -72zM782 1739q36 0 59 23.5t23 56.5t-23 56t-59 23t-59 -23t-23 -56t23 -56.5t59 -23.5zM784 -27q-321 0 -498 189.5t-177 548.5v805h393v-791q0 -205 66 -300
t216 -95t216.5 95t66.5 300v791h393v-805q0 -359 -177.5 -548.5t-498.5 -189.5z" />
    <glyph glyph-name="uring" unicode="&#x16f;" horiz-adv-x="1183" 
d="M592 1026q-114 0 -188 72t-74 178q0 105 74 177.5t188 72.5t188 -72.5t74 -177.5q0 -106 -74 -178t-188 -72zM592 1196q36 0 59 23.5t23 56.5t-23 56.5t-59 23.5t-59 -23.5t-23 -56.5t23 -56.5t59 -23.5zM590 -18q-126 0 -224.5 36t-159 101t-91.5 150t-31 186v518h389
v-479q0 -88 28 -126t91 -38t91 38t28 126v479h389v-518q0 -101 -31.5 -186t-93 -150t-160.5 -101t-225 -36z" />
    <glyph glyph-name="Uhungarumlaut" unicode="&#x170;" horiz-adv-x="1568" 
d="M616 1630l-231 170l260 309l238 -180zM1081 1630l-231 170l260 309l238 -180zM784 -27q-321 0 -498 189.5t-177 548.5v805h393v-791q0 -205 66 -300t216 -95t216.5 95t66.5 300v791h393v-805q0 -359 -177.5 -548.5t-498.5 -189.5z" />
    <glyph glyph-name="uhungarumlaut" unicode="&#x171;" horiz-adv-x="1183" 
d="M172 1278l260 309l238 -180l-267 -299zM637 1278l260 309l238 -180l-267 -299zM590 -18q-126 0 -224.5 36t-159 101t-91.5 150t-31 186v518h389v-479q0 -88 28 -126t91 -38t91 38t28 126v479h389v-518q0 -101 -31.5 -186t-93 -150t-160.5 -101t-225 -36z" />
    <glyph glyph-name="Uogonek" unicode="&#x172;" horiz-adv-x="1568" 
d="M1067 1516h393v-805q0 -293 -118 -473t-338 -238q-54 -44 -78.5 -85t-24.5 -91q0 -98 107 -98q34 0 61 8v-215q-73 -23 -156 -23q-135 0 -212.5 66.5t-77.5 177.5q0 152 118 233q-301 14 -466.5 202.5t-165.5 535.5v805h393v-791q0 -205 66 -300t216 -95t216.5 95
t66.5 300v791z" />
    <glyph glyph-name="uogonek" unicode="&#x173;" horiz-adv-x="1183" 
d="M711 973h389v-518q0 -162 -79 -280.5t-233 -166.5q-52 -42 -76 -83t-24 -91q0 -98 107 -98q34 0 61 8v-215q-73 -23 -156 -23q-135 0 -212.5 66.5t-77.5 177.5q0 153 118 234q-219 18 -331.5 146.5t-112.5 324.5v518h389v-479q0 -88 28 -126t91 -38t91 38t28 126v479z
" />
    <glyph glyph-name="Wcircumflex" unicode="&#x174;" horiz-adv-x="2174" 
d="M1087 1812l-260 -161l-155 213l301 204h229l301 -204l-155 -213zM1790 1516h383l-444 -1516h-388l-254 963l-251 -963h-390l-444 1516h383l258 -979l258 979h373l260 -979z" />
    <glyph glyph-name="wcircumflex" unicode="&#x175;" horiz-adv-x="1730" 
d="M877 1280l-261 -172l-155 213l321 205h189l321 -205l-155 -213zM1348 973h378l-292 -973h-437l-131 532l-133 -532h-436l-293 973h379l133 -559l131 559h436l134 -559z" />
    <glyph glyph-name="Ycircumflex" unicode="&#x176;" horiz-adv-x="1476" 
d="M739 1812l-260 -161l-155 213l301 204h229l301 -204l-156 -213zM1036 1516h426l-528 -914v-602h-391v600l-529 916h426l297 -547z" />
    <glyph glyph-name="ycircumflex" unicode="&#x177;" horiz-adv-x="1140" 
d="M569 1280l-260 -172l-155 213l321 205h189l321 -205l-156 -213zM731 973h399l-509 -1491h-383l153 434l-385 1057h400l167 -611z" />
    <glyph glyph-name="Ydieresis" unicode="&#x178;" horiz-adv-x="1476" 
d="M453 1638q-101 0 -163.5 60.5t-62.5 154.5t62.5 154.5t163.5 60.5t163 -60.5t62 -154.5t-62 -154.5t-163 -60.5zM1026 1638q-101 0 -163 60.5t-62 154.5t62 154.5t163 60.5t163 -60.5t62 -154.5t-62 -154.5t-163 -60.5zM1036 1516h426l-528 -914v-602h-391v600l-529 916
h426l297 -547z" />
    <glyph glyph-name="Zacute" unicode="&#x179;" horiz-adv-x="1382" 
d="M1016 1782l-580 -131l-82 274l580 143zM596 356h715v-356h-1250v315l715 844h-692v357h1225v-316z" />
    <glyph glyph-name="zacute" unicode="&#x17a;" horiz-adv-x="999" 
d="M829 1239l-579 -131l-82 274l580 144zM549 307h385v-307h-866v295l376 371h-366v307h846v-301z" />
    <glyph glyph-name="Zdotaccent" unicode="&#x17b;" horiz-adv-x="1382" 
d="M686 1602q-109 0 -176.5 66t-67.5 167t67.5 167t176.5 66t176.5 -66t67.5 -167t-67.5 -167t-176.5 -66zM596 356h715v-356h-1250v315l715 844h-692v357h1225v-316z" />
    <glyph glyph-name="zdotaccent" unicode="&#x17c;" horiz-adv-x="999" 
d="M502 1096q-104 0 -169 64t-65 161t65 161t169 64t168.5 -64t64.5 -161t-64.5 -161t-168.5 -64zM549 307h385v-307h-866v295l376 371h-366v307h846v-301z" />
    <glyph glyph-name="Zcaron" unicode="&#x17d;" horiz-adv-x="1382" 
d="M592 1651l-322 204l156 213l260 -172l260 172l156 -213l-322 -204h-188zM596 356h715v-356h-1250v315l715 844h-692v357h1225v-316z" />
    <glyph glyph-name="zcaron" unicode="&#x17e;" horiz-adv-x="999" 
d="M408 1108l-322 205l156 213l260 -172l260 172l156 -213l-322 -205h-188zM549 307h385v-307h-866v295l376 371h-366v307h846v-301z" />
    <glyph glyph-name="florin" unicode="&#x192;" horiz-adv-x="833" 
d="M674 1217q-34 0 -56.5 -12.5t-32.5 -36.5t-13 -46.5t-3 -54.5v-94h176v-307h-176v-646q0 -229 -112 -336.5t-381 -107.5v318q28 0 47.5 9t30.5 22t17 34.5t7.5 40t1.5 43.5v623h-102v307h102v117q0 221 92.5 332.5t274.5 111.5q140 0 231 -31v-297q-60 11 -104 11z" />
    <glyph glyph-name="uni01EA" unicode="&#x1ea;" horiz-adv-x="1728" 
d="M1075 0q-52 -44 -76 -85t-24 -91q0 -98 106 -98q35 0 62 8v-215q-73 -23 -156 -23q-135 0 -213 66.5t-78 177.5q0 153 119 235q-215 11 -389 118t-271.5 281.5t-97.5 381.5q0 160 61.5 304.5t167.5 250.5t257 168.5t321 62.5t321 -62.5t257 -168.5t167.5 -250.5
t61.5 -304.5q0 -179 -75 -336t-211 -266.5t-310 -153.5zM455 756q0 -186 114 -304t295 -118t295.5 118t114.5 304q0 187 -114.5 306.5t-295.5 119.5t-295 -119.5t-114 -306.5z" />
    <glyph glyph-name="uni01EB" unicode="&#x1eb;" horiz-adv-x="1208" 
d="M803 10q-54 -44 -78.5 -85t-24.5 -91q0 -98 107 -98q34 0 61 8v-215q-73 -23 -155 -23q-135 0 -213 66.5t-78 177.5q0 152 119 234q-226 20 -360 162.5t-134 340.5q0 81 24 156t72 138t114.5 110t155.5 73.5t191 26.5t191 -26.5t155.5 -73.5t114.5 -110t72 -138t24 -156
q0 -164 -95.5 -294.5t-262.5 -182.5zM440 487q0 -73 44.5 -119t119.5 -46t119.5 46t44.5 119q0 72 -44.5 118t-119.5 46t-119.5 -46t-44.5 -118z" />
    <glyph glyph-name="Aringacute" unicode="&#x1fa;" horiz-adv-x="1540" 
d="M770 1569q-114 0 -188 72t-74 178q0 104 74 176.5t188 72.5q105 0 178 -63.5t82 -157.5l207 92l70 -256l-447 -100q-41 -14 -90 -14zM770 1898q-36 0 -59 -23t-23 -56t23 -56.5t59 -23.5t59 23.5t23 56.5t-23 56t-59 23zM1128 0l-88 242h-540l-88 -242h-412l575 1516h392
l573 -1516h-412zM922 578l-152 483l-154 -483h306z" />
    <glyph glyph-name="aringacute" unicode="&#x1fb;" horiz-adv-x="1249" 
d="M580 1026q-114 0 -188.5 72t-74.5 178q0 104 74.5 177t188.5 73q105 0 178 -63.5t82 -157.5l207 92l69 -256l-446 -101q-41 -14 -90 -14zM580 1356q-36 0 -59 -23.5t-23 -56.5t23 -56.5t59 -23.5t59 23.5t23 56.5t-23 56.5t-59 23.5zM762 973h389v-973h-389v78
q-80 -96 -246 -96q-196 0 -331.5 146.5t-135.5 358.5q0 211 135.5 357.5t331.5 146.5q166 0 246 -96v78zM604 322q69 0 113.5 47.5t44.5 117.5q0 69 -44.5 116.5t-113.5 47.5q-70 0 -116 -48t-46 -116q0 -70 46 -117.5t116 -47.5z" />
    <glyph glyph-name="AEacute" unicode="&#x1fc;" horiz-adv-x="2162" 
d="M1743 1782l-580 -131l-82 274l580 143zM2085 1167h-672v-221h545v-348h-545v-250h672v-348h-1065v242h-504l-121 -242h-430l766 1516h1354v-349zM686 578h334v659z" />
    <glyph glyph-name="aeacute" unicode="&#x1fd;" horiz-adv-x="1882" 
d="M1278 1239l-580 -131l-82 274l580 144zM1163 393q39 -133 217 -133q134 0 207 86l205 -180q-77 -87 -183.5 -135.5t-228.5 -48.5q-139 0 -229 71v-53h-389v78q-80 -96 -246 -96q-196 0 -331.5 146.5t-135.5 358.5q0 211 135.5 357.5t331.5 146.5q166 0 246 -96v78h389
v-53q90 71 229 71q204 0 329.5 -139t125.5 -365q0 -40 -4 -94h-668zM1329 733q-138 0 -168 -145h336q-30 145 -168 145zM604 322q69 0 113.5 47.5t44.5 117.5q0 69 -44.5 116.5t-113.5 47.5q-70 0 -116 -48t-46 -116q0 -70 46 -117.5t116 -47.5z" />
    <glyph glyph-name="Oslashacute" unicode="&#x1fe;" horiz-adv-x="1740" 
d="M1200 1782l-579 -131l-82 274l579 143zM1714 1354l-166 -166q129 -197 129 -432q0 -160 -61.5 -304.5t-168 -249.5t-257 -167t-320.5 -62q-234 0 -424 113l-174 -174l-247 250l165 166q-127 190 -127 428q0 160 61.5 304.5t167.5 250.5t257 168.5t321 62.5
q234 0 422 -112l174 174zM461 756q0 -76 18 -140l541 541q-70 25 -150 25q-181 0 -295 -119.5t-114 -306.5zM1280 756q0 79 -20 143l-541 -541q70 -24 151 -24q181 0 295.5 118t114.5 304z" />
    <glyph glyph-name="oslashacute" unicode="&#x1ff;" horiz-adv-x="1224" 
d="M940 1239l-580 -131l-81 274l579 144zM1202 868l-110 -110q77 -121 77 -271q0 -102 -38.5 -193.5t-109 -161t-176.5 -110t-233 -40.5q-141 0 -250 47l-131 -131l-208 211l110 110q-78 119 -78 268q0 81 24 156t72 138t114.5 110t155.5 73.5t191 26.5q136 0 248 -45
l133 133zM612 322q75 0 119.5 46t44.5 119q0 72 -44.5 118t-119.5 46t-119 -46t-44 -118q0 -73 44 -119t119 -46z" />
    <glyph glyph-name="uni0218" unicode="&#x218;" horiz-adv-x="1239" 
d="M231 442q199 -143 392 -143q87 0 122 28.5t35 82.5q0 37 -23.5 67t-63.5 53t-92 44.5t-109 44.5t-114 50t-109 65t-92 84.5t-63.5 113.5t-23.5 147q0 214 159.5 338.5t420.5 124.5q134 0 249.5 -32t241.5 -111l-190 -287q-142 105 -338 105q-74 0 -114 -27.5t-40 -75.5
q0 -32 23.5 -59t63.5 -47t92 -40t109.5 -43t115 -50t109.5 -67t92 -89t63.5 -120t23.5 -157q0 -216 -151.5 -342.5t-417.5 -126.5q-352 0 -559 181zM465 -500q70 37 107.5 82.5t37.5 69.5q-24 -4 -35 -4q-52 0 -89 36.5t-37 92.5q0 66 43 109.5t118 43.5q74 0 124 -50.5
t50 -133.5q0 -112 -55.5 -189t-187.5 -153z" />
    <glyph glyph-name="uni0219" unicode="&#x219;" horiz-adv-x="1003" 
d="M176 348q92 -54 164 -76t152 -22q61 0 61 35q0 21 -26.5 36t-69 26t-94 24t-103.5 36t-94.5 55t-69 87.5t-26.5 128.5q0 155 116 234t338 79q270 0 432 -98l-122 -254q-159 84 -287 84q-78 0 -78 -33q0 -20 26.5 -34t69 -24.5t94 -23t103.5 -35.5t94.5 -55.5t69 -88.5
t26.5 -130q0 -155 -115.5 -236t-332.5 -81q-281 0 -475 131zM354 -500q70 37 108 82.5t38 69.5q-24 -4 -35 -4q-52 0 -89.5 36.5t-37.5 92.5q0 66 43.5 109.5t118.5 43.5q74 0 124 -50.5t50 -133.5q0 -111 -56 -188.5t-188 -153.5z" />
    <glyph glyph-name="uni021A" unicode="&#x21a;" horiz-adv-x="1331" 
d="M469 0v1159h-444v357h1282v-357h-445v-1159h-393zM518 -500q70 37 108 82.5t38 69.5q-24 -4 -35 -4q-52 0 -89.5 36.5t-37.5 92.5q0 66 43.5 109.5t118.5 43.5q74 0 124 -50.5t50 -133.5q0 -111 -56 -188.5t-188 -153.5z" />
    <glyph glyph-name="uni021B" unicode="&#x21b;" horiz-adv-x="833" 
d="M664 289q55 0 122 20v-301q-74 -26 -200 -26q-210 0 -318 103.5t-108 326.5v254h-117v307h117v319h389v-319h211v-307h-211v-254q0 -123 115 -123zM524 -70q74 0 124 -50.5t50 -133.5q0 -112 -55.5 -189t-187.5 -153l-76 96q70 37 107.5 82.5t37.5 69.5q-24 -4 -35 -4
q-52 0 -89.5 36.5t-37.5 92.5q0 66 43.5 109.5t118.5 43.5z" />
    <glyph glyph-name="uni0237" unicode="&#x237;" horiz-adv-x="585" 
d="M98 973h389v-1491h-389v1491z" />
    <glyph glyph-name="circumflex" unicode="&#x2c6;" horiz-adv-x="1077" 
d="M954 1321l-155 -213l-260 172l-260 -172l-156 213l321 205h189z" />
    <glyph glyph-name="caron" unicode="&#x2c7;" horiz-adv-x="1077" 
d="M799 1526l155 -213l-321 -205h-189l-321 205l156 213l260 -172z" />
    <glyph glyph-name="breve" unicode="&#x2d8;" horiz-adv-x="999" 
d="M500 1108q-171 0 -274 111.5t-103 285.5h239q0 -65 35.5 -105t102.5 -40t102 39.5t35 105.5h240q0 -174 -103.5 -285.5t-273.5 -111.5z" />
    <glyph glyph-name="dotaccent" unicode="&#x2d9;" horiz-adv-x="733" 
d="M367 1096q-104 0 -169 64t-65 161t65 161t169 64t168.5 -64t64.5 -161t-64.5 -161t-168.5 -64z" />
    <glyph glyph-name="ring" unicode="&#x2da;" horiz-adv-x="770" 
d="M385 1026q-114 0 -188 72t-74 178q0 105 74 177.5t188 72.5t188 -72.5t74 -177.5q0 -106 -74 -178t-188 -72zM385 1196q36 0 59 23.5t23 56.5t-23 56.5t-59 23.5t-59 -23.5t-23 -56.5t23 -56.5t59 -23.5z" />
    <glyph glyph-name="ogonek" unicode="&#x2db;" horiz-adv-x="692" 
d="M569 -481q-73 -23 -155 -23q-135 0 -213 66.5t-78 177.5q0 178 162 260h219q-54 -44 -78.5 -85t-24.5 -91q0 -98 107 -98q34 0 61 8v-215z" />
    <glyph glyph-name="tilde" unicode="&#x2dc;" horiz-adv-x="1110" 
d="M123 1141q0 164 66 248t208 84q60 0 114.5 -19.5t95.5 -39t67 -19.5q67 0 67 78h246q0 -164 -66 -248t-208 -84q-60 0 -114.5 19.5t-95.5 39t-67 19.5q-67 0 -67 -78h-246z" />
    <glyph glyph-name="hungarumlaut" unicode="&#x2dd;" horiz-adv-x="1208" 
d="M123 1278l260 309l238 -180l-267 -299zM588 1278l260 309l237 -180l-266 -299z" />
    <glyph glyph-name="gravecomb" unicode="&#x300;" horiz-adv-x="0" 
d="M-784 1239l82 287l579 -144l-82 -274z" />
    <glyph glyph-name="acutecomb" unicode="&#x301;" horiz-adv-x="0" 
d="M-786 1382l579 144l82 -287l-580 -131z" />
    <glyph glyph-name="uni0302" unicode="&#x302;" horiz-adv-x="0" 
d="M-123 1321l-156 -213l-260 172l-260 -172l-155 213l321 205h189z" />
    <glyph glyph-name="tildecomb" unicode="&#x303;" horiz-adv-x="0" 
d="M-987 1141q0 164 66 248t208 84q60 0 114.5 -19.5t95.5 -39t67 -19.5q67 0 67 78h246q0 -164 -66 -248t-208 -84q-60 0 -114.5 19.5t-95.5 39t-67 19.5q-67 0 -67 -78h-246z" />
    <glyph glyph-name="uni0304" unicode="&#x304;" horiz-adv-x="0" 
d="M-860 1450h737v-276h-737v276z" />
    <glyph glyph-name="uni0306" unicode="&#x306;" horiz-adv-x="0" 
d="M-500 1108q-171 0 -274 111.5t-103 285.5h240q0 -66 35 -105.5t102 -39.5t102.5 40t35.5 105h239q0 -174 -103.5 -285.5t-273.5 -111.5z" />
    <glyph glyph-name="uni0307" unicode="&#x307;" horiz-adv-x="0" 
d="M-367 1096q-104 0 -168.5 64t-64.5 161t64.5 161t168.5 64t169 -64t65 -161t-65 -161t-169 -64z" />
    <glyph glyph-name="uni0308" unicode="&#x308;" horiz-adv-x="0" 
d="M-881 1104q-101 0 -163 60.5t-62 154.5t62 154.5t163 60.5t163.5 -60.5t62.5 -154.5t-62.5 -154.5t-163.5 -60.5zM-348 1104q-101 0 -163 60.5t-62 154.5t62 154.5t163 60.5t163 -60.5t62 -154.5t-62 -154.5t-163 -60.5z" />
    <glyph glyph-name="uni030A" unicode="&#x30a;" horiz-adv-x="0" 
d="M-385 1026q-114 0 -188 72t-74 178q0 105 74 177.5t188 72.5t188 -72.5t74 -177.5q0 -106 -74 -178t-188 -72zM-385 1196q36 0 59 23.5t23 56.5t-23 56.5t-59 23.5t-59 -23.5t-23 -56.5t23 -56.5t59 -23.5z" />
    <glyph glyph-name="uni030B" unicode="&#x30b;" horiz-adv-x="0" 
d="M-1085 1278l260 309l237 -180l-266 -299zM-621 1278l261 309l237 -180l-266 -299z" />
    <glyph glyph-name="uni030C" unicode="&#x30c;" horiz-adv-x="0" 
d="M-279 1526l156 -213l-321 -205h-189l-321 205l155 213l260 -172z" />
    <glyph glyph-name="uni0312" unicode="&#x312;" horiz-adv-x="0" 
d="M-190 1526q-70 -37 -108 -82.5t-38 -69.5q24 4 35 4q52 0 89.5 -36.5t37.5 -92.5q0 -66 -43.5 -109.5t-118.5 -43.5q-74 0 -124 50.5t-50 133.5q0 111 56 188.5t188 153.5z" />
    <glyph glyph-name="uni0326" unicode="&#x326;" horiz-adv-x="0" 
d="M-494 -500q70 37 108 82.5t38 69.5q-24 -4 -35 -4q-52 0 -89.5 36.5t-37.5 92.5q0 66 43.5 109.5t118.5 43.5q74 0 124 -50.5t50 -133.5q0 -111 -56 -188.5t-188 -153.5z" />
    <glyph glyph-name="uni0327" unicode="&#x327;" horiz-adv-x="0" 
d="M-395 -522q-146 0 -242 82l117 141q18 -21 51.5 -35t62.5 -14q68 0 68 39q0 53 -74 53h-170l101 281h180l-43 -119h16q89 0 147 -55t58 -150q0 -98 -74.5 -160.5t-197.5 -62.5z" />
    <glyph glyph-name="uni0328" unicode="&#x328;" horiz-adv-x="0" 
d="M-123 -481q-73 -23 -156 -23q-135 0 -212.5 66.5t-77.5 177.5q0 179 161 260h220q-54 -44 -78.5 -85t-24.5 -91q0 -98 107 -98q34 0 61 8v-215z" />
    <glyph glyph-name="uni0335" unicode="&#x335;" horiz-adv-x="0" 
d="M-942 623v276h819v-276h-819z" />
    <glyph glyph-name="uni0336" unicode="&#x336;" horiz-adv-x="0" 
d="M-1733 1120v277h1610v-277h-1610z" />
    <glyph glyph-name="uni0337" unicode="&#x337;" horiz-adv-x="0" 
d="M-844 799l670 178l72 -266l-670 -179z" />
    <glyph glyph-name="uni0338" unicode="&#x338;" horiz-adv-x="0" 
d="M-582 823l250 250l209 -211l-246 -246zM-1303 102l244 244l211 -209l-246 -246z" />
    <glyph glyph-name="uni0374" unicode="&#x374;" horiz-adv-x="518" 
d="M172 1516h354l-247 -627h-271z" />
    <glyph glyph-name="uni0375" unicode="&#x375;" horiz-adv-x="518" 
d="M346 -266h-354l248 626h270z" />
    <glyph glyph-name="uni037E" unicode="&#x37e;" horiz-adv-x="544" 
d="M274 571q-89 0 -142.5 54t-53.5 137t53.5 136.5t142.5 53.5t143 -53.5t54 -136.5t-54 -137t-143 -54zM266 367q99 0 153 -73t54 -192q0 -116 -52 -219.5t-139 -167t-186 -67.5v151q67 0 126.5 53t80.5 144q-21 -6 -49 -6q-77 0 -126.5 53.5t-49.5 132.5q0 82 52.5 136.5
t135.5 54.5z" />
    <glyph glyph-name="tonos" unicode="&#x384;" horiz-adv-x="661" 
d="M123 1165l108 473h308l-136 -524z" />
    <glyph glyph-name="dieresistonos" unicode="&#x385;" horiz-adv-x="1464" 
d="M565 1153l111 485h266l-137 -536zM328 1124q-93 0 -149 54.5t-56 140.5t56 140t149 54t148.5 -54t55.5 -140t-55.5 -140.5t-148.5 -54.5zM1137 1124q-93 0 -149 54.5t-56 140.5t56 140t149 54t148.5 -54t55.5 -140t-55.5 -140.5t-148.5 -54.5z" />
    <glyph glyph-name="Alphatonos" unicode="&#x386;" horiz-adv-x="1615" 
d="M471 1516l-147 -576l-281 51l121 525h307zM1204 0l-88 242h-541l-88 -242h-411l575 1516h391l574 -1516h-412zM997 578l-151 483l-154 -483h305z" />
    <glyph glyph-name="anoteleia" unicode="&#x387;" horiz-adv-x="516" 
d="M258 332q-86 0 -141.5 55t-55.5 135t55.5 135.5t141.5 55.5t141.5 -55.5t55.5 -135.5t-55.5 -135t-141.5 -55z" />
    <glyph glyph-name="Epsilontonos" unicode="&#x388;" horiz-adv-x="1642" 
d="M-12 991l121 525h307l-148 -576zM500 0v1516h1065v-349h-672v-221h545v-348h-545v-250h672v-348h-1065z" />
    <glyph glyph-name="Etatonos" unicode="&#x389;" horiz-adv-x="1966" 
d="M-12 991l121 525h307l-148 -576zM1446 1516h393v-1516h-393v600h-553v-600h-393v1516h393v-560h553v560z" />
    <glyph glyph-name="Iotatonos" unicode="&#x38a;" horiz-adv-x="1019" 
d="M-12 991l121 525h307l-148 -576zM500 0v1516h393v-1516h-393z" />
    <glyph glyph-name="Omicrontonos" unicode="&#x38c;" horiz-adv-x="2039" 
d="M1176 -27q-170 0 -320.5 62t-257 167t-168 249.5t-61.5 304.5t61.5 304.5t167.5 250.5t257 168.5t321 62.5t320.5 -62.5t256.5 -168.5t167.5 -250.5t61.5 -304.5t-61.5 -304.5t-167.5 -249.5t-256.5 -167t-320.5 -62zM-6 991l121 525h307l-148 -576zM1176 334
q181 0 295 118t114 304q0 187 -114 306.5t-295 119.5t-295.5 -119.5t-114.5 -306.5q0 -186 114.5 -304t295.5 -118z" />
    <glyph glyph-name="Upsilontonos" unicode="&#x38e;" horiz-adv-x="1951" 
d="M37 991l121 525h307l-148 -576zM1511 1516h426l-528 -914v-602h-391v600l-529 916h426l297 -547z" />
    <glyph glyph-name="Omegatonos" unicode="&#x38f;" horiz-adv-x="1974" 
d="M1892 838q0 -302 -196 -504h176v-334h-643v334q121 39 193.5 155.5t72.5 282.5q0 184 -103 297t-262 113t-261.5 -113t-102.5 -297q0 -166 72.5 -282.5t193.5 -155.5v-334h-643v334h176q-196 202 -196 504q0 145 56 274.5t154.5 224.5t241.5 150t309 55t309 -55t242 -150
t155 -224.5t56 -274.5zM115 1516h307l-148 -576l-280 51z" />
    <glyph glyph-name="iotadieresistonos" unicode="&#x390;" horiz-adv-x="673" 
d="M117 1153l110 485h267l-138 -536zM-121 1124q-93 0 -149 54.5t-56 140.5t56 140t149 54t149 -54t56 -140t-56 -140.5t-149 -54.5zM688 1124q-93 0 -149 54.5t-56 140.5t56 140t149 54t149 -54t56 -140t-56 -140.5t-149 -54.5zM444 -18q-167 0 -260.5 95.5t-93.5 239.5
v656h389v-586q0 -52 23 -79t78 -27q22 0 45 2v-289q-73 -12 -181 -12z" />
    <glyph glyph-name="Alpha" unicode="&#x391;" horiz-adv-x="1540" 
d="M1128 0l-88 242h-540l-88 -242h-412l575 1516h392l573 -1516h-412zM922 578l-152 483l-154 -483h306z" />
    <glyph glyph-name="Beta" unicode="&#x392;" horiz-adv-x="1331" 
d="M127 0v1516h553q264 0 400.5 -103.5t136.5 -275.5q0 -249 -218 -338q142 -46 209.5 -135t67.5 -236q0 -205 -153.5 -316.5t-432.5 -111.5h-563zM516 920h186q60 0 92.5 36.5t32.5 102.5q0 67 -38.5 103t-114.5 36h-158v-278zM516 307h135q123 0 179.5 39.5t56.5 120.5
q0 73 -52.5 114.5t-150.5 41.5h-168v-316z" />
    <glyph glyph-name="Gamma" unicode="&#x393;" horiz-adv-x="1206" 
d="M127 1516h1055v-349h-662v-1167h-393v1516z" />
    <glyph glyph-name="uni0394" unicode="&#x394;" horiz-adv-x="1513" 
d="M971 1516l538 -1516h-1505l543 1516h424zM537 344h442l-221 660z" />
    <glyph glyph-name="Epsilon" unicode="&#x395;" horiz-adv-x="1269" 
d="M127 0v1516h1065v-349h-672v-221h545v-348h-545v-250h672v-348h-1065z" />
    <glyph glyph-name="Zeta" unicode="&#x396;" horiz-adv-x="1382" 
d="M596 356h715v-356h-1250v315l715 844h-692v357h1225v-316z" />
    <glyph glyph-name="Eta" unicode="&#x397;" horiz-adv-x="1593" 
d="M1073 1516h393v-1516h-393v600h-553v-600h-393v1516h393v-560h553v560z" />
    <glyph glyph-name="Theta" unicode="&#x398;" horiz-adv-x="1728" 
d="M864 -27q-170 0 -320.5 62t-257 167t-168 249.5t-61.5 304.5t61.5 304.5t167.5 250.5t257 168.5t321 62.5t321 -62.5t257 -168.5t167.5 -250.5t61.5 -304.5t-61.5 -304.5t-168 -249.5t-257 -167t-320.5 -62zM864 334q181 0 295.5 118t114.5 304q0 187 -114.5 306.5
t-295.5 119.5t-295 -119.5t-114 -306.5q0 -186 114 -304t295 -118zM623 893h483v-277h-483v277z" />
    <glyph glyph-name="Iota" unicode="&#x399;" horiz-adv-x="647" 
d="M127 0v1516h393v-1516h-393z" />
    <glyph glyph-name="Kappa" unicode="&#x39a;" horiz-adv-x="1406" 
d="M823 760l631 -760h-493l-441 549v-549h-393v1516h393v-562l404 562h477z" />
    <glyph glyph-name="Lambda" unicode="&#x39b;" horiz-adv-x="1507" 
d="M1505 0h-415l-336 1004l-338 -1004h-416l543 1516h424z" />
    <glyph glyph-name="Mu" unicode="&#x39c;" horiz-adv-x="1921" 
d="M1280 1516h514v-1516h-379v1055l-313 -533h-283l-313 533v-1055h-379v1516h514l320 -547z" />
    <glyph glyph-name="Nu" unicode="&#x39d;" horiz-adv-x="1667" 
d="M1147 1516h393v-1516h-395l-625 971v-971h-393v1516h448l572 -895v895z" />
    <glyph glyph-name="Xi" unicode="&#x39e;" horiz-adv-x="1257" 
d="M1178 1516v-349h-1098v349h1098zM1055 940v-348h-852v348h852zM1178 348v-348h-1098v348h1098z" />
    <glyph glyph-name="Omicron" unicode="&#x39f;" horiz-adv-x="1728" 
d="M864 -27q-170 0 -320.5 62t-257 167t-168 249.5t-61.5 304.5t61.5 304.5t167.5 250.5t257 168.5t321 62.5t321 -62.5t257 -168.5t167.5 -250.5t61.5 -304.5t-61.5 -304.5t-168 -249.5t-257 -167t-320.5 -62zM864 334q181 0 295.5 118t114.5 304q0 187 -114.5 306.5
t-295.5 119.5t-295 -119.5t-114 -306.5q0 -186 114 -304t295 -118z" />
    <glyph glyph-name="Pi" unicode="&#x3a0;" horiz-adv-x="1552" 
d="M1425 1516v-1516h-393v1159h-512v-1159h-393v1516h1298z" />
    <glyph glyph-name="Rho" unicode="&#x3a1;" horiz-adv-x="1323" 
d="M127 0v1516h561q286 0 444 -142.5t158 -382.5q0 -241 -158 -383.5t-444 -142.5h-172v-465h-389zM516 782h156q120 0 174.5 57t54.5 150t-54.5 151t-174.5 58h-156v-416z" />
    <glyph glyph-name="Sigma" unicode="&#x3a3;" horiz-adv-x="1222" 
d="M1149 1516v-349h-524l342 -403v-16l-344 -400h526v-348h-1065v297l391 459l-391 463v297h1065z" />
    <glyph glyph-name="Tau" unicode="&#x3a4;" horiz-adv-x="1331" 
d="M469 0v1159h-444v357h1282v-357h-445v-1159h-393z" />
    <glyph glyph-name="Upsilon" unicode="&#x3a5;" horiz-adv-x="1476" 
d="M1036 1516h426l-528 -914v-602h-391v600l-529 916h426l297 -547z" />
    <glyph glyph-name="Phi" unicode="&#x3a6;" horiz-adv-x="1822" 
d="M1772 756q0 -171 -75.5 -314t-227.5 -243.5t-361 -132.5v-148h-393v148q-209 32 -361 132.5t-227.5 243.5t-75.5 314q0 262 175.5 453t488.5 241v147h393v-147q313 -50 488.5 -241t175.5 -453zM446 756q0 -267 269 -334v672q-269 -70 -269 -338zM1108 422q268 67 268 334
q0 268 -268 338v-672z" />
    <glyph glyph-name="Chi" unicode="&#x3a7;" horiz-adv-x="1462" 
d="M1487 0h-469l-297 442l-277 -442h-469l523 772l-500 744h469l283 -420l243 420h469l-489 -750z" />
    <glyph glyph-name="Psi" unicode="&#x3a8;" horiz-adv-x="1708" 
d="M1264 1516h393l-2 -375q-1 -309 -159 -493t-445 -230v-418h-394v418q-289 47 -447 231t-157 492l2 375h394l-3 -361q-2 -169 44.5 -256.5t168.5 -118.5v736h394v-736q117 31 162 118.5t47 256.5z" />
    <glyph glyph-name="uni03A9" unicode="&#x3a9;" horiz-adv-x="1687" 
d="M1606 838q0 -300 -197 -504h176v-334h-643v334q121 39 193.5 155.5t72.5 282.5q0 184 -102.5 297t-261.5 113t-262 -113t-103 -297q0 -166 72.5 -282.5t193.5 -155.5v-334h-643v334h177q-197 204 -197 504q0 145 56 274.5t155 224.5t242 150t309 55t309 -55t242 -150
t155 -224.5t56 -274.5z" />
    <glyph glyph-name="Iotadieresis" unicode="&#x3aa;" horiz-adv-x="647" 
d="M37 1638q-101 0 -163 60.5t-62 154.5t62 154.5t163 60.5t163 -60.5t62 -154.5t-62 -154.5t-163 -60.5zM610 1638q-101 0 -163 60.5t-62 154.5t62 154.5t163 60.5t163.5 -60.5t62.5 -154.5t-62.5 -154.5t-163.5 -60.5zM127 0v1516h393v-1516h-393z" />
    <glyph glyph-name="Upsilondieresis" unicode="&#x3ab;" horiz-adv-x="1476" 
d="M453 1638q-101 0 -163.5 60.5t-62.5 154.5t62.5 154.5t163.5 60.5t163 -60.5t62 -154.5t-62 -154.5t-163 -60.5zM1026 1638q-101 0 -163 60.5t-62 154.5t62 154.5t163 60.5t163 -60.5t62 -154.5t-62 -154.5t-163 -60.5zM1036 1516h426l-528 -914v-602h-391v600l-529 916
h426l297 -547z" />
    <glyph glyph-name="alphatonos" unicode="&#x3ac;" horiz-adv-x="1306" 
d="M862 1638l-135 -524l-281 51l109 473h307zM1212 279q22 0 43 6v-285q-77 -18 -139 -18q-248 0 -321 149q-81 -149 -299 -149q-128 0 -231 67t-159.5 182.5t-56.5 255.5q0 213 126.5 358.5t320.5 145.5q180 0 266 -102v84h389v-635q0 -29 16.5 -44t44.5 -15zM604 322
q69 0 113.5 47.5t44.5 117.5q0 69 -44.5 116.5t-113.5 47.5q-70 0 -116 -48t-46 -116q0 -70 46 -117.5t116 -47.5z" />
    <glyph glyph-name="epsilontonos" unicode="&#x3ad;" horiz-adv-x="1015" 
d="M774 1638l-135 -524l-281 51l109 473h307zM829 309l191 -200q-68 -73 -188.5 -118.5t-272.5 -45.5q-248 0 -380 95t-132 243q0 72 37.5 136t108.5 101q-57 33 -89 91.5t-32 121.5q0 43 15 83t50.5 79t89 68t137 47t187.5 18q125 0 231.5 -33t178.5 -88l-203 -213
q-42 31 -83.5 43.5t-107.5 12.5q-131 0 -131 -62q0 -57 111 -57h182v-277h-197q-116 0 -116 -57q0 -64 157 -64q81 0 139.5 18t116.5 58z" />
    <glyph glyph-name="etatonos" unicode="&#x3ae;" horiz-adv-x="1255" 
d="M889 1638l-135 -524l-281 51l109 473h307zM791 991q168 0 272 -108.5t104 -302.5v-1098h-389v997q0 81 -27 122.5t-89 41.5q-117 0 -117 -143v-500h-389v616q0 29 -17 44.5t-45 15.5q-22 0 -43 -6v284q82 19 139 19q219 0 302 -115q63 74 134 103.5t165 29.5z" />
    <glyph glyph-name="iotatonos" unicode="&#x3af;" horiz-adv-x="673" 
d="M96 1165l109 473h307l-135 -524zM444 -18q-167 0 -260.5 95.5t-93.5 239.5v656h389v-586q0 -52 23 -79t78 -27q22 0 45 2v-289q-73 -12 -181 -12z" />
    <glyph glyph-name="upsilondieresistonos" unicode="&#x3b0;" horiz-adv-x="1183" 
d="M424 1153l111 485h266l-137 -536zM186 1124q-93 0 -148.5 54.5t-55.5 140.5t55.5 140t148.5 54t149 -54t56 -140t-56 -140.5t-149 -54.5zM995 1124q-93 0 -148.5 54.5t-55.5 140.5t55.5 140t148.5 54t149 -54t56 -140t-56 -140.5t-149 -54.5zM590 -18q-126 0 -224.5 36
t-159 101t-91.5 150t-31 186v518h389v-479q0 -88 28 -126t91 -38t91 38t28 126v479h389v-518q0 -101 -31.5 -186t-93 -150t-160.5 -101t-225 -36z" />
    <glyph glyph-name="alpha" unicode="&#x3b1;" horiz-adv-x="1306" 
d="M1212 279q22 0 43 6v-285q-77 -18 -139 -18q-248 0 -321 149q-81 -149 -299 -149q-128 0 -231 67t-159.5 182.5t-56.5 255.5q0 213 126.5 358.5t320.5 145.5q180 0 266 -102v84h389v-635q0 -29 16.5 -44t44.5 -15zM604 322q69 0 113.5 47.5t44.5 117.5q0 69 -44.5 116.5
t-113.5 47.5q-70 0 -116 -48t-46 -116q0 -70 46 -117.5t116 -47.5z" />
    <glyph glyph-name="beta" unicode="&#x3b2;" horiz-adv-x="1239" 
d="M934 797q118 -45 188 -150.5t70 -245.5q0 -194 -132 -307.5t-335 -113.5q-136 0 -242 59v-557h-385v1581q0 209 148 344t385 135q143 0 257.5 -51t180.5 -147t66 -220q0 -109 -52 -196.5t-149 -130.5zM649 319q71 0 115.5 40.5t44.5 107.5q0 66 -49.5 103.5t-126.5 37.5
h-33v328h27q58 0 95.5 37t37.5 100t-36 96t-99 33q-64 0 -103 -41.5t-39 -113.5v-558q0 -83 46 -126.5t120 -43.5z" />
    <glyph glyph-name="gamma" unicode="&#x3b3;" horiz-adv-x="1193" 
d="M793 973h401l-401 -1034v-457h-390v457l-405 1034h403l195 -611z" />
    <glyph glyph-name="delta" unicode="&#x3b4;" horiz-adv-x="1208" 
d="M879 975q159 -129 220.5 -245.5t61.5 -242.5q0 -102 -38.5 -193.5t-109 -161t-176.5 -110t-233 -40.5t-233 40.5t-176.5 110t-109 161t-38.5 193.5q0 164 96 293t265 181l-279 227v328h909v-308h-446zM604 322q75 0 119.5 46t44.5 119q0 72 -44.5 118t-119.5 46
t-119.5 -46t-44.5 -118q0 -73 44.5 -119t119.5 -46z" />
    <glyph glyph-name="epsilon" unicode="&#x3b5;" horiz-adv-x="1015" 
d="M829 309l191 -200q-68 -73 -188.5 -118.5t-272.5 -45.5q-248 0 -380 95t-132 243q0 72 37.5 136t108.5 101q-57 33 -89 91.5t-32 121.5q0 43 15 83t50.5 79t89 68t137 47t187.5 18q125 0 231.5 -33t178.5 -88l-203 -213q-42 31 -83.5 43.5t-107.5 12.5q-131 0 -131 -62
q0 -57 111 -57h182v-277h-197q-116 0 -116 -57q0 -64 157 -64q81 0 139.5 18t116.5 58z" />
    <glyph glyph-name="zeta" unicode="&#x3b6;" horiz-adv-x="1038" 
d="M768 303l236 2v-680h-390v377q-257 18 -410 165.5t-153 358.5q0 180 82.5 317.5t276.5 284.5l104 80h-444v308h897v-336l-281 -224q-138 -109 -190 -198t-52 -193q0 -121 82.5 -192t241.5 -70z" />
    <glyph glyph-name="eta" unicode="&#x3b7;" horiz-adv-x="1255" 
d="M791 991q168 0 272 -108.5t104 -302.5v-1098h-389v997q0 81 -27 122.5t-89 41.5q-117 0 -117 -143v-500h-389v616q0 29 -17 44.5t-45 15.5q-22 0 -43 -6v284q82 19 139 19q219 0 302 -115q63 74 134 103.5t165 29.5z" />
    <glyph glyph-name="theta" unicode="&#x3b8;" horiz-adv-x="1282" 
d="M641 1542q266 0 426 -210.5t160 -575.5t-160 -574t-426 -209t-426 209t-160 574t160 575.5t426 210.5zM641 1202q-88 0 -136 -67t-61 -224h394q-13 157 -61 224t-136 67zM641 313q87 0 135.5 67.5t61.5 223.5h-394q13 -156 61.5 -223.5t135.5 -67.5z" />
    <glyph glyph-name="iota" unicode="&#x3b9;" horiz-adv-x="673" 
d="M444 -18q-167 0 -260.5 95.5t-93.5 239.5v656h389v-586q0 -52 23 -79t78 -27q22 0 45 2v-289q-73 -12 -181 -12z" />
    <glyph glyph-name="kappa" unicode="&#x3ba;" horiz-adv-x="1189" 
d="M770 0l-188 299l-115 -104v-195h-369v973h369v-338l172 182q82 87 154.5 121.5t205.5 34.5h91v-309h-13q-57 0 -92.5 -15t-87.5 -61l-55 -49l342 -539h-414z" />
    <glyph glyph-name="lambda" unicode="&#x3bb;" horiz-adv-x="1146" 
d="M1133 0h-402l-158 610l-167 -610h-400l385 1059l-37 110q-13 43 -37 61.5t-63 18.5q-29 0 -49 -8v283q73 12 139 12q139 0 218 -54t122 -177z" />
    <glyph glyph-name="uni03BC" unicode="&#x3bc;" horiz-adv-x="1280" 
d="M1186 279q22 0 43 6v-285q-77 -18 -139 -18q-186 0 -271 79q-79 -79 -186 -79q-90 0 -146 41v-369h-389v1319h389v-500q0 -81 31.5 -116t91.5 -35q62 0 93.5 35t31.5 116v500h389v-635q0 -29 17 -44t45 -15z" />
    <glyph glyph-name="nu" unicode="&#x3bd;" horiz-adv-x="1144" 
d="M735 973h400l-334 -973h-457l-334 973h400l163 -594z" />
    <glyph glyph-name="xi" unicode="&#x3be;" horiz-adv-x="1030" 
d="M674 295l319 2v-672h-389v375q-263 11 -410 122.5t-147 313.5q0 120 62 208.5t182 137.5q-166 82 -166 252q0 97 68 174h-127v308h897v-308h-273q-86 0 -136 -40t-50 -101q0 -64 55 -99.5t166 -35.5h166v-303h-293q-69 0 -113.5 -45.5t-44.5 -114.5q0 -84 60.5 -129
t173.5 -45z" />
    <glyph glyph-name="omicron" unicode="&#x3bf;" horiz-adv-x="1208" 
d="M604 -18q-127 0 -233 40.5t-176.5 110t-109 161t-38.5 193.5q0 81 24 156t72 138t114.5 110t155.5 73.5t191 26.5t191 -26.5t155.5 -73.5t114.5 -110t72 -138t24 -156q0 -102 -38.5 -193.5t-109 -161t-176.5 -110t-233 -40.5zM604 322q75 0 119.5 46t44.5 119
q0 72 -44.5 118t-119.5 46t-119.5 -46t-44.5 -118q0 -73 44.5 -119t119.5 -46z" />
    <glyph glyph-name="pi" unicode="&#x3c0;" horiz-adv-x="1327" 
d="M1262 666h-125v-320q0 -33 18.5 -50t48.5 -17q31 0 58 8v-283q-61 -22 -160 -22q-167 0 -260.5 89.5t-93.5 250.5v344h-187v-666h-389v666h-121v307h1211v-307z" />
    <glyph glyph-name="rho" unicode="&#x3c1;" horiz-adv-x="1222" 
d="M631 991q122 0 224.5 -41t172 -110.5t108 -163.5t38.5 -199q0 -135 -61 -247.5t-175.5 -180t-259.5 -67.5q-131 0 -217 61v-561h-389v964q0 154 70 278.5t198 195.5t291 71zM616 309q73 0 118.5 47.5t45.5 124.5q0 75 -45.5 122.5t-118.5 47.5t-118 -47.5t-45 -122.5
q0 -77 45 -124.5t118 -47.5z" />
    <glyph glyph-name="uni03C2" unicode="&#x3c2;" horiz-adv-x="1058" 
d="M440 485q0 -193 303 -190l258 2v-672h-389v377q-269 24 -417 160t-148 336q0 213 158 354t399 141q270 0 426 -198l-229 -242q-35 51 -78.5 75.5t-108.5 24.5q-80 0 -127 -45t-47 -123z" />
    <glyph glyph-name="sigma" unicode="&#x3c3;" horiz-adv-x="1230" 
d="M1182 973v-307h-160q98 -101 98 -240q0 -193 -147 -318.5t-389 -125.5q-120 0 -222 40.5t-170 110t-106.5 161t-38.5 193.5q0 207 148 346.5t389 139.5h598zM594 322q69 0 111.5 46.5t42.5 118.5q0 71 -43 117.5t-111 46.5t-111 -46.5t-43 -117.5q0 -72 42.5 -118.5
t111.5 -46.5z" />
    <glyph glyph-name="tau" unicode="&#x3c4;" horiz-adv-x="1114" 
d="M1061 666h-352v-203q0 -82 44.5 -128t137.5 -46t143 20v-301q-74 -26 -227 -26q-222 0 -355 122t-133 359v203h-292v307h1034v-307z" />
    <glyph glyph-name="upsilon" unicode="&#x3c5;" horiz-adv-x="1183" 
d="M590 -18q-126 0 -224.5 36t-159 101t-91.5 150t-31 186v518h389v-479q0 -88 28 -126t91 -38t91 38t28 126v479h389v-518q0 -101 -31.5 -186t-93 -150t-160.5 -101t-225 -36z" />
    <glyph glyph-name="phi" unicode="&#x3c6;" horiz-adv-x="1597" 
d="M1550 469q0 -201 -152 -345t-409 -159v-483h-381v483q-257 15 -409 159t-152 345q0 202 154.5 346t416.5 156v370h361v-370q262 -12 416.5 -156t154.5 -346zM430 469q0 -76 50 -124.5t138 -59.5v366q-88 -11 -138 -58.5t-50 -123.5zM979 285q88 11 138 59.5t50 124.5
t-50 123.5t-138 58.5v-366z" />
    <glyph glyph-name="chi" unicode="&#x3c7;" horiz-adv-x="1222" 
d="M1214 -518h-413l-193 383l-180 -383h-399l391 754l-197 391q-44 84 -119 84q-44 0 -73 -13v273q72 26 170 26q128 0 219 -61.5t164 -206.5l55 -111l156 355h399l-363 -735z" />
    <glyph glyph-name="psi" unicode="&#x3c8;" horiz-adv-x="1503" 
d="M1069 973h369v-434q0 -185 -137.5 -335t-358.5 -202v-520h-381v520q-220 52 -357.5 202t-137.5 335v434h368v-395q0 -142 127 -207v970h381v-970q127 67 127 207v395z" />
    <glyph glyph-name="omega" unicode="&#x3c9;" horiz-adv-x="1630" 
d="M1421 995q154 -180 154 -481q0 -253 -113.5 -393.5t-298.5 -140.5q-135 0 -229.5 63t-118.5 164q-24 -101 -118.5 -164t-229.5 -63q-185 0 -298.5 140.5t-113.5 393.5q0 301 154 481l344 -149q-107 -154 -107 -318q0 -113 24 -161t73 -48q45 0 67.5 40.5t22.5 107.5v266
h364v-266q0 -67 22.5 -107.5t67.5 -40.5q49 0 73 48t24 161q0 164 -107 318z" />
    <glyph glyph-name="iotadieresis" unicode="&#x3ca;" horiz-adv-x="673" 
d="M18 1104q-101 0 -163 60.5t-62 154.5t62 154.5t163 60.5t163.5 -60.5t62.5 -154.5t-62.5 -154.5t-163.5 -60.5zM551 1104q-101 0 -163 60.5t-62 154.5t62 154.5t163 60.5t163 -60.5t62 -154.5t-62 -154.5t-163 -60.5zM444 -18q-167 0 -260.5 95.5t-93.5 239.5v656h389
v-586q0 -52 23 -79t78 -27q22 0 45 2v-289q-73 -12 -181 -12z" />
    <glyph glyph-name="upsilondieresis" unicode="&#x3cb;" horiz-adv-x="1183" 
d="M326 1104q-101 0 -163.5 60.5t-62.5 154.5t62.5 154.5t163.5 60.5t163 -60.5t62 -154.5t-62 -154.5t-163 -60.5zM858 1104q-101 0 -163 60.5t-62 154.5t62 154.5t163 60.5t163 -60.5t62 -154.5t-62 -154.5t-163 -60.5zM590 -18q-126 0 -224.5 36t-159 101t-91.5 150
t-31 186v518h389v-479q0 -88 28 -126t91 -38t91 38t28 126v479h389v-518q0 -101 -31.5 -186t-93 -150t-160.5 -101t-225 -36z" />
    <glyph glyph-name="omicrontonos" unicode="&#x3cc;" horiz-adv-x="1208" 
d="M416 1165l108 473h307l-135 -524zM604 -18q-127 0 -233 40.5t-176.5 110t-109 161t-38.5 193.5q0 81 24 156t72 138t114.5 110t155.5 73.5t191 26.5t191 -26.5t155.5 -73.5t114.5 -110t72 -138t24 -156q0 -102 -38.5 -193.5t-109 -161t-176.5 -110t-233 -40.5zM604 322
q75 0 119.5 46t44.5 119q0 72 -44.5 118t-119.5 46t-119.5 -46t-44.5 -118q0 -73 44.5 -119t119.5 -46z" />
    <glyph glyph-name="upsilontonos" unicode="&#x3cd;" horiz-adv-x="1183" 
d="M403 1165l109 473h307l-135 -524zM590 -18q-126 0 -224.5 36t-159 101t-91.5 150t-31 186v518h389v-479q0 -88 28 -126t91 -38t91 38t28 126v479h389v-518q0 -101 -31.5 -186t-93 -150t-160.5 -101t-225 -36z" />
    <glyph glyph-name="omegatonos" unicode="&#x3ce;" horiz-adv-x="1630" 
d="M1042 1638l-135 -524l-280 51l108 473h307zM1421 995q154 -180 154 -481q0 -253 -113.5 -393.5t-298.5 -140.5q-135 0 -229.5 63t-118.5 164q-24 -101 -118.5 -164t-229.5 -63q-185 0 -298.5 140.5t-113.5 393.5q0 301 154 481l344 -149q-107 -154 -107 -318
q0 -113 24 -161t73 -48q45 0 67.5 40.5t22.5 107.5v266h364v-266q0 -67 22.5 -107.5t67.5 -40.5q49 0 73 48t24 161q0 164 -107 318z" />
    <glyph glyph-name="uni0401" unicode="&#x401;" horiz-adv-x="1269" 
d="M377 1638q-101 0 -163 60.5t-62 154.5t62 154.5t163 60.5t163 -60.5t62 -154.5t-62 -154.5t-163 -60.5zM950 1638q-101 0 -163 60.5t-62 154.5t62 154.5t163 60.5t163.5 -60.5t62.5 -154.5t-62.5 -154.5t-163.5 -60.5zM127 0v1516h1065v-349h-672v-221h545v-348h-545
v-250h672v-348h-1065z" />
    <glyph glyph-name="uni0402" unicode="&#x402;" horiz-adv-x="1609" 
d="M1053 891q240 0 374 -121.5t134 -339.5q0 -141 -61 -244.5t-161 -154.5t-225 -51q-88 0 -149 20v354q50 -18 96 -18q45 0 73.5 26t28.5 72q0 47 -34 76t-89 29h-297v-539h-393v1159h-321v357h1159v-357h-445v-268h310z" />
    <glyph glyph-name="uni0403" unicode="&#x403;" horiz-adv-x="1206" 
d="M391 1651l-82 274l580 143l82 -286zM127 1516h1055v-349h-662v-1167h-393v1516z" />
    <glyph glyph-name="uni0410" unicode="&#x410;" horiz-adv-x="1540" 
d="M1128 0l-88 242h-540l-88 -242h-412l575 1516h392l573 -1516h-412zM922 578l-152 483l-154 -483h306z" />
    <glyph glyph-name="uni0411" unicode="&#x411;" horiz-adv-x="1335" 
d="M733 932q262 0 409.5 -128t147.5 -339t-147.5 -338t-409.5 -127h-606v1516h1055v-349h-662v-235h213zM723 317q89 0 133.5 43.5t44.5 112.5t-44.5 111.5t-133.5 42.5h-207v-310h207z" />
    <glyph glyph-name="uni0412" unicode="&#x412;" horiz-adv-x="1331" 
d="M127 0v1516h553q264 0 400.5 -103.5t136.5 -275.5q0 -249 -218 -338q142 -46 209.5 -135t67.5 -236q0 -205 -153.5 -316.5t-432.5 -111.5h-563zM516 920h186q60 0 92.5 36.5t32.5 102.5q0 67 -38.5 103t-114.5 36h-158v-278zM516 307h135q123 0 179.5 39.5t56.5 120.5
q0 73 -52.5 114.5t-150.5 41.5h-168v-316z" />
    <glyph glyph-name="uni0413" unicode="&#x413;" horiz-adv-x="1206" 
d="M127 1516h1055v-349h-662v-1167h-393v1516z" />
    <glyph glyph-name="uni0414" unicode="&#x414;" horiz-adv-x="1734" 
d="M1464 346h217v-735h-378v389h-897v-389h-379v735h219q90 521 90 1170h1128v-1170zM639 346h432v813h-350q-17 -438 -82 -813z" />
    <glyph glyph-name="uni0415" unicode="&#x415;" horiz-adv-x="1269" 
d="M127 0v1516h1065v-349h-672v-221h545v-348h-545v-250h672v-348h-1065z" />
    <glyph glyph-name="uni0416" unicode="&#x416;" horiz-adv-x="1978" 
d="M1456 766l561 -766h-444l-406 584v-584h-358v584l-403 -584h-445l561 766l-499 750h419l367 -598v598h358v-598l369 598h420z" />
    <glyph glyph-name="uni0417" unicode="&#x417;" horiz-adv-x="1148" 
d="M864 791q223 -120 223 -351q0 -215 -146 -341t-368 -126q-113 0 -203.5 27.5t-160 85t-112.5 151t-54 220.5h389q7 -60 44 -91.5t95 -31.5q59 0 96.5 35t37.5 98q0 66 -47.5 106.5t-133.5 40.5h-121v322h121q72 0 113 34t41 93q0 57 -31 88t-82 31q-50 0 -82.5 -27.5
t-38.5 -71.5h-389q20 213 153 336t347 123q104 0 194.5 -26t160.5 -75.5t110.5 -128.5t40.5 -179q0 -111 -52.5 -199.5t-144.5 -142.5z" />
    <glyph glyph-name="uni0418" unicode="&#x418;" horiz-adv-x="1626" 
d="M1051 1516h448v-1516h-393v985l-584 -985h-395v1516h393v-906z" />
    <glyph glyph-name="uni0419" unicode="&#x419;" horiz-adv-x="1626" 
d="M813 1651q-171 0 -274 111.5t-103 285.5h240q0 -66 35 -105.5t102 -39.5t102 39.5t35 105.5h240q0 -174 -103.5 -285.5t-273.5 -111.5zM1051 1516h448v-1516h-393v985l-584 -985h-395v1516h393v-906z" />
    <glyph glyph-name="uni041A" unicode="&#x41a;" horiz-adv-x="1406" 
d="M823 760l631 -760h-493l-441 549v-549h-393v1516h393v-562l404 562h477z" />
    <glyph glyph-name="uni041B" unicode="&#x41b;" horiz-adv-x="1613" 
d="M1487 1516v-1516h-393v1159h-394q-9 -190 -23.5 -339.5t-38 -267.5t-52 -205t-69.5 -150t-85.5 -102.5t-106 -63t-126 -32.5t-148.5 -9v356q39 0 66 8.5t56 36t48.5 78.5t38.5 136.5t31.5 209.5t22.5 298.5t16 402.5h1157z" />
    <glyph glyph-name="uni041C" unicode="&#x41c;" horiz-adv-x="1921" 
d="M1280 1516h514v-1516h-379v1055l-313 -533h-283l-313 533v-1055h-379v1516h514l320 -547z" />
    <glyph glyph-name="uni041D" unicode="&#x41d;" horiz-adv-x="1593" 
d="M1073 1516h393v-1516h-393v600h-553v-600h-393v1516h393v-560h553v560z" />
    <glyph glyph-name="uni041E" unicode="&#x41e;" horiz-adv-x="1728" 
d="M864 -27q-170 0 -320.5 62t-257 167t-168 249.5t-61.5 304.5t61.5 304.5t167.5 250.5t257 168.5t321 62.5t321 -62.5t257 -168.5t167.5 -250.5t61.5 -304.5t-61.5 -304.5t-168 -249.5t-257 -167t-320.5 -62zM864 334q181 0 295.5 118t114.5 304q0 187 -114.5 306.5
t-295.5 119.5t-295 -119.5t-114 -306.5q0 -186 114 -304t295 -118z" />
    <glyph glyph-name="uni041F" unicode="&#x41f;" horiz-adv-x="1566" 
d="M1440 1516v-1516h-393v1159h-527v-1159h-393v1516h1313z" />
    <glyph glyph-name="uni0420" unicode="&#x420;" horiz-adv-x="1323" 
d="M127 0v1516h561q286 0 444 -142.5t158 -382.5q0 -241 -158 -383.5t-444 -142.5h-172v-465h-389zM516 782h156q120 0 174.5 57t54.5 150t-54.5 151t-174.5 58h-156v-416z" />
    <glyph glyph-name="uni0421" unicode="&#x421;" horiz-adv-x="1435" 
d="M864 -27q-170 0 -320.5 62t-257 167t-168 249.5t-61.5 304.5t61.5 304.5t167.5 250.5t257 168.5t321 62.5q167 0 315 -59.5t257 -165.5l-238 -268q-55 61 -140.5 97t-172.5 36q-194 0 -312 -119t-118 -307t118 -307t312 -119q83 0 162.5 32t142.5 91l229 -271
q-108 -99 -250.5 -154t-304.5 -55z" />
    <glyph glyph-name="uni0422" unicode="&#x422;" horiz-adv-x="1331" 
d="M469 0v1159h-444v357h1282v-357h-445v-1159h-393z" />
    <glyph glyph-name="uni0423" unicode="&#x423;" horiz-adv-x="1464" 
d="M1038 1516h426l-577 -1135q-115 -224 -264 -316t-392 -92v349q115 0 188.5 35t127.5 116l-531 1043h426l297 -633z" />
    <glyph glyph-name="uni0424" unicode="&#x424;" horiz-adv-x="1871" 
d="M1821 766q0 -124 -43 -230.5t-126.5 -189.5t-218 -132.5t-307.5 -55.5v-219h-381v219q-173 6 -307.5 55.5t-218 132.5t-126 189.5t-42.5 230.5t42.5 230t126 188.5t218 132t307.5 55.5v205h381v-205q173 -6 307.5 -55.5t218 -132t126.5 -188.5t43 -230zM430 764
q0 -119 71.5 -188.5t243.5 -77.5v534q-89 -4 -152 -26t-97.5 -59t-50 -81.5t-15.5 -101.5zM1126 498q172 8 244 77.5t72 188.5q0 57 -15.5 102t-50.5 81.5t-98 58.5t-152 26v-534z" />
    <glyph glyph-name="uni0425" unicode="&#x425;" horiz-adv-x="1462" 
d="M1487 0h-469l-297 442l-277 -442h-469l523 772l-500 744h469l283 -420l243 420h469l-489 -750z" />
    <glyph glyph-name="uni0426" unicode="&#x426;" horiz-adv-x="1710" 
d="M1440 346h217v-735h-379v389h-1151v1516h393v-1170h527v1170h393v-1170z" />
    <glyph glyph-name="uni0427" unicode="&#x427;" horiz-adv-x="1503" 
d="M983 1516h393v-1516h-393v555q-57 -57 -156.5 -93t-222.5 -36q-239 0 -379.5 145.5t-140.5 382.5v562h393v-496q0 -109 57 -171.5t175 -62.5q120 0 197 59.5t77 153.5v517z" />
    <glyph glyph-name="uni0428" unicode="&#x428;" horiz-adv-x="2211" 
d="M1692 1516h393v-1516h-1958v1516h393v-1170h389v1170h394v-1170h389v1170z" />
    <glyph glyph-name="uni0429" unicode="&#x429;" horiz-adv-x="2355" 
d="M2085 346h217v-735h-379v389h-1796v1516h393v-1170h389v1170h394v-1170h389v1170h393v-1170z" />
    <glyph glyph-name="uni042A" unicode="&#x42a;" horiz-adv-x="1622" 
d="M1006 973q279 0 433 -131t154 -357q0 -225 -153.5 -355t-433.5 -130h-576v1159h-405v357h798v-543h183zM995 317q105 0 157 47t52 130q0 82 -51.5 128t-157.5 46h-176v-351h176z" />
    <glyph glyph-name="uni042B" unicode="&#x42b;" horiz-adv-x="1953" 
d="M520 1516v-543h182q279 0 433.5 -131t154.5 -357q0 -225 -154 -355t-434 -130h-575v1516h393zM1434 1516h393v-1516h-393v1516zM516 317h176q105 0 157 47t52 130q0 82 -51.5 128t-157.5 46h-176v-351z" />
    <glyph glyph-name="uni042C" unicode="&#x42c;" horiz-adv-x="1318" 
d="M520 1516v-543h182q279 0 433.5 -131t154.5 -357q0 -225 -154 -355t-434 -130h-575v1516h393zM516 317h176q105 0 157 47t52 130q0 82 -51.5 128t-157.5 46h-176v-351z" />
    <glyph glyph-name="uni042D" unicode="&#x42d;" horiz-adv-x="1443" 
d="M580 1542q170 0 320.5 -62.5t256.5 -168.5t167.5 -250.5t61.5 -304.5t-61.5 -304.5t-167.5 -249.5t-256.5 -167t-320.5 -62q-162 0 -304.5 55t-250.5 154l229 271q63 -59 142.5 -91t162.5 -32q144 0 248 67t149 183h-442v356h440q-47 115 -150 180.5t-245 65.5
q-87 0 -172.5 -36t-140.5 -97l-238 268q109 106 257 165.5t315 59.5z" />
    <glyph glyph-name="uni042E" unicode="&#x42e;" horiz-adv-x="2230" 
d="M1456 1542q155 0 287.5 -58.5t226 -162t146.5 -249.5t53 -316q0 -227 -90.5 -405.5t-253.5 -278t-369 -99.5q-277 0 -467 172t-233 455h-236v-600h-393v1516h393v-560h244q55 265 241.5 425.5t450.5 160.5zM1456 334q144 0 230 110.5t86 311.5q0 202 -86 314t-230 112
q-145 0 -230 -112.5t-85 -313.5t85 -311.5t230 -110.5z" />
    <glyph glyph-name="uni042F" unicode="&#x42f;" horiz-adv-x="1361" 
d="M637 1516h598v-1516h-389v559h-111l-272 -559h-420l315 606q-139 54 -212.5 166t-73.5 266q0 220 147.5 349t417.5 129zM846 864v334h-176q-105 0 -157 -45.5t-52 -122.5t52 -121.5t157 -44.5h176z" />
    <glyph glyph-name="uni0430" unicode="&#x430;" horiz-adv-x="1249" 
d="M762 973h389v-973h-389v78q-80 -96 -246 -96q-196 0 -331.5 146.5t-135.5 358.5q0 211 135.5 357.5t331.5 146.5q166 0 246 -96v78zM604 322q69 0 113.5 47.5t44.5 117.5q0 69 -44.5 116.5t-113.5 47.5q-70 0 -116 -48t-46 -116q0 -70 46 -117.5t116 -47.5z" />
    <glyph glyph-name="uni0431" unicode="&#x431;" horiz-adv-x="1226" 
d="M723 928q198 0 326.5 -130.5t128.5 -324.5q0 -97 -38.5 -185.5t-108.5 -156.5t-176.5 -108.5t-233.5 -40.5t-235 47t-180 127t-112.5 186.5t-40.5 224.5q0 241 107.5 410t322.5 295l420 244l168 -285l-455 -262q-46 -25 -94 -80q80 39 201 39zM612 322q81 0 126.5 45
t45.5 114q0 67 -44.5 113.5t-118.5 46.5q-138 0 -189 -133q13 -92 60.5 -139t119.5 -47z" />
    <glyph glyph-name="uni0432" unicode="&#x432;" horiz-adv-x="1056" 
d="M98 973h533q171 0 257.5 -65t86.5 -185q0 -143 -141 -213q78 -23 126 -89.5t48 -150.5q0 -270 -381 -270h-529v973zM541 602q75 0 75 66q0 65 -75 65h-95v-131h95zM563 240q41 0 63.5 17t22.5 46q0 32 -23 51t-65 19h-115v-133h117z" />
    <glyph glyph-name="uni0433" unicode="&#x433;" horiz-adv-x="886" 
d="M860 973v-307h-373v-666h-389v973h762z" />
    <glyph glyph-name="uni0434" unicode="&#x434;" horiz-adv-x="1271" 
d="M1061 307h156v-565h-357v258h-452v-258h-357v565h127q33 258 33 664h850v-664zM539 307h161v357h-135q-5 -178 -26 -357z" />
    <glyph glyph-name="uni0435" unicode="&#x435;" horiz-adv-x="1126" 
d="M408 393q39 -133 217 -133q133 0 206 86l205 -180q-163 -184 -432 -184q-258 0 -407.5 143t-149.5 362q0 215 143 359.5t373 144.5q234 0 375 -138.5t141 -365.5q0 -40 -4 -94h-667zM573 733q-137 0 -167 -145h335q-30 145 -168 145z" />
    <glyph glyph-name="uni0436" unicode="&#x436;" horiz-adv-x="1560" 
d="M1575 0h-401l-209 338v-338h-369v338l-209 -338h-401l338 498l-326 475h393l205 -334v334h369v-334l204 334h394l-326 -475z" />
    <glyph glyph-name="uni0437" unicode="&#x437;" horiz-adv-x="888" 
d="M694 520q71 -35 108.5 -99t37.5 -138q0 -129 -113.5 -215t-286.5 -86q-195 0 -304.5 91.5t-115.5 248.5h299q22 -52 87 -52t65 45q0 47 -76 47h-82v277h68q70 0 70 37q0 17 -14 27t-36 10q-43 0 -53 -27h-299q8 136 108 220.5t281 84.5q95 0 169 -23.5t118.5 -63.5
t67 -88.5t22.5 -102.5q0 -50 -32.5 -104.5t-88.5 -88.5z" />
    <glyph glyph-name="uni0438" unicode="&#x438;" horiz-adv-x="1222" 
d="M756 973h368v-973h-368v459l-289 -459h-369v973h369v-459z" />
    <glyph glyph-name="uni0439" unicode="&#x439;" horiz-adv-x="1222" 
d="M612 1108q-171 0 -273.5 111.5t-102.5 285.5h239q0 -66 35 -105.5t102 -39.5t102.5 40t35.5 105h239q0 -174 -103.5 -285.5t-273.5 -111.5zM756 973h368v-973h-368v459l-289 -459h-369v973h369v-459z" />
    <glyph glyph-name="uni043A" unicode="&#x43a;" horiz-adv-x="1150" 
d="M1184 0h-430l-267 334v-334h-389v973h389v-330l238 330h424l-365 -475z" />
    <glyph glyph-name="uni043B" unicode="&#x43b;" horiz-adv-x="1216" 
d="M1118 973v-973h-389v666h-141q-8 -143 -26 -248t-50 -180.5t-72 -123t-101 -75.5t-128.5 -38.5t-161.5 -10.5v307q38 0 61 10t46.5 48t35.5 110t20 197.5t9 310.5h897z" />
    <glyph glyph-name="uni043C" unicode="&#x43c;" horiz-adv-x="1353" 
d="M838 971h417v-971h-348v485l-110 -200h-244l-107 196v-481h-348v971h418l158 -293z" />
    <glyph glyph-name="uni043D" unicode="&#x43d;" horiz-adv-x="1222" 
d="M735 973h389v-973h-389v348h-248v-348h-389v973h389v-318h248v318z" />
    <glyph glyph-name="uni043E" unicode="&#x43e;" horiz-adv-x="1208" 
d="M604 -18q-127 0 -233 40.5t-176.5 110t-109 161t-38.5 193.5q0 81 24 156t72 138t114.5 110t155.5 73.5t191 26.5t191 -26.5t155.5 -73.5t114.5 -110t72 -138t24 -156q0 -102 -38.5 -193.5t-109 -161t-176.5 -110t-233 -40.5zM604 322q75 0 119.5 46t44.5 119
q0 72 -44.5 118t-119.5 46t-119.5 -46t-44.5 -118q0 -73 44.5 -119t119.5 -46z" />
    <glyph glyph-name="uni043F" unicode="&#x43f;" horiz-adv-x="1210" 
d="M1112 973v-973h-389v666h-236v-666h-389v973h1014z" />
    <glyph glyph-name="uni0440" unicode="&#x440;" horiz-adv-x="1249" 
d="M733 991q196 0 331.5 -146.5t135.5 -357.5q0 -212 -135.5 -358.5t-331.5 -146.5q-166 0 -246 96v-596h-389v1491h389v-78q80 96 246 96zM645 322q70 0 116 47.5t46 117.5q0 68 -46 116t-116 48q-69 0 -113.5 -47.5t-44.5 -116.5q0 -70 44.5 -117.5t113.5 -47.5z" />
    <glyph glyph-name="uni0441" unicode="&#x441;" horiz-adv-x="1046" 
d="M604 -18q-119 0 -222.5 38t-177 104.5t-115.5 160.5t-42 202q0 145 71.5 260.5t199 180.5t286.5 65q270 0 426 -198l-229 -242q-35 51 -78.5 75.5t-108.5 24.5q-78 0 -126 -47.5t-48 -118.5t48 -118t126 -47q65 0 108.5 24.5t78.5 75.5l229 -242q-156 -198 -426 -198z
" />
    <glyph glyph-name="uni0442" unicode="&#x442;" horiz-adv-x="999" 
d="M971 973v-307h-277v-666h-389v666h-276v307h942z" />
    <glyph glyph-name="uni0443" unicode="&#x443;" horiz-adv-x="1140" 
d="M731 973h399l-509 -1491h-383l153 434l-385 1057h400l167 -611z" />
    <glyph glyph-name="uni0444" unicode="&#x444;" horiz-adv-x="1662" 
d="M1210 991q174 0 288 -140.5t114 -363.5q0 -225 -114 -365t-288 -140q-132 0 -194 49v-549h-369v549q-62 -49 -194 -49q-174 0 -288 140t-114 365q0 223 114 363.5t288 140.5q132 0 194 -49v574h369v-574q62 49 194 49zM559 322q62 0 88 32v260q-30 37 -88 37
q-57 0 -93 -42.5t-36 -121.5q0 -80 36 -122.5t93 -42.5zM1104 322q57 0 93 42.5t36 122.5q0 79 -36 121.5t-93 42.5q-58 0 -88 -37v-260q26 -32 88 -32z" />
    <glyph glyph-name="uni0445" unicode="&#x445;" horiz-adv-x="1071" 
d="M1085 0h-399l-158 223l-168 -223h-383l357 500l-334 473h399l148 -209l145 209h387l-334 -490z" />
    <glyph glyph-name="uni0446" unicode="&#x446;" horiz-adv-x="1331" 
d="M1100 307h207v-631h-349v324h-860v973h389v-666h224v666h389v-666z" />
    <glyph glyph-name="uni0447" unicode="&#x447;" horiz-adv-x="1181" 
d="M694 973h389v-973h-389v350q-39 -34 -109 -55t-159 -21q-180 0 -274.5 101t-94.5 272v326h389v-285q0 -52 29.5 -80t79.5 -28q64 0 101.5 29.5t37.5 92.5v271z" />
    <glyph glyph-name="uni0448" unicode="&#x448;" horiz-adv-x="1753" 
d="M1266 973h389v-973h-1557v973h389v-666h195v666h389v-666h195v666z" />
    <glyph glyph-name="uni0449" unicode="&#x449;" horiz-adv-x="1894" 
d="M1655 307h207v-631h-349v324h-1415v973h389v-666h195v666h389v-666h195v666h389v-666z" />
    <glyph glyph-name="uni044A" unicode="&#x44a;" horiz-adv-x="1222" 
d="M807 664q188 0 289.5 -90.5t101.5 -241.5t-101.5 -241.5t-289.5 -90.5h-549v678h-229v295h569v-309h209zM715 254q54 0 78 19.5t24 58.5q0 78 -102 78h-117v-156h117z" />
    <glyph glyph-name="uni044B" unicode="&#x44b;" horiz-adv-x="1648" 
d="M438 973v-309h209q188 0 289.5 -90.5t101.5 -241.5t-101.5 -241.5t-289.5 -90.5h-549v973h340zM1550 973v-973h-389v973h389zM438 254h117q54 0 78 19.5t24 58.5q0 78 -102 78h-117v-156z" />
    <glyph glyph-name="uni044C" unicode="&#x44c;" horiz-adv-x="1062" 
d="M438 973v-309h209q188 0 289.5 -90.5t101.5 -241.5t-101.5 -241.5t-289.5 -90.5h-549v973h340zM438 254h117q54 0 78 19.5t24 58.5q0 78 -102 78h-117v-156z" />
    <glyph glyph-name="uni044D" unicode="&#x44d;" horiz-adv-x="1052" 
d="M449 993q159 0 286.5 -65t199 -180.5t71.5 -260.5q0 -108 -42 -202t-115.5 -160.5t-177 -104.5t-222.5 -38q-270 0 -426 198l188 201q50 -55 99.5 -77.5t123.5 -22.5q103 0 162 84h-211v245h211q-55 84 -162 84q-72 0 -122.5 -23t-100.5 -77l-188 201q156 198 426 198z
" />
    <glyph glyph-name="uni044E" unicode="&#x44e;" horiz-adv-x="1662" 
d="M1098 991q120 0 219 -40.5t163.5 -110t100 -160.5t35.5 -193q0 -138 -60 -251.5t-179.5 -183.5t-278.5 -70q-197 0 -329 101.5t-173 264.5h-109v-348h-389v973h389v-318h117q48 150 177.5 243t316.5 93zM1098 322q59 0 92 45.5t33 119.5q0 73 -33 118.5t-92 45.5
q-60 0 -93.5 -45.5t-33.5 -118.5t33.5 -119t93.5 -46z" />
    <glyph glyph-name="uni044F" unicode="&#x44f;" horiz-adv-x="1091" 
d="M500 973h493v-973h-340v324h-30l-197 -324h-389l231 360q-105 38 -160 113.5t-55 175.5q0 145 115 234.5t332 89.5zM537 713q-103 0 -103 -70q0 -65 103 -65h116v135h-116z" />
    <glyph glyph-name="uni0451" unicode="&#x451;" horiz-adv-x="1126" 
d="M297 1104q-101 0 -163 60.5t-62 154.5t62 154.5t163 60.5t163 -60.5t62 -154.5t-62 -154.5t-163 -60.5zM829 1104q-101 0 -163 60.5t-62 154.5t62 154.5t163 60.5t163.5 -60.5t62.5 -154.5t-62.5 -154.5t-163.5 -60.5zM408 393q39 -133 217 -133q133 0 206 86l205 -180
q-163 -184 -432 -184q-258 0 -407.5 143t-149.5 362q0 215 143 359.5t373 144.5q234 0 375 -138.5t141 -365.5q0 -40 -4 -94h-667zM573 733q-137 0 -167 -145h335q-30 145 -168 145z" />
    <glyph glyph-name="uni0452" unicode="&#x452;" horiz-adv-x="1212" 
d="M756 991q161 0 264.5 -109t103.5 -302v-721q0 -70 -23.5 -133.5t-66.5 -114t-111.5 -80t-152.5 -29.5q-100 0 -180 13v288q23 -2 45 -2q54 0 77 27t23 80v571q0 86 -30 125t-93 39q-125 0 -125 -143v-500h-389v1122h-153v277h153v117h389v-117h277v-277h-277v-227
q51 49 111.5 72.5t157.5 23.5z" />
    <glyph glyph-name="uni0453" unicode="&#x453;" horiz-adv-x="886" 
d="M803 1239l-580 -131l-82 274l580 144zM860 973v-307h-373v-666h-389v973h762z" />
    <glyph glyph-name="uni04EE" unicode="&#x4ee;" horiz-adv-x="1464" 
d="M1114 2001v-277h-737v277h737zM1038 1516h426l-577 -1135q-115 -224 -264 -316t-392 -92v349q115 0 188.5 35t127.5 116l-531 1043h426l297 -633z" />
    <glyph glyph-name="uni04EF" unicode="&#x4ef;" horiz-adv-x="1140" 
d="M944 1450v-276h-737v276h737zM731 973h399l-509 -1491h-383l153 434l-385 1057h400l167 -611z" />
    <glyph glyph-name="Wgrave" unicode="&#x1e80;" horiz-adv-x="2174" 
d="M1417 1925l-82 -274l-579 131l82 286zM1790 1516h383l-444 -1516h-388l-254 963l-251 -963h-390l-444 1516h383l258 -979l258 979h373l260 -979z" />
    <glyph glyph-name="wgrave" unicode="&#x1e81;" horiz-adv-x="1730" 
d="M1206 1382l-82 -274l-579 131l82 287zM1348 973h378l-292 -973h-437l-131 532l-133 -532h-436l-293 973h379l133 -559l131 559h436l134 -559z" />
    <glyph glyph-name="Wacute" unicode="&#x1e82;" horiz-adv-x="2174" 
d="M1417 1782l-579 -131l-82 274l579 143zM1790 1516h383l-444 -1516h-388l-254 963l-251 -963h-390l-444 1516h383l258 -979l258 979h373l260 -979z" />
    <glyph glyph-name="wacute" unicode="&#x1e83;" horiz-adv-x="1730" 
d="M1204 1239l-579 -131l-82 274l579 144zM1348 973h378l-292 -973h-437l-131 532l-133 -532h-436l-293 973h379l133 -559l131 559h436l134 -559z" />
    <glyph glyph-name="Wdieresis" unicode="&#x1e84;" horiz-adv-x="2174" 
d="M801 1638q-101 0 -163.5 60.5t-62.5 154.5t62.5 154.5t163.5 60.5t163 -60.5t62 -154.5t-62 -154.5t-163 -60.5zM1374 1638q-101 0 -163 60.5t-62 154.5t62 154.5t163 60.5t163 -60.5t62 -154.5t-62 -154.5t-163 -60.5zM1790 1516h383l-444 -1516h-388l-254 963
l-251 -963h-390l-444 1516h383l258 -979l258 979h373l260 -979z" />
    <glyph glyph-name="wdieresis" unicode="&#x1e85;" horiz-adv-x="1730" 
d="M610 1104q-101 0 -163 60.5t-62 154.5t62 154.5t163 60.5t163.5 -60.5t62.5 -154.5t-62.5 -154.5t-163.5 -60.5zM1143 1104q-101 0 -163 60.5t-62 154.5t62 154.5t163 60.5t163 -60.5t62 -154.5t-62 -154.5t-163 -60.5zM1348 973h378l-292 -973h-437l-131 532l-133 -532
h-436l-293 973h379l133 -559l131 559h436l134 -559z" />
    <glyph glyph-name="uni1E9E" unicode="&#x1e9e;" horiz-adv-x="1564" 
d="M1163 885q348 -132 348 -461q0 -215 -143 -334t-399 -119q-189 0 -387 105l176 286q114 -57 223 -57q80 0 109.5 25t29.5 78q0 31 -16.5 58t-42 46t-69 40t-83 36t-99 38.5t-103.5 43.5v104l196 393h-383v-1167h-393v1516h1264v-205z" />
    <glyph glyph-name="Ygrave" unicode="&#x1ef2;" horiz-adv-x="1476" 
d="M1069 1925l-82 -274l-579 131l81 286zM1036 1516h426l-528 -914v-602h-391v600l-529 916h426l297 -547z" />
    <glyph glyph-name="ygrave" unicode="&#x1ef3;" horiz-adv-x="1140" 
d="M899 1382l-82 -274l-579 131l81 287zM731 973h399l-509 -1491h-383l153 434l-385 1057h400l167 -611z" />
    <glyph glyph-name="uni1EF8" unicode="&#x1ef8;" horiz-adv-x="1476" 
d="M621 1782q-68 0 -68 -78h-246q0 332 275 332q60 0 114.5 -19.5t95 -39t66.5 -19.5q68 0 68 78h245q0 -164 -66 -248t-208 -84q-60 0 -114.5 19.5t-95 39t-66.5 19.5zM1036 1516h426l-528 -914v-602h-391v600l-529 916h426l297 -547z" />
    <glyph glyph-name="uni1EF9" unicode="&#x1ef9;" horiz-adv-x="1140" 
d="M451 1219q-68 0 -68 -78h-246q0 332 275 332q60 0 114.5 -19.5t95 -39t66.5 -19.5q68 0 68 78h245q0 -164 -66 -248t-208 -84q-60 0 -114.5 19.5t-95 39t-66.5 19.5zM731 973h399l-509 -1491h-383l153 434l-385 1057h400l167 -611z" />
    <glyph glyph-name="endash" unicode="&#x2013;" horiz-adv-x="1337" 
d="M96 698h1145v-237h-1145v237z" />
    <glyph glyph-name="emdash" unicode="&#x2014;" horiz-adv-x="2248" 
d="M96 698h2056v-237h-2056v237z" />
    <glyph glyph-name="quoteleft" unicode="&#x2018;" horiz-adv-x="487" 
d="M258 1194q73 0 120.5 -51t47.5 -127q0 -77 -50.5 -128.5t-127.5 -51.5q-94 0 -146.5 69.5t-52.5 181.5q0 109 49.5 208t133 160t178.5 65v-144q-65 0 -121.5 -50t-75.5 -136q28 4 45 4z" />
    <glyph glyph-name="quoteright" unicode="&#x2019;" horiz-adv-x="489" 
d="M248 1540q94 0 146 -70t52 -182q0 -109 -49.5 -208t-132.5 -159.5t-178 -64.5v143q64 0 121 50.5t76 136.5q-28 -4 -45 -4q-73 0 -120.5 51t-47.5 127q0 77 50.5 128.5t127.5 51.5z" />
    <glyph glyph-name="quotesinglbase" unicode="&#x201a;" horiz-adv-x="495" 
d="M238 324q94 0 146 -70t52 -182q0 -109 -49.5 -208t-132.5 -159.5t-178 -64.5v143q65 0 121 50t75 136q-28 -4 -45 -4q-73 0 -120.5 51t-47.5 127q0 77 51 129t128 52z" />
    <glyph glyph-name="quotedblleft" unicode="&#x201c;" horiz-adv-x="958" 
d="M258 1194q73 0 120.5 -51t47.5 -127q0 -77 -50.5 -128.5t-127.5 -51.5q-94 0 -146.5 69.5t-52.5 181.5q0 109 49.5 208t133 160t178.5 65v-144q-65 0 -121.5 -50t-75.5 -136q28 4 45 4zM729 1194q73 0 120.5 -51t47.5 -127q0 -77 -50.5 -128.5t-127.5 -51.5
q-94 0 -146.5 69.5t-52.5 181.5q0 109 49.5 208t133 160t178.5 65v-144q-65 0 -121.5 -50t-75.5 -136q28 4 45 4z" />
    <glyph glyph-name="quotedblright" unicode="&#x201d;" horiz-adv-x="960" 
d="M248 1540q94 0 146 -70t52 -182q0 -109 -49.5 -208t-132.5 -159.5t-178 -64.5v143q64 0 121 50.5t76 136.5q-28 -4 -45 -4q-73 0 -120.5 51t-47.5 127q0 77 50.5 128.5t127.5 51.5zM719 1540q94 0 146.5 -70t52.5 -182q0 -109 -49.5 -208t-133 -159.5t-178.5 -64.5v143
q65 0 121.5 50.5t75.5 136.5q-28 -4 -45 -4q-73 0 -120.5 51t-47.5 127q0 77 50.5 128.5t127.5 51.5z" />
    <glyph glyph-name="quotedblbase" unicode="&#x201e;" horiz-adv-x="966" 
d="M238 324q94 0 146 -70t52 -182q0 -109 -49.5 -208t-132.5 -159.5t-178 -64.5v143q65 0 121 50t75 136q-28 -4 -45 -4q-73 0 -120.5 51t-47.5 127q0 77 51 129t128 52zM709 324q94 0 146 -70t52 -182q0 -109 -49.5 -208t-132.5 -159.5t-178 -64.5v143q65 0 121 50t75 136
q-28 -4 -45 -4q-73 0 -120.5 51t-47.5 127q0 77 51 129t128 52z" />
    <glyph glyph-name="dagger" unicode="&#x2020;" horiz-adv-x="1130" 
d="M389 803h-348v307h348v406h352v-406h349v-307h-349v-1321h-352v1321z" />
    <glyph glyph-name="daggerdbl" unicode="&#x2021;" horiz-adv-x="1196" 
d="M422 -10h-348v307h348v465h-348v307h348v447h352v-447h348v-307h-348v-465h348v-307h-348v-508h-352v508z" />
    <glyph glyph-name="bullet" unicode="&#x2022;" horiz-adv-x="858" 
d="M430 436q-137 0 -234.5 99.5t-97.5 236.5q0 139 97.5 237.5t236.5 98.5q136 0 232 -100.5t96 -235.5q0 -137 -96.5 -236.5t-233.5 -99.5z" />
    <glyph glyph-name="ellipsis" unicode="&#x2026;" horiz-adv-x="1654" 
d="M254 -14q-89 0 -143 53.5t-54 136.5t54 137t143 54t143 -54t54 -137t-54 -136.5t-143 -53.5zM827 -14q-89 0 -142.5 53.5t-53.5 136.5t53.5 137t142.5 54t143 -54t54 -137t-54 -136.5t-143 -53.5zM1401 -14q-89 0 -143 53.5t-54 136.5t54 137t143 54t142.5 -54t53.5 -137
t-53.5 -136.5t-142.5 -53.5z" />
    <glyph glyph-name="perthousand" unicode="&#x2030;" horiz-adv-x="2635" 
d="M817 1180q0 -158 -114 -270.5t-273 -112.5t-273 112.5t-114 270.5q0 157 114.5 270t272.5 113t272.5 -113t114.5 -270zM1157 1516h346l-831 -1516h-346zM430 1063q44 0 75.5 35.5t31.5 81.5t-31.5 78t-75.5 32t-75 -32t-31 -78t31 -81.5t75 -35.5zM1776 354
q0 -158 -114 -270.5t-273 -112.5q-158 0 -273 113t-115 270t115 270t273 113q159 0 273 -112.5t114 -270.5zM2595 354q0 -158 -114 -270.5t-273 -112.5q-157 0 -272 112.5t-115 270.5t115 270.5t272 112.5q159 0 273 -112.5t114 -270.5zM1389 240q44 0 76 34t32 80
q0 47 -32 80t-76 33t-75.5 -33t-31.5 -80q0 -46 31.5 -80t75.5 -34zM2208 240q44 0 76 34t32 80q0 47 -32 80t-76 33t-75.5 -33t-31.5 -80q0 -46 31.5 -80t75.5 -34z" />
    <glyph glyph-name="guilsinglleft" unicode="&#x2039;" horiz-adv-x="681" 
d="M41 494l260 387h332l-254 -387l258 -392h-336z" />
    <glyph glyph-name="guilsinglright" unicode="&#x203a;" horiz-adv-x="681" 
d="M303 494l-254 387h332l260 -387l-260 -392h-336z" />
    <glyph glyph-name="fraction" unicode="&#x2044;" horiz-adv-x="964" 
d="M698 1516h322l-750 -1516h-321z" />
    <glyph glyph-name="Euro" unicode="&#x20ac;" horiz-adv-x="1300" 
d="M731 334q93 0 113 96h393q-5 -95 -39.5 -176.5t-96 -145t-157.5 -99.5t-215 -36q-126 0 -224.5 40t-159 109.5t-91.5 158t-31 190.5v27h-174l74 211h100v100h-125l74 211h51v24q0 102 31 190.5t91.5 158t159 109.5t224.5 40q119 0 214.5 -36t157 -99t96 -144t40.5 -176
h-393q-23 95 -113 95q-119 0 -119 -160v-2h502l-74 -211h-428v-100h406l-74 -211h-332v-6q0 -158 119 -158z" />
    <glyph glyph-name="uni20B4" unicode="&#x20b4;" horiz-adv-x="1335" 
d="M1298 1020l-73 -211h-1188l74 211h589q76 40 76 100q0 97 -153 97q-77 0 -163 -24t-155 -67l-170 287q230 129 492 129q250 0 394 -95t144 -278q0 -77 -32 -149h165zM37 498l74 211h1187l-73 -211h-590q-76 -44 -76 -103q0 -94 154 -94q78 0 163.5 23.5t153.5 66.5
l170 -287q-230 -129 -491 -129q-250 0 -394.5 95t-144.5 278q0 76 33 150h-166z" />
    <glyph glyph-name="uni20B9" unicode="&#x20b9;" horiz-adv-x="1454" 
d="M997 1305q56 -75 74 -172h299l-74 -211h-233q-36 -155 -157 -251t-316 -116l516 -555h-504l-475 547l-2 2v246h276q206 0 263 127h-539v211h545q-47 147 -269 147h-276v236h1245l-74 -211h-299z" />
    <glyph glyph-name="uni20BA" unicode="&#x20ba;" horiz-adv-x="1310" 
d="M803 758h389v-260q0 -102 -31.5 -190.5t-93 -158t-160.5 -109.5t-225 -40h-506v506l-176 -107v244l176 107v53l-176 -107v242l176 106v472h389v-236l226 135v-244l-226 -135v-51l226 135v-241l-226 -138v-381h119q119 0 119 158v240z" />
    <glyph glyph-name="uni20BD" unicode="&#x20bd;" horiz-adv-x="1429" 
d="M776 485h-172v-131h318v-231h-318v-123h-389v123h-135v231h135v131h-135v232h135v799h561q285 0 443.5 -140.5t158.5 -374.5t-158.5 -375t-443.5 -141zM604 1198v-416h156q120 0 174.5 57t54.5 150t-54.5 151t-174.5 58h-156z" />
    <glyph glyph-name="trademark" unicode="&#x2122;" horiz-adv-x="1775" 
d="M244 1274h-193v242h672v-242h-191v-535h-288v535zM811 1516h297l129 -226l129 226h297v-777h-293v377l-82 -166h-102l-82 166v-377h-293v777z" />
    <glyph glyph-name="oneeighth" unicode="&#x215b;" horiz-adv-x="1765" 
d="M494 606h-283v658h-166v252h449v-910zM1016 1516h321l-749 -1516h-322zM1587 535q48 -44 76.5 -105.5t28.5 -128.5q0 -132 -95.5 -224.5t-232.5 -92.5q-135 0 -231.5 93.5t-96.5 223.5q0 144 107 236q-43 54 -43 131q0 109 80.5 183.5t183.5 74.5q105 0 184.5 -75
t79.5 -183q0 -74 -41 -133zM1364 690q-27 0 -27 -28q0 -9 4 -33q8 2 23 2q17 0 25 -2q4 24 4 33q0 28 -29 28zM1364 217q33 0 60.5 23t27.5 59q0 32 -26.5 57t-61.5 25q-31 0 -58.5 -24t-27.5 -56q0 -36 26 -60t60 -24z" />
    <glyph glyph-name="threeeighths" unicode="&#x215c;" horiz-adv-x="1941" 
d="M774 854q0 -123 -102.5 -205t-257.5 -82q-163 0 -266 92.5t-103 239.5h256q5 -40 35 -65t74 -25t69 19t25 53q0 35 -27.5 56t-73.5 21h-71v220h55q100 0 100 69q0 66 -65 66q-29 0 -47.5 -18.5t-18.5 -47.5h-254q0 125 94.5 203t245.5 78q137 0 224.5 -71t87.5 -183
q0 -139 -133 -187q153 -60 153 -233zM1231 1516h321l-749 -1516h-322zM1802 535q48 -44 76.5 -105.5t28.5 -128.5q0 -132 -95.5 -224.5t-232.5 -92.5q-135 0 -231.5 93.5t-96.5 223.5q0 144 107 236q-43 54 -43 131q0 109 80.5 183.5t183.5 74.5q105 0 184.5 -75t79.5 -183
q0 -74 -41 -133zM1579 690q-27 0 -27 -28q0 -9 4 -33q8 2 23 2q17 0 25 -2q4 24 4 33q0 28 -29 28zM1579 217q33 0 60.5 23t27.5 59q0 32 -26.5 57t-61.5 25q-31 0 -58.5 -24t-27.5 -56q0 -36 26 -60t60 -24z" />
    <glyph glyph-name="fiveeighths" unicode="&#x215d;" horiz-adv-x="1941" 
d="M717 911q0 -144 -91 -232.5t-229 -88.5q-121 0 -214.5 78t-102.5 202h246q18 -41 67 -41q41 0 57.5 18.5t16.5 61.5q0 29 -8.5 47t-26 24t-28 7.5t-31.5 1.5q-17 0 -37.5 -8.5t-26.5 -17.5l-186 149l72 404h505l-20 -238h-285l-14 -68q16 4 45 4q124 0 207.5 -84
t83.5 -219zM1231 1516h321l-749 -1516h-322zM1802 535q48 -44 76.5 -105.5t28.5 -128.5q0 -132 -95.5 -224.5t-232.5 -92.5q-135 0 -231.5 93.5t-96.5 223.5q0 144 107 236q-43 54 -43 131q0 109 80.5 183.5t183.5 74.5q105 0 184.5 -75t79.5 -183q0 -74 -41 -133zM326 870
q-2 8 0 10l4 -10h-4zM1579 690q-27 0 -27 -28q0 -9 4 -33q8 2 23 2q17 0 25 -2q4 24 4 33q0 28 -29 28zM1579 217q33 0 60.5 23t27.5 59q0 32 -26.5 57t-61.5 25q-31 0 -58.5 -24t-27.5 -56q0 -36 26 -60t60 -24z" />
    <glyph glyph-name="seveneighths" unicode="&#x215e;" horiz-adv-x="1839" 
d="M354 606h-282l317 660h-369v250h646v-248zM1087 1516h322l-750 -1516h-321zM1700 535q48 -44 76 -105t28 -129q0 -132 -95.5 -224.5t-231.5 -92.5q-135 0 -231.5 93.5t-96.5 223.5q0 144 106 236q-43 54 -43 131q0 109 81 183.5t184 74.5q105 0 184.5 -75t79.5 -183
q0 -74 -41 -133zM1477 690q-27 0 -27 -28q0 -9 4 -33q8 2 23 2q16 0 24 -2q4 24 4 33q0 28 -28 28zM1477 217q33 0 60.5 23t27.5 59q0 32 -26.5 57t-61.5 25q-31 0 -58.5 -24t-27.5 -56q0 -36 26 -60t60 -24z" />
    <glyph glyph-name="arrowleft" unicode="&#x2190;" horiz-adv-x="1677" 
d="M1595 899v-283h-977l351 -350h-396l-491 492l491 491h398l-353 -350h977z" />
    <glyph glyph-name="arrowup" unicode="&#x2191;" horiz-adv-x="1146" 
d="M1065 1020v-395l-350 350v-977h-283v977l-350 -352v397l491 491z" />
    <glyph glyph-name="arrowright" unicode="&#x2192;" horiz-adv-x="1677" 
d="M1104 1249l491 -491l-491 -492h-395l350 350h-977v283h977l-352 350h397z" />
    <glyph glyph-name="arrowdown" unicode="&#x2193;" horiz-adv-x="1146" 
d="M715 539l350 350v-395l-492 -492l-491 492v397l350 -352v977h283v-977z" />
    <glyph glyph-name="uni2196" unicode="&#x2196;" horiz-adv-x="1333" 
d="M1251 373l-198 -201l-691 690v-495l-280 280v696h696l279 -280h-496z" />
    <glyph glyph-name="uni2197" unicode="&#x2197;" horiz-adv-x="1335" 
d="M557 1343h696v-696l-280 -278v495l-690 -690l-201 199l690 690h-496z" />
    <glyph glyph-name="uni2198" unicode="&#x2198;" horiz-adv-x="1335" 
d="M973 1147l280 -279v-696h-696l-281 281h496l-690 690l201 198l690 -690v496z" />
    <glyph glyph-name="uni2199" unicode="&#x2199;" horiz-adv-x="1335" 
d="M1253 1143l-690 -690h496l-281 -281h-696v696l280 279v-496l691 690z" />
    <glyph glyph-name="minus" unicode="&#x2212;" horiz-adv-x="1343" 
d="M102 881h1139v-344h-1139v344z" />
    <glyph glyph-name="approxequal" unicode="&#x2248;" horiz-adv-x="1343" 
d="M76 784q0 188 93 290t277 102q86 0 171.5 -18t151 -36t101.5 -18q43 0 67 30t24 85h305q0 -187 -93 -290.5t-268 -103.5q-90 0 -177.5 18t-152 36t-98.5 18q-45 0 -70.5 -29t-25.5 -84h-305zM76 193q0 189 93 291t277 102q86 0 171.5 -18t151 -36t101.5 -18q43 0 67 30
t24 85h305q0 -187 -93 -290t-268 -103q-90 0 -177.5 18t-152 35.5t-98.5 17.5q-45 0 -70.5 -29t-25.5 -85h-305z" />
    <glyph glyph-name="notequal" unicode="&#x2260;" horiz-adv-x="1343" 
d="M1241 827h-360l-95 -237h455v-344h-596l-78 -195h-331l77 195h-211v344h353l94 237h-447v344h588l78 195h332l-78 -195h219v-344z" />
    <glyph glyph-name="uniF8FF" unicode="&#xf8ff;" horiz-adv-x="1830" 
d="M1251 1468v-245h-503v-387q70 -25 156.5 -69.5t160.5 -86.5t154 -81.5t165.5 -64t165.5 -24.5q24 0 48 2t36 4l13 2q-2 -3 -5.5 -7t-19.5 -15.5t-36.5 -20t-57 -15.5t-80.5 -7q-153 0 -327 64t-373 167v-684h-259v791q-49 20 -106 20q-69 0 -114.5 -30t-45.5 -87
q0 -40 21 -72t55 -44q-54 3 -84.5 37.5t-30.5 91.5q0 82 68.5 133t189.5 51q29 0 47 -4v581h762z" />
    <glyph glyph-name="uni00A40301" horiz-adv-x="647" 
d="M59 1651l-82 274l580 143l82 -286zM-94 -518v348q118 18 169.5 83t51.5 208v1395h393v-1391q0 -320 -140 -466t-474 -177z" />
    <glyph glyph-name="W.ss01" horiz-adv-x="2097" 
d="M1698 1516h397l-512 -1516h-403l-103 270l-88 -270h-403l-596 1516h397l422 -1131l98 332l-303 799h336l131 -383l115 383h336l-273 -844l97 -283z" />
    <glyph glyph-name="Wacute.ss01" horiz-adv-x="2097" 
d="M1372 1782l-579 -131l-82 274l579 143zM1698 1516h397l-512 -1516h-403l-103 270l-88 -270h-403l-596 1516h397l422 -1131l98 332l-303 799h336l131 -383l115 383h336l-273 -844l97 -283z" />
    <glyph glyph-name="Wcircumflex.ss01" horiz-adv-x="2097" 
d="M1042 1812l-260 -161l-155 213l301 204h229l301 -204l-155 -213zM1698 1516h397l-512 -1516h-403l-103 270l-88 -270h-403l-596 1516h397l422 -1131l98 332l-303 799h336l131 -383l115 383h336l-273 -844l97 -283z" />
    <glyph glyph-name="Wdieresis.ss01" horiz-adv-x="2097" 
d="M756 1638q-101 0 -163.5 60.5t-62.5 154.5t62.5 154.5t163.5 60.5t163 -60.5t62 -154.5t-62 -154.5t-163 -60.5zM1329 1638q-101 0 -163 60.5t-62 154.5t62 154.5t163 60.5t163 -60.5t62 -154.5t-62 -154.5t-163 -60.5zM1698 1516h397l-512 -1516h-403l-103 270l-88 -270
h-403l-596 1516h397l422 -1131l98 332l-303 799h336l131 -383l115 383h336l-273 -844l97 -283z" />
    <glyph glyph-name="Wgrave.ss01" horiz-adv-x="2097" 
d="M1372 1925l-82 -274l-579 131l82 286zM1698 1516h397l-512 -1516h-403l-103 270l-88 -270h-403l-596 1516h397l422 -1131l98 332l-303 799h336l131 -383l115 383h336l-273 -844l97 -283z" />
    <glyph glyph-name="i.loclTRK" horiz-adv-x="585" 
d="M301 1096q-104 0 -168.5 64t-64.5 161t64.5 161t168.5 64t169 -64t65 -161t-65 -161t-169 -64zM98 973h389v-973h-389v973z" />
    <glyph glyph-name="uni006A0301" horiz-adv-x="585" 
d="M-41 1382l580 144l82 -287l-580 -131zM98 973h389v-1491h-389v1491z" />
    <glyph glyph-name="g.ss01" horiz-adv-x="1130" 
d="M1083 973v-293h-71q26 -83 26 -164q0 -212 -170 -330q80 -57 125 -138t45 -175q0 -77 -31 -149.5t-90 -131.5t-155.5 -95t-216.5 -36q-121 0 -218 36t-156 95t-89.5 131.5t-30.5 149.5q0 94 45 175t125 138q-170 118 -170 330q0 203 136 339t358 136q77 0 145 -18h393z
M545 664q-71 0 -109.5 -45.5t-38.5 -108.5t38.5 -105.5t109.5 -42.5t109 42.5t38 105.5q0 65 -38 109.5t-109 44.5zM545 -211q75 0 111 40t36 89t-35.5 88t-111.5 39q-75 0 -111.5 -39.5t-36.5 -87.5t36.5 -88.5t111.5 -40.5z" />
    <glyph glyph-name="gbreve.ss01" horiz-adv-x="1130" 
d="M545 1108q-171 0 -274 111.5t-103 285.5h240q0 -66 35 -105.5t102 -39.5t102 39.5t35 105.5h240q0 -174 -103.5 -285.5t-273.5 -111.5zM1083 973v-293h-71q26 -83 26 -164q0 -212 -170 -330q80 -57 125 -138t45 -175q0 -77 -31 -149.5t-90 -131.5t-155.5 -95t-216.5 -36
q-121 0 -218 36t-156 95t-89.5 131.5t-30.5 149.5q0 94 45 175t125 138q-170 118 -170 330q0 203 136 339t358 136q77 0 145 -18h393zM545 664q-71 0 -109.5 -45.5t-38.5 -108.5t38.5 -105.5t109.5 -42.5t109 42.5t38 105.5q0 65 -38 109.5t-109 44.5zM545 -211q75 0 111 40
t36 89t-35.5 88t-111.5 39q-75 0 -111.5 -39.5t-36.5 -87.5t36.5 -88.5t111.5 -40.5z" />
    <glyph glyph-name="uni0123.ss01" horiz-adv-x="1130" 
d="M551 1096q-74 0 -124 50.5t-50 133.5q0 111 56 188.5t188 153.5l75 -96q-70 -37 -107.5 -82.5t-37.5 -69.5q24 4 35 4q52 0 89.5 -36.5t37.5 -92.5q0 -66 -43.5 -109.5t-118.5 -43.5zM1083 973v-293h-71q26 -83 26 -164q0 -212 -170 -330q80 -57 125 -138t45 -175
q0 -77 -31 -149.5t-90 -131.5t-155.5 -95t-216.5 -36q-121 0 -218 36t-156 95t-89.5 131.5t-30.5 149.5q0 94 45 175t125 138q-170 118 -170 330q0 203 136 339t358 136q77 0 145 -18h393zM545 664q-71 0 -109.5 -45.5t-38.5 -108.5t38.5 -105.5t109.5 -42.5t109 42.5
t38 105.5q0 65 -38 109.5t-109 44.5zM545 -211q75 0 111 40t36 89t-35.5 88t-111.5 39q-75 0 -111.5 -39.5t-36.5 -87.5t36.5 -88.5t111.5 -40.5z" />
    <glyph glyph-name="gdotaccent.ss01" horiz-adv-x="1130" 
d="M545 1096q-104 0 -169 64t-65 161t65 161t169 64t168.5 -64t64.5 -161t-64.5 -161t-168.5 -64zM1083 973v-293h-71q26 -83 26 -164q0 -212 -170 -330q80 -57 125 -138t45 -175q0 -77 -31 -149.5t-90 -131.5t-155.5 -95t-216.5 -36q-121 0 -218 36t-156 95t-89.5 131.5
t-30.5 149.5q0 94 45 175t125 138q-170 118 -170 330q0 203 136 339t358 136q77 0 145 -18h393zM545 664q-71 0 -109.5 -45.5t-38.5 -108.5t38.5 -105.5t109.5 -42.5t109 42.5t38 105.5q0 65 -38 109.5t-109 44.5zM545 -211q75 0 111 40t36 89t-35.5 88t-111.5 39
q-75 0 -111.5 -39.5t-36.5 -87.5t36.5 -88.5t111.5 -40.5z" />
    <glyph glyph-name="g.ss02" horiz-adv-x="1021" 
d="M971 973v-193h-78q63 -104 63 -227q0 -119 -56 -219t-160 -160.5t-234 -60.5q-29 0 -43 2q-37 -1 -50.5 -7t-13.5 -20t13 -21t47 -8q18 2 55 2q208 0 316 -86t108 -219q0 -136 -105 -221.5t-319 -85.5t-319 85.5t-105 221.5q0 124 90 205q-38 30 -54.5 64t-16.5 84
q0 91 59 147q-113 126 -113 297q0 118 56 217.5t160.5 160t234.5 60.5q70 0 135 -18h330zM506 414q62 0 100.5 40.5t38.5 98.5q0 57 -39 97t-100 40t-100 -40t-39 -97q0 -58 38.5 -98.5t100.5 -40.5zM639 -244q0 36 -31.5 60t-93.5 24t-93.5 -24t-31.5 -60q0 -37 31.5 -61.5
t93.5 -24.5t93.5 24.5t31.5 61.5z" />
    <glyph glyph-name="gbreve.ss.ss02" horiz-adv-x="1021" 
d="M506 1108q-171 0 -274 111.5t-103 285.5h240q0 -66 35 -105.5t102 -39.5t102 39.5t35 105.5h240q0 -174 -103.5 -285.5t-273.5 -111.5zM971 973v-193h-78q63 -104 63 -227q0 -119 -56 -219t-160 -160.5t-234 -60.5q-29 0 -43 2q-37 -1 -50.5 -7t-13.5 -20t13 -21t47 -8
q18 2 55 2q208 0 316 -86t108 -219q0 -136 -105 -221.5t-319 -85.5t-319 85.5t-105 221.5q0 124 90 205q-38 30 -54.5 64t-16.5 84q0 91 59 147q-113 126 -113 297q0 118 56 217.5t160.5 160t234.5 60.5q70 0 135 -18h330zM506 414q62 0 100.5 40.5t38.5 98.5q0 57 -39 97
t-100 40t-100 -40t-39 -97q0 -58 38.5 -98.5t100.5 -40.5zM639 -244q0 36 -31.5 60t-93.5 24t-93.5 -24t-31.5 -60q0 -37 31.5 -61.5t93.5 -24.5t93.5 24.5t31.5 61.5z" />
    <glyph glyph-name="uni0123.ss.ss02" horiz-adv-x="1021" 
d="M512 1096q-74 0 -124 50.5t-50 133.5q0 111 56 188.5t188 153.5l75 -96q-70 -37 -107.5 -82.5t-37.5 -69.5q24 4 35 4q52 0 89.5 -36.5t37.5 -92.5q0 -66 -43.5 -109.5t-118.5 -43.5zM971 973v-193h-78q63 -104 63 -227q0 -119 -56 -219t-160 -160.5t-234 -60.5
q-29 0 -43 2q-37 -1 -50.5 -7t-13.5 -20t13 -21t47 -8q18 2 55 2q208 0 316 -86t108 -219q0 -136 -105 -221.5t-319 -85.5t-319 85.5t-105 221.5q0 124 90 205q-38 30 -54.5 64t-16.5 84q0 91 59 147q-113 126 -113 297q0 118 56 217.5t160.5 160t234.5 60.5q70 0 135 -18
h330zM506 414q62 0 100.5 40.5t38.5 98.5q0 57 -39 97t-100 40t-100 -40t-39 -97q0 -58 38.5 -98.5t100.5 -40.5zM639 -244q0 36 -31.5 60t-93.5 24t-93.5 -24t-31.5 -60q0 -37 31.5 -61.5t93.5 -24.5t93.5 24.5t31.5 61.5z" />
    <glyph glyph-name="gdotaccent.ss.ss02" horiz-adv-x="1021" 
d="M506 1096q-104 0 -169 64t-65 161t65 161t169 64t168.5 -64t64.5 -161t-64.5 -161t-168.5 -64zM971 973v-193h-78q63 -104 63 -227q0 -119 -56 -219t-160 -160.5t-234 -60.5q-29 0 -43 2q-37 -1 -50.5 -7t-13.5 -20t13 -21t47 -8q18 2 55 2q208 0 316 -86t108 -219
q0 -136 -105 -221.5t-319 -85.5t-319 85.5t-105 221.5q0 124 90 205q-38 30 -54.5 64t-16.5 84q0 91 59 147q-113 126 -113 297q0 118 56 217.5t160.5 160t234.5 60.5q70 0 135 -18h330zM506 414q62 0 100.5 40.5t38.5 98.5q0 57 -39 97t-100 40t-100 -40t-39 -97
q0 -58 38.5 -98.5t100.5 -40.5zM639 -244q0 36 -31.5 60t-93.5 24t-93.5 -24t-31.5 -60q0 -37 31.5 -61.5t93.5 -24.5t93.5 24.5t31.5 61.5z" />
    <glyph glyph-name="zero.osf" horiz-adv-x="1187" 
d="M594 -18q-119 0 -221 41.5t-170.5 111t-107 161t-38.5 191.5q0 99 38.5 190t107 161t170.5 111.5t221 41.5t221 -41.5t170 -111.5t106.5 -161t38.5 -190q0 -100 -38.5 -191.5t-106.5 -161t-170 -111t-221 -41.5zM594 317q73 0 122.5 50t49.5 120q0 69 -50 118.5
t-122 49.5t-122 -49.5t-50 -118.5q0 -70 49.5 -120t122.5 -50z" />
    <glyph glyph-name="one.osf" horiz-adv-x="720" 
d="M223 666h-162v307h551v-973h-389v666z" />
    <glyph glyph-name="two.osf" horiz-adv-x="1011" 
d="M532 274l408 13v-287h-862v313q127 51 218.5 95t143.5 76t82.5 61.5t39.5 49.5t9 42q0 26 -18 42.5t-49 16.5q-38 0 -65 -27t-27 -87h-338q0 79 28.5 151.5t81.5 130.5t140 92.5t194 34.5q100 0 178.5 -26t126.5 -71.5t72.5 -101.5t24.5 -120q0 -58 -15.5 -107
t-55.5 -102t-120 -101.5t-197 -87.5z" />
    <glyph glyph-name="three.osf" horiz-adv-x="1044" 
d="M784 360q104 -49 153.5 -130.5t49.5 -182.5q0 -200 -130 -306t-359 -106q-199 0 -326 116.5t-145 285.5h366q19 -82 113 -82q57 0 87 29.5t30 81.5q0 57 -42 93t-114 36h-70v301h43q70 0 108 28t38 72q0 40 -20.5 63t-57.5 23q-36 0 -57 -20.5t-21 -53.5h-358
q8 169 121 276t319 107q208 0 323 -100.5t115 -257.5q0 -182 -166 -273z" />
    <glyph glyph-name="four.osf" horiz-adv-x="1130" 
d="M1073 293v-293h-106v-346h-389v346h-537v303l545 670h381v-680h106zM373 293h205v246z" />
    <glyph glyph-name="five.osf" horiz-adv-x="1064" 
d="M614 537q184 0 291 -126t107 -315q0 -88 -31.5 -170t-90 -147t-151 -104.5t-204.5 -39.5q-228 0 -359 122.5t-143 322.5h364q25 -127 138 -127q52 0 81 32t29 93q0 65 -40 103t-103 38q-102 0 -152 -37l-227 131l108 660h660v-307h-397l-17 -144q77 15 137 15z" />
    <glyph glyph-name="six.osf" horiz-adv-x="1093" 
d="M604 872q197 -8 320 -129t123 -309q0 -92 -36 -176t-99.5 -147t-157.5 -100.5t-203 -37.5t-203 37.5t-157.5 100.5t-99.5 145.5t-36 171.5q0 175 109 352l348 576h393zM551 291q60 0 101.5 40.5t41.5 100.5q0 58 -41.5 98.5t-101.5 40.5q-59 0 -101 -40.5t-42 -98.5
q0 -59 42 -100t101 -41z" />
    <glyph glyph-name="seven.osf" horiz-adv-x="962" 
d="M27 973h895v-279l-387 -1038h-388l377 1010h-497v307z" />
    <glyph glyph-name="eight.osf" horiz-adv-x="1140" 
d="M901 807q83 -64 132.5 -158t49.5 -205q0 -96 -40 -183t-108.5 -150t-164 -100.5t-201.5 -37.5q-141 0 -259 63t-185.5 171.5t-67.5 236.5q0 108 49 203.5t134 161.5q-72 85 -72 199q0 158 117.5 265t283.5 107q171 0 287.5 -107t116.5 -265q0 -117 -72 -201zM569 1085
q-37 0 -61.5 -23.5t-24.5 -57.5q0 -46 35 -74q28 4 51 4q26 0 54 -4q36 25 36 74q0 34 -25.5 57.5t-64.5 23.5zM569 291q68 0 113 43.5t45 109.5q0 63 -44.5 109.5t-113.5 46.5q-64 0 -108.5 -46t-44.5 -110t44 -108.5t109 -44.5z" />
    <glyph glyph-name="nine.osf" horiz-adv-x="1064" 
d="M520 991q109 0 203 -37.5t157.5 -100t99.5 -145t36 -171.5q0 -179 -107 -353l-348 -575h-393l301 483q-197 8 -320.5 129t-123.5 309q0 92 36 176t99 147t157 100.5t203 37.5zM520 393q59 0 101.5 40.5t42.5 98.5q0 59 -42.5 100.5t-101.5 41.5q-60 0 -101.5 -41
t-41.5 -101q0 -58 41.5 -98.5t101.5 -40.5z" />
    <glyph glyph-name="zero.tf" 
d="M612 -27q-126 0 -224.5 40t-159 109.5t-91.5 158t-31 190.5v573q0 102 31 190.5t91.5 158t159 109.5t224.5 40t225 -40t160.5 -109.5t93 -158t31.5 -190.5v-573q0 -102 -31.5 -190.5t-93 -158t-160.5 -109.5t-225 -40zM614 334q119 0 119 158v530q0 160 -119 160
q-118 0 -118 -160v-530q0 -158 118 -158z" />
    <glyph glyph-name="one.tf" 
d="M485 1159h-200v357h594v-1516h-394v1159z" />
    <glyph glyph-name="two.tf" 
d="M821 524l-159 -168h425v-356h-968v324l342 372q145 157 199.5 238.5t54.5 142.5q0 50 -25.5 77.5t-68.5 27.5q-109 0 -127 -123h-390q21 248 154.5 365.5t351.5 117.5q99 0 188.5 -32.5t157.5 -92t108 -149t40 -197.5q0 -106 -34 -197t-89.5 -165.5t-159.5 -184.5z" />
    <glyph glyph-name="three.tf" 
d="M903 791q219 -122 219 -351q0 -215 -146 -341t-368 -126q-113 0 -203.5 27.5t-160 85t-112.5 151t-54 220.5h389q11 -63 46 -93t103 -30q59 0 91 29t32 88q0 71 -58 111t-144 40h-91v346h66q201 0 201 119q0 57 -28 86t-77 29q-89 0 -112 -99h-390q20 214 150 336.5
t342 122.5q103 0 192 -26t158 -75.5t108.5 -128.5t39.5 -179q0 -111 -52 -199.5t-141 -142.5z" />
    <glyph glyph-name="four.tf" 
d="M1174 541v-330h-150v-211h-373v211h-631v321l594 984h410v-975h150zM401 541h250v409z" />
    <glyph glyph-name="five.tf" 
d="M655 989q208 0 344 -141t136 -359q0 -245 -147 -380.5t-392 -135.5q-219 0 -360 123.5t-162 358.5h381q5 -53 44.5 -88t100.5 -35q66 0 111 41.5t45 111.5q0 67 -45 108.5t-111 41.5q-105 0 -190 -57l-277 176l129 762h785v-340h-467l-33 -199q56 12 108 12z" />
    <glyph glyph-name="six.tf" 
d="M702 967q197 -12 323 -145t126 -341q0 -100 -38.5 -190.5t-106.5 -159t-170 -109t-222 -40.5t-221.5 38t-170 103t-106.5 152.5t-38 185.5q0 170 108 370l367 685h442zM614 317q71 0 121.5 49.5t50.5 120.5q0 70 -50.5 119t-121.5 49t-121.5 -49t-50.5 -119
q0 -71 50.5 -120.5t121.5 -49.5z" />
    <glyph glyph-name="seven.tf" 
d="M102 1516h1010v-320l-489 -1196h-412l485 1176h-594v340z" />
    <glyph glyph-name="eight.tf" 
d="M1004 877q80 -72 122.5 -172t42.5 -209q0 -81 -24 -158t-71.5 -143t-113 -115.5t-155.5 -78t-193 -28.5q-124 0 -230.5 43.5t-177 116.5t-110 167.5t-39.5 195.5q0 110 46.5 212t131.5 175q-57 103 -57 223q0 182 127 309t307 127q183 0 312 -126.5t129 -309.5
q0 -122 -47 -229zM610 1167q-41 0 -70.5 -30.5t-29.5 -71.5q0 -35 10 -55q43 6 92 6q50 0 93 -6q10 16 10 55q0 42 -30.5 72t-74.5 30zM612 313q76 0 124 52t48 131q0 77 -48 128.5t-124 51.5q-70 0 -121 -52t-51 -128q0 -77 51 -130t121 -53z" />
    <glyph glyph-name="nine.tf" 
d="M616 1542q160 0 283.5 -65.5t188.5 -174t65 -239.5q0 -98 -29 -185t-86 -186l-401 -692h-442l327 578q-192 14 -317 143t-125 321q0 100 38 190.5t106.5 159.5t170 109.5t221.5 40.5zM616 868q71 0 121.5 49t50.5 119q0 71 -50.5 120.5t-121.5 49.5t-121.5 -49.5
t-50.5 -120.5q0 -70 50.5 -119t121.5 -49z" />
    <glyph glyph-name="zero.tosf" 
d="M614 -18q-119 0 -221 41.5t-170 111t-106.5 161t-38.5 191.5q0 99 38.5 190t106.5 161t170 111.5t221 41.5t221 -41.5t170.5 -111.5t107 -161t38.5 -190q0 -100 -38.5 -191.5t-107 -161t-170.5 -111t-221 -41.5zM614 317q73 0 122.5 50t49.5 120q0 69 -50 118.5
t-122 49.5t-122 -49.5t-50 -118.5q0 -70 49.5 -120t122.5 -50z" />
    <glyph glyph-name="one.tosf" 
d="M477 666h-162v307h551v-973h-389v666z" />
    <glyph glyph-name="two.tosf" 
d="M641 274l408 13v-287h-863v313q127 51 218.5 95t144 76t83 61.5t39.5 49.5t9 42q0 26 -18.5 42.5t-49.5 16.5q-38 0 -65 -27t-27 -87h-338q0 79 28.5 151.5t82 130.5t140 92.5t194.5 34.5q100 0 178.5 -26t126 -71.5t72 -101.5t24.5 -120q0 -58 -15.5 -107t-55 -102
t-119.5 -101.5t-197 -87.5z" />
    <glyph glyph-name="three.tosf" 
d="M877 360q104 -49 153 -130.5t49 -182.5q0 -200 -130 -306t-359 -106q-199 0 -326 116.5t-145 285.5h366q19 -82 113 -82q57 0 87 29.5t30 81.5q0 57 -42 93t-114 36h-70v301h43q70 0 108 28t38 72q0 40 -20.5 63t-57.5 23q-36 0 -57 -20.5t-21 -53.5h-358q8 169 121 276
t319 107q208 0 323 -100.5t115 -257.5q0 -183 -165 -273z" />
    <glyph glyph-name="four.tosf" 
d="M1122 293v-293h-106v-346h-389v346h-537v303l545 670h381v-680h106zM422 293h205v246z" />
    <glyph glyph-name="five.tosf" 
d="M696 537q184 0 291 -126t107 -315q0 -88 -32 -170t-90.5 -147t-151 -104.5t-204.5 -39.5q-228 0 -358.5 122.5t-142.5 322.5h364q25 -127 137 -127q52 0 81.5 32t29.5 93q0 65 -40 103t-103 38q-102 0 -152 -37l-227 131l108 660h660v-307h-398l-16 -144q77 15 137 15z
" />
    <glyph glyph-name="six.tosf" 
d="M672 872q197 -8 319.5 -128.5t122.5 -309.5q0 -92 -36 -176t-99.5 -147t-157.5 -100.5t-203 -37.5t-203 37.5t-157 100.5t-99 145.5t-36 171.5q0 176 108 352l349 576h393zM618 291q60 0 102 40.5t42 100.5q0 58 -42 98.5t-102 40.5q-59 0 -101 -40.5t-42 -98.5
q0 -59 42 -100t101 -41z" />
    <glyph glyph-name="seven.tosf" 
d="M160 973h895v-279l-387 -1038h-387l376 1010h-497v307z" />
    <glyph glyph-name="eight.tosf" 
d="M946 807q83 -64 132.5 -158t49.5 -205q0 -96 -40 -183t-108.5 -150t-164 -100.5t-201.5 -37.5q-141 0 -259 63t-185.5 171.5t-67.5 236.5q0 108 49 203.5t134 161.5q-72 85 -72 199q0 158 117.5 265t283.5 107q171 0 287.5 -107t116.5 -265q0 -117 -72 -201zM614 1085
q-37 0 -61.5 -23.5t-24.5 -57.5q0 -39 29 -76q30 6 59 6q27 0 54 -6q32 32 32 76q0 34 -25 57.5t-63 23.5zM614 291q68 0 113 43.5t45 109.5q0 63 -44.5 109.5t-113.5 46.5q-64 0 -108.5 -46t-44.5 -110t44 -108.5t109 -44.5z" />
    <glyph glyph-name="nine.tosf" 
d="M602 991q109 0 203 -37.5t157.5 -100t99.5 -145t36 -171.5q0 -179 -107 -353l-348 -575h-393l301 483q-197 8 -321 129t-124 309q0 92 36 176t99.5 147t157.5 100.5t203 37.5zM602 393q59 0 101 40.5t42 98.5q0 60 -42 101t-101 41q-60 0 -101.5 -41t-41.5 -101
q0 -58 41.5 -98.5t101.5 -40.5z" />
    <glyph glyph-name="zero.numr" horiz-adv-x="694" 
d="M346 590q-69 0 -122.5 20t-85 51.5t-51.5 76t-27 87t-7 90.5v291q0 49 7 92t27 87t52 75.5t85 51.5t122 20q82 0 141.5 -27t92 -74.5t47 -103t14.5 -121.5v-291q0 -66 -14.5 -121.5t-47 -102.5t-92 -74t-141.5 -27zM356 827q43 0 43 58v350q0 59 -43 59t-43 -59v-350
q0 -58 43 -58z" />
    <glyph glyph-name="one.numr" horiz-adv-x="471" 
d="M137 1266h-96v250h356v-910h-260v660z" />
    <glyph glyph-name="two.numr" horiz-adv-x="729" 
d="M51 829l291 304q33 34 45 56.5t12 49.5q0 22 -12.5 33.5t-32.5 11.5q-21 0 -34 -14.5t-13 -38.5h-276q0 139 97 218t239 79q152 0 237.5 -79.5t85.5 -197.5q0 -73 -27.5 -128.5t-97.5 -129.5l-127 -135h238v-252h-625v223z" />
    <glyph glyph-name="three.numr" horiz-adv-x="675" 
d="M489 1092q73 -34 108.5 -87.5t35.5 -134.5q0 -121 -82.5 -200.5t-212.5 -79.5q-281 0 -313 280h247q14 -43 52 -43q47 0 47 58q0 44 -24 67t-60 23h-35v221h33q84 0 84 64q0 34 -35 34q-28 0 -37 -28h-248q8 117 76.5 191.5t206.5 74.5q140 0 209 -66t69 -170
q0 -141 -121 -204z" />
    <glyph glyph-name="four.numr" horiz-adv-x="741" 
d="M700 936v-227h-77v-103h-250v103h-355v219l377 588h228v-580h77zM291 936h82v139z" />
    <glyph glyph-name="five.numr" horiz-adv-x="704" 
d="M375 1214q128 0 209.5 -78t81.5 -225q0 -144 -91 -232.5t-229 -88.5q-133 0 -220.5 76.5t-96.5 203.5h245q4 -15 20.5 -28t47.5 -13q35 0 54.5 21.5t19.5 58.5q0 80 -80 80q-45 0 -78 -26l-186 149l71 404h506l-20 -238h-285l-14 -68q16 4 45 4z" />
    <glyph glyph-name="six.numr" horiz-adv-x="673" 
d="M418 1159q95 -19 158 -95t63 -179q0 -121 -87.5 -208t-215.5 -87t-215.5 86.5t-87.5 206.5q0 87 51 186l233 447h287zM336 823q26 0 43.5 18.5t17.5 43.5q0 23 -17 41t-44 18q-26 0 -44 -18t-18 -41q0 -25 18 -43.5t44 -18.5z" />
    <glyph glyph-name="seven.numr" horiz-adv-x="694" 
d="M20 1516h646v-248l-312 -662h-282l317 660h-369v250z" />
    <glyph glyph-name="eight.numr" horiz-adv-x="722" 
d="M584 1141q48 -44 76 -105t28 -129q0 -140 -94.5 -228.5t-233.5 -88.5q-137 0 -232 89t-95 228q0 144 106 236q-43 54 -43 131q0 113 74.5 185.5t189.5 72.5q117 0 191 -73.5t74 -184.5q0 -74 -41 -133zM360 1296q-26 0 -26 -28q0 -13 4 -33q8 2 22 2q17 0 25 -2
q4 20 4 33q0 28 -29 28zM360 823q33 0 61 23t28 59q0 32 -27 57t-62 25q-31 0 -58.5 -24t-27.5 -56q0 -36 26 -60t60 -24z" />
    <glyph glyph-name="nine.numr" horiz-adv-x="673" 
d="M340 1532q127 0 214 -86.5t87 -206.5q0 -89 -51 -186l-236 -447h-286l188 359q-93 19 -157 94.5t-64 177.5q0 120 88 207.5t217 87.5zM340 1298q-26 0 -45 -18t-19 -43q0 -23 19 -41t45 -18q24 0 41.5 17.5t17.5 41.5q0 25 -18 43t-41 18z" />
    <glyph glyph-name="period.tf" horiz-adv-x="614" 
d="M307 -14q-89 0 -142.5 53.5t-53.5 136.5t53.5 137t142.5 54t143 -54t54 -137t-54 -136.5t-143 -53.5z" />
    <glyph glyph-name="comma.tf" horiz-adv-x="614" 
d="M295 367q99 0 153 -73t54 -192q0 -116 -52 -219.5t-139 -167t-186 -67.5v151q67 0 126.5 53t80.5 144q-21 -6 -49 -6q-77 0 -127 53.5t-50 132.5q0 82 53 136.5t136 54.5z" />
    <glyph glyph-name="colon.tf" horiz-adv-x="614" 
d="M307 571q-89 0 -142.5 54t-53.5 137t53.5 136.5t142.5 53.5t143 -53.5t54 -136.5t-54 -137t-143 -54zM307 -14q-89 0 -142.5 53.5t-53.5 136.5t53.5 137t142.5 54t143 -54t54 -137t-54 -136.5t-143 -53.5z" />
    <glyph glyph-name="semicolon.tf" horiz-adv-x="614" 
d="M307 571q-89 0 -142.5 54t-53.5 137t53.5 136.5t142.5 53.5t143 -53.5t54 -136.5t-54 -137t-143 -54zM299 367q99 0 153 -73t54 -192q0 -116 -52 -219.5t-139 -167t-186 -67.5v151q67 0 126.5 53t80.5 144q-21 -6 -49 -6q-77 0 -126.5 53.5t-49.5 132.5q0 82 52.5 136.5
t135.5 54.5z" />
    <glyph glyph-name="slash.tf" horiz-adv-x="614" 
d="M346 1516h359l-435 -1516h-358z" />
    <glyph glyph-name="backslash.tf" horiz-adv-x="614" 
d="M270 1516l435 -1516h-359l-434 1516h358z" />
    <glyph glyph-name="parenleft.case" horiz-adv-x="774" 
d="M598 -207q-255 151 -398 405.5t-143 567.5q0 317 141 569.5t400 401.5l162 -252q-161 -125 -251.5 -312t-90.5 -407q0 -207 90.5 -399.5t251.5 -321.5z" />
    <glyph glyph-name="parenright.case" horiz-adv-x="774" 
d="M14 45q161 128 251.5 320.5t90.5 400.5q0 217 -89.5 404t-252.5 315l162 252q259 -149 400 -401.5t141 -569.5q0 -310 -141.5 -564.5t-399.5 -408.5z" />
    <glyph glyph-name="braceleft.case" horiz-adv-x="862" 
d="M6 883q143 4 197.5 63t54.5 176v305q0 120 85 201.5t200 81.5h274v-287h-115q-46 0 -74 -32t-28 -88v-226q0 -79 -29.5 -146t-94.5 -117.5t-159 -68.5q94 -18 159.5 -69.5t94.5 -118.5t29 -143v-228q0 -56 27.5 -87t74.5 -31h115v-287h-274q-114 0 -199.5 80.5
t-85.5 201.5v304q0 40 -4 69t-19.5 61.5t-41.5 53t-73.5 35t-113.5 16.5v281z" />
    <glyph glyph-name="braceright.case" horiz-adv-x="862" 
d="M856 602q-66 -2 -113.5 -16.5t-73.5 -35t-41.5 -53t-19.5 -61.5t-4 -69v-304q0 -121 -85.5 -201.5t-199.5 -80.5h-274v287h115q47 0 74.5 31t27.5 87v228q0 76 29 143t94.5 118.5t159.5 69.5q-94 18 -159 68.5t-94.5 117.5t-29.5 146v226q0 56 -28 88t-74 32h-115v287
h274q115 0 200 -81.5t85 -201.5v-305q0 -117 54.5 -176t197.5 -63v-281z" />
    <glyph glyph-name="bracketleft.case" horiz-adv-x="753" 
d="M125 1712h580v-287h-238v-1355h238v-287h-580v1929z" />
    <glyph glyph-name="bracketright.case" horiz-adv-x="753" 
d="M49 70h238v1355h-238v287h580v-1929h-580v287z" />
    <glyph glyph-name="parenleft.tf" 
d="M825 -403q-254 151 -397 404.5t-143 567.5q0 317 140.5 569.5t399.5 401.5l162 -252q-161 -125 -251.5 -312t-90.5 -407q0 -207 90.5 -399.5t251.5 -321.5z" />
    <glyph glyph-name="parenright.tf" 
d="M242 -152q161 128 251.5 320.5t90.5 400.5q0 217 -89.5 404t-252.5 315l161 252q259 -149 400 -401.5t141 -569.5q0 -310 -141.5 -564t-399.5 -408z" />
    <glyph glyph-name="braceleft.tf" 
d="M190 686q143 4 197.5 63.5t54.5 176.5v305q0 120 85 201t200 81h274v-286h-114q-46 0 -74.5 -32.5t-28.5 -88.5v-225q0 -80 -29 -146.5t-94 -117t-159 -68.5q138 -26 210 -119.5t72 -212.5v-227q0 -56 28 -87.5t75 -31.5h114v-287h-274q-114 0 -199.5 81t-85.5 202v303
q0 40 -4 69t-19.5 61.5t-41.5 53.5t-73.5 35.5t-113.5 16.5v280z" />
    <glyph glyph-name="braceright.tf" 
d="M1040 406q-66 -2 -113.5 -16.5t-73.5 -35.5t-41.5 -53.5t-19.5 -61.5t-4 -69v-303q0 -121 -85 -202t-199 -81h-275v287h115q47 0 74.5 31.5t27.5 87.5v227q0 76 29 143t94.5 119t159.5 70q-94 18 -159 68.5t-94.5 117.5t-29.5 146v225q0 56 -28 88.5t-74 32.5h-115v286
h275q115 0 199.5 -81t84.5 -201v-305q0 -117 54.5 -176.5t197.5 -63.5v-280z" />
    <glyph glyph-name="bracketleft.tf" 
d="M362 1516h580v-287h-237v-1356h237v-287h-580v1930z" />
    <glyph glyph-name="bracketright.tf" 
d="M287 -127h237v1356h-237v287h579v-1930h-579v287z" />
    <glyph glyph-name="hyphen.case" horiz-adv-x="811" 
d="M96 895h619v-238h-619v238z" />
    <glyph glyph-name="endash.case" horiz-adv-x="1337" 
d="M96 895h1145v-238h-1145v238z" />
    <glyph glyph-name="emdash.case" horiz-adv-x="2248" 
d="M96 895h2056v-238h-2056v238z" />
    <glyph glyph-name="hyphen.tf" 
d="M305 698h619v-237h-619v237z" />
    <glyph glyph-name="endash.tf" 
d="M43 698h1143v-237h-1143v237z" />
    <glyph glyph-name="emdash.tf" 
d="M0 698h1229v-237h-1229v237z" />
    <glyph glyph-name="guillemotleft.case" horiz-adv-x="1169" 
d="M41 690l260 387h332l-254 -387l258 -391h-336zM528 690l260 387h332l-254 -387l258 -391h-336z" />
    <glyph glyph-name="guillemotright.case" horiz-adv-x="1169" 
d="M303 690l-254 387h332l260 -387l-260 -391h-336zM791 690l-254 387h331l260 -387l-260 -391h-336z" />
    <glyph glyph-name="guilsinglleft.case" horiz-adv-x="681" 
d="M41 690l260 387h332l-254 -387l258 -391h-336z" />
    <glyph glyph-name="guilsinglright.case" horiz-adv-x="681" 
d="M303 690l-254 387h332l260 -387l-260 -391h-336z" />
    <glyph glyph-name="space.tf" horiz-adv-x="614" 
 />
    <glyph glyph-name="plus.tf" 
d="M434 537h-389v344h389v417h352v-417h398v-344h-398v-418h-352v418z" />
    <glyph glyph-name="minus.tf" 
d="M45 881h1139v-344h-1139v344z" />
    <glyph glyph-name="multiply.tf" 
d="M66 395l315 314l-315 315l233 233l315 -315l314 313l233 -233l-313 -313l315 -316l-233 -233l-316 315l-313 -313z" />
    <glyph glyph-name="divide.tf" 
d="M614 938q-89 0 -142.5 53.5t-53.5 136.5t53.5 137t142.5 54t143 -54t54 -137t-54 -136.5t-143 -53.5zM45 881h1139v-344h-1139v344zM614 98q-89 0 -142.5 54t-53.5 137t53.5 136.5t142.5 53.5t143 -53.5t54 -136.5t-54 -137t-143 -54z" />
    <glyph glyph-name="equal.tf" 
d="M45 827v344h1139v-344h-1139zM45 246v344h1139v-344h-1139z" />
    <glyph glyph-name="notequal.tf" 
d="M1184 827h-361l-94 -237h455v-344h-596l-78 -195h-332l78 195h-211v344h352l95 237h-447v344h588l78 195h331l-77 -195h219v-344z" />
    <glyph glyph-name="greater.tf" 
d="M164 252l483 457l-483 458l233 234l693 -692l-691 -691z" />
    <glyph glyph-name="less.tf" 
d="M139 709l692 692l234 -234l-483 -458l483 -457l-236 -234z" />
    <glyph glyph-name="plusminus.tf" 
d="M434 737h-389v344h389v295h352v-295h398v-344h-398v-295h-352v295zM45 365h1139v-345h-1139v345z" />
    <glyph glyph-name="approxequal.tf" 
d="M18 784q0 188 93.5 290t277.5 102q86 0 171.5 -18t151 -36t101.5 -18q43 0 66.5 30t23.5 85h305q0 -187 -92.5 -290.5t-267.5 -103.5q-90 0 -177.5 18t-152 36t-98.5 18q-45 0 -70.5 -29t-25.5 -84h-306zM18 193q0 189 93 291t278 102q86 0 171.5 -18t151 -36t101.5 -18
q43 0 66.5 30t23.5 85h305q0 -187 -92.5 -290t-267.5 -103q-90 0 -177.5 18t-152 35.5t-98.5 17.5q-45 0 -70.5 -29t-25.5 -85h-306z" />
    <glyph glyph-name="percent.tf" horiz-adv-x="1843" 
d="M829 1180q0 -158 -114 -270.5t-273 -112.5t-273 112.5t-114 270.5q0 157 114.5 270t272.5 113t272.5 -113t114.5 -270zM1169 1516h347l-832 -1516h-346zM442 1063q44 0 75.5 35.5t31.5 81.5t-31.5 78t-75.5 32t-75 -32t-31 -78t31 -81.5t75 -35.5zM1788 354
q0 -158 -114 -270.5t-273 -112.5q-157 0 -272 112.5t-115 270.5t115 270.5t272 112.5q159 0 273 -112.5t114 -270.5zM1401 240q44 0 76 34t32 80q0 47 -32 80t-76 33t-75.5 -33t-31.5 -80q0 -46 31.5 -80t75.5 -34z" />
    <glyph glyph-name="perthousand.tf" horiz-adv-x="2457" 
d="M729 1180q0 -158 -114 -270.5t-273 -112.5t-273 112.5t-114 270.5q0 157 114.5 270t272.5 113t272.5 -113t114.5 -270zM1069 1516h346l-831 -1516h-346zM342 1063q44 0 75.5 35.5t31.5 81.5t-31.5 78t-75.5 32t-75 -32t-31 -78t31 -81.5t75 -35.5zM1688 354
q0 -158 -114.5 -270.5t-273.5 -112.5q-157 0 -272 112.5t-115 270.5t115 270.5t272 112.5q159 0 273.5 -112.5t114.5 -270.5zM2507 354q0 -158 -114 -270.5t-273 -112.5q-157 0 -272 112.5t-115 270.5t115 270.5t272 112.5q159 0 273 -112.5t114 -270.5zM1300 240
q44 0 76.5 34t32.5 80q0 47 -32 80t-77 33q-44 0 -75 -33t-31 -80q0 -46 31 -80t75 -34zM2120 240q44 0 76 34t32 80q0 47 -32 80t-76 33t-75.5 -33t-31.5 -80q0 -46 31.5 -80t75.5 -34z" />
    <glyph glyph-name="ampersand.ss01" horiz-adv-x="1314" 
d="M1288 948v-346h-143v-125q0 -237 -146 -370.5t-399 -133.5q-233 0 -381.5 125.5t-148.5 341.5q0 241 202 357q-80 48 -128 138t-48 198q0 187 135 298t342 111q191 0 312 -82l-223 -307q-29 29 -78 29q-46 0 -75.5 -32.5t-29.5 -80.5q0 -53 38 -87t104 -34h137v168h387
v-168h143zM758 477v125h-137q-80 0 -124 -39t-44 -104q0 -59 40.5 -92t110.5 -33t112 38t42 105z" />
    <glyph glyph-name="ampersand.ss02" horiz-adv-x="1200" 
d="M1081 750q86 -131 86 -289q0 -93 -38.5 -180t-107.5 -156t-176 -110.5t-235 -41.5q-124 0 -230.5 43.5t-177 116.5t-110 167.5t-39.5 195.5q0 111 47 214t133 175q-59 100 -59 221q0 182 127 309t307 127q112 0 208 -50t157 -138l-281 -199q-28 45 -88 45
q-40 0 -68 -26.5t-28 -67.5t28 -67.5t68 -26.5q60 0 88 45l281 -199q-61 -88 -157 -138t-208 -50q-37 0 -67 6q-103 -57 -103 -182q0 -74 47 -127.5t125 -53.5q82 0 127 43t45 105q0 50 -22 92z" />
    <glyph glyph-name="uni030C.alt" horiz-adv-x="0" 
d="M-471 1004l61 512h287l-72 -512h-276z" />
    <glyph glyph-name="caron.alt" horiz-adv-x="593" 
d="M471 1516l-72 -512h-276l61 512h287z" />
    <glyph glyph-name="uni0308.case" horiz-adv-x="0" 
d="M-922 1638q-101 0 -163 60.5t-62 154.5t62 154.5t163 60.5t163.5 -60.5t62.5 -154.5t-62.5 -154.5t-163.5 -60.5zM-348 1638q-101 0 -163 60.5t-62 154.5t62 154.5t163 60.5t163 -60.5t62 -154.5t-62 -154.5t-163 -60.5z" />
    <glyph glyph-name="uni0307.case" horiz-adv-x="0" 
d="M-367 1602q-109 0 -176 66t-67 167t67 167t176 66t176.5 -66t67.5 -167t-67.5 -167t-176.5 -66z" />
    <glyph glyph-name="gravecomb.case" horiz-adv-x="0" 
d="M-784 1782l82 286l579 -143l-82 -274z" />
    <glyph glyph-name="acutecomb.case" horiz-adv-x="0" 
d="M-702 1651l-82 274l579 143l82 -286z" />
    <glyph glyph-name="uni030B.case" horiz-adv-x="0" 
d="M-854 1630l-231 170l260 309l237 -180zM-389 1630l-232 170l261 309l237 -180z" />
    <glyph glyph-name="uni0302.case" horiz-adv-x="0" 
d="M-123 1864l-156 -213l-260 161l-260 -161l-155 213l301 204h229z" />
    <glyph glyph-name="uni030C.case" horiz-adv-x="0" 
d="M-279 2068l156 -213l-321 -204h-189l-321 204l155 213l260 -172z" />
    <glyph glyph-name="uni0306.case" horiz-adv-x="0" 
d="M-500 1651q-185 0 -291 110.5t-106 286.5h260q0 -64 34.5 -99.5t102.5 -35.5t103 35.5t35 99.5h260q0 -175 -107 -286t-291 -111z" />
    <glyph glyph-name="uni030A.case" horiz-adv-x="0" 
d="M-385 1569q-114 0 -188 72t-74 178q0 104 74 176.5t188 72.5t188 -72.5t74 -176.5q0 -106 -74 -178t-188 -72zM-385 1739q36 0 59 23.5t23 56.5t-23 56t-59 23t-59 -23t-23 -56t23 -56.5t59 -23.5z" />
    <glyph glyph-name="tildecomb.case" horiz-adv-x="0" 
d="M-987 1704q0 164 66 248t208 84q60 0 114.5 -19.5t95.5 -39t67 -19.5q67 0 67 78h246q0 -164 -66 -248t-208 -84q-60 0 -114.5 19.5t-95.5 39t-67 19.5q-67 0 -67 -78h-246z" />
    <glyph glyph-name="uni0304.case" horiz-adv-x="0" 
d="M-860 2001h737v-277h-737v277z" />
    <glyph glyph-name="uni0337.case" horiz-adv-x="0" 
d="M-887 453l-139 268l764 356l139 -268z" />
    <glyph glyph-name="uni0338.case" horiz-adv-x="0" 
d="M-1812 162l1441 1442l248 -250l-1442 -1442z" />
    <glyph glyph-name="dieresis.case" 
d="M348 1638q-101 0 -163 60.5t-62 154.5t62 154.5t163 60.5t163 -60.5t62 -154.5t-62 -154.5t-163 -60.5zM922 1638q-101 0 -163.5 60.5t-62.5 154.5t62.5 154.5t163.5 60.5t163 -60.5t62 -154.5t-62 -154.5t-163 -60.5z" />
    <glyph glyph-name="dotaccent.case" 
d="M367 1602q-109 0 -176.5 66t-67.5 167t67.5 167t176.5 66t176 -66t67 -167t-67 -167t-176 -66z" />
    <glyph glyph-name="grave.case" 
d="M123 1782l82 286l579 -143l-82 -274z" />
    <glyph glyph-name="acute.case" 
d="M205 1651l-82 274l579 143l82 -286z" />
    <glyph glyph-name="hungarumlaut.case" 
d="M354 1630l-231 170l260 309l238 -180zM819 1630l-231 170l260 309l237 -180z" />
    <glyph glyph-name="circumflex.case" 
d="M954 1864l-155 -213l-260 161l-260 -161l-156 213l301 204h229z" />
    <glyph glyph-name="caron.case" 
d="M799 2068l155 -213l-321 -204h-189l-321 204l156 213l260 -172z" />
    <glyph glyph-name="breve.case" 
d="M500 1651q-185 0 -291.5 110.5t-106.5 286.5h260q0 -64 35 -99.5t103 -35.5t102.5 35.5t34.5 99.5h260q0 -176 -106.5 -286.5t-290.5 -110.5z" />
    <glyph glyph-name="ring.case" 
d="M385 1569q-114 0 -188 72t-74 178q0 104 74 176.5t188 72.5t188 -72.5t74 -176.5q0 -106 -74 -178t-188 -72zM385 1739q36 0 59 23.5t23 56.5t-23 56t-59 23t-59 -23t-23 -56t23 -56.5t59 -23.5z" />
    <glyph glyph-name="tilde.case" 
d="M123 1704q0 164 66 248t208 84q60 0 114.5 -19.5t95.5 -39t67 -19.5q67 0 67 78h246q0 -164 -66 -248t-208 -84q-60 0 -114.5 19.5t-95.5 39t-67 19.5q-67 0 -67 -78h-246z" />
    <glyph glyph-name="macron.case" 
d="M123 2001h737v-277h-737v277z" />
    <glyph glyph-name="tonos.case" horiz-adv-x="673" 
d="M123 991l121 525h307l-148 -576z" />
    <glyph glyph-name="brevecombcy" horiz-adv-x="0" 
d="M-500 1108q-171 0 -274 111.5t-103 285.5h240q0 -66 35 -105.5t102 -39.5t102.5 40t35.5 105h239q0 -174 -103.5 -285.5t-273.5 -111.5z" />
    <glyph glyph-name="dieresistonoscomb" horiz-adv-x="1464" 
d="M565 1153l111 485h266l-137 -536zM328 1124q-93 0 -149 54.5t-56 140.5t56 140t149 54t148.5 -54t55.5 -140t-55.5 -140.5t-148.5 -54.5zM1137 1124q-93 0 -149 54.5t-56 140.5t56 140t149 54t148.5 -54t55.5 -140t-55.5 -140.5t-148.5 -54.5z" />
    </font>
</defs>
</svg>
