<?xml version="1.0" standalone="no"?>
<!DOCTYPE svg PUBLIC "-//W3C//DTD SVG 1.1//EN" "http://www.w3.org/Graphics/SVG/1.1/DTD/svg11.dtd" >
<svg xmlns="http://www.w3.org/2000/svg" xmlns:xlink="http://www.w3.org/1999/xlink" version="1.1">
<metadata>
Created by FontForge 20170731 at Wed Dec  2 19:26:20 2020
 By Aleksey,,,
Copyright (c) 2019 by Rick Banks. All rights reserved.
</metadata>
<defs>
<font id="F37GingerPro-Demi" horiz-adv-x="1228" >
  <font-face 
    font-family="F37 Ginger Pro Demi"
    font-weight="500"
    font-stretch="normal"
    units-per-em="2048"
    panose-1="0 0 6 0 0 0 0 0 0 0"
    ascent="1638"
    descent="-410"
    x-height="973"
    cap-height="1516"
    bbox="-1718 -559 2568 2056"
    underline-thickness="102"
    underline-position="-307"
    unicode-range="U+0020-FB02"
  />
<missing-glyph horiz-adv-x="1492" 
d="M205 1516h1083v-1516h-1083v1516zM428 1284v-1053h637v1053h-637z" />
    <glyph glyph-name="fi" unicode="fi" horiz-adv-x="1177" 
d="M1049 973v-973h-218v764h-419v-764h-217v764h-144v209h144v229q0 164 75.5 249t223.5 85q103 0 176 -25v-192q-7 2 -47.5 7t-71.5 5q-71 0 -105 -33t-34 -122v-203h637zM940 1155q-62 0 -103.5 41t-41.5 104t41.5 104.5t103.5 41.5q63 0 105 -41.5t42 -104.5t-42 -104
t-105 -41z" />
    <glyph glyph-name="fl" unicode="fl" horiz-adv-x="1239" 
d="M1167 180q34 0 52 4v-192q-87 -17 -119 -17q-264 0 -264 285v504h-424v-764h-217v764h-144v209h144v229q0 164 75.5 249t223.5 85q103 0 176 -25v-192q-7 2 -47.5 7t-71.5 5q-71 0 -105 -33t-34 -122v-203h424v543h217v-1207q0 -68 23.5 -98.5t90.5 -30.5z" />
    <glyph glyph-name="f_f" unicode="ff" horiz-adv-x="1261" 
d="M1161 1331q-71 0 -105 -33t-34 -122v-203h238v-209h-238v-764h-217v764h-393v-764h-217v764h-144v209h144v229q0 164 75.5 249t223.5 85q103 0 176 -25v-192q-7 2 -47.5 7t-71.5 5q-71 0 -105 -33t-34 -122v-203h393v229q0 164 75.5 249t223.5 85q103 0 176 -25v-192
q-7 2 -47.5 7t-71.5 5z" />
    <glyph glyph-name="f_f_i" unicode="ffi" horiz-adv-x="1802" 
d="M1659 973v-973h-217v764h-420v-764h-217v764h-393v-764h-217v764h-144v209h144v229q0 164 75.5 249t223.5 85q103 0 176 -25v-192q-7 2 -47.5 7t-71.5 5q-71 0 -105 -33t-34 -122v-203h393v229q0 164 75.5 249t223.5 85q103 0 176 -25v-192q-7 2 -47.5 7t-71.5 5
q-71 0 -105 -33t-34 -122v-203h637zM1550 1155q-62 0 -103.5 41t-41.5 104t41.5 104.5t103.5 41.5q63 0 105.5 -41.5t42.5 -104.5t-42.5 -104t-105.5 -41z" />
    <glyph glyph-name="f_f_l" unicode="ffl" horiz-adv-x="1851" 
d="M1780 180q31 0 51 4v-192q-87 -17 -119 -17q-264 0 -264 285v504h-424v-764h-217v764h-395v-764h-217v764h-144v209h144v229q0 164 75.5 249t223.5 85q103 0 176 -25v-192q-7 2 -47.5 7t-71.5 5q-71 0 -105 -33t-34 -122v-203h395v229q0 164 75.5 249t223.5 85
q103 0 176 -25v-192q-7 2 -47.5 7t-71.5 5q-71 0 -105 -33t-34 -122v-203h424v543h217v-1207q0 -68 24 -98.5t91 -30.5z" />
    <glyph glyph-name=".notdef" horiz-adv-x="1492" 
d="M205 1516h1083v-1516h-1083v1516zM428 1284v-1053h637v1053h-637z" />
    <glyph glyph-name=".null" horiz-adv-x="0" 
 />
    <glyph glyph-name="nonmarkingreturn" horiz-adv-x="682" 
 />
    <glyph glyph-name="space" unicode=" " horiz-adv-x="550" 
 />
    <glyph glyph-name="exclam" unicode="!" horiz-adv-x="561" 
d="M164 1006v510h231v-510l-49 -555h-131zM281 -14q-59 0 -99.5 40t-40.5 101q0 60 40.5 99.5t99.5 39.5t99 -39.5t40 -99.5q0 -61 -40 -101t-99 -40z" />
    <glyph glyph-name="quotedbl" unicode="&#x22;" horiz-adv-x="837" 
d="M104 1516h256l-41 -525h-178zM481 1516h256l-41 -525h-178z" />
    <glyph glyph-name="numbersign" unicode="#" horiz-adv-x="1308" 
d="M1235 913h-246l-41 -282h221v-164h-243l-52 -371h-167l51 371h-293l-51 -371h-166l51 371h-225v164h248l40 282h-223v166h246l49 351h166l-49 -351h293l49 351h168l-49 -351h223v-166zM780 631l41 282h-293l-41 -282h293z" />
    <glyph glyph-name="dollar" unicode="$" horiz-adv-x="1155" 
d="M1071 422q0 -182 -101 -298t-288 -142v-152h-188v147q-264 30 -433 261l146 151q137 -164 287 -194v507q-60 26 -102.5 48t-91.5 58.5t-78.5 77.5t-49.5 100.5t-20 131.5q0 162 92.5 268.5t249.5 141.5v158h188v-146q198 -13 365 -141l-121 -180q-99 89 -244 106v-451
q50 -20 81 -33.5t76.5 -37.5t74.5 -47t62 -58t51.5 -73.5t31 -90.5t12.5 -112zM381 1141q0 -110 113 -178v344q-113 -47 -113 -166zM682 201q77 24 117.5 80t40.5 129q0 72 -41 120.5t-117 87.5v-417z" />
    <glyph glyph-name="percent" unicode="%" horiz-adv-x="1783" 
d="M834 1171q0 -158 -114.5 -270.5t-273.5 -112.5t-273 112.5t-114 270.5t114 270.5t273 112.5t273.5 -112.5t114.5 -270.5zM1217 1516h190l-832 -1516h-190zM446 981q78 0 132.5 56t54.5 134t-54.5 133.5t-132.5 55.5q-79 0 -133.5 -55.5t-54.5 -133.5q0 -79 54.5 -134.5
t133.5 -55.5zM1724 354q0 -158 -114 -270.5t-273 -112.5t-273 112.5t-114 270.5t114 270.5t273 112.5t273 -112.5t114 -270.5zM1337 164q79 0 133 55.5t54 134.5t-54 134t-133 55t-132.5 -55t-53.5 -134t53.5 -134.5t132.5 -55.5z" />
    <glyph glyph-name="ampersand" unicode="&#x26;" horiz-adv-x="1292" 
d="M1214 709h-163v-498h163v-211h-636q-207 0 -343.5 126.5t-136.5 317.5q0 262 242 369q-205 100 -205 328q0 172 111 286.5t315 114.5q201 0 313 -112l-143 -160q-62 59 -156 59q-99 0 -153.5 -56.5t-54.5 -142.5q0 -89 57 -148.5t160 -59.5h250v215h217v-215h163v-213z
M834 211v498h-256q-111 0 -178.5 -77t-67.5 -175q0 -100 66 -173t182 -73h254z" />
    <glyph glyph-name="quotesingle" unicode="'" horiz-adv-x="460" 
d="M104 1516h256l-41 -525h-178z" />
    <glyph glyph-name="parenleft" unicode="(" horiz-adv-x="724" 
d="M616 -406q-249 145 -394.5 400.5t-145.5 572.5q0 320 145 574.5t395 398.5l99 -162q-188 -128 -299 -344t-111 -467q0 -247 112 -464.5t298 -348.5z" />
    <glyph glyph-name="parenright" unicode=")" horiz-adv-x="724" 
d="M8 -246q187 131 298.5 348.5t111.5 464.5q0 251 -111 467t-299 344l101 162q250 -144 395 -398.5t145 -574.5q0 -316 -145.5 -571.5t-394.5 -401.5z" />
    <glyph glyph-name="asterisk" unicode="*" horiz-adv-x="829" 
d="M737 1282l-192 -94l192 -96l-80 -138l-178 119l13 -215h-156l12 217l-180 -121l-78 138l193 96l-193 94l78 137l182 -121l-14 218h156l-15 -218l180 121z" />
    <glyph glyph-name="plus" unicode="+" horiz-adv-x="1380" 
d="M580 604h-449v209h449v477h215v-477h454v-209h-454v-477h-215v477z" />
    <glyph glyph-name="comma" unicode="," horiz-adv-x="481" 
d="M240 266q71 0 110 -53t39 -141q0 -138 -83.5 -244t-190.5 -111v109q52 0 97 44.5t56 125.5q-20 -4 -37 -4q-57 0 -93 37t-36 96q0 60 39 100.5t99 40.5z" />
    <glyph glyph-name="hyphen" unicode="-" horiz-adv-x="845" 
d="M119 674h608v-207h-608v207z" />
    <glyph glyph-name="period" unicode="." horiz-adv-x="479" 
d="M240 -14q-59 0 -99.5 40t-40.5 101q0 60 40.5 99.5t99.5 39.5t99 -39.5t40 -99.5q0 -61 -40 -101t-99 -40z" />
    <glyph glyph-name="slash" unicode="/" horiz-adv-x="1146" 
d="M881 1516h219l-832 -1516h-219z" />
    <glyph glyph-name="zero" unicode="0" horiz-adv-x="1234" 
d="M618 -27q-226 0 -356.5 146.5t-130.5 376.5v524q0 230 130.5 376t356.5 146q221 0 354.5 -143.5t133.5 -378.5v-524q0 -235 -133.5 -379t-354.5 -144zM618 186q125 0 194 87.5t69 240.5v487q0 153 -69 240.5t-194 87.5q-124 0 -194 -85.5t-70 -242.5v-487
q0 -157 70 -242.5t194 -85.5z" />
    <glyph glyph-name="one" unicode="1" horiz-adv-x="724" 
d="M307 1294h-262v222h494v-1516h-232v1294z" />
    <glyph glyph-name="two" unicode="2" horiz-adv-x="1130" 
d="M766 586l-371 -365h631v-221h-938v225l428 420q152 147 217.5 253.5t65.5 203.5q0 102 -62 164.5t-168 62.5q-100 0 -168.5 -58.5t-91.5 -170.5h-221q31 220 163 331t324 111q128 0 230 -50t163.5 -150.5t61.5 -235.5q0 -262 -264 -520z" />
    <glyph glyph-name="three" unicode="3" horiz-adv-x="1150" 
d="M803 813q244 -108 244 -381q0 -200 -136.5 -329.5t-343.5 -129.5q-220 0 -351.5 127.5t-143.5 337.5h221q12 -117 83.5 -184.5t188.5 -67.5q118 0 183 74.5t65 183.5q0 106 -67.5 185.5t-180.5 79.5h-80v215h76q101 0 158 61t57 150q0 84 -50 139t-146 55
q-105 0 -163 -64.5t-63 -164.5h-221q4 128 55 226.5t153 157t243 58.5q203 0 314.5 -114.5t111.5 -286.5q0 -231 -207 -328z" />
    <glyph glyph-name="four" unicode="4" horiz-adv-x="1193" 
d="M1116 463v-205h-164v-258h-223v258h-688v199l696 1059h215v-1053h164zM289 463h440v674z" />
    <glyph glyph-name="five" unicode="5" horiz-adv-x="1185" 
d="M623 1014q206 0 343.5 -145t137.5 -369q0 -226 -147 -376.5t-371 -150.5q-211 0 -354.5 131.5t-168.5 335.5h224q6 -42 24.5 -83t51.5 -81.5t90 -66t129 -25.5q137 0 218 88.5t81 225.5q0 148 -86.5 231.5t-212.5 83.5q-147 0 -260 -96l-162 127l116 672h746l-16 -211
h-545l-64 -342q102 51 226 51z" />
    <glyph glyph-name="six" unicode="6" horiz-adv-x="1159" 
d="M610 950q199 0 340.5 -141.5t141.5 -339.5q0 -132 -65 -245.5t-181.5 -182t-257.5 -68.5t-257 68.5t-180.5 182t-64.5 245.5t84 293l395 754h254l-305 -580q43 14 96 14zM588 182q124 0 206.5 85.5t82.5 201.5q0 113 -82.5 198t-206.5 85t-205.5 -85t-81.5 -198
q0 -116 81.5 -201.5t205.5 -85.5z" />
    <glyph glyph-name="seven" unicode="7" horiz-adv-x="1060" 
d="M43 1516h969v-222l-617 -1294h-252l623 1294h-723v222z" />
    <glyph glyph-name="eight" unicode="8" horiz-adv-x="1245" 
d="M946 918q97 -72 153 -182t56 -236q0 -143 -70.5 -264.5t-193.5 -192t-270 -70.5q-109 0 -208 41.5t-170 112.5t-113 168.5t-42 204.5q0 127 56.5 237t154.5 183q-82 91 -82 225q0 165 116.5 281t287.5 116t288 -115.5t117 -281.5q0 -132 -80 -227zM621 1331
q-77 0 -132 -56t-55 -130q0 -80 60 -137q70 18 127 18q52 0 129 -18q59 56 59 137q0 76 -54.5 131t-133.5 55zM621 182q133 0 226 94.5t93 223.5t-93.5 223t-225.5 94q-131 0 -224.5 -95t-93.5 -222q0 -129 93.5 -223.5t224.5 -94.5z" />
    <glyph glyph-name="nine" unicode="9" horiz-adv-x="1159" 
d="M571 1542q140 0 256 -68t181 -181.5t65 -245.5t-84 -293l-395 -754h-254l307 580q-49 -15 -98 -15q-199 0 -340 142t-141 340q0 99 38.5 189.5t104.5 158t160 107.5t200 40zM571 764q122 0 204.5 85.5t82.5 197.5q0 116 -82 201t-205 85q-124 0 -206 -85t-82 -201
q0 -113 82 -198t206 -85z" />
    <glyph glyph-name="colon" unicode=":" horiz-adv-x="501" 
d="M252 670q-59 0 -99 40t-40 101q0 58 40 97.5t99 39.5t99 -39.5t40 -97.5q0 -61 -40 -101t-99 -40zM252 -14q-59 0 -99 40t-40 101q0 60 40 99.5t99 39.5t99 -39.5t40 -99.5q0 -61 -40 -101t-99 -40z" />
    <glyph glyph-name="semicolon" unicode=";" horiz-adv-x="518" 
d="M256 670q-60 0 -100.5 40t-40.5 101q0 58 40.5 97.5t100.5 39.5q59 0 99 -39.5t40 -97.5q0 -61 -40 -101t-99 -40zM254 266q71 0 110 -53t39 -141q0 -138 -84 -244t-192 -111v109q54 0 99.5 44.5t56.5 125.5q-20 -4 -37 -4q-57 0 -93 37t-36 96q0 61 38 101t99 40z" />
    <glyph glyph-name="less" unicode="&#x3c;" horiz-adv-x="1329" 
d="M279 709l604 620l145 -147l-473 -473l475 -473l-147 -148z" />
    <glyph glyph-name="equal" unicode="=" horiz-adv-x="1343" 
d="M131 864v209h1081v-209h-1081zM131 344v209h1081v-209h-1081z" />
    <glyph glyph-name="greater" unicode="&#x3e;" horiz-adv-x="1329" 
d="M301 236l475 473l-475 473l148 147l602 -620l-602 -621z" />
    <glyph glyph-name="question" unicode="?" horiz-adv-x="1024" 
d="M303 549q0 72 23.5 129.5t60.5 94.5t82 67.5t90 57.5t82 56.5t60.5 72t23.5 95.5q0 95 -58.5 151t-160.5 56q-104 0 -168 -69t-64 -181h-213q0 204 128.5 334.5t328.5 130.5q198 0 317 -113t119 -301q0 -79 -23.5 -143t-60.5 -105.5t-82 -75.5t-90 -62.5t-82 -57
t-60.5 -67.5t-23.5 -87v-83h-229v100zM416 -14q-60 0 -101 40t-41 101q0 60 41 99.5t101 39.5q59 0 98 -39.5t39 -99.5q0 -61 -39 -101t-98 -40z" />
    <glyph glyph-name="at" unicode="@" horiz-adv-x="1933" 
d="M903 -29q-178 0 -287.5 122.5t-109.5 301.5t111.5 300.5t297.5 121.5q164 0 269 -115v103h196v-508q0 -67 25 -102t70 -35q72 0 123 97.5t51 250.5q0 88 -26 174t-80.5 164t-132 137.5t-188.5 95t-241 35.5q-98 0 -193.5 -24.5t-188 -80.5t-162.5 -138t-113 -208
t-43 -280q0 -147 37 -268.5t103 -206t157 -143t197 -86t226 -27.5q240 0 429 123l106 -166q-219 -146 -557 -146q-150 0 -286 39t-248.5 117t-194.5 187.5t-128 257t-46 319.5q0 178 51.5 332t139 263t202 186.5t241.5 115t257 37.5q110 0 216.5 -23t205 -66.5t182 -112.5
t145 -156t96.5 -201t35 -244q0 -157 -47.5 -282.5t-135.5 -198t-200 -72.5q-89 0 -151 50t-80 130q-58 -93 -150.5 -131.5t-179.5 -38.5zM934 141q115 0 183.5 72.5t68.5 181.5t-68 180.5t-184 71.5q-114 0 -181 -71.5t-67 -180.5q0 -111 67.5 -182.5t180.5 -71.5z" />
    <glyph glyph-name="A" unicode="A" horiz-adv-x="1488" 
d="M1227 0l-137 348h-691l-135 -348h-250l613 1516h237l613 -1516h-250zM745 1221l-260 -652h519z" />
    <glyph glyph-name="B" unicode="B" horiz-adv-x="1265" 
d="M178 0v1516h416q262 0 391 -101t129 -289q0 -256 -242 -331q151 -33 226.5 -132.5t75.5 -244.5q0 -211 -153 -314.5t-437 -103.5h-406zM410 901h260q102 0 158.5 49t56.5 144q0 200 -242 200h-233v-393zM410 219h227q159 0 233 63t74 169t-71 168.5t-220 62.5h-243v-463z
" />
    <glyph glyph-name="C" unicode="C" horiz-adv-x="1464" 
d="M872 -27q-162 0 -308.5 61t-252.5 165t-168.5 249.5t-62.5 307.5q0 214 103 394t285 286t402 106q167 0 313.5 -63t254.5 -176l-148 -160q-163 186 -420 186q-155 0 -283.5 -79t-201 -211t-72.5 -285q0 -154 74 -284.5t202.5 -207t282.5 -76.5q113 0 220.5 47t185.5 125
l139 -161q-110 -105 -249.5 -164.5t-295.5 -59.5z" />
    <glyph glyph-name="D" unicode="D" horiz-adv-x="1501" 
d="M178 0v1516h426q239 0 423 -90t288 -263t104 -405t-104 -405t-288 -263t-423 -90h-426zM410 221h190q124 0 228 31.5t185.5 94.5t127 168t45.5 243q0 111 -30 201t-83 151.5t-127.5 103.5t-160.5 61t-185 19h-190v-1073z" />
    <glyph glyph-name="E" unicode="E" horiz-adv-x="1198" 
d="M178 0v1516h934v-222h-702v-393h567v-221h-567v-459h702v-221h-934z" />
    <glyph glyph-name="F" unicode="F" horiz-adv-x="1146" 
d="M178 0v1516h924v-222h-692v-393h555v-221h-555v-680h-232z" />
    <glyph glyph-name="G" unicode="G" horiz-adv-x="1648" 
d="M881 -27q-168 0 -317 60.5t-255 164.5t-167.5 248.5t-61.5 307.5q0 160 61 305.5t165 251.5t251.5 168.5t312.5 62.5q169 0 318 -64t258 -178l-141 -157q-81 94 -193 140t-233 46q-161 0 -292 -79t-202.5 -210t-71.5 -286q0 -156 72 -286t203.5 -206t294.5 -76
q204 0 333.5 123.5t129.5 329.5v4h-515v221h744v-151q0 -154 -45 -287t-130 -234.5t-218.5 -160t-300.5 -58.5z" />
    <glyph glyph-name="H" unicode="H" horiz-adv-x="1605" 
d="M1196 1516h231v-1516h-231v686h-786v-686h-232v1516h232v-607h786v607z" />
    <glyph glyph-name="I" unicode="I" horiz-adv-x="589" 
d="M178 0v1516h232v-1516h-232z" />
    <glyph glyph-name="J" unicode="J" horiz-adv-x="583" 
d="M-76 -453v213q92 12 144 50.5t78 124.5t26 235v1346h231v-1346q0 -308 -108 -453.5t-371 -169.5z" />
    <glyph glyph-name="K" unicode="K" horiz-adv-x="1327" 
d="M623 752l737 -752h-307l-643 662v-662h-232v1516h232v-680l604 680h293z" />
    <glyph glyph-name="L" unicode="L" horiz-adv-x="1157" 
d="M178 0v1516h232v-1295h723v-221h-955z" />
    <glyph glyph-name="M" unicode="M" horiz-adv-x="1880" 
d="M1399 1516h301v-1516h-232v1200l-417 -629h-228l-413 631v-1202h-232v1516h301l459 -703z" />
    <glyph glyph-name="N" unicode="N" horiz-adv-x="1712" 
d="M1305 1516h229v-1516h-246l-878 1214v-1214h-232v1516h295l832 -1149v1149z" />
    <glyph glyph-name="O" unicode="O" horiz-adv-x="1746" 
d="M872 -27q-162 0 -308.5 61t-252.5 165t-168.5 249.5t-62.5 307.5q0 160 61 305t165.5 250.5t252 168t313.5 62.5t314 -62.5t252.5 -168t165.5 -250.5t61 -305q0 -216 -106.5 -396.5t-288.5 -283.5t-398 -103zM872 186q115 0 219 45t178.5 121.5t118.5 181.5t44 220
q0 153 -72 285t-201.5 211t-286.5 79q-156 0 -285 -79t-201.5 -211t-72.5 -285q0 -154 74 -284.5t202.5 -207t282.5 -76.5z" />
    <glyph glyph-name="P" unicode="P" horiz-adv-x="1265" 
d="M178 0v1516h465q145 0 256.5 -37.5t180 -105.5t103 -157t34.5 -196t-34.5 -195.5t-103 -156.5t-180 -106t-256.5 -38h-233v-524h-232zM410 748h233q173 0 258.5 73.5t85.5 198.5t-85.5 199.5t-258.5 74.5h-233v-546z" />
    <glyph glyph-name="Q" unicode="Q" horiz-adv-x="1759" 
d="M1696 221v-221h-711h-113q-217 0 -398 96.5t-287.5 271t-106.5 390.5q0 160 61 305t165.5 250t252 167t313.5 62q167 0 314.5 -62t252.5 -167t165.5 -249.5t60.5 -305.5q0 -172 -74 -310.5t-227 -226.5h332zM313 756q0 -154 74 -278.5t202 -194.5t283 -70
q247 0 403.5 153.5t156.5 389.5q0 154 -72 285.5t-201.5 209.5t-286.5 78q-156 0 -285 -78t-201.5 -209.5t-72.5 -285.5z" />
    <glyph glyph-name="R" unicode="R" horiz-adv-x="1351" 
d="M1284 0h-264l-373 643h-237v-643h-232v1516h555q139 0 241 -32t162.5 -91.5t89.5 -137.5t29 -176q0 -167 -86 -277.5t-270 -144.5zM410 1294v-430h342q139 0 206.5 56t67.5 159q0 102 -68 158.5t-206 56.5h-342z" />
    <glyph glyph-name="S" unicode="S" horiz-adv-x="1157" 
d="M207 389q75 -93 162.5 -148t205.5 -55q126 0 194.5 64t68.5 160q0 66 -38 115.5t-98.5 82t-133.5 62t-146 65.5t-133.5 82.5t-98.5 123t-38 177.5q0 197 133.5 310.5t345.5 113.5q228 0 416 -143l-123 -180q-60 55 -141 82.5t-162 27.5q-110 0 -175 -49.5t-65 -138.5
q0 -52 23.5 -93t63.5 -69t91.5 -52t108.5 -46.5t114 -48t108.5 -61.5t91.5 -82t63.5 -114t23.5 -153q0 -206 -130 -327.5t-366 -121.5q-320 0 -512 265z" />
    <glyph glyph-name="T" unicode="T" horiz-adv-x="1267" 
d="M518 0v1294h-493v222h1218v-222h-493v-1294h-232z" />
    <glyph glyph-name="U" unicode="U" horiz-adv-x="1566" 
d="M784 -27q-292 0 -459 178.5t-167 522.5v842h231v-771q0 -293 90.5 -426t304.5 -133q213 0 304.5 133t91.5 426v771h231v-842q0 -343 -168 -522t-459 -179z" />
    <glyph glyph-name="V" unicode="V" horiz-adv-x="1480" 
d="M1214 1516h252l-606 -1516h-239l-607 1516h252l475 -1213z" />
    <glyph glyph-name="W" unicode="W" horiz-adv-x="2103" 
d="M1833 1516h252l-481 -1516h-226l-325 1118l-328 -1118h-225l-480 1516h250l340 -1149l326 1149h233l326 -1149z" />
    <glyph glyph-name="X" unicode="X" horiz-adv-x="1320" 
d="M1319 1516l-518 -764l510 -752h-275l-383 565l-383 -565h-274l520 766l-508 750h275l381 -562l380 562h275z" />
    <glyph glyph-name="Y" unicode="Y" horiz-adv-x="1402" 
d="M1100 1516h270l-553 -844v-672h-231v670l-553 846h268l399 -619z" />
    <glyph glyph-name="Z" unicode="Z" horiz-adv-x="1312" 
d="M1251 1516v-218l-897 -1077h897v-221h-1200v217l897 1077h-874v222h1177z" />
    <glyph glyph-name="bracketleft" unicode="[" horiz-adv-x="747" 
d="M170 1516h543v-195h-310v-1540h310v-195h-543v1930z" />
    <glyph glyph-name="backslash" unicode="\" horiz-adv-x="1146" 
d="M47 1516h219l832 -1516h-219z" />
    <glyph glyph-name="bracketright" unicode="]" horiz-adv-x="747" 
d="M37 -219h307v1540h-307v195h541v-1930h-541v195z" />
    <glyph glyph-name="asciicircum" unicode="^" horiz-adv-x="1347" 
d="M672 1331l-299 -643h-230l404 828h254l403 -828h-231z" />
    <glyph glyph-name="underscore" unicode="_" horiz-adv-x="1253" 
d="M90 0h1071v-199h-1071v199z" />
    <glyph glyph-name="grave" unicode="`" horiz-adv-x="802" 
d="M123 1321l86 186l471 -227l-80 -172z" />
    <glyph glyph-name="a" unicode="a" horiz-adv-x="1236" 
d="M883 973h217v-973h-217v100q-131 -118 -312 -118q-133 0 -248 66t-184 183t-69 256t69 255.5t184 182.5t248 66q179 0 312 -117v99zM586 186q124 0 210.5 88t86.5 213q0 124 -86.5 211.5t-210.5 87.5q-121 0 -208 -88t-87 -211q0 -124 86.5 -212.5t208.5 -88.5z" />
    <glyph glyph-name="b" unicode="b" horiz-adv-x="1236" 
d="M666 991q133 0 248 -66t184 -182.5t69 -255.5t-69 -256t-184 -183t-248 -66q-181 0 -312 118v-100h-217v1516h217v-642q133 117 312 117zM651 186q122 0 208.5 88.5t86.5 212.5q0 123 -87 211t-208 88q-124 0 -210.5 -87.5t-86.5 -211.5q0 -125 86.5 -213t210.5 -88z" />
    <glyph glyph-name="c" unicode="c" horiz-adv-x="1060" 
d="M584 -25q-140 0 -258.5 68t-187 185t-68.5 255q0 139 68.5 256t187 184.5t258.5 67.5q134 0 248 -61.5t184 -167.5l-185 -109q-87 129 -247 129q-124 0 -208.5 -87.5t-84.5 -211.5t85 -212.5t208 -88.5q79 0 146.5 37.5t107.5 102.5l184 -111q-70 -109 -186 -172.5
t-252 -63.5z" />
    <glyph glyph-name="d" unicode="d" horiz-adv-x="1236" 
d="M883 1516h217v-1516h-217v100q-131 -118 -312 -118q-133 0 -248 66t-184 183t-69 256t69 255.5t184 182.5t248 66q179 0 312 -117v642zM586 186q124 0 210.5 88t86.5 213q0 124 -86.5 211.5t-210.5 87.5q-121 0 -208 -88t-87 -211q0 -124 86.5 -212.5t208.5 -88.5z" />
    <glyph glyph-name="e" unicode="e" horiz-adv-x="1122" 
d="M563 991q112 0 206 -39t157.5 -107t99 -161.5t35.5 -200.5q0 -21 -4 -67h-772q22 -109 101.5 -176.5t197.5 -67.5q83 0 151.5 31.5t110.5 87.5l149 -117q-145 -199 -405 -199q-97 0 -181 27.5t-145.5 75.5t-105.5 113t-66 140t-22 156q0 133 62.5 248t176.5 185.5
t254 70.5zM289 575h553q-15 102 -86 160t-187 58q-103 0 -179 -58.5t-101 -159.5z" />
    <glyph glyph-name="f" unicode="f" horiz-adv-x="651" 
d="M551 1331q-71 0 -105 -33t-34 -122v-203h237v-209h-237v-764h-217v764h-144v209h144v229q0 164 75.5 249t223.5 85q103 0 176 -25v-192q-7 2 -47.5 7t-71.5 5z" />
    <glyph glyph-name="g" unicode="g" horiz-adv-x="1234" 
d="M883 973h217v-967q0 -95 -18 -174t-47.5 -134t-71 -98t-85.5 -68.5t-95 -42t-95.5 -22.5t-89.5 -6q-151 0 -269 65t-188 177l201 86q88 -119 256 -119q126 0 205.5 74t79.5 223v133q-131 -118 -312 -118q-133 0 -248 66t-184 183t-69 256t69 255.5t184 182.5t248 66
q179 0 312 -117v99zM586 186q124 0 210.5 88t86.5 213q0 124 -86.5 211.5t-210.5 87.5q-121 0 -208 -88t-87 -211q0 -124 86.5 -212.5t208.5 -88.5z" />
    <glyph glyph-name="h" unicode="h" horiz-adv-x="1157" 
d="M639 991q82 0 150.5 -24t124 -75t87 -139t31.5 -206v-547h-217v528q0 125 -56.5 189.5t-166.5 64.5q-117 0 -177.5 -65.5t-60.5 -206.5v-510h-217v1516h217v-637q104 112 285 112z" />
    <glyph glyph-name="i" unicode="i" horiz-adv-x="493" 
d="M248 1182q-60 0 -101 40t-41 101q0 60 41 99.5t101 39.5q59 0 99 -39.5t40 -99.5q0 -61 -40 -101t-99 -40zM137 973h217v-973h-217v973z" />
    <glyph glyph-name="j" unicode="j" horiz-adv-x="493" 
d="M250 1182q-60 0 -100.5 40t-40.5 101q0 60 40.5 99.5t100.5 39.5q59 0 99 -39.5t40 -99.5q0 -61 -40 -101t-99 -40zM137 973h217v-1491h-217v1491z" />
    <glyph glyph-name="k" unicode="k" horiz-adv-x="1040" 
d="M1059 0h-291l-414 444v-444h-217v1516h217v-928l385 385h289l-455 -455z" />
    <glyph glyph-name="l" unicode="l" horiz-adv-x="536" 
d="M408 -25q-136 0 -205.5 74.5t-69.5 210.5v1256h217v-1207q0 -67 24.5 -98t90.5 -31q33 0 51 4v-192q-66 -17 -108 -17z" />
    <glyph glyph-name="m" unicode="m" horiz-adv-x="1755" 
d="M1266 991q58 0 109 -13.5t99 -45t82.5 -80t55 -123.5t20.5 -170v-559h-217v532q0 131 -48.5 190.5t-147.5 59.5q-226 0 -226 -272v-510h-217v532q0 131 -48.5 190.5t-147.5 59.5q-226 0 -226 -272v-510h-217v973h217v-92q102 110 273 110q207 0 303 -160q124 160 336 160
z" />
    <glyph glyph-name="n" unicode="n" horiz-adv-x="1157" 
d="M639 991q82 0 150.5 -24t124 -75t87 -139t31.5 -206v-547h-217v528q0 125 -56.5 189.5t-166.5 64.5q-117 0 -177.5 -65.5t-60.5 -206.5v-510h-217v973h217v-94q104 112 285 112z" />
    <glyph glyph-name="o" unicode="o" horiz-adv-x="1169" 
d="M584 -25q-214 0 -364 149t-150 359q0 138 68 255t186.5 185t259.5 68q216 0 366 -148.5t150 -359.5q0 -138 -68 -254.5t-187 -185t-261 -68.5zM584 182q126 0 210.5 88.5t84.5 212.5q0 123 -84.5 211t-210.5 88q-124 0 -208.5 -88t-84.5 -211t84.5 -212t208.5 -89z" />
    <glyph glyph-name="p" unicode="p" horiz-adv-x="1239" 
d="M666 991q133 0 248 -66t184 -182.5t69 -255.5t-69 -256t-184 -183t-248 -66q-181 0 -312 118v-618h-217v1491h217v-99q133 117 312 117zM651 186q122 0 208.5 88.5t86.5 212.5q0 123 -87 211t-208 88q-124 0 -210.5 -87.5t-86.5 -211.5q0 -125 86.5 -213t210.5 -88z" />
    <glyph glyph-name="q" unicode="q" horiz-adv-x="1234" 
d="M883 973h217v-1491h-217v618q-131 -118 -312 -118q-133 0 -248 66t-184 183t-69 256t69 255.5t184 182.5t248 66q179 0 312 -117v99zM586 186q124 0 210.5 88t86.5 213q0 124 -86.5 211.5t-210.5 87.5q-121 0 -208 -88t-87 -211q0 -124 86.5 -212.5t208.5 -88.5z" />
    <glyph glyph-name="r" unicode="r" horiz-adv-x="733" 
d="M676 991h45v-209h-25q-171 0 -256.5 -62t-85.5 -198v-522h-217v973h217v-111q45 61 128 95t194 34z" />
    <glyph glyph-name="s" unicode="s" horiz-adv-x="878" 
d="M170 276q123 -104 279 -104q73 0 109 27.5t36 66.5q0 32 -21 55.5t-56 37t-79.5 28t-90.5 27t-90.5 36t-79.5 52.5t-56 78t-21 112q0 131 90.5 215t249.5 84q228 0 363 -119l-115 -155q-113 76 -248 76q-127 0 -127 -82q0 -34 27 -58.5t70 -41t95 -32.5t104 -39.5t95 -55
t70 -85.5t27 -125q0 -133 -96 -216t-271 -83q-119 0 -208.5 36.5t-170.5 99.5z" />
    <glyph glyph-name="t" unicode="t" horiz-adv-x="720" 
d="M684 764h-270v-442q0 -68 27.5 -105t95.5 -37q41 0 79 4.5t43 8.5v-195q-69 -23 -182 -23q-136 0 -208 80t-72 224v485h-154v209h154v321h217v-321h270v-209z" />
    <glyph glyph-name="u" unicode="u" horiz-adv-x="1144" 
d="M571 -25q-97 0 -177 26t-142 78.5t-96.5 138t-34.5 196.5v559h217v-512q0 -279 233 -279q234 0 234 279v512h217v-559q0 -111 -34.5 -196.5t-96.5 -138t-142.5 -78.5t-177.5 -26z" />
    <glyph glyph-name="v" unicode="v" horiz-adv-x="1075" 
d="M813 973h238l-400 -973h-229l-399 973h237l275 -711z" />
    <glyph glyph-name="w" unicode="w" horiz-adv-x="1662" 
d="M1407 973h235l-352 -973h-231l-225 694l-228 -694h-231l-352 973h235l234 -707l229 707h223l230 -707z" />
    <glyph glyph-name="x" unicode="x" horiz-adv-x="960" 
d="M954 0h-256l-221 328l-219 -328h-254l346 516l-307 457h254l192 -287l195 287h252l-320 -475z" />
    <glyph glyph-name="y" unicode="y" horiz-adv-x="1073" 
d="M813 973h236l-611 -1491h-217l205 504l-403 987h235l277 -709z" />
    <glyph glyph-name="z" unicode="z" horiz-adv-x="907" 
d="M842 973v-199l-484 -565h484v-209h-776v205l485 559h-485v209h776z" />
    <glyph glyph-name="braceleft" unicode="{" horiz-adv-x="761" 
d="M29 647q126 5 183.5 62t57.5 180v364q0 120 67 190t177 70h199v-194h-101q-58 0 -84 -35t-26 -106v-318q0 -121 -62.5 -202.5t-187.5 -108.5q125 -27 187.5 -108t62.5 -201v-318q0 -72 25.5 -107.5t84.5 -35.5h101v-195h-199q-110 0 -177 70t-67 192v363q0 122 -57 178.5
t-184 61.5v198z" />
    <glyph glyph-name="bar" unicode="|" horiz-adv-x="563" 
d="M170 1516h221v-1803h-221v1803z" />
    <glyph glyph-name="braceright" unicode="}" horiz-adv-x="761" 
d="M733 449q-126 -5 -182.5 -61t-56.5 -179v-363q0 -121 -68 -191.5t-178 -70.5h-197v195h101q57 0 82.5 35.5t25.5 107.5v318q0 120 62.5 201t187.5 108q-125 27 -187.5 108.5t-62.5 202.5v318q0 71 -25.5 106t-82.5 35h-101v194h197q110 0 178 -70t68 -190v-364
q0 -123 56.5 -180.5t182.5 -61.5v-198z" />
    <glyph glyph-name="asciitilde" unicode="~" horiz-adv-x="1349" 
d="M160 526q0 154 80 242t225 88q81 0 158.5 -24.5t142.5 -49t115 -24.5q137 0 137 137h182q0 -153 -80.5 -241.5t-222.5 -88.5q-66 0 -130 15.5t-105.5 34t-91 34t-89.5 15.5q-139 0 -139 -138h-182z" />
    <glyph glyph-name="uni00A0" unicode="&#xa0;" horiz-adv-x="550" 
 />
    <glyph glyph-name="exclamdown" unicode="&#xa1;" horiz-adv-x="555" 
d="M276 856q-59 0 -99 39.5t-40 99.5t40 101t99 41q60 0 101 -41t41 -101t-41 -99.5t-101 -39.5zM162 117l51 555h129l51 -555v-510h-231v510z" />
    <glyph glyph-name="cent" unicode="&#xa2;" horiz-adv-x="1101" 
d="M1032 492q-57 -90 -148.5 -150.5t-199.5 -79.5v-262h-188v264q-180 34 -298 174.5t-118 325.5q0 186 118 326t298 174v252h188v-252q107 -19 196 -76.5t148 -145.5l-184 -108q-42 61 -107.5 95t-142.5 34q-124 0 -208.5 -87.5t-84.5 -211.5q0 -125 84.5 -213t208.5 -88
q81 0 147.5 36t108.5 101z" />
    <glyph glyph-name="sterling" unicode="&#xa3;" horiz-adv-x="1232" 
d="M565 565q0 -193 -168 -344h736v-221h-1051v193q129 78 189.5 167t60.5 201q0 25 -2 37h-234v201h180q-27 70 -38.5 102t-25 94t-13.5 117q0 191 130 310.5t339 119.5q201 0 328.5 -116t158.5 -326h-221q-22 110 -91.5 169.5t-176.5 59.5t-170.5 -61t-63.5 -168
q0 -29 4.5 -58.5t14.5 -64t17.5 -56t23.5 -63.5t22 -59h471v-201h-422q2 -10 2 -33z" />
    <glyph glyph-name="currency" unicode="&#xa4;" horiz-adv-x="1374" 
d="M1169 741q0 -149 -82 -274l179 -178l-131 -131l-177 176q-132 -92 -292 -92q-146 0 -269 77l-159 -161l-129 131l153 153q-98 135 -98 299q0 166 96 295l-151 152l127 131l155 -158q125 80 275 80q165 0 299 -94l172 172l129 -131l-176 -176q79 -121 79 -271zM666 451
q121 0 201.5 85t80.5 205t-80.5 205.5t-201.5 85.5q-120 0 -201.5 -85.5t-81.5 -205.5t81.5 -205t201.5 -85z" />
    <glyph glyph-name="yen" unicode="&#xa5;" horiz-adv-x="1447" 
d="M1395 1516l-437 -666h302v-166h-410l-8 -12v-168h418v-166h-418v-338h-232v338h-450v166h450v166l-10 14h-440v166h332l-437 666h271l399 -617l399 617h271z" />
    <glyph glyph-name="brokenbar" unicode="&#xa6;" horiz-adv-x="565" 
d="M170 1516h223v-717h-223v717zM170 430h223v-717h-223v717z" />
    <glyph glyph-name="section" unicode="&#xa7;" horiz-adv-x="1169" 
d="M1077 549q0 -190 -176 -295q119 -92 119 -250q0 -154 -116.5 -261.5t-305.5 -107.5q-112 0 -202 35.5t-147 96t-87.5 138.5t-30.5 165h223q0 -94 62.5 -157t171.5 -63q101 0 156 44t55 120q0 61 -38 108t-132 91l-297 139q-127 60 -186.5 143t-59.5 199q0 196 184 295
q-33 34 -52 90t-19 121q0 139 107.5 237.5t283.5 98.5q189 0 306.5 -107.5t117.5 -275.5h-217q-3 82 -57 124t-142 42q-86 0 -133 -35.5t-47 -101.5q0 -101 108 -152l312 -145q125 -60 182 -140.5t57 -195.5zM856 539q0 108 -96 155l-359 168q-92 -59 -92 -160
q0 -57 24.5 -95t78.5 -64l350 -164q94 56 94 160z" />
    <glyph glyph-name="dieresis" unicode="&#xa8;" horiz-adv-x="974" 
d="M270 1171q-60 0 -100.5 40.5t-40.5 101.5q0 60 40.5 99.5t100.5 39.5t101 -39.5t41 -99.5q0 -61 -41 -101.5t-101 -40.5zM705 1171q-60 0 -101 40.5t-41 101.5q0 60 41 99.5t101 39.5q62 0 102.5 -39.5t40.5 -99.5q0 -61 -40.5 -101.5t-102.5 -40.5z" />
    <glyph glyph-name="copyright" unicode="&#xa9;" horiz-adv-x="1734" 
d="M868 -27q-162 0 -306.5 61t-249 165t-165.5 249.5t-61 307.5q0 160 59 304.5t161.5 250.5t249 168.5t312.5 62.5t312 -62.5t249 -168.5t162.5 -250.5t59.5 -304.5q0 -162 -61 -307.5t-165.5 -249.5t-249.5 -165t-307 -61zM868 129q173 0 315.5 82t224 225.5t81.5 317.5
q0 173 -79.5 317.5t-222.5 229.5t-319 85q-133 0 -249.5 -50t-198 -135t-128 -201.5t-46.5 -245.5q0 -175 81 -318t224 -225t317 -82zM881 301q-196 0 -331.5 134t-135.5 325q0 192 136 324.5t331 132.5q122 0 223.5 -54.5t165.5 -148.5l-137 -92q-88 127 -246 127
q-120 0 -202.5 -85.5t-82.5 -203.5q0 -121 82 -206t203 -85q159 0 252 135l135 -96q-66 -97 -168 -152t-225 -55z" />
    <glyph glyph-name="ordfeminine" unicode="&#xaa;" horiz-adv-x="917" 
d="M629 909q-68 -94 -211 -94q-154 0 -250 101t-96 247t96 248t250 102q143 0 211 -96v82h164v-665h-164v75zM428 971q88 0 138 54.5t50 137.5q0 86 -50 139.5t-138 53.5q-87 0 -134.5 -54.5t-47.5 -138.5q0 -85 47.5 -138.5t134.5 -53.5z" />
    <glyph glyph-name="guillemotleft" unicode="&#xab;" horiz-adv-x="1091" 
d="M74 494l260 385h233l-254 -385l258 -390h-237zM508 494l260 385h233l-253 -385l258 -390h-238z" />
    <glyph glyph-name="logicalnot" unicode="&#xac;" horiz-adv-x="1380" 
d="M1239 813v-584h-215v375h-903v209h1118z" />
    <glyph glyph-name="uni00AD" unicode="&#xad;" horiz-adv-x="845" 
d="M119 674h608v-207h-608v207z" />
    <glyph glyph-name="registered" unicode="&#xae;" horiz-adv-x="1734" 
d="M868 1542q166 0 312 -62.5t249 -168.5t162.5 -250.5t59.5 -304.5q0 -162 -61 -307.5t-165.5 -249.5t-249.5 -165t-307 -61t-306.5 61t-249 165t-165.5 249.5t-61 307.5q0 160 59 304.5t161.5 250.5t249 168.5t312.5 62.5zM868 129q173 0 315.5 82t224 225.5t81.5 317.5
q0 173 -79.5 317.5t-222.5 229.5t-319 85q-133 0 -249.5 -50t-198 -135t-128 -201.5t-46.5 -245.5q0 -175 81 -318t224 -225t317 -82zM1212 924q0 -87 -44.5 -149.5t-127.5 -90.5l189 -338h-189l-170 318h-112v-318h-180v840h325q147 0 228 -71t81 -191zM758 1026v-219h135
q66 0 99.5 28.5t33.5 79.5q0 111 -133 111h-135z" />
    <glyph glyph-name="macron" unicode="&#xaf;" horiz-adv-x="921" 
d="M123 1411h676v-199h-676v199z" />
    <glyph glyph-name="degree" unicode="&#xb0;" horiz-adv-x="753" 
d="M684 1229q0 -127 -90 -217t-217 -90t-217 90t-90 217t90 217t217 90t217 -90t90 -217zM535 1229q0 67 -46.5 113.5t-111.5 46.5q-66 0 -112 -46.5t-46 -113.5t46 -113.5t112 -46.5q65 0 111.5 46.5t46.5 113.5z" />
    <glyph glyph-name="plusminus" unicode="&#xb1;" horiz-adv-x="1380" 
d="M580 770h-449v209h449v375h215v-375h454v-209h-454v-375h-215v375zM131 274h1118v-208h-1118v208z" />
    <glyph glyph-name="uni00B2" unicode="&#xb2;" horiz-adv-x="831" 
d="M109 750l319 299q60 57 87.5 103.5t27.5 98.5q0 55 -33.5 92t-97.5 37q-66 0 -101 -40t-37 -107h-170q0 137 88 217t226 80t219.5 -77.5t81.5 -192.5q0 -80 -39.5 -153.5t-126.5 -154.5l-207 -192h369v-154h-606v144z" />
    <glyph glyph-name="uni00B3" unicode="&#xb3;" horiz-adv-x="817" 
d="M399 575q-150 0 -241.5 89.5t-91.5 234.5h163q0 -73 46 -118.5t118 -45.5q73 0 115.5 39.5t42.5 104.5t-43 104t-115 39h-37v143h35q62 0 100.5 32t38.5 83q0 46 -31.5 75t-82.5 29q-55 0 -87 -33t-32 -87h-168q0 118 81 192t212 74q124 0 203.5 -65.5t79.5 -168.5
q0 -71 -40 -126t-110 -78q83 -28 128.5 -88.5t45.5 -145.5q0 -122 -94 -202.5t-236 -80.5z" />
    <glyph glyph-name="acute" unicode="&#xb4;" horiz-adv-x="800" 
d="M121 1280l471 227l86 -186l-477 -213z" />
    <glyph glyph-name="paragraph" unicode="&#xb6;" horiz-adv-x="1495" 
d="M1010 1337h-232v-1732h-190v921q-239 24 -386 153.5t-147 338.5q0 76 20.5 147.5t64 135.5t106.5 111.5t154 75.5t200 28h823v-179h-223v-1732h-190v1732zM588 1341q-175 0 -262.5 -87.5t-87.5 -221.5q0 -87 35.5 -157.5t116.5 -118.5t198 -56v641z" />
    <glyph glyph-name="periodcentered" unicode="&#xb7;" horiz-adv-x="483" 
d="M242 381q-59 0 -99.5 40t-40.5 101q0 58 41 99t99 41t98.5 -40.5t40.5 -99.5q0 -61 -40 -101t-99 -40z" />
    <glyph glyph-name="cedilla" unicode="&#xb8;" horiz-adv-x="724" 
d="M348 -514q-137 0 -225 88l94 111q19 -26 53.5 -43t69.5 -17q92 0 92 70q0 36 -23.5 57t-68.5 21h-154l88 252h146l-45 -123h24q88 0 145.5 -55t57.5 -146q0 -95 -69 -155t-185 -60z" />
    <glyph glyph-name="uni00B9" unicode="&#xb9;" horiz-adv-x="518" 
d="M215 1362h-182v154h354v-910h-172v756z" />
    <glyph glyph-name="ordmasculine" unicode="&#xba;" horiz-adv-x="849" 
d="M782 1167q0 -146 -103 -248t-253 -102q-148 0 -252 100t-104 246t102.5 250.5t253.5 104.5q148 0 252 -102t104 -249zM428 985q77 0 127.5 53t50.5 129t-51 129.5t-129 53.5q-80 0 -131 -53.5t-51 -131.5q0 -76 52.5 -128t131.5 -52z" />
    <glyph glyph-name="guillemotright" unicode="&#xbb;" horiz-adv-x="1091" 
d="M344 494l-254 385h234l260 -385l-260 -390h-238zM778 494l-254 385h234l260 -385l-260 -390h-238z" />
    <glyph glyph-name="onequarter" unicode="&#xbc;" horiz-adv-x="1564" 
d="M240 1362h-183v154h355v-910h-172v756zM1083 1516h174l-831 -1516h-174zM1206 141h-426v138l406 610h182v-600h119v-148h-119v-141h-162v141zM963 289h243v385z" />
    <glyph glyph-name="onehalf" unicode="&#xbd;" horiz-adv-x="1679" 
d="M240 1362h-183v154h355v-910h-172v756zM1081 1516h174l-831 -1516h-174zM983 143l320 299q114 106 114 203q0 55 -33.5 92t-97.5 37q-65 0 -100 -40t-37 -107h-170q0 137 87.5 217t225.5 80t219.5 -78t81.5 -193q0 -80 -39.5 -153t-126.5 -154l-206 -192h368v-154h-606
v143z" />
    <glyph glyph-name="threequarters" unicode="&#xbe;" horiz-adv-x="1771" 
d="M397 575q-152 0 -243 89.5t-91 234.5h164q0 -73 46 -118.5t118 -45.5q73 0 114.5 39.5t41.5 104.5t-43 104t-115 39h-35v143h35q60 0 99.5 32t39.5 83q0 46 -32 75t-84 29q-54 0 -85.5 -33t-31.5 -87h-170q0 118 82 192t211 74q126 0 205 -65.5t79 -168.5
q0 -71 -39.5 -126t-109.5 -78q83 -28 128.5 -88.5t45.5 -145.5q0 -121 -94.5 -202t-235.5 -81zM1298 1516h175l-832 -1516h-174zM1423 141h-426v138l406 610h182v-600h119v-148h-119v-141h-162v141zM1180 289h243v385z" />
    <glyph glyph-name="questiondown" unicode="&#xbf;" horiz-adv-x="1024" 
d="M608 854q-59 0 -99 39.5t-40 97.5q0 61 40 101.5t99 40.5t99.5 -40.5t40.5 -101.5q0 -58 -40.5 -97.5t-99.5 -39.5zM504 -422q-197 0 -316.5 114.5t-119.5 301.5q0 79 23 142.5t60.5 104.5t82 75t89.5 62.5t82.5 57t60.5 67.5t23 87v84h232v-101q0 -72 -23.5 -129
t-60.5 -94t-82 -67.5t-90 -58t-82 -56.5t-60.5 -71.5t-23.5 -96.5q0 -95 57.5 -151t159.5 -56q104 0 169 69t65 181h213q0 -204 -129.5 -334.5t-329.5 -130.5z" />
    <glyph glyph-name="Agrave" unicode="&#xc0;" horiz-adv-x="1488" 
d="M1014 1829l-80 -172l-477 213l84 186zM1227 0l-137 348h-691l-135 -348h-250l613 1516h237l613 -1516h-250zM745 1221l-260 -652h519z" />
    <glyph glyph-name="Aacute" unicode="&#xc1;" horiz-adv-x="1488" 
d="M1014 1870l-479 -213l-78 172l471 227zM1227 0l-137 348h-691l-135 -348h-250l613 1516h237l613 -1516h-250zM745 1221l-260 -652h519z" />
    <glyph glyph-name="Acircumflex" unicode="&#xc2;" horiz-adv-x="1488" 
d="M735 1843l-274 -186l-103 155l342 244h70l342 -244l-104 -155zM1227 0l-137 348h-691l-135 -348h-250l613 1516h237l613 -1516h-250zM745 1221l-260 -652h519z" />
    <glyph glyph-name="Atilde" unicode="&#xc3;" horiz-adv-x="1488" 
d="M590 1827q-86 0 -86 -103h-164q0 133 61.5 208t176.5 75q60 0 120 -25.5t108.5 -51t80.5 -25.5q40 0 60 23t20 77h163q0 -130 -61.5 -205.5t-169.5 -75.5q-62 0 -123.5 26t-109 51.5t-76.5 25.5zM1227 0l-137 348h-691l-135 -348h-250l613 1516h237l613 -1516h-250z
M745 1221l-260 -652h519z" />
    <glyph glyph-name="Adieresis" unicode="&#xc4;" horiz-adv-x="1488" 
d="M500 1710q-65 0 -109.5 44t-44.5 108t44.5 107.5t109.5 43.5t109 -43.5t44 -107.5t-44 -108t-109 -44zM969 1710q-65 0 -108.5 44t-43.5 108t43.5 107.5t108.5 43.5q66 0 109.5 -43t43.5 -108t-43.5 -108.5t-109.5 -43.5zM1227 0l-137 348h-691l-135 -348h-250l613 1516
h237l613 -1516h-250zM745 1221l-260 -652h519z" />
    <glyph glyph-name="Aring" unicode="&#xc5;" horiz-adv-x="1488" 
d="M735 1581q-108 0 -179 68.5t-71 169.5q0 99 71 168t179 69t179 -69t71 -168q0 -101 -71 -169.5t-179 -68.5zM735 1921q-46 0 -75 -29t-29 -73q0 -43 29 -73t75 -30t75.5 30.5t29.5 72.5q0 43 -29 72.5t-76 29.5zM1227 0l-137 348h-691l-135 -348h-250l613 1516h237
l613 -1516h-250zM745 1221l-260 -652h519z" />
    <glyph glyph-name="AE" unicode="&#xc6;" horiz-adv-x="2074" 
d="M1991 1294h-703v-393h565v-221h-565v-459h703v-221h-934v358h-600l-221 -358h-263l951 1516h1067v-222zM594 580h463v741z" />
    <glyph glyph-name="Ccedilla" unicode="&#xc7;" horiz-adv-x="1464" 
d="M872 -27h-8l-24 -71h24q88 0 144.5 -55t56.5 -146q0 -95 -69 -155t-185 -60q-137 0 -225 88l96 111q19 -26 53.5 -43t69.5 -17q90 0 90 70q0 36 -23.5 57t-68.5 21h-154l76 215q-183 33 -330 140.5t-231 272t-84 355.5q0 214 103 394t285 286t402 106q167 0 313.5 -63
t254.5 -176l-148 -160q-163 186 -420 186q-155 0 -283.5 -79t-201 -211t-72.5 -285q0 -154 74 -284.5t202.5 -207t282.5 -76.5q113 0 220.5 47t185.5 125l139 -161q-110 -105 -249.5 -164.5t-295.5 -59.5z" />
    <glyph glyph-name="Egrave" unicode="&#xc8;" horiz-adv-x="1198" 
d="M379 1870l86 186l471 -227l-80 -172zM178 0v1516h934v-222h-702v-393h567v-221h-567v-459h702v-221h-934z" />
    <glyph glyph-name="Eacute" unicode="&#xc9;" horiz-adv-x="1198" 
d="M459 1657l-80 172l473 227l84 -186zM178 0v1516h934v-222h-702v-393h567v-221h-567v-459h702v-221h-934z" />
    <glyph glyph-name="Ecircumflex" unicode="&#xca;" horiz-adv-x="1198" 
d="M659 1843l-274 -186l-104 155l342 244h71l342 -244l-104 -155zM1112 1294h-702v-393h567v-221h-567v-459h702v-221h-934v1516h934v-222z" />
    <glyph glyph-name="Edieresis" unicode="&#xcb;" horiz-adv-x="1198" 
d="M424 1710q-65 0 -109.5 44t-44.5 108t44.5 107.5t109.5 43.5t109.5 -43.5t44.5 -107.5t-44.5 -108t-109.5 -44zM893 1710q-65 0 -109.5 44t-44.5 108t44.5 107.5t109.5 43.5t109.5 -43.5t44.5 -107.5t-44.5 -108t-109.5 -44zM178 0v1516h934v-222h-702v-393h567v-221
h-567v-459h702v-221h-934z" />
    <glyph glyph-name="Igrave" unicode="&#xcc;" horiz-adv-x="593" 
d="M18 1870l84 186l471 -227l-77 -172zM184 0v1516h232v-1516h-232z" />
    <glyph glyph-name="Iacute" unicode="&#xcd;" horiz-adv-x="593" 
d="M96 1657l-78 172l471 227l84 -186zM184 0v1516h232v-1516h-232z" />
    <glyph glyph-name="Icircumflex" unicode="&#xce;" horiz-adv-x="589" 
d="M330 2056l342 -244l-103 -155l-274 186l-272 -186l-105 155l342 244h70zM182 0v1516h232v-1516h-232z" />
    <glyph glyph-name="Idieresis" unicode="&#xcf;" horiz-adv-x="602" 
d="M66 1710q-65 0 -109.5 44t-44.5 108t44.5 107.5t109.5 43.5t109 -43.5t44 -107.5t-44 -108t-109 -44zM535 1710q-65 0 -109.5 44t-44.5 108t44.5 107.5t109.5 43.5t109 -43.5t44 -107.5t-44 -108t-109 -44zM186 0v1516h232v-1516h-232z" />
    <glyph glyph-name="Eth" unicode="&#xd0;" horiz-adv-x="1525" 
d="M629 1516q239 0 423 -90t288 -263t104 -405t-104 -405t-288 -263t-423 -90h-426v668h-170v196h170v652h426zM625 221q125 0 229 31.5t185.5 94.5t127 168t45.5 243q0 111 -30 201t-83 151.5t-127.5 103.5t-161 61t-185.5 19h-191v-430h363v-196h-363v-447h191z" />
    <glyph glyph-name="Ntilde" unicode="&#xd1;" horiz-adv-x="1712" 
d="M752 1827q-84 0 -84 -103h-166q0 132 61.5 207.5t175.5 75.5q60 0 120.5 -25.5t109.5 -51t80 -25.5q40 0 59.5 23t19.5 77h164q0 -130 -61.5 -205.5t-169.5 -75.5q-62 0 -123 26t-108.5 51.5t-77.5 25.5zM1305 1516h229v-1516h-246l-878 1214v-1214h-232v1516h295
l832 -1149v1149z" />
    <glyph glyph-name="Ograve" unicode="&#xd2;" horiz-adv-x="1746" 
d="M582 1870l86 186l471 -227l-80 -172zM872 -27q-162 0 -308.5 61t-252.5 165t-168.5 249.5t-62.5 307.5q0 160 61 305t165.5 250.5t252 168t313.5 62.5t314 -62.5t252.5 -168t165.5 -250.5t61 -305q0 -216 -106.5 -396.5t-288.5 -283.5t-398 -103zM872 186q115 0 219 45
t178.5 121.5t118.5 181.5t44 220q0 153 -72 285t-201.5 211t-286.5 79q-156 0 -285 -79t-201.5 -211t-72.5 -285q0 -154 74 -284.5t202.5 -207t282.5 -76.5z" />
    <glyph glyph-name="Oacute" unicode="&#xd3;" horiz-adv-x="1746" 
d="M662 1657l-80 172l473 227l84 -186zM872 -27q-162 0 -308.5 61t-252.5 165t-168.5 249.5t-62.5 307.5q0 160 61 305t165.5 250.5t252 168t313.5 62.5t314 -62.5t252.5 -168t165.5 -250.5t61 -305q0 -216 -106.5 -396.5t-288.5 -283.5t-398 -103zM872 186q115 0 219 45
t178.5 121.5t118.5 181.5t44 220q0 153 -72 285t-201.5 211t-286.5 79q-156 0 -285 -79t-201.5 -211t-72.5 -285q0 -154 74 -284.5t202.5 -207t282.5 -76.5z" />
    <glyph glyph-name="Ocircumflex" unicode="&#xd4;" horiz-adv-x="1746" 
d="M862 1843l-274 -186l-105 155l342 244h72l342 -244l-104 -155zM872 1542q166 0 314 -62.5t252.5 -168t165.5 -250.5t61 -305q0 -216 -106.5 -396.5t-288.5 -283.5t-398 -103q-162 0 -308.5 61t-252.5 165t-168.5 249.5t-62.5 307.5q0 160 61 305t165.5 250.5t252 168
t313.5 62.5zM872 186q115 0 219 45t178.5 121.5t118.5 181.5t44 220q0 153 -72 285t-201.5 211t-286.5 79q-156 0 -285 -79t-201.5 -211t-72.5 -285q0 -154 74 -284.5t202.5 -207t282.5 -76.5z" />
    <glyph glyph-name="Otilde" unicode="&#xd5;" horiz-adv-x="1746" 
d="M465 1724q0 132 62.5 207.5t177.5 75.5q60 0 120 -25.5t108 -51t79 -25.5q41 0 60.5 23t19.5 77h165q0 -129 -62 -205t-169 -76q-63 0 -124.5 26t-109 51.5t-77.5 25.5q-84 0 -84 -103h-166zM872 -27q-162 0 -308.5 61t-252.5 165t-168.5 249.5t-62.5 307.5q0 160 61 305
t165.5 250.5t252 168t313.5 62.5t314 -62.5t252.5 -168t165.5 -250.5t61 -305q0 -216 -106.5 -396.5t-288.5 -283.5t-398 -103zM872 186q115 0 219 45t178.5 121.5t118.5 181.5t44 220q0 153 -72 285t-201.5 211t-286.5 79q-156 0 -285 -79t-201.5 -211t-72.5 -285
q0 -154 74 -284.5t202.5 -207t282.5 -76.5z" />
    <glyph glyph-name="Odieresis" unicode="&#xd6;" horiz-adv-x="1746" 
d="M627 1710q-65 0 -109.5 44t-44.5 108t44.5 107.5t109.5 43.5t109 -43.5t44 -107.5t-44 -108t-109 -44zM1096 1710q-65 0 -109.5 44t-44.5 108t44.5 107.5t109.5 43.5t109 -43.5t44 -107.5t-44 -108t-109 -44zM872 -27q-162 0 -308.5 61t-252.5 165t-168.5 249.5
t-62.5 307.5q0 160 61 305t165.5 250.5t252 168t313.5 62.5t314 -62.5t252.5 -168t165.5 -250.5t61 -305q0 -216 -106.5 -396.5t-288.5 -283.5t-398 -103zM872 186q115 0 219 45t178.5 121.5t118.5 181.5t44 220q0 153 -72 285t-201.5 211t-286.5 79q-156 0 -285 -79
t-201.5 -211t-72.5 -285q0 -154 74 -284.5t202.5 -207t282.5 -76.5z" />
    <glyph glyph-name="multiply" unicode="&#xd7;" horiz-adv-x="1357" 
d="M184 362l348 347l-348 346l148 147l346 -346l348 346l145 -147l-346 -346l346 -347l-147 -147l-346 346l-346 -346z" />
    <glyph glyph-name="Oslash" unicode="&#xd8;" horiz-adv-x="1789" 
d="M1532 1241q166 -212 166 -485q0 -216 -106 -396.5t-287.5 -283.5t-397.5 -103q-270 0 -483 160l-174 -174l-154 156l172 172q-153 209 -153 469q0 160 60.5 305t165 250.5t252.5 168t314 62.5q263 0 467 -149l164 163l154 -155zM348 754q0 -164 84 -303l785 784
q-140 94 -310 94q-118 0 -222.5 -46.5t-178 -125t-116 -183.5t-42.5 -220zM907 186q154 0 282.5 76.5t202.5 207t74 284.5q0 177 -96 325l-788 -788q143 -105 325 -105z" />
    <glyph glyph-name="Ugrave" unicode="&#xd9;" horiz-adv-x="1566" 
d="M524 1870l84 186l471 -227l-78 -172zM784 -27q-292 0 -459 178.5t-167 522.5v842h231v-771q0 -293 90.5 -426t304.5 -133q213 0 304.5 133t91.5 426v771h231v-842q0 -343 -168 -522t-459 -179z" />
    <glyph glyph-name="Uacute" unicode="&#xda;" horiz-adv-x="1566" 
d="M602 1657l-78 172l471 227l84 -186zM784 -27q-292 0 -459 178.5t-167 522.5v842h231v-771q0 -293 90.5 -426t304.5 -133q213 0 304.5 133t91.5 426v771h231v-842q0 -343 -168 -522t-459 -179z" />
    <glyph glyph-name="Ucircumflex" unicode="&#xdb;" horiz-adv-x="1566" 
d="M803 1843l-275 -186l-102 155l342 244h70l342 -244l-105 -155zM1180 1516h231v-842q0 -343 -168 -522t-459 -179q-292 0 -459 178.5t-167 522.5v842h231v-771q0 -293 90.5 -426t304.5 -133q213 0 304.5 133t91.5 426v771z" />
    <glyph glyph-name="Udieresis" unicode="&#xdc;" horiz-adv-x="1566" 
d="M567 1710q-65 0 -109 44t-44 108t44 107.5t109 43.5t109.5 -43.5t44.5 -107.5t-44.5 -108t-109.5 -44zM1036 1710q-65 0 -109 44t-44 108t44 107.5t109 43.5q66 0 110 -43t44 -108t-44 -108.5t-110 -43.5zM784 -27q-292 0 -459 178.5t-167 522.5v842h231v-771
q0 -293 90.5 -426t304.5 -133q213 0 304.5 133t91.5 426v771h231v-842q0 -343 -168 -522t-459 -179z" />
    <glyph glyph-name="Yacute" unicode="&#xdd;" horiz-adv-x="1402" 
d="M965 1870l-478 -213l-79 172l471 227zM1100 1516h270l-553 -844v-672h-231v670l-553 846h268l399 -619z" />
    <glyph glyph-name="Thorn" unicode="&#xde;" horiz-adv-x="1290" 
d="M643 1257q145 0 256.5 -37.5t180 -105t103 -155.5t34.5 -195t-34.5 -196.5t-103 -157.5t-180 -106t-256.5 -38h-233v-266h-232v1516h232v-259h233zM643 489q173 0 258.5 74t85.5 199t-85.5 199.5t-258.5 74.5h-233v-547h233z" />
    <glyph glyph-name="germandbls" unicode="&#xdf;" horiz-adv-x="1157" 
d="M805 829q134 -41 208 -145t74 -254q0 -218 -147.5 -324t-411.5 -106h-41v207h70q155 0 234 65t79 189q0 121 -74 192.5t-204 71.5h-105v197h72q109 0 168 58.5t59 149.5t-50.5 146t-149.5 55q-111 0 -171.5 -67.5t-60.5 -182.5v-1081h-217v1079q0 203 116.5 330
t334.5 127q193 0 304.5 -103.5t111.5 -273.5q0 -115 -55 -201t-144 -129z" />
    <glyph glyph-name="agrave" unicode="&#xe0;" horiz-adv-x="1236" 
d="M897 1280l-80 -172l-477 213l86 186zM883 973h217v-973h-217v100q-131 -118 -312 -118q-133 0 -248 66t-184 183t-69 256t69 255.5t184 182.5t248 66q179 0 312 -117v99zM586 186q124 0 210.5 88t86.5 213q0 124 -86.5 211.5t-210.5 87.5q-121 0 -208 -88t-87 -211
q0 -124 86.5 -212.5t208.5 -88.5z" />
    <glyph glyph-name="aacute" unicode="&#xe1;" horiz-adv-x="1236" 
d="M895 1321l-477 -213l-80 172l471 227zM883 973h217v-973h-217v100q-131 -118 -312 -118q-133 0 -248 66t-184 183t-69 256t69 255.5t184 182.5t248 66q179 0 312 -117v99zM586 186q124 0 210.5 88t86.5 213q0 124 -86.5 211.5t-210.5 87.5q-121 0 -208 -88t-87 -211
q0 -124 86.5 -212.5t208.5 -88.5z" />
    <glyph glyph-name="acircumflex" unicode="&#xe2;" horiz-adv-x="1236" 
d="M621 1294l-275 -186l-104 156l342 243h71l342 -243l-104 -156zM883 973h217v-973h-217v100q-131 -118 -312 -118q-133 0 -248 66t-184 183t-69 256t69 255.5t184 182.5t248 66q179 0 312 -117v99zM586 186q124 0 210.5 88t86.5 213q0 124 -86.5 211.5t-210.5 87.5
q-121 0 -208 -88t-87 -211q0 -124 86.5 -212.5t208.5 -88.5z" />
    <glyph glyph-name="atilde" unicode="&#xe3;" horiz-adv-x="1236" 
d="M473 1268q-84 0 -84 -103h-166q0 132 62 207.5t176 75.5q61 0 121.5 -25.5t108.5 -51t79 -25.5q41 0 60.5 23t19.5 77h166q0 -129 -62.5 -206t-169.5 -77q-63 0 -124.5 26.5t-109 52.5t-77.5 26zM883 973h217v-973h-217v100q-131 -118 -312 -118q-133 0 -248 66t-184 183
t-69 256t69 255.5t184 182.5t248 66q179 0 312 -117v99zM586 186q124 0 210.5 88t86.5 213q0 124 -86.5 211.5t-210.5 87.5q-121 0 -208 -88t-87 -211q0 -124 86.5 -212.5t208.5 -88.5z" />
    <glyph glyph-name="adieresis" unicode="&#xe4;" horiz-adv-x="1236" 
d="M393 1171q-60 0 -100.5 40.5t-40.5 101.5q0 60 40.5 99.5t100.5 39.5q62 0 103 -39.5t41 -99.5q0 -61 -41 -101.5t-103 -40.5zM829 1171q-60 0 -100.5 40.5t-40.5 101.5q0 60 40.5 99.5t100.5 39.5q61 0 102.5 -39.5t41.5 -99.5q0 -61 -41.5 -101.5t-102.5 -40.5z
M883 973h217v-973h-217v100q-131 -118 -312 -118q-133 0 -248 66t-184 183t-69 256t69 255.5t184 182.5t248 66q179 0 312 -117v99zM586 186q124 0 210.5 88t86.5 213q0 124 -86.5 211.5t-210.5 87.5q-121 0 -208 -88t-87 -211q0 -124 86.5 -212.5t208.5 -88.5z" />
    <glyph glyph-name="aring" unicode="&#xe5;" horiz-adv-x="1236" 
d="M592 1032q-108 0 -179 68.5t-71 169.5q0 99 71 168t179 69t179 -69t71 -168q0 -101 -71 -169.5t-179 -68.5zM592 1372q-46 0 -75.5 -30t-29.5 -72q0 -44 29.5 -73.5t75.5 -29.5t75 29.5t29 73.5q0 42 -29 72t-75 30zM883 973h217v-973h-217v100q-131 -118 -312 -118
q-133 0 -248 66t-184 183t-69 256t69 255.5t184 182.5t248 66q179 0 312 -117v99zM586 186q124 0 210.5 88t86.5 213q0 124 -86.5 211.5t-210.5 87.5q-121 0 -208 -88t-87 -211q0 -124 86.5 -212.5t208.5 -88.5z" />
    <glyph glyph-name="ae" unicode="&#xe6;" horiz-adv-x="1943" 
d="M1384 991q215 0 356.5 -145.5t141.5 -362.5q0 -21 -4 -67h-772q22 -109 101.5 -176.5t197.5 -67.5q83 0 151.5 31.5t110.5 87.5l150 -117q-145 -199 -406 -199q-199 0 -334 109v-84h-194v100q-131 -118 -312 -118q-133 0 -248 66t-184 183t-69 256t69 255.5t184 182.5
t248 66q179 0 312 -117v99h194v-90q130 108 307 108zM1110 575h553q-17 100 -91 159t-181 59q-103 0 -179.5 -58.5t-101.5 -159.5zM586 186q124 0 210.5 88t86.5 213q0 124 -86.5 211.5t-210.5 87.5q-121 0 -208 -88t-87 -211q0 -124 86.5 -212.5t208.5 -88.5z" />
    <glyph glyph-name="ccedilla" unicode="&#xe7;" horiz-adv-x="1060" 
d="M1022 211q-67 -105 -177.5 -168.5t-240.5 -67.5l-26 -73h26q88 0 144.5 -55t56.5 -146q0 -95 -69 -155t-185 -60q-137 0 -225 88l96 111q19 -26 52.5 -43t68.5 -17q92 0 92 70q0 36 -23.5 57t-68.5 21h-154l76 217q-172 39 -283.5 176.5t-111.5 316.5q0 139 68.5 256
t187 184.5t258.5 67.5q134 0 248 -61.5t184 -167.5l-185 -109q-87 129 -247 129q-124 0 -208.5 -87.5t-84.5 -211.5t85 -212.5t208 -88.5q79 0 146.5 37.5t107.5 102.5z" />
    <glyph glyph-name="egrave" unicode="&#xe8;" horiz-adv-x="1122" 
d="M860 1280l-80 -172l-477 213l86 186zM563 991q112 0 206 -39t157.5 -107t99 -161.5t35.5 -200.5q0 -21 -4 -67h-772q22 -109 101.5 -176.5t197.5 -67.5q83 0 151.5 31.5t110.5 87.5l149 -117q-145 -199 -405 -199q-97 0 -181 27.5t-145.5 75.5t-105.5 113t-66 140
t-22 156q0 133 62.5 248t176.5 185.5t254 70.5zM289 575h553q-15 102 -86 160t-187 58q-103 0 -179 -58.5t-101 -159.5z" />
    <glyph glyph-name="eacute" unicode="&#xe9;" horiz-adv-x="1122" 
d="M858 1321l-477 -213l-80 172l473 227zM563 991q112 0 206 -39t157.5 -107t99 -161.5t35.5 -200.5q0 -21 -4 -67h-772q22 -109 101.5 -176.5t197.5 -67.5q83 0 151.5 31.5t110.5 87.5l149 -117q-145 -199 -405 -199q-97 0 -181 27.5t-145.5 75.5t-105.5 113t-66 140
t-22 156q0 133 62.5 248t176.5 185.5t254 70.5zM289 575h553q-15 102 -86 160t-187 58q-103 0 -179 -58.5t-101 -159.5z" />
    <glyph glyph-name="ecircumflex" unicode="&#xea;" horiz-adv-x="1122" 
d="M584 1294l-275 -186l-104 156l342 243h71l343 -243l-105 -156zM563 991q112 0 206 -39t157.5 -107t99 -161.5t35.5 -200.5q0 -21 -4 -67h-772q22 -109 101.5 -176.5t197.5 -67.5q83 0 151.5 31.5t110.5 87.5l149 -117q-145 -199 -405 -199q-97 0 -181 27.5t-145.5 75.5
t-105.5 113t-66 140t-22 156q0 133 62.5 248t176.5 185.5t254 70.5zM289 575h553q-15 102 -86 160t-187 58q-103 0 -179 -58.5t-101 -159.5z" />
    <glyph glyph-name="edieresis" unicode="&#xeb;" horiz-adv-x="1122" 
d="M358 1171q-60 0 -100.5 40.5t-40.5 101.5q0 60 40.5 99.5t100.5 39.5t101 -39.5t41 -99.5q0 -61 -41 -101.5t-101 -40.5zM793 1171q-60 0 -101 40.5t-41 101.5q0 60 41 99.5t101 39.5q62 0 102.5 -39.5t40.5 -99.5q0 -61 -40.5 -101.5t-102.5 -40.5zM563 991
q112 0 206 -39t157.5 -107t99 -161.5t35.5 -200.5q0 -21 -4 -67h-772q22 -109 101.5 -176.5t197.5 -67.5q83 0 151.5 31.5t110.5 87.5l149 -117q-145 -199 -405 -199q-97 0 -181 27.5t-145.5 75.5t-105.5 113t-66 140t-22 156q0 133 62.5 248t176.5 185.5t254 70.5zM289 575
h553q-15 102 -86 160t-187 58q-103 0 -179 -58.5t-101 -159.5z" />
    <glyph glyph-name="igrave" unicode="&#xec;" horiz-adv-x="505" 
d="M-23 1321l86 186l472 -227l-80 -172zM127 973h217v-973h-217v973z" />
    <glyph glyph-name="iacute" unicode="&#xed;" horiz-adv-x="503" 
d="M-27 1280l473 227l84 -186l-477 -213zM125 973h217v-973h-217v973z" />
    <glyph glyph-name="icircumflex" unicode="&#xee;" horiz-adv-x="503" 
d="M291 1507l342 -243l-105 -156l-272 186l-274 -186l-105 156l342 243h72zM125 0v973h217v-973h-217z" />
    <glyph glyph-name="idieresis" unicode="&#xef;" horiz-adv-x="485" 
d="M20 1171q-60 0 -100.5 40.5t-40.5 101.5q0 60 40.5 99.5t100.5 39.5q62 0 103 -39.5t41 -99.5q0 -61 -41 -101.5t-103 -40.5zM457 1171q-60 0 -101 40.5t-41 101.5q0 60 41 99.5t101 39.5t101.5 -39.5t41.5 -99.5q0 -61 -41.5 -101.5t-101.5 -40.5zM117 973h217v-973
h-217v973z" />
    <glyph glyph-name="eth" unicode="&#xf0;" horiz-adv-x="1169" 
d="M1004 813q96 -167 96 -330q0 -138 -68 -254.5t-187 -185t-261 -68.5q-214 0 -364 149t-150 359q0 103 40 196.5t106.5 160t157.5 106t189 39.5q54 0 107 -16l-107 178l-235 -64l-47 179l184 49l-121 205h250l86 -148l219 59l47 -176l-172 -47zM584 182q126 0 210.5 88.5
t84.5 212.5q0 123 -84.5 211t-210.5 88q-124 0 -208.5 -88t-84.5 -211t84.5 -212t208.5 -89z" />
    <glyph glyph-name="ntilde" unicode="&#xf1;" horiz-adv-x="1157" 
d="M471 1268q-84 0 -84 -103h-166q0 132 62.5 207.5t177.5 75.5q60 0 120 -25.5t108 -51t79 -25.5q41 0 60.5 23t19.5 77h166q0 -129 -62.5 -206t-169.5 -77q-63 0 -124.5 26.5t-109 52.5t-77.5 26zM639 991q82 0 150.5 -24t124 -75t87 -139t31.5 -206v-547h-217v528
q0 125 -56.5 189.5t-166.5 64.5q-117 0 -177.5 -65.5t-60.5 -206.5v-510h-217v973h217v-94q104 112 285 112z" />
    <glyph glyph-name="ograve" unicode="&#xf2;" horiz-adv-x="1169" 
d="M311 1321l86 186l471 -227l-80 -172zM584 -25q-214 0 -364 149t-150 359q0 138 68 255t186.5 185t259.5 68q216 0 366 -148.5t150 -359.5q0 -138 -68 -254.5t-187 -185t-261 -68.5zM584 182q126 0 210.5 88.5t84.5 212.5q0 123 -84.5 211t-210.5 88q-124 0 -208.5 -88
t-84.5 -211t84.5 -212t208.5 -89z" />
    <glyph glyph-name="oacute" unicode="&#xf3;" horiz-adv-x="1169" 
d="M309 1280l471 227l86 -186l-477 -213zM584 -25q-214 0 -364 149t-150 359q0 138 68 255t186.5 185t259.5 68q216 0 366 -148.5t150 -359.5q0 -138 -68 -254.5t-187 -185t-261 -68.5zM584 182q126 0 210.5 88.5t84.5 212.5q0 123 -84.5 211t-210.5 88q-124 0 -208.5 -88
t-84.5 -211t84.5 -212t208.5 -89z" />
    <glyph glyph-name="ocircumflex" unicode="&#xf4;" horiz-adv-x="1169" 
d="M592 1294l-275 -186l-104 156l342 243h72l342 -243l-105 -156zM584 991q216 0 366 -148.5t150 -359.5q0 -138 -68 -254.5t-187 -185t-261 -68.5q-214 0 -364 149t-150 359q0 138 68 255t186.5 185t259.5 68zM584 182q126 0 210.5 88.5t84.5 212.5q0 123 -84.5 211
t-210.5 88q-124 0 -208.5 -88t-84.5 -211t84.5 -212t208.5 -89z" />
    <glyph glyph-name="otilde" unicode="&#xf5;" horiz-adv-x="1169" 
d="M195 1165q0 132 61.5 207.5t175.5 75.5q61 0 121.5 -25.5t108.5 -51t79 -25.5q41 0 60.5 23t19.5 77h166q0 -130 -62 -206.5t-169 -76.5q-63 0 -125 26.5t-109.5 52.5t-77.5 26q-84 0 -84 -103h-165zM584 -25q-214 0 -364 149t-150 359q0 138 68 255t186.5 185t259.5 68
q216 0 366 -148.5t150 -359.5q0 -138 -68 -254.5t-187 -185t-261 -68.5zM584 182q126 0 210.5 88.5t84.5 212.5q0 123 -84.5 211t-210.5 88q-124 0 -208.5 -88t-84.5 -211t84.5 -212t208.5 -89z" />
    <glyph glyph-name="odieresis" unicode="&#xf6;" horiz-adv-x="1169" 
d="M365 1171q-60 0 -101 40.5t-41 101.5q0 60 41 99.5t101 39.5q62 0 102.5 -39.5t40.5 -99.5q0 -61 -40.5 -101.5t-102.5 -40.5zM801 1171q-60 0 -101 40.5t-41 101.5q0 60 41 99.5t101 39.5t101.5 -39.5t41.5 -99.5q0 -61 -41.5 -101.5t-101.5 -40.5zM584 -25
q-214 0 -364 149t-150 359q0 138 68 255t186.5 185t259.5 68q216 0 366 -148.5t150 -359.5q0 -138 -68 -254.5t-187 -185t-261 -68.5zM584 182q126 0 210.5 88.5t84.5 212.5q0 123 -84.5 211t-210.5 88q-124 0 -208.5 -88t-84.5 -211t84.5 -212t208.5 -89z" />
    <glyph glyph-name="divide" unicode="&#xf7;" horiz-adv-x="1380" 
d="M692 1020q-60 0 -100.5 39.5t-40.5 99.5t40.5 99.5t100.5 39.5q59 0 99 -39.5t40 -99.5t-40 -99.5t-99 -39.5zM131 813h1118v-209h-1118v209zM692 119q-60 0 -100.5 39.5t-40.5 99.5t40.5 99.5t100.5 39.5q59 0 99 -39.5t40 -99.5t-40 -99.5t-99 -39.5z" />
    <glyph glyph-name="oslash" unicode="&#xf8;" horiz-adv-x="1234" 
d="M1165 903l-131 -131q90 -129 90 -289q0 -138 -67.5 -254.5t-186 -185t-260.5 -68.5q-158 0 -286 86l-129 -129l-136 138l127 127q-90 129 -90 286q0 104 40 198t108.5 162t164 108t201.5 40q157 0 287 -84l133 133zM315 483q0 -66 29 -129l397 398q-58 30 -131 30
q-126 0 -210.5 -88t-84.5 -211zM905 483q0 67 -28 131l-400 -399q64 -33 133 -33q126 0 210.5 88.5t84.5 212.5z" />
    <glyph glyph-name="ugrave" unicode="&#xf9;" horiz-adv-x="1144" 
d="M309 1321l86 186l471 -227l-80 -172zM571 -25q-97 0 -177 26t-142 78.5t-96.5 138t-34.5 196.5v559h217v-512q0 -279 233 -279q234 0 234 279v512h217v-559q0 -111 -34.5 -196.5t-96.5 -138t-142.5 -78.5t-177.5 -26z" />
    <glyph glyph-name="uacute" unicode="&#xfa;" horiz-adv-x="1144" 
d="M307 1280l471 227l86 -186l-477 -213zM571 -25q-97 0 -177 26t-142 78.5t-96.5 138t-34.5 196.5v559h217v-512q0 -279 233 -279q234 0 234 279v512h217v-559q0 -111 -34.5 -196.5t-96.5 -138t-142.5 -78.5t-177.5 -26z" />
    <glyph glyph-name="ucircumflex" unicode="&#xfb;" horiz-adv-x="1144" 
d="M590 1294l-275 -186l-104 156l342 243h72l340 -243l-103 -156zM805 973h217v-559q0 -111 -34.5 -196.5t-96.5 -138t-142.5 -78.5t-177.5 -26t-177 26t-142 78.5t-96.5 138t-34.5 196.5v559h217v-512q0 -279 233 -279q234 0 234 279v512z" />
    <glyph glyph-name="udieresis" unicode="&#xfc;" horiz-adv-x="1144" 
d="M362 1171q-60 0 -100.5 40.5t-40.5 101.5q0 60 40.5 99.5t100.5 39.5q62 0 103 -39.5t41 -99.5q0 -61 -41 -101.5t-103 -40.5zM799 1171q-60 0 -101 40.5t-41 101.5q0 60 41 99.5t101 39.5t100.5 -39.5t40.5 -99.5q0 -61 -40.5 -101.5t-100.5 -40.5zM571 -25
q-97 0 -177 26t-142 78.5t-96.5 138t-34.5 196.5v559h217v-512q0 -279 233 -279q234 0 234 279v512h217v-559q0 -111 -34.5 -196.5t-96.5 -138t-142.5 -78.5t-177.5 -26z" />
    <glyph glyph-name="yacute" unicode="&#xfd;" horiz-adv-x="1073" 
d="M813 1321l-477 -213l-80 172l473 227zM813 973h236l-611 -1491h-217l205 504l-403 987h235l277 -709z" />
    <glyph glyph-name="thorn" unicode="&#xfe;" horiz-adv-x="1239" 
d="M666 991q133 0 248 -66t184 -182.5t69 -255.5t-69 -256t-184 -183t-248 -66q-181 0 -312 118v-618h-217v2034h217v-642q133 117 312 117zM651 186q122 0 208.5 88.5t86.5 212.5q0 123 -87 211t-208 88q-124 0 -210.5 -87.5t-86.5 -211.5q0 -125 86.5 -213t210.5 -88z" />
    <glyph glyph-name="ydieresis" unicode="&#xff;" horiz-adv-x="1073" 
d="M313 1171q-60 0 -100.5 40.5t-40.5 101.5q0 60 40.5 99.5t100.5 39.5t101 -39.5t41 -99.5q0 -61 -41 -101.5t-101 -40.5zM750 1171q-60 0 -101 40.5t-41 101.5q0 60 41 99.5t101 39.5t100.5 -39.5t40.5 -99.5q0 -61 -40.5 -101.5t-100.5 -40.5zM813 973h236l-611 -1491
h-217l205 504l-403 987h235l277 -709z" />
    <glyph glyph-name="Amacron" unicode="&#x100;" horiz-adv-x="1488" 
d="M1073 1958v-199h-676v199h676zM1227 0l-137 348h-691l-135 -348h-250l613 1516h237l613 -1516h-250zM745 1221l-260 -652h519z" />
    <glyph glyph-name="amacron" unicode="&#x101;" horiz-adv-x="1236" 
d="M958 1411v-199h-677v199h677zM883 973h217v-973h-217v100q-131 -118 -312 -118q-133 0 -248 66t-184 183t-69 256t69 255.5t184 182.5t248 66q179 0 312 -117v99zM586 186q124 0 210.5 88t86.5 213q0 124 -86.5 211.5t-210.5 87.5q-121 0 -208 -88t-87 -211
q0 -124 86.5 -212.5t208.5 -88.5z" />
    <glyph glyph-name="Abreve" unicode="&#x102;" horiz-adv-x="1488" 
d="M725 1657q-159 0 -261 108.5t-102 274.5h187q0 -90 45.5 -140.5t130.5 -50.5t130.5 50.5t45.5 140.5h186q0 -167 -101.5 -275t-260.5 -108zM1227 0l-137 348h-691l-135 -348h-250l613 1516h237l613 -1516h-250zM745 1221l-260 -652h519z" />
    <glyph glyph-name="abreve" unicode="&#x103;" horiz-adv-x="1236" 
d="M618 1108q-159 0 -260.5 107.5t-101.5 275.5h186q0 -90 46 -140.5t130 -50.5q86 0 132.5 50.5t46.5 140.5h184q0 -168 -102 -275.5t-261 -107.5zM883 973h217v-973h-217v100q-131 -118 -312 -118q-133 0 -248 66t-184 183t-69 256t69 255.5t184 182.5t248 66
q179 0 312 -117v99zM586 186q124 0 210.5 88t86.5 213q0 124 -86.5 211.5t-210.5 87.5q-121 0 -208 -88t-87 -211q0 -124 86.5 -212.5t208.5 -88.5z" />
    <glyph glyph-name="Aogonek" unicode="&#x104;" horiz-adv-x="1511" 
d="M1325 -188q0 -97 96 -97q29 0 56 9v-146q-43 -14 -105 -14q-96 0 -156.5 49.5t-60.5 136.5q0 75 36.5 143t100.5 107h-65l-137 348h-691l-135 -348h-250l613 1516h237l613 -1516h-35q-117 -75 -117 -188zM745 1221l-260 -652h519z" />
    <glyph glyph-name="aogonek" unicode="&#x105;" horiz-adv-x="1241" 
d="M1047 -285q28 0 55 9v-146q-41 -14 -105 -14q-96 0 -156.5 49.5t-60.5 136.5q0 75 37.5 143t102.5 107h-37v100q-131 -118 -312 -118q-133 0 -248 66t-184 183t-69 256t69 255.5t184 182.5t248 66q179 0 312 -117v99h217v-973h-33q-117 -75 -117 -188q0 -97 97 -97z
M586 186q124 0 210.5 88t86.5 213q0 124 -86.5 211.5t-210.5 87.5q-121 0 -208 -88t-87 -211q0 -124 86.5 -212.5t208.5 -88.5z" />
    <glyph glyph-name="Cacute" unicode="&#x106;" horiz-adv-x="1464" 
d="M672 1657l-80 172l471 227l86 -186zM872 -27q-162 0 -308.5 61t-252.5 165t-168.5 249.5t-62.5 307.5q0 214 103 394t285 286t402 106q167 0 313.5 -63t254.5 -176l-148 -160q-163 186 -420 186q-155 0 -283.5 -79t-201 -211t-72.5 -285q0 -154 74 -284.5t202.5 -207
t282.5 -76.5q113 0 220.5 47t185.5 125l139 -161q-110 -105 -249.5 -164.5t-295.5 -59.5z" />
    <glyph glyph-name="cacute" unicode="&#x107;" horiz-adv-x="1060" 
d="M305 1280l473 227l84 -186l-477 -213zM584 -25q-140 0 -258.5 68t-187 185t-68.5 255q0 139 68.5 256t187 184.5t258.5 67.5q134 0 248 -61.5t184 -167.5l-185 -109q-87 129 -247 129q-124 0 -208.5 -87.5t-84.5 -211.5t85 -212.5t208 -88.5q79 0 146.5 37.5t107.5 102.5
l184 -111q-70 -109 -186 -172.5t-252 -63.5z" />
    <glyph glyph-name="Cdotaccent" unicode="&#x10a;" horiz-adv-x="1464" 
d="M870 1704q-67 0 -112 45t-45 113q0 66 45 110.5t112 44.5t112.5 -44.5t45.5 -110.5q0 -68 -45 -113t-113 -45zM872 -27q-162 0 -308.5 61t-252.5 165t-168.5 249.5t-62.5 307.5q0 214 103 394t285 286t402 106q167 0 313.5 -63t254.5 -176l-148 -160q-163 186 -420 186
q-155 0 -283.5 -79t-201 -211t-72.5 -285q0 -154 74 -284.5t202.5 -207t282.5 -76.5q113 0 220.5 47t185.5 125l139 -161q-110 -105 -249.5 -164.5t-295.5 -59.5z" />
    <glyph glyph-name="cdotaccent" unicode="&#x10b;" horiz-adv-x="1060" 
d="M594 1182q-60 0 -100.5 40t-40.5 101q0 60 40.5 99.5t100.5 39.5q59 0 99 -39.5t40 -99.5q0 -61 -40 -101t-99 -40zM584 -25q-140 0 -258.5 68t-187 185t-68.5 255q0 139 68.5 256t187 184.5t258.5 67.5q134 0 248 -61.5t184 -167.5l-185 -109q-87 129 -247 129
q-124 0 -208.5 -87.5t-84.5 -211.5t85 -212.5t208 -88.5q79 0 146.5 37.5t107.5 102.5l184 -111q-70 -109 -186 -172.5t-252 -63.5z" />
    <glyph glyph-name="Ccaron" unicode="&#x10c;" horiz-adv-x="1464" 
d="M905 1657h-69l-342 244l104 155l274 -186l273 186l102 -155zM872 186q113 0 220.5 47t185.5 125l139 -161q-110 -105 -249.5 -164.5t-295.5 -59.5q-162 0 -308.5 61t-252.5 165t-168.5 249.5t-62.5 307.5q0 214 103 394t285 286t402 106q167 0 313.5 -63t254.5 -176
l-148 -160q-163 186 -420 186q-155 0 -283.5 -79t-201 -211t-72.5 -285q0 -154 74 -284.5t202.5 -207t282.5 -76.5z" />
    <glyph glyph-name="ccaron" unicode="&#x10d;" horiz-adv-x="1060" 
d="M623 1108h-72l-342 244l104 155l275 -186l272 186l105 -155zM838 322l184 -111q-70 -109 -186 -172.5t-252 -63.5q-140 0 -258.5 68t-187 185t-68.5 255q0 139 68.5 256t187 184.5t258.5 67.5q134 0 248 -61.5t184 -167.5l-185 -109q-87 129 -247 129
q-124 0 -208.5 -87.5t-84.5 -211.5t85 -212.5t208 -88.5q79 0 146.5 37.5t107.5 102.5z" />
    <glyph glyph-name="Dcaron" unicode="&#x10e;" horiz-adv-x="1501" 
d="M737 1657h-69l-342 244l104 155l275 -186l272 186l102 -155zM604 1516q239 0 423 -90t288 -263t104 -405t-104 -405t-288 -263t-423 -90h-426v1516h426zM600 221q124 0 228 31.5t185.5 94.5t127 168t45.5 243q0 111 -30 201t-83 151.5t-127.5 103.5t-160.5 61t-185 19
h-190v-1073h190z" />
    <glyph glyph-name="dcaron" unicode="&#x10f;" horiz-adv-x="1273" 
d="M883 874v642h217v-1516h-217v100q-131 -118 -312 -118q-133 0 -248 66t-184 183t-69 256t69 255.5t184 182.5t248 66q179 0 312 -117zM1264 1516h196l-71 -484h-187zM586 186q124 0 210.5 88t86.5 213q0 124 -86.5 211.5t-210.5 87.5q-121 0 -208 -88t-87 -211
q0 -124 86.5 -212.5t208.5 -88.5z" />
    <glyph glyph-name="Dcroat" unicode="&#x110;" horiz-adv-x="1525" 
d="M629 1516q239 0 423 -90t288 -263t104 -405t-104 -405t-288 -263t-423 -90h-426v668h-170v196h170v652h426zM625 221q125 0 229 31.5t185.5 94.5t127 168t45.5 243q0 111 -30 201t-83 151.5t-127.5 103.5t-161 61t-185.5 19h-191v-430h363v-196h-363v-447h191z" />
    <glyph glyph-name="dcroat" unicode="&#x111;" horiz-adv-x="1267" 
d="M1296 1343v-198h-196v-1145h-217v100q-131 -118 -312 -118q-133 0 -248 66t-184 183t-69 256t69 255.5t184 182.5t248 66q179 0 312 -117v271h-351v198h351v173h217v-173h196zM586 186q124 0 210.5 88t86.5 213q0 124 -86.5 211.5t-210.5 87.5q-121 0 -208 -88t-87 -211
q0 -124 86.5 -212.5t208.5 -88.5z" />
    <glyph glyph-name="Emacron" unicode="&#x112;" horiz-adv-x="1198" 
d="M319 1958h678v-199h-678v199zM178 0v1516h934v-222h-702v-393h567v-221h-567v-459h702v-221h-934z" />
    <glyph glyph-name="emacron" unicode="&#x113;" horiz-adv-x="1122" 
d="M922 1411v-199h-678v199h678zM563 991q112 0 206 -39t157.5 -107t99 -161.5t35.5 -200.5q0 -21 -4 -67h-772q22 -109 101.5 -176.5t197.5 -67.5q83 0 151.5 31.5t110.5 87.5l149 -117q-145 -199 -405 -199q-97 0 -181 27.5t-145.5 75.5t-105.5 113t-66 140t-22 156
q0 133 62.5 248t176.5 185.5t254 70.5zM289 575h553q-15 102 -86 160t-187 58q-103 0 -179 -58.5t-101 -159.5z" />
    <glyph glyph-name="Edotaccent" unicode="&#x116;" horiz-adv-x="1198" 
d="M657 1704q-66 0 -111.5 45.5t-45.5 112.5q0 66 45.5 110.5t111.5 44.5q68 0 114 -44.5t46 -110.5q0 -67 -46 -112.5t-114 -45.5zM178 0v1516h934v-222h-702v-393h567v-221h-567v-459h702v-221h-934z" />
    <glyph glyph-name="edotaccent" unicode="&#x117;" horiz-adv-x="1122" 
d="M590 1182q-60 0 -100.5 40t-40.5 101q0 60 40.5 99.5t100.5 39.5q59 0 99 -39.5t40 -99.5q0 -61 -40 -101t-99 -40zM563 991q112 0 206 -39t157.5 -107t99 -161.5t35.5 -200.5q0 -21 -4 -67h-772q22 -109 101.5 -176.5t197.5 -67.5q83 0 151.5 31.5t110.5 87.5l149 -117
q-145 -199 -405 -199q-97 0 -181 27.5t-145.5 75.5t-105.5 113t-66 140t-22 156q0 133 62.5 248t176.5 185.5t254 70.5zM289 575h553q-15 102 -86 160t-187 58q-103 0 -179 -58.5t-101 -159.5z" />
    <glyph glyph-name="Eogonek" unicode="&#x118;" horiz-adv-x="1198" 
d="M1112 1294h-702v-393h567v-221h-567v-459h702v-221h-41q-117 -75 -117 -188q0 -97 97 -97q28 0 55 9v-146q-41 -14 -105 -14q-96 0 -156.5 49.5t-60.5 136.5q0 75 37.5 143t102.5 107h-746v1516h934v-222z" />
    <glyph glyph-name="eogonek" unicode="&#x119;" horiz-adv-x="1122" 
d="M563 991q112 0 206 -39t157.5 -107t99 -161.5t35.5 -200.5q0 -21 -4 -67h-772q22 -109 101.5 -176.5t197.5 -67.5q83 0 151.5 31.5t110.5 87.5l149 -117q-80 -111 -200 -160q-113 -76 -113 -186q0 -96 96 -96q32 0 56 8v-146q-54 -14 -105 -14q-96 0 -156.5 50t-60.5 139
q0 120 86 206h-8q-97 0 -181 27.5t-145.5 75.5t-105.5 113t-66 140t-22 156q0 133 62.5 248t176.5 185.5t254 70.5zM289 575h553q-15 102 -86 160t-187 58q-103 0 -179 -58.5t-101 -159.5z" />
    <glyph glyph-name="Ecaron" unicode="&#x11a;" horiz-adv-x="1198" 
d="M694 1657h-71l-342 244l104 155l274 -186l273 186l104 -155zM1112 1294h-702v-393h567v-221h-567v-459h702v-221h-934v1516h934v-222z" />
    <glyph glyph-name="ecaron" unicode="&#x11b;" horiz-adv-x="1122" 
d="M618 1108h-71l-342 244l104 155l275 -186l272 186l105 -155zM563 991q112 0 206 -39t157.5 -107t99 -161.5t35.5 -200.5q0 -21 -4 -67h-772q22 -109 101.5 -176.5t197.5 -67.5q83 0 151.5 31.5t110.5 87.5l149 -117q-145 -199 -405 -199q-97 0 -181 27.5t-145.5 75.5
t-105.5 113t-66 140t-22 156q0 133 62.5 248t176.5 185.5t254 70.5zM289 575h553q-15 102 -86 160t-187 58q-103 0 -179 -58.5t-101 -159.5z" />
    <glyph glyph-name="Gbreve" unicode="&#x11e;" horiz-adv-x="1648" 
d="M848 1657q-159 0 -261 108.5t-102 274.5h187q0 -90 46 -140.5t130 -50.5q86 0 132 50.5t46 140.5h184q0 -167 -101.5 -275t-260.5 -108zM881 -27q-168 0 -317 60.5t-255 164.5t-167.5 248.5t-61.5 307.5q0 160 61 305.5t165 251.5t251.5 168.5t312.5 62.5q169 0 318 -64
t258 -178l-141 -157q-81 94 -193 140t-233 46q-161 0 -292 -79t-202.5 -210t-71.5 -286q0 -156 72 -286t203.5 -206t294.5 -76q204 0 333.5 123.5t129.5 329.5v4h-515v221h744v-151q0 -154 -45 -287t-130 -234.5t-218.5 -160t-300.5 -58.5z" />
    <glyph glyph-name="gbreve" unicode="&#x11f;" horiz-adv-x="1234" 
d="M618 1108q-159 0 -260.5 107.5t-101.5 275.5h186q0 -90 46 -140.5t130 -50.5q86 0 132.5 50.5t46.5 140.5h184q0 -168 -102 -275.5t-261 -107.5zM883 973h217v-967q0 -95 -18 -174t-47.5 -134t-71 -98t-85.5 -68.5t-95 -42t-95.5 -22.5t-89.5 -6q-151 0 -269 65t-188 177
l201 86q88 -119 256 -119q126 0 205.5 74t79.5 223v133q-131 -118 -312 -118q-133 0 -248 66t-184 183t-69 256t69 255.5t184 182.5t248 66q179 0 312 -117v99zM586 186q124 0 210.5 88t86.5 213q0 124 -86.5 211.5t-210.5 87.5q-121 0 -208 -88t-87 -211
q0 -124 86.5 -212.5t208.5 -88.5z" />
    <glyph glyph-name="Gdotaccent" unicode="&#x120;" horiz-adv-x="1648" 
d="M858 1704q-66 0 -112 45.5t-46 112.5q0 66 46 110.5t112 44.5q68 0 114 -44.5t46 -110.5q0 -67 -46 -112.5t-114 -45.5zM881 -27q-168 0 -317 60.5t-255 164.5t-167.5 248.5t-61.5 307.5q0 160 61 305.5t165 251.5t251.5 168.5t312.5 62.5q169 0 318 -64t258 -178
l-141 -157q-81 94 -193 140t-233 46q-161 0 -292 -79t-202.5 -210t-71.5 -286q0 -156 72 -286t203.5 -206t294.5 -76q204 0 333.5 123.5t129.5 329.5v4h-515v221h744v-151q0 -154 -45 -287t-130 -234.5t-218.5 -160t-300.5 -58.5z" />
    <glyph glyph-name="gdotaccent" unicode="&#x121;" horiz-adv-x="1234" 
d="M627 1182q-60 0 -101 40t-41 101q0 60 41 99.5t101 39.5q59 0 99 -39.5t40 -99.5q0 -61 -40 -101t-99 -40zM883 973h217v-967q0 -95 -18 -174t-47.5 -134t-71 -98t-85.5 -68.5t-95 -42t-95.5 -22.5t-89.5 -6q-151 0 -269 65t-188 177l201 86q88 -119 256 -119
q126 0 205.5 74t79.5 223v133q-131 -118 -312 -118q-133 0 -248 66t-184 183t-69 256t69 255.5t184 182.5t248 66q179 0 312 -117v99zM586 186q124 0 210.5 88t86.5 213q0 124 -86.5 211.5t-210.5 87.5q-121 0 -208 -88t-87 -211q0 -124 86.5 -212.5t208.5 -88.5z" />
    <glyph glyph-name="uni0122" unicode="&#x122;" horiz-adv-x="1648" 
d="M881 -27q-168 0 -317 60.5t-255 164.5t-167.5 248.5t-61.5 307.5q0 160 61 305.5t165 251.5t251.5 168.5t312.5 62.5q169 0 318 -64t258 -178l-141 -157q-81 94 -193 140t-233 46q-161 0 -292 -79t-202.5 -210t-71.5 -286q0 -156 72 -286t203.5 -206t294.5 -76
q204 0 333.5 123.5t129.5 329.5v4h-515v221h744v-151q0 -154 -45 -287t-130 -234.5t-218.5 -160t-300.5 -58.5zM725 -489q65 32 97 73t32 80q-12 -4 -33 -4q-41 0 -71.5 31t-30.5 76q0 50 36.5 84t90.5 34q59 0 96 -42t37 -115q0 -170 -201 -287z" />
    <glyph glyph-name="uni0123" unicode="&#x123;" horiz-adv-x="1234" 
d="M623 1120q-60 0 -97 42t-37 114q0 174 201 289l53 -70q-65 -32 -97 -73.5t-32 -80.5q15 5 33 5q40 0 71.5 -31.5t31.5 -75.5q0 -50 -36.5 -84.5t-90.5 -34.5zM883 973h217v-967q0 -95 -18 -174t-47.5 -134t-71 -98t-85.5 -68.5t-95 -42t-95.5 -22.5t-89.5 -6
q-151 0 -269 65t-188 177l201 86q88 -119 256 -119q126 0 205.5 74t79.5 223v133q-131 -118 -312 -118q-133 0 -248 66t-184 183t-69 256t69 255.5t184 182.5t248 66q179 0 312 -117v99zM586 186q124 0 210.5 88t86.5 213q0 124 -86.5 211.5t-210.5 87.5q-121 0 -208 -88
t-87 -211q0 -124 86.5 -212.5t208.5 -88.5z" />
    <glyph glyph-name="Hbar" unicode="&#x126;" horiz-adv-x="1644" 
d="M1606 1327v-199h-156v-1128h-231v686h-787v-686h-231v1128h-162v199h162v189h231v-189h787v189h231v-189h156zM1219 909v219h-787v-219h787z" />
    <glyph glyph-name="hbar" unicode="&#x127;" horiz-adv-x="1161" 
d="M643 991q82 0 150.5 -24t124.5 -75t88 -139t32 -206v-547h-217v528q0 124 -57.5 189t-167.5 65q-238 0 -238 -272v-510h-217v1145h-170v198h170v173h217v-173h375v-198h-375v-266q104 112 285 112z" />
    <glyph glyph-name="Itilde" unicode="&#x128;" horiz-adv-x="620" 
d="M-86 1724q0 132 62.5 207.5t177.5 75.5q60 0 120 -25.5t108 -51t79 -25.5q41 0 60.5 23t19.5 77h166q0 -129 -62.5 -205t-169.5 -76q-63 0 -124.5 26t-109 51.5t-77.5 25.5q-84 0 -84 -103h-166zM197 0v1516h231v-1516h-231z" />
    <glyph glyph-name="itilde" unicode="&#x129;" horiz-adv-x="532" 
d="M-125 1165q0 133 61.5 208t176.5 75q60 0 120 -25.5t108 -51t79 -25.5q41 0 60.5 23t19.5 77h166q0 -130 -62 -206.5t-170 -76.5q-62 0 -123.5 26.5t-109 52.5t-76.5 26q-86 0 -86 -103h-164zM141 973h217v-973h-217v973z" />
    <glyph glyph-name="Imacron" unicode="&#x12a;" horiz-adv-x="585" 
d="M-45 1958h676v-199h-676v199zM180 0v1516h232v-1516h-232z" />
    <glyph glyph-name="imacron" unicode="&#x12b;" horiz-adv-x="499" 
d="M-86 1411h678v-199h-678v199zM123 973h217v-973h-217v973z" />
    <glyph glyph-name="Iogonek" unicode="&#x12e;" horiz-adv-x="593" 
d="M375 0q-117 -75 -117 -188q0 -97 96 -97q30 0 54 9v-146q-41 -14 -105 -14q-96 0 -155.5 49.5t-59.5 136.5q0 75 36 143t101 107h-41v1516h232v-1516h-41z" />
    <glyph glyph-name="iogonek" unicode="&#x12f;" horiz-adv-x="497" 
d="M244 1182q-60 0 -101 40t-41 101q0 60 41 99.5t101 39.5q59 0 99 -39.5t40 -99.5q0 -61 -40 -101t-99 -40zM211 -188q0 -97 96 -97q29 0 53 9v-146q-41 -14 -104 -14q-96 0 -155.5 49.5t-59.5 136.5q0 75 36 143t101 107h-51v973h217v-973h-16q-117 -75 -117 -188z" />
    <glyph glyph-name="Idotaccent" unicode="&#x130;" horiz-adv-x="591" 
d="M295 1704q-67 0 -112.5 45t-45.5 113q0 66 45.5 110.5t112.5 44.5t112.5 -44.5t45.5 -110.5q0 -68 -45.5 -113t-112.5 -45zM182 0v1516h232v-1516h-232z" />
    <glyph glyph-name="dotlessi" unicode="&#x131;" horiz-adv-x="493" 
d="M137 973h217v-973h-217v973z" />
    <glyph glyph-name="IJ" unicode="&#x132;" horiz-adv-x="1148" 
d="M178 0v1516h232v-1516h-232zM496 -453v213q92 12 143.5 50.5t77.5 124.5t26 235v1346h232v-1346q0 -308 -108 -453.5t-371 -169.5z" />
    <glyph glyph-name="ij" unicode="&#x133;" horiz-adv-x="1038" 
d="M248 1182q-60 0 -101 40t-41 101q0 60 41 99.5t101 39.5q59 0 99 -39.5t40 -99.5q0 -61 -40 -101t-99 -40zM778 1182q-59 0 -100 40t-41 101q0 59 41 99t100 40t100.5 -40t41.5 -99q0 -61 -41.5 -101t-100.5 -40zM137 973h217v-973h-217v973zM666 973h217v-1491h-217
v1491z" />
    <glyph glyph-name="uni0136" unicode="&#x136;" horiz-adv-x="1327" 
d="M623 752l737 -752h-307l-643 662v-662h-232v1516h232v-680l604 680h293zM684 -115q59 0 96 -42t37 -115q0 -171 -203 -287l-53 70q65 32 97 73t32 80q-12 -4 -33 -4q-41 0 -71.5 31t-30.5 76q0 50 37 84t92 34z" />
    <glyph glyph-name="uni0137" unicode="&#x137;" horiz-adv-x="1040" 
d="M573 518l486 -518h-291l-414 444v-444h-217v1516h217v-928l385 385h289zM553 -115q59 0 96 -42t37 -115q0 -172 -201 -287l-53 70q65 32 97 73t32 80q-12 -4 -33 -4q-41 0 -71.5 31t-30.5 76q0 50 36.5 84t90.5 34z" />
    <glyph glyph-name="kgreenlandic" unicode="&#x138;" horiz-adv-x="1040" 
d="M1059 0h-291l-414 418v-418h-217v973h217v-410l385 410h289l-455 -479z" />
    <glyph glyph-name="Lacute" unicode="&#x139;" horiz-adv-x="1161" 
d="M96 1657l-78 172l471 227l84 -186zM184 0v1516h232v-1295h721v-221h-953z" />
    <glyph glyph-name="lacute" unicode="&#x13a;" horiz-adv-x="555" 
d="M45 1657l-80 172l471 227l86 -186zM377 -25q-136 0 -204.5 74.5t-68.5 210.5v1256h218v-1207q0 -68 23.5 -98.5t88.5 -30.5q33 0 51 4v-192q-66 -17 -108 -17z" />
    <glyph glyph-name="uni013B" unicode="&#x13b;" horiz-adv-x="1157" 
d="M178 0v1516h232v-1295h723v-221h-955zM526 -489q64 32 95.5 73.5t31.5 79.5q-12 -4 -32 -4q-41 0 -72 31t-31 76q0 50 37 84t92 34q59 0 96 -42t37 -115q0 -172 -202 -287z" />
    <glyph glyph-name="uni013C" unicode="&#x13c;" horiz-adv-x="536" 
d="M408 -25q-136 0 -205.5 74.5t-69.5 210.5v1256h217v-1207q0 -67 24.5 -98t90.5 -31q33 0 51 4v-192q-66 -17 -108 -17zM238 -489q64 32 95.5 73.5t31.5 79.5q-12 -4 -33 -4q-41 0 -72 31t-31 76q0 50 37 84t92 34q59 0 96.5 -42t37.5 -115q0 -171 -203 -287z" />
    <glyph glyph-name="Lcaron" unicode="&#x13d;" horiz-adv-x="1157" 
d="M178 0v1516h232v-1295h723v-221h-955zM741 1032l62 484h194l-71 -484h-185z" />
    <glyph glyph-name="lcaron" unicode="&#x13e;" horiz-adv-x="616" 
d="M408 -25q-136 0 -205.5 74.5t-69.5 210.5v1256h217v-1207q0 -67 24.5 -98t90.5 -31q33 0 51 4v-192q-66 -17 -108 -17zM477 1032l62 484h194l-71 -484h-185z" />
    <glyph glyph-name="Ldot" unicode="&#x13f;" horiz-adv-x="1157" 
d="M178 0v1516h232v-1295h723v-221h-955zM782 643q-62 0 -103.5 41t-41.5 104t41.5 104.5t103.5 41.5q60 0 102 -42t42 -104t-41.5 -103.5t-102.5 -41.5z" />
    <glyph glyph-name="ldot" unicode="&#x140;" horiz-adv-x="741" 
d="M408 -25q-136 0 -205.5 74.5t-69.5 210.5v1256h217v-1207q0 -67 24.5 -98t90.5 -31q33 0 51 4v-192q-66 -17 -108 -17zM551 594q-62 0 -103.5 41t-41.5 104q0 62 42 104t103 42q60 0 101.5 -42.5t41.5 -103.5q0 -63 -41 -104t-102 -41z" />
    <glyph glyph-name="Lslash" unicode="&#x141;" horiz-adv-x="1234" 
d="M487 221h723v-221h-954v580l-131 -62l-86 178l217 103v717h231v-611l191 90l84 -178l-275 -129v-467z" />
    <glyph glyph-name="lslash" unicode="&#x142;" horiz-adv-x="753" 
d="M420 309q0 -68 24 -98.5t91 -30.5q33 0 51 4v-192q-66 -17 -109 -17q-137 0 -205.5 74.5t-68.5 210.5v377l-127 -35l-47 178l174 47v689h217v-631l227 61l47 -176l-274 -74v-387z" />
    <glyph glyph-name="Nacute" unicode="&#x143;" horiz-adv-x="1712" 
d="M1176 1870l-478 -213l-80 172l472 227zM1305 1516h229v-1516h-246l-878 1214v-1214h-232v1516h295l832 -1149v1149z" />
    <glyph glyph-name="nacute" unicode="&#x144;" horiz-adv-x="1157" 
d="M893 1321l-477 -213l-80 172l473 227zM639 991q82 0 150.5 -24t124 -75t87 -139t31.5 -206v-547h-217v528q0 125 -56.5 189.5t-166.5 64.5q-117 0 -177.5 -65.5t-60.5 -206.5v-510h-217v973h217v-94q104 112 285 112z" />
    <glyph glyph-name="uni0145" unicode="&#x145;" horiz-adv-x="1712" 
d="M1305 1516h229v-1516h-246l-878 1214v-1214h-232v1516h295l832 -1149v1149zM854 -115q59 0 96 -42t37 -115q0 -171 -203 -287l-51 70q64 32 95.5 73.5t31.5 79.5q-12 -4 -33 -4q-41 0 -71.5 31t-30.5 76q0 50 37 84t92 34z" />
    <glyph glyph-name="uni0146" unicode="&#x146;" horiz-adv-x="1157" 
d="M639 991q82 0 150.5 -24t124 -75t87 -139t31.5 -206v-547h-217v528q0 125 -56.5 189.5t-166.5 64.5q-117 0 -177.5 -65.5t-60.5 -206.5v-510h-217v973h217v-94q104 112 285 112zM608 -115q58 0 94.5 -42t36.5 -115q0 -173 -200 -287l-54 70q65 32 97 73t32 80
q-12 -4 -32 -4q-41 0 -72 31t-31 76q0 50 37 84t92 34z" />
    <glyph glyph-name="Ncaron" unicode="&#x147;" horiz-adv-x="1712" 
d="M932 1657h-70l-342 244l105 155l274 -186l272 186l103 -155zM1305 1516h229v-1516h-246l-878 1214v-1214h-232v1516h295l832 -1149v1149z" />
    <glyph glyph-name="ncaron" unicode="&#x148;" horiz-adv-x="1157" 
d="M653 1108h-71l-342 244l104 155l274 -186l273 186l104 -155zM639 991q82 0 150.5 -24t124 -75t87 -139t31.5 -206v-547h-217v528q0 125 -56.5 189.5t-166.5 64.5q-117 0 -177.5 -65.5t-60.5 -206.5v-510h-217v973h217v-94q104 112 285 112z" />
    <glyph glyph-name="Eng" unicode="&#x14a;" horiz-adv-x="1712" 
d="M1305 1516h229v-1375q0 -308 -108.5 -453t-372.5 -169v213q77 10 124.5 37.5t77.5 85t41 153.5l-886 1206v-1214h-232v1516h295l832 -1133v1133z" />
    <glyph glyph-name="eng" unicode="&#x14b;" horiz-adv-x="1157" 
d="M639 991q82 0 150.5 -24t124 -75t87 -139t31.5 -206v-719q0 -136 -68.5 -210.5t-205.5 -74.5q-39 0 -109 17v194q20 -6 51 -6q67 0 91 30.5t24 98.5v651q0 125 -56.5 189.5t-166.5 64.5q-117 0 -177.5 -65.5t-60.5 -206.5v-510h-217v973h217v-94q104 112 285 112z" />
    <glyph glyph-name="Omacron" unicode="&#x14c;" horiz-adv-x="1746" 
d="M522 1958h678v-199h-678v199zM872 -27q-162 0 -308.5 61t-252.5 165t-168.5 249.5t-62.5 307.5q0 160 61 305t165.5 250.5t252 168t313.5 62.5t314 -62.5t252.5 -168t165.5 -250.5t61 -305q0 -216 -106.5 -396.5t-288.5 -283.5t-398 -103zM872 186q115 0 219 45
t178.5 121.5t118.5 181.5t44 220q0 153 -72 285t-201.5 211t-286.5 79q-156 0 -285 -79t-201.5 -211t-72.5 -285q0 -154 74 -284.5t202.5 -207t282.5 -76.5z" />
    <glyph glyph-name="omacron" unicode="&#x14d;" horiz-adv-x="1169" 
d="M252 1411h678v-199h-678v199zM584 -25q-214 0 -364 149t-150 359q0 138 68 255t186.5 185t259.5 68q216 0 366 -148.5t150 -359.5q0 -138 -68 -254.5t-187 -185t-261 -68.5zM584 182q126 0 210.5 88.5t84.5 212.5q0 123 -84.5 211t-210.5 88q-124 0 -208.5 -88
t-84.5 -211t84.5 -212t208.5 -89z" />
    <glyph glyph-name="Ohungarumlaut" unicode="&#x150;" horiz-adv-x="1746" 
d="M696 1657l-147 119l223 280l158 -127zM1069 1657l-149 119l223 280l157 -127zM872 -27q-162 0 -308.5 61t-252.5 165t-168.5 249.5t-62.5 307.5q0 160 61 305t165.5 250.5t252 168t313.5 62.5t314 -62.5t252.5 -168t165.5 -250.5t61 -305q0 -216 -106.5 -396.5
t-288.5 -283.5t-398 -103zM872 186q115 0 219 45t178.5 121.5t118.5 181.5t44 220q0 153 -72 285t-201.5 211t-286.5 79q-156 0 -285 -79t-201.5 -211t-72.5 -285q0 -154 74 -284.5t202.5 -207t282.5 -76.5z" />
    <glyph glyph-name="ohungarumlaut" unicode="&#x151;" horiz-adv-x="1169" 
d="M279 1225l223 282l157 -129l-233 -270zM649 1225l223 282l158 -129l-233 -270zM584 -25q-214 0 -364 149t-150 359q0 138 68 255t186.5 185t259.5 68q216 0 366 -148.5t150 -359.5q0 -138 -68 -254.5t-187 -185t-261 -68.5zM584 182q126 0 210.5 88.5t84.5 212.5
q0 123 -84.5 211t-210.5 88q-124 0 -208.5 -88t-84.5 -211t84.5 -212t208.5 -89z" />
    <glyph glyph-name="OE" unicode="&#x152;" horiz-adv-x="2449" 
d="M2363 1294h-702v-393h567v-221h-567v-6v-453h702v-221h-933v197q-109 -106 -253.5 -165t-304.5 -59q-162 0 -308.5 61t-252.5 165t-168.5 249.5t-62.5 307.5q0 160 61 305t165.5 250.5t252 168t313.5 62.5q163 0 306.5 -58.5t251.5 -164.5v197h933v-222zM872 186
q221 0 380 149.5t178 369.5v98q-9 108 -55 204t-118.5 167.5t-172.5 113t-212 41.5q-156 0 -285 -79t-201.5 -211t-72.5 -285q0 -154 74 -284.5t202.5 -207t282.5 -76.5z" />
    <glyph glyph-name="oe" unicode="&#x153;" horiz-adv-x="1937" 
d="M1376 991q224 0 360 -144t136 -364q0 -7 -1 -31t-1 -36h-772q22 -109 101.5 -176.5t197.5 -67.5q83 0 151.5 31.5t110.5 87.5l149 -117q-149 -199 -405 -199q-135 0 -241.5 51t-174.5 140q-73 -89 -177.5 -140t-225.5 -51q-214 0 -364 149t-150 359q0 138 68 255
t186.5 185t259.5 68q123 0 228 -50.5t177 -139.5q68 89 168 139.5t219 50.5zM1102 575h553q-15 102 -86 160t-187 58q-103 0 -179 -58.5t-101 -159.5zM584 182q126 0 210.5 88.5t84.5 212.5q0 123 -84.5 211t-210.5 88q-124 0 -208.5 -88t-84.5 -211t84.5 -212t208.5 -89z
" />
    <glyph glyph-name="Racute" unicode="&#x154;" horiz-adv-x="1351" 
d="M954 1870l-477 -213l-80 172l471 227zM1284 0h-264l-373 643h-237v-643h-232v1516h555q139 0 241 -32t162.5 -91.5t89.5 -137.5t29 -176q0 -167 -86 -277.5t-270 -144.5zM410 1294v-430h342q139 0 206.5 56t67.5 159q0 102 -68 158.5t-206 56.5h-342z" />
    <glyph glyph-name="racute" unicode="&#x155;" horiz-adv-x="733" 
d="M717 1321l-477 -213l-80 172l473 227zM676 991h45v-209h-25q-171 0 -256.5 -62t-85.5 -198v-522h-217v973h217v-111q45 61 128 95t194 34z" />
    <glyph glyph-name="uni0156" unicode="&#x156;" horiz-adv-x="1351" 
d="M899 657l385 -657h-264l-373 643h-237v-643h-232v1516h555q139 0 241 -32t162.5 -91.5t89.5 -137.5t29 -176q0 -167 -86 -277.5t-270 -144.5zM410 1294v-430h342q139 0 206.5 56t67.5 159q0 102 -68 158.5t-206 56.5h-342zM680 -115q59 0 96 -42t37 -115
q0 -170 -201 -287l-53 70q64 32 95.5 73.5t31.5 79.5q-12 -4 -33 -4q-41 0 -71.5 31t-30.5 76q0 50 37 84t92 34z" />
    <glyph glyph-name="uni0157" unicode="&#x157;" horiz-adv-x="733" 
d="M676 991h45v-209h-25q-171 0 -256.5 -62t-85.5 -198v-522h-217v973h217v-111q45 61 128 95t194 34zM260 -115q59 0 96 -42t37 -115q0 -171 -203 -287l-51 70q64 32 95.5 73.5t31.5 79.5q-12 -4 -33 -4q-41 0 -71.5 31t-30.5 76q0 50 37 84t92 34z" />
    <glyph glyph-name="Rcaron" unicode="&#x158;" horiz-adv-x="1351" 
d="M713 1657h-72l-342 244l104 155l275 -186l272 186l103 -155zM1284 0h-264l-373 643h-237v-643h-232v1516h555q139 0 241 -32t162.5 -91.5t89.5 -137.5t29 -176q0 -167 -86 -277.5t-270 -144.5zM410 1294v-430h342q139 0 206.5 56t67.5 159q0 102 -68 158.5t-206 56.5
h-342z" />
    <glyph glyph-name="rcaron" unicode="&#x159;" horiz-adv-x="733" 
d="M469 1108h-70l-342 244l105 155l274 -186l273 186l102 -155zM354 862q45 61 128 95t194 34h45v-209h-25q-171 0 -256.5 -62t-85.5 -198v-522h-217v973h217v-111z" />
    <glyph glyph-name="Sacute" unicode="&#x15a;" horiz-adv-x="1157" 
d="M387 1657l-80 172l473 227l84 -186zM207 389q75 -93 162.5 -148t205.5 -55q126 0 194.5 64t68.5 160q0 66 -38 115.5t-98.5 82t-133.5 62t-146 65.5t-133.5 82.5t-98.5 123t-38 177.5q0 197 133.5 310.5t345.5 113.5q228 0 416 -143l-123 -180q-60 55 -141 82.5
t-162 27.5q-110 0 -175 -49.5t-65 -138.5q0 -52 23.5 -93t63.5 -69t91.5 -52t108.5 -46.5t114 -48t108.5 -61.5t91.5 -82t63.5 -114t23.5 -153q0 -206 -130 -327.5t-366 -121.5q-320 0 -512 265z" />
    <glyph glyph-name="sacute" unicode="&#x15b;" horiz-adv-x="878" 
d="M170 1280l473 227l84 -186l-477 -213zM170 276q123 -104 279 -104q73 0 109 27.5t36 66.5q0 32 -21 55.5t-56 37t-79.5 28t-90.5 27t-90.5 36t-79.5 52.5t-56 78t-21 112q0 131 90.5 215t249.5 84q228 0 363 -119l-115 -155q-113 76 -248 76q-127 0 -127 -82
q0 -34 27 -58.5t70 -41t95 -32.5t104 -39.5t95 -55t70 -85.5t27 -125q0 -133 -96 -216t-271 -83q-119 0 -208.5 36.5t-170.5 99.5z" />
    <glyph glyph-name="Scedilla" unicode="&#x15e;" horiz-adv-x="1157" 
d="M1069 422q0 -200 -122.5 -321t-346.5 -128l-27 -71h25q88 0 145.5 -55t57.5 -146q0 -95 -69 -155t-185 -60q-137 0 -225 88l94 111q19 -26 53.5 -43t69.5 -17q92 0 92 70q0 36 -23.5 57t-68.5 21h-154l74 209q-240 41 -398 256l146 151q75 -93 162.5 -148t205.5 -55
q126 0 194.5 64t68.5 160q0 66 -38 115.5t-98.5 82t-133.5 62t-146 65.5t-133.5 82.5t-98.5 123t-38 177.5q0 197 133.5 310.5t345.5 113.5q228 0 416 -143l-123 -180q-60 55 -141 82.5t-162 27.5q-110 0 -175 -49.5t-65 -138.5q0 -52 23.5 -93t63.5 -69t91.5 -52
t108.5 -46.5t114 -48t108.5 -61.5t91.5 -82t63.5 -114t23.5 -153z" />
    <glyph glyph-name="scedilla" unicode="&#x15f;" horiz-adv-x="878" 
d="M313 711q0 -34 27 -58.5t70 -41t95 -32.5t104 -39.5t95 -55t70 -85.5t27 -125q0 -124 -83.5 -205.5t-236.5 -91.5l-26 -75h24q88 0 144.5 -55t56.5 -146q0 -95 -69 -155t-185 -60q-135 0 -223 88l94 111q19 -26 53.5 -43t69.5 -17q90 0 90 70q0 36 -23.5 57t-68.5 21
h-154l76 209q-145 21 -285 129l115 165q123 -104 279 -104q73 0 109 27.5t36 66.5q0 32 -21 55.5t-56 37t-79.5 28t-90.5 27t-90.5 36t-79.5 52.5t-56 78t-21 112q0 131 90.5 215t249.5 84q228 0 363 -119l-115 -155q-113 76 -248 76q-127 0 -127 -82z" />
    <glyph glyph-name="Scaron" unicode="&#x160;" horiz-adv-x="1157" 
d="M674 1657h-72l-342 244l105 155l274 -186l272 186l103 -155zM381 1141q0 -52 23.5 -93t63.5 -69t91.5 -52t108.5 -46.5t114 -48t108.5 -61.5t91.5 -82t63.5 -114t23.5 -153q0 -206 -130 -327.5t-366 -121.5q-320 0 -512 265l146 151q75 -93 162.5 -148t205.5 -55
q126 0 194.5 64t68.5 160q0 66 -38 115.5t-98.5 82t-133.5 62t-146 65.5t-133.5 82.5t-98.5 123t-38 177.5q0 197 133.5 310.5t345.5 113.5q228 0 416 -143l-123 -180q-60 55 -141 82.5t-162 27.5q-110 0 -175 -49.5t-65 -138.5z" />
    <glyph glyph-name="scaron" unicode="&#x161;" horiz-adv-x="878" 
d="M481 1108h-71l-342 244l104 155l274 -186l273 186l102 -155zM440 793q-127 0 -127 -82q0 -34 27 -58.5t70 -41t95 -32.5t104 -39.5t95 -55t70 -85.5t27 -125q0 -133 -96 -216t-271 -83q-119 0 -208.5 36.5t-170.5 99.5l115 165q123 -104 279 -104q73 0 109 27.5t36 66.5
q0 32 -21 55.5t-56 37t-79.5 28t-90.5 27t-90.5 36t-79.5 52.5t-56 78t-21 112q0 131 90.5 215t249.5 84q228 0 363 -119l-115 -155q-113 76 -248 76z" />
    <glyph glyph-name="uni0162" unicode="&#x162;" horiz-adv-x="1267" 
d="M750 0h-37l-35 -98h24q88 0 144.5 -55t56.5 -146q0 -95 -68.5 -155t-185.5 -60q-135 0 -223 88l94 111q19 -26 53.5 -43t69.5 -17q92 0 92 70q0 36 -24 57t-68 21h-154l80 227h-51v1294h-493v222h1218v-222h-493v-1294z" />
    <glyph glyph-name="uni0163" unicode="&#x163;" horiz-adv-x="722" 
d="M686 764h-270v-442q0 -69 27 -105.5t96 -36.5q40 0 79 4.5t44 8.5v-195q-69 -23 -183 -23h-12l-27 -73h25q88 0 144.5 -55t56.5 -146q0 -95 -69 -155t-185 -60q-135 0 -226 88l97 111q19 -26 53.5 -43t69.5 -17q90 0 90 70q0 36 -24 57t-69 21h-153l84 233
q-135 70 -135 273v485h-154v209h154v321h217v-321h270v-209z" />
    <glyph glyph-name="Tcaron" unicode="&#x164;" horiz-adv-x="1267" 
d="M690 1657h-69l-342 244l104 155l274 -186l273 186l102 -155zM25 1516h1218v-222h-493v-1294h-232v1294h-493v222z" />
    <glyph glyph-name="tcaron" unicode="&#x165;" horiz-adv-x="741" 
d="M571 1516h197l-72 -484h-186zM414 1294v-321h270v-209h-270v-442q0 -68 27.5 -105t95.5 -37q41 0 79 4.5t43 8.5v-195q-69 -23 -182 -23q-136 0 -208 80t-72 224v485h-154v209h154v321h217z" />
    <glyph glyph-name="Tbar" unicode="&#x166;" horiz-adv-x="1292" 
d="M1253 1294h-491v-467h287v-198h-287v-629h-232v629h-245v198h245v467h-493v222h1216v-222z" />
    <glyph glyph-name="tbar" unicode="&#x167;" horiz-adv-x="735" 
d="M688 764h-270v-160h260v-198h-260v-84q2 -69 28.5 -105.5t94.5 -36.5q41 0 79.5 4.5t43.5 8.5v-195q-69 -23 -183 -23q-136 0 -208 80t-72 224v127h-150v198h150v160h-154v209h154v321h217v-321h270v-209z" />
    <glyph glyph-name="Utilde" unicode="&#x168;" horiz-adv-x="1566" 
d="M393 1724q0 132 62 207.5t176 75.5q61 0 121.5 -25.5t108.5 -51t79 -25.5q41 0 60.5 23t19.5 77h166q0 -129 -62.5 -205t-169.5 -76q-63 0 -124.5 26t-109 51.5t-77.5 25.5q-84 0 -84 -103h-166zM784 -27q-292 0 -459 178.5t-167 522.5v842h231v-771q0 -293 90.5 -426
t304.5 -133q213 0 304.5 133t91.5 426v771h231v-842q0 -343 -168 -522t-459 -179z" />
    <glyph glyph-name="utilde" unicode="&#x169;" horiz-adv-x="1144" 
d="M193 1165q0 132 61.5 207.5t175.5 75.5q60 0 120.5 -25.5t109 -51t79.5 -25.5q41 0 60.5 23t19.5 77h166q0 -130 -62.5 -206.5t-170.5 -76.5q-62 0 -123.5 26.5t-109 52.5t-77.5 26q-84 0 -84 -103h-165zM571 -25q-97 0 -177 26t-142 78.5t-96.5 138t-34.5 196.5v559h217
v-512q0 -279 233 -279q234 0 234 279v512h217v-559q0 -111 -34.5 -196.5t-96.5 -138t-142.5 -78.5t-177.5 -26z" />
    <glyph glyph-name="Umacron" unicode="&#x16a;" horiz-adv-x="1566" 
d="M446 1958h676v-199h-676v199zM784 -27q-292 0 -459 178.5t-167 522.5v842h231v-771q0 -293 90.5 -426t304.5 -133q213 0 304.5 133t91.5 426v771h231v-842q0 -343 -168 -522t-459 -179z" />
    <glyph glyph-name="umacron" unicode="&#x16b;" horiz-adv-x="1144" 
d="M233 1411h676v-199h-676v199zM571 -25q-97 0 -177 26t-142 78.5t-96.5 138t-34.5 196.5v559h217v-512q0 -279 233 -279q234 0 234 279v512h217v-559q0 -111 -34.5 -196.5t-96.5 -138t-142.5 -78.5t-177.5 -26z" />
    <glyph glyph-name="Uring" unicode="&#x16e;" horiz-adv-x="1566" 
d="M780 1581q-108 0 -178 68.5t-70 169.5q0 100 70.5 168.5t177.5 68.5q109 0 179.5 -68.5t70.5 -168.5q0 -101 -70.5 -169.5t-179.5 -68.5zM780 1716q46 0 75.5 30.5t29.5 72.5q0 43 -29.5 72.5t-75.5 29.5q-45 0 -74.5 -29.5t-29.5 -72.5q0 -42 29.5 -72.5t74.5 -30.5z
M784 -27q-292 0 -459 178.5t-167 522.5v842h231v-771q0 -293 90.5 -426t304.5 -133q213 0 304.5 133t91.5 426v771h231v-842q0 -343 -168 -522t-459 -179z" />
    <glyph glyph-name="uring" unicode="&#x16f;" horiz-adv-x="1144" 
d="M571 1032q-108 0 -178.5 68.5t-70.5 169.5q0 99 71 168t178 69q108 0 179 -69t71 -168q0 -101 -71 -169.5t-179 -68.5zM571 1167q46 0 75.5 29.5t29.5 73.5q0 42 -29.5 72t-75.5 30t-75 -30t-29 -72q0 -44 29 -73.5t75 -29.5zM571 -25q-97 0 -177 26t-142 78.5t-96.5 138
t-34.5 196.5v559h217v-512q0 -279 233 -279q234 0 234 279v512h217v-559q0 -111 -34.5 -196.5t-96.5 -138t-142.5 -78.5t-177.5 -26z" />
    <glyph glyph-name="Uhungarumlaut" unicode="&#x170;" horiz-adv-x="1566" 
d="M639 1657l-150 119l224 280l159 -127zM1010 1657l-150 119l223 280l160 -127zM784 -27q-292 0 -459 178.5t-167 522.5v842h231v-771q0 -293 90.5 -426t304.5 -133q213 0 304.5 133t91.5 426v771h231v-842q0 -343 -168 -522t-459 -179z" />
    <glyph glyph-name="uhungarumlaut" unicode="&#x171;" horiz-adv-x="1144" 
d="M246 1225l225 282l158 -129l-234 -270zM618 1225l224 282l157 -129l-233 -270zM571 -25q-97 0 -177 26t-142 78.5t-96.5 138t-34.5 196.5v559h217v-512q0 -279 233 -279q234 0 234 279v512h217v-559q0 -111 -34.5 -196.5t-96.5 -138t-142.5 -78.5t-177.5 -26z" />
    <glyph glyph-name="Uogonek" unicode="&#x172;" horiz-adv-x="1566" 
d="M1180 1516h231v-842q0 -272 -106.5 -441t-300.5 -229q-99 -73 -99 -176q0 -96 96 -96q32 0 56 8v-146q-54 -14 -105 -14q-96 0 -156.5 50t-60.5 139q0 56 22 110t62 94h-35q-292 0 -459 178.5t-167 522.5v842h231v-771q0 -293 90.5 -426t304.5 -133q213 0 304.5 133
t91.5 426v771z" />
    <glyph glyph-name="uogonek" unicode="&#x173;" horiz-adv-x="1144" 
d="M805 973h217v-559q0 -152 -63.5 -253t-174.5 -147h2q-116 -73 -116 -188q0 -94 96 -94q29 0 53 6v-144q-46 -16 -104 -16q-96 0 -155.5 50t-59.5 139q0 125 86 208h-15q-97 0 -177 26t-142 78.5t-96.5 138t-34.5 196.5v559h217v-512q0 -279 233 -279q234 0 234 279v512z
" />
    <glyph glyph-name="Wcircumflex" unicode="&#x174;" horiz-adv-x="2103" 
d="M1057 1843l-275 -186l-104 155l342 244h72l342 -244l-105 -155zM1833 1516h252l-481 -1516h-226l-325 1118l-328 -1118h-225l-480 1516h250l340 -1149l326 1149h233l326 -1149z" />
    <glyph glyph-name="wcircumflex" unicode="&#x175;" horiz-adv-x="1662" 
d="M836 1294l-275 -186l-104 156l342 243h71l340 -243l-102 -156zM1407 973h235l-352 -973h-231l-225 694l-228 -694h-231l-352 973h235l234 -707l229 707h223l230 -707z" />
    <glyph glyph-name="Ycircumflex" unicode="&#x176;" horiz-adv-x="1402" 
d="M688 1843l-274 -186l-105 155l342 244h72l342 -244l-104 -155zM1100 1516h270l-553 -844v-672h-231v670l-553 846h268l399 -619z" />
    <glyph glyph-name="ycircumflex" unicode="&#x177;" horiz-adv-x="1073" 
d="M539 1294l-275 -186l-104 156l342 243h71l342 -243l-104 -156zM813 973h236l-611 -1491h-217l205 504l-403 987h235l277 -709z" />
    <glyph glyph-name="Ydieresis" unicode="&#x178;" horiz-adv-x="1402" 
d="M453 1710q-65 0 -109.5 44t-44.5 108t44.5 107.5t109.5 43.5t109 -43.5t44 -107.5t-44 -108t-109 -44zM922 1710q-65 0 -109.5 44t-44.5 108t44.5 107.5t109.5 43.5t109 -43.5t44 -107.5t-44 -108t-109 -44zM1100 1516h270l-553 -844v-672h-231v670l-553 846h268
l399 -619z" />
    <glyph glyph-name="Zacute" unicode="&#x179;" horiz-adv-x="1312" 
d="M948 1870l-477 -213l-80 172l473 227zM1251 1516v-218l-897 -1077h897v-221h-1200v217l897 1077h-874v222h1177z" />
    <glyph glyph-name="zacute" unicode="&#x17a;" horiz-adv-x="907" 
d="M760 1321l-477 -213l-78 172l471 227zM842 973v-199l-484 -565h484v-209h-776v205l485 559h-485v209h776z" />
    <glyph glyph-name="Zdotaccent" unicode="&#x17b;" horiz-adv-x="1312" 
d="M672 1704q-68 0 -114 45.5t-46 112.5q0 66 46 110.5t114 44.5q66 0 111.5 -44.5t45.5 -110.5q0 -67 -45.5 -112.5t-111.5 -45.5zM1251 1516v-218l-897 -1077h897v-221h-1200v217l897 1077h-874v222h1177z" />
    <glyph glyph-name="zdotaccent" unicode="&#x17c;" horiz-adv-x="907" 
d="M453 1182q-60 0 -101 40t-41 101q0 60 41 99.5t101 39.5q59 0 99 -39.5t40 -99.5q0 -61 -40 -101t-99 -40zM842 973v-199l-484 -565h484v-209h-776v205l485 559h-485v209h776z" />
    <glyph glyph-name="Zcaron" unicode="&#x17d;" horiz-adv-x="1312" 
d="M707 1657h-72l-340 244l102 155l275 -186l272 186l105 -155zM1251 1516v-218l-897 -1077h897v-221h-1200v217l897 1077h-874v222h1177z" />
    <glyph glyph-name="zcaron" unicode="&#x17e;" horiz-adv-x="907" 
d="M489 1108h-69l-342 244l102 155l275 -186l272 186l104 -155zM842 973v-199l-484 -565h484v-209h-776v205l485 559h-485v209h776z" />
    <glyph glyph-name="florin" unicode="&#x192;" horiz-adv-x="763" 
d="M575 1331q-68 0 -96 -35t-28 -120v-203h211v-209h-211v-840q0 -167 -80.5 -250.5t-261.5 -83.5v205q67 0 95.5 35.5t28.5 120.5v813h-127v209h127v229q0 162 71 248t210 86q101 0 168 -25v-192q-60 12 -107 12z" />
    <glyph glyph-name="uni01EA" unicode="&#x1ea;" horiz-adv-x="1746" 
d="M1073 -2q-90 -70 -90 -170q0 -96 96 -96q33 0 54 8v-146q-51 -14 -105 -14q-96 0 -155.5 50t-59.5 139q0 119 82 204h-23q-162 0 -308.5 61t-252.5 165t-168.5 249.5t-62.5 307.5q0 160 61 305t165.5 250.5t252 168t313.5 62.5t314 -62.5t252.5 -168t165.5 -250.5
t61 -305q0 -275 -166 -484t-426 -274zM313 754q0 -154 74 -284.5t202.5 -207t282.5 -76.5q115 0 219 45t178.5 121.5t118.5 181.5t44 220q0 153 -72 285t-201.5 211t-286.5 79q-156 0 -285 -79t-201.5 -211t-72.5 -285z" />
    <glyph glyph-name="uni01EB" unicode="&#x1eb;" horiz-adv-x="1169" 
d="M786 16q-112 -75 -112 -186q0 -96 96 -96q32 0 53 8v-145q-54 -15 -102 -15q-96 0 -156.5 50t-60.5 139q0 117 84 204h-4q-214 0 -364 149t-150 359q0 138 68 255t186.5 185t259.5 68q216 0 366 -148.5t150 -359.5q0 -155 -86.5 -281.5t-227.5 -185.5zM291 483
q0 -123 84.5 -212t208.5 -89q126 0 210.5 88.5t84.5 212.5q0 123 -84.5 211t-210.5 88q-124 0 -208.5 -88t-84.5 -211z" />
    <glyph glyph-name="Aringacute" unicode="&#x1fa;" horiz-adv-x="1488" 
d="M735 1581q-108 0 -179 68.5t-71 169.5q0 99 71 168t179 69q106 0 176.5 -66t73.5 -163l199 98l69 -156l-391 -157q-57 -31 -127 -31zM735 1921q-46 0 -75 -29t-29 -73q0 -43 29 -73t75 -30t75.5 30.5t29.5 72.5q0 43 -29 72.5t-76 29.5zM1227 0l-137 348h-691l-135 -348
h-250l613 1516h237l613 -1516h-250zM745 1221l-260 -652h519z" />
    <glyph glyph-name="aringacute" unicode="&#x1fb;" horiz-adv-x="1282" 
d="M582 1032q-108 0 -179 68.5t-71 169.5q0 99 71 168t179 69q106 0 176.5 -67t72.5 -164l199 98l70 -153l-402 -164q-55 -25 -116 -25zM582 1372q-46 0 -75.5 -30t-29.5 -72q0 -44 29.5 -73.5t75.5 -29.5t75 29.5t29 73.5q0 42 -29 72t-75 30zM883 874v99h217v-973h-217
v100q-131 -118 -312 -118q-133 0 -248 66t-184 183t-69 256t69 255.5t184 182.5t248 66q179 0 312 -117zM586 186q124 0 210.5 88t86.5 213q0 124 -86.5 211.5t-210.5 87.5q-121 0 -208 -88t-87 -211q0 -124 86.5 -212.5t208.5 -88.5z" />
    <glyph glyph-name="AEacute" unicode="&#x1fc;" horiz-adv-x="2074" 
d="M1642 1870l-477 -213l-80 172l471 227zM1991 1294h-703v-393h565v-221h-565v-459h703v-221h-934v358h-600l-221 -358h-263l951 1516h1067v-222zM594 580h463v741z" />
    <glyph glyph-name="aeacute" unicode="&#x1fd;" horiz-adv-x="1943" 
d="M1257 1321l-477 -213l-80 172l474 227zM1384 991q215 0 356.5 -145.5t141.5 -362.5q0 -21 -4 -67h-772q22 -109 101.5 -176.5t197.5 -67.5q83 0 151.5 31.5t110.5 87.5l150 -117q-145 -199 -406 -199q-199 0 -334 109v-84h-194v100q-131 -118 -312 -118q-133 0 -248 66
t-184 183t-69 256t69 255.5t184 182.5t248 66q179 0 312 -117v99h194v-90q130 108 307 108zM1110 575h553q-17 100 -91 159t-181 59q-103 0 -179.5 -58.5t-101.5 -159.5zM586 186q124 0 210.5 88t86.5 213q0 124 -86.5 211.5t-210.5 87.5q-121 0 -208 -88t-87 -211
q0 -124 86.5 -212.5t208.5 -88.5z" />
    <glyph glyph-name="Oslashacute" unicode="&#x1fe;" horiz-adv-x="1789" 
d="M1141 1870l-477 -213l-80 172l471 227zM1532 1241q166 -212 166 -485q0 -216 -106 -396.5t-287.5 -283.5t-397.5 -103q-270 0 -483 160l-174 -174l-154 156l172 172q-153 209 -153 469q0 160 60.5 305t165 250.5t252.5 168t314 62.5q263 0 467 -149l164 163l154 -155z
M348 754q0 -164 84 -303l785 784q-140 94 -310 94q-118 0 -222.5 -46.5t-178 -125t-116 -183.5t-42.5 -220zM907 186q154 0 282.5 76.5t202.5 207t74 284.5q0 177 -96 325l-788 -788q143 -105 325 -105z" />
    <glyph glyph-name="oslashacute" unicode="&#x1ff;" horiz-adv-x="1234" 
d="M893 1321l-477 -213l-80 172l471 227zM1165 903l-131 -131q90 -129 90 -289q0 -138 -67.5 -254.5t-186 -185t-260.5 -68.5q-158 0 -286 86l-129 -129l-136 138l127 127q-90 129 -90 286q0 104 40 198t108.5 162t164 108t201.5 40q157 0 287 -84l133 133zM315 483
q0 -66 29 -129l397 398q-58 30 -131 30q-126 0 -210.5 -88t-84.5 -211zM905 483q0 67 -28 131l-400 -399q64 -33 133 -33q126 0 210.5 88.5t84.5 212.5z" />
    <glyph glyph-name="uni0218" unicode="&#x218;" horiz-adv-x="1157" 
d="M207 389q75 -93 162.5 -148t205.5 -55q126 0 194.5 64t68.5 160q0 66 -38 115.5t-98.5 82t-133.5 62t-146 65.5t-133.5 82.5t-98.5 123t-38 177.5q0 197 133.5 310.5t345.5 113.5q228 0 416 -143l-123 -180q-60 55 -141 82.5t-162 27.5q-110 0 -175 -49.5t-65 -138.5
q0 -52 23.5 -93t63.5 -69t91.5 -52t108.5 -46.5t114 -48t108.5 -61.5t91.5 -82t63.5 -114t23.5 -153q0 -206 -130 -327.5t-366 -121.5q-320 0 -512 265zM459 -489q65 32 97 73t32 80q-12 -4 -33 -4q-41 0 -71.5 31t-30.5 76q0 50 36.5 84t90.5 34q59 0 96 -42t37 -115
q0 -170 -201 -287z" />
    <glyph glyph-name="uni0219" unicode="&#x219;" horiz-adv-x="878" 
d="M170 276q123 -104 279 -104q73 0 109 27.5t36 66.5q0 32 -21 55.5t-56 37t-79.5 28t-90.5 27t-90.5 36t-79.5 52.5t-56 78t-21 112q0 131 90.5 215t249.5 84q228 0 363 -119l-115 -155q-113 76 -248 76q-127 0 -127 -82q0 -34 27 -58.5t70 -41t95 -32.5t104 -39.5t95 -55
t70 -85.5t27 -125q0 -133 -96 -216t-271 -83q-119 0 -208.5 36.5t-170.5 99.5zM340 -489q64 32 95.5 73.5t31.5 79.5q-12 -4 -33 -4q-41 0 -71.5 31t-30.5 76q0 50 37 84t92 34q59 0 96 -42t37 -115q0 -171 -203 -287z" />
    <glyph glyph-name="uni021A" unicode="&#x21a;" horiz-adv-x="1267" 
d="M518 0v1294h-493v222h1218v-222h-493v-1294h-232zM539 -489q65 32 97 73t32 80q-12 -4 -33 -4q-41 0 -72 31t-31 76q0 50 36.5 84t90.5 34q59 0 96.5 -42t37.5 -115q0 -170 -201 -287z" />
    <glyph glyph-name="uni021B" unicode="&#x21b;" horiz-adv-x="720" 
d="M684 764h-270v-442q0 -68 27.5 -105t95.5 -37q41 0 79 4.5t43 8.5v-195q-69 -23 -182 -23q-136 0 -208 80t-72 224v485h-154v209h154v321h217v-321h270v-209zM444 -115q59 0 96.5 -42t37.5 -115q0 -171 -203 -287l-51 70q64 32 95.5 73.5t31.5 79.5q-12 -4 -33 -4
q-41 0 -72 31t-31 76q0 50 37 84t92 34z" />
    <glyph glyph-name="uni0237" unicode="&#x237;" horiz-adv-x="493" 
d="M137 973h217v-1491h-217v1491z" />
    <glyph glyph-name="circumflex" unicode="&#x2c6;" horiz-adv-x="999" 
d="M877 1264l-103 -156l-272 186l-275 -186l-104 156l342 243h70z" />
    <glyph glyph-name="caron" unicode="&#x2c7;" horiz-adv-x="999" 
d="M774 1507l103 -155l-342 -244h-70l-342 244l104 155l275 -186z" />
    <glyph glyph-name="breve" unicode="&#x2d8;" horiz-adv-x="970" 
d="M485 1108q-161 0 -261.5 107.5t-100.5 275.5h186q0 -90 45.5 -140.5t130.5 -50.5t131 50.5t46 140.5h186q0 -168 -102 -275.5t-261 -107.5z" />
    <glyph glyph-name="dotaccent" unicode="&#x2d9;" horiz-adv-x="548" 
d="M276 1182q-60 0 -100.5 40t-40.5 101q0 60 40.5 99.5t100.5 39.5q59 0 99.5 -39.5t40.5 -99.5q0 -61 -40.5 -101t-99.5 -40z" />
    <glyph glyph-name="ring" unicode="&#x2da;" horiz-adv-x="743" 
d="M373 1032q-109 0 -179.5 68.5t-70.5 169.5q0 100 70.5 168.5t179.5 68.5q107 0 177.5 -68.5t70.5 -168.5q0 -101 -70 -169.5t-178 -68.5zM373 1167q46 0 75 29.5t29 73.5q0 42 -29 72t-75 30t-75.5 -30t-29.5 -72q0 -44 29.5 -73.5t75.5 -29.5z" />
    <glyph glyph-name="ogonek" unicode="&#x2db;" horiz-adv-x="561" 
d="M438 -422q-41 -14 -104 -14q-96 0 -156.5 49.5t-60.5 136.5q0 75 37 143t102 107h150q-117 -73 -117 -188q0 -97 96 -97q29 0 53 9v-146z" />
    <glyph glyph-name="tilde" unicode="&#x2dc;" horiz-adv-x="1038" 
d="M123 1165q0 132 61.5 207.5t175.5 75.5q60 0 120.5 -25.5t109.5 -51t80 -25.5q41 0 60.5 23t19.5 77h165q0 -130 -62 -206.5t-169 -76.5q-63 0 -124.5 26.5t-109 52.5t-77.5 26q-84 0 -84 -103h-166z" />
    <glyph glyph-name="hungarumlaut" unicode="&#x2dd;" horiz-adv-x="999" 
d="M123 1225l223 282l160 -129l-234 -270zM494 1225l223 282l160 -129l-234 -270z" />
    <glyph glyph-name="gravecomb" unicode="&#x300;" horiz-adv-x="0" 
d="M-680 1321l86 186l471 -227l-80 -172z" />
    <glyph glyph-name="acutecomb" unicode="&#x301;" horiz-adv-x="0" 
d="M-680 1280l471 227l86 -186l-477 -213z" />
    <glyph glyph-name="uni0302" unicode="&#x302;" horiz-adv-x="0" 
d="M-123 1264l-102 -156l-273 186l-274 -186l-105 156l342 243h70z" />
    <glyph glyph-name="tildecomb" unicode="&#x303;" horiz-adv-x="0" 
d="M-915 1165q0 132 61.5 207.5t175.5 75.5q60 0 120.5 -25.5t109 -51t79.5 -25.5q41 0 60.5 23t19.5 77h166q0 -130 -62 -206.5t-169 -76.5q-63 0 -125 26.5t-109.5 52.5t-77.5 26q-84 0 -84 -103h-165z" />
    <glyph glyph-name="uni0304" unicode="&#x304;" horiz-adv-x="0" 
d="M-799 1411h676v-199h-676v199z" />
    <glyph glyph-name="uni0306" unicode="&#x306;" horiz-adv-x="0" 
d="M-485 1108q-161 0 -262 107.5t-101 275.5h186q0 -90 46 -140.5t131 -50.5t130.5 50.5t45.5 140.5h186q0 -168 -101.5 -275.5t-260.5 -107.5z" />
    <glyph glyph-name="uni0307" unicode="&#x307;" horiz-adv-x="0" 
d="M-272 1182q-60 0 -101 40t-41 101q0 60 41 99.5t101 39.5q59 0 99 -39.5t40 -99.5q0 -61 -40 -101t-99 -40z" />
    <glyph glyph-name="uni0308" unicode="&#x308;" horiz-adv-x="0" 
d="M-705 1171q-60 0 -100.5 40.5t-40.5 101.5q0 60 40.5 99.5t100.5 39.5t101 -39.5t41 -99.5q0 -61 -41 -101.5t-101 -40.5zM-270 1171q-60 0 -101 40.5t-41 101.5q0 60 41 99.5t101 39.5q62 0 102.5 -39.5t40.5 -99.5q0 -61 -40.5 -101.5t-102.5 -40.5z" />
    <glyph glyph-name="uni030A" unicode="&#x30a;" horiz-adv-x="0" 
d="M-371 1032q-109 0 -179.5 68.5t-70.5 169.5q0 100 70.5 168.5t179.5 68.5q107 0 177.5 -68.5t70.5 -168.5q0 -101 -70 -169.5t-178 -68.5zM-371 1167q46 0 75.5 29.5t29.5 73.5q0 42 -29.5 72t-75.5 30t-75 -30t-29 -72q0 -44 29 -73.5t75 -29.5z" />
    <glyph glyph-name="uni030B" unicode="&#x30b;" horiz-adv-x="0" 
d="M-877 1225l224 282l159 -129l-233 -270zM-506 1225l223 282l160 -129l-233 -270z" />
    <glyph glyph-name="uni030C" unicode="&#x30c;" horiz-adv-x="0" 
d="M-225 1507l102 -155l-342 -244h-70l-342 244l105 155l274 -186z" />
    <glyph glyph-name="uni0312" unicode="&#x312;" horiz-adv-x="0" 
d="M-150 1495q-63 -32 -94.5 -73.5t-31.5 -80.5q15 5 32 5q40 0 71.5 -31.5t31.5 -75.5q0 -50 -37 -84.5t-92 -34.5q-58 0 -95.5 42t-37.5 114q0 173 200 289z" />
    <glyph glyph-name="uni0326" unicode="&#x326;" horiz-adv-x="0" 
d="M-401 -489q65 32 97 73t32 80q-12 -4 -33 -4q-41 0 -72 31t-31 76q0 50 36.5 84t90.5 34q59 0 96.5 -42t37.5 -115q0 -170 -201 -287z" />
    <glyph glyph-name="uni0327" unicode="&#x327;" horiz-adv-x="0" 
d="M-377 -514q-137 0 -225 88l94 111q19 -26 53.5 -43t69.5 -17q92 0 92 70q0 36 -23.5 57t-68.5 21h-154l88 252h146l-45 -123h24q88 0 145.5 -55t57.5 -146q0 -95 -69 -155t-185 -60z" />
    <glyph glyph-name="uni0328" unicode="&#x328;" horiz-adv-x="0" 
d="M-123 -422q-41 -14 -104 -14q-96 0 -156.5 49.5t-60.5 136.5q0 75 37 143t102 107h149q-116 -72 -116 -188q0 -97 96 -97q29 0 53 9v-146z" />
    <glyph glyph-name="uni0335" unicode="&#x335;" horiz-adv-x="0" 
d="M-887 662v196h764v-196h-764z" />
    <glyph glyph-name="uni0336" unicode="&#x336;" horiz-adv-x="0" 
d="M-1690 1106v199h1567v-199h-1567z" />
    <glyph glyph-name="uni0337" unicode="&#x337;" horiz-adv-x="0" 
d="M-780 762l618 168l49 -178l-620 -166z" />
    <glyph glyph-name="uni0338" unicode="&#x338;" horiz-adv-x="0" 
d="M-1229 66l971 970l135 -137l-971 -971z" />
    <glyph glyph-name="uni0374" unicode="&#x374;" horiz-adv-x="544" 
d="M254 1516h256l-246 -603h-178z" />
    <glyph glyph-name="uni0375" unicode="&#x375;" horiz-adv-x="544" 
d="M291 -266h-256l244 602h180z" />
    <glyph glyph-name="uni037E" unicode="&#x37e;" horiz-adv-x="503" 
d="M252 670q-60 0 -100.5 40t-40.5 101q0 58 40.5 97.5t100.5 39.5q58 0 97.5 -39t39.5 -98q0 -61 -39 -101t-98 -40zM250 266q70 0 108.5 -53t38.5 -141q0 -138 -83.5 -244t-190.5 -111v109q54 0 98 44t55 126q-20 -4 -34 -4q-57 0 -93 37t-36 96q0 61 38 101t99 40z" />
    <glyph glyph-name="tonos" unicode="&#x384;" horiz-adv-x="557" 
d="M123 1194l102 446h209l-125 -485z" />
    <glyph glyph-name="dieresistonos" unicode="&#x385;" horiz-adv-x="1167" 
d="M459 1196l96 434h209l-119 -473zM270 1171q-60 0 -100.5 40.5t-40.5 101.5q0 60 40.5 99.5t100.5 39.5t101 -39.5t41 -99.5q0 -61 -41 -101.5t-101 -40.5zM897 1171q-60 0 -100.5 40.5t-40.5 101.5q0 60 40.5 99.5t100.5 39.5t100.5 -39.5t40.5 -99.5q0 -61 -40.5 -101.5
t-100.5 -40.5z" />
    <glyph glyph-name="Alphatonos" unicode="&#x386;" horiz-adv-x="1544" 
d="M410 1518l-129 -508l-187 39l107 469h209zM1280 0l-137 348h-692l-134 -348h-249l612 1516h238l610 -1516h-248zM797 1223l-260 -654h520z" />
    <glyph glyph-name="anoteleia" unicode="&#x387;" horiz-adv-x="483" 
d="M242 381q-59 0 -99.5 40t-40.5 101q0 58 41 99t99 41t98.5 -40.5t40.5 -99.5q0 -61 -40 -101t-99 -40z" />
    <glyph glyph-name="Epsilontonos" unicode="&#x388;" horiz-adv-x="1464" 
d="M4 1049l105 469h208l-129 -508zM446 0v1516h934v-222h-702v-393h565v-221h-565v-459h702v-221h-934z" />
    <glyph glyph-name="Etatonos" unicode="&#x389;" horiz-adv-x="1873" 
d="M4 1049l105 469h208l-129 -508zM1462 1516h232v-1516h-232v686h-784v-686h-232v1516h232v-607h784v607z" />
    <glyph glyph-name="Iotatonos" unicode="&#x38a;" horiz-adv-x="858" 
d="M4 1049l105 469h208l-129 -508zM446 0v1516h232v-1516h-232z" />
    <glyph glyph-name="Omicrontonos" unicode="&#x38c;" horiz-adv-x="2021" 
d="M1147 -27q-216 0 -398 103t-288.5 283.5t-106.5 396.5q0 160 61 305t165.5 250.5t252.5 168t314 62.5t313.5 -62.5t252 -168t165.5 -250.5t61 -305q0 -162 -62.5 -307.5t-168.5 -249.5t-252.5 -165t-308.5 -61zM41 1049l104 469h209l-127 -508zM1147 186
q154 0 282.5 76.5t202.5 207t74 284.5q0 153 -72.5 285t-201.5 211t-285 79q-118 0 -222.5 -46.5t-178 -125t-116 -183.5t-42.5 -220q0 -154 74 -284.5t202.5 -207t282.5 -76.5z" />
    <glyph glyph-name="Upsilontonos" unicode="&#x38e;" horiz-adv-x="1800" 
d="M55 1049l105 469h209l-127 -508zM1499 1516h268l-553 -844v-672h-231v670l-553 846h270l398 -619z" />
    <glyph glyph-name="Omegatonos" unicode="&#x38f;" horiz-adv-x="1943" 
d="M1843 795q0 -190 -80.5 -347t-220.5 -258h285v-190h-653v190q116 25 215.5 107t161 211t61.5 276q0 242 -147 393.5t-369 151.5q-220 0 -367 -151.5t-147 -393.5q0 -221 129 -388.5t309 -205.5v-190h-653v190h284q-140 101 -220.5 258t-80.5 347q0 212 99 383.5
t269.5 267.5t377.5 96q208 0 379 -96t269.5 -267.5t98.5 -383.5zM143 1518h207l-127 -508l-186 39z" />
    <glyph glyph-name="iotadieresistonos" unicode="&#x390;" horiz-adv-x="632" 
d="M139 1196l99 434h206l-118 -473zM-49 1171q-60 0 -100.5 40.5t-40.5 101.5q0 60 40.5 99.5t100.5 39.5t100.5 -39.5t40.5 -99.5q0 -61 -40.5 -101.5t-100.5 -40.5zM578 1171q-60 0 -101 40.5t-41 101.5q0 60 41 99.5t101 39.5q62 0 102.5 -39.5t40.5 -99.5
q0 -61 -40.5 -101.5t-102.5 -40.5zM406 -25q-129 0 -199 69t-70 200v729h217v-682q0 -57 24 -84t85 -27q33 0 51 4v-192q-66 -17 -108 -17z" />
    <glyph glyph-name="Alpha" unicode="&#x391;" horiz-adv-x="1488" 
d="M1227 0l-137 348h-691l-135 -348h-250l613 1516h237l613 -1516h-250zM745 1221l-260 -652h519z" />
    <glyph glyph-name="Beta" unicode="&#x392;" horiz-adv-x="1265" 
d="M178 0v1516h416q262 0 391 -101t129 -289q0 -256 -242 -331q151 -33 226.5 -132.5t75.5 -244.5q0 -211 -153 -314.5t-437 -103.5h-406zM410 901h260q102 0 158.5 49t56.5 144q0 200 -242 200h-233v-393zM410 219h227q159 0 233 63t74 169t-71 168.5t-220 62.5h-243v-463z
" />
    <glyph glyph-name="Gamma" unicode="&#x393;" horiz-adv-x="1126" 
d="M178 1516h924v-222h-692v-1294h-232v1516z" />
    <glyph glyph-name="uni0394" unicode="&#x394;" horiz-adv-x="1419" 
d="M829 1516l572 -1516h-1385l576 1516h237zM346 217h727l-362 983z" />
    <glyph glyph-name="Epsilon" unicode="&#x395;" horiz-adv-x="1198" 
d="M178 0v1516h934v-222h-702v-393h567v-221h-567v-459h702v-221h-934z" />
    <glyph glyph-name="Zeta" unicode="&#x396;" horiz-adv-x="1312" 
d="M1251 1516v-218l-897 -1077h897v-221h-1200v217l897 1077h-874v222h1177z" />
    <glyph glyph-name="Eta" unicode="&#x397;" horiz-adv-x="1605" 
d="M1196 1516h231v-1516h-231v686h-786v-686h-232v1516h232v-607h786v607z" />
    <glyph glyph-name="Theta" unicode="&#x398;" horiz-adv-x="1746" 
d="M872 -27q-162 0 -308.5 61t-252.5 165t-168.5 249.5t-62.5 307.5q0 160 61 305t165.5 250.5t252 168t313.5 62.5t314 -62.5t252.5 -168t165.5 -250.5t61 -305q0 -216 -106.5 -396.5t-288.5 -283.5t-398 -103zM872 186q115 0 219 45t178.5 121.5t118.5 181.5t44 220
q0 153 -72 285t-201.5 211t-286.5 79q-156 0 -285 -79t-201.5 -211t-72.5 -285q0 -154 74 -284.5t202.5 -207t282.5 -76.5zM520 854h705v-197h-705v197z" />
    <glyph glyph-name="Iota" unicode="&#x399;" horiz-adv-x="589" 
d="M178 0v1516h232v-1516h-232z" />
    <glyph glyph-name="Kappa" unicode="&#x39a;" horiz-adv-x="1327" 
d="M623 752l737 -752h-307l-643 662v-662h-232v1516h232v-680l604 680h293z" />
    <glyph glyph-name="Lambda" unicode="&#x39b;" horiz-adv-x="1415" 
d="M1399 0h-248l-442 1200l-445 -1200h-248l574 1516h237z" />
    <glyph glyph-name="Mu" unicode="&#x39c;" horiz-adv-x="1880" 
d="M1399 1516h301v-1516h-232v1200l-417 -629h-228l-413 631v-1202h-232v1516h301l459 -703z" />
    <glyph glyph-name="Nu" unicode="&#x39d;" horiz-adv-x="1712" 
d="M1305 1516h229v-1516h-246l-878 1214v-1214h-232v1516h295l832 -1149v1149z" />
    <glyph glyph-name="Xi" unicode="&#x39e;" horiz-adv-x="1163" 
d="M1081 1516v-222h-1001v222h1001zM958 881v-222h-755v222h755zM1081 221v-221h-1001v221h1001z" />
    <glyph glyph-name="Omicron" unicode="&#x39f;" horiz-adv-x="1746" 
d="M872 -27q-162 0 -308.5 61t-252.5 165t-168.5 249.5t-62.5 307.5q0 160 61 305t165.5 250.5t252 168t313.5 62.5t314 -62.5t252.5 -168t165.5 -250.5t61 -305q0 -216 -106.5 -396.5t-288.5 -283.5t-398 -103zM872 186q115 0 219 45t178.5 121.5t118.5 181.5t44 220
q0 153 -72 285t-201.5 211t-286.5 79q-156 0 -285 -79t-201.5 -211t-72.5 -285q0 -154 74 -284.5t202.5 -207t282.5 -76.5z" />
    <glyph glyph-name="Pi" unicode="&#x3a0;" horiz-adv-x="1564" 
d="M1386 1516v-1516h-231v1294h-745v-1294h-232v1516h1208z" />
    <glyph glyph-name="Rho" unicode="&#x3a1;" horiz-adv-x="1265" 
d="M178 0v1516h465q145 0 256.5 -37.5t180 -105.5t103 -157t34.5 -196t-34.5 -195.5t-103 -156.5t-180 -106t-256.5 -38h-233v-524h-232zM410 748h233q173 0 258.5 73.5t85.5 198.5t-85.5 199.5t-258.5 74.5h-233v-546z" />
    <glyph glyph-name="Sigma" unicode="&#x3a3;" horiz-adv-x="1091" 
d="M1028 1516v-222h-663l370 -530v-16l-370 -527h663v-221h-954v201l391 555l-391 559v201h954z" />
    <glyph glyph-name="Tau" unicode="&#x3a4;" horiz-adv-x="1267" 
d="M518 0v1294h-493v222h1218v-222h-493v-1294h-232z" />
    <glyph glyph-name="Upsilon" unicode="&#x3a5;" horiz-adv-x="1402" 
d="M1100 1516h270l-553 -844v-672h-231v670l-553 846h268l399 -619z" />
    <glyph glyph-name="Phi" unicode="&#x3a6;" horiz-adv-x="1699" 
d="M1624 756q0 -171 -81 -317t-233.5 -242.5t-351.5 -118.5v-144h-231v146q-294 35 -473.5 225.5t-179.5 450.5q0 169 77 314.5t227 244.5t349 123v143h231v-143q202 -22 355 -120.5t232 -244.5t79 -317zM958 291q201 30 318 160t117 303q0 113 -49 211t-149.5 168.5
t-236.5 91.5v-934zM305 754q0 -171 113 -299.5t309 -161.5v930q-197 -33 -309.5 -165t-112.5 -304z" />
    <glyph glyph-name="Chi" unicode="&#x3a7;" horiz-adv-x="1320" 
d="M1319 1516l-518 -764l510 -752h-275l-383 565l-383 -565h-274l520 766l-508 750h275l381 -562l380 562h275z" />
    <glyph glyph-name="Psi" unicode="&#x3a8;" horiz-adv-x="1603" 
d="M1303 1516h231v-351q0 -295 -163.5 -466t-450.5 -199v-500h-234v500q-288 28 -451.5 199t-162.5 466v351h231v-279q-1 -109 18.5 -194.5t63 -156t119 -114.5t182.5 -59l2 803h232v-803q106 15 182 59t119 114.5t62.5 156t19.5 194.5v279z" />
    <glyph glyph-name="uni03A9" unicode="&#x3a9;" horiz-adv-x="1693" 
d="M1593 795q0 -190 -80.5 -347t-220.5 -258h285v-190h-653v190q116 25 215.5 107t161 211t61.5 276q0 242 -147 393.5t-369 151.5q-220 0 -367 -151.5t-147 -393.5q0 -221 129 -388.5t309 -205.5v-190h-653v190h284q-140 101 -220.5 258t-80.5 347q0 212 99 383.5
t269.5 267.5t377.5 96q208 0 379 -96t269.5 -267.5t98.5 -383.5z" />
    <glyph glyph-name="Iotadieresis" unicode="&#x3aa;" horiz-adv-x="602" 
d="M66 1710q-65 0 -109.5 44t-44.5 108t44.5 107.5t109.5 43.5t109 -43.5t44 -107.5t-44 -108t-109 -44zM535 1710q-65 0 -109.5 44t-44.5 108t44.5 107.5t109.5 43.5t109 -43.5t44 -107.5t-44 -108t-109 -44zM186 0v1516h232v-1516h-232z" />
    <glyph glyph-name="Upsilondieresis" unicode="&#x3ab;" horiz-adv-x="1402" 
d="M453 1710q-65 0 -109.5 44t-44.5 108t44.5 107.5t109.5 43.5t109 -43.5t44 -107.5t-44 -108t-109 -44zM922 1710q-65 0 -109.5 44t-44.5 108t44.5 107.5t109.5 43.5t109 -43.5t44 -107.5t-44 -108t-109 -44zM1100 1516h270l-553 -844v-672h-231v670l-553 846h268
l399 -619z" />
    <glyph glyph-name="alphatonos" unicode="&#x3ac;" horiz-adv-x="1273" 
d="M831 1640l-122 -485l-187 39l101 446h208zM1186 180q29 0 43 4v-192q-38 -17 -107 -17q-78 0 -134.5 37.5t-84.5 106.5q-137 -137 -332 -137q-133 0 -248 66t-184 183t-69 256t69 255.5t184 182.5t248 66q179 0 312 -117v99h217v-682q0 -111 86 -111zM586 186
q124 0 210.5 88t86.5 213q0 124 -86.5 211.5t-210.5 87.5q-121 0 -208 -88t-87 -211q0 -124 86.5 -212.5t208.5 -88.5z" />
    <glyph glyph-name="epsilontonos" unicode="&#x3ad;" horiz-adv-x="978" 
d="M700 1640l-125 -485l-186 39l103 446h208zM770 287l184 -109q-116 -215 -446 -215q-192 0 -311 81.5t-119 229.5q0 86 45 148.5t123 87.5q-66 28 -104 88.5t-38 134.5q0 130 106.5 203.5t287.5 73.5q151 0 254 -50.5t155 -138.5l-180 -104q-31 51 -87 79.5t-126 28.5
q-86 0 -137 -31.5t-51 -86.5q0 -119 166 -119h153v-176h-164q-182 0 -182 -129q0 -62 56.5 -97.5t152.5 -35.5q95 0 163.5 39t98.5 98z" />
    <glyph glyph-name="etatonos" unicode="&#x3ae;" horiz-adv-x="1177" 
d="M791 1640l-125 -485l-187 39l103 446h209zM670 991q79 0 146 -24t122 -75t86 -139t31 -206v-1065h-217v1046q0 124 -55.5 189t-161.5 65q-230 0 -230 -272v-510h-217v655q0 56 -22.5 84.5t-63.5 28.5q-29 0 -45 -4v192q41 17 109 17q74 0 130 -33.5t83 -97.5
q100 149 305 149z" />
    <glyph glyph-name="iotatonos" unicode="&#x3af;" horiz-adv-x="538" 
d="M154 1194l102 446h209l-125 -485zM399 -25q-130 0 -199 69t-69 200v729h217v-682q0 -57 24 -84t85 -27q33 0 51 4v-192q-66 -17 -109 -17z" />
    <glyph glyph-name="upsilondieresistonos" unicode="&#x3b0;" horiz-adv-x="1216" 
d="M477 1196l96 434h209l-120 -473zM287 1171q-60 0 -101 40.5t-41 101.5q0 60 41 99.5t101 39.5t100.5 -39.5t40.5 -99.5q0 -61 -40.5 -101.5t-100.5 -40.5zM915 1171q-60 0 -100.5 40.5t-40.5 101.5q0 60 40.5 99.5t100.5 39.5t101 -39.5t41 -99.5q0 -61 -41 -101.5
t-101 -40.5zM592 -25q-97 0 -177.5 26t-142.5 78.5t-96.5 138t-34.5 196.5v559h217v-512q0 -279 234 -279q233 0 233 279v512h217v-559q0 -111 -34.5 -196.5t-96.5 -138t-142 -78.5t-177 -26z" />
    <glyph glyph-name="alpha" unicode="&#x3b1;" horiz-adv-x="1273" 
d="M1186 180q29 0 43 4v-192q-38 -17 -107 -17q-78 0 -134.5 37.5t-84.5 106.5q-137 -137 -332 -137q-133 0 -248 66t-184 183t-69 256t69 255.5t184 182.5t248 66q179 0 312 -117v99h217v-682q0 -111 86 -111zM586 186q124 0 210.5 88t86.5 213q0 124 -86.5 211.5
t-210.5 87.5q-121 0 -208 -88t-87 -211q0 -124 86.5 -212.5t208.5 -88.5z" />
    <glyph glyph-name="beta" unicode="&#x3b2;" horiz-adv-x="1185" 
d="M831 823q136 -44 210.5 -149.5t74.5 -253.5q0 -139 -63 -240t-166.5 -149.5t-233.5 -48.5q-181 0 -299 108v-608h-217v1569q0 219 122.5 352t342.5 133q194 0 312 -106.5t118 -278.5q0 -120 -57 -204t-144 -124zM633 186q125 0 195.5 71t70.5 183q0 122 -85 197.5
t-239 75.5h-73v198h73q113 0 177.5 60t64.5 155q0 90 -60 147.5t-159 57.5q-111 0 -177.5 -75.5t-66.5 -206.5v-578q0 -131 75.5 -208.5t203.5 -76.5z" />
    <glyph glyph-name="gamma" unicode="&#x3b3;" horiz-adv-x="1095" 
d="M840 973h235l-420 -1030v-461h-217v461l-420 1030h236l291 -768z" />
    <glyph glyph-name="delta" unicode="&#x3b4;" horiz-adv-x="1169" 
d="M836 967q143 -132 203.5 -246.5t60.5 -237.5q0 -211 -150 -359.5t-366 -148.5q-141 0 -259.5 68t-186.5 185t-68 255q0 127 59 238.5t162.5 181t226.5 76.5l-366 336v201h825v-201h-524zM584 182q126 0 210.5 89t84.5 218q0 124 -85 213t-210 89q-124 0 -208.5 -87.5
t-84.5 -214.5q0 -129 84 -218t209 -89z" />
    <glyph glyph-name="epsilon" unicode="&#x3b5;" horiz-adv-x="978" 
d="M770 287l184 -109q-116 -215 -446 -215q-192 0 -311 81.5t-119 229.5q0 86 45 148.5t123 87.5q-66 28 -104 88.5t-38 134.5q0 130 106.5 203.5t287.5 73.5q151 0 254 -50.5t155 -138.5l-180 -104q-31 51 -87 79.5t-126 28.5q-86 0 -137 -31.5t-51 -86.5q0 -119 166 -119
h153v-176h-164q-182 0 -182 -129q0 -62 56.5 -97.5t152.5 -35.5q95 0 163.5 39t98.5 98z" />
    <glyph glyph-name="zeta" unicode="&#x3b6;" horiz-adv-x="958" 
d="M649 207l266 -2v-590h-217v385h-28q-153 0 -268.5 37.5t-185 105.5t-104 157.5t-34.5 199.5q0 84 20 162.5t48.5 138t77.5 125t90 109.5t102 104l178 176h-522v201h817v-203l-324 -316q-59 -56 -97.5 -99.5t-81 -105.5t-64 -132t-21.5 -148q0 -142 85.5 -223t262.5 -82z
" />
    <glyph glyph-name="eta" unicode="&#x3b7;" horiz-adv-x="1177" 
d="M670 991q79 0 146 -24t122 -75t86 -139t31 -206v-1065h-217v1046q0 124 -55.5 189t-161.5 65q-230 0 -230 -272v-510h-217v655q0 56 -22.5 84.5t-63.5 28.5q-29 0 -45 -4v192q41 17 109 17q74 0 130 -33.5t83 -97.5q100 149 305 149z" />
    <glyph glyph-name="theta" unicode="&#x3b8;" horiz-adv-x="1230" 
d="M616 1542q246 0 387.5 -203.5t141.5 -582.5q0 -383 -141.5 -583t-387.5 -200q-248 0 -389 199.5t-141 583.5q0 381 141.5 583.5t388.5 202.5zM616 1333q-283 0 -309 -479h619q-13 240 -93 359.5t-217 119.5zM616 182q284 0 310 471h-619q26 -471 309 -471z" />
    <glyph glyph-name="iota" unicode="&#x3b9;" horiz-adv-x="538" 
d="M399 -25q-130 0 -199 69t-69 200v729h217v-682q0 -57 24 -84t85 -27q33 0 51 4v-192q-66 -17 -109 -17z" />
    <glyph glyph-name="kappa" unicode="&#x3ba;" horiz-adv-x="1036" 
d="M772 0l-289 414l-131 -125v-289h-215v973h215v-426l307 307q63 66 124.5 92.5t156.5 26.5h37v-193h-19q-51 0 -88.5 -17.5t-83.5 -62.5l-145 -139l387 -561h-256z" />
    <glyph glyph-name="lambda" unicode="&#x3bb;" horiz-adv-x="1077" 
d="M1051 0h-236l-278 711l-277 -711h-235l399 977l-111 276q-34 82 -108 82q-21 0 -53 -8v193q50 16 110 16q159 0 223 -154z" />
    <glyph glyph-name="uni03BC" unicode="&#x3bc;" horiz-adv-x="1206" 
d="M1118 180q29 0 45 4v-192q-41 -17 -108 -17q-75 0 -130.5 34.5t-84.5 99.5q-91 -134 -254 -134q-141 0 -232 101v-422h-217v1319h217v-510q0 -142 60.5 -212.5t171.5 -70.5q110 0 169.5 70.5t59.5 212.5v510h217v-682q0 -54 22.5 -82.5t63.5 -28.5z" />
    <glyph glyph-name="nu" unicode="&#x3bd;" horiz-adv-x="1075" 
d="M813 973h238l-400 -973h-229l-399 973h237l275 -711z" />
    <glyph glyph-name="xi" unicode="&#x3be;" horiz-adv-x="954" 
d="M651 207l258 -2v-590h-217v385h-10q-127 0 -229 21.5t-172.5 60t-118 93t-69 118t-21.5 137.5q0 256 260 361q-189 83 -189 270q0 158 140 254h-220v201h818v-201h-258q-125 0 -190.5 -61t-65.5 -154q0 -96 59 -152.5t180 -56.5h205v-209h-270q-117 0 -181.5 -66.5
t-64.5 -160.5q0 -245 356 -248z" />
    <glyph glyph-name="omicron" unicode="&#x3bf;" horiz-adv-x="1169" 
d="M584 -25q-214 0 -364 149t-150 359q0 138 68 255t186.5 185t259.5 68q216 0 366 -148.5t150 -359.5q0 -138 -68 -254.5t-187 -185t-261 -68.5zM584 182q126 0 210.5 88.5t84.5 212.5q0 123 -84.5 211t-210.5 88q-124 0 -208.5 -88t-84.5 -211t84.5 -212t208.5 -89z" />
    <glyph glyph-name="pi" unicode="&#x3c0;" horiz-adv-x="1230" 
d="M1165 772h-151v-483q0 -53 24.5 -81t67.5 -28q27 0 59 8v-196q-53 -17 -100 -17q-128 0 -198 72t-70 211v514h-375v-772h-217v772h-172v201h1132v-201z" />
    <glyph glyph-name="rho" unicode="&#x3c1;" horiz-adv-x="1210" 
d="M621 991q216 0 367 -148t151 -362q0 -139 -69 -256t-184.5 -183.5t-250.5 -66.5q-183 0 -309 123v-616h-217v1001q0 213 149 360.5t363 147.5zM621 180q124 0 210.5 88.5t86.5 214.5t-86.5 214.5t-210.5 88.5t-209.5 -88.5t-85.5 -214.5q0 -127 86 -215t209 -88z" />
    <glyph glyph-name="uni03C2" unicode="&#x3c2;" horiz-adv-x="1038" 
d="M291 514q0 -136 111.5 -221t336.5 -86l224 -2v-590h-218v385h-6q-159 0 -287 39.5t-211 109t-127 163t-44 202.5q0 205 142 341t359 136q134 0 248.5 -61.5t186.5 -167.5l-185 -109q-41 62 -106.5 95.5t-143.5 33.5q-127 0 -203.5 -75.5t-76.5 -192.5z" />
    <glyph glyph-name="sigma" unicode="&#x3c3;" horiz-adv-x="1220" 
d="M1165 973v-209h-200q118 -118 118 -291q0 -99 -40 -190.5t-108 -159t-162.5 -108t-197.5 -40.5q-137 0 -253.5 68t-184 183t-67.5 247q0 134 67.5 249t184 183t253.5 68h590zM575 182q125 0 206 84.5t81 206.5q0 123 -81 207t-206 84q-124 0 -204 -84t-80 -207t79.5 -207
t204.5 -84z" />
    <glyph glyph-name="tau" unicode="&#x3c4;" horiz-adv-x="1046" 
d="M993 772h-426v-393q2 -103 58 -151t174 -48q79 0 164 13v-195q-98 -23 -189 -23q-191 0 -307.5 100t-116.5 269v428h-325v201h968v-201z" />
    <glyph glyph-name="upsilon" unicode="&#x3c5;" horiz-adv-x="1144" 
d="M571 -25q-97 0 -177 26t-142 78.5t-96.5 138t-34.5 196.5v559h217v-512q0 -279 233 -279q234 0 234 279v512h217v-559q0 -111 -34.5 -196.5t-96.5 -138t-142.5 -78.5t-177.5 -26z" />
    <glyph glyph-name="phi" unicode="&#x3c6;" horiz-adv-x="1406" 
d="M1335 465q0 -136 -65.5 -250.5t-185 -184.5t-267.5 -75v-473h-227v473q-148 5 -268 75t-186 184.5t-66 250.5q0 101 39 192.5t107 159t165.5 109t208.5 45.5v354h227v-354q111 -4 208 -45.5t165 -109t106.5 -159t38.5 -192.5zM291 465q0 -121 82.5 -208.5t216.5 -94.5
v602q-133 -7 -216 -93.5t-83 -205.5zM817 162q134 7 216.5 94.5t82.5 208.5q0 119 -83 205.5t-216 93.5v-602z" />
    <glyph glyph-name="chi" unicode="&#x3c7;" horiz-adv-x="1122" 
d="M1083 -518h-249l-263 530l-260 -530h-254l394 770l-228 459q-45 82 -125 82q-36 0 -65 -11v193q58 16 110 16q99 0 165.5 -42t113.5 -136l156 -313l223 473h254l-361 -709z" />
    <glyph glyph-name="psi" unicode="&#x3c8;" horiz-adv-x="1388" 
d="M1061 973h217v-488q0 -208 -128.5 -341.5t-346.5 -161.5v-500h-217v500q-219 28 -348 161.5t-129 341.5v488h217v-441q0 -137 68.5 -224t191.5 -115v1132h217v-1132q122 28 190 115t68 224v441z" />
    <glyph glyph-name="omega" unicode="&#x3c9;" horiz-adv-x="1519" 
d="M1184 991q113 -56 185.5 -184t72.5 -324q0 -234 -107 -368.5t-280 -134.5q-121 0 -197 59t-98 151q-21 -93 -97.5 -151.5t-195.5 -58.5q-174 0 -281.5 134.5t-107.5 368.5q0 101 20.5 186.5t57.5 147t82.5 104.5t99.5 70l108 -182q-65 -32 -106 -117.5t-41 -226.5
q0 -142 46 -210.5t134 -66.5q78 0 125 55.5t47 162.5v301h217v-301q0 -107 47.5 -162.5t126.5 -55.5q88 -2 134.5 66.5t46.5 210.5q0 140 -42.5 225.5t-107.5 118.5z" />
    <glyph glyph-name="iotadieresis" unicode="&#x3ca;" horiz-adv-x="559" 
d="M10 1171q-60 0 -100.5 40.5t-40.5 101.5q0 60 40.5 99.5t100.5 39.5t101 -39.5t41 -99.5q0 -61 -41 -101.5t-101 -40.5zM446 1171q-60 0 -100.5 40.5t-40.5 101.5q0 60 40.5 99.5t100.5 39.5t101 -39.5t41 -99.5q0 -61 -41 -101.5t-101 -40.5zM369 -25q-129 0 -199 69
t-70 200v729h217v-682q0 -57 24 -84t85 -27q33 0 51 4v-192q-66 -17 -108 -17z" />
    <glyph glyph-name="upsilondieresis" unicode="&#x3cb;" horiz-adv-x="1144" 
d="M362 1171q-60 0 -100.5 40.5t-40.5 101.5q0 60 40.5 99.5t100.5 39.5q62 0 103 -39.5t41 -99.5q0 -61 -41 -101.5t-103 -40.5zM799 1171q-60 0 -101 40.5t-41 101.5q0 60 41 99.5t101 39.5t100.5 -39.5t40.5 -99.5q0 -61 -40.5 -101.5t-100.5 -40.5zM571 -25
q-97 0 -177 26t-142 78.5t-96.5 138t-34.5 196.5v559h217v-512q0 -279 233 -279q234 0 234 279v512h217v-559q0 -111 -34.5 -196.5t-96.5 -138t-142.5 -78.5t-177.5 -26z" />
    <glyph glyph-name="omicrontonos" unicode="&#x3cc;" horiz-adv-x="1169" 
d="M479 1194l103 446h209l-125 -485zM584 -25q-214 0 -364 149t-150 359q0 138 68 255t186.5 185t259.5 68q216 0 366 -148.5t150 -359.5q0 -138 -68 -254.5t-187 -185t-261 -68.5zM584 182q126 0 210.5 88.5t84.5 212.5q0 123 -84.5 211t-210.5 88q-124 0 -208.5 -88
t-84.5 -211t84.5 -212t208.5 -89z" />
    <glyph glyph-name="upsilontonos" unicode="&#x3cd;" horiz-adv-x="1144" 
d="M477 1194l103 446h208l-124 -485zM571 -25q-97 0 -177 26t-142 78.5t-96.5 138t-34.5 196.5v559h217v-512q0 -279 233 -279q234 0 234 279v512h217v-559q0 -111 -34.5 -196.5t-96.5 -138t-142.5 -78.5t-177.5 -26z" />
    <glyph glyph-name="omegatonos" unicode="&#x3ce;" horiz-adv-x="1519" 
d="M981 1640l-125 -485l-186 39l102 446h209zM1184 991q113 -56 185.5 -184t72.5 -324q0 -234 -107 -368.5t-280 -134.5q-121 0 -197 59t-98 151q-21 -93 -97.5 -151.5t-195.5 -58.5q-174 0 -281.5 134.5t-107.5 368.5q0 101 20.5 186.5t57.5 147t82.5 104.5t99.5 70
l108 -182q-65 -32 -106 -117.5t-41 -226.5q0 -142 46 -210.5t134 -66.5q78 0 125 55.5t47 162.5v301h217v-301q0 -107 47.5 -162.5t126.5 -55.5q88 -2 134.5 66.5t46.5 210.5q0 140 -42.5 225.5t-107.5 118.5z" />
    <glyph glyph-name="uni0401" unicode="&#x401;" horiz-adv-x="1198" 
d="M424 1710q-65 0 -109.5 44t-44.5 108t44.5 107.5t109.5 43.5t109.5 -43.5t44.5 -107.5t-44.5 -108t-109.5 -44zM893 1710q-65 0 -109.5 44t-44.5 108t44.5 107.5t109.5 43.5t109.5 -43.5t44.5 -107.5t-44.5 -108t-109.5 -44zM178 0v1516h934v-222h-702v-393h567v-221
h-567v-459h702v-221h-934z" />
    <glyph glyph-name="uni0402" unicode="&#x402;" horiz-adv-x="1503" 
d="M936 891q239 0 373.5 -120t134.5 -341q0 -143 -61 -246.5t-160 -153.5t-222 -50q-88 0 -149 20v227q56 -22 149 -22q90 0 150.5 58.5t60.5 168.5q0 113 -76.5 175.5t-201.5 62.5h-305v-670h-232v1294h-370v222h1106v-222h-504v-403h307z" />
    <glyph glyph-name="uni0403" unicode="&#x403;" horiz-adv-x="1126" 
d="M440 1657l-80 172l471 227l87 -186zM178 1516h924v-222h-692v-1294h-232v1516z" />
    <glyph glyph-name="uni0410" unicode="&#x410;" horiz-adv-x="1488" 
d="M1227 0l-137 348h-691l-135 -348h-250l613 1516h237l613 -1516h-250zM745 1221l-260 -652h519z" />
    <glyph glyph-name="uni0411" unicode="&#x411;" horiz-adv-x="1314" 
d="M733 872q257 0 389.5 -119t132.5 -317q0 -199 -132 -317.5t-390 -118.5h-555v1516h948v-222h-716v-422h323zM752 221q133 0 203.5 57.5t70.5 157.5q0 101 -70.5 158t-203.5 57h-342v-430h342z" />
    <glyph glyph-name="uni0412" unicode="&#x412;" horiz-adv-x="1265" 
d="M178 0v1516h416q262 0 391 -101t129 -289q0 -256 -242 -331q151 -33 226.5 -132.5t75.5 -244.5q0 -211 -153 -314.5t-437 -103.5h-406zM410 901h260q102 0 158.5 49t56.5 144q0 200 -242 200h-233v-393zM410 219h227q159 0 233 63t74 169t-71 168.5t-220 62.5h-243v-463z
" />
    <glyph glyph-name="uni0413" unicode="&#x413;" horiz-adv-x="1126" 
d="M178 1516h924v-222h-692v-1294h-232v1516z" />
    <glyph glyph-name="uni0414" unicode="&#x414;" horiz-adv-x="1628" 
d="M1372 217h176v-594h-221v377h-1079v-377h-223v594h215q129 612 129 1299h1003v-1299zM471 217h672v1077h-549q-18 -575 -123 -1077z" />
    <glyph glyph-name="uni0415" unicode="&#x415;" horiz-adv-x="1198" 
d="M178 0v1516h934v-222h-702v-393h567v-221h-567v-459h702v-221h-934z" />
    <glyph glyph-name="uni0416" unicode="&#x416;" horiz-adv-x="1810" 
d="M1217 756l618 -756h-281l-536 662v-662h-225v662l-537 -662h-281l619 752l-563 764h266l496 -680v680h225v-680l498 680h266z" />
    <glyph glyph-name="uni0417" unicode="&#x417;" horiz-adv-x="1142" 
d="M784 801q123 -53 188.5 -153.5t65.5 -239.5q0 -194 -134.5 -314.5t-342.5 -120.5q-224 0 -354 123.5t-144 341.5h222q14 -118 84 -185t186 -67q115 0 183.5 70.5t68.5 175.5q0 107 -70.5 184.5t-191.5 77.5h-78v211h74q111 0 170 63t59 154q0 85 -54.5 146t-156.5 61
q-107 0 -166.5 -64.5t-64.5 -164.5h-222q4 121 56 219.5t156 160.5t243 62q108 0 193.5 -32t138.5 -87t80.5 -125t27.5 -149q0 -110 -56 -203.5t-161 -144.5z" />
    <glyph glyph-name="uni0418" unicode="&#x418;" horiz-adv-x="1638" 
d="M1163 1516h295v-1516h-231v1223l-805 -1223h-244v1516h230v-1156z" />
    <glyph glyph-name="uni0419" unicode="&#x419;" horiz-adv-x="1638" 
d="M815 1651q-161 0 -261.5 107.5t-100.5 275.5h184q0 -90 46 -140.5t132 -50.5q85 0 130.5 50.5t45.5 140.5h187q0 -168 -102 -275.5t-261 -107.5zM1163 1516h295v-1516h-231v1223l-805 -1223h-244v1516h230v-1156z" />
    <glyph glyph-name="uni041A" unicode="&#x41a;" horiz-adv-x="1327" 
d="M623 752l737 -752h-307l-643 662v-662h-232v1516h232v-680l604 680h293z" />
    <glyph glyph-name="uni041B" unicode="&#x41b;" horiz-adv-x="1511" 
d="M1333 1516v-1516h-231v1294h-539q-11 -209 -26 -376t-36 -298t-45.5 -228.5t-57.5 -167t-68.5 -114.5t-82 -71.5t-94.5 -36.5t-110 -10v225q35 0 59.5 8.5t52.5 38t48 84.5t41.5 150t38 232t32.5 333.5t29 452.5h989z" />
    <glyph glyph-name="uni041C" unicode="&#x41c;" horiz-adv-x="1880" 
d="M1399 1516h301v-1516h-232v1200l-417 -629h-228l-413 631v-1202h-232v1516h301l459 -703z" />
    <glyph glyph-name="uni041D" unicode="&#x41d;" horiz-adv-x="1605" 
d="M1196 1516h231v-1516h-231v686h-786v-686h-232v1516h232v-607h786v607z" />
    <glyph glyph-name="uni041E" unicode="&#x41e;" horiz-adv-x="1746" 
d="M872 -27q-162 0 -308.5 61t-252.5 165t-168.5 249.5t-62.5 307.5q0 160 61 305t165.5 250.5t252 168t313.5 62.5t314 -62.5t252.5 -168t165.5 -250.5t61 -305q0 -216 -106.5 -396.5t-288.5 -283.5t-398 -103zM872 186q115 0 219 45t178.5 121.5t118.5 181.5t44 220
q0 153 -72 285t-201.5 211t-286.5 79q-156 0 -285 -79t-201.5 -211t-72.5 -285q0 -154 74 -284.5t202.5 -207t282.5 -76.5z" />
    <glyph glyph-name="uni041F" unicode="&#x41f;" horiz-adv-x="1579" 
d="M1399 1516v-1516h-232v1294h-757v-1294h-232v1516h1221z" />
    <glyph glyph-name="uni0420" unicode="&#x420;" horiz-adv-x="1265" 
d="M178 0v1516h465q145 0 256.5 -37.5t180 -105.5t103 -157t34.5 -196t-34.5 -195.5t-103 -156.5t-180 -106t-256.5 -38h-233v-524h-232zM410 748h233q173 0 258.5 73.5t85.5 198.5t-85.5 199.5t-258.5 74.5h-233v-546z" />
    <glyph glyph-name="uni0421" unicode="&#x421;" horiz-adv-x="1464" 
d="M872 -27q-162 0 -308.5 61t-252.5 165t-168.5 249.5t-62.5 307.5q0 214 103 394t285 286t402 106q167 0 313.5 -63t254.5 -176l-148 -160q-163 186 -420 186q-155 0 -283.5 -79t-201 -211t-72.5 -285q0 -154 74 -284.5t202.5 -207t282.5 -76.5q113 0 220.5 47t185.5 125
l139 -161q-110 -105 -249.5 -164.5t-295.5 -59.5z" />
    <glyph glyph-name="uni0422" unicode="&#x422;" horiz-adv-x="1267" 
d="M518 0v1294h-493v222h1218v-222h-493v-1294h-232z" />
    <glyph glyph-name="uni0423" unicode="&#x423;" horiz-adv-x="1359" 
d="M1085 1516h271l-647 -1156q-122 -218 -238.5 -303.5t-286.5 -85.5v211q92 0 162 44t133 153l88 156l-530 981h270l381 -742z" />
    <glyph glyph-name="uni0424" unicode="&#x424;" horiz-adv-x="1751" 
d="M1675 768q0 -257 -170.5 -414t-513.5 -170v-250h-231v250q-175 7 -308 52.5t-215 123.5t-122.5 180.5t-40.5 227.5t40.5 227t123 180t215 123t307.5 52v231h231v-231q174 -7 306.5 -52t214.5 -123t122.5 -180t40.5 -227zM303 766q0 -174 111 -266t346 -101v736
q-235 -10 -346 -103t-111 -266zM991 399q235 9 345 101t110 266q0 172 -110 264.5t-345 104.5v-736z" />
    <glyph glyph-name="uni0425" unicode="&#x425;" horiz-adv-x="1320" 
d="M1319 1516l-518 -764l510 -752h-275l-383 565l-383 -565h-274l520 766l-508 750h275l381 -562l380 562h275z" />
    <glyph glyph-name="uni0426" unicode="&#x426;" horiz-adv-x="1654" 
d="M1399 217h176v-594h-223v377h-1174v1516h232v-1299h757v1299h232v-1299z" />
    <glyph glyph-name="uni0427" unicode="&#x427;" horiz-adv-x="1466" 
d="M1069 1516h217v-1516h-231l6 655q-162 -176 -447 -176q-240 0 -380 135t-140 396v506h232v-502q0 -160 90.5 -241t249.5 -81q109 0 199 39t144 111.5t54 165.5l2 -2z" />
    <glyph glyph-name="uni0428" unicode="&#x428;" horiz-adv-x="2148" 
d="M1739 1516h231v-1516h-1792v1516h232v-1299h548v1299h232v-1299h549v1299z" />
    <glyph glyph-name="uni0429" unicode="&#x429;" horiz-adv-x="2224" 
d="M1970 217h176v-594h-223v377h-1745v1516h232v-1299h548v1299h232v-1299h549v1299h231v-1299z" />
    <glyph glyph-name="uni042A" unicode="&#x42a;" horiz-adv-x="1589" 
d="M1020 872q258 0 391 -119.5t133 -316.5q0 -198 -133 -317t-391 -119h-555v1294h-440v222h671v-644h324zM1038 221q134 0 204.5 57.5t70.5 157.5q0 101 -70.5 158t-204.5 57h-342v-430h342z" />
    <glyph glyph-name="uni042B" unicode="&#x42b;" horiz-adv-x="1898" 
d="M410 1516v-644h323q257 0 389.5 -119t132.5 -317q0 -199 -132 -317.5t-390 -118.5h-555v1516h232zM1489 1516h231v-1516h-231v1516zM410 221h342q133 0 203.5 57.5t70.5 157.5q0 101 -70.5 158t-203.5 57h-342v-430z" />
    <glyph glyph-name="uni042C" unicode="&#x42c;" horiz-adv-x="1302" 
d="M410 1516v-644h323q257 0 389.5 -119t132.5 -317q0 -199 -132 -317.5t-390 -118.5h-555v1516h232zM410 221h342q133 0 203.5 57.5t70.5 157.5q0 101 -70.5 158t-203.5 57h-342v-430z" />
    <glyph glyph-name="uni042D" unicode="&#x42d;" horiz-adv-x="1468" 
d="M598 1542q166 0 313.5 -62.5t252 -168t165 -250.5t60.5 -305q0 -216 -106.5 -396.5t-288.5 -283.5t-398 -103q-156 0 -294.5 59.5t-248.5 164.5l137 161q77 -77 185.5 -124.5t220.5 -47.5q212 0 367 137.5t186 344.5h-660v213h652q-41 193 -191 320.5t-352 127.5
q-257 0 -420 -186l-147 160q110 113 255.5 176t311.5 63z" />
    <glyph glyph-name="uni042E" unicode="&#x42e;" horiz-adv-x="2193" 
d="M1413 1542q150 0 279 -58.5t220.5 -161.5t143 -249t51.5 -317q0 -173 -53 -320t-145 -248t-220 -158t-276 -57q-286 0 -479 196.5t-215 516.5h-309v-686h-232v1516h232v-607h317q43 285 230 459t456 174zM1413 186q208 0 335.5 154t127.5 414q0 263 -126.5 419
t-336.5 156q-211 0 -338 -156t-127 -419q0 -260 128.5 -414t336.5 -154z" />
    <glyph glyph-name="uni042F" unicode="&#x42f;" horiz-adv-x="1351" 
d="M635 1516h536v-1516h-231v643h-240l-372 -643h-262l389 659q-175 36 -268 148t-93 272q0 97 32 175.5t96 138t169 91.5t244 32zM940 856v438h-340q-276 0 -276 -221q0 -217 276 -217h340z" />
    <glyph glyph-name="uni0430" unicode="&#x430;" horiz-adv-x="1236" 
d="M883 973h217v-973h-217v100q-131 -118 -312 -118q-133 0 -248 66t-184 183t-69 256t69 255.5t184 182.5t248 66q179 0 312 -117v99zM586 186q124 0 210.5 88t86.5 213q0 124 -86.5 211.5t-210.5 87.5q-121 0 -208 -88t-87 -211q0 -124 86.5 -212.5t208.5 -88.5z" />
    <glyph glyph-name="uni0431" unicode="&#x431;" horiz-adv-x="1185" 
d="M643 977q136 0 246 -69.5t168.5 -182t58.5 -242.5q0 -141 -69 -258t-187 -183.5t-258 -66.5q-147 0 -266.5 73t-189.5 209t-70 310q0 471 434 719l395 230l103 -179l-402 -229q-181 -104 -258 -242q111 111 295 111zM604 182q128 0 209.5 86.5t81.5 206.5
q0 123 -81.5 215t-209.5 92q-98 0 -181 -52t-142 -155v-6q0 -172 90 -279.5t233 -107.5z" />
    <glyph glyph-name="uni0432" unicode="&#x432;" horiz-adv-x="1005" 
d="M137 973h377q181 0 276 -67t95 -179q0 -80 -40 -137t-114 -80q89 -19 143 -82.5t54 -155.5q0 -131 -105 -201.5t-293 -70.5h-393v973zM541 580q57 0 90 28.5t33 77.5q0 51 -35.5 80t-102.5 29h-178v-215h193zM528 178q181 0 181 121q0 57 -43 88t-123 31h-195v-240h180z
" />
    <glyph glyph-name="uni0433" unicode="&#x433;" horiz-adv-x="854" 
d="M831 973v-205h-477v-768h-217v973h694z" />
    <glyph glyph-name="uni0434" unicode="&#x434;" horiz-adv-x="1189" 
d="M989 188h129v-436h-213v248h-657v-248h-213v436h147q72 357 72 785h735v-785zM397 188h377v596h-307q-12 -322 -70 -596z" />
    <glyph glyph-name="uni0435" unicode="&#x435;" horiz-adv-x="1122" 
d="M563 991q112 0 206 -39t157.5 -107t99 -161.5t35.5 -200.5q0 -21 -4 -67h-772q22 -109 101.5 -176.5t197.5 -67.5q83 0 151.5 31.5t110.5 87.5l149 -117q-145 -199 -405 -199q-97 0 -181 27.5t-145.5 75.5t-105.5 113t-66 140t-22 156q0 133 62.5 248t176.5 185.5
t254 70.5zM289 575h553q-15 102 -86 160t-187 58q-103 0 -179 -58.5t-101 -159.5z" />
    <glyph glyph-name="uni0436" unicode="&#x436;" horiz-adv-x="1388" 
d="M1393 0h-258l-336 420v-420h-209v420l-334 -420h-260l410 502l-383 471h249l318 -404v404h209v-404l317 404h252l-385 -471z" />
    <glyph glyph-name="uni0437" unicode="&#x437;" horiz-adv-x="909" 
d="M664 512q79 -25 122 -85t43 -151q0 -141 -109.5 -221t-283.5 -80q-372 0 -395 316h195q9 -56 61 -89.5t135 -33.5q84 0 131 33t47 90q0 56 -41.5 88.5t-124.5 32.5h-90v176h82q148 0 148 106q0 50 -39.5 78.5t-108.5 28.5q-68 0 -110 -31.5t-47 -77.5h-195q8 133 109 216
t262 83q164 0 256 -69.5t92 -194.5q0 -70 -37.5 -129t-101.5 -86z" />
    <glyph glyph-name="uni0438" unicode="&#x438;" horiz-adv-x="1169" 
d="M821 973h211v-973h-211v651l-473 -651h-211v973h211v-651z" />
    <glyph glyph-name="uni0439" unicode="&#x439;" horiz-adv-x="1169" 
d="M604 1108q-159 0 -260.5 107.5t-101.5 275.5h186q0 -90 46 -140.5t130 -50.5q86 0 132 50.5t46 140.5h185q0 -168 -102 -275.5t-261 -107.5zM821 973h211v-973h-211v651l-473 -651h-211v973h211v-651z" />
    <glyph glyph-name="uni043A" unicode="&#x43a;" horiz-adv-x="1032" 
d="M1051 0h-283l-414 424v-424h-217v973h217v-408l385 408h273l-451 -471z" />
    <glyph glyph-name="uni043B" unicode="&#x43b;" horiz-adv-x="1155" 
d="M1018 973v-973h-217v768h-340q-10 -167 -26.5 -290t-43 -209t-58 -140t-78 -84.5t-96 -41.5t-118.5 -11v203q38 0 63 12.5t51.5 57t43 127.5t30.5 227t23 354h766z" />
    <glyph glyph-name="uni043C" unicode="&#x43c;" horiz-adv-x="1331" 
d="M930 973h262v-973h-211v707l-242 -379h-149l-242 379v-707h-211v973h262l267 -420z" />
    <glyph glyph-name="uni043D" unicode="&#x43d;" horiz-adv-x="1169" 
d="M815 973h217v-973h-217v403h-461v-403h-217v973h217v-365h461v365z" />
    <glyph glyph-name="uni043E" unicode="&#x43e;" horiz-adv-x="1169" 
d="M584 -25q-214 0 -364 149t-150 359q0 138 68 255t186.5 185t259.5 68q216 0 366 -148.5t150 -359.5q0 -138 -68 -254.5t-187 -185t-261 -68.5zM584 182q126 0 210.5 88.5t84.5 212.5q0 123 -84.5 211t-210.5 88q-124 0 -208.5 -88t-84.5 -211t84.5 -212t208.5 -89z" />
    <glyph glyph-name="uni043F" unicode="&#x43f;" horiz-adv-x="1146" 
d="M1008 973v-973h-217v768h-437v-768h-217v973h871z" />
    <glyph glyph-name="uni0440" unicode="&#x440;" horiz-adv-x="1239" 
d="M666 991q133 0 248 -66t184 -182.5t69 -255.5t-69 -256t-184 -183t-248 -66q-181 0 -312 118v-618h-217v1491h217v-99q133 117 312 117zM651 186q122 0 208.5 88.5t86.5 212.5q0 123 -87 211t-208 88q-124 0 -210.5 -87.5t-86.5 -211.5q0 -125 86.5 -213t210.5 -88z" />
    <glyph glyph-name="uni0441" unicode="&#x441;" horiz-adv-x="1060" 
d="M584 -25q-140 0 -258.5 68t-187 185t-68.5 255q0 139 68.5 256t187 184.5t258.5 67.5q134 0 248 -61.5t184 -167.5l-185 -109q-87 129 -247 129q-124 0 -208.5 -87.5t-84.5 -211.5t85 -212.5t208 -88.5q79 0 146.5 37.5t107.5 102.5l184 -111q-70 -109 -186 -172.5
t-252 -63.5z" />
    <glyph glyph-name="uni0442" unicode="&#x442;" horiz-adv-x="913" 
d="M889 973v-205h-322v-768h-217v768h-323v205h862z" />
    <glyph glyph-name="uni0443" unicode="&#x443;" horiz-adv-x="1073" 
d="M813 973h236l-611 -1491h-217l205 504l-403 987h235l277 -709z" />
    <glyph glyph-name="uni0444" unicode="&#x444;" horiz-adv-x="1650" 
d="M1153 991q184 0 304 -143t120 -361q0 -219 -120 -362t-304 -143q-139 0 -221 67v-567h-213v567q-82 -67 -221 -67q-184 0 -304 143t-120 362q0 218 120 361t304 143q139 0 221 -67v592h213v-592q82 67 221 67zM524 186q72 0 116 22.5t79 65.5v424q-35 43 -79 65.5
t-116 22.5q-107 0 -170 -84.5t-63 -214.5q0 -131 63.5 -216t169.5 -85zM1128 186q105 0 168.5 85.5t63.5 215.5t-63.5 214.5t-168.5 84.5q-72 0 -116.5 -22.5t-79.5 -65.5v-424q35 -43 79.5 -65.5t116.5 -22.5z" />
    <glyph glyph-name="uni0445" unicode="&#x445;" horiz-adv-x="960" 
d="M954 0h-256l-221 328l-219 -328h-254l346 516l-307 457h254l192 -287l195 287h252l-320 -475z" />
    <glyph glyph-name="uni0446" unicode="&#x446;" horiz-adv-x="1222" 
d="M999 205h175v-529h-211v324h-826v973h217v-768h428v768h217v-768z" />
    <glyph glyph-name="uni0447" unicode="&#x447;" horiz-adv-x="1099" 
d="M745 973h218v-973h-218v422q-105 -117 -296 -117q-167 0 -273 96.5t-106 276.5v295h217v-260q0 -203 215 -203q110 0 176.5 58t66.5 153v252z" />
    <glyph glyph-name="uni0448" unicode="&#x448;" horiz-adv-x="1552" 
d="M1198 973h217v-973h-1278v973h217v-768h314v768h217v-768h313v768z" />
    <glyph glyph-name="uni0449" unicode="&#x449;" horiz-adv-x="1640" 
d="M1415 205h176v-529h-213v324h-1241v973h217v-768h314v768h217v-768h313v768h217v-768z" />
    <glyph glyph-name="uni044A" unicode="&#x44a;" horiz-adv-x="1165" 
d="M745 608q185 0 281 -82.5t96 -222.5t-96 -221.5t-281 -81.5h-442v782h-276v191h489v-365h229zM770 190q65 0 100 32.5t35 82.5q0 49 -35.5 81t-99.5 32h-254v-228h254z" />
    <glyph glyph-name="uni044B" unicode="&#x44b;" horiz-adv-x="1540" 
d="M348 973v-365h232q185 0 280.5 -82.5t95.5 -222.5q0 -139 -96 -221t-280 -82h-443v973h211zM1403 973v-973h-217v973h217zM348 190h256q64 0 99.5 33t35.5 82t-35.5 81t-99.5 32h-256v-228z" />
    <glyph glyph-name="uni044C" unicode="&#x44c;" horiz-adv-x="999" 
d="M348 973v-365h232q185 0 280.5 -82.5t95.5 -222.5q0 -139 -96 -221t-280 -82h-443v973h211zM348 190h256q64 0 99.5 33t35.5 82t-35.5 81t-99.5 32h-256v-228z" />
    <glyph glyph-name="uni044D" unicode="&#x44d;" horiz-adv-x="1064" 
d="M483 991q140 0 258.5 -67.5t187 -184.5t68.5 -256q0 -138 -68.5 -255t-187 -185t-258.5 -68q-136 0 -252 63.5t-186 172.5l182 111q42 -66 108.5 -103t147.5 -37q97 0 173 57t106 148h-305v199h303q-31 88 -106.5 142t-170.5 54q-78 0 -143.5 -33.5t-106.5 -95.5
l-184 109q72 106 186 167.5t248 61.5z" />
    <glyph glyph-name="uni044E" unicode="&#x44e;" horiz-adv-x="1538" 
d="M997 991q206 0 337.5 -141.5t131.5 -366.5q0 -224 -131.5 -366t-337.5 -142q-186 0 -311.5 117.5t-150.5 310.5h-181v-403h-217v973h217v-365h189q34 175 156 279t298 104zM997 182q115 0 182.5 82.5t67.5 218.5t-67.5 217.5t-182.5 81.5q-112 0 -178.5 -81t-66.5 -218
t66.5 -219t178.5 -82z" />
    <glyph glyph-name="uni044F" unicode="&#x44f;" horiz-adv-x="1038" 
d="M457 973h442v-973h-211v373h-153l-238 -373h-238l258 387q-117 28 -176 103.5t-59 183.5q0 137 96 218t279 81zM688 543v256h-223q-83 0 -124.5 -34.5t-41.5 -94.5q0 -59 41.5 -93t124.5 -34h223z" />
    <glyph glyph-name="uni0451" unicode="&#x451;" horiz-adv-x="1122" 
d="M358 1171q-60 0 -100.5 40.5t-40.5 101.5q0 60 40.5 99.5t100.5 39.5t101 -39.5t41 -99.5q0 -61 -41 -101.5t-101 -40.5zM793 1171q-60 0 -101 40.5t-41 101.5q0 60 41 99.5t101 39.5q62 0 102.5 -39.5t40.5 -99.5q0 -61 -40.5 -101.5t-102.5 -40.5zM563 991
q112 0 206 -39t157.5 -107t99 -161.5t35.5 -200.5q0 -21 -4 -67h-772q22 -109 101.5 -176.5t197.5 -67.5q83 0 151.5 31.5t110.5 87.5l149 -117q-145 -199 -405 -199q-97 0 -181 27.5t-145.5 75.5t-105.5 113t-66 140t-22 156q0 133 62.5 248t176.5 185.5t254 70.5zM289 575
h553q-15 102 -86 160t-187 58q-103 0 -179 -58.5t-101 -159.5z" />
    <glyph glyph-name="uni0452" unicode="&#x452;" horiz-adv-x="1181" 
d="M664 991q82 0 150.5 -24t124.5 -75t88 -139t32 -206v-705q0 -140 -71.5 -219.5t-203.5 -79.5q-42 0 -108 17v194q18 -6 51 -6q66 0 90.5 30t24.5 97v653q0 124 -58 189t-168 65q-117 0 -177 -65.5t-60 -206.5v-510h-217v1145h-191v198h191v173h217v-173h354v-198h-354
v-266q104 112 285 112z" />
    <glyph glyph-name="uni0453" unicode="&#x453;" horiz-adv-x="854" 
d="M774 1321l-477 -213l-80 172l473 227zM831 973v-205h-477v-768h-217v973h694z" />
    <glyph glyph-name="uni04EE" unicode="&#x4ee;" horiz-adv-x="1359" 
d="M1112 1958v-199h-678v199h678zM1085 1516h271l-647 -1156q-122 -218 -238.5 -303.5t-286.5 -85.5v211q92 0 162 44t133 153l88 156l-530 981h270l381 -742z" />
    <glyph glyph-name="uni04EF" unicode="&#x4ef;" horiz-adv-x="1073" 
d="M879 1411v-199h-676v199h676zM813 973h236l-611 -1491h-217l205 504l-403 987h235l277 -709z" />
    <glyph glyph-name="Wgrave" unicode="&#x1e80;" horiz-adv-x="2103" 
d="M1333 1829l-80 -172l-477 213l86 186zM1833 1516h252l-481 -1516h-226l-325 1118l-328 -1118h-225l-480 1516h250l340 -1149l326 1149h233l326 -1149z" />
    <glyph glyph-name="wgrave" unicode="&#x1e81;" horiz-adv-x="1662" 
d="M1112 1280l-80 -172l-477 213l86 186zM1407 973h235l-352 -973h-231l-225 694l-228 -694h-231l-352 973h235l234 -707l229 707h223l230 -707z" />
    <glyph glyph-name="Wacute" unicode="&#x1e82;" horiz-adv-x="2103" 
d="M1333 1870l-477 -213l-80 172l471 227zM1833 1516h252l-481 -1516h-226l-325 1118l-328 -1118h-225l-480 1516h250l340 -1149l326 1149h233l326 -1149z" />
    <glyph glyph-name="wacute" unicode="&#x1e83;" horiz-adv-x="1662" 
d="M1110 1321l-477 -213l-80 172l471 227zM1407 973h235l-352 -973h-231l-225 694l-228 -694h-231l-352 973h235l234 -707l229 707h223l230 -707z" />
    <glyph glyph-name="Wdieresis" unicode="&#x1e84;" horiz-adv-x="2103" 
d="M821 1710q-65 0 -109 44t-44 108t44 107.5t109 43.5t109.5 -43.5t44.5 -107.5t-44.5 -108t-109.5 -44zM1290 1710q-65 0 -109 44t-44 108t44 107.5t109 43.5t109.5 -43.5t44.5 -107.5t-44.5 -108t-109.5 -44zM1833 1516h252l-481 -1516h-226l-325 1118l-328 -1118h-225
l-480 1516h250l340 -1149l326 1149h233l326 -1149z" />
    <glyph glyph-name="wdieresis" unicode="&#x1e85;" horiz-adv-x="1662" 
d="M608 1171q-60 0 -100.5 40.5t-40.5 101.5q0 60 40.5 99.5t100.5 39.5q62 0 103 -39.5t41 -99.5q0 -61 -41 -101.5t-103 -40.5zM1044 1171q-60 0 -100.5 40.5t-40.5 101.5q0 60 40.5 99.5t100.5 39.5q61 0 102.5 -39.5t41.5 -99.5q0 -61 -41.5 -101.5t-102.5 -40.5z
M1407 973h235l-352 -973h-231l-225 694l-228 -694h-231l-352 973h235l234 -707l229 707h223l230 -707z" />
    <glyph glyph-name="uni1E9E" unicode="&#x1e9e;" horiz-adv-x="1466" 
d="M1014 893q197 -88 288 -198t91 -273q0 -211 -129.5 -330t-354.5 -119q-233 0 -393 129l113 179q130 -95 284 -95q109 0 178.5 58.5t69.5 154.5q0 37 -7 68t-24.5 58t-36 48.5t-54.5 44t-65 38t-83.5 37.5t-94 37t-110.5 40v18l318 506h-594v-1294h-232v1516h1120v-177z
" />
    <glyph glyph-name="Ygrave" unicode="&#x1ef2;" horiz-adv-x="1402" 
d="M965 1829l-80 -172l-477 213l86 186zM1100 1516h270l-553 -844v-672h-231v670l-553 846h268l399 -619z" />
    <glyph glyph-name="ygrave" unicode="&#x1ef3;" horiz-adv-x="1073" 
d="M815 1280l-80 -172l-477 213l86 186zM813 973h236l-611 -1491h-217l205 504l-403 987h235l277 -709z" />
    <glyph glyph-name="uni1EF8" unicode="&#x1ef8;" horiz-adv-x="1402" 
d="M541 1827q-84 0 -84 -103h-166q0 132 61.5 207.5t175.5 75.5q61 0 121.5 -25.5t109 -51t79.5 -25.5q41 0 60.5 23t19.5 77h165q0 -129 -62 -205t-169 -76q-63 0 -124.5 26t-109 51.5t-77.5 25.5zM1100 1516h270l-553 -844v-672h-231v670l-553 846h268l399 -619z" />
    <glyph glyph-name="uni1EF9" unicode="&#x1ef9;" horiz-adv-x="1073" 
d="M391 1268q-84 0 -84 -103h-166q0 132 62.5 207.5t177.5 75.5q60 0 120 -25.5t108 -51t79 -25.5q41 0 60.5 23t19.5 77h166q0 -130 -62 -206.5t-170 -76.5q-63 0 -124.5 26.5t-109 52.5t-77.5 26zM813 973h236l-611 -1491h-217l205 504l-403 987h235l277 -709z" />
    <glyph glyph-name="endash" unicode="&#x2013;" horiz-adv-x="1372" 
d="M119 674h1134v-207h-1134v207z" />
    <glyph glyph-name="emdash" unicode="&#x2014;" horiz-adv-x="2283" 
d="M119 674h2046v-207h-2046v207z" />
    <glyph glyph-name="quoteleft" unicode="&#x2018;" horiz-adv-x="442" 
d="M231 1262q54 0 87.5 -35t33.5 -92q0 -56 -36.5 -95t-92.5 -39q-67 0 -104 50.5t-37 132.5q0 130 77 230.5t169 105.5v-105q-40 0 -80 -41.5t-51 -116.5q25 5 34 5z" />
    <glyph glyph-name="quoteright" unicode="&#x2019;" horiz-adv-x="444" 
d="M229 1536q67 0 104.5 -50t37.5 -132q0 -130 -76.5 -230.5t-169.5 -105.5v102q42 0 82 42t51 118q-20 -4 -37 -4q-54 0 -87.5 34.5t-33.5 90.5q0 58 36.5 96.5t92.5 38.5z" />
    <glyph glyph-name="quotesinglbase" unicode="&#x201a;" horiz-adv-x="458" 
d="M223 240q68 0 105 -50.5t37 -132.5q0 -130 -76 -230.5t-168 -105.5v103q40 0 80 42t51 118q-20 -4 -35 -4q-54 0 -88.5 34.5t-34.5 89.5q0 57 37 96.5t92 39.5z" />
    <glyph glyph-name="quotedblleft" unicode="&#x201c;" horiz-adv-x="829" 
d="M231 1262q54 0 87.5 -35t33.5 -92q0 -56 -36.5 -95t-92.5 -39q-67 0 -104 50.5t-37 132.5q0 130 77 230.5t169 105.5v-105q-40 0 -80 -41.5t-51 -116.5q25 5 34 5zM618 1262q54 0 87.5 -35t33.5 -92q0 -56 -36.5 -95t-92.5 -39q-67 0 -104 50.5t-37 132.5
q0 130 76.5 230.5t169.5 105.5v-105q-42 0 -82 -41.5t-51 -118.5q17 7 36 7z" />
    <glyph glyph-name="quotedblright" unicode="&#x201d;" horiz-adv-x="829" 
d="M229 1536q67 0 104.5 -50t37.5 -132q0 -130 -76.5 -230.5t-169.5 -105.5v102q42 0 82 42t51 118q-20 -4 -37 -4q-54 0 -87.5 34.5t-33.5 90.5q0 58 36.5 96.5t92.5 38.5zM616 1536q67 0 104.5 -50t37.5 -132q0 -130 -77 -230.5t-169 -105.5v102q40 0 80 42t51 118
q-20 -4 -35 -4q-54 0 -87.5 34.5t-33.5 90.5q0 58 36.5 96.5t92.5 38.5z" />
    <glyph glyph-name="quotedblbase" unicode="&#x201e;" horiz-adv-x="845" 
d="M223 240q68 0 105 -50.5t37 -132.5q0 -130 -76 -230.5t-168 -105.5v103q40 0 80 42t51 118q-20 -4 -35 -4q-54 0 -88.5 34.5t-34.5 89.5q0 57 37 96.5t92 39.5zM610 240q67 0 104.5 -50.5t37.5 -132.5q0 -130 -76 -230.5t-168 -105.5v103q40 0 80 42t51 118
q-20 -4 -35 -4q-54 0 -88.5 34.5t-34.5 89.5q0 58 36.5 97t92.5 39z" />
    <glyph glyph-name="dagger" unicode="&#x2020;" horiz-adv-x="1067" 
d="M422 864h-369v197h369v455h223v-455h369v-197h-369v-1382h-223v1382z" />
    <glyph glyph-name="daggerdbl" unicode="&#x2021;" horiz-adv-x="1140" 
d="M459 33h-367v194h367v699h-367v194h367v396h223v-396h367v-194h-367v-699h367v-194h-367v-551h-223v551z" />
    <glyph glyph-name="bullet" unicode="&#x2022;" horiz-adv-x="800" 
d="M399 518q-104 0 -176.5 74.5t-72.5 179.5t73 179t178 75q104 0 177 -75.5t73 -178.5q0 -105 -73.5 -179.5t-178.5 -74.5z" />
    <glyph glyph-name="ellipsis" unicode="&#x2026;" horiz-adv-x="1499" 
d="M240 -14q-59 0 -99.5 40t-40.5 101q0 60 40.5 99.5t99.5 39.5t99 -39.5t40 -99.5q0 -61 -40 -101t-99 -40zM752 -14q-60 0 -101 40t-41 101q0 60 41 99.5t101 39.5q59 0 99 -39.5t40 -99.5q0 -61 -40 -101t-99 -40zM1262 -14q-60 0 -100 40t-40 101q0 60 40 99.5
t100 39.5q59 0 99 -39.5t40 -99.5q0 -61 -40 -101t-99 -40z" />
    <glyph glyph-name="perthousand" unicode="&#x2030;" horiz-adv-x="2627" 
d="M834 1171q0 -158 -114.5 -270.5t-273.5 -112.5t-273 112.5t-114 270.5t114 270.5t273 112.5t273.5 -112.5t114.5 -270.5zM1217 1516h190l-832 -1516h-190zM446 981q78 0 132.5 56t54.5 134t-54.5 133.5t-132.5 55.5q-79 0 -133.5 -55.5t-54.5 -133.5q0 -79 54.5 -134.5
t133.5 -55.5zM1724 354q0 -158 -114 -270.5t-273 -112.5t-273 112.5t-114 270.5t114 270.5t273 112.5t273 -112.5t114 -270.5zM2568 354q0 -158 -114 -270.5t-273 -112.5t-273 112.5t-114 270.5t114 270.5t273 112.5t273 -112.5t114 -270.5zM1337 164q79 0 133 55.5
t54 134.5t-54 134t-133 55t-132.5 -55t-53.5 -134t53.5 -134.5t132.5 -55.5zM2181 164q79 0 134 56t55 134t-55 133.5t-134 55.5q-78 0 -132 -55.5t-54 -133.5t54 -134t132 -56z" />
    <glyph glyph-name="guilsinglleft" unicode="&#x2039;" horiz-adv-x="657" 
d="M74 494l260 385h233l-254 -385l258 -390h-237z" />
    <glyph glyph-name="guilsinglright" unicode="&#x203a;" horiz-adv-x="657" 
d="M344 494l-254 385h234l260 -385l-260 -390h-238z" />
    <glyph glyph-name="fraction" unicode="&#x2044;" horiz-adv-x="921" 
d="M793 1516h174l-832 -1516h-174z" />
    <glyph glyph-name="Euro" unicode="&#x20ac;" horiz-adv-x="1298" 
d="M739 186q93 0 157 49.5t89 141.5h229q-31 -187 -157.5 -295.5t-317.5 -108.5q-226 0 -356.5 146.5t-130.5 376.5v10h-189l56 166h133v155h-150l54 166h96v27q0 230 130.5 376t356.5 146q191 0 317.5 -107.5t157.5 -293.5h-229q-25 90 -89 139t-157 49q-124 0 -194 -85.5
t-70 -242.5v-8h563l-53 -166h-510v-155h479l-53 -166h-426q1 -153 71.5 -236.5t192.5 -83.5z" />
    <glyph glyph-name="uni20B4" unicode="&#x20b4;" horiz-adv-x="1335" 
d="M1270 1004l-56 -166h-1148l55 166h649q123 71 123 174q0 163 -234 163q-80 0 -164 -26t-147 -76l-121 174q213 133 439 133q205 0 330.5 -90.5t125.5 -245.5q0 -118 -75 -206h223zM66 518l55 166h1149l-56 -166h-649q-121 -72 -121 -174q0 -164 232 -164q79 0 163.5 26.5
t147.5 76.5l121 -174q-215 -134 -438 -134q-205 0 -331 90.5t-126 245.5q0 118 76 207h-223z" />
    <glyph glyph-name="uni20B9" unicode="&#x20b9;" horiz-adv-x="1492" 
d="M954 1350q80 -71 101 -187h303l-53 -166h-250q-23 -165 -149.5 -259.5t-368.5 -94.5h-31l672 -643h-324l-676 643v205h377q222 0 264 149h-641v166h641q-46 148 -264 148h-377v205h1180l-53 -166h-351z" />
    <glyph glyph-name="uni20BA" unicode="&#x20ba;" horiz-adv-x="1294" 
d="M938 754h225v-232q0 -235 -133 -378.5t-354 -143.5h-488v535l-172 -101v195l172 100v102l-172 -100v193l172 100v492h224v-361l356 209v-193l-356 -208v-103l356 207v-193l-356 -208v-453h264q126 0 194 87t68 241v213z" />
    <glyph glyph-name="uni20BD" unicode="&#x20bd;" horiz-adv-x="1357" 
d="M723 559h-236v-180h390v-166h-390v-213h-231v213h-166v166h166v180h-166v166h166v791h467q144 0 255 -37.5t179 -103.5t102.5 -151.5t34.5 -185.5t-34.5 -185.5t-102.5 -152t-179 -104t-255 -37.5zM487 1294v-530h236q171 0 256.5 72.5t85.5 191.5t-85.5 192.5
t-256.5 73.5h-236z" />
    <glyph glyph-name="trademark" unicode="&#x2122;" horiz-adv-x="1634" 
d="M272 1368h-209v148h584v-148h-207v-586h-168v586zM754 1516h172l192 -261l191 261h172v-734h-168v494l-164 -221h-64l-163 221v-494h-170z" />
    <glyph glyph-name="oneeighth" unicode="&#x215b;" horiz-adv-x="1679" 
d="M412 606h-172v756h-183v154h355v-910zM1081 1516h174l-831 -1516h-174zM1503 535q53 -43 81 -106.5t28 -131.5q0 -128 -89 -220.5t-239 -92.5q-149 0 -240.5 92.5t-91.5 220.5q0 67 31 131.5t86 108.5q-33 80 -33 139q0 104 69 177t177 73q107 0 177.5 -73t70.5 -177
q0 -66 -27 -141zM1282 774q-53 0 -87 -37t-34 -86q0 -36 15 -63q55 22 106 22t104 -22q15 25 15 63q0 51 -34 87t-85 36zM1284 115q74 0 121 53.5t47 128.5q0 77 -47.5 128.5t-120.5 51.5q-74 0 -124 -53.5t-50 -126.5q0 -74 50.5 -128t123.5 -54z" />
    <glyph glyph-name="threeeighths" unicode="&#x215c;" horiz-adv-x="1878" 
d="M727 858q0 -121 -94.5 -202t-235.5 -81q-152 0 -243 89.5t-91 234.5h164q0 -73 46 -118.5t118 -45.5q73 0 114.5 39.5t41.5 104.5t-43 104t-115 39h-35v143h35q60 0 99.5 32t39.5 83q0 46 -32 75t-84 29q-54 0 -85.5 -33t-31.5 -87h-170q0 118 82 192t211 74
q126 0 205 -65.5t79 -168.5q0 -71 -39.5 -126t-109.5 -78q83 -28 128.5 -88.5t45.5 -145.5zM1298 1516h175l-832 -1516h-174zM1720 535q53 -43 81 -106.5t28 -131.5q0 -128 -89 -220.5t-239 -92.5q-149 0 -240.5 92.5t-91.5 220.5q0 67 31 131.5t86 108.5q-33 80 -33 139
q0 104 69 177t177 73q107 0 177.5 -73t70.5 -177q0 -66 -27 -141zM1499 774q-53 0 -87 -37t-34 -86q0 -36 15 -63q55 22 106 22q52 0 105 -22q14 23 14 63q0 51 -34 87t-85 36zM1501 115q74 0 121 53.5t47 128.5q0 77 -47.5 128.5t-120.5 51.5q-74 0 -124 -53.5t-50 -126.5
q0 -74 50.5 -128t123.5 -54z" />
    <glyph glyph-name="fiveeighths" unicode="&#x215d;" horiz-adv-x="1878" 
d="M709 897q0 -143 -87 -225t-231 -82q-133 0 -213.5 74t-97.5 215h151q13 -76 56.5 -112t107.5 -36q65 0 113.5 48t48.5 116q0 64 -42 112t-107 48q-97 0 -177 -54l-104 58l76 457h430l6 -132h-307l-33 -206q61 22 125 22q123 0 204 -87t81 -216zM1298 1516h175l-832 -1516
h-174zM1720 535q53 -43 81 -106.5t28 -131.5q0 -128 -89 -220.5t-239 -92.5q-149 0 -240.5 92.5t-91.5 220.5q0 67 31 131.5t86 108.5q-33 80 -33 139q0 104 69 177t177 73q107 0 177.5 -73t70.5 -177q0 -66 -27 -141zM1499 774q-53 0 -87 -37t-34 -86q0 -36 15 -63
q55 22 106 22q52 0 105 -22q14 23 14 63q0 51 -34 87t-85 36zM1501 115q74 0 121 53.5t47 128.5q0 77 -47.5 128.5t-120.5 51.5q-74 0 -124 -53.5t-50 -126.5q0 -74 50.5 -128t123.5 -54z" />
    <glyph glyph-name="seveneighths" unicode="&#x215e;" horiz-adv-x="1714" 
d="M590 1516v-115l-332 -795h-162l326 783h-395v127h563zM1135 1516h174l-832 -1516h-174zM1556 535q53 -43 81 -106.5t28 -131.5q0 -128 -89 -220.5t-239 -92.5q-149 0 -240 92.5t-91 220.5q0 67 30.5 131.5t85.5 108.5q-32 78 -32 139q0 104 68.5 177t176.5 73
q107 0 177.5 -73t70.5 -177q0 -66 -27 -141zM1335 774q-53 0 -87 -37t-34 -86q0 -36 15 -63q55 22 106 22q52 0 105 -22q14 23 14 63q0 51 -34 87t-85 36zM1337 115q74 0 121 53.5t47 128.5q0 77 -47.5 128.5t-120.5 51.5q-74 0 -124 -53.5t-50 -126.5q0 -74 50.5 -128
t123.5 -54z" />
    <glyph glyph-name="arrowleft" unicode="&#x2190;" horiz-adv-x="1699" 
d="M1597 862v-209h-1101l387 -387h-289l-492 492l492 491h291l-389 -387h1101z" />
    <glyph glyph-name="arrowup" unicode="&#x2191;" horiz-adv-x="1187" 
d="M1085 1012v-289l-387 387v-1102h-209v1102l-387 -389v291l492 491z" />
    <glyph glyph-name="arrowright" unicode="&#x2192;" horiz-adv-x="1699" 
d="M1106 1249l491 -491l-491 -492h-289l387 387h-1102v209h1102l-389 387h291z" />
    <glyph glyph-name="arrowdown" unicode="&#x2193;" horiz-adv-x="1187" 
d="M698 401l387 387v-288l-491 -492l-492 492v291l387 -390v1102h209v-1102z" />
    <glyph glyph-name="uni2196" unicode="&#x2196;" horiz-adv-x="1337" 
d="M1235 336l-150 -146l-780 783l2 -553l-205 207v694h697l202 -205h-546z" />
    <glyph glyph-name="uni2197" unicode="&#x2197;" horiz-adv-x="1337" 
d="M539 1321h696v-694l-207 -205v549l-780 -781l-146 148l783 780l-553 -2z" />
    <glyph glyph-name="uni2198" unicode="&#x2198;" horiz-adv-x="1337" 
d="M1028 1090l207 -203v-697h-696l-207 205l553 -2l-783 781l146 147l780 -778v547z" />
    <glyph glyph-name="uni2199" unicode="&#x2199;" horiz-adv-x="1337" 
d="M1235 1174l-782 -781l551 2l-205 -205h-697v697l205 203v-547l780 778z" />
    <glyph glyph-name="minus" unicode="&#x2212;" horiz-adv-x="1380" 
d="M131 813h1118v-209h-1118v209z" />
    <glyph glyph-name="approxequal" unicode="&#x2248;" horiz-adv-x="1349" 
d="M156 788q0 155 80 242.5t225 87.5q81 0 158.5 -24t142.5 -48t115 -24q137 0 137 137h182q0 -154 -80.5 -243t-222.5 -89q-65 0 -129 15.5t-105.5 34t-91.5 34t-90 15.5q-139 0 -139 -138h-182zM156 258q0 154 80 242t225 88q81 0 158.5 -25t142.5 -49.5t115 -24.5
q137 0 137 138h182q0 -153 -80.5 -241.5t-222.5 -88.5q-82 0 -160 24.5t-142.5 49t-113.5 24.5q-139 0 -139 -137h-182z" />
    <glyph glyph-name="notequal" unicode="&#x2260;" horiz-adv-x="1343" 
d="M1212 864h-376l-123 -311h499v-209h-581l-92 -233h-215l92 233h-285v209h367l123 311h-490v209h571l93 234h215l-92 -234h294v-209z" />
    <glyph glyph-name="uniF8FF" unicode="&#xf8ff;" horiz-adv-x="1830" 
d="M1251 1468v-245h-503v-387q70 -25 156.5 -69.5t160.5 -86.5t154 -81.5t165.5 -64t165.5 -24.5q24 0 48 2t36 4l13 2q-2 -3 -5.5 -7t-19.5 -15.5t-36.5 -20t-57 -15.5t-80.5 -7q-153 0 -327 64t-373 167v-684h-259v791q-49 20 -106 20q-69 0 -114.5 -30t-45.5 -87
q0 -40 21 -72t55 -44q-54 3 -84.5 37.5t-30.5 91.5q0 82 68.5 133t189.5 51q29 0 47 -4v581h762z" />
    <glyph glyph-name="uni00A40301" horiz-adv-x="591" 
d="M80 1657l-78 172l471 227l86 -186zM-76 -453v213q92 12 144 50.5t78 124.5t26 235v1346h231v-1346q0 -308 -108 -453.5t-371 -169.5z" />
    <glyph glyph-name="W.ss01" horiz-adv-x="2072" 
d="M1806 1516h252l-598 -1516h-223l-205 514l-203 -514h-221l-600 1516h250l467 -1211l178 457l-299 754h250l180 -467l183 467h249l-301 -764l174 -449z" />
    <glyph glyph-name="Wacute.ss01" horiz-adv-x="2072" 
d="M1323 1870l-477 -213l-80 172l473 227zM1806 1516h252l-598 -1516h-223l-205 514l-203 -514h-221l-600 1516h250l467 -1211l178 457l-299 754h250l180 -467l183 467h249l-301 -764l174 -449z" />
    <glyph glyph-name="Wcircumflex.ss01" horiz-adv-x="2072" 
d="M1047 1843l-275 -186l-102 155l342 244h69l342 -244l-104 -155zM1806 1516h252l-598 -1516h-223l-205 514l-203 -514h-221l-600 1516h250l467 -1211l178 457l-299 754h250l180 -467l183 467h249l-301 -764l174 -449z" />
    <glyph glyph-name="Wdieresis.ss01" horiz-adv-x="2072" 
d="M811 1710q-65 0 -109.5 44t-44.5 108t44.5 107.5t109.5 43.5t109.5 -43.5t44.5 -107.5t-44.5 -108t-109.5 -44zM1280 1710q-65 0 -109.5 44t-44.5 108t44.5 107.5t109.5 43.5t109.5 -43.5t44.5 -107.5t-44.5 -108t-109.5 -44zM1806 1516h252l-598 -1516h-223l-205 514
l-203 -514h-221l-600 1516h250l467 -1211l178 457l-299 754h250l180 -467l183 467h249l-301 -764l174 -449z" />
    <glyph glyph-name="Wgrave.ss01" horiz-adv-x="2072" 
d="M1323 1829l-78 -172l-479 213l86 186zM1806 1516h252l-598 -1516h-223l-205 514l-203 -514h-221l-600 1516h250l467 -1211l178 457l-299 754h250l180 -467l183 467h249l-301 -764l174 -449z" />
    <glyph glyph-name="i.loclTRK" horiz-adv-x="491" 
d="M256 1182q-60 0 -100.5 40t-40.5 101q0 60 40.5 99.5t100.5 39.5q59 0 100 -40t41 -99q0 -61 -41 -101t-100 -40zM121 973h217v-973h-217v973z" />
    <glyph glyph-name="uni006A0301" horiz-adv-x="503" 
d="M-29 1280l471 227l86 -186l-479 -213zM123 973h217v-1491h-217v1491z" />
    <glyph glyph-name="g.ss01" horiz-adv-x="1075" 
d="M1010 973v-168h-119q78 -115 78 -252q0 -123 -62 -227t-168 -160q103 -45 163.5 -130.5t60.5 -193.5q0 -164 -122.5 -269t-320.5 -105q-197 0 -320.5 105t-123.5 269q0 110 61 194.5t166 129.5q-107 55 -169 159.5t-62 227.5q0 181 127 309.5t321 128.5q72 0 133 -18h357
zM520 313q102 0 168 70t66 168q0 96 -66 164.5t-168 68.5t-168.5 -68.5t-66.5 -164.5q0 -98 66 -168t169 -70zM520 -324q93 0 150 48.5t57 125.5q0 75 -59 125t-148 50t-149 -50t-60 -125q0 -77 58 -125.5t151 -48.5z" />
    <glyph glyph-name="gbreve.ss01" horiz-adv-x="1075" 
d="M528 1108q-161 0 -261.5 107.5t-100.5 275.5h184q0 -90 46 -140.5t132 -50.5q84 0 130.5 50.5t46.5 140.5h186q0 -167 -102.5 -275t-260.5 -108zM1010 973v-168h-119q78 -115 78 -252q0 -123 -62 -227t-168 -160q103 -45 163.5 -130.5t60.5 -193.5q0 -164 -122.5 -269
t-320.5 -105q-197 0 -320.5 105t-123.5 269q0 110 61 194.5t166 129.5q-107 55 -169 159.5t-62 227.5q0 181 127 309.5t321 128.5q72 0 133 -18h357zM520 313q102 0 168 70t66 168q0 96 -66 164.5t-168 68.5t-168.5 -68.5t-66.5 -164.5q0 -98 66 -168t169 -70zM520 -324
q93 0 150 48.5t57 125.5q0 75 -59 125t-148 50t-149 -50t-60 -125q0 -77 58 -125.5t151 -48.5z" />
    <glyph glyph-name="uni0123.ss01" horiz-adv-x="1075" 
d="M528 1120q-60 0 -96.5 42t-36.5 114q0 174 201 289l53 -70q-65 -32 -97 -73.5t-32 -80.5q15 5 33 5q40 0 71 -31.5t31 -75.5q0 -50 -36.5 -84.5t-90.5 -34.5zM1010 973v-168h-119q78 -115 78 -252q0 -123 -62 -227t-168 -160q103 -45 163.5 -130.5t60.5 -193.5
q0 -164 -122.5 -269t-320.5 -105q-197 0 -320.5 105t-123.5 269q0 110 61 194.5t166 129.5q-107 55 -169 159.5t-62 227.5q0 181 127 309.5t321 128.5q72 0 133 -18h357zM520 313q102 0 168 70t66 168q0 96 -66 164.5t-168 68.5t-168.5 -68.5t-66.5 -164.5q0 -98 66 -168
t169 -70zM520 -324q93 0 150 48.5t57 125.5q0 75 -59 125t-148 50t-149 -50t-60 -125q0 -77 58 -125.5t151 -48.5z" />
    <glyph glyph-name="gdotaccent.ss01" horiz-adv-x="1075" 
d="M532 1182q-60 0 -100.5 40t-40.5 101q0 60 40.5 99.5t100.5 39.5q59 0 99.5 -39.5t40.5 -99.5q0 -61 -40.5 -101t-99.5 -40zM1010 973v-168h-119q78 -115 78 -252q0 -123 -62 -227t-168 -160q103 -45 163.5 -130.5t60.5 -193.5q0 -164 -122.5 -269t-320.5 -105
q-197 0 -320.5 105t-123.5 269q0 110 61 194.5t166 129.5q-107 55 -169 159.5t-62 227.5q0 181 127 309.5t321 128.5q72 0 133 -18h357zM520 313q102 0 168 70t66 168q0 96 -66 164.5t-168 68.5t-168.5 -68.5t-66.5 -164.5q0 -98 66 -168t169 -70zM520 -324q93 0 150 48.5
t57 125.5q0 75 -59 125t-148 50t-149 -50t-60 -125q0 -77 58 -125.5t151 -48.5z" />
    <glyph glyph-name="g.ss02" horiz-adv-x="1028" 
d="M975 973v-168h-109q66 -106 66 -227q0 -111 -52.5 -205.5t-150 -151.5t-219.5 -57q-67 0 -139 20q-26 -9 -37.5 -24t-11.5 -43q0 -58 53 -74q61 18 141 18q175 0 281 -84t106 -208q0 -127 -103 -211t-284 -84t-284 84t-103 211q0 106 80 186q-40 32 -59 67t-19 87
q0 107 84 167q-62 57 -95.5 135.5t-33.5 166.5q0 171 119.5 292t304.5 121q70 0 129 -18h336zM510 360q95 0 156 64.5t61 155.5q0 90 -61 153.5t-156 63.5q-96 0 -157.5 -63.5t-61.5 -153.5q0 -91 61.5 -155.5t157.5 -64.5zM696 -231q0 50 -44.5 81t-135.5 31
q-90 0 -134 -31.5t-44 -80.5q0 -50 44 -82.5t134 -32.5q91 0 135.5 32.5t44.5 82.5z" />
    <glyph glyph-name="gbreve.ss.ss02" horiz-adv-x="1028" 
d="M518 1108q-159 0 -260.5 107.5t-101.5 275.5h186q0 -90 46 -140.5t130 -50.5q86 0 132 50.5t46 140.5h185q0 -168 -102 -275.5t-261 -107.5zM975 973v-168h-109q66 -106 66 -227q0 -111 -52.5 -205.5t-150 -151.5t-219.5 -57q-67 0 -139 20q-26 -9 -37.5 -24t-11.5 -43
q0 -58 53 -74q61 18 141 18q175 0 281 -84t106 -208q0 -127 -103 -211t-284 -84t-284 84t-103 211q0 106 80 186q-40 32 -59 67t-19 87q0 107 84 167q-62 57 -95.5 135.5t-33.5 166.5q0 171 119.5 292t304.5 121q70 0 129 -18h336zM510 360q95 0 156 64.5t61 155.5
q0 90 -61 153.5t-156 63.5q-96 0 -157.5 -63.5t-61.5 -153.5q0 -91 61.5 -155.5t157.5 -64.5zM696 -231q0 50 -44.5 81t-135.5 31q-90 0 -134 -31.5t-44 -80.5q0 -50 44 -82.5t134 -32.5q91 0 135.5 32.5t44.5 82.5z" />
    <glyph glyph-name="uni0123.ss.ss02" horiz-adv-x="1028" 
d="M520 1120q-58 0 -94.5 42t-36.5 114q0 174 201 289l53 -70q-65 -32 -97 -73.5t-32 -80.5q15 5 33 5q40 0 71 -31.5t31 -75.5q0 -50 -37 -84.5t-92 -34.5zM975 973v-168h-109q66 -106 66 -227q0 -111 -52.5 -205.5t-150 -151.5t-219.5 -57q-67 0 -139 20q-26 -9 -37.5 -24
t-11.5 -43q0 -58 53 -74q61 18 141 18q175 0 281 -84t106 -208q0 -127 -103 -211t-284 -84t-284 84t-103 211q0 106 80 186q-40 32 -59 67t-19 87q0 107 84 167q-62 57 -95.5 135.5t-33.5 166.5q0 171 119.5 292t304.5 121q70 0 129 -18h336zM510 360q95 0 156 64.5
t61 155.5q0 90 -61 153.5t-156 63.5q-96 0 -157.5 -63.5t-61.5 -153.5q0 -91 61.5 -155.5t157.5 -64.5zM696 -231q0 50 -44.5 81t-135.5 31q-90 0 -134 -31.5t-44 -80.5q0 -50 44 -82.5t134 -32.5q91 0 135.5 32.5t44.5 82.5z" />
    <glyph glyph-name="gdotaccent.ss.ss02" horiz-adv-x="1028" 
d="M526 1182q-60 0 -100.5 40t-40.5 101q0 60 40.5 99.5t100.5 39.5q59 0 99.5 -39.5t40.5 -99.5q0 -61 -40.5 -101t-99.5 -40zM975 973v-168h-109q66 -106 66 -227q0 -111 -52.5 -205.5t-150 -151.5t-219.5 -57q-67 0 -139 20q-26 -9 -37.5 -24t-11.5 -43q0 -58 53 -74
q61 18 141 18q175 0 281 -84t106 -208q0 -127 -103 -211t-284 -84t-284 84t-103 211q0 106 80 186q-40 32 -59 67t-19 87q0 107 84 167q-62 57 -95.5 135.5t-33.5 166.5q0 171 119.5 292t304.5 121q70 0 129 -18h336zM510 360q95 0 156 64.5t61 155.5q0 90 -61 153.5
t-156 63.5q-96 0 -157.5 -63.5t-61.5 -153.5q0 -91 61.5 -155.5t157.5 -64.5zM696 -231q0 50 -44.5 81t-135.5 31q-90 0 -134 -31.5t-44 -80.5q0 -50 44 -82.5t134 -32.5q91 0 135.5 32.5t44.5 82.5z" />
    <glyph glyph-name="zero.osf" horiz-adv-x="1196" 
d="M598 -27q-140 0 -258.5 68.5t-187 186t-68.5 255.5q0 211 149.5 359.5t362.5 148.5q216 0 367 -148.5t151 -359.5q0 -138 -68.5 -255.5t-187.5 -186t-260 -68.5zM598 182q126 0 213.5 89t87.5 212q0 122 -88 210.5t-213 88.5t-213 -89t-88 -210q0 -124 88 -212.5
t213 -88.5z" />
    <glyph glyph-name="one.osf" horiz-adv-x="665" 
d="M295 770h-244v203h461v-973h-217v770z" />
    <glyph glyph-name="two.osf" horiz-adv-x="892" 
d="M326 178l475 8v-186h-709v203q224 106 360 230t136 231q0 66 -39 100.5t-100 34.5q-65 0 -111.5 -44.5t-50.5 -133.5h-195q5 164 98.5 267t264.5 103q153 0 242 -86t89 -225q0 -148 -118.5 -285t-341.5 -217z" />
    <glyph glyph-name="three.osf" horiz-adv-x="1001" 
d="M711 365q204 -85 204 -314q0 -189 -127 -302.5t-315 -113.5q-95 0 -173.5 31.5t-130.5 86.5t-82.5 127.5t-35.5 156.5h215q13 -92 68 -147.5t149 -55.5q102 0 159.5 61t57.5 150q0 86 -54.5 147.5t-151.5 61.5h-68v203h72q83 0 127.5 51.5t44.5 118.5q0 71 -44.5 120.5
t-123.5 49.5q-86 0 -134.5 -55.5t-50.5 -133.5h-211q3 170 105 276.5t283 106.5q180 0 285.5 -101t105.5 -253q0 -93 -44 -163t-130 -109z" />
    <glyph glyph-name="four.osf" horiz-adv-x="1046" 
d="M977 203v-203h-158v-342h-217v342h-551v209l545 764h223v-770h158zM287 203h315v463z" />
    <glyph glyph-name="five.osf" horiz-adv-x="1048" 
d="M567 580q99 0 180 -38t132 -102t78.5 -144t27.5 -167q0 -95 -31.5 -183.5t-89 -158t-146 -111t-194.5 -41.5q-194 0 -330 128.5t-145 316.5h189q14 -108 81.5 -174t180.5 -66q121 0 195.5 75t74.5 194q0 116 -71.5 191t-186.5 75q-61 0 -118.5 -22.5t-96.5 -63.5l-147 88
l102 596h600v-203h-399l-45 -231q67 41 159 41z" />
    <glyph glyph-name="six.osf" horiz-adv-x="1060" 
d="M559 872q183 0 312.5 -129t129.5 -313q0 -188 -133 -322.5t-327 -134.5t-326.5 134.5t-132.5 322.5q0 135 92 305l336 621h235l-268 -494q45 10 82 10zM541 182q108 0 179 73t71 175q0 100 -71 173t-179 73q-103 0 -174.5 -73t-71.5 -173t71.5 -174t174.5 -74z" />
    <glyph glyph-name="seven.osf" horiz-adv-x="919" 
d="M31 973h846v-199l-498 -1118h-225l497 1114h-620v203z" />
    <glyph glyph-name="eight.osf" horiz-adv-x="1120" 
d="M852 819q87 -66 137.5 -164t50.5 -211q0 -195 -140 -333t-339 -138q-198 0 -337.5 138t-139.5 333q0 114 49.5 213t136.5 164q-69 84 -69 201q0 149 104.5 253.5t255.5 104.5t257 -104t106 -254q0 -116 -72 -203zM561 1180q-64 0 -108.5 -46.5t-44.5 -111.5
q0 -72 57 -119q54 15 96 15q49 0 98 -15q58 48 58 119q0 65 -45.5 111.5t-110.5 46.5zM561 182q111 0 188.5 78t77.5 184q0 107 -78.5 187t-187.5 80q-107 0 -185.5 -80.5t-78.5 -186.5t78 -184t186 -78z" />
    <glyph glyph-name="nine.osf" horiz-adv-x="1060" 
d="M530 991q194 0 326.5 -134t132.5 -322q0 -136 -92 -306l-336 -620h-235l268 495q-40 -12 -84 -12q-183 0 -312.5 129.5t-129.5 313.5q0 123 60 227.5t166.5 166.5t235.5 62zM528 289q104 0 176 73t72 173t-72 173.5t-176 73.5q-107 0 -177 -72.5t-70 -174.5
q0 -99 70.5 -172.5t176.5 -73.5z" />
    <glyph glyph-name="zero.tf" 
d="M614 -27q-225 0 -356 146.5t-131 376.5v524q0 230 131 376t356 146q221 0 354.5 -143.5t133.5 -378.5v-524q0 -235 -133.5 -379t-354.5 -144zM614 186q126 0 194.5 87t68.5 241v487q0 154 -68.5 241t-194.5 87q-124 0 -193 -85.5t-69 -242.5v-487q0 -157 69 -242.5
t193 -85.5z" />
    <glyph glyph-name="one.tf" 
d="M559 1294h-262v222h494v-1516h-232v1294z" />
    <glyph glyph-name="two.tf" 
d="M815 586l-371 -365h633v-221h-938v225l426 420q152 147 217.5 253.5t65.5 203.5q0 102 -61 164.5t-166 62.5q-102 0 -171 -58.5t-90 -170.5h-221q30 220 162 331t326 111q128 0 229.5 -50t163 -150t61.5 -236q0 -124 -66 -257t-200 -263z" />
    <glyph glyph-name="three.tf" 
d="M842 813q243 -107 243 -381q0 -200 -136.5 -329.5t-344.5 -129.5q-219 0 -350 127.5t-145 337.5h221q14 -117 85.5 -184.5t188.5 -67.5q118 0 183 74.5t65 183.5q0 106 -68 185.5t-180 79.5h-82v215h78q101 0 158 61t57 150q0 84 -50.5 139t-146.5 55
q-105 0 -162.5 -64.5t-62.5 -164.5h-221q4 128 54.5 226.5t152.5 157t242 58.5q137 0 236 -55.5t145.5 -145t46.5 -200.5q0 -227 -207 -328z" />
    <glyph glyph-name="four.tf" 
d="M1133 463v-205h-162v-258h-226v258h-686v199l697 1059h215v-1053h162zM307 463h438v674z" />
    <glyph glyph-name="five.tf" 
d="M645 1014q206 0 343.5 -145t137.5 -369q0 -226 -148 -376.5t-372 -150.5q-210 0 -353 132t-167 335h223q5 -33 16.5 -65.5t35 -67.5t55 -62t80.5 -44t108 -17q136 0 216.5 88.5t80.5 225.5q0 149 -86 232t-211 83q-147 0 -260 -96l-162 127l117 672h745l-16 -211h-547
l-63 -344q100 53 227 53z" />
    <glyph glyph-name="six.tf" 
d="M645 950q199 0 340 -141.5t141 -339.5q0 -132 -64.5 -245.5t-181 -182t-257.5 -68.5q-140 0 -256 68.5t-181 182t-65 245.5t84 293l395 754h254l-307 -580q46 14 98 14zM623 182q124 0 206 85.5t82 201.5q0 113 -82 198t-206 85q-122 0 -204.5 -85.5t-82.5 -197.5
q0 -116 82 -201.5t205 -85.5z" />
    <glyph glyph-name="seven.tf" 
d="M127 1516h971v-222l-619 -1294h-252l625 1294h-725v222z" />
    <glyph glyph-name="eight.tf" 
d="M938 918q97 -72 153 -182t56 -236q0 -143 -71 -264.5t-194 -192t-270 -70.5q-146 0 -268.5 70.5t-193 192t-70.5 264.5q0 127 56.5 238t154.5 182q-82 94 -82 225q0 165 116 281t287 116t288.5 -115.5t117.5 -281.5q0 -132 -80 -227zM612 1331q-77 0 -130.5 -55.5
t-53.5 -130.5q0 -83 57 -137q70 18 127 18q55 0 129 -18q60 57 60 137q0 76 -55 131t-134 55zM612 182q133 0 226.5 94.5t93.5 223.5t-94 223t-226 94q-130 0 -222.5 -94.5t-92.5 -222.5t92.5 -223t222.5 -95z" />
    <glyph glyph-name="nine.tf" 
d="M606 1542q140 0 256 -68t181 -181.5t65 -245.5q0 -129 -84 -293l-395 -754h-254l307 580q-50 -15 -98 -15q-199 0 -340.5 142t-141.5 340q0 132 65 245.5t181.5 181.5t257.5 68zM606 764q122 0 204.5 85.5t82.5 197.5q0 116 -82 201t-205 85q-124 0 -206.5 -85
t-82.5 -201q0 -113 82.5 -198t206.5 -85z" />
    <glyph glyph-name="zero.tosf" 
d="M612 -27q-140 0 -258.5 68.5t-187 186t-68.5 255.5t68.5 255t187 185t258.5 68q141 0 260 -68t187.5 -185t68.5 -255t-68.5 -255.5t-187.5 -186t-260 -68.5zM612 182q126 0 214.5 89t88.5 212q0 122 -89 210.5t-214 88.5t-213 -89t-88 -210q0 -123 88.5 -212t212.5 -89z
" />
    <glyph glyph-name="one.tosf" 
d="M575 770h-241v203h459v-973h-218v770z" />
    <glyph glyph-name="two.tosf" 
d="M494 178l475 8v-186h-707v203q223 107 358.5 230.5t135.5 230.5q0 66 -39.5 100.5t-98.5 34.5q-66 0 -112.5 -44.5t-50.5 -133.5h-195q5 164 98.5 267t264.5 103q153 0 242 -86t89 -225q0 -148 -118.5 -285t-341.5 -217z" />
    <glyph glyph-name="three.tosf" 
d="M823 365q205 -86 205 -314q0 -189 -127 -302.5t-315 -113.5q-95 0 -173.5 31.5t-130.5 86.5t-82.5 127.5t-35.5 156.5h215q13 -92 68 -147.5t149 -55.5q102 0 159.5 61t57.5 150q0 86 -55 147.5t-152 61.5h-67v203h71q83 0 127.5 51.5t44.5 118.5q0 71 -44.5 120.5
t-123.5 49.5q-86 0 -134 -55.5t-50 -133.5h-211q3 170 104.5 276.5t282.5 106.5q180 0 285.5 -101t105.5 -253q0 -93 -44 -163t-130 -109z" />
    <glyph glyph-name="four.tosf" 
d="M1067 203v-203h-158v-342h-217v342h-551v209l545 764h223v-770h158zM377 203h315v463z" />
    <glyph glyph-name="five.tosf" 
d="M657 580q99 0 180 -38t131.5 -102t77.5 -144t27 -167q0 -95 -31.5 -183.5t-88.5 -158t-146 -111t-195 -41.5q-193 0 -328.5 128.5t-146.5 316.5h191q14 -108 81 -174t181 -66q121 0 195.5 75t74.5 194q0 116 -72 191t-186 75q-61 0 -119 -22t-98 -64l-145 88l100 596h600
v-203h-399l-45 -231q70 41 161 41z" />
    <glyph glyph-name="six.tosf" 
d="M643 872q182 0 311 -129t129 -313q0 -188 -133 -322.5t-327 -134.5t-326.5 134.5t-132.5 322.5q0 133 92 305l336 621h235l-268 -496q41 12 84 12zM625 182q107 0 177 73t70 175q0 99 -70.5 172.5t-176.5 73.5q-104 0 -176 -73t-72 -173t72 -174t176 -74z" />
    <glyph glyph-name="seven.tosf" 
d="M186 973h844v-199l-498 -1118h-223l498 1114h-621v203z" />
    <glyph glyph-name="eight.tosf" 
d="M905 819q88 -66 138.5 -164t50.5 -211q0 -195 -140.5 -333t-339.5 -138q-198 0 -337.5 138t-139.5 333q0 114 50.5 212.5t138.5 164.5q-72 87 -72 201q0 149 104.5 253.5t255.5 104.5q152 0 257.5 -103.5t105.5 -254.5q0 -119 -72 -203zM614 1180q-64 0 -108.5 -46.5
t-44.5 -111.5q0 -72 57 -119q54 15 96 15q50 0 99 -15q59 46 59 119q0 65 -46 111.5t-112 46.5zM614 182q111 0 189 78t78 184q0 107 -79 187t-188 80q-107 0 -185.5 -80.5t-78.5 -186.5t78 -184t186 -78z" />
    <glyph glyph-name="nine.tosf" 
d="M614 991q194 0 326.5 -134t132.5 -322q0 -134 -92 -306l-336 -620h-235l268 495q-40 -12 -84 -12q-183 0 -312.5 129.5t-129.5 313.5q0 123 60 227.5t166.5 166.5t235.5 62zM612 289q104 0 176 73t72 173t-72 173.5t-176 73.5q-107 0 -177 -72.5t-70 -174.5
q0 -99 70.5 -172.5t176.5 -73.5z" />
    <glyph glyph-name="zero.numr" horiz-adv-x="751" 
d="M375 590q-130 0 -216.5 79.5t-86.5 211.5v360q0 132 86.5 211.5t216.5 79.5q133 0 219 -81t86 -210v-360q0 -129 -86 -210t-219 -81zM377 733q56 0 101.5 37.5t45.5 114.5v352q0 78 -44.5 115t-102.5 37t-103 -39t-45 -113v-352q0 -75 45.5 -113.5t102.5 -38.5z" />
    <glyph glyph-name="one.numr" horiz-adv-x="450" 
d="M193 1380h-162v136h315v-910h-153v774z" />
    <glyph glyph-name="two.numr" horiz-adv-x="720" 
d="M53 750l320 299q63 59 88.5 106.5t25.5 95.5q0 55 -33.5 92t-97.5 37q-65 0 -100 -40t-37 -107h-170q0 137 87.5 217t225.5 80t220 -78t82 -192q0 -80 -39.5 -153.5t-126.5 -154.5l-207 -192h368v-154h-606v144z" />
    <glyph glyph-name="three.numr" horiz-adv-x="706" 
d="M528 1079q33 -20 55.5 -40.5t44 -66.5t21.5 -106q0 -131 -82.5 -203.5t-220.5 -72.5q-127 0 -212.5 72.5t-94.5 218.5h158q2 -64 44.5 -106t110.5 -42q63 0 106.5 35t43.5 100q0 64 -39.5 101t-112.5 37h-78v131h64q73 0 112 34t39 93q0 60 -36 92.5t-93 32.5
q-56 0 -94.5 -35t-42.5 -99l-158 2q10 132 92 203.5t207 71.5q117 0 197 -62t80 -180q0 -143 -111 -211z" />
    <glyph glyph-name="four.numr" horiz-adv-x="735" 
d="M692 897v-129h-104v-162h-148v162h-415v127l381 621h182v-619h104zM170 897h270v424z" />
    <glyph glyph-name="five.numr" horiz-adv-x="710" 
d="M379 1200q123 0 204 -87t81 -216q0 -143 -86 -225t-230 -82q-133 0 -213.5 74t-97.5 215h151q11 -75 55 -111.5t107 -36.5q68 0 116 45.5t48 118.5q0 67 -42 113.5t-107 46.5q-100 0 -177 -54l-106 58l76 457h452l-10 -132h-311l-35 -206q61 22 125 22z" />
    <glyph glyph-name="six.numr" horiz-adv-x="731" 
d="M391 1196q132 0 215.5 -84t83.5 -215q0 -126 -89 -214.5t-232 -88.5q-144 0 -232 84.5t-88 206.5q0 95 64 217l223 414h176l-174 -324q32 4 53 4zM369 725q76 0 127 51t51 125q0 73 -51 123.5t-127 50.5q-75 0 -125.5 -50.5t-50.5 -123.5q0 -74 50.5 -125t125.5 -51z" />
    <glyph glyph-name="seven.numr" horiz-adv-x="618" 
d="M27 1516h563v-115l-332 -795h-162l326 783h-395v127z" />
    <glyph glyph-name="eight.numr" horiz-adv-x="757" 
d="M600 1141q53 -45 81 -107.5t28 -130.5q0 -128 -90 -220.5t-240 -92.5q-148 0 -239 93t-91 220q0 68 30.5 132.5t86.5 107.5q-35 76 -35 139q0 103 69.5 176.5t176.5 73.5q109 0 179.5 -72.5t70.5 -177.5q0 -66 -27 -141zM377 1380q-52 0 -85.5 -37t-33.5 -86
q0 -38 14 -63q54 23 105 23q50 0 106 -23q15 25 15 63q0 51 -34 87t-87 36zM379 721q74 0 122 54t48 128q0 77 -48.5 128.5t-121.5 51.5q-72 0 -122 -53.5t-50 -126.5q0 -74 50.5 -128t121.5 -54z" />
    <glyph glyph-name="nine.numr" horiz-adv-x="729" 
d="M362 1532q143 0 231.5 -84.5t88.5 -206.5q0 -97 -70 -217l-239 -418h-176l194 340q-32 -4 -51 -4q-130 0 -214.5 82.5t-84.5 204.5q0 125 88.5 214t232.5 89zM362 1053q75 0 126 50t51 124q0 72 -51 123t-126 51q-76 0 -127 -50.5t-51 -123.5q0 -74 51 -124t127 -50z" />
    <glyph glyph-name="period.tf" horiz-adv-x="614" 
d="M309 -14q-60 0 -100.5 40t-40.5 101q0 60 40.5 99.5t100.5 39.5q59 0 99.5 -39.5t40.5 -99.5q0 -61 -40.5 -101t-99.5 -40z" />
    <glyph glyph-name="comma.tf" horiz-adv-x="614" 
d="M305 266q71 0 110.5 -53t39.5 -141q0 -138 -84.5 -244t-192.5 -111v109q54 0 99.5 44.5t56.5 125.5q-20 -4 -37 -4q-57 0 -93 37t-36 96q0 60 38.5 100.5t98.5 40.5z" />
    <glyph glyph-name="colon.tf" horiz-adv-x="614" 
d="M309 670q-60 0 -100.5 40t-40.5 101q0 58 40.5 97.5t100.5 39.5q59 0 99.5 -39.5t40.5 -97.5q0 -61 -40.5 -101t-99.5 -40zM309 -14q-60 0 -100.5 40t-40.5 101q0 60 40.5 99.5t100.5 39.5q59 0 99.5 -39.5t40.5 -99.5q0 -61 -40.5 -101t-99.5 -40z" />
    <glyph glyph-name="semicolon.tf" horiz-adv-x="614" 
d="M305 670q-60 0 -100.5 40t-40.5 101q0 58 40.5 97.5t100.5 39.5q59 0 99 -39.5t40 -97.5q0 -61 -40 -101t-99 -40zM303 266q71 0 110.5 -53t39.5 -141q0 -138 -84.5 -244t-192.5 -111v109q54 0 99.5 44.5t56.5 125.5q-20 -4 -37 -4q-57 0 -93 37t-36 96q0 61 38 101
t99 40z" />
    <glyph glyph-name="slash.tf" horiz-adv-x="614" 
d="M416 1516h219l-434 -1516h-219z" />
    <glyph glyph-name="backslash.tf" horiz-adv-x="614" 
d="M201 1516l434 -1516h-219l-434 1516h219z" />
    <glyph glyph-name="parenleft.case" horiz-adv-x="724" 
d="M616 -209q-249 145 -394.5 400.5t-145.5 572.5q0 320 145 574.5t395 398.5l99 -162q-188 -128 -299 -344t-111 -467q0 -247 112 -464.5t298 -348.5z" />
    <glyph glyph-name="parenright.case" horiz-adv-x="724" 
d="M8 -49q187 131 298.5 348.5t111.5 464.5q0 251 -111 467t-299 344l101 162q250 -144 395 -398.5t145 -574.5q0 -316 -145.5 -571.5t-394.5 -401.5z" />
    <glyph glyph-name="braceleft.case" horiz-adv-x="761" 
d="M29 844q126 5 183.5 61.5t57.5 179.5v365q0 120 67 190t177 70h199v-194h-101q-58 0 -84 -35.5t-26 -106.5v-317q0 -121 -62.5 -203t-187.5 -109q125 -27 187.5 -108t62.5 -201v-317q0 -73 26 -108.5t84 -35.5h101v-194h-199q-110 0 -177 70t-67 192v363q0 122 -57 178
t-184 61v199z" />
    <glyph glyph-name="braceright.case" horiz-adv-x="761" 
d="M733 645q-126 -5 -182.5 -60.5t-56.5 -178.5v-363q0 -121 -68 -191.5t-178 -70.5h-197v194h101q57 0 82.5 36t25.5 108v317q0 120 62.5 201t187.5 108q-125 27 -187.5 109t-62.5 203v317q0 71 -25.5 106.5t-82.5 35.5h-101v194h197q110 0 178 -70t68 -190v-365
q0 -123 56.5 -179.5t182.5 -61.5v-199z" />
    <glyph glyph-name="bracketleft.case" horiz-adv-x="747" 
d="M170 1712h543v-194h-310v-1541h310v-194h-543v1929z" />
    <glyph glyph-name="bracketright.case" horiz-adv-x="747" 
d="M37 -23h307v1541h-307v194h541v-1929h-541v194z" />
    <glyph glyph-name="parenleft.tf" 
d="M868 -406q-249 146 -394.5 401.5t-145.5 571.5q0 320 145 574.5t395 398.5l99 -162q-186 -128 -297 -344t-111 -467q0 -247 111 -464.5t297 -348.5z" />
    <glyph glyph-name="parenright.tf" 
d="M262 -246q186 131 297 348.5t111 464.5q0 251 -111 467t-297 344l98 162q250 -144 395.5 -398.5t145.5 -574.5q0 -316 -146 -571.5t-395 -401.5z" />
    <glyph glyph-name="braceleft.tf" 
d="M262 647q126 5 183 62t57 180v364q0 120 68 190t178 70h198v-194h-102q-57 0 -83 -35t-26 -106v-318q0 -121 -62.5 -202.5t-187.5 -108.5q125 -27 187.5 -108t62.5 -201v-318q0 -72 26 -107.5t83 -35.5h102v-195h-198q-110 0 -178 70.5t-68 191.5v363q0 123 -57 179
t-183 61v198z" />
    <glyph glyph-name="braceright.tf" 
d="M967 449q-126 -5 -183 -61t-57 -179v-363q0 -121 -68 -191.5t-178 -70.5h-198v195h102q57 0 83 35.5t26 107.5v318q0 120 62 201t187 108q-125 27 -187 108.5t-62 202.5v318q0 71 -26 106t-83 35h-102v194h198q110 0 178 -70t68 -190v-364q0 -123 57 -180t183 -62v-198z
" />
    <glyph glyph-name="bracketleft.tf" 
d="M412 1516h540v-195h-309v-1540h309v-195h-540v1930z" />
    <glyph glyph-name="bracketright.tf" 
d="M276 -219h310v1540h-310v195h541v-1930h-541v195z" />
    <glyph glyph-name="hyphen.case" horiz-adv-x="845" 
d="M119 870h608v-206h-608v206z" />
    <glyph glyph-name="endash.case" horiz-adv-x="1372" 
d="M119 870h1134v-206h-1134v206z" />
    <glyph glyph-name="emdash.case" horiz-adv-x="2283" 
d="M119 870h2046v-206h-2046v206z" />
    <glyph glyph-name="hyphen.tf" 
d="M311 674h607v-207h-607v207z" />
    <glyph glyph-name="endash.tf" 
d="M49 674h1131v-207h-1131v207z" />
    <glyph glyph-name="emdash.tf" 
d="M0 674h1229v-207h-1229v207z" />
    <glyph glyph-name="guillemotleft.case" horiz-adv-x="1091" 
d="M74 690l260 385h233l-254 -385l258 -389h-237zM508 690l260 385h233l-253 -385l258 -389h-238z" />
    <glyph glyph-name="guillemotright.case" horiz-adv-x="1091" 
d="M344 690l-254 385h234l260 -385l-260 -389h-238zM778 690l-254 385h234l260 -385l-260 -389h-238z" />
    <glyph glyph-name="guilsinglleft.case" horiz-adv-x="657" 
d="M74 690l260 385h233l-254 -385l258 -389h-237z" />
    <glyph glyph-name="guilsinglright.case" horiz-adv-x="657" 
d="M344 690l-254 385h234l260 -385l-260 -389h-238z" />
    <glyph glyph-name="space.tf" horiz-adv-x="614" 
 />
    <glyph glyph-name="plus.tf" 
d="M504 604h-449v209h449v477h215v-477h455v-209h-455v-477h-215v477z" />
    <glyph glyph-name="minus.tf" 
d="M55 813h1119v-209h-1119v209z" />
    <glyph glyph-name="multiply.tf" horiz-adv-x="1206" 
d="M109 362l348 347l-348 346l147 147l346 -346l348 346l146 -147l-346 -346l346 -347l-148 -147l-346 346l-346 -346z" />
    <glyph glyph-name="divide.tf" 
d="M616 1020q-60 0 -100.5 39.5t-40.5 99.5t40.5 99.5t100.5 39.5q59 0 99.5 -39.5t40.5 -99.5t-40.5 -99.5t-99.5 -39.5zM55 813h1119v-209h-1119v209zM616 119q-60 0 -100.5 39.5t-40.5 99.5t40.5 99.5t100.5 39.5q59 0 99.5 -39.5t40.5 -99.5t-40.5 -99.5t-99.5 -39.5z
" />
    <glyph glyph-name="equal.tf" 
d="M74 864v209h1081v-209h-1081zM74 344v209h1081v-209h-1081z" />
    <glyph glyph-name="notequal.tf" 
d="M1155 864h-377l-123 -311h500v-209h-582l-92 -233h-215l92 233h-284v209h366l123 311h-489v209h571l92 234h215l-92 -234h295v-209z" />
    <glyph glyph-name="greater.tf" 
d="M250 236l475 473l-475 473l147 147l602 -620l-602 -621z" />
    <glyph glyph-name="less.tf" 
d="M229 709l602 620l148 -147l-475 -473l475 -473l-148 -148z" />
    <glyph glyph-name="plusminus.tf" 
d="M504 770h-449v209h449v375h215v-375h455v-209h-455v-375h-215v375zM55 274h1119v-208h-1119v208z" />
    <glyph glyph-name="approxequal.tf" 
d="M94 788q0 155 80 242.5t225 87.5q81 0 158.5 -24t143 -48t116.5 -24q137 0 137 137h181q0 -154 -80 -243t-221 -89q-66 0 -130 15.5t-105.5 34t-91.5 34t-91 15.5q-140 0 -140 -138h-182zM94 258q0 154 80 242t225 88q81 0 158.5 -25t143 -49.5t116.5 -24.5
q137 0 137 138h181q0 -153 -80.5 -241.5t-220.5 -88.5q-83 0 -161 24.5t-142.5 49t-114.5 24.5q-140 0 -140 -137h-182z" />
    <glyph glyph-name="percent.tf" horiz-adv-x="1843" 
d="M862 1171q0 -158 -114 -270.5t-273 -112.5t-273 112.5t-114 270.5t114 270.5t273 112.5t273 -112.5t114 -270.5zM1247 1516h191l-832 -1516h-190zM475 981q79 0 133 55.5t54 134.5t-54 134t-133 55t-132.5 -55t-53.5 -134t53.5 -134.5t132.5 -55.5zM1753 354
q0 -158 -114 -270.5t-273 -112.5t-273 112.5t-114 270.5t114 270.5t273 112.5t273 -112.5t114 -270.5zM1366 164q79 0 133.5 55.5t54.5 134.5q0 78 -54.5 133.5t-133.5 55.5q-78 0 -132 -55.5t-54 -133.5t54 -134t132 -56z" />
    <glyph glyph-name="perthousand.tf" horiz-adv-x="2457" 
d="M748 1171q0 -158 -114.5 -270.5t-273.5 -112.5t-273 112.5t-114 270.5t114 270.5t273 112.5t273.5 -112.5t114.5 -270.5zM1133 1516h190l-831 -1516h-191zM360 981q79 0 134 56t55 134t-55 133.5t-134 55.5q-78 0 -132 -55.5t-54 -133.5t54 -134t132 -56zM1640 354
q0 -158 -114 -270.5t-273 -112.5t-273 112.5t-114 270.5t114 270.5t273 112.5t273 -112.5t114 -270.5zM2484 354q0 -158 -114 -270.5t-273 -112.5t-273 112.5t-114 270.5t114 270.5t273 112.5t273 -112.5t114 -270.5zM1253 164q78 0 132.5 56t54.5 134t-54.5 133.5
t-132.5 55.5q-79 0 -132.5 -55t-53.5 -134t53.5 -134.5t132.5 -55.5zM2097 164q79 0 133 55.5t54 134.5t-54 134t-133 55q-78 0 -132 -55.5t-54 -133.5t54 -134t132 -56z" />
    <glyph glyph-name="ampersand.ss01" horiz-adv-x="1249" 
d="M1219 922v-213h-162v-275q0 -207 -133 -334t-353 -127q-204 0 -338.5 125t-134.5 314q0 143 63.5 244.5t182.5 156.5q-209 98 -209 342q0 77 27 146t78.5 123.5t134.5 86t186 31.5q196 0 311 -112l-143 -160q-62 59 -164 59q-98 0 -148 -56t-50 -145q0 -86 57.5 -146
t161.5 -60h256v213h215v-213h162zM842 434v275h-260q-112 0 -181 -81t-69 -188q0 -109 62.5 -181.5t178.5 -72.5q122 0 195 63.5t74 184.5z" />
    <glyph glyph-name="ampersand.ss02" horiz-adv-x="1202" 
d="M1069 772q78 -127 78 -276q0 -143 -70.5 -263.5t-193.5 -190t-271 -69.5q-110 0 -209 41.5t-169.5 112.5t-112 168.5t-41.5 204.5q0 125 54 232.5t149 180.5q-74 104 -74 232q0 166 116.5 281.5t286.5 115.5q103 0 189.5 -45.5t142.5 -122.5l-180 -121q-55 78 -152 78
q-78 0 -132 -55t-54 -131t54 -131.5t132 -55.5q97 0 152 78l180 -118q-55 -79 -142 -124.5t-190 -45.5q-80 0 -153 28q-74 -42 -119 -117t-45 -159q0 -129 92.5 -223.5t224.5 -94.5q134 0 227 92t93 222q0 87 -45 163z" />
    <glyph glyph-name="uni030C.alt" horiz-adv-x="0" 
d="M-381 1032l62 484h196l-72 -484h-186z" />
    <glyph glyph-name="caron.alt" horiz-adv-x="503" 
d="M381 1516l-72 -484h-186l61 484h197z" />
    <glyph glyph-name="uni0308.case" horiz-adv-x="0" 
d="M-745 1710q-65 0 -109.5 44t-44.5 108t44.5 107.5t109.5 43.5t109 -43.5t44 -107.5t-44 -108t-109 -44zM-276 1710q-65 0 -109.5 44t-44.5 108t44.5 107.5t109.5 43.5t109 -43.5t44 -107.5t-44 -108t-109 -44z" />
    <glyph glyph-name="uni0307.case" horiz-adv-x="0" 
d="M-283 1704q-66 0 -111.5 45.5t-45.5 112.5q0 66 45.5 110.5t111.5 44.5q68 0 114 -44.5t46 -110.5q0 -67 -46 -112.5t-114 -45.5z" />
    <glyph glyph-name="gravecomb.case" horiz-adv-x="0" 
d="M-680 1870l86 186l471 -227l-80 -172z" />
    <glyph glyph-name="acutecomb.case" horiz-adv-x="0" 
d="M-600 1657l-80 172l471 227l86 -186z" />
    <glyph glyph-name="uni030B.case" horiz-adv-x="0" 
d="M-727 1657l-150 119l224 280l159 -127zM-356 1657l-150 119l223 280l160 -127z" />
    <glyph glyph-name="uni0302.case" horiz-adv-x="0" 
d="M-123 1812l-102 -155l-273 186l-274 -186l-105 155l342 244h70z" />
    <glyph glyph-name="uni030C.case" horiz-adv-x="0" 
d="M-225 2056l102 -155l-342 -244h-70l-342 244l105 155l274 -186z" />
    <glyph glyph-name="uni0306.case" horiz-adv-x="0" 
d="M-475 1657q-159 0 -261 108.5t-102 274.5h187q0 -90 45.5 -140.5t130.5 -50.5t130.5 50.5t45.5 140.5h186q0 -167 -101.5 -275t-260.5 -108z" />
    <glyph glyph-name="uni030A.case" horiz-adv-x="0" 
d="M-371 1581q-109 0 -179.5 68.5t-70.5 169.5q0 100 70.5 168.5t179.5 68.5q107 0 177.5 -68.5t70.5 -168.5q0 -101 -70 -169.5t-178 -68.5zM-371 1716q46 0 75.5 30.5t29.5 72.5q0 43 -29 72.5t-76 29.5q-46 0 -75 -29t-29 -73q0 -43 29 -73t75 -30z" />
    <glyph glyph-name="tildecomb.case" horiz-adv-x="0" 
d="M-915 1724q0 132 61.5 207.5t175.5 75.5q60 0 120.5 -25.5t109 -51t79.5 -25.5q41 0 60.5 23t19.5 77h166q0 -129 -62 -205t-169 -76q-63 0 -125 26t-109.5 51.5t-77.5 25.5q-84 0 -84 -103h-165z" />
    <glyph glyph-name="uni0304.case" horiz-adv-x="0" 
d="M-799 1958h676v-199h-676v199z" />
    <glyph glyph-name="uni0337.case" horiz-adv-x="0" 
d="M-762 518l-84 178l639 297l84 -178z" />
    <glyph glyph-name="uni0338.case" horiz-adv-x="0" 
d="M-1718 115l1442 1441l153 -155l-1442 -1442z" />
    <glyph glyph-name="dieresis.case" horiz-adv-x="1251" 
d="M276 1710q-65 0 -109 44t-44 108t44 107.5t109 43.5t109.5 -43.5t44.5 -107.5t-44.5 -108t-109.5 -44zM745 1710q-65 0 -109 44t-44 108t44 107.5t109 43.5t109.5 -43.5t44.5 -107.5t-44.5 -108t-109.5 -44z" />
    <glyph glyph-name="dotaccent.case" horiz-adv-x="1241" 
d="M281 1704q-66 0 -112 45.5t-46 112.5q0 66 46 110.5t112 44.5q68 0 113.5 -44.5t45.5 -110.5q0 -67 -45.5 -112.5t-113.5 -45.5z" />
    <glyph glyph-name="grave.case" horiz-adv-x="1243" 
d="M123 1870l86 186l471 -227l-80 -172z" />
    <glyph glyph-name="acute.case" horiz-adv-x="1243" 
d="M203 1657l-80 172l471 227l86 -186z" />
    <glyph glyph-name="hungarumlaut.case" horiz-adv-x="1226" 
d="M272 1657l-149 119l223 280l160 -127zM643 1657l-149 119l223 280l160 -127z" />
    <glyph glyph-name="circumflex.case" horiz-adv-x="1239" 
d="M877 1812l-103 -155l-272 186l-275 -186l-104 155l342 244h70z" />
    <glyph glyph-name="caron.case" horiz-adv-x="1239" 
d="M774 2056l103 -155l-342 -244h-70l-342 244l104 155l275 -186z" />
    <glyph glyph-name="breve.case" horiz-adv-x="1261" 
d="M475 1657q-159 0 -260.5 108t-101.5 275h186q0 -90 45.5 -140.5t130.5 -50.5t130.5 50.5t45.5 140.5h187q0 -166 -102 -274.5t-261 -108.5z" />
    <glyph glyph-name="ring.case" horiz-adv-x="1277" 
d="M373 1581q-109 0 -179.5 68.5t-70.5 169.5q0 100 70.5 168.5t179.5 68.5q107 0 177.5 -68.5t70.5 -168.5q0 -101 -70 -169.5t-178 -68.5zM373 1716q46 0 75 30t29 73q0 44 -29 73t-75 29q-47 0 -76 -29.5t-29 -72.5q0 -42 29.5 -72.5t75.5 -30.5z" />
    <glyph glyph-name="tilde.case" horiz-adv-x="1269" 
d="M123 1724q0 132 61.5 207.5t175.5 75.5q60 0 120.5 -25.5t109.5 -51t80 -25.5q41 0 60.5 23t19.5 77h165q0 -129 -62 -205t-169 -76q-63 0 -124.5 26t-109 51.5t-77.5 25.5q-84 0 -84 -103h-166z" />
    <glyph glyph-name="macron.case" horiz-adv-x="1234" 
d="M123 1958h676v-199h-676v199z" />
    <glyph glyph-name="tonos.case" horiz-adv-x="559" 
d="M123 1047l106 469h207l-127 -508z" />
    <glyph glyph-name="brevecombcy" horiz-adv-x="0" 
d="M-485 1108q-161 0 -262 107.5t-101 275.5h186q0 -90 46 -140.5t131 -50.5t130.5 50.5t45.5 140.5h186q0 -168 -101.5 -275.5t-260.5 -107.5z" />
    <glyph glyph-name="dieresistonoscomb" horiz-adv-x="1157" 
d="M455 1196l96 434h209l-121 -473zM264 1171q-60 0 -100.5 40.5t-40.5 101.5q0 60 40.5 99.5t100.5 39.5t101 -39.5t41 -99.5q0 -61 -41 -101.5t-101 -40.5zM893 1171q-60 0 -100.5 40.5t-40.5 101.5q0 60 40.5 99.5t100.5 39.5t100.5 -39.5t40.5 -99.5q0 -61 -40.5 -101.5
t-100.5 -40.5z" />
    </font>
</defs>
</svg>
